G04 EAGLE Gerber RS-274X export*
G75*
%MOMM*%
%FSLAX34Y34*%
%LPD*%
%INSolderpaste Bottom*%
%IPPOS*%
%AMOC8*
5,1,8,0,0,1.08239X$1,22.5*%
G01*
%ADD10C,0.100000*%
%ADD11C,0.100800*%
%ADD12C,0.105000*%
%ADD13C,0.099000*%
%ADD14C,0.102000*%


D10*
X54900Y185900D02*
X45900Y185900D01*
X45900Y189900D01*
X54900Y189900D01*
X54900Y185900D01*
X54900Y186850D02*
X45900Y186850D01*
X45900Y187800D02*
X54900Y187800D01*
X54900Y188750D02*
X45900Y188750D01*
X45900Y189700D02*
X54900Y189700D01*
X54900Y174900D02*
X45900Y174900D01*
X45900Y178900D01*
X54900Y178900D01*
X54900Y174900D01*
X54900Y175850D02*
X45900Y175850D01*
X45900Y176800D02*
X54900Y176800D01*
X54900Y177750D02*
X45900Y177750D01*
X45900Y178700D02*
X54900Y178700D01*
X54900Y163900D02*
X45900Y163900D01*
X45900Y167900D01*
X54900Y167900D01*
X54900Y163900D01*
X54900Y164850D02*
X45900Y164850D01*
X45900Y165800D02*
X54900Y165800D01*
X54900Y166750D02*
X45900Y166750D01*
X45900Y167700D02*
X54900Y167700D01*
X54900Y152900D02*
X45900Y152900D01*
X45900Y156900D01*
X54900Y156900D01*
X54900Y152900D01*
X54900Y153850D02*
X45900Y153850D01*
X45900Y154800D02*
X54900Y154800D01*
X54900Y155750D02*
X45900Y155750D01*
X45900Y156700D02*
X54900Y156700D01*
X54900Y141900D02*
X45900Y141900D01*
X45900Y145900D01*
X54900Y145900D01*
X54900Y141900D01*
X54900Y142850D02*
X45900Y142850D01*
X45900Y143800D02*
X54900Y143800D01*
X54900Y144750D02*
X45900Y144750D01*
X45900Y145700D02*
X54900Y145700D01*
X54900Y130900D02*
X45900Y130900D01*
X45900Y134900D01*
X54900Y134900D01*
X54900Y130900D01*
X54900Y131850D02*
X45900Y131850D01*
X45900Y132800D02*
X54900Y132800D01*
X54900Y133750D02*
X45900Y133750D01*
X45900Y134700D02*
X54900Y134700D01*
X54900Y119900D02*
X45900Y119900D01*
X45900Y123900D01*
X54900Y123900D01*
X54900Y119900D01*
X54900Y120850D02*
X45900Y120850D01*
X45900Y121800D02*
X54900Y121800D01*
X54900Y122750D02*
X45900Y122750D01*
X45900Y123700D02*
X54900Y123700D01*
X54900Y108900D02*
X45900Y108900D01*
X45900Y112900D01*
X54900Y112900D01*
X54900Y108900D01*
X54900Y109850D02*
X45900Y109850D01*
X45900Y110800D02*
X54900Y110800D01*
X54900Y111750D02*
X45900Y111750D01*
X45900Y112700D02*
X54900Y112700D01*
D11*
X73804Y202804D02*
X73804Y208996D01*
X80596Y208996D01*
X80596Y202804D01*
X73804Y202804D01*
X73804Y203762D02*
X80596Y203762D01*
X80596Y204720D02*
X73804Y204720D01*
X73804Y205678D02*
X80596Y205678D01*
X80596Y206636D02*
X73804Y206636D01*
X73804Y207594D02*
X80596Y207594D01*
X80596Y208552D02*
X73804Y208552D01*
D12*
X85025Y201175D02*
X94775Y201175D01*
X85025Y201175D02*
X85025Y210625D01*
X94775Y210625D01*
X94775Y201175D01*
X94775Y202172D02*
X85025Y202172D01*
X85025Y203169D02*
X94775Y203169D01*
X94775Y204166D02*
X85025Y204166D01*
X85025Y205163D02*
X94775Y205163D01*
X94775Y206160D02*
X85025Y206160D01*
X85025Y207157D02*
X94775Y207157D01*
X94775Y208154D02*
X85025Y208154D01*
X85025Y209151D02*
X94775Y209151D01*
X94775Y210148D02*
X85025Y210148D01*
X110525Y201175D02*
X121475Y201175D01*
X110525Y201175D02*
X110525Y210625D01*
X121475Y210625D01*
X121475Y201175D01*
X121475Y202172D02*
X110525Y202172D01*
X110525Y203169D02*
X121475Y203169D01*
X121475Y204166D02*
X110525Y204166D01*
X110525Y205163D02*
X121475Y205163D01*
X121475Y206160D02*
X110525Y206160D01*
X110525Y207157D02*
X121475Y207157D01*
X121475Y208154D02*
X110525Y208154D01*
X110525Y209151D02*
X121475Y209151D01*
X121475Y210148D02*
X110525Y210148D01*
X115775Y94425D02*
X104825Y94425D01*
X104825Y103875D01*
X115775Y103875D01*
X115775Y94425D01*
X115775Y95422D02*
X104825Y95422D01*
X104825Y96419D02*
X115775Y96419D01*
X115775Y97416D02*
X104825Y97416D01*
X104825Y98413D02*
X115775Y98413D01*
X115775Y99410D02*
X104825Y99410D01*
X104825Y100407D02*
X115775Y100407D01*
X115775Y101404D02*
X104825Y101404D01*
X104825Y102401D02*
X115775Y102401D01*
X115775Y103398D02*
X104825Y103398D01*
X89875Y94425D02*
X67025Y94425D01*
X67025Y103875D01*
X89875Y103875D01*
X89875Y94425D01*
X89875Y95422D02*
X67025Y95422D01*
X67025Y96419D02*
X89875Y96419D01*
X89875Y97416D02*
X67025Y97416D01*
X67025Y98413D02*
X89875Y98413D01*
X89875Y99410D02*
X67025Y99410D01*
X67025Y100407D02*
X89875Y100407D01*
X89875Y101404D02*
X67025Y101404D01*
X67025Y102401D02*
X89875Y102401D01*
X89875Y103398D02*
X67025Y103398D01*
D13*
X125005Y116895D02*
X125005Y145005D01*
X125005Y116895D02*
X120495Y116895D01*
X120495Y145005D01*
X125005Y145005D01*
X125005Y117835D02*
X120495Y117835D01*
X120495Y118775D02*
X125005Y118775D01*
X125005Y119715D02*
X120495Y119715D01*
X120495Y120655D02*
X125005Y120655D01*
X125005Y121595D02*
X120495Y121595D01*
X120495Y122535D02*
X125005Y122535D01*
X125005Y123475D02*
X120495Y123475D01*
X120495Y124415D02*
X125005Y124415D01*
X125005Y125355D02*
X120495Y125355D01*
X120495Y126295D02*
X125005Y126295D01*
X125005Y127235D02*
X120495Y127235D01*
X120495Y128175D02*
X125005Y128175D01*
X125005Y129115D02*
X120495Y129115D01*
X120495Y130055D02*
X125005Y130055D01*
X125005Y130995D02*
X120495Y130995D01*
X120495Y131935D02*
X125005Y131935D01*
X125005Y132875D02*
X120495Y132875D01*
X120495Y133815D02*
X125005Y133815D01*
X125005Y134755D02*
X120495Y134755D01*
X120495Y135695D02*
X125005Y135695D01*
X125005Y136635D02*
X120495Y136635D01*
X120495Y137575D02*
X125005Y137575D01*
X125005Y138515D02*
X120495Y138515D01*
X120495Y139455D02*
X125005Y139455D01*
X125005Y140395D02*
X120495Y140395D01*
X120495Y141335D02*
X125005Y141335D01*
X125005Y142275D02*
X120495Y142275D01*
X120495Y143215D02*
X125005Y143215D01*
X125005Y144155D02*
X120495Y144155D01*
X125005Y158795D02*
X125005Y186905D01*
X125005Y158795D02*
X120495Y158795D01*
X120495Y186905D01*
X125005Y186905D01*
X125005Y159735D02*
X120495Y159735D01*
X120495Y160675D02*
X125005Y160675D01*
X125005Y161615D02*
X120495Y161615D01*
X120495Y162555D02*
X125005Y162555D01*
X125005Y163495D02*
X120495Y163495D01*
X120495Y164435D02*
X125005Y164435D01*
X125005Y165375D02*
X120495Y165375D01*
X120495Y166315D02*
X125005Y166315D01*
X125005Y167255D02*
X120495Y167255D01*
X120495Y168195D02*
X125005Y168195D01*
X125005Y169135D02*
X120495Y169135D01*
X120495Y170075D02*
X125005Y170075D01*
X125005Y171015D02*
X120495Y171015D01*
X120495Y171955D02*
X125005Y171955D01*
X125005Y172895D02*
X120495Y172895D01*
X120495Y173835D02*
X125005Y173835D01*
X125005Y174775D02*
X120495Y174775D01*
X120495Y175715D02*
X125005Y175715D01*
X125005Y176655D02*
X120495Y176655D01*
X120495Y177595D02*
X125005Y177595D01*
X125005Y178535D02*
X120495Y178535D01*
X120495Y179475D02*
X125005Y179475D01*
X125005Y180415D02*
X120495Y180415D01*
X120495Y181355D02*
X125005Y181355D01*
X125005Y182295D02*
X120495Y182295D01*
X120495Y183235D02*
X125005Y183235D01*
X125005Y184175D02*
X120495Y184175D01*
X120495Y185115D02*
X125005Y185115D01*
X125005Y186055D02*
X120495Y186055D01*
D14*
X93850Y319990D02*
X88870Y319990D01*
X93850Y319990D02*
X93850Y315010D01*
X88870Y315010D01*
X88870Y319990D01*
X88870Y315979D02*
X93850Y315979D01*
X93850Y316948D02*
X88870Y316948D01*
X88870Y317917D02*
X93850Y317917D01*
X93850Y318886D02*
X88870Y318886D01*
X88870Y319855D02*
X93850Y319855D01*
X83850Y319990D02*
X78870Y319990D01*
X83850Y319990D02*
X83850Y315010D01*
X78870Y315010D01*
X78870Y319990D01*
X78870Y315979D02*
X83850Y315979D01*
X83850Y316948D02*
X78870Y316948D01*
X78870Y317917D02*
X83850Y317917D01*
X83850Y318886D02*
X78870Y318886D01*
X78870Y319855D02*
X83850Y319855D01*
X88870Y307290D02*
X93850Y307290D01*
X93850Y302310D01*
X88870Y302310D01*
X88870Y307290D01*
X88870Y303279D02*
X93850Y303279D01*
X93850Y304248D02*
X88870Y304248D01*
X88870Y305217D02*
X93850Y305217D01*
X93850Y306186D02*
X88870Y306186D01*
X88870Y307155D02*
X93850Y307155D01*
X83850Y307290D02*
X78870Y307290D01*
X83850Y307290D02*
X83850Y302310D01*
X78870Y302310D01*
X78870Y307290D01*
X78870Y303279D02*
X83850Y303279D01*
X83850Y304248D02*
X78870Y304248D01*
X78870Y305217D02*
X83850Y305217D01*
X83850Y306186D02*
X78870Y306186D01*
X78870Y307155D02*
X83850Y307155D01*
X99190Y353110D02*
X104170Y353110D01*
X99190Y353110D02*
X99190Y358090D01*
X104170Y358090D01*
X104170Y353110D01*
X104170Y354079D02*
X99190Y354079D01*
X99190Y355048D02*
X104170Y355048D01*
X104170Y356017D02*
X99190Y356017D01*
X99190Y356986D02*
X104170Y356986D01*
X104170Y357955D02*
X99190Y357955D01*
X109190Y353110D02*
X114170Y353110D01*
X109190Y353110D02*
X109190Y358090D01*
X114170Y358090D01*
X114170Y353110D01*
X114170Y354079D02*
X109190Y354079D01*
X109190Y355048D02*
X114170Y355048D01*
X114170Y356017D02*
X109190Y356017D01*
X109190Y356986D02*
X114170Y356986D01*
X114170Y357955D02*
X109190Y357955D01*
X93850Y281890D02*
X88870Y281890D01*
X93850Y281890D02*
X93850Y276910D01*
X88870Y276910D01*
X88870Y281890D01*
X88870Y277879D02*
X93850Y277879D01*
X93850Y278848D02*
X88870Y278848D01*
X88870Y279817D02*
X93850Y279817D01*
X93850Y280786D02*
X88870Y280786D01*
X88870Y281755D02*
X93850Y281755D01*
X83850Y281890D02*
X78870Y281890D01*
X83850Y281890D02*
X83850Y276910D01*
X78870Y276910D01*
X78870Y281890D01*
X78870Y277879D02*
X83850Y277879D01*
X83850Y278848D02*
X78870Y278848D01*
X78870Y279817D02*
X83850Y279817D01*
X83850Y280786D02*
X78870Y280786D01*
X78870Y281755D02*
X83850Y281755D01*
X88870Y294590D02*
X93850Y294590D01*
X93850Y289610D01*
X88870Y289610D01*
X88870Y294590D01*
X88870Y290579D02*
X93850Y290579D01*
X93850Y291548D02*
X88870Y291548D01*
X88870Y292517D02*
X93850Y292517D01*
X93850Y293486D02*
X88870Y293486D01*
X88870Y294455D02*
X93850Y294455D01*
X83850Y294590D02*
X78870Y294590D01*
X83850Y294590D02*
X83850Y289610D01*
X78870Y289610D01*
X78870Y294590D01*
X78870Y290579D02*
X83850Y290579D01*
X83850Y291548D02*
X78870Y291548D01*
X78870Y292517D02*
X83850Y292517D01*
X83850Y293486D02*
X78870Y293486D01*
X78870Y294455D02*
X83850Y294455D01*
X88870Y332690D02*
X93850Y332690D01*
X93850Y327710D01*
X88870Y327710D01*
X88870Y332690D01*
X88870Y328679D02*
X93850Y328679D01*
X93850Y329648D02*
X88870Y329648D01*
X88870Y330617D02*
X93850Y330617D01*
X93850Y331586D02*
X88870Y331586D01*
X88870Y332555D02*
X93850Y332555D01*
X83850Y332690D02*
X78870Y332690D01*
X83850Y332690D02*
X83850Y327710D01*
X78870Y327710D01*
X78870Y332690D01*
X78870Y328679D02*
X83850Y328679D01*
X83850Y329648D02*
X78870Y329648D01*
X78870Y330617D02*
X83850Y330617D01*
X83850Y331586D02*
X78870Y331586D01*
X78870Y332555D02*
X83850Y332555D01*
X106810Y327710D02*
X111790Y327710D01*
X106810Y327710D02*
X106810Y332690D01*
X111790Y332690D01*
X111790Y327710D01*
X111790Y328679D02*
X106810Y328679D01*
X106810Y329648D02*
X111790Y329648D01*
X111790Y330617D02*
X106810Y330617D01*
X106810Y331586D02*
X111790Y331586D01*
X111790Y332555D02*
X106810Y332555D01*
X116810Y327710D02*
X121790Y327710D01*
X116810Y327710D02*
X116810Y332690D01*
X121790Y332690D01*
X121790Y327710D01*
X121790Y328679D02*
X116810Y328679D01*
X116810Y329648D02*
X121790Y329648D01*
X121790Y330617D02*
X116810Y330617D01*
X116810Y331586D02*
X121790Y331586D01*
X121790Y332555D02*
X116810Y332555D01*
X93850Y358090D02*
X88870Y358090D01*
X93850Y358090D02*
X93850Y353110D01*
X88870Y353110D01*
X88870Y358090D01*
X88870Y354079D02*
X93850Y354079D01*
X93850Y355048D02*
X88870Y355048D01*
X88870Y356017D02*
X93850Y356017D01*
X93850Y356986D02*
X88870Y356986D01*
X88870Y357955D02*
X93850Y357955D01*
X83850Y358090D02*
X78870Y358090D01*
X83850Y358090D02*
X83850Y353110D01*
X78870Y353110D01*
X78870Y358090D01*
X78870Y354079D02*
X83850Y354079D01*
X83850Y355048D02*
X78870Y355048D01*
X78870Y356017D02*
X83850Y356017D01*
X83850Y356986D02*
X78870Y356986D01*
X78870Y357955D02*
X83850Y357955D01*
X88870Y345390D02*
X93850Y345390D01*
X93850Y340410D01*
X88870Y340410D01*
X88870Y345390D01*
X88870Y341379D02*
X93850Y341379D01*
X93850Y342348D02*
X88870Y342348D01*
X88870Y343317D02*
X93850Y343317D01*
X93850Y344286D02*
X88870Y344286D01*
X88870Y345255D02*
X93850Y345255D01*
X83850Y345390D02*
X78870Y345390D01*
X83850Y345390D02*
X83850Y340410D01*
X78870Y340410D01*
X78870Y345390D01*
X78870Y341379D02*
X83850Y341379D01*
X83850Y342348D02*
X78870Y342348D01*
X78870Y343317D02*
X83850Y343317D01*
X83850Y344286D02*
X78870Y344286D01*
X78870Y345255D02*
X83850Y345255D01*
D10*
X164250Y379500D02*
X167250Y379500D01*
X164250Y379500D02*
X164250Y382500D01*
X167250Y382500D01*
X167250Y379500D01*
X167250Y380450D02*
X164250Y380450D01*
X164250Y381400D02*
X167250Y381400D01*
X167250Y382350D02*
X164250Y382350D01*
X153250Y379500D02*
X150250Y379500D01*
X150250Y382500D01*
X153250Y382500D01*
X153250Y379500D01*
X153250Y380450D02*
X150250Y380450D01*
X150250Y381400D02*
X153250Y381400D01*
X153250Y382350D02*
X150250Y382350D01*
D14*
X173960Y459690D02*
X178940Y459690D01*
X178940Y454710D01*
X173960Y454710D01*
X173960Y459690D01*
X173960Y455679D02*
X178940Y455679D01*
X178940Y456648D02*
X173960Y456648D01*
X173960Y457617D02*
X178940Y457617D01*
X178940Y458586D02*
X173960Y458586D01*
X173960Y459555D02*
X178940Y459555D01*
X168940Y459690D02*
X163960Y459690D01*
X168940Y459690D02*
X168940Y454710D01*
X163960Y454710D01*
X163960Y459690D01*
X163960Y455679D02*
X168940Y455679D01*
X168940Y456648D02*
X163960Y456648D01*
X163960Y457617D02*
X168940Y457617D01*
X168940Y458586D02*
X163960Y458586D01*
X163960Y459555D02*
X168940Y459555D01*
D10*
X279580Y185900D02*
X288580Y185900D01*
X279580Y185900D02*
X279580Y189900D01*
X288580Y189900D01*
X288580Y185900D01*
X288580Y186850D02*
X279580Y186850D01*
X279580Y187800D02*
X288580Y187800D01*
X288580Y188750D02*
X279580Y188750D01*
X279580Y189700D02*
X288580Y189700D01*
X288580Y174900D02*
X279580Y174900D01*
X279580Y178900D01*
X288580Y178900D01*
X288580Y174900D01*
X288580Y175850D02*
X279580Y175850D01*
X279580Y176800D02*
X288580Y176800D01*
X288580Y177750D02*
X279580Y177750D01*
X279580Y178700D02*
X288580Y178700D01*
X288580Y163900D02*
X279580Y163900D01*
X279580Y167900D01*
X288580Y167900D01*
X288580Y163900D01*
X288580Y164850D02*
X279580Y164850D01*
X279580Y165800D02*
X288580Y165800D01*
X288580Y166750D02*
X279580Y166750D01*
X279580Y167700D02*
X288580Y167700D01*
X288580Y152900D02*
X279580Y152900D01*
X279580Y156900D01*
X288580Y156900D01*
X288580Y152900D01*
X288580Y153850D02*
X279580Y153850D01*
X279580Y154800D02*
X288580Y154800D01*
X288580Y155750D02*
X279580Y155750D01*
X279580Y156700D02*
X288580Y156700D01*
X288580Y141900D02*
X279580Y141900D01*
X279580Y145900D01*
X288580Y145900D01*
X288580Y141900D01*
X288580Y142850D02*
X279580Y142850D01*
X279580Y143800D02*
X288580Y143800D01*
X288580Y144750D02*
X279580Y144750D01*
X279580Y145700D02*
X288580Y145700D01*
X288580Y130900D02*
X279580Y130900D01*
X279580Y134900D01*
X288580Y134900D01*
X288580Y130900D01*
X288580Y131850D02*
X279580Y131850D01*
X279580Y132800D02*
X288580Y132800D01*
X288580Y133750D02*
X279580Y133750D01*
X279580Y134700D02*
X288580Y134700D01*
X288580Y119900D02*
X279580Y119900D01*
X279580Y123900D01*
X288580Y123900D01*
X288580Y119900D01*
X288580Y120850D02*
X279580Y120850D01*
X279580Y121800D02*
X288580Y121800D01*
X288580Y122750D02*
X279580Y122750D01*
X279580Y123700D02*
X288580Y123700D01*
X288580Y108900D02*
X279580Y108900D01*
X279580Y112900D01*
X288580Y112900D01*
X288580Y108900D01*
X288580Y109850D02*
X279580Y109850D01*
X279580Y110800D02*
X288580Y110800D01*
X288580Y111750D02*
X279580Y111750D01*
X279580Y112700D02*
X288580Y112700D01*
D11*
X307484Y202804D02*
X307484Y208996D01*
X314276Y208996D01*
X314276Y202804D01*
X307484Y202804D01*
X307484Y203762D02*
X314276Y203762D01*
X314276Y204720D02*
X307484Y204720D01*
X307484Y205678D02*
X314276Y205678D01*
X314276Y206636D02*
X307484Y206636D01*
X307484Y207594D02*
X314276Y207594D01*
X314276Y208552D02*
X307484Y208552D01*
D12*
X318705Y201175D02*
X328455Y201175D01*
X318705Y201175D02*
X318705Y210625D01*
X328455Y210625D01*
X328455Y201175D01*
X328455Y202172D02*
X318705Y202172D01*
X318705Y203169D02*
X328455Y203169D01*
X328455Y204166D02*
X318705Y204166D01*
X318705Y205163D02*
X328455Y205163D01*
X328455Y206160D02*
X318705Y206160D01*
X318705Y207157D02*
X328455Y207157D01*
X328455Y208154D02*
X318705Y208154D01*
X318705Y209151D02*
X328455Y209151D01*
X328455Y210148D02*
X318705Y210148D01*
X344205Y201175D02*
X355155Y201175D01*
X344205Y201175D02*
X344205Y210625D01*
X355155Y210625D01*
X355155Y201175D01*
X355155Y202172D02*
X344205Y202172D01*
X344205Y203169D02*
X355155Y203169D01*
X355155Y204166D02*
X344205Y204166D01*
X344205Y205163D02*
X355155Y205163D01*
X355155Y206160D02*
X344205Y206160D01*
X344205Y207157D02*
X355155Y207157D01*
X355155Y208154D02*
X344205Y208154D01*
X344205Y209151D02*
X355155Y209151D01*
X355155Y210148D02*
X344205Y210148D01*
X349455Y94425D02*
X338505Y94425D01*
X338505Y103875D01*
X349455Y103875D01*
X349455Y94425D01*
X349455Y95422D02*
X338505Y95422D01*
X338505Y96419D02*
X349455Y96419D01*
X349455Y97416D02*
X338505Y97416D01*
X338505Y98413D02*
X349455Y98413D01*
X349455Y99410D02*
X338505Y99410D01*
X338505Y100407D02*
X349455Y100407D01*
X349455Y101404D02*
X338505Y101404D01*
X338505Y102401D02*
X349455Y102401D01*
X349455Y103398D02*
X338505Y103398D01*
X323555Y94425D02*
X300705Y94425D01*
X300705Y103875D01*
X323555Y103875D01*
X323555Y94425D01*
X323555Y95422D02*
X300705Y95422D01*
X300705Y96419D02*
X323555Y96419D01*
X323555Y97416D02*
X300705Y97416D01*
X300705Y98413D02*
X323555Y98413D01*
X323555Y99410D02*
X300705Y99410D01*
X300705Y100407D02*
X323555Y100407D01*
X323555Y101404D02*
X300705Y101404D01*
X300705Y102401D02*
X323555Y102401D01*
X323555Y103398D02*
X300705Y103398D01*
D13*
X358685Y116895D02*
X358685Y145005D01*
X358685Y116895D02*
X354175Y116895D01*
X354175Y145005D01*
X358685Y145005D01*
X358685Y117835D02*
X354175Y117835D01*
X354175Y118775D02*
X358685Y118775D01*
X358685Y119715D02*
X354175Y119715D01*
X354175Y120655D02*
X358685Y120655D01*
X358685Y121595D02*
X354175Y121595D01*
X354175Y122535D02*
X358685Y122535D01*
X358685Y123475D02*
X354175Y123475D01*
X354175Y124415D02*
X358685Y124415D01*
X358685Y125355D02*
X354175Y125355D01*
X354175Y126295D02*
X358685Y126295D01*
X358685Y127235D02*
X354175Y127235D01*
X354175Y128175D02*
X358685Y128175D01*
X358685Y129115D02*
X354175Y129115D01*
X354175Y130055D02*
X358685Y130055D01*
X358685Y130995D02*
X354175Y130995D01*
X354175Y131935D02*
X358685Y131935D01*
X358685Y132875D02*
X354175Y132875D01*
X354175Y133815D02*
X358685Y133815D01*
X358685Y134755D02*
X354175Y134755D01*
X354175Y135695D02*
X358685Y135695D01*
X358685Y136635D02*
X354175Y136635D01*
X354175Y137575D02*
X358685Y137575D01*
X358685Y138515D02*
X354175Y138515D01*
X354175Y139455D02*
X358685Y139455D01*
X358685Y140395D02*
X354175Y140395D01*
X354175Y141335D02*
X358685Y141335D01*
X358685Y142275D02*
X354175Y142275D01*
X354175Y143215D02*
X358685Y143215D01*
X358685Y144155D02*
X354175Y144155D01*
X358685Y158795D02*
X358685Y186905D01*
X358685Y158795D02*
X354175Y158795D01*
X354175Y186905D01*
X358685Y186905D01*
X358685Y159735D02*
X354175Y159735D01*
X354175Y160675D02*
X358685Y160675D01*
X358685Y161615D02*
X354175Y161615D01*
X354175Y162555D02*
X358685Y162555D01*
X358685Y163495D02*
X354175Y163495D01*
X354175Y164435D02*
X358685Y164435D01*
X358685Y165375D02*
X354175Y165375D01*
X354175Y166315D02*
X358685Y166315D01*
X358685Y167255D02*
X354175Y167255D01*
X354175Y168195D02*
X358685Y168195D01*
X358685Y169135D02*
X354175Y169135D01*
X354175Y170075D02*
X358685Y170075D01*
X358685Y171015D02*
X354175Y171015D01*
X354175Y171955D02*
X358685Y171955D01*
X358685Y172895D02*
X354175Y172895D01*
X354175Y173835D02*
X358685Y173835D01*
X358685Y174775D02*
X354175Y174775D01*
X354175Y175715D02*
X358685Y175715D01*
X358685Y176655D02*
X354175Y176655D01*
X354175Y177595D02*
X358685Y177595D01*
X358685Y178535D02*
X354175Y178535D01*
X354175Y179475D02*
X358685Y179475D01*
X358685Y180415D02*
X354175Y180415D01*
X354175Y181355D02*
X358685Y181355D01*
X358685Y182295D02*
X354175Y182295D01*
X354175Y183235D02*
X358685Y183235D01*
X358685Y184175D02*
X354175Y184175D01*
X354175Y185115D02*
X358685Y185115D01*
X358685Y186055D02*
X354175Y186055D01*
D14*
X327530Y319990D02*
X322550Y319990D01*
X327530Y319990D02*
X327530Y315010D01*
X322550Y315010D01*
X322550Y319990D01*
X322550Y315979D02*
X327530Y315979D01*
X327530Y316948D02*
X322550Y316948D01*
X322550Y317917D02*
X327530Y317917D01*
X327530Y318886D02*
X322550Y318886D01*
X322550Y319855D02*
X327530Y319855D01*
X317530Y319990D02*
X312550Y319990D01*
X317530Y319990D02*
X317530Y315010D01*
X312550Y315010D01*
X312550Y319990D01*
X312550Y315979D02*
X317530Y315979D01*
X317530Y316948D02*
X312550Y316948D01*
X312550Y317917D02*
X317530Y317917D01*
X317530Y318886D02*
X312550Y318886D01*
X312550Y319855D02*
X317530Y319855D01*
X322550Y307290D02*
X327530Y307290D01*
X327530Y302310D01*
X322550Y302310D01*
X322550Y307290D01*
X322550Y303279D02*
X327530Y303279D01*
X327530Y304248D02*
X322550Y304248D01*
X322550Y305217D02*
X327530Y305217D01*
X327530Y306186D02*
X322550Y306186D01*
X322550Y307155D02*
X327530Y307155D01*
X317530Y307290D02*
X312550Y307290D01*
X317530Y307290D02*
X317530Y302310D01*
X312550Y302310D01*
X312550Y307290D01*
X312550Y303279D02*
X317530Y303279D01*
X317530Y304248D02*
X312550Y304248D01*
X312550Y305217D02*
X317530Y305217D01*
X317530Y306186D02*
X312550Y306186D01*
X312550Y307155D02*
X317530Y307155D01*
X332870Y353110D02*
X337850Y353110D01*
X332870Y353110D02*
X332870Y358090D01*
X337850Y358090D01*
X337850Y353110D01*
X337850Y354079D02*
X332870Y354079D01*
X332870Y355048D02*
X337850Y355048D01*
X337850Y356017D02*
X332870Y356017D01*
X332870Y356986D02*
X337850Y356986D01*
X337850Y357955D02*
X332870Y357955D01*
X342870Y353110D02*
X347850Y353110D01*
X342870Y353110D02*
X342870Y358090D01*
X347850Y358090D01*
X347850Y353110D01*
X347850Y354079D02*
X342870Y354079D01*
X342870Y355048D02*
X347850Y355048D01*
X347850Y356017D02*
X342870Y356017D01*
X342870Y356986D02*
X347850Y356986D01*
X347850Y357955D02*
X342870Y357955D01*
X327530Y281890D02*
X322550Y281890D01*
X327530Y281890D02*
X327530Y276910D01*
X322550Y276910D01*
X322550Y281890D01*
X322550Y277879D02*
X327530Y277879D01*
X327530Y278848D02*
X322550Y278848D01*
X322550Y279817D02*
X327530Y279817D01*
X327530Y280786D02*
X322550Y280786D01*
X322550Y281755D02*
X327530Y281755D01*
X317530Y281890D02*
X312550Y281890D01*
X317530Y281890D02*
X317530Y276910D01*
X312550Y276910D01*
X312550Y281890D01*
X312550Y277879D02*
X317530Y277879D01*
X317530Y278848D02*
X312550Y278848D01*
X312550Y279817D02*
X317530Y279817D01*
X317530Y280786D02*
X312550Y280786D01*
X312550Y281755D02*
X317530Y281755D01*
X322550Y294590D02*
X327530Y294590D01*
X327530Y289610D01*
X322550Y289610D01*
X322550Y294590D01*
X322550Y290579D02*
X327530Y290579D01*
X327530Y291548D02*
X322550Y291548D01*
X322550Y292517D02*
X327530Y292517D01*
X327530Y293486D02*
X322550Y293486D01*
X322550Y294455D02*
X327530Y294455D01*
X317530Y294590D02*
X312550Y294590D01*
X317530Y294590D02*
X317530Y289610D01*
X312550Y289610D01*
X312550Y294590D01*
X312550Y290579D02*
X317530Y290579D01*
X317530Y291548D02*
X312550Y291548D01*
X312550Y292517D02*
X317530Y292517D01*
X317530Y293486D02*
X312550Y293486D01*
X312550Y294455D02*
X317530Y294455D01*
X322550Y332690D02*
X327530Y332690D01*
X327530Y327710D01*
X322550Y327710D01*
X322550Y332690D01*
X322550Y328679D02*
X327530Y328679D01*
X327530Y329648D02*
X322550Y329648D01*
X322550Y330617D02*
X327530Y330617D01*
X327530Y331586D02*
X322550Y331586D01*
X322550Y332555D02*
X327530Y332555D01*
X317530Y332690D02*
X312550Y332690D01*
X317530Y332690D02*
X317530Y327710D01*
X312550Y327710D01*
X312550Y332690D01*
X312550Y328679D02*
X317530Y328679D01*
X317530Y329648D02*
X312550Y329648D01*
X312550Y330617D02*
X317530Y330617D01*
X317530Y331586D02*
X312550Y331586D01*
X312550Y332555D02*
X317530Y332555D01*
X340490Y327710D02*
X345470Y327710D01*
X340490Y327710D02*
X340490Y332690D01*
X345470Y332690D01*
X345470Y327710D01*
X345470Y328679D02*
X340490Y328679D01*
X340490Y329648D02*
X345470Y329648D01*
X345470Y330617D02*
X340490Y330617D01*
X340490Y331586D02*
X345470Y331586D01*
X345470Y332555D02*
X340490Y332555D01*
X350490Y327710D02*
X355470Y327710D01*
X350490Y327710D02*
X350490Y332690D01*
X355470Y332690D01*
X355470Y327710D01*
X355470Y328679D02*
X350490Y328679D01*
X350490Y329648D02*
X355470Y329648D01*
X355470Y330617D02*
X350490Y330617D01*
X350490Y331586D02*
X355470Y331586D01*
X355470Y332555D02*
X350490Y332555D01*
X327530Y358090D02*
X322550Y358090D01*
X327530Y358090D02*
X327530Y353110D01*
X322550Y353110D01*
X322550Y358090D01*
X322550Y354079D02*
X327530Y354079D01*
X327530Y355048D02*
X322550Y355048D01*
X322550Y356017D02*
X327530Y356017D01*
X327530Y356986D02*
X322550Y356986D01*
X322550Y357955D02*
X327530Y357955D01*
X317530Y358090D02*
X312550Y358090D01*
X317530Y358090D02*
X317530Y353110D01*
X312550Y353110D01*
X312550Y358090D01*
X312550Y354079D02*
X317530Y354079D01*
X317530Y355048D02*
X312550Y355048D01*
X312550Y356017D02*
X317530Y356017D01*
X317530Y356986D02*
X312550Y356986D01*
X312550Y357955D02*
X317530Y357955D01*
X322550Y345390D02*
X327530Y345390D01*
X327530Y340410D01*
X322550Y340410D01*
X322550Y345390D01*
X322550Y341379D02*
X327530Y341379D01*
X327530Y342348D02*
X322550Y342348D01*
X322550Y343317D02*
X327530Y343317D01*
X327530Y344286D02*
X322550Y344286D01*
X322550Y345255D02*
X327530Y345255D01*
X317530Y345390D02*
X312550Y345390D01*
X317530Y345390D02*
X317530Y340410D01*
X312550Y340410D01*
X312550Y345390D01*
X312550Y341379D02*
X317530Y341379D01*
X317530Y342348D02*
X312550Y342348D01*
X312550Y343317D02*
X317530Y343317D01*
X317530Y344286D02*
X312550Y344286D01*
X312550Y345255D02*
X317530Y345255D01*
D10*
X397930Y379500D02*
X400930Y379500D01*
X397930Y379500D02*
X397930Y382500D01*
X400930Y382500D01*
X400930Y379500D01*
X400930Y380450D02*
X397930Y380450D01*
X397930Y381400D02*
X400930Y381400D01*
X400930Y382350D02*
X397930Y382350D01*
X386930Y379500D02*
X383930Y379500D01*
X383930Y382500D01*
X386930Y382500D01*
X386930Y379500D01*
X386930Y380450D02*
X383930Y380450D01*
X383930Y381400D02*
X386930Y381400D01*
X386930Y382350D02*
X383930Y382350D01*
D14*
X407640Y459690D02*
X412620Y459690D01*
X412620Y454710D01*
X407640Y454710D01*
X407640Y459690D01*
X407640Y455679D02*
X412620Y455679D01*
X412620Y456648D02*
X407640Y456648D01*
X407640Y457617D02*
X412620Y457617D01*
X412620Y458586D02*
X407640Y458586D01*
X407640Y459555D02*
X412620Y459555D01*
X402620Y459690D02*
X397640Y459690D01*
X402620Y459690D02*
X402620Y454710D01*
X397640Y454710D01*
X397640Y459690D01*
X397640Y455679D02*
X402620Y455679D01*
X402620Y456648D02*
X397640Y456648D01*
X397640Y457617D02*
X402620Y457617D01*
X402620Y458586D02*
X397640Y458586D01*
X397640Y459555D02*
X402620Y459555D01*
D10*
X513260Y185900D02*
X522260Y185900D01*
X513260Y185900D02*
X513260Y189900D01*
X522260Y189900D01*
X522260Y185900D01*
X522260Y186850D02*
X513260Y186850D01*
X513260Y187800D02*
X522260Y187800D01*
X522260Y188750D02*
X513260Y188750D01*
X513260Y189700D02*
X522260Y189700D01*
X522260Y174900D02*
X513260Y174900D01*
X513260Y178900D01*
X522260Y178900D01*
X522260Y174900D01*
X522260Y175850D02*
X513260Y175850D01*
X513260Y176800D02*
X522260Y176800D01*
X522260Y177750D02*
X513260Y177750D01*
X513260Y178700D02*
X522260Y178700D01*
X522260Y163900D02*
X513260Y163900D01*
X513260Y167900D01*
X522260Y167900D01*
X522260Y163900D01*
X522260Y164850D02*
X513260Y164850D01*
X513260Y165800D02*
X522260Y165800D01*
X522260Y166750D02*
X513260Y166750D01*
X513260Y167700D02*
X522260Y167700D01*
X522260Y152900D02*
X513260Y152900D01*
X513260Y156900D01*
X522260Y156900D01*
X522260Y152900D01*
X522260Y153850D02*
X513260Y153850D01*
X513260Y154800D02*
X522260Y154800D01*
X522260Y155750D02*
X513260Y155750D01*
X513260Y156700D02*
X522260Y156700D01*
X522260Y141900D02*
X513260Y141900D01*
X513260Y145900D01*
X522260Y145900D01*
X522260Y141900D01*
X522260Y142850D02*
X513260Y142850D01*
X513260Y143800D02*
X522260Y143800D01*
X522260Y144750D02*
X513260Y144750D01*
X513260Y145700D02*
X522260Y145700D01*
X522260Y130900D02*
X513260Y130900D01*
X513260Y134900D01*
X522260Y134900D01*
X522260Y130900D01*
X522260Y131850D02*
X513260Y131850D01*
X513260Y132800D02*
X522260Y132800D01*
X522260Y133750D02*
X513260Y133750D01*
X513260Y134700D02*
X522260Y134700D01*
X522260Y119900D02*
X513260Y119900D01*
X513260Y123900D01*
X522260Y123900D01*
X522260Y119900D01*
X522260Y120850D02*
X513260Y120850D01*
X513260Y121800D02*
X522260Y121800D01*
X522260Y122750D02*
X513260Y122750D01*
X513260Y123700D02*
X522260Y123700D01*
X522260Y108900D02*
X513260Y108900D01*
X513260Y112900D01*
X522260Y112900D01*
X522260Y108900D01*
X522260Y109850D02*
X513260Y109850D01*
X513260Y110800D02*
X522260Y110800D01*
X522260Y111750D02*
X513260Y111750D01*
X513260Y112700D02*
X522260Y112700D01*
D11*
X541164Y202804D02*
X541164Y208996D01*
X547956Y208996D01*
X547956Y202804D01*
X541164Y202804D01*
X541164Y203762D02*
X547956Y203762D01*
X547956Y204720D02*
X541164Y204720D01*
X541164Y205678D02*
X547956Y205678D01*
X547956Y206636D02*
X541164Y206636D01*
X541164Y207594D02*
X547956Y207594D01*
X547956Y208552D02*
X541164Y208552D01*
D12*
X552385Y201175D02*
X562135Y201175D01*
X552385Y201175D02*
X552385Y210625D01*
X562135Y210625D01*
X562135Y201175D01*
X562135Y202172D02*
X552385Y202172D01*
X552385Y203169D02*
X562135Y203169D01*
X562135Y204166D02*
X552385Y204166D01*
X552385Y205163D02*
X562135Y205163D01*
X562135Y206160D02*
X552385Y206160D01*
X552385Y207157D02*
X562135Y207157D01*
X562135Y208154D02*
X552385Y208154D01*
X552385Y209151D02*
X562135Y209151D01*
X562135Y210148D02*
X552385Y210148D01*
X577885Y201175D02*
X588835Y201175D01*
X577885Y201175D02*
X577885Y210625D01*
X588835Y210625D01*
X588835Y201175D01*
X588835Y202172D02*
X577885Y202172D01*
X577885Y203169D02*
X588835Y203169D01*
X588835Y204166D02*
X577885Y204166D01*
X577885Y205163D02*
X588835Y205163D01*
X588835Y206160D02*
X577885Y206160D01*
X577885Y207157D02*
X588835Y207157D01*
X588835Y208154D02*
X577885Y208154D01*
X577885Y209151D02*
X588835Y209151D01*
X588835Y210148D02*
X577885Y210148D01*
X583135Y94425D02*
X572185Y94425D01*
X572185Y103875D01*
X583135Y103875D01*
X583135Y94425D01*
X583135Y95422D02*
X572185Y95422D01*
X572185Y96419D02*
X583135Y96419D01*
X583135Y97416D02*
X572185Y97416D01*
X572185Y98413D02*
X583135Y98413D01*
X583135Y99410D02*
X572185Y99410D01*
X572185Y100407D02*
X583135Y100407D01*
X583135Y101404D02*
X572185Y101404D01*
X572185Y102401D02*
X583135Y102401D01*
X583135Y103398D02*
X572185Y103398D01*
X557235Y94425D02*
X534385Y94425D01*
X534385Y103875D01*
X557235Y103875D01*
X557235Y94425D01*
X557235Y95422D02*
X534385Y95422D01*
X534385Y96419D02*
X557235Y96419D01*
X557235Y97416D02*
X534385Y97416D01*
X534385Y98413D02*
X557235Y98413D01*
X557235Y99410D02*
X534385Y99410D01*
X534385Y100407D02*
X557235Y100407D01*
X557235Y101404D02*
X534385Y101404D01*
X534385Y102401D02*
X557235Y102401D01*
X557235Y103398D02*
X534385Y103398D01*
D13*
X592365Y116895D02*
X592365Y145005D01*
X592365Y116895D02*
X587855Y116895D01*
X587855Y145005D01*
X592365Y145005D01*
X592365Y117835D02*
X587855Y117835D01*
X587855Y118775D02*
X592365Y118775D01*
X592365Y119715D02*
X587855Y119715D01*
X587855Y120655D02*
X592365Y120655D01*
X592365Y121595D02*
X587855Y121595D01*
X587855Y122535D02*
X592365Y122535D01*
X592365Y123475D02*
X587855Y123475D01*
X587855Y124415D02*
X592365Y124415D01*
X592365Y125355D02*
X587855Y125355D01*
X587855Y126295D02*
X592365Y126295D01*
X592365Y127235D02*
X587855Y127235D01*
X587855Y128175D02*
X592365Y128175D01*
X592365Y129115D02*
X587855Y129115D01*
X587855Y130055D02*
X592365Y130055D01*
X592365Y130995D02*
X587855Y130995D01*
X587855Y131935D02*
X592365Y131935D01*
X592365Y132875D02*
X587855Y132875D01*
X587855Y133815D02*
X592365Y133815D01*
X592365Y134755D02*
X587855Y134755D01*
X587855Y135695D02*
X592365Y135695D01*
X592365Y136635D02*
X587855Y136635D01*
X587855Y137575D02*
X592365Y137575D01*
X592365Y138515D02*
X587855Y138515D01*
X587855Y139455D02*
X592365Y139455D01*
X592365Y140395D02*
X587855Y140395D01*
X587855Y141335D02*
X592365Y141335D01*
X592365Y142275D02*
X587855Y142275D01*
X587855Y143215D02*
X592365Y143215D01*
X592365Y144155D02*
X587855Y144155D01*
X592365Y158795D02*
X592365Y186905D01*
X592365Y158795D02*
X587855Y158795D01*
X587855Y186905D01*
X592365Y186905D01*
X592365Y159735D02*
X587855Y159735D01*
X587855Y160675D02*
X592365Y160675D01*
X592365Y161615D02*
X587855Y161615D01*
X587855Y162555D02*
X592365Y162555D01*
X592365Y163495D02*
X587855Y163495D01*
X587855Y164435D02*
X592365Y164435D01*
X592365Y165375D02*
X587855Y165375D01*
X587855Y166315D02*
X592365Y166315D01*
X592365Y167255D02*
X587855Y167255D01*
X587855Y168195D02*
X592365Y168195D01*
X592365Y169135D02*
X587855Y169135D01*
X587855Y170075D02*
X592365Y170075D01*
X592365Y171015D02*
X587855Y171015D01*
X587855Y171955D02*
X592365Y171955D01*
X592365Y172895D02*
X587855Y172895D01*
X587855Y173835D02*
X592365Y173835D01*
X592365Y174775D02*
X587855Y174775D01*
X587855Y175715D02*
X592365Y175715D01*
X592365Y176655D02*
X587855Y176655D01*
X587855Y177595D02*
X592365Y177595D01*
X592365Y178535D02*
X587855Y178535D01*
X587855Y179475D02*
X592365Y179475D01*
X592365Y180415D02*
X587855Y180415D01*
X587855Y181355D02*
X592365Y181355D01*
X592365Y182295D02*
X587855Y182295D01*
X587855Y183235D02*
X592365Y183235D01*
X592365Y184175D02*
X587855Y184175D01*
X587855Y185115D02*
X592365Y185115D01*
X592365Y186055D02*
X587855Y186055D01*
D14*
X561210Y319990D02*
X556230Y319990D01*
X561210Y319990D02*
X561210Y315010D01*
X556230Y315010D01*
X556230Y319990D01*
X556230Y315979D02*
X561210Y315979D01*
X561210Y316948D02*
X556230Y316948D01*
X556230Y317917D02*
X561210Y317917D01*
X561210Y318886D02*
X556230Y318886D01*
X556230Y319855D02*
X561210Y319855D01*
X551210Y319990D02*
X546230Y319990D01*
X551210Y319990D02*
X551210Y315010D01*
X546230Y315010D01*
X546230Y319990D01*
X546230Y315979D02*
X551210Y315979D01*
X551210Y316948D02*
X546230Y316948D01*
X546230Y317917D02*
X551210Y317917D01*
X551210Y318886D02*
X546230Y318886D01*
X546230Y319855D02*
X551210Y319855D01*
X556230Y307290D02*
X561210Y307290D01*
X561210Y302310D01*
X556230Y302310D01*
X556230Y307290D01*
X556230Y303279D02*
X561210Y303279D01*
X561210Y304248D02*
X556230Y304248D01*
X556230Y305217D02*
X561210Y305217D01*
X561210Y306186D02*
X556230Y306186D01*
X556230Y307155D02*
X561210Y307155D01*
X551210Y307290D02*
X546230Y307290D01*
X551210Y307290D02*
X551210Y302310D01*
X546230Y302310D01*
X546230Y307290D01*
X546230Y303279D02*
X551210Y303279D01*
X551210Y304248D02*
X546230Y304248D01*
X546230Y305217D02*
X551210Y305217D01*
X551210Y306186D02*
X546230Y306186D01*
X546230Y307155D02*
X551210Y307155D01*
X566550Y353110D02*
X571530Y353110D01*
X566550Y353110D02*
X566550Y358090D01*
X571530Y358090D01*
X571530Y353110D01*
X571530Y354079D02*
X566550Y354079D01*
X566550Y355048D02*
X571530Y355048D01*
X571530Y356017D02*
X566550Y356017D01*
X566550Y356986D02*
X571530Y356986D01*
X571530Y357955D02*
X566550Y357955D01*
X576550Y353110D02*
X581530Y353110D01*
X576550Y353110D02*
X576550Y358090D01*
X581530Y358090D01*
X581530Y353110D01*
X581530Y354079D02*
X576550Y354079D01*
X576550Y355048D02*
X581530Y355048D01*
X581530Y356017D02*
X576550Y356017D01*
X576550Y356986D02*
X581530Y356986D01*
X581530Y357955D02*
X576550Y357955D01*
X561210Y281890D02*
X556230Y281890D01*
X561210Y281890D02*
X561210Y276910D01*
X556230Y276910D01*
X556230Y281890D01*
X556230Y277879D02*
X561210Y277879D01*
X561210Y278848D02*
X556230Y278848D01*
X556230Y279817D02*
X561210Y279817D01*
X561210Y280786D02*
X556230Y280786D01*
X556230Y281755D02*
X561210Y281755D01*
X551210Y281890D02*
X546230Y281890D01*
X551210Y281890D02*
X551210Y276910D01*
X546230Y276910D01*
X546230Y281890D01*
X546230Y277879D02*
X551210Y277879D01*
X551210Y278848D02*
X546230Y278848D01*
X546230Y279817D02*
X551210Y279817D01*
X551210Y280786D02*
X546230Y280786D01*
X546230Y281755D02*
X551210Y281755D01*
X556230Y294590D02*
X561210Y294590D01*
X561210Y289610D01*
X556230Y289610D01*
X556230Y294590D01*
X556230Y290579D02*
X561210Y290579D01*
X561210Y291548D02*
X556230Y291548D01*
X556230Y292517D02*
X561210Y292517D01*
X561210Y293486D02*
X556230Y293486D01*
X556230Y294455D02*
X561210Y294455D01*
X551210Y294590D02*
X546230Y294590D01*
X551210Y294590D02*
X551210Y289610D01*
X546230Y289610D01*
X546230Y294590D01*
X546230Y290579D02*
X551210Y290579D01*
X551210Y291548D02*
X546230Y291548D01*
X546230Y292517D02*
X551210Y292517D01*
X551210Y293486D02*
X546230Y293486D01*
X546230Y294455D02*
X551210Y294455D01*
X556230Y332690D02*
X561210Y332690D01*
X561210Y327710D01*
X556230Y327710D01*
X556230Y332690D01*
X556230Y328679D02*
X561210Y328679D01*
X561210Y329648D02*
X556230Y329648D01*
X556230Y330617D02*
X561210Y330617D01*
X561210Y331586D02*
X556230Y331586D01*
X556230Y332555D02*
X561210Y332555D01*
X551210Y332690D02*
X546230Y332690D01*
X551210Y332690D02*
X551210Y327710D01*
X546230Y327710D01*
X546230Y332690D01*
X546230Y328679D02*
X551210Y328679D01*
X551210Y329648D02*
X546230Y329648D01*
X546230Y330617D02*
X551210Y330617D01*
X551210Y331586D02*
X546230Y331586D01*
X546230Y332555D02*
X551210Y332555D01*
X574170Y327710D02*
X579150Y327710D01*
X574170Y327710D02*
X574170Y332690D01*
X579150Y332690D01*
X579150Y327710D01*
X579150Y328679D02*
X574170Y328679D01*
X574170Y329648D02*
X579150Y329648D01*
X579150Y330617D02*
X574170Y330617D01*
X574170Y331586D02*
X579150Y331586D01*
X579150Y332555D02*
X574170Y332555D01*
X584170Y327710D02*
X589150Y327710D01*
X584170Y327710D02*
X584170Y332690D01*
X589150Y332690D01*
X589150Y327710D01*
X589150Y328679D02*
X584170Y328679D01*
X584170Y329648D02*
X589150Y329648D01*
X589150Y330617D02*
X584170Y330617D01*
X584170Y331586D02*
X589150Y331586D01*
X589150Y332555D02*
X584170Y332555D01*
X561210Y358090D02*
X556230Y358090D01*
X561210Y358090D02*
X561210Y353110D01*
X556230Y353110D01*
X556230Y358090D01*
X556230Y354079D02*
X561210Y354079D01*
X561210Y355048D02*
X556230Y355048D01*
X556230Y356017D02*
X561210Y356017D01*
X561210Y356986D02*
X556230Y356986D01*
X556230Y357955D02*
X561210Y357955D01*
X551210Y358090D02*
X546230Y358090D01*
X551210Y358090D02*
X551210Y353110D01*
X546230Y353110D01*
X546230Y358090D01*
X546230Y354079D02*
X551210Y354079D01*
X551210Y355048D02*
X546230Y355048D01*
X546230Y356017D02*
X551210Y356017D01*
X551210Y356986D02*
X546230Y356986D01*
X546230Y357955D02*
X551210Y357955D01*
X556230Y345390D02*
X561210Y345390D01*
X561210Y340410D01*
X556230Y340410D01*
X556230Y345390D01*
X556230Y341379D02*
X561210Y341379D01*
X561210Y342348D02*
X556230Y342348D01*
X556230Y343317D02*
X561210Y343317D01*
X561210Y344286D02*
X556230Y344286D01*
X556230Y345255D02*
X561210Y345255D01*
X551210Y345390D02*
X546230Y345390D01*
X551210Y345390D02*
X551210Y340410D01*
X546230Y340410D01*
X546230Y345390D01*
X546230Y341379D02*
X551210Y341379D01*
X551210Y342348D02*
X546230Y342348D01*
X546230Y343317D02*
X551210Y343317D01*
X551210Y344286D02*
X546230Y344286D01*
X546230Y345255D02*
X551210Y345255D01*
D10*
X631610Y379500D02*
X634610Y379500D01*
X631610Y379500D02*
X631610Y382500D01*
X634610Y382500D01*
X634610Y379500D01*
X634610Y380450D02*
X631610Y380450D01*
X631610Y381400D02*
X634610Y381400D01*
X634610Y382350D02*
X631610Y382350D01*
X620610Y379500D02*
X617610Y379500D01*
X617610Y382500D01*
X620610Y382500D01*
X620610Y379500D01*
X620610Y380450D02*
X617610Y380450D01*
X617610Y381400D02*
X620610Y381400D01*
X620610Y382350D02*
X617610Y382350D01*
D14*
X641320Y459690D02*
X646300Y459690D01*
X646300Y454710D01*
X641320Y454710D01*
X641320Y459690D01*
X641320Y455679D02*
X646300Y455679D01*
X646300Y456648D02*
X641320Y456648D01*
X641320Y457617D02*
X646300Y457617D01*
X646300Y458586D02*
X641320Y458586D01*
X641320Y459555D02*
X646300Y459555D01*
X636300Y459690D02*
X631320Y459690D01*
X636300Y459690D02*
X636300Y454710D01*
X631320Y454710D01*
X631320Y459690D01*
X631320Y455679D02*
X636300Y455679D01*
X636300Y456648D02*
X631320Y456648D01*
X631320Y457617D02*
X636300Y457617D01*
X636300Y458586D02*
X631320Y458586D01*
X631320Y459555D02*
X636300Y459555D01*
D10*
X746940Y185900D02*
X755940Y185900D01*
X746940Y185900D02*
X746940Y189900D01*
X755940Y189900D01*
X755940Y185900D01*
X755940Y186850D02*
X746940Y186850D01*
X746940Y187800D02*
X755940Y187800D01*
X755940Y188750D02*
X746940Y188750D01*
X746940Y189700D02*
X755940Y189700D01*
X755940Y174900D02*
X746940Y174900D01*
X746940Y178900D01*
X755940Y178900D01*
X755940Y174900D01*
X755940Y175850D02*
X746940Y175850D01*
X746940Y176800D02*
X755940Y176800D01*
X755940Y177750D02*
X746940Y177750D01*
X746940Y178700D02*
X755940Y178700D01*
X755940Y163900D02*
X746940Y163900D01*
X746940Y167900D01*
X755940Y167900D01*
X755940Y163900D01*
X755940Y164850D02*
X746940Y164850D01*
X746940Y165800D02*
X755940Y165800D01*
X755940Y166750D02*
X746940Y166750D01*
X746940Y167700D02*
X755940Y167700D01*
X755940Y152900D02*
X746940Y152900D01*
X746940Y156900D01*
X755940Y156900D01*
X755940Y152900D01*
X755940Y153850D02*
X746940Y153850D01*
X746940Y154800D02*
X755940Y154800D01*
X755940Y155750D02*
X746940Y155750D01*
X746940Y156700D02*
X755940Y156700D01*
X755940Y141900D02*
X746940Y141900D01*
X746940Y145900D01*
X755940Y145900D01*
X755940Y141900D01*
X755940Y142850D02*
X746940Y142850D01*
X746940Y143800D02*
X755940Y143800D01*
X755940Y144750D02*
X746940Y144750D01*
X746940Y145700D02*
X755940Y145700D01*
X755940Y130900D02*
X746940Y130900D01*
X746940Y134900D01*
X755940Y134900D01*
X755940Y130900D01*
X755940Y131850D02*
X746940Y131850D01*
X746940Y132800D02*
X755940Y132800D01*
X755940Y133750D02*
X746940Y133750D01*
X746940Y134700D02*
X755940Y134700D01*
X755940Y119900D02*
X746940Y119900D01*
X746940Y123900D01*
X755940Y123900D01*
X755940Y119900D01*
X755940Y120850D02*
X746940Y120850D01*
X746940Y121800D02*
X755940Y121800D01*
X755940Y122750D02*
X746940Y122750D01*
X746940Y123700D02*
X755940Y123700D01*
X755940Y108900D02*
X746940Y108900D01*
X746940Y112900D01*
X755940Y112900D01*
X755940Y108900D01*
X755940Y109850D02*
X746940Y109850D01*
X746940Y110800D02*
X755940Y110800D01*
X755940Y111750D02*
X746940Y111750D01*
X746940Y112700D02*
X755940Y112700D01*
D11*
X774844Y202804D02*
X774844Y208996D01*
X781636Y208996D01*
X781636Y202804D01*
X774844Y202804D01*
X774844Y203762D02*
X781636Y203762D01*
X781636Y204720D02*
X774844Y204720D01*
X774844Y205678D02*
X781636Y205678D01*
X781636Y206636D02*
X774844Y206636D01*
X774844Y207594D02*
X781636Y207594D01*
X781636Y208552D02*
X774844Y208552D01*
D12*
X786065Y201175D02*
X795815Y201175D01*
X786065Y201175D02*
X786065Y210625D01*
X795815Y210625D01*
X795815Y201175D01*
X795815Y202172D02*
X786065Y202172D01*
X786065Y203169D02*
X795815Y203169D01*
X795815Y204166D02*
X786065Y204166D01*
X786065Y205163D02*
X795815Y205163D01*
X795815Y206160D02*
X786065Y206160D01*
X786065Y207157D02*
X795815Y207157D01*
X795815Y208154D02*
X786065Y208154D01*
X786065Y209151D02*
X795815Y209151D01*
X795815Y210148D02*
X786065Y210148D01*
X811565Y201175D02*
X822515Y201175D01*
X811565Y201175D02*
X811565Y210625D01*
X822515Y210625D01*
X822515Y201175D01*
X822515Y202172D02*
X811565Y202172D01*
X811565Y203169D02*
X822515Y203169D01*
X822515Y204166D02*
X811565Y204166D01*
X811565Y205163D02*
X822515Y205163D01*
X822515Y206160D02*
X811565Y206160D01*
X811565Y207157D02*
X822515Y207157D01*
X822515Y208154D02*
X811565Y208154D01*
X811565Y209151D02*
X822515Y209151D01*
X822515Y210148D02*
X811565Y210148D01*
X816815Y94425D02*
X805865Y94425D01*
X805865Y103875D01*
X816815Y103875D01*
X816815Y94425D01*
X816815Y95422D02*
X805865Y95422D01*
X805865Y96419D02*
X816815Y96419D01*
X816815Y97416D02*
X805865Y97416D01*
X805865Y98413D02*
X816815Y98413D01*
X816815Y99410D02*
X805865Y99410D01*
X805865Y100407D02*
X816815Y100407D01*
X816815Y101404D02*
X805865Y101404D01*
X805865Y102401D02*
X816815Y102401D01*
X816815Y103398D02*
X805865Y103398D01*
X790915Y94425D02*
X768065Y94425D01*
X768065Y103875D01*
X790915Y103875D01*
X790915Y94425D01*
X790915Y95422D02*
X768065Y95422D01*
X768065Y96419D02*
X790915Y96419D01*
X790915Y97416D02*
X768065Y97416D01*
X768065Y98413D02*
X790915Y98413D01*
X790915Y99410D02*
X768065Y99410D01*
X768065Y100407D02*
X790915Y100407D01*
X790915Y101404D02*
X768065Y101404D01*
X768065Y102401D02*
X790915Y102401D01*
X790915Y103398D02*
X768065Y103398D01*
D13*
X826045Y116895D02*
X826045Y145005D01*
X826045Y116895D02*
X821535Y116895D01*
X821535Y145005D01*
X826045Y145005D01*
X826045Y117835D02*
X821535Y117835D01*
X821535Y118775D02*
X826045Y118775D01*
X826045Y119715D02*
X821535Y119715D01*
X821535Y120655D02*
X826045Y120655D01*
X826045Y121595D02*
X821535Y121595D01*
X821535Y122535D02*
X826045Y122535D01*
X826045Y123475D02*
X821535Y123475D01*
X821535Y124415D02*
X826045Y124415D01*
X826045Y125355D02*
X821535Y125355D01*
X821535Y126295D02*
X826045Y126295D01*
X826045Y127235D02*
X821535Y127235D01*
X821535Y128175D02*
X826045Y128175D01*
X826045Y129115D02*
X821535Y129115D01*
X821535Y130055D02*
X826045Y130055D01*
X826045Y130995D02*
X821535Y130995D01*
X821535Y131935D02*
X826045Y131935D01*
X826045Y132875D02*
X821535Y132875D01*
X821535Y133815D02*
X826045Y133815D01*
X826045Y134755D02*
X821535Y134755D01*
X821535Y135695D02*
X826045Y135695D01*
X826045Y136635D02*
X821535Y136635D01*
X821535Y137575D02*
X826045Y137575D01*
X826045Y138515D02*
X821535Y138515D01*
X821535Y139455D02*
X826045Y139455D01*
X826045Y140395D02*
X821535Y140395D01*
X821535Y141335D02*
X826045Y141335D01*
X826045Y142275D02*
X821535Y142275D01*
X821535Y143215D02*
X826045Y143215D01*
X826045Y144155D02*
X821535Y144155D01*
X826045Y158795D02*
X826045Y186905D01*
X826045Y158795D02*
X821535Y158795D01*
X821535Y186905D01*
X826045Y186905D01*
X826045Y159735D02*
X821535Y159735D01*
X821535Y160675D02*
X826045Y160675D01*
X826045Y161615D02*
X821535Y161615D01*
X821535Y162555D02*
X826045Y162555D01*
X826045Y163495D02*
X821535Y163495D01*
X821535Y164435D02*
X826045Y164435D01*
X826045Y165375D02*
X821535Y165375D01*
X821535Y166315D02*
X826045Y166315D01*
X826045Y167255D02*
X821535Y167255D01*
X821535Y168195D02*
X826045Y168195D01*
X826045Y169135D02*
X821535Y169135D01*
X821535Y170075D02*
X826045Y170075D01*
X826045Y171015D02*
X821535Y171015D01*
X821535Y171955D02*
X826045Y171955D01*
X826045Y172895D02*
X821535Y172895D01*
X821535Y173835D02*
X826045Y173835D01*
X826045Y174775D02*
X821535Y174775D01*
X821535Y175715D02*
X826045Y175715D01*
X826045Y176655D02*
X821535Y176655D01*
X821535Y177595D02*
X826045Y177595D01*
X826045Y178535D02*
X821535Y178535D01*
X821535Y179475D02*
X826045Y179475D01*
X826045Y180415D02*
X821535Y180415D01*
X821535Y181355D02*
X826045Y181355D01*
X826045Y182295D02*
X821535Y182295D01*
X821535Y183235D02*
X826045Y183235D01*
X826045Y184175D02*
X821535Y184175D01*
X821535Y185115D02*
X826045Y185115D01*
X826045Y186055D02*
X821535Y186055D01*
D14*
X794890Y319990D02*
X789910Y319990D01*
X794890Y319990D02*
X794890Y315010D01*
X789910Y315010D01*
X789910Y319990D01*
X789910Y315979D02*
X794890Y315979D01*
X794890Y316948D02*
X789910Y316948D01*
X789910Y317917D02*
X794890Y317917D01*
X794890Y318886D02*
X789910Y318886D01*
X789910Y319855D02*
X794890Y319855D01*
X784890Y319990D02*
X779910Y319990D01*
X784890Y319990D02*
X784890Y315010D01*
X779910Y315010D01*
X779910Y319990D01*
X779910Y315979D02*
X784890Y315979D01*
X784890Y316948D02*
X779910Y316948D01*
X779910Y317917D02*
X784890Y317917D01*
X784890Y318886D02*
X779910Y318886D01*
X779910Y319855D02*
X784890Y319855D01*
X789910Y307290D02*
X794890Y307290D01*
X794890Y302310D01*
X789910Y302310D01*
X789910Y307290D01*
X789910Y303279D02*
X794890Y303279D01*
X794890Y304248D02*
X789910Y304248D01*
X789910Y305217D02*
X794890Y305217D01*
X794890Y306186D02*
X789910Y306186D01*
X789910Y307155D02*
X794890Y307155D01*
X784890Y307290D02*
X779910Y307290D01*
X784890Y307290D02*
X784890Y302310D01*
X779910Y302310D01*
X779910Y307290D01*
X779910Y303279D02*
X784890Y303279D01*
X784890Y304248D02*
X779910Y304248D01*
X779910Y305217D02*
X784890Y305217D01*
X784890Y306186D02*
X779910Y306186D01*
X779910Y307155D02*
X784890Y307155D01*
X800230Y353110D02*
X805210Y353110D01*
X800230Y353110D02*
X800230Y358090D01*
X805210Y358090D01*
X805210Y353110D01*
X805210Y354079D02*
X800230Y354079D01*
X800230Y355048D02*
X805210Y355048D01*
X805210Y356017D02*
X800230Y356017D01*
X800230Y356986D02*
X805210Y356986D01*
X805210Y357955D02*
X800230Y357955D01*
X810230Y353110D02*
X815210Y353110D01*
X810230Y353110D02*
X810230Y358090D01*
X815210Y358090D01*
X815210Y353110D01*
X815210Y354079D02*
X810230Y354079D01*
X810230Y355048D02*
X815210Y355048D01*
X815210Y356017D02*
X810230Y356017D01*
X810230Y356986D02*
X815210Y356986D01*
X815210Y357955D02*
X810230Y357955D01*
X794890Y281890D02*
X789910Y281890D01*
X794890Y281890D02*
X794890Y276910D01*
X789910Y276910D01*
X789910Y281890D01*
X789910Y277879D02*
X794890Y277879D01*
X794890Y278848D02*
X789910Y278848D01*
X789910Y279817D02*
X794890Y279817D01*
X794890Y280786D02*
X789910Y280786D01*
X789910Y281755D02*
X794890Y281755D01*
X784890Y281890D02*
X779910Y281890D01*
X784890Y281890D02*
X784890Y276910D01*
X779910Y276910D01*
X779910Y281890D01*
X779910Y277879D02*
X784890Y277879D01*
X784890Y278848D02*
X779910Y278848D01*
X779910Y279817D02*
X784890Y279817D01*
X784890Y280786D02*
X779910Y280786D01*
X779910Y281755D02*
X784890Y281755D01*
X789910Y294590D02*
X794890Y294590D01*
X794890Y289610D01*
X789910Y289610D01*
X789910Y294590D01*
X789910Y290579D02*
X794890Y290579D01*
X794890Y291548D02*
X789910Y291548D01*
X789910Y292517D02*
X794890Y292517D01*
X794890Y293486D02*
X789910Y293486D01*
X789910Y294455D02*
X794890Y294455D01*
X784890Y294590D02*
X779910Y294590D01*
X784890Y294590D02*
X784890Y289610D01*
X779910Y289610D01*
X779910Y294590D01*
X779910Y290579D02*
X784890Y290579D01*
X784890Y291548D02*
X779910Y291548D01*
X779910Y292517D02*
X784890Y292517D01*
X784890Y293486D02*
X779910Y293486D01*
X779910Y294455D02*
X784890Y294455D01*
X789910Y332690D02*
X794890Y332690D01*
X794890Y327710D01*
X789910Y327710D01*
X789910Y332690D01*
X789910Y328679D02*
X794890Y328679D01*
X794890Y329648D02*
X789910Y329648D01*
X789910Y330617D02*
X794890Y330617D01*
X794890Y331586D02*
X789910Y331586D01*
X789910Y332555D02*
X794890Y332555D01*
X784890Y332690D02*
X779910Y332690D01*
X784890Y332690D02*
X784890Y327710D01*
X779910Y327710D01*
X779910Y332690D01*
X779910Y328679D02*
X784890Y328679D01*
X784890Y329648D02*
X779910Y329648D01*
X779910Y330617D02*
X784890Y330617D01*
X784890Y331586D02*
X779910Y331586D01*
X779910Y332555D02*
X784890Y332555D01*
X807850Y327710D02*
X812830Y327710D01*
X807850Y327710D02*
X807850Y332690D01*
X812830Y332690D01*
X812830Y327710D01*
X812830Y328679D02*
X807850Y328679D01*
X807850Y329648D02*
X812830Y329648D01*
X812830Y330617D02*
X807850Y330617D01*
X807850Y331586D02*
X812830Y331586D01*
X812830Y332555D02*
X807850Y332555D01*
X817850Y327710D02*
X822830Y327710D01*
X817850Y327710D02*
X817850Y332690D01*
X822830Y332690D01*
X822830Y327710D01*
X822830Y328679D02*
X817850Y328679D01*
X817850Y329648D02*
X822830Y329648D01*
X822830Y330617D02*
X817850Y330617D01*
X817850Y331586D02*
X822830Y331586D01*
X822830Y332555D02*
X817850Y332555D01*
X794890Y358090D02*
X789910Y358090D01*
X794890Y358090D02*
X794890Y353110D01*
X789910Y353110D01*
X789910Y358090D01*
X789910Y354079D02*
X794890Y354079D01*
X794890Y355048D02*
X789910Y355048D01*
X789910Y356017D02*
X794890Y356017D01*
X794890Y356986D02*
X789910Y356986D01*
X789910Y357955D02*
X794890Y357955D01*
X784890Y358090D02*
X779910Y358090D01*
X784890Y358090D02*
X784890Y353110D01*
X779910Y353110D01*
X779910Y358090D01*
X779910Y354079D02*
X784890Y354079D01*
X784890Y355048D02*
X779910Y355048D01*
X779910Y356017D02*
X784890Y356017D01*
X784890Y356986D02*
X779910Y356986D01*
X779910Y357955D02*
X784890Y357955D01*
X789910Y345390D02*
X794890Y345390D01*
X794890Y340410D01*
X789910Y340410D01*
X789910Y345390D01*
X789910Y341379D02*
X794890Y341379D01*
X794890Y342348D02*
X789910Y342348D01*
X789910Y343317D02*
X794890Y343317D01*
X794890Y344286D02*
X789910Y344286D01*
X789910Y345255D02*
X794890Y345255D01*
X784890Y345390D02*
X779910Y345390D01*
X784890Y345390D02*
X784890Y340410D01*
X779910Y340410D01*
X779910Y345390D01*
X779910Y341379D02*
X784890Y341379D01*
X784890Y342348D02*
X779910Y342348D01*
X779910Y343317D02*
X784890Y343317D01*
X784890Y344286D02*
X779910Y344286D01*
X779910Y345255D02*
X784890Y345255D01*
D10*
X865290Y379500D02*
X868290Y379500D01*
X865290Y379500D02*
X865290Y382500D01*
X868290Y382500D01*
X868290Y379500D01*
X868290Y380450D02*
X865290Y380450D01*
X865290Y381400D02*
X868290Y381400D01*
X868290Y382350D02*
X865290Y382350D01*
X854290Y379500D02*
X851290Y379500D01*
X851290Y382500D01*
X854290Y382500D01*
X854290Y379500D01*
X854290Y380450D02*
X851290Y380450D01*
X851290Y381400D02*
X854290Y381400D01*
X854290Y382350D02*
X851290Y382350D01*
D14*
X875000Y459690D02*
X879980Y459690D01*
X879980Y454710D01*
X875000Y454710D01*
X875000Y459690D01*
X875000Y455679D02*
X879980Y455679D01*
X879980Y456648D02*
X875000Y456648D01*
X875000Y457617D02*
X879980Y457617D01*
X879980Y458586D02*
X875000Y458586D01*
X875000Y459555D02*
X879980Y459555D01*
X869980Y459690D02*
X865000Y459690D01*
X869980Y459690D02*
X869980Y454710D01*
X865000Y454710D01*
X865000Y459690D01*
X865000Y455679D02*
X869980Y455679D01*
X869980Y456648D02*
X865000Y456648D01*
X865000Y457617D02*
X869980Y457617D01*
X869980Y458586D02*
X865000Y458586D01*
X865000Y459555D02*
X869980Y459555D01*
D10*
X54900Y800580D02*
X45900Y800580D01*
X45900Y804580D01*
X54900Y804580D01*
X54900Y800580D01*
X54900Y801530D02*
X45900Y801530D01*
X45900Y802480D02*
X54900Y802480D01*
X54900Y803430D02*
X45900Y803430D01*
X45900Y804380D02*
X54900Y804380D01*
X54900Y789580D02*
X45900Y789580D01*
X45900Y793580D01*
X54900Y793580D01*
X54900Y789580D01*
X54900Y790530D02*
X45900Y790530D01*
X45900Y791480D02*
X54900Y791480D01*
X54900Y792430D02*
X45900Y792430D01*
X45900Y793380D02*
X54900Y793380D01*
X54900Y778580D02*
X45900Y778580D01*
X45900Y782580D01*
X54900Y782580D01*
X54900Y778580D01*
X54900Y779530D02*
X45900Y779530D01*
X45900Y780480D02*
X54900Y780480D01*
X54900Y781430D02*
X45900Y781430D01*
X45900Y782380D02*
X54900Y782380D01*
X54900Y767580D02*
X45900Y767580D01*
X45900Y771580D01*
X54900Y771580D01*
X54900Y767580D01*
X54900Y768530D02*
X45900Y768530D01*
X45900Y769480D02*
X54900Y769480D01*
X54900Y770430D02*
X45900Y770430D01*
X45900Y771380D02*
X54900Y771380D01*
X54900Y756580D02*
X45900Y756580D01*
X45900Y760580D01*
X54900Y760580D01*
X54900Y756580D01*
X54900Y757530D02*
X45900Y757530D01*
X45900Y758480D02*
X54900Y758480D01*
X54900Y759430D02*
X45900Y759430D01*
X45900Y760380D02*
X54900Y760380D01*
X54900Y745580D02*
X45900Y745580D01*
X45900Y749580D01*
X54900Y749580D01*
X54900Y745580D01*
X54900Y746530D02*
X45900Y746530D01*
X45900Y747480D02*
X54900Y747480D01*
X54900Y748430D02*
X45900Y748430D01*
X45900Y749380D02*
X54900Y749380D01*
X54900Y734580D02*
X45900Y734580D01*
X45900Y738580D01*
X54900Y738580D01*
X54900Y734580D01*
X54900Y735530D02*
X45900Y735530D01*
X45900Y736480D02*
X54900Y736480D01*
X54900Y737430D02*
X45900Y737430D01*
X45900Y738380D02*
X54900Y738380D01*
X54900Y723580D02*
X45900Y723580D01*
X45900Y727580D01*
X54900Y727580D01*
X54900Y723580D01*
X54900Y724530D02*
X45900Y724530D01*
X45900Y725480D02*
X54900Y725480D01*
X54900Y726430D02*
X45900Y726430D01*
X45900Y727380D02*
X54900Y727380D01*
D11*
X73804Y817484D02*
X73804Y823676D01*
X80596Y823676D01*
X80596Y817484D01*
X73804Y817484D01*
X73804Y818442D02*
X80596Y818442D01*
X80596Y819400D02*
X73804Y819400D01*
X73804Y820358D02*
X80596Y820358D01*
X80596Y821316D02*
X73804Y821316D01*
X73804Y822274D02*
X80596Y822274D01*
X80596Y823232D02*
X73804Y823232D01*
D12*
X85025Y815855D02*
X94775Y815855D01*
X85025Y815855D02*
X85025Y825305D01*
X94775Y825305D01*
X94775Y815855D01*
X94775Y816852D02*
X85025Y816852D01*
X85025Y817849D02*
X94775Y817849D01*
X94775Y818846D02*
X85025Y818846D01*
X85025Y819843D02*
X94775Y819843D01*
X94775Y820840D02*
X85025Y820840D01*
X85025Y821837D02*
X94775Y821837D01*
X94775Y822834D02*
X85025Y822834D01*
X85025Y823831D02*
X94775Y823831D01*
X94775Y824828D02*
X85025Y824828D01*
X110525Y815855D02*
X121475Y815855D01*
X110525Y815855D02*
X110525Y825305D01*
X121475Y825305D01*
X121475Y815855D01*
X121475Y816852D02*
X110525Y816852D01*
X110525Y817849D02*
X121475Y817849D01*
X121475Y818846D02*
X110525Y818846D01*
X110525Y819843D02*
X121475Y819843D01*
X121475Y820840D02*
X110525Y820840D01*
X110525Y821837D02*
X121475Y821837D01*
X121475Y822834D02*
X110525Y822834D01*
X110525Y823831D02*
X121475Y823831D01*
X121475Y824828D02*
X110525Y824828D01*
X115775Y709105D02*
X104825Y709105D01*
X104825Y718555D01*
X115775Y718555D01*
X115775Y709105D01*
X115775Y710102D02*
X104825Y710102D01*
X104825Y711099D02*
X115775Y711099D01*
X115775Y712096D02*
X104825Y712096D01*
X104825Y713093D02*
X115775Y713093D01*
X115775Y714090D02*
X104825Y714090D01*
X104825Y715087D02*
X115775Y715087D01*
X115775Y716084D02*
X104825Y716084D01*
X104825Y717081D02*
X115775Y717081D01*
X115775Y718078D02*
X104825Y718078D01*
X89875Y709105D02*
X67025Y709105D01*
X67025Y718555D01*
X89875Y718555D01*
X89875Y709105D01*
X89875Y710102D02*
X67025Y710102D01*
X67025Y711099D02*
X89875Y711099D01*
X89875Y712096D02*
X67025Y712096D01*
X67025Y713093D02*
X89875Y713093D01*
X89875Y714090D02*
X67025Y714090D01*
X67025Y715087D02*
X89875Y715087D01*
X89875Y716084D02*
X67025Y716084D01*
X67025Y717081D02*
X89875Y717081D01*
X89875Y718078D02*
X67025Y718078D01*
D13*
X125005Y731575D02*
X125005Y759685D01*
X125005Y731575D02*
X120495Y731575D01*
X120495Y759685D01*
X125005Y759685D01*
X125005Y732515D02*
X120495Y732515D01*
X120495Y733455D02*
X125005Y733455D01*
X125005Y734395D02*
X120495Y734395D01*
X120495Y735335D02*
X125005Y735335D01*
X125005Y736275D02*
X120495Y736275D01*
X120495Y737215D02*
X125005Y737215D01*
X125005Y738155D02*
X120495Y738155D01*
X120495Y739095D02*
X125005Y739095D01*
X125005Y740035D02*
X120495Y740035D01*
X120495Y740975D02*
X125005Y740975D01*
X125005Y741915D02*
X120495Y741915D01*
X120495Y742855D02*
X125005Y742855D01*
X125005Y743795D02*
X120495Y743795D01*
X120495Y744735D02*
X125005Y744735D01*
X125005Y745675D02*
X120495Y745675D01*
X120495Y746615D02*
X125005Y746615D01*
X125005Y747555D02*
X120495Y747555D01*
X120495Y748495D02*
X125005Y748495D01*
X125005Y749435D02*
X120495Y749435D01*
X120495Y750375D02*
X125005Y750375D01*
X125005Y751315D02*
X120495Y751315D01*
X120495Y752255D02*
X125005Y752255D01*
X125005Y753195D02*
X120495Y753195D01*
X120495Y754135D02*
X125005Y754135D01*
X125005Y755075D02*
X120495Y755075D01*
X120495Y756015D02*
X125005Y756015D01*
X125005Y756955D02*
X120495Y756955D01*
X120495Y757895D02*
X125005Y757895D01*
X125005Y758835D02*
X120495Y758835D01*
X125005Y773475D02*
X125005Y801585D01*
X125005Y773475D02*
X120495Y773475D01*
X120495Y801585D01*
X125005Y801585D01*
X125005Y774415D02*
X120495Y774415D01*
X120495Y775355D02*
X125005Y775355D01*
X125005Y776295D02*
X120495Y776295D01*
X120495Y777235D02*
X125005Y777235D01*
X125005Y778175D02*
X120495Y778175D01*
X120495Y779115D02*
X125005Y779115D01*
X125005Y780055D02*
X120495Y780055D01*
X120495Y780995D02*
X125005Y780995D01*
X125005Y781935D02*
X120495Y781935D01*
X120495Y782875D02*
X125005Y782875D01*
X125005Y783815D02*
X120495Y783815D01*
X120495Y784755D02*
X125005Y784755D01*
X125005Y785695D02*
X120495Y785695D01*
X120495Y786635D02*
X125005Y786635D01*
X125005Y787575D02*
X120495Y787575D01*
X120495Y788515D02*
X125005Y788515D01*
X125005Y789455D02*
X120495Y789455D01*
X120495Y790395D02*
X125005Y790395D01*
X125005Y791335D02*
X120495Y791335D01*
X120495Y792275D02*
X125005Y792275D01*
X125005Y793215D02*
X120495Y793215D01*
X120495Y794155D02*
X125005Y794155D01*
X125005Y795095D02*
X120495Y795095D01*
X120495Y796035D02*
X125005Y796035D01*
X125005Y796975D02*
X120495Y796975D01*
X120495Y797915D02*
X125005Y797915D01*
X125005Y798855D02*
X120495Y798855D01*
X120495Y799795D02*
X125005Y799795D01*
X125005Y800735D02*
X120495Y800735D01*
D14*
X93850Y934670D02*
X88870Y934670D01*
X93850Y934670D02*
X93850Y929690D01*
X88870Y929690D01*
X88870Y934670D01*
X88870Y930659D02*
X93850Y930659D01*
X93850Y931628D02*
X88870Y931628D01*
X88870Y932597D02*
X93850Y932597D01*
X93850Y933566D02*
X88870Y933566D01*
X88870Y934535D02*
X93850Y934535D01*
X83850Y934670D02*
X78870Y934670D01*
X83850Y934670D02*
X83850Y929690D01*
X78870Y929690D01*
X78870Y934670D01*
X78870Y930659D02*
X83850Y930659D01*
X83850Y931628D02*
X78870Y931628D01*
X78870Y932597D02*
X83850Y932597D01*
X83850Y933566D02*
X78870Y933566D01*
X78870Y934535D02*
X83850Y934535D01*
X88870Y921970D02*
X93850Y921970D01*
X93850Y916990D01*
X88870Y916990D01*
X88870Y921970D01*
X88870Y917959D02*
X93850Y917959D01*
X93850Y918928D02*
X88870Y918928D01*
X88870Y919897D02*
X93850Y919897D01*
X93850Y920866D02*
X88870Y920866D01*
X88870Y921835D02*
X93850Y921835D01*
X83850Y921970D02*
X78870Y921970D01*
X83850Y921970D02*
X83850Y916990D01*
X78870Y916990D01*
X78870Y921970D01*
X78870Y917959D02*
X83850Y917959D01*
X83850Y918928D02*
X78870Y918928D01*
X78870Y919897D02*
X83850Y919897D01*
X83850Y920866D02*
X78870Y920866D01*
X78870Y921835D02*
X83850Y921835D01*
X99190Y967790D02*
X104170Y967790D01*
X99190Y967790D02*
X99190Y972770D01*
X104170Y972770D01*
X104170Y967790D01*
X104170Y968759D02*
X99190Y968759D01*
X99190Y969728D02*
X104170Y969728D01*
X104170Y970697D02*
X99190Y970697D01*
X99190Y971666D02*
X104170Y971666D01*
X104170Y972635D02*
X99190Y972635D01*
X109190Y967790D02*
X114170Y967790D01*
X109190Y967790D02*
X109190Y972770D01*
X114170Y972770D01*
X114170Y967790D01*
X114170Y968759D02*
X109190Y968759D01*
X109190Y969728D02*
X114170Y969728D01*
X114170Y970697D02*
X109190Y970697D01*
X109190Y971666D02*
X114170Y971666D01*
X114170Y972635D02*
X109190Y972635D01*
X93850Y896570D02*
X88870Y896570D01*
X93850Y896570D02*
X93850Y891590D01*
X88870Y891590D01*
X88870Y896570D01*
X88870Y892559D02*
X93850Y892559D01*
X93850Y893528D02*
X88870Y893528D01*
X88870Y894497D02*
X93850Y894497D01*
X93850Y895466D02*
X88870Y895466D01*
X88870Y896435D02*
X93850Y896435D01*
X83850Y896570D02*
X78870Y896570D01*
X83850Y896570D02*
X83850Y891590D01*
X78870Y891590D01*
X78870Y896570D01*
X78870Y892559D02*
X83850Y892559D01*
X83850Y893528D02*
X78870Y893528D01*
X78870Y894497D02*
X83850Y894497D01*
X83850Y895466D02*
X78870Y895466D01*
X78870Y896435D02*
X83850Y896435D01*
X88870Y909270D02*
X93850Y909270D01*
X93850Y904290D01*
X88870Y904290D01*
X88870Y909270D01*
X88870Y905259D02*
X93850Y905259D01*
X93850Y906228D02*
X88870Y906228D01*
X88870Y907197D02*
X93850Y907197D01*
X93850Y908166D02*
X88870Y908166D01*
X88870Y909135D02*
X93850Y909135D01*
X83850Y909270D02*
X78870Y909270D01*
X83850Y909270D02*
X83850Y904290D01*
X78870Y904290D01*
X78870Y909270D01*
X78870Y905259D02*
X83850Y905259D01*
X83850Y906228D02*
X78870Y906228D01*
X78870Y907197D02*
X83850Y907197D01*
X83850Y908166D02*
X78870Y908166D01*
X78870Y909135D02*
X83850Y909135D01*
X88870Y947370D02*
X93850Y947370D01*
X93850Y942390D01*
X88870Y942390D01*
X88870Y947370D01*
X88870Y943359D02*
X93850Y943359D01*
X93850Y944328D02*
X88870Y944328D01*
X88870Y945297D02*
X93850Y945297D01*
X93850Y946266D02*
X88870Y946266D01*
X88870Y947235D02*
X93850Y947235D01*
X83850Y947370D02*
X78870Y947370D01*
X83850Y947370D02*
X83850Y942390D01*
X78870Y942390D01*
X78870Y947370D01*
X78870Y943359D02*
X83850Y943359D01*
X83850Y944328D02*
X78870Y944328D01*
X78870Y945297D02*
X83850Y945297D01*
X83850Y946266D02*
X78870Y946266D01*
X78870Y947235D02*
X83850Y947235D01*
X106810Y942390D02*
X111790Y942390D01*
X106810Y942390D02*
X106810Y947370D01*
X111790Y947370D01*
X111790Y942390D01*
X111790Y943359D02*
X106810Y943359D01*
X106810Y944328D02*
X111790Y944328D01*
X111790Y945297D02*
X106810Y945297D01*
X106810Y946266D02*
X111790Y946266D01*
X111790Y947235D02*
X106810Y947235D01*
X116810Y942390D02*
X121790Y942390D01*
X116810Y942390D02*
X116810Y947370D01*
X121790Y947370D01*
X121790Y942390D01*
X121790Y943359D02*
X116810Y943359D01*
X116810Y944328D02*
X121790Y944328D01*
X121790Y945297D02*
X116810Y945297D01*
X116810Y946266D02*
X121790Y946266D01*
X121790Y947235D02*
X116810Y947235D01*
X93850Y972770D02*
X88870Y972770D01*
X93850Y972770D02*
X93850Y967790D01*
X88870Y967790D01*
X88870Y972770D01*
X88870Y968759D02*
X93850Y968759D01*
X93850Y969728D02*
X88870Y969728D01*
X88870Y970697D02*
X93850Y970697D01*
X93850Y971666D02*
X88870Y971666D01*
X88870Y972635D02*
X93850Y972635D01*
X83850Y972770D02*
X78870Y972770D01*
X83850Y972770D02*
X83850Y967790D01*
X78870Y967790D01*
X78870Y972770D01*
X78870Y968759D02*
X83850Y968759D01*
X83850Y969728D02*
X78870Y969728D01*
X78870Y970697D02*
X83850Y970697D01*
X83850Y971666D02*
X78870Y971666D01*
X78870Y972635D02*
X83850Y972635D01*
X88870Y960070D02*
X93850Y960070D01*
X93850Y955090D01*
X88870Y955090D01*
X88870Y960070D01*
X88870Y956059D02*
X93850Y956059D01*
X93850Y957028D02*
X88870Y957028D01*
X88870Y957997D02*
X93850Y957997D01*
X93850Y958966D02*
X88870Y958966D01*
X88870Y959935D02*
X93850Y959935D01*
X83850Y960070D02*
X78870Y960070D01*
X83850Y960070D02*
X83850Y955090D01*
X78870Y955090D01*
X78870Y960070D01*
X78870Y956059D02*
X83850Y956059D01*
X83850Y957028D02*
X78870Y957028D01*
X78870Y957997D02*
X83850Y957997D01*
X83850Y958966D02*
X78870Y958966D01*
X78870Y959935D02*
X83850Y959935D01*
D10*
X164250Y994180D02*
X167250Y994180D01*
X164250Y994180D02*
X164250Y997180D01*
X167250Y997180D01*
X167250Y994180D01*
X167250Y995130D02*
X164250Y995130D01*
X164250Y996080D02*
X167250Y996080D01*
X167250Y997030D02*
X164250Y997030D01*
X153250Y994180D02*
X150250Y994180D01*
X150250Y997180D01*
X153250Y997180D01*
X153250Y994180D01*
X153250Y995130D02*
X150250Y995130D01*
X150250Y996080D02*
X153250Y996080D01*
X153250Y997030D02*
X150250Y997030D01*
D14*
X173960Y1074370D02*
X178940Y1074370D01*
X178940Y1069390D01*
X173960Y1069390D01*
X173960Y1074370D01*
X173960Y1070359D02*
X178940Y1070359D01*
X178940Y1071328D02*
X173960Y1071328D01*
X173960Y1072297D02*
X178940Y1072297D01*
X178940Y1073266D02*
X173960Y1073266D01*
X173960Y1074235D02*
X178940Y1074235D01*
X168940Y1074370D02*
X163960Y1074370D01*
X168940Y1074370D02*
X168940Y1069390D01*
X163960Y1069390D01*
X163960Y1074370D01*
X163960Y1070359D02*
X168940Y1070359D01*
X168940Y1071328D02*
X163960Y1071328D01*
X163960Y1072297D02*
X168940Y1072297D01*
X168940Y1073266D02*
X163960Y1073266D01*
X163960Y1074235D02*
X168940Y1074235D01*
D10*
X279580Y800580D02*
X288580Y800580D01*
X279580Y800580D02*
X279580Y804580D01*
X288580Y804580D01*
X288580Y800580D01*
X288580Y801530D02*
X279580Y801530D01*
X279580Y802480D02*
X288580Y802480D01*
X288580Y803430D02*
X279580Y803430D01*
X279580Y804380D02*
X288580Y804380D01*
X288580Y789580D02*
X279580Y789580D01*
X279580Y793580D01*
X288580Y793580D01*
X288580Y789580D01*
X288580Y790530D02*
X279580Y790530D01*
X279580Y791480D02*
X288580Y791480D01*
X288580Y792430D02*
X279580Y792430D01*
X279580Y793380D02*
X288580Y793380D01*
X288580Y778580D02*
X279580Y778580D01*
X279580Y782580D01*
X288580Y782580D01*
X288580Y778580D01*
X288580Y779530D02*
X279580Y779530D01*
X279580Y780480D02*
X288580Y780480D01*
X288580Y781430D02*
X279580Y781430D01*
X279580Y782380D02*
X288580Y782380D01*
X288580Y767580D02*
X279580Y767580D01*
X279580Y771580D01*
X288580Y771580D01*
X288580Y767580D01*
X288580Y768530D02*
X279580Y768530D01*
X279580Y769480D02*
X288580Y769480D01*
X288580Y770430D02*
X279580Y770430D01*
X279580Y771380D02*
X288580Y771380D01*
X288580Y756580D02*
X279580Y756580D01*
X279580Y760580D01*
X288580Y760580D01*
X288580Y756580D01*
X288580Y757530D02*
X279580Y757530D01*
X279580Y758480D02*
X288580Y758480D01*
X288580Y759430D02*
X279580Y759430D01*
X279580Y760380D02*
X288580Y760380D01*
X288580Y745580D02*
X279580Y745580D01*
X279580Y749580D01*
X288580Y749580D01*
X288580Y745580D01*
X288580Y746530D02*
X279580Y746530D01*
X279580Y747480D02*
X288580Y747480D01*
X288580Y748430D02*
X279580Y748430D01*
X279580Y749380D02*
X288580Y749380D01*
X288580Y734580D02*
X279580Y734580D01*
X279580Y738580D01*
X288580Y738580D01*
X288580Y734580D01*
X288580Y735530D02*
X279580Y735530D01*
X279580Y736480D02*
X288580Y736480D01*
X288580Y737430D02*
X279580Y737430D01*
X279580Y738380D02*
X288580Y738380D01*
X288580Y723580D02*
X279580Y723580D01*
X279580Y727580D01*
X288580Y727580D01*
X288580Y723580D01*
X288580Y724530D02*
X279580Y724530D01*
X279580Y725480D02*
X288580Y725480D01*
X288580Y726430D02*
X279580Y726430D01*
X279580Y727380D02*
X288580Y727380D01*
D11*
X307484Y817484D02*
X307484Y823676D01*
X314276Y823676D01*
X314276Y817484D01*
X307484Y817484D01*
X307484Y818442D02*
X314276Y818442D01*
X314276Y819400D02*
X307484Y819400D01*
X307484Y820358D02*
X314276Y820358D01*
X314276Y821316D02*
X307484Y821316D01*
X307484Y822274D02*
X314276Y822274D01*
X314276Y823232D02*
X307484Y823232D01*
D12*
X318705Y815855D02*
X328455Y815855D01*
X318705Y815855D02*
X318705Y825305D01*
X328455Y825305D01*
X328455Y815855D01*
X328455Y816852D02*
X318705Y816852D01*
X318705Y817849D02*
X328455Y817849D01*
X328455Y818846D02*
X318705Y818846D01*
X318705Y819843D02*
X328455Y819843D01*
X328455Y820840D02*
X318705Y820840D01*
X318705Y821837D02*
X328455Y821837D01*
X328455Y822834D02*
X318705Y822834D01*
X318705Y823831D02*
X328455Y823831D01*
X328455Y824828D02*
X318705Y824828D01*
X344205Y815855D02*
X355155Y815855D01*
X344205Y815855D02*
X344205Y825305D01*
X355155Y825305D01*
X355155Y815855D01*
X355155Y816852D02*
X344205Y816852D01*
X344205Y817849D02*
X355155Y817849D01*
X355155Y818846D02*
X344205Y818846D01*
X344205Y819843D02*
X355155Y819843D01*
X355155Y820840D02*
X344205Y820840D01*
X344205Y821837D02*
X355155Y821837D01*
X355155Y822834D02*
X344205Y822834D01*
X344205Y823831D02*
X355155Y823831D01*
X355155Y824828D02*
X344205Y824828D01*
X349455Y709105D02*
X338505Y709105D01*
X338505Y718555D01*
X349455Y718555D01*
X349455Y709105D01*
X349455Y710102D02*
X338505Y710102D01*
X338505Y711099D02*
X349455Y711099D01*
X349455Y712096D02*
X338505Y712096D01*
X338505Y713093D02*
X349455Y713093D01*
X349455Y714090D02*
X338505Y714090D01*
X338505Y715087D02*
X349455Y715087D01*
X349455Y716084D02*
X338505Y716084D01*
X338505Y717081D02*
X349455Y717081D01*
X349455Y718078D02*
X338505Y718078D01*
X323555Y709105D02*
X300705Y709105D01*
X300705Y718555D01*
X323555Y718555D01*
X323555Y709105D01*
X323555Y710102D02*
X300705Y710102D01*
X300705Y711099D02*
X323555Y711099D01*
X323555Y712096D02*
X300705Y712096D01*
X300705Y713093D02*
X323555Y713093D01*
X323555Y714090D02*
X300705Y714090D01*
X300705Y715087D02*
X323555Y715087D01*
X323555Y716084D02*
X300705Y716084D01*
X300705Y717081D02*
X323555Y717081D01*
X323555Y718078D02*
X300705Y718078D01*
D13*
X358685Y731575D02*
X358685Y759685D01*
X358685Y731575D02*
X354175Y731575D01*
X354175Y759685D01*
X358685Y759685D01*
X358685Y732515D02*
X354175Y732515D01*
X354175Y733455D02*
X358685Y733455D01*
X358685Y734395D02*
X354175Y734395D01*
X354175Y735335D02*
X358685Y735335D01*
X358685Y736275D02*
X354175Y736275D01*
X354175Y737215D02*
X358685Y737215D01*
X358685Y738155D02*
X354175Y738155D01*
X354175Y739095D02*
X358685Y739095D01*
X358685Y740035D02*
X354175Y740035D01*
X354175Y740975D02*
X358685Y740975D01*
X358685Y741915D02*
X354175Y741915D01*
X354175Y742855D02*
X358685Y742855D01*
X358685Y743795D02*
X354175Y743795D01*
X354175Y744735D02*
X358685Y744735D01*
X358685Y745675D02*
X354175Y745675D01*
X354175Y746615D02*
X358685Y746615D01*
X358685Y747555D02*
X354175Y747555D01*
X354175Y748495D02*
X358685Y748495D01*
X358685Y749435D02*
X354175Y749435D01*
X354175Y750375D02*
X358685Y750375D01*
X358685Y751315D02*
X354175Y751315D01*
X354175Y752255D02*
X358685Y752255D01*
X358685Y753195D02*
X354175Y753195D01*
X354175Y754135D02*
X358685Y754135D01*
X358685Y755075D02*
X354175Y755075D01*
X354175Y756015D02*
X358685Y756015D01*
X358685Y756955D02*
X354175Y756955D01*
X354175Y757895D02*
X358685Y757895D01*
X358685Y758835D02*
X354175Y758835D01*
X358685Y773475D02*
X358685Y801585D01*
X358685Y773475D02*
X354175Y773475D01*
X354175Y801585D01*
X358685Y801585D01*
X358685Y774415D02*
X354175Y774415D01*
X354175Y775355D02*
X358685Y775355D01*
X358685Y776295D02*
X354175Y776295D01*
X354175Y777235D02*
X358685Y777235D01*
X358685Y778175D02*
X354175Y778175D01*
X354175Y779115D02*
X358685Y779115D01*
X358685Y780055D02*
X354175Y780055D01*
X354175Y780995D02*
X358685Y780995D01*
X358685Y781935D02*
X354175Y781935D01*
X354175Y782875D02*
X358685Y782875D01*
X358685Y783815D02*
X354175Y783815D01*
X354175Y784755D02*
X358685Y784755D01*
X358685Y785695D02*
X354175Y785695D01*
X354175Y786635D02*
X358685Y786635D01*
X358685Y787575D02*
X354175Y787575D01*
X354175Y788515D02*
X358685Y788515D01*
X358685Y789455D02*
X354175Y789455D01*
X354175Y790395D02*
X358685Y790395D01*
X358685Y791335D02*
X354175Y791335D01*
X354175Y792275D02*
X358685Y792275D01*
X358685Y793215D02*
X354175Y793215D01*
X354175Y794155D02*
X358685Y794155D01*
X358685Y795095D02*
X354175Y795095D01*
X354175Y796035D02*
X358685Y796035D01*
X358685Y796975D02*
X354175Y796975D01*
X354175Y797915D02*
X358685Y797915D01*
X358685Y798855D02*
X354175Y798855D01*
X354175Y799795D02*
X358685Y799795D01*
X358685Y800735D02*
X354175Y800735D01*
D14*
X327530Y934670D02*
X322550Y934670D01*
X327530Y934670D02*
X327530Y929690D01*
X322550Y929690D01*
X322550Y934670D01*
X322550Y930659D02*
X327530Y930659D01*
X327530Y931628D02*
X322550Y931628D01*
X322550Y932597D02*
X327530Y932597D01*
X327530Y933566D02*
X322550Y933566D01*
X322550Y934535D02*
X327530Y934535D01*
X317530Y934670D02*
X312550Y934670D01*
X317530Y934670D02*
X317530Y929690D01*
X312550Y929690D01*
X312550Y934670D01*
X312550Y930659D02*
X317530Y930659D01*
X317530Y931628D02*
X312550Y931628D01*
X312550Y932597D02*
X317530Y932597D01*
X317530Y933566D02*
X312550Y933566D01*
X312550Y934535D02*
X317530Y934535D01*
X322550Y921970D02*
X327530Y921970D01*
X327530Y916990D01*
X322550Y916990D01*
X322550Y921970D01*
X322550Y917959D02*
X327530Y917959D01*
X327530Y918928D02*
X322550Y918928D01*
X322550Y919897D02*
X327530Y919897D01*
X327530Y920866D02*
X322550Y920866D01*
X322550Y921835D02*
X327530Y921835D01*
X317530Y921970D02*
X312550Y921970D01*
X317530Y921970D02*
X317530Y916990D01*
X312550Y916990D01*
X312550Y921970D01*
X312550Y917959D02*
X317530Y917959D01*
X317530Y918928D02*
X312550Y918928D01*
X312550Y919897D02*
X317530Y919897D01*
X317530Y920866D02*
X312550Y920866D01*
X312550Y921835D02*
X317530Y921835D01*
X332870Y967790D02*
X337850Y967790D01*
X332870Y967790D02*
X332870Y972770D01*
X337850Y972770D01*
X337850Y967790D01*
X337850Y968759D02*
X332870Y968759D01*
X332870Y969728D02*
X337850Y969728D01*
X337850Y970697D02*
X332870Y970697D01*
X332870Y971666D02*
X337850Y971666D01*
X337850Y972635D02*
X332870Y972635D01*
X342870Y967790D02*
X347850Y967790D01*
X342870Y967790D02*
X342870Y972770D01*
X347850Y972770D01*
X347850Y967790D01*
X347850Y968759D02*
X342870Y968759D01*
X342870Y969728D02*
X347850Y969728D01*
X347850Y970697D02*
X342870Y970697D01*
X342870Y971666D02*
X347850Y971666D01*
X347850Y972635D02*
X342870Y972635D01*
X327530Y896570D02*
X322550Y896570D01*
X327530Y896570D02*
X327530Y891590D01*
X322550Y891590D01*
X322550Y896570D01*
X322550Y892559D02*
X327530Y892559D01*
X327530Y893528D02*
X322550Y893528D01*
X322550Y894497D02*
X327530Y894497D01*
X327530Y895466D02*
X322550Y895466D01*
X322550Y896435D02*
X327530Y896435D01*
X317530Y896570D02*
X312550Y896570D01*
X317530Y896570D02*
X317530Y891590D01*
X312550Y891590D01*
X312550Y896570D01*
X312550Y892559D02*
X317530Y892559D01*
X317530Y893528D02*
X312550Y893528D01*
X312550Y894497D02*
X317530Y894497D01*
X317530Y895466D02*
X312550Y895466D01*
X312550Y896435D02*
X317530Y896435D01*
X322550Y909270D02*
X327530Y909270D01*
X327530Y904290D01*
X322550Y904290D01*
X322550Y909270D01*
X322550Y905259D02*
X327530Y905259D01*
X327530Y906228D02*
X322550Y906228D01*
X322550Y907197D02*
X327530Y907197D01*
X327530Y908166D02*
X322550Y908166D01*
X322550Y909135D02*
X327530Y909135D01*
X317530Y909270D02*
X312550Y909270D01*
X317530Y909270D02*
X317530Y904290D01*
X312550Y904290D01*
X312550Y909270D01*
X312550Y905259D02*
X317530Y905259D01*
X317530Y906228D02*
X312550Y906228D01*
X312550Y907197D02*
X317530Y907197D01*
X317530Y908166D02*
X312550Y908166D01*
X312550Y909135D02*
X317530Y909135D01*
X322550Y947370D02*
X327530Y947370D01*
X327530Y942390D01*
X322550Y942390D01*
X322550Y947370D01*
X322550Y943359D02*
X327530Y943359D01*
X327530Y944328D02*
X322550Y944328D01*
X322550Y945297D02*
X327530Y945297D01*
X327530Y946266D02*
X322550Y946266D01*
X322550Y947235D02*
X327530Y947235D01*
X317530Y947370D02*
X312550Y947370D01*
X317530Y947370D02*
X317530Y942390D01*
X312550Y942390D01*
X312550Y947370D01*
X312550Y943359D02*
X317530Y943359D01*
X317530Y944328D02*
X312550Y944328D01*
X312550Y945297D02*
X317530Y945297D01*
X317530Y946266D02*
X312550Y946266D01*
X312550Y947235D02*
X317530Y947235D01*
X340490Y942390D02*
X345470Y942390D01*
X340490Y942390D02*
X340490Y947370D01*
X345470Y947370D01*
X345470Y942390D01*
X345470Y943359D02*
X340490Y943359D01*
X340490Y944328D02*
X345470Y944328D01*
X345470Y945297D02*
X340490Y945297D01*
X340490Y946266D02*
X345470Y946266D01*
X345470Y947235D02*
X340490Y947235D01*
X350490Y942390D02*
X355470Y942390D01*
X350490Y942390D02*
X350490Y947370D01*
X355470Y947370D01*
X355470Y942390D01*
X355470Y943359D02*
X350490Y943359D01*
X350490Y944328D02*
X355470Y944328D01*
X355470Y945297D02*
X350490Y945297D01*
X350490Y946266D02*
X355470Y946266D01*
X355470Y947235D02*
X350490Y947235D01*
X327530Y972770D02*
X322550Y972770D01*
X327530Y972770D02*
X327530Y967790D01*
X322550Y967790D01*
X322550Y972770D01*
X322550Y968759D02*
X327530Y968759D01*
X327530Y969728D02*
X322550Y969728D01*
X322550Y970697D02*
X327530Y970697D01*
X327530Y971666D02*
X322550Y971666D01*
X322550Y972635D02*
X327530Y972635D01*
X317530Y972770D02*
X312550Y972770D01*
X317530Y972770D02*
X317530Y967790D01*
X312550Y967790D01*
X312550Y972770D01*
X312550Y968759D02*
X317530Y968759D01*
X317530Y969728D02*
X312550Y969728D01*
X312550Y970697D02*
X317530Y970697D01*
X317530Y971666D02*
X312550Y971666D01*
X312550Y972635D02*
X317530Y972635D01*
X322550Y960070D02*
X327530Y960070D01*
X327530Y955090D01*
X322550Y955090D01*
X322550Y960070D01*
X322550Y956059D02*
X327530Y956059D01*
X327530Y957028D02*
X322550Y957028D01*
X322550Y957997D02*
X327530Y957997D01*
X327530Y958966D02*
X322550Y958966D01*
X322550Y959935D02*
X327530Y959935D01*
X317530Y960070D02*
X312550Y960070D01*
X317530Y960070D02*
X317530Y955090D01*
X312550Y955090D01*
X312550Y960070D01*
X312550Y956059D02*
X317530Y956059D01*
X317530Y957028D02*
X312550Y957028D01*
X312550Y957997D02*
X317530Y957997D01*
X317530Y958966D02*
X312550Y958966D01*
X312550Y959935D02*
X317530Y959935D01*
D10*
X397930Y994180D02*
X400930Y994180D01*
X397930Y994180D02*
X397930Y997180D01*
X400930Y997180D01*
X400930Y994180D01*
X400930Y995130D02*
X397930Y995130D01*
X397930Y996080D02*
X400930Y996080D01*
X400930Y997030D02*
X397930Y997030D01*
X386930Y994180D02*
X383930Y994180D01*
X383930Y997180D01*
X386930Y997180D01*
X386930Y994180D01*
X386930Y995130D02*
X383930Y995130D01*
X383930Y996080D02*
X386930Y996080D01*
X386930Y997030D02*
X383930Y997030D01*
D14*
X407640Y1074370D02*
X412620Y1074370D01*
X412620Y1069390D01*
X407640Y1069390D01*
X407640Y1074370D01*
X407640Y1070359D02*
X412620Y1070359D01*
X412620Y1071328D02*
X407640Y1071328D01*
X407640Y1072297D02*
X412620Y1072297D01*
X412620Y1073266D02*
X407640Y1073266D01*
X407640Y1074235D02*
X412620Y1074235D01*
X402620Y1074370D02*
X397640Y1074370D01*
X402620Y1074370D02*
X402620Y1069390D01*
X397640Y1069390D01*
X397640Y1074370D01*
X397640Y1070359D02*
X402620Y1070359D01*
X402620Y1071328D02*
X397640Y1071328D01*
X397640Y1072297D02*
X402620Y1072297D01*
X402620Y1073266D02*
X397640Y1073266D01*
X397640Y1074235D02*
X402620Y1074235D01*
D10*
X513260Y800580D02*
X522260Y800580D01*
X513260Y800580D02*
X513260Y804580D01*
X522260Y804580D01*
X522260Y800580D01*
X522260Y801530D02*
X513260Y801530D01*
X513260Y802480D02*
X522260Y802480D01*
X522260Y803430D02*
X513260Y803430D01*
X513260Y804380D02*
X522260Y804380D01*
X522260Y789580D02*
X513260Y789580D01*
X513260Y793580D01*
X522260Y793580D01*
X522260Y789580D01*
X522260Y790530D02*
X513260Y790530D01*
X513260Y791480D02*
X522260Y791480D01*
X522260Y792430D02*
X513260Y792430D01*
X513260Y793380D02*
X522260Y793380D01*
X522260Y778580D02*
X513260Y778580D01*
X513260Y782580D01*
X522260Y782580D01*
X522260Y778580D01*
X522260Y779530D02*
X513260Y779530D01*
X513260Y780480D02*
X522260Y780480D01*
X522260Y781430D02*
X513260Y781430D01*
X513260Y782380D02*
X522260Y782380D01*
X522260Y767580D02*
X513260Y767580D01*
X513260Y771580D01*
X522260Y771580D01*
X522260Y767580D01*
X522260Y768530D02*
X513260Y768530D01*
X513260Y769480D02*
X522260Y769480D01*
X522260Y770430D02*
X513260Y770430D01*
X513260Y771380D02*
X522260Y771380D01*
X522260Y756580D02*
X513260Y756580D01*
X513260Y760580D01*
X522260Y760580D01*
X522260Y756580D01*
X522260Y757530D02*
X513260Y757530D01*
X513260Y758480D02*
X522260Y758480D01*
X522260Y759430D02*
X513260Y759430D01*
X513260Y760380D02*
X522260Y760380D01*
X522260Y745580D02*
X513260Y745580D01*
X513260Y749580D01*
X522260Y749580D01*
X522260Y745580D01*
X522260Y746530D02*
X513260Y746530D01*
X513260Y747480D02*
X522260Y747480D01*
X522260Y748430D02*
X513260Y748430D01*
X513260Y749380D02*
X522260Y749380D01*
X522260Y734580D02*
X513260Y734580D01*
X513260Y738580D01*
X522260Y738580D01*
X522260Y734580D01*
X522260Y735530D02*
X513260Y735530D01*
X513260Y736480D02*
X522260Y736480D01*
X522260Y737430D02*
X513260Y737430D01*
X513260Y738380D02*
X522260Y738380D01*
X522260Y723580D02*
X513260Y723580D01*
X513260Y727580D01*
X522260Y727580D01*
X522260Y723580D01*
X522260Y724530D02*
X513260Y724530D01*
X513260Y725480D02*
X522260Y725480D01*
X522260Y726430D02*
X513260Y726430D01*
X513260Y727380D02*
X522260Y727380D01*
D11*
X541164Y817484D02*
X541164Y823676D01*
X547956Y823676D01*
X547956Y817484D01*
X541164Y817484D01*
X541164Y818442D02*
X547956Y818442D01*
X547956Y819400D02*
X541164Y819400D01*
X541164Y820358D02*
X547956Y820358D01*
X547956Y821316D02*
X541164Y821316D01*
X541164Y822274D02*
X547956Y822274D01*
X547956Y823232D02*
X541164Y823232D01*
D12*
X552385Y815855D02*
X562135Y815855D01*
X552385Y815855D02*
X552385Y825305D01*
X562135Y825305D01*
X562135Y815855D01*
X562135Y816852D02*
X552385Y816852D01*
X552385Y817849D02*
X562135Y817849D01*
X562135Y818846D02*
X552385Y818846D01*
X552385Y819843D02*
X562135Y819843D01*
X562135Y820840D02*
X552385Y820840D01*
X552385Y821837D02*
X562135Y821837D01*
X562135Y822834D02*
X552385Y822834D01*
X552385Y823831D02*
X562135Y823831D01*
X562135Y824828D02*
X552385Y824828D01*
X577885Y815855D02*
X588835Y815855D01*
X577885Y815855D02*
X577885Y825305D01*
X588835Y825305D01*
X588835Y815855D01*
X588835Y816852D02*
X577885Y816852D01*
X577885Y817849D02*
X588835Y817849D01*
X588835Y818846D02*
X577885Y818846D01*
X577885Y819843D02*
X588835Y819843D01*
X588835Y820840D02*
X577885Y820840D01*
X577885Y821837D02*
X588835Y821837D01*
X588835Y822834D02*
X577885Y822834D01*
X577885Y823831D02*
X588835Y823831D01*
X588835Y824828D02*
X577885Y824828D01*
X583135Y709105D02*
X572185Y709105D01*
X572185Y718555D01*
X583135Y718555D01*
X583135Y709105D01*
X583135Y710102D02*
X572185Y710102D01*
X572185Y711099D02*
X583135Y711099D01*
X583135Y712096D02*
X572185Y712096D01*
X572185Y713093D02*
X583135Y713093D01*
X583135Y714090D02*
X572185Y714090D01*
X572185Y715087D02*
X583135Y715087D01*
X583135Y716084D02*
X572185Y716084D01*
X572185Y717081D02*
X583135Y717081D01*
X583135Y718078D02*
X572185Y718078D01*
X557235Y709105D02*
X534385Y709105D01*
X534385Y718555D01*
X557235Y718555D01*
X557235Y709105D01*
X557235Y710102D02*
X534385Y710102D01*
X534385Y711099D02*
X557235Y711099D01*
X557235Y712096D02*
X534385Y712096D01*
X534385Y713093D02*
X557235Y713093D01*
X557235Y714090D02*
X534385Y714090D01*
X534385Y715087D02*
X557235Y715087D01*
X557235Y716084D02*
X534385Y716084D01*
X534385Y717081D02*
X557235Y717081D01*
X557235Y718078D02*
X534385Y718078D01*
D13*
X592365Y731575D02*
X592365Y759685D01*
X592365Y731575D02*
X587855Y731575D01*
X587855Y759685D01*
X592365Y759685D01*
X592365Y732515D02*
X587855Y732515D01*
X587855Y733455D02*
X592365Y733455D01*
X592365Y734395D02*
X587855Y734395D01*
X587855Y735335D02*
X592365Y735335D01*
X592365Y736275D02*
X587855Y736275D01*
X587855Y737215D02*
X592365Y737215D01*
X592365Y738155D02*
X587855Y738155D01*
X587855Y739095D02*
X592365Y739095D01*
X592365Y740035D02*
X587855Y740035D01*
X587855Y740975D02*
X592365Y740975D01*
X592365Y741915D02*
X587855Y741915D01*
X587855Y742855D02*
X592365Y742855D01*
X592365Y743795D02*
X587855Y743795D01*
X587855Y744735D02*
X592365Y744735D01*
X592365Y745675D02*
X587855Y745675D01*
X587855Y746615D02*
X592365Y746615D01*
X592365Y747555D02*
X587855Y747555D01*
X587855Y748495D02*
X592365Y748495D01*
X592365Y749435D02*
X587855Y749435D01*
X587855Y750375D02*
X592365Y750375D01*
X592365Y751315D02*
X587855Y751315D01*
X587855Y752255D02*
X592365Y752255D01*
X592365Y753195D02*
X587855Y753195D01*
X587855Y754135D02*
X592365Y754135D01*
X592365Y755075D02*
X587855Y755075D01*
X587855Y756015D02*
X592365Y756015D01*
X592365Y756955D02*
X587855Y756955D01*
X587855Y757895D02*
X592365Y757895D01*
X592365Y758835D02*
X587855Y758835D01*
X592365Y773475D02*
X592365Y801585D01*
X592365Y773475D02*
X587855Y773475D01*
X587855Y801585D01*
X592365Y801585D01*
X592365Y774415D02*
X587855Y774415D01*
X587855Y775355D02*
X592365Y775355D01*
X592365Y776295D02*
X587855Y776295D01*
X587855Y777235D02*
X592365Y777235D01*
X592365Y778175D02*
X587855Y778175D01*
X587855Y779115D02*
X592365Y779115D01*
X592365Y780055D02*
X587855Y780055D01*
X587855Y780995D02*
X592365Y780995D01*
X592365Y781935D02*
X587855Y781935D01*
X587855Y782875D02*
X592365Y782875D01*
X592365Y783815D02*
X587855Y783815D01*
X587855Y784755D02*
X592365Y784755D01*
X592365Y785695D02*
X587855Y785695D01*
X587855Y786635D02*
X592365Y786635D01*
X592365Y787575D02*
X587855Y787575D01*
X587855Y788515D02*
X592365Y788515D01*
X592365Y789455D02*
X587855Y789455D01*
X587855Y790395D02*
X592365Y790395D01*
X592365Y791335D02*
X587855Y791335D01*
X587855Y792275D02*
X592365Y792275D01*
X592365Y793215D02*
X587855Y793215D01*
X587855Y794155D02*
X592365Y794155D01*
X592365Y795095D02*
X587855Y795095D01*
X587855Y796035D02*
X592365Y796035D01*
X592365Y796975D02*
X587855Y796975D01*
X587855Y797915D02*
X592365Y797915D01*
X592365Y798855D02*
X587855Y798855D01*
X587855Y799795D02*
X592365Y799795D01*
X592365Y800735D02*
X587855Y800735D01*
D14*
X561210Y934670D02*
X556230Y934670D01*
X561210Y934670D02*
X561210Y929690D01*
X556230Y929690D01*
X556230Y934670D01*
X556230Y930659D02*
X561210Y930659D01*
X561210Y931628D02*
X556230Y931628D01*
X556230Y932597D02*
X561210Y932597D01*
X561210Y933566D02*
X556230Y933566D01*
X556230Y934535D02*
X561210Y934535D01*
X551210Y934670D02*
X546230Y934670D01*
X551210Y934670D02*
X551210Y929690D01*
X546230Y929690D01*
X546230Y934670D01*
X546230Y930659D02*
X551210Y930659D01*
X551210Y931628D02*
X546230Y931628D01*
X546230Y932597D02*
X551210Y932597D01*
X551210Y933566D02*
X546230Y933566D01*
X546230Y934535D02*
X551210Y934535D01*
X556230Y921970D02*
X561210Y921970D01*
X561210Y916990D01*
X556230Y916990D01*
X556230Y921970D01*
X556230Y917959D02*
X561210Y917959D01*
X561210Y918928D02*
X556230Y918928D01*
X556230Y919897D02*
X561210Y919897D01*
X561210Y920866D02*
X556230Y920866D01*
X556230Y921835D02*
X561210Y921835D01*
X551210Y921970D02*
X546230Y921970D01*
X551210Y921970D02*
X551210Y916990D01*
X546230Y916990D01*
X546230Y921970D01*
X546230Y917959D02*
X551210Y917959D01*
X551210Y918928D02*
X546230Y918928D01*
X546230Y919897D02*
X551210Y919897D01*
X551210Y920866D02*
X546230Y920866D01*
X546230Y921835D02*
X551210Y921835D01*
X566550Y967790D02*
X571530Y967790D01*
X566550Y967790D02*
X566550Y972770D01*
X571530Y972770D01*
X571530Y967790D01*
X571530Y968759D02*
X566550Y968759D01*
X566550Y969728D02*
X571530Y969728D01*
X571530Y970697D02*
X566550Y970697D01*
X566550Y971666D02*
X571530Y971666D01*
X571530Y972635D02*
X566550Y972635D01*
X576550Y967790D02*
X581530Y967790D01*
X576550Y967790D02*
X576550Y972770D01*
X581530Y972770D01*
X581530Y967790D01*
X581530Y968759D02*
X576550Y968759D01*
X576550Y969728D02*
X581530Y969728D01*
X581530Y970697D02*
X576550Y970697D01*
X576550Y971666D02*
X581530Y971666D01*
X581530Y972635D02*
X576550Y972635D01*
X561210Y896570D02*
X556230Y896570D01*
X561210Y896570D02*
X561210Y891590D01*
X556230Y891590D01*
X556230Y896570D01*
X556230Y892559D02*
X561210Y892559D01*
X561210Y893528D02*
X556230Y893528D01*
X556230Y894497D02*
X561210Y894497D01*
X561210Y895466D02*
X556230Y895466D01*
X556230Y896435D02*
X561210Y896435D01*
X551210Y896570D02*
X546230Y896570D01*
X551210Y896570D02*
X551210Y891590D01*
X546230Y891590D01*
X546230Y896570D01*
X546230Y892559D02*
X551210Y892559D01*
X551210Y893528D02*
X546230Y893528D01*
X546230Y894497D02*
X551210Y894497D01*
X551210Y895466D02*
X546230Y895466D01*
X546230Y896435D02*
X551210Y896435D01*
X556230Y909270D02*
X561210Y909270D01*
X561210Y904290D01*
X556230Y904290D01*
X556230Y909270D01*
X556230Y905259D02*
X561210Y905259D01*
X561210Y906228D02*
X556230Y906228D01*
X556230Y907197D02*
X561210Y907197D01*
X561210Y908166D02*
X556230Y908166D01*
X556230Y909135D02*
X561210Y909135D01*
X551210Y909270D02*
X546230Y909270D01*
X551210Y909270D02*
X551210Y904290D01*
X546230Y904290D01*
X546230Y909270D01*
X546230Y905259D02*
X551210Y905259D01*
X551210Y906228D02*
X546230Y906228D01*
X546230Y907197D02*
X551210Y907197D01*
X551210Y908166D02*
X546230Y908166D01*
X546230Y909135D02*
X551210Y909135D01*
X556230Y947370D02*
X561210Y947370D01*
X561210Y942390D01*
X556230Y942390D01*
X556230Y947370D01*
X556230Y943359D02*
X561210Y943359D01*
X561210Y944328D02*
X556230Y944328D01*
X556230Y945297D02*
X561210Y945297D01*
X561210Y946266D02*
X556230Y946266D01*
X556230Y947235D02*
X561210Y947235D01*
X551210Y947370D02*
X546230Y947370D01*
X551210Y947370D02*
X551210Y942390D01*
X546230Y942390D01*
X546230Y947370D01*
X546230Y943359D02*
X551210Y943359D01*
X551210Y944328D02*
X546230Y944328D01*
X546230Y945297D02*
X551210Y945297D01*
X551210Y946266D02*
X546230Y946266D01*
X546230Y947235D02*
X551210Y947235D01*
X574170Y942390D02*
X579150Y942390D01*
X574170Y942390D02*
X574170Y947370D01*
X579150Y947370D01*
X579150Y942390D01*
X579150Y943359D02*
X574170Y943359D01*
X574170Y944328D02*
X579150Y944328D01*
X579150Y945297D02*
X574170Y945297D01*
X574170Y946266D02*
X579150Y946266D01*
X579150Y947235D02*
X574170Y947235D01*
X584170Y942390D02*
X589150Y942390D01*
X584170Y942390D02*
X584170Y947370D01*
X589150Y947370D01*
X589150Y942390D01*
X589150Y943359D02*
X584170Y943359D01*
X584170Y944328D02*
X589150Y944328D01*
X589150Y945297D02*
X584170Y945297D01*
X584170Y946266D02*
X589150Y946266D01*
X589150Y947235D02*
X584170Y947235D01*
X561210Y972770D02*
X556230Y972770D01*
X561210Y972770D02*
X561210Y967790D01*
X556230Y967790D01*
X556230Y972770D01*
X556230Y968759D02*
X561210Y968759D01*
X561210Y969728D02*
X556230Y969728D01*
X556230Y970697D02*
X561210Y970697D01*
X561210Y971666D02*
X556230Y971666D01*
X556230Y972635D02*
X561210Y972635D01*
X551210Y972770D02*
X546230Y972770D01*
X551210Y972770D02*
X551210Y967790D01*
X546230Y967790D01*
X546230Y972770D01*
X546230Y968759D02*
X551210Y968759D01*
X551210Y969728D02*
X546230Y969728D01*
X546230Y970697D02*
X551210Y970697D01*
X551210Y971666D02*
X546230Y971666D01*
X546230Y972635D02*
X551210Y972635D01*
X556230Y960070D02*
X561210Y960070D01*
X561210Y955090D01*
X556230Y955090D01*
X556230Y960070D01*
X556230Y956059D02*
X561210Y956059D01*
X561210Y957028D02*
X556230Y957028D01*
X556230Y957997D02*
X561210Y957997D01*
X561210Y958966D02*
X556230Y958966D01*
X556230Y959935D02*
X561210Y959935D01*
X551210Y960070D02*
X546230Y960070D01*
X551210Y960070D02*
X551210Y955090D01*
X546230Y955090D01*
X546230Y960070D01*
X546230Y956059D02*
X551210Y956059D01*
X551210Y957028D02*
X546230Y957028D01*
X546230Y957997D02*
X551210Y957997D01*
X551210Y958966D02*
X546230Y958966D01*
X546230Y959935D02*
X551210Y959935D01*
D10*
X631610Y994180D02*
X634610Y994180D01*
X631610Y994180D02*
X631610Y997180D01*
X634610Y997180D01*
X634610Y994180D01*
X634610Y995130D02*
X631610Y995130D01*
X631610Y996080D02*
X634610Y996080D01*
X634610Y997030D02*
X631610Y997030D01*
X620610Y994180D02*
X617610Y994180D01*
X617610Y997180D01*
X620610Y997180D01*
X620610Y994180D01*
X620610Y995130D02*
X617610Y995130D01*
X617610Y996080D02*
X620610Y996080D01*
X620610Y997030D02*
X617610Y997030D01*
D14*
X641320Y1074370D02*
X646300Y1074370D01*
X646300Y1069390D01*
X641320Y1069390D01*
X641320Y1074370D01*
X641320Y1070359D02*
X646300Y1070359D01*
X646300Y1071328D02*
X641320Y1071328D01*
X641320Y1072297D02*
X646300Y1072297D01*
X646300Y1073266D02*
X641320Y1073266D01*
X641320Y1074235D02*
X646300Y1074235D01*
X636300Y1074370D02*
X631320Y1074370D01*
X636300Y1074370D02*
X636300Y1069390D01*
X631320Y1069390D01*
X631320Y1074370D01*
X631320Y1070359D02*
X636300Y1070359D01*
X636300Y1071328D02*
X631320Y1071328D01*
X631320Y1072297D02*
X636300Y1072297D01*
X636300Y1073266D02*
X631320Y1073266D01*
X631320Y1074235D02*
X636300Y1074235D01*
D10*
X746940Y800580D02*
X755940Y800580D01*
X746940Y800580D02*
X746940Y804580D01*
X755940Y804580D01*
X755940Y800580D01*
X755940Y801530D02*
X746940Y801530D01*
X746940Y802480D02*
X755940Y802480D01*
X755940Y803430D02*
X746940Y803430D01*
X746940Y804380D02*
X755940Y804380D01*
X755940Y789580D02*
X746940Y789580D01*
X746940Y793580D01*
X755940Y793580D01*
X755940Y789580D01*
X755940Y790530D02*
X746940Y790530D01*
X746940Y791480D02*
X755940Y791480D01*
X755940Y792430D02*
X746940Y792430D01*
X746940Y793380D02*
X755940Y793380D01*
X755940Y778580D02*
X746940Y778580D01*
X746940Y782580D01*
X755940Y782580D01*
X755940Y778580D01*
X755940Y779530D02*
X746940Y779530D01*
X746940Y780480D02*
X755940Y780480D01*
X755940Y781430D02*
X746940Y781430D01*
X746940Y782380D02*
X755940Y782380D01*
X755940Y767580D02*
X746940Y767580D01*
X746940Y771580D01*
X755940Y771580D01*
X755940Y767580D01*
X755940Y768530D02*
X746940Y768530D01*
X746940Y769480D02*
X755940Y769480D01*
X755940Y770430D02*
X746940Y770430D01*
X746940Y771380D02*
X755940Y771380D01*
X755940Y756580D02*
X746940Y756580D01*
X746940Y760580D01*
X755940Y760580D01*
X755940Y756580D01*
X755940Y757530D02*
X746940Y757530D01*
X746940Y758480D02*
X755940Y758480D01*
X755940Y759430D02*
X746940Y759430D01*
X746940Y760380D02*
X755940Y760380D01*
X755940Y745580D02*
X746940Y745580D01*
X746940Y749580D01*
X755940Y749580D01*
X755940Y745580D01*
X755940Y746530D02*
X746940Y746530D01*
X746940Y747480D02*
X755940Y747480D01*
X755940Y748430D02*
X746940Y748430D01*
X746940Y749380D02*
X755940Y749380D01*
X755940Y734580D02*
X746940Y734580D01*
X746940Y738580D01*
X755940Y738580D01*
X755940Y734580D01*
X755940Y735530D02*
X746940Y735530D01*
X746940Y736480D02*
X755940Y736480D01*
X755940Y737430D02*
X746940Y737430D01*
X746940Y738380D02*
X755940Y738380D01*
X755940Y723580D02*
X746940Y723580D01*
X746940Y727580D01*
X755940Y727580D01*
X755940Y723580D01*
X755940Y724530D02*
X746940Y724530D01*
X746940Y725480D02*
X755940Y725480D01*
X755940Y726430D02*
X746940Y726430D01*
X746940Y727380D02*
X755940Y727380D01*
D11*
X774844Y817484D02*
X774844Y823676D01*
X781636Y823676D01*
X781636Y817484D01*
X774844Y817484D01*
X774844Y818442D02*
X781636Y818442D01*
X781636Y819400D02*
X774844Y819400D01*
X774844Y820358D02*
X781636Y820358D01*
X781636Y821316D02*
X774844Y821316D01*
X774844Y822274D02*
X781636Y822274D01*
X781636Y823232D02*
X774844Y823232D01*
D12*
X786065Y815855D02*
X795815Y815855D01*
X786065Y815855D02*
X786065Y825305D01*
X795815Y825305D01*
X795815Y815855D01*
X795815Y816852D02*
X786065Y816852D01*
X786065Y817849D02*
X795815Y817849D01*
X795815Y818846D02*
X786065Y818846D01*
X786065Y819843D02*
X795815Y819843D01*
X795815Y820840D02*
X786065Y820840D01*
X786065Y821837D02*
X795815Y821837D01*
X795815Y822834D02*
X786065Y822834D01*
X786065Y823831D02*
X795815Y823831D01*
X795815Y824828D02*
X786065Y824828D01*
X811565Y815855D02*
X822515Y815855D01*
X811565Y815855D02*
X811565Y825305D01*
X822515Y825305D01*
X822515Y815855D01*
X822515Y816852D02*
X811565Y816852D01*
X811565Y817849D02*
X822515Y817849D01*
X822515Y818846D02*
X811565Y818846D01*
X811565Y819843D02*
X822515Y819843D01*
X822515Y820840D02*
X811565Y820840D01*
X811565Y821837D02*
X822515Y821837D01*
X822515Y822834D02*
X811565Y822834D01*
X811565Y823831D02*
X822515Y823831D01*
X822515Y824828D02*
X811565Y824828D01*
X816815Y709105D02*
X805865Y709105D01*
X805865Y718555D01*
X816815Y718555D01*
X816815Y709105D01*
X816815Y710102D02*
X805865Y710102D01*
X805865Y711099D02*
X816815Y711099D01*
X816815Y712096D02*
X805865Y712096D01*
X805865Y713093D02*
X816815Y713093D01*
X816815Y714090D02*
X805865Y714090D01*
X805865Y715087D02*
X816815Y715087D01*
X816815Y716084D02*
X805865Y716084D01*
X805865Y717081D02*
X816815Y717081D01*
X816815Y718078D02*
X805865Y718078D01*
X790915Y709105D02*
X768065Y709105D01*
X768065Y718555D01*
X790915Y718555D01*
X790915Y709105D01*
X790915Y710102D02*
X768065Y710102D01*
X768065Y711099D02*
X790915Y711099D01*
X790915Y712096D02*
X768065Y712096D01*
X768065Y713093D02*
X790915Y713093D01*
X790915Y714090D02*
X768065Y714090D01*
X768065Y715087D02*
X790915Y715087D01*
X790915Y716084D02*
X768065Y716084D01*
X768065Y717081D02*
X790915Y717081D01*
X790915Y718078D02*
X768065Y718078D01*
D13*
X826045Y731575D02*
X826045Y759685D01*
X826045Y731575D02*
X821535Y731575D01*
X821535Y759685D01*
X826045Y759685D01*
X826045Y732515D02*
X821535Y732515D01*
X821535Y733455D02*
X826045Y733455D01*
X826045Y734395D02*
X821535Y734395D01*
X821535Y735335D02*
X826045Y735335D01*
X826045Y736275D02*
X821535Y736275D01*
X821535Y737215D02*
X826045Y737215D01*
X826045Y738155D02*
X821535Y738155D01*
X821535Y739095D02*
X826045Y739095D01*
X826045Y740035D02*
X821535Y740035D01*
X821535Y740975D02*
X826045Y740975D01*
X826045Y741915D02*
X821535Y741915D01*
X821535Y742855D02*
X826045Y742855D01*
X826045Y743795D02*
X821535Y743795D01*
X821535Y744735D02*
X826045Y744735D01*
X826045Y745675D02*
X821535Y745675D01*
X821535Y746615D02*
X826045Y746615D01*
X826045Y747555D02*
X821535Y747555D01*
X821535Y748495D02*
X826045Y748495D01*
X826045Y749435D02*
X821535Y749435D01*
X821535Y750375D02*
X826045Y750375D01*
X826045Y751315D02*
X821535Y751315D01*
X821535Y752255D02*
X826045Y752255D01*
X826045Y753195D02*
X821535Y753195D01*
X821535Y754135D02*
X826045Y754135D01*
X826045Y755075D02*
X821535Y755075D01*
X821535Y756015D02*
X826045Y756015D01*
X826045Y756955D02*
X821535Y756955D01*
X821535Y757895D02*
X826045Y757895D01*
X826045Y758835D02*
X821535Y758835D01*
X826045Y773475D02*
X826045Y801585D01*
X826045Y773475D02*
X821535Y773475D01*
X821535Y801585D01*
X826045Y801585D01*
X826045Y774415D02*
X821535Y774415D01*
X821535Y775355D02*
X826045Y775355D01*
X826045Y776295D02*
X821535Y776295D01*
X821535Y777235D02*
X826045Y777235D01*
X826045Y778175D02*
X821535Y778175D01*
X821535Y779115D02*
X826045Y779115D01*
X826045Y780055D02*
X821535Y780055D01*
X821535Y780995D02*
X826045Y780995D01*
X826045Y781935D02*
X821535Y781935D01*
X821535Y782875D02*
X826045Y782875D01*
X826045Y783815D02*
X821535Y783815D01*
X821535Y784755D02*
X826045Y784755D01*
X826045Y785695D02*
X821535Y785695D01*
X821535Y786635D02*
X826045Y786635D01*
X826045Y787575D02*
X821535Y787575D01*
X821535Y788515D02*
X826045Y788515D01*
X826045Y789455D02*
X821535Y789455D01*
X821535Y790395D02*
X826045Y790395D01*
X826045Y791335D02*
X821535Y791335D01*
X821535Y792275D02*
X826045Y792275D01*
X826045Y793215D02*
X821535Y793215D01*
X821535Y794155D02*
X826045Y794155D01*
X826045Y795095D02*
X821535Y795095D01*
X821535Y796035D02*
X826045Y796035D01*
X826045Y796975D02*
X821535Y796975D01*
X821535Y797915D02*
X826045Y797915D01*
X826045Y798855D02*
X821535Y798855D01*
X821535Y799795D02*
X826045Y799795D01*
X826045Y800735D02*
X821535Y800735D01*
D14*
X794890Y934670D02*
X789910Y934670D01*
X794890Y934670D02*
X794890Y929690D01*
X789910Y929690D01*
X789910Y934670D01*
X789910Y930659D02*
X794890Y930659D01*
X794890Y931628D02*
X789910Y931628D01*
X789910Y932597D02*
X794890Y932597D01*
X794890Y933566D02*
X789910Y933566D01*
X789910Y934535D02*
X794890Y934535D01*
X784890Y934670D02*
X779910Y934670D01*
X784890Y934670D02*
X784890Y929690D01*
X779910Y929690D01*
X779910Y934670D01*
X779910Y930659D02*
X784890Y930659D01*
X784890Y931628D02*
X779910Y931628D01*
X779910Y932597D02*
X784890Y932597D01*
X784890Y933566D02*
X779910Y933566D01*
X779910Y934535D02*
X784890Y934535D01*
X789910Y921970D02*
X794890Y921970D01*
X794890Y916990D01*
X789910Y916990D01*
X789910Y921970D01*
X789910Y917959D02*
X794890Y917959D01*
X794890Y918928D02*
X789910Y918928D01*
X789910Y919897D02*
X794890Y919897D01*
X794890Y920866D02*
X789910Y920866D01*
X789910Y921835D02*
X794890Y921835D01*
X784890Y921970D02*
X779910Y921970D01*
X784890Y921970D02*
X784890Y916990D01*
X779910Y916990D01*
X779910Y921970D01*
X779910Y917959D02*
X784890Y917959D01*
X784890Y918928D02*
X779910Y918928D01*
X779910Y919897D02*
X784890Y919897D01*
X784890Y920866D02*
X779910Y920866D01*
X779910Y921835D02*
X784890Y921835D01*
X800230Y967790D02*
X805210Y967790D01*
X800230Y967790D02*
X800230Y972770D01*
X805210Y972770D01*
X805210Y967790D01*
X805210Y968759D02*
X800230Y968759D01*
X800230Y969728D02*
X805210Y969728D01*
X805210Y970697D02*
X800230Y970697D01*
X800230Y971666D02*
X805210Y971666D01*
X805210Y972635D02*
X800230Y972635D01*
X810230Y967790D02*
X815210Y967790D01*
X810230Y967790D02*
X810230Y972770D01*
X815210Y972770D01*
X815210Y967790D01*
X815210Y968759D02*
X810230Y968759D01*
X810230Y969728D02*
X815210Y969728D01*
X815210Y970697D02*
X810230Y970697D01*
X810230Y971666D02*
X815210Y971666D01*
X815210Y972635D02*
X810230Y972635D01*
X794890Y896570D02*
X789910Y896570D01*
X794890Y896570D02*
X794890Y891590D01*
X789910Y891590D01*
X789910Y896570D01*
X789910Y892559D02*
X794890Y892559D01*
X794890Y893528D02*
X789910Y893528D01*
X789910Y894497D02*
X794890Y894497D01*
X794890Y895466D02*
X789910Y895466D01*
X789910Y896435D02*
X794890Y896435D01*
X784890Y896570D02*
X779910Y896570D01*
X784890Y896570D02*
X784890Y891590D01*
X779910Y891590D01*
X779910Y896570D01*
X779910Y892559D02*
X784890Y892559D01*
X784890Y893528D02*
X779910Y893528D01*
X779910Y894497D02*
X784890Y894497D01*
X784890Y895466D02*
X779910Y895466D01*
X779910Y896435D02*
X784890Y896435D01*
X789910Y909270D02*
X794890Y909270D01*
X794890Y904290D01*
X789910Y904290D01*
X789910Y909270D01*
X789910Y905259D02*
X794890Y905259D01*
X794890Y906228D02*
X789910Y906228D01*
X789910Y907197D02*
X794890Y907197D01*
X794890Y908166D02*
X789910Y908166D01*
X789910Y909135D02*
X794890Y909135D01*
X784890Y909270D02*
X779910Y909270D01*
X784890Y909270D02*
X784890Y904290D01*
X779910Y904290D01*
X779910Y909270D01*
X779910Y905259D02*
X784890Y905259D01*
X784890Y906228D02*
X779910Y906228D01*
X779910Y907197D02*
X784890Y907197D01*
X784890Y908166D02*
X779910Y908166D01*
X779910Y909135D02*
X784890Y909135D01*
X789910Y947370D02*
X794890Y947370D01*
X794890Y942390D01*
X789910Y942390D01*
X789910Y947370D01*
X789910Y943359D02*
X794890Y943359D01*
X794890Y944328D02*
X789910Y944328D01*
X789910Y945297D02*
X794890Y945297D01*
X794890Y946266D02*
X789910Y946266D01*
X789910Y947235D02*
X794890Y947235D01*
X784890Y947370D02*
X779910Y947370D01*
X784890Y947370D02*
X784890Y942390D01*
X779910Y942390D01*
X779910Y947370D01*
X779910Y943359D02*
X784890Y943359D01*
X784890Y944328D02*
X779910Y944328D01*
X779910Y945297D02*
X784890Y945297D01*
X784890Y946266D02*
X779910Y946266D01*
X779910Y947235D02*
X784890Y947235D01*
X807850Y942390D02*
X812830Y942390D01*
X807850Y942390D02*
X807850Y947370D01*
X812830Y947370D01*
X812830Y942390D01*
X812830Y943359D02*
X807850Y943359D01*
X807850Y944328D02*
X812830Y944328D01*
X812830Y945297D02*
X807850Y945297D01*
X807850Y946266D02*
X812830Y946266D01*
X812830Y947235D02*
X807850Y947235D01*
X817850Y942390D02*
X822830Y942390D01*
X817850Y942390D02*
X817850Y947370D01*
X822830Y947370D01*
X822830Y942390D01*
X822830Y943359D02*
X817850Y943359D01*
X817850Y944328D02*
X822830Y944328D01*
X822830Y945297D02*
X817850Y945297D01*
X817850Y946266D02*
X822830Y946266D01*
X822830Y947235D02*
X817850Y947235D01*
X794890Y972770D02*
X789910Y972770D01*
X794890Y972770D02*
X794890Y967790D01*
X789910Y967790D01*
X789910Y972770D01*
X789910Y968759D02*
X794890Y968759D01*
X794890Y969728D02*
X789910Y969728D01*
X789910Y970697D02*
X794890Y970697D01*
X794890Y971666D02*
X789910Y971666D01*
X789910Y972635D02*
X794890Y972635D01*
X784890Y972770D02*
X779910Y972770D01*
X784890Y972770D02*
X784890Y967790D01*
X779910Y967790D01*
X779910Y972770D01*
X779910Y968759D02*
X784890Y968759D01*
X784890Y969728D02*
X779910Y969728D01*
X779910Y970697D02*
X784890Y970697D01*
X784890Y971666D02*
X779910Y971666D01*
X779910Y972635D02*
X784890Y972635D01*
X789910Y960070D02*
X794890Y960070D01*
X794890Y955090D01*
X789910Y955090D01*
X789910Y960070D01*
X789910Y956059D02*
X794890Y956059D01*
X794890Y957028D02*
X789910Y957028D01*
X789910Y957997D02*
X794890Y957997D01*
X794890Y958966D02*
X789910Y958966D01*
X789910Y959935D02*
X794890Y959935D01*
X784890Y960070D02*
X779910Y960070D01*
X784890Y960070D02*
X784890Y955090D01*
X779910Y955090D01*
X779910Y960070D01*
X779910Y956059D02*
X784890Y956059D01*
X784890Y957028D02*
X779910Y957028D01*
X779910Y957997D02*
X784890Y957997D01*
X784890Y958966D02*
X779910Y958966D01*
X779910Y959935D02*
X784890Y959935D01*
D10*
X865290Y994180D02*
X868290Y994180D01*
X865290Y994180D02*
X865290Y997180D01*
X868290Y997180D01*
X868290Y994180D01*
X868290Y995130D02*
X865290Y995130D01*
X865290Y996080D02*
X868290Y996080D01*
X868290Y997030D02*
X865290Y997030D01*
X854290Y994180D02*
X851290Y994180D01*
X851290Y997180D01*
X854290Y997180D01*
X854290Y994180D01*
X854290Y995130D02*
X851290Y995130D01*
X851290Y996080D02*
X854290Y996080D01*
X854290Y997030D02*
X851290Y997030D01*
D14*
X875000Y1074370D02*
X879980Y1074370D01*
X879980Y1069390D01*
X875000Y1069390D01*
X875000Y1074370D01*
X875000Y1070359D02*
X879980Y1070359D01*
X879980Y1071328D02*
X875000Y1071328D01*
X875000Y1072297D02*
X879980Y1072297D01*
X879980Y1073266D02*
X875000Y1073266D01*
X875000Y1074235D02*
X879980Y1074235D01*
X869980Y1074370D02*
X865000Y1074370D01*
X869980Y1074370D02*
X869980Y1069390D01*
X865000Y1069390D01*
X865000Y1074370D01*
X865000Y1070359D02*
X869980Y1070359D01*
X869980Y1071328D02*
X865000Y1071328D01*
X865000Y1072297D02*
X869980Y1072297D01*
X869980Y1073266D02*
X865000Y1073266D01*
X865000Y1074235D02*
X869980Y1074235D01*
D10*
X54900Y1415260D02*
X45900Y1415260D01*
X45900Y1419260D01*
X54900Y1419260D01*
X54900Y1415260D01*
X54900Y1416210D02*
X45900Y1416210D01*
X45900Y1417160D02*
X54900Y1417160D01*
X54900Y1418110D02*
X45900Y1418110D01*
X45900Y1419060D02*
X54900Y1419060D01*
X54900Y1404260D02*
X45900Y1404260D01*
X45900Y1408260D01*
X54900Y1408260D01*
X54900Y1404260D01*
X54900Y1405210D02*
X45900Y1405210D01*
X45900Y1406160D02*
X54900Y1406160D01*
X54900Y1407110D02*
X45900Y1407110D01*
X45900Y1408060D02*
X54900Y1408060D01*
X54900Y1393260D02*
X45900Y1393260D01*
X45900Y1397260D01*
X54900Y1397260D01*
X54900Y1393260D01*
X54900Y1394210D02*
X45900Y1394210D01*
X45900Y1395160D02*
X54900Y1395160D01*
X54900Y1396110D02*
X45900Y1396110D01*
X45900Y1397060D02*
X54900Y1397060D01*
X54900Y1382260D02*
X45900Y1382260D01*
X45900Y1386260D01*
X54900Y1386260D01*
X54900Y1382260D01*
X54900Y1383210D02*
X45900Y1383210D01*
X45900Y1384160D02*
X54900Y1384160D01*
X54900Y1385110D02*
X45900Y1385110D01*
X45900Y1386060D02*
X54900Y1386060D01*
X54900Y1371260D02*
X45900Y1371260D01*
X45900Y1375260D01*
X54900Y1375260D01*
X54900Y1371260D01*
X54900Y1372210D02*
X45900Y1372210D01*
X45900Y1373160D02*
X54900Y1373160D01*
X54900Y1374110D02*
X45900Y1374110D01*
X45900Y1375060D02*
X54900Y1375060D01*
X54900Y1360260D02*
X45900Y1360260D01*
X45900Y1364260D01*
X54900Y1364260D01*
X54900Y1360260D01*
X54900Y1361210D02*
X45900Y1361210D01*
X45900Y1362160D02*
X54900Y1362160D01*
X54900Y1363110D02*
X45900Y1363110D01*
X45900Y1364060D02*
X54900Y1364060D01*
X54900Y1349260D02*
X45900Y1349260D01*
X45900Y1353260D01*
X54900Y1353260D01*
X54900Y1349260D01*
X54900Y1350210D02*
X45900Y1350210D01*
X45900Y1351160D02*
X54900Y1351160D01*
X54900Y1352110D02*
X45900Y1352110D01*
X45900Y1353060D02*
X54900Y1353060D01*
X54900Y1338260D02*
X45900Y1338260D01*
X45900Y1342260D01*
X54900Y1342260D01*
X54900Y1338260D01*
X54900Y1339210D02*
X45900Y1339210D01*
X45900Y1340160D02*
X54900Y1340160D01*
X54900Y1341110D02*
X45900Y1341110D01*
X45900Y1342060D02*
X54900Y1342060D01*
D11*
X73804Y1432164D02*
X73804Y1438356D01*
X80596Y1438356D01*
X80596Y1432164D01*
X73804Y1432164D01*
X73804Y1433122D02*
X80596Y1433122D01*
X80596Y1434080D02*
X73804Y1434080D01*
X73804Y1435038D02*
X80596Y1435038D01*
X80596Y1435996D02*
X73804Y1435996D01*
X73804Y1436954D02*
X80596Y1436954D01*
X80596Y1437912D02*
X73804Y1437912D01*
D12*
X85025Y1430535D02*
X94775Y1430535D01*
X85025Y1430535D02*
X85025Y1439985D01*
X94775Y1439985D01*
X94775Y1430535D01*
X94775Y1431532D02*
X85025Y1431532D01*
X85025Y1432529D02*
X94775Y1432529D01*
X94775Y1433526D02*
X85025Y1433526D01*
X85025Y1434523D02*
X94775Y1434523D01*
X94775Y1435520D02*
X85025Y1435520D01*
X85025Y1436517D02*
X94775Y1436517D01*
X94775Y1437514D02*
X85025Y1437514D01*
X85025Y1438511D02*
X94775Y1438511D01*
X94775Y1439508D02*
X85025Y1439508D01*
X110525Y1430535D02*
X121475Y1430535D01*
X110525Y1430535D02*
X110525Y1439985D01*
X121475Y1439985D01*
X121475Y1430535D01*
X121475Y1431532D02*
X110525Y1431532D01*
X110525Y1432529D02*
X121475Y1432529D01*
X121475Y1433526D02*
X110525Y1433526D01*
X110525Y1434523D02*
X121475Y1434523D01*
X121475Y1435520D02*
X110525Y1435520D01*
X110525Y1436517D02*
X121475Y1436517D01*
X121475Y1437514D02*
X110525Y1437514D01*
X110525Y1438511D02*
X121475Y1438511D01*
X121475Y1439508D02*
X110525Y1439508D01*
X115775Y1323785D02*
X104825Y1323785D01*
X104825Y1333235D01*
X115775Y1333235D01*
X115775Y1323785D01*
X115775Y1324782D02*
X104825Y1324782D01*
X104825Y1325779D02*
X115775Y1325779D01*
X115775Y1326776D02*
X104825Y1326776D01*
X104825Y1327773D02*
X115775Y1327773D01*
X115775Y1328770D02*
X104825Y1328770D01*
X104825Y1329767D02*
X115775Y1329767D01*
X115775Y1330764D02*
X104825Y1330764D01*
X104825Y1331761D02*
X115775Y1331761D01*
X115775Y1332758D02*
X104825Y1332758D01*
X89875Y1323785D02*
X67025Y1323785D01*
X67025Y1333235D01*
X89875Y1333235D01*
X89875Y1323785D01*
X89875Y1324782D02*
X67025Y1324782D01*
X67025Y1325779D02*
X89875Y1325779D01*
X89875Y1326776D02*
X67025Y1326776D01*
X67025Y1327773D02*
X89875Y1327773D01*
X89875Y1328770D02*
X67025Y1328770D01*
X67025Y1329767D02*
X89875Y1329767D01*
X89875Y1330764D02*
X67025Y1330764D01*
X67025Y1331761D02*
X89875Y1331761D01*
X89875Y1332758D02*
X67025Y1332758D01*
D13*
X125005Y1346255D02*
X125005Y1374365D01*
X125005Y1346255D02*
X120495Y1346255D01*
X120495Y1374365D01*
X125005Y1374365D01*
X125005Y1347195D02*
X120495Y1347195D01*
X120495Y1348135D02*
X125005Y1348135D01*
X125005Y1349075D02*
X120495Y1349075D01*
X120495Y1350015D02*
X125005Y1350015D01*
X125005Y1350955D02*
X120495Y1350955D01*
X120495Y1351895D02*
X125005Y1351895D01*
X125005Y1352835D02*
X120495Y1352835D01*
X120495Y1353775D02*
X125005Y1353775D01*
X125005Y1354715D02*
X120495Y1354715D01*
X120495Y1355655D02*
X125005Y1355655D01*
X125005Y1356595D02*
X120495Y1356595D01*
X120495Y1357535D02*
X125005Y1357535D01*
X125005Y1358475D02*
X120495Y1358475D01*
X120495Y1359415D02*
X125005Y1359415D01*
X125005Y1360355D02*
X120495Y1360355D01*
X120495Y1361295D02*
X125005Y1361295D01*
X125005Y1362235D02*
X120495Y1362235D01*
X120495Y1363175D02*
X125005Y1363175D01*
X125005Y1364115D02*
X120495Y1364115D01*
X120495Y1365055D02*
X125005Y1365055D01*
X125005Y1365995D02*
X120495Y1365995D01*
X120495Y1366935D02*
X125005Y1366935D01*
X125005Y1367875D02*
X120495Y1367875D01*
X120495Y1368815D02*
X125005Y1368815D01*
X125005Y1369755D02*
X120495Y1369755D01*
X120495Y1370695D02*
X125005Y1370695D01*
X125005Y1371635D02*
X120495Y1371635D01*
X120495Y1372575D02*
X125005Y1372575D01*
X125005Y1373515D02*
X120495Y1373515D01*
X125005Y1388155D02*
X125005Y1416265D01*
X125005Y1388155D02*
X120495Y1388155D01*
X120495Y1416265D01*
X125005Y1416265D01*
X125005Y1389095D02*
X120495Y1389095D01*
X120495Y1390035D02*
X125005Y1390035D01*
X125005Y1390975D02*
X120495Y1390975D01*
X120495Y1391915D02*
X125005Y1391915D01*
X125005Y1392855D02*
X120495Y1392855D01*
X120495Y1393795D02*
X125005Y1393795D01*
X125005Y1394735D02*
X120495Y1394735D01*
X120495Y1395675D02*
X125005Y1395675D01*
X125005Y1396615D02*
X120495Y1396615D01*
X120495Y1397555D02*
X125005Y1397555D01*
X125005Y1398495D02*
X120495Y1398495D01*
X120495Y1399435D02*
X125005Y1399435D01*
X125005Y1400375D02*
X120495Y1400375D01*
X120495Y1401315D02*
X125005Y1401315D01*
X125005Y1402255D02*
X120495Y1402255D01*
X120495Y1403195D02*
X125005Y1403195D01*
X125005Y1404135D02*
X120495Y1404135D01*
X120495Y1405075D02*
X125005Y1405075D01*
X125005Y1406015D02*
X120495Y1406015D01*
X120495Y1406955D02*
X125005Y1406955D01*
X125005Y1407895D02*
X120495Y1407895D01*
X120495Y1408835D02*
X125005Y1408835D01*
X125005Y1409775D02*
X120495Y1409775D01*
X120495Y1410715D02*
X125005Y1410715D01*
X125005Y1411655D02*
X120495Y1411655D01*
X120495Y1412595D02*
X125005Y1412595D01*
X125005Y1413535D02*
X120495Y1413535D01*
X120495Y1414475D02*
X125005Y1414475D01*
X125005Y1415415D02*
X120495Y1415415D01*
D14*
X93850Y1549350D02*
X88870Y1549350D01*
X93850Y1549350D02*
X93850Y1544370D01*
X88870Y1544370D01*
X88870Y1549350D01*
X88870Y1545339D02*
X93850Y1545339D01*
X93850Y1546308D02*
X88870Y1546308D01*
X88870Y1547277D02*
X93850Y1547277D01*
X93850Y1548246D02*
X88870Y1548246D01*
X88870Y1549215D02*
X93850Y1549215D01*
X83850Y1549350D02*
X78870Y1549350D01*
X83850Y1549350D02*
X83850Y1544370D01*
X78870Y1544370D01*
X78870Y1549350D01*
X78870Y1545339D02*
X83850Y1545339D01*
X83850Y1546308D02*
X78870Y1546308D01*
X78870Y1547277D02*
X83850Y1547277D01*
X83850Y1548246D02*
X78870Y1548246D01*
X78870Y1549215D02*
X83850Y1549215D01*
X88870Y1536650D02*
X93850Y1536650D01*
X93850Y1531670D01*
X88870Y1531670D01*
X88870Y1536650D01*
X88870Y1532639D02*
X93850Y1532639D01*
X93850Y1533608D02*
X88870Y1533608D01*
X88870Y1534577D02*
X93850Y1534577D01*
X93850Y1535546D02*
X88870Y1535546D01*
X88870Y1536515D02*
X93850Y1536515D01*
X83850Y1536650D02*
X78870Y1536650D01*
X83850Y1536650D02*
X83850Y1531670D01*
X78870Y1531670D01*
X78870Y1536650D01*
X78870Y1532639D02*
X83850Y1532639D01*
X83850Y1533608D02*
X78870Y1533608D01*
X78870Y1534577D02*
X83850Y1534577D01*
X83850Y1535546D02*
X78870Y1535546D01*
X78870Y1536515D02*
X83850Y1536515D01*
X99190Y1582470D02*
X104170Y1582470D01*
X99190Y1582470D02*
X99190Y1587450D01*
X104170Y1587450D01*
X104170Y1582470D01*
X104170Y1583439D02*
X99190Y1583439D01*
X99190Y1584408D02*
X104170Y1584408D01*
X104170Y1585377D02*
X99190Y1585377D01*
X99190Y1586346D02*
X104170Y1586346D01*
X104170Y1587315D02*
X99190Y1587315D01*
X109190Y1582470D02*
X114170Y1582470D01*
X109190Y1582470D02*
X109190Y1587450D01*
X114170Y1587450D01*
X114170Y1582470D01*
X114170Y1583439D02*
X109190Y1583439D01*
X109190Y1584408D02*
X114170Y1584408D01*
X114170Y1585377D02*
X109190Y1585377D01*
X109190Y1586346D02*
X114170Y1586346D01*
X114170Y1587315D02*
X109190Y1587315D01*
X93850Y1511250D02*
X88870Y1511250D01*
X93850Y1511250D02*
X93850Y1506270D01*
X88870Y1506270D01*
X88870Y1511250D01*
X88870Y1507239D02*
X93850Y1507239D01*
X93850Y1508208D02*
X88870Y1508208D01*
X88870Y1509177D02*
X93850Y1509177D01*
X93850Y1510146D02*
X88870Y1510146D01*
X88870Y1511115D02*
X93850Y1511115D01*
X83850Y1511250D02*
X78870Y1511250D01*
X83850Y1511250D02*
X83850Y1506270D01*
X78870Y1506270D01*
X78870Y1511250D01*
X78870Y1507239D02*
X83850Y1507239D01*
X83850Y1508208D02*
X78870Y1508208D01*
X78870Y1509177D02*
X83850Y1509177D01*
X83850Y1510146D02*
X78870Y1510146D01*
X78870Y1511115D02*
X83850Y1511115D01*
X88870Y1523950D02*
X93850Y1523950D01*
X93850Y1518970D01*
X88870Y1518970D01*
X88870Y1523950D01*
X88870Y1519939D02*
X93850Y1519939D01*
X93850Y1520908D02*
X88870Y1520908D01*
X88870Y1521877D02*
X93850Y1521877D01*
X93850Y1522846D02*
X88870Y1522846D01*
X88870Y1523815D02*
X93850Y1523815D01*
X83850Y1523950D02*
X78870Y1523950D01*
X83850Y1523950D02*
X83850Y1518970D01*
X78870Y1518970D01*
X78870Y1523950D01*
X78870Y1519939D02*
X83850Y1519939D01*
X83850Y1520908D02*
X78870Y1520908D01*
X78870Y1521877D02*
X83850Y1521877D01*
X83850Y1522846D02*
X78870Y1522846D01*
X78870Y1523815D02*
X83850Y1523815D01*
X88870Y1562050D02*
X93850Y1562050D01*
X93850Y1557070D01*
X88870Y1557070D01*
X88870Y1562050D01*
X88870Y1558039D02*
X93850Y1558039D01*
X93850Y1559008D02*
X88870Y1559008D01*
X88870Y1559977D02*
X93850Y1559977D01*
X93850Y1560946D02*
X88870Y1560946D01*
X88870Y1561915D02*
X93850Y1561915D01*
X83850Y1562050D02*
X78870Y1562050D01*
X83850Y1562050D02*
X83850Y1557070D01*
X78870Y1557070D01*
X78870Y1562050D01*
X78870Y1558039D02*
X83850Y1558039D01*
X83850Y1559008D02*
X78870Y1559008D01*
X78870Y1559977D02*
X83850Y1559977D01*
X83850Y1560946D02*
X78870Y1560946D01*
X78870Y1561915D02*
X83850Y1561915D01*
X106810Y1557070D02*
X111790Y1557070D01*
X106810Y1557070D02*
X106810Y1562050D01*
X111790Y1562050D01*
X111790Y1557070D01*
X111790Y1558039D02*
X106810Y1558039D01*
X106810Y1559008D02*
X111790Y1559008D01*
X111790Y1559977D02*
X106810Y1559977D01*
X106810Y1560946D02*
X111790Y1560946D01*
X111790Y1561915D02*
X106810Y1561915D01*
X116810Y1557070D02*
X121790Y1557070D01*
X116810Y1557070D02*
X116810Y1562050D01*
X121790Y1562050D01*
X121790Y1557070D01*
X121790Y1558039D02*
X116810Y1558039D01*
X116810Y1559008D02*
X121790Y1559008D01*
X121790Y1559977D02*
X116810Y1559977D01*
X116810Y1560946D02*
X121790Y1560946D01*
X121790Y1561915D02*
X116810Y1561915D01*
X93850Y1587450D02*
X88870Y1587450D01*
X93850Y1587450D02*
X93850Y1582470D01*
X88870Y1582470D01*
X88870Y1587450D01*
X88870Y1583439D02*
X93850Y1583439D01*
X93850Y1584408D02*
X88870Y1584408D01*
X88870Y1585377D02*
X93850Y1585377D01*
X93850Y1586346D02*
X88870Y1586346D01*
X88870Y1587315D02*
X93850Y1587315D01*
X83850Y1587450D02*
X78870Y1587450D01*
X83850Y1587450D02*
X83850Y1582470D01*
X78870Y1582470D01*
X78870Y1587450D01*
X78870Y1583439D02*
X83850Y1583439D01*
X83850Y1584408D02*
X78870Y1584408D01*
X78870Y1585377D02*
X83850Y1585377D01*
X83850Y1586346D02*
X78870Y1586346D01*
X78870Y1587315D02*
X83850Y1587315D01*
X88870Y1574750D02*
X93850Y1574750D01*
X93850Y1569770D01*
X88870Y1569770D01*
X88870Y1574750D01*
X88870Y1570739D02*
X93850Y1570739D01*
X93850Y1571708D02*
X88870Y1571708D01*
X88870Y1572677D02*
X93850Y1572677D01*
X93850Y1573646D02*
X88870Y1573646D01*
X88870Y1574615D02*
X93850Y1574615D01*
X83850Y1574750D02*
X78870Y1574750D01*
X83850Y1574750D02*
X83850Y1569770D01*
X78870Y1569770D01*
X78870Y1574750D01*
X78870Y1570739D02*
X83850Y1570739D01*
X83850Y1571708D02*
X78870Y1571708D01*
X78870Y1572677D02*
X83850Y1572677D01*
X83850Y1573646D02*
X78870Y1573646D01*
X78870Y1574615D02*
X83850Y1574615D01*
D10*
X164250Y1608860D02*
X167250Y1608860D01*
X164250Y1608860D02*
X164250Y1611860D01*
X167250Y1611860D01*
X167250Y1608860D01*
X167250Y1609810D02*
X164250Y1609810D01*
X164250Y1610760D02*
X167250Y1610760D01*
X167250Y1611710D02*
X164250Y1611710D01*
X153250Y1608860D02*
X150250Y1608860D01*
X150250Y1611860D01*
X153250Y1611860D01*
X153250Y1608860D01*
X153250Y1609810D02*
X150250Y1609810D01*
X150250Y1610760D02*
X153250Y1610760D01*
X153250Y1611710D02*
X150250Y1611710D01*
D14*
X173960Y1689050D02*
X178940Y1689050D01*
X178940Y1684070D01*
X173960Y1684070D01*
X173960Y1689050D01*
X173960Y1685039D02*
X178940Y1685039D01*
X178940Y1686008D02*
X173960Y1686008D01*
X173960Y1686977D02*
X178940Y1686977D01*
X178940Y1687946D02*
X173960Y1687946D01*
X173960Y1688915D02*
X178940Y1688915D01*
X168940Y1689050D02*
X163960Y1689050D01*
X168940Y1689050D02*
X168940Y1684070D01*
X163960Y1684070D01*
X163960Y1689050D01*
X163960Y1685039D02*
X168940Y1685039D01*
X168940Y1686008D02*
X163960Y1686008D01*
X163960Y1686977D02*
X168940Y1686977D01*
X168940Y1687946D02*
X163960Y1687946D01*
X163960Y1688915D02*
X168940Y1688915D01*
D10*
X279580Y1415260D02*
X288580Y1415260D01*
X279580Y1415260D02*
X279580Y1419260D01*
X288580Y1419260D01*
X288580Y1415260D01*
X288580Y1416210D02*
X279580Y1416210D01*
X279580Y1417160D02*
X288580Y1417160D01*
X288580Y1418110D02*
X279580Y1418110D01*
X279580Y1419060D02*
X288580Y1419060D01*
X288580Y1404260D02*
X279580Y1404260D01*
X279580Y1408260D01*
X288580Y1408260D01*
X288580Y1404260D01*
X288580Y1405210D02*
X279580Y1405210D01*
X279580Y1406160D02*
X288580Y1406160D01*
X288580Y1407110D02*
X279580Y1407110D01*
X279580Y1408060D02*
X288580Y1408060D01*
X288580Y1393260D02*
X279580Y1393260D01*
X279580Y1397260D01*
X288580Y1397260D01*
X288580Y1393260D01*
X288580Y1394210D02*
X279580Y1394210D01*
X279580Y1395160D02*
X288580Y1395160D01*
X288580Y1396110D02*
X279580Y1396110D01*
X279580Y1397060D02*
X288580Y1397060D01*
X288580Y1382260D02*
X279580Y1382260D01*
X279580Y1386260D01*
X288580Y1386260D01*
X288580Y1382260D01*
X288580Y1383210D02*
X279580Y1383210D01*
X279580Y1384160D02*
X288580Y1384160D01*
X288580Y1385110D02*
X279580Y1385110D01*
X279580Y1386060D02*
X288580Y1386060D01*
X288580Y1371260D02*
X279580Y1371260D01*
X279580Y1375260D01*
X288580Y1375260D01*
X288580Y1371260D01*
X288580Y1372210D02*
X279580Y1372210D01*
X279580Y1373160D02*
X288580Y1373160D01*
X288580Y1374110D02*
X279580Y1374110D01*
X279580Y1375060D02*
X288580Y1375060D01*
X288580Y1360260D02*
X279580Y1360260D01*
X279580Y1364260D01*
X288580Y1364260D01*
X288580Y1360260D01*
X288580Y1361210D02*
X279580Y1361210D01*
X279580Y1362160D02*
X288580Y1362160D01*
X288580Y1363110D02*
X279580Y1363110D01*
X279580Y1364060D02*
X288580Y1364060D01*
X288580Y1349260D02*
X279580Y1349260D01*
X279580Y1353260D01*
X288580Y1353260D01*
X288580Y1349260D01*
X288580Y1350210D02*
X279580Y1350210D01*
X279580Y1351160D02*
X288580Y1351160D01*
X288580Y1352110D02*
X279580Y1352110D01*
X279580Y1353060D02*
X288580Y1353060D01*
X288580Y1338260D02*
X279580Y1338260D01*
X279580Y1342260D01*
X288580Y1342260D01*
X288580Y1338260D01*
X288580Y1339210D02*
X279580Y1339210D01*
X279580Y1340160D02*
X288580Y1340160D01*
X288580Y1341110D02*
X279580Y1341110D01*
X279580Y1342060D02*
X288580Y1342060D01*
D11*
X307484Y1432164D02*
X307484Y1438356D01*
X314276Y1438356D01*
X314276Y1432164D01*
X307484Y1432164D01*
X307484Y1433122D02*
X314276Y1433122D01*
X314276Y1434080D02*
X307484Y1434080D01*
X307484Y1435038D02*
X314276Y1435038D01*
X314276Y1435996D02*
X307484Y1435996D01*
X307484Y1436954D02*
X314276Y1436954D01*
X314276Y1437912D02*
X307484Y1437912D01*
D12*
X318705Y1430535D02*
X328455Y1430535D01*
X318705Y1430535D02*
X318705Y1439985D01*
X328455Y1439985D01*
X328455Y1430535D01*
X328455Y1431532D02*
X318705Y1431532D01*
X318705Y1432529D02*
X328455Y1432529D01*
X328455Y1433526D02*
X318705Y1433526D01*
X318705Y1434523D02*
X328455Y1434523D01*
X328455Y1435520D02*
X318705Y1435520D01*
X318705Y1436517D02*
X328455Y1436517D01*
X328455Y1437514D02*
X318705Y1437514D01*
X318705Y1438511D02*
X328455Y1438511D01*
X328455Y1439508D02*
X318705Y1439508D01*
X344205Y1430535D02*
X355155Y1430535D01*
X344205Y1430535D02*
X344205Y1439985D01*
X355155Y1439985D01*
X355155Y1430535D01*
X355155Y1431532D02*
X344205Y1431532D01*
X344205Y1432529D02*
X355155Y1432529D01*
X355155Y1433526D02*
X344205Y1433526D01*
X344205Y1434523D02*
X355155Y1434523D01*
X355155Y1435520D02*
X344205Y1435520D01*
X344205Y1436517D02*
X355155Y1436517D01*
X355155Y1437514D02*
X344205Y1437514D01*
X344205Y1438511D02*
X355155Y1438511D01*
X355155Y1439508D02*
X344205Y1439508D01*
X349455Y1323785D02*
X338505Y1323785D01*
X338505Y1333235D01*
X349455Y1333235D01*
X349455Y1323785D01*
X349455Y1324782D02*
X338505Y1324782D01*
X338505Y1325779D02*
X349455Y1325779D01*
X349455Y1326776D02*
X338505Y1326776D01*
X338505Y1327773D02*
X349455Y1327773D01*
X349455Y1328770D02*
X338505Y1328770D01*
X338505Y1329767D02*
X349455Y1329767D01*
X349455Y1330764D02*
X338505Y1330764D01*
X338505Y1331761D02*
X349455Y1331761D01*
X349455Y1332758D02*
X338505Y1332758D01*
X323555Y1323785D02*
X300705Y1323785D01*
X300705Y1333235D01*
X323555Y1333235D01*
X323555Y1323785D01*
X323555Y1324782D02*
X300705Y1324782D01*
X300705Y1325779D02*
X323555Y1325779D01*
X323555Y1326776D02*
X300705Y1326776D01*
X300705Y1327773D02*
X323555Y1327773D01*
X323555Y1328770D02*
X300705Y1328770D01*
X300705Y1329767D02*
X323555Y1329767D01*
X323555Y1330764D02*
X300705Y1330764D01*
X300705Y1331761D02*
X323555Y1331761D01*
X323555Y1332758D02*
X300705Y1332758D01*
D13*
X358685Y1346255D02*
X358685Y1374365D01*
X358685Y1346255D02*
X354175Y1346255D01*
X354175Y1374365D01*
X358685Y1374365D01*
X358685Y1347195D02*
X354175Y1347195D01*
X354175Y1348135D02*
X358685Y1348135D01*
X358685Y1349075D02*
X354175Y1349075D01*
X354175Y1350015D02*
X358685Y1350015D01*
X358685Y1350955D02*
X354175Y1350955D01*
X354175Y1351895D02*
X358685Y1351895D01*
X358685Y1352835D02*
X354175Y1352835D01*
X354175Y1353775D02*
X358685Y1353775D01*
X358685Y1354715D02*
X354175Y1354715D01*
X354175Y1355655D02*
X358685Y1355655D01*
X358685Y1356595D02*
X354175Y1356595D01*
X354175Y1357535D02*
X358685Y1357535D01*
X358685Y1358475D02*
X354175Y1358475D01*
X354175Y1359415D02*
X358685Y1359415D01*
X358685Y1360355D02*
X354175Y1360355D01*
X354175Y1361295D02*
X358685Y1361295D01*
X358685Y1362235D02*
X354175Y1362235D01*
X354175Y1363175D02*
X358685Y1363175D01*
X358685Y1364115D02*
X354175Y1364115D01*
X354175Y1365055D02*
X358685Y1365055D01*
X358685Y1365995D02*
X354175Y1365995D01*
X354175Y1366935D02*
X358685Y1366935D01*
X358685Y1367875D02*
X354175Y1367875D01*
X354175Y1368815D02*
X358685Y1368815D01*
X358685Y1369755D02*
X354175Y1369755D01*
X354175Y1370695D02*
X358685Y1370695D01*
X358685Y1371635D02*
X354175Y1371635D01*
X354175Y1372575D02*
X358685Y1372575D01*
X358685Y1373515D02*
X354175Y1373515D01*
X358685Y1388155D02*
X358685Y1416265D01*
X358685Y1388155D02*
X354175Y1388155D01*
X354175Y1416265D01*
X358685Y1416265D01*
X358685Y1389095D02*
X354175Y1389095D01*
X354175Y1390035D02*
X358685Y1390035D01*
X358685Y1390975D02*
X354175Y1390975D01*
X354175Y1391915D02*
X358685Y1391915D01*
X358685Y1392855D02*
X354175Y1392855D01*
X354175Y1393795D02*
X358685Y1393795D01*
X358685Y1394735D02*
X354175Y1394735D01*
X354175Y1395675D02*
X358685Y1395675D01*
X358685Y1396615D02*
X354175Y1396615D01*
X354175Y1397555D02*
X358685Y1397555D01*
X358685Y1398495D02*
X354175Y1398495D01*
X354175Y1399435D02*
X358685Y1399435D01*
X358685Y1400375D02*
X354175Y1400375D01*
X354175Y1401315D02*
X358685Y1401315D01*
X358685Y1402255D02*
X354175Y1402255D01*
X354175Y1403195D02*
X358685Y1403195D01*
X358685Y1404135D02*
X354175Y1404135D01*
X354175Y1405075D02*
X358685Y1405075D01*
X358685Y1406015D02*
X354175Y1406015D01*
X354175Y1406955D02*
X358685Y1406955D01*
X358685Y1407895D02*
X354175Y1407895D01*
X354175Y1408835D02*
X358685Y1408835D01*
X358685Y1409775D02*
X354175Y1409775D01*
X354175Y1410715D02*
X358685Y1410715D01*
X358685Y1411655D02*
X354175Y1411655D01*
X354175Y1412595D02*
X358685Y1412595D01*
X358685Y1413535D02*
X354175Y1413535D01*
X354175Y1414475D02*
X358685Y1414475D01*
X358685Y1415415D02*
X354175Y1415415D01*
D14*
X327530Y1549350D02*
X322550Y1549350D01*
X327530Y1549350D02*
X327530Y1544370D01*
X322550Y1544370D01*
X322550Y1549350D01*
X322550Y1545339D02*
X327530Y1545339D01*
X327530Y1546308D02*
X322550Y1546308D01*
X322550Y1547277D02*
X327530Y1547277D01*
X327530Y1548246D02*
X322550Y1548246D01*
X322550Y1549215D02*
X327530Y1549215D01*
X317530Y1549350D02*
X312550Y1549350D01*
X317530Y1549350D02*
X317530Y1544370D01*
X312550Y1544370D01*
X312550Y1549350D01*
X312550Y1545339D02*
X317530Y1545339D01*
X317530Y1546308D02*
X312550Y1546308D01*
X312550Y1547277D02*
X317530Y1547277D01*
X317530Y1548246D02*
X312550Y1548246D01*
X312550Y1549215D02*
X317530Y1549215D01*
X322550Y1536650D02*
X327530Y1536650D01*
X327530Y1531670D01*
X322550Y1531670D01*
X322550Y1536650D01*
X322550Y1532639D02*
X327530Y1532639D01*
X327530Y1533608D02*
X322550Y1533608D01*
X322550Y1534577D02*
X327530Y1534577D01*
X327530Y1535546D02*
X322550Y1535546D01*
X322550Y1536515D02*
X327530Y1536515D01*
X317530Y1536650D02*
X312550Y1536650D01*
X317530Y1536650D02*
X317530Y1531670D01*
X312550Y1531670D01*
X312550Y1536650D01*
X312550Y1532639D02*
X317530Y1532639D01*
X317530Y1533608D02*
X312550Y1533608D01*
X312550Y1534577D02*
X317530Y1534577D01*
X317530Y1535546D02*
X312550Y1535546D01*
X312550Y1536515D02*
X317530Y1536515D01*
X332870Y1582470D02*
X337850Y1582470D01*
X332870Y1582470D02*
X332870Y1587450D01*
X337850Y1587450D01*
X337850Y1582470D01*
X337850Y1583439D02*
X332870Y1583439D01*
X332870Y1584408D02*
X337850Y1584408D01*
X337850Y1585377D02*
X332870Y1585377D01*
X332870Y1586346D02*
X337850Y1586346D01*
X337850Y1587315D02*
X332870Y1587315D01*
X342870Y1582470D02*
X347850Y1582470D01*
X342870Y1582470D02*
X342870Y1587450D01*
X347850Y1587450D01*
X347850Y1582470D01*
X347850Y1583439D02*
X342870Y1583439D01*
X342870Y1584408D02*
X347850Y1584408D01*
X347850Y1585377D02*
X342870Y1585377D01*
X342870Y1586346D02*
X347850Y1586346D01*
X347850Y1587315D02*
X342870Y1587315D01*
X327530Y1511250D02*
X322550Y1511250D01*
X327530Y1511250D02*
X327530Y1506270D01*
X322550Y1506270D01*
X322550Y1511250D01*
X322550Y1507239D02*
X327530Y1507239D01*
X327530Y1508208D02*
X322550Y1508208D01*
X322550Y1509177D02*
X327530Y1509177D01*
X327530Y1510146D02*
X322550Y1510146D01*
X322550Y1511115D02*
X327530Y1511115D01*
X317530Y1511250D02*
X312550Y1511250D01*
X317530Y1511250D02*
X317530Y1506270D01*
X312550Y1506270D01*
X312550Y1511250D01*
X312550Y1507239D02*
X317530Y1507239D01*
X317530Y1508208D02*
X312550Y1508208D01*
X312550Y1509177D02*
X317530Y1509177D01*
X317530Y1510146D02*
X312550Y1510146D01*
X312550Y1511115D02*
X317530Y1511115D01*
X322550Y1523950D02*
X327530Y1523950D01*
X327530Y1518970D01*
X322550Y1518970D01*
X322550Y1523950D01*
X322550Y1519939D02*
X327530Y1519939D01*
X327530Y1520908D02*
X322550Y1520908D01*
X322550Y1521877D02*
X327530Y1521877D01*
X327530Y1522846D02*
X322550Y1522846D01*
X322550Y1523815D02*
X327530Y1523815D01*
X317530Y1523950D02*
X312550Y1523950D01*
X317530Y1523950D02*
X317530Y1518970D01*
X312550Y1518970D01*
X312550Y1523950D01*
X312550Y1519939D02*
X317530Y1519939D01*
X317530Y1520908D02*
X312550Y1520908D01*
X312550Y1521877D02*
X317530Y1521877D01*
X317530Y1522846D02*
X312550Y1522846D01*
X312550Y1523815D02*
X317530Y1523815D01*
X322550Y1562050D02*
X327530Y1562050D01*
X327530Y1557070D01*
X322550Y1557070D01*
X322550Y1562050D01*
X322550Y1558039D02*
X327530Y1558039D01*
X327530Y1559008D02*
X322550Y1559008D01*
X322550Y1559977D02*
X327530Y1559977D01*
X327530Y1560946D02*
X322550Y1560946D01*
X322550Y1561915D02*
X327530Y1561915D01*
X317530Y1562050D02*
X312550Y1562050D01*
X317530Y1562050D02*
X317530Y1557070D01*
X312550Y1557070D01*
X312550Y1562050D01*
X312550Y1558039D02*
X317530Y1558039D01*
X317530Y1559008D02*
X312550Y1559008D01*
X312550Y1559977D02*
X317530Y1559977D01*
X317530Y1560946D02*
X312550Y1560946D01*
X312550Y1561915D02*
X317530Y1561915D01*
X340490Y1557070D02*
X345470Y1557070D01*
X340490Y1557070D02*
X340490Y1562050D01*
X345470Y1562050D01*
X345470Y1557070D01*
X345470Y1558039D02*
X340490Y1558039D01*
X340490Y1559008D02*
X345470Y1559008D01*
X345470Y1559977D02*
X340490Y1559977D01*
X340490Y1560946D02*
X345470Y1560946D01*
X345470Y1561915D02*
X340490Y1561915D01*
X350490Y1557070D02*
X355470Y1557070D01*
X350490Y1557070D02*
X350490Y1562050D01*
X355470Y1562050D01*
X355470Y1557070D01*
X355470Y1558039D02*
X350490Y1558039D01*
X350490Y1559008D02*
X355470Y1559008D01*
X355470Y1559977D02*
X350490Y1559977D01*
X350490Y1560946D02*
X355470Y1560946D01*
X355470Y1561915D02*
X350490Y1561915D01*
X327530Y1587450D02*
X322550Y1587450D01*
X327530Y1587450D02*
X327530Y1582470D01*
X322550Y1582470D01*
X322550Y1587450D01*
X322550Y1583439D02*
X327530Y1583439D01*
X327530Y1584408D02*
X322550Y1584408D01*
X322550Y1585377D02*
X327530Y1585377D01*
X327530Y1586346D02*
X322550Y1586346D01*
X322550Y1587315D02*
X327530Y1587315D01*
X317530Y1587450D02*
X312550Y1587450D01*
X317530Y1587450D02*
X317530Y1582470D01*
X312550Y1582470D01*
X312550Y1587450D01*
X312550Y1583439D02*
X317530Y1583439D01*
X317530Y1584408D02*
X312550Y1584408D01*
X312550Y1585377D02*
X317530Y1585377D01*
X317530Y1586346D02*
X312550Y1586346D01*
X312550Y1587315D02*
X317530Y1587315D01*
X322550Y1574750D02*
X327530Y1574750D01*
X327530Y1569770D01*
X322550Y1569770D01*
X322550Y1574750D01*
X322550Y1570739D02*
X327530Y1570739D01*
X327530Y1571708D02*
X322550Y1571708D01*
X322550Y1572677D02*
X327530Y1572677D01*
X327530Y1573646D02*
X322550Y1573646D01*
X322550Y1574615D02*
X327530Y1574615D01*
X317530Y1574750D02*
X312550Y1574750D01*
X317530Y1574750D02*
X317530Y1569770D01*
X312550Y1569770D01*
X312550Y1574750D01*
X312550Y1570739D02*
X317530Y1570739D01*
X317530Y1571708D02*
X312550Y1571708D01*
X312550Y1572677D02*
X317530Y1572677D01*
X317530Y1573646D02*
X312550Y1573646D01*
X312550Y1574615D02*
X317530Y1574615D01*
D10*
X397930Y1608860D02*
X400930Y1608860D01*
X397930Y1608860D02*
X397930Y1611860D01*
X400930Y1611860D01*
X400930Y1608860D01*
X400930Y1609810D02*
X397930Y1609810D01*
X397930Y1610760D02*
X400930Y1610760D01*
X400930Y1611710D02*
X397930Y1611710D01*
X386930Y1608860D02*
X383930Y1608860D01*
X383930Y1611860D01*
X386930Y1611860D01*
X386930Y1608860D01*
X386930Y1609810D02*
X383930Y1609810D01*
X383930Y1610760D02*
X386930Y1610760D01*
X386930Y1611710D02*
X383930Y1611710D01*
D14*
X407640Y1689050D02*
X412620Y1689050D01*
X412620Y1684070D01*
X407640Y1684070D01*
X407640Y1689050D01*
X407640Y1685039D02*
X412620Y1685039D01*
X412620Y1686008D02*
X407640Y1686008D01*
X407640Y1686977D02*
X412620Y1686977D01*
X412620Y1687946D02*
X407640Y1687946D01*
X407640Y1688915D02*
X412620Y1688915D01*
X402620Y1689050D02*
X397640Y1689050D01*
X402620Y1689050D02*
X402620Y1684070D01*
X397640Y1684070D01*
X397640Y1689050D01*
X397640Y1685039D02*
X402620Y1685039D01*
X402620Y1686008D02*
X397640Y1686008D01*
X397640Y1686977D02*
X402620Y1686977D01*
X402620Y1687946D02*
X397640Y1687946D01*
X397640Y1688915D02*
X402620Y1688915D01*
D10*
X513260Y1415260D02*
X522260Y1415260D01*
X513260Y1415260D02*
X513260Y1419260D01*
X522260Y1419260D01*
X522260Y1415260D01*
X522260Y1416210D02*
X513260Y1416210D01*
X513260Y1417160D02*
X522260Y1417160D01*
X522260Y1418110D02*
X513260Y1418110D01*
X513260Y1419060D02*
X522260Y1419060D01*
X522260Y1404260D02*
X513260Y1404260D01*
X513260Y1408260D01*
X522260Y1408260D01*
X522260Y1404260D01*
X522260Y1405210D02*
X513260Y1405210D01*
X513260Y1406160D02*
X522260Y1406160D01*
X522260Y1407110D02*
X513260Y1407110D01*
X513260Y1408060D02*
X522260Y1408060D01*
X522260Y1393260D02*
X513260Y1393260D01*
X513260Y1397260D01*
X522260Y1397260D01*
X522260Y1393260D01*
X522260Y1394210D02*
X513260Y1394210D01*
X513260Y1395160D02*
X522260Y1395160D01*
X522260Y1396110D02*
X513260Y1396110D01*
X513260Y1397060D02*
X522260Y1397060D01*
X522260Y1382260D02*
X513260Y1382260D01*
X513260Y1386260D01*
X522260Y1386260D01*
X522260Y1382260D01*
X522260Y1383210D02*
X513260Y1383210D01*
X513260Y1384160D02*
X522260Y1384160D01*
X522260Y1385110D02*
X513260Y1385110D01*
X513260Y1386060D02*
X522260Y1386060D01*
X522260Y1371260D02*
X513260Y1371260D01*
X513260Y1375260D01*
X522260Y1375260D01*
X522260Y1371260D01*
X522260Y1372210D02*
X513260Y1372210D01*
X513260Y1373160D02*
X522260Y1373160D01*
X522260Y1374110D02*
X513260Y1374110D01*
X513260Y1375060D02*
X522260Y1375060D01*
X522260Y1360260D02*
X513260Y1360260D01*
X513260Y1364260D01*
X522260Y1364260D01*
X522260Y1360260D01*
X522260Y1361210D02*
X513260Y1361210D01*
X513260Y1362160D02*
X522260Y1362160D01*
X522260Y1363110D02*
X513260Y1363110D01*
X513260Y1364060D02*
X522260Y1364060D01*
X522260Y1349260D02*
X513260Y1349260D01*
X513260Y1353260D01*
X522260Y1353260D01*
X522260Y1349260D01*
X522260Y1350210D02*
X513260Y1350210D01*
X513260Y1351160D02*
X522260Y1351160D01*
X522260Y1352110D02*
X513260Y1352110D01*
X513260Y1353060D02*
X522260Y1353060D01*
X522260Y1338260D02*
X513260Y1338260D01*
X513260Y1342260D01*
X522260Y1342260D01*
X522260Y1338260D01*
X522260Y1339210D02*
X513260Y1339210D01*
X513260Y1340160D02*
X522260Y1340160D01*
X522260Y1341110D02*
X513260Y1341110D01*
X513260Y1342060D02*
X522260Y1342060D01*
D11*
X541164Y1432164D02*
X541164Y1438356D01*
X547956Y1438356D01*
X547956Y1432164D01*
X541164Y1432164D01*
X541164Y1433122D02*
X547956Y1433122D01*
X547956Y1434080D02*
X541164Y1434080D01*
X541164Y1435038D02*
X547956Y1435038D01*
X547956Y1435996D02*
X541164Y1435996D01*
X541164Y1436954D02*
X547956Y1436954D01*
X547956Y1437912D02*
X541164Y1437912D01*
D12*
X552385Y1430535D02*
X562135Y1430535D01*
X552385Y1430535D02*
X552385Y1439985D01*
X562135Y1439985D01*
X562135Y1430535D01*
X562135Y1431532D02*
X552385Y1431532D01*
X552385Y1432529D02*
X562135Y1432529D01*
X562135Y1433526D02*
X552385Y1433526D01*
X552385Y1434523D02*
X562135Y1434523D01*
X562135Y1435520D02*
X552385Y1435520D01*
X552385Y1436517D02*
X562135Y1436517D01*
X562135Y1437514D02*
X552385Y1437514D01*
X552385Y1438511D02*
X562135Y1438511D01*
X562135Y1439508D02*
X552385Y1439508D01*
X577885Y1430535D02*
X588835Y1430535D01*
X577885Y1430535D02*
X577885Y1439985D01*
X588835Y1439985D01*
X588835Y1430535D01*
X588835Y1431532D02*
X577885Y1431532D01*
X577885Y1432529D02*
X588835Y1432529D01*
X588835Y1433526D02*
X577885Y1433526D01*
X577885Y1434523D02*
X588835Y1434523D01*
X588835Y1435520D02*
X577885Y1435520D01*
X577885Y1436517D02*
X588835Y1436517D01*
X588835Y1437514D02*
X577885Y1437514D01*
X577885Y1438511D02*
X588835Y1438511D01*
X588835Y1439508D02*
X577885Y1439508D01*
X583135Y1323785D02*
X572185Y1323785D01*
X572185Y1333235D01*
X583135Y1333235D01*
X583135Y1323785D01*
X583135Y1324782D02*
X572185Y1324782D01*
X572185Y1325779D02*
X583135Y1325779D01*
X583135Y1326776D02*
X572185Y1326776D01*
X572185Y1327773D02*
X583135Y1327773D01*
X583135Y1328770D02*
X572185Y1328770D01*
X572185Y1329767D02*
X583135Y1329767D01*
X583135Y1330764D02*
X572185Y1330764D01*
X572185Y1331761D02*
X583135Y1331761D01*
X583135Y1332758D02*
X572185Y1332758D01*
X557235Y1323785D02*
X534385Y1323785D01*
X534385Y1333235D01*
X557235Y1333235D01*
X557235Y1323785D01*
X557235Y1324782D02*
X534385Y1324782D01*
X534385Y1325779D02*
X557235Y1325779D01*
X557235Y1326776D02*
X534385Y1326776D01*
X534385Y1327773D02*
X557235Y1327773D01*
X557235Y1328770D02*
X534385Y1328770D01*
X534385Y1329767D02*
X557235Y1329767D01*
X557235Y1330764D02*
X534385Y1330764D01*
X534385Y1331761D02*
X557235Y1331761D01*
X557235Y1332758D02*
X534385Y1332758D01*
D13*
X592365Y1346255D02*
X592365Y1374365D01*
X592365Y1346255D02*
X587855Y1346255D01*
X587855Y1374365D01*
X592365Y1374365D01*
X592365Y1347195D02*
X587855Y1347195D01*
X587855Y1348135D02*
X592365Y1348135D01*
X592365Y1349075D02*
X587855Y1349075D01*
X587855Y1350015D02*
X592365Y1350015D01*
X592365Y1350955D02*
X587855Y1350955D01*
X587855Y1351895D02*
X592365Y1351895D01*
X592365Y1352835D02*
X587855Y1352835D01*
X587855Y1353775D02*
X592365Y1353775D01*
X592365Y1354715D02*
X587855Y1354715D01*
X587855Y1355655D02*
X592365Y1355655D01*
X592365Y1356595D02*
X587855Y1356595D01*
X587855Y1357535D02*
X592365Y1357535D01*
X592365Y1358475D02*
X587855Y1358475D01*
X587855Y1359415D02*
X592365Y1359415D01*
X592365Y1360355D02*
X587855Y1360355D01*
X587855Y1361295D02*
X592365Y1361295D01*
X592365Y1362235D02*
X587855Y1362235D01*
X587855Y1363175D02*
X592365Y1363175D01*
X592365Y1364115D02*
X587855Y1364115D01*
X587855Y1365055D02*
X592365Y1365055D01*
X592365Y1365995D02*
X587855Y1365995D01*
X587855Y1366935D02*
X592365Y1366935D01*
X592365Y1367875D02*
X587855Y1367875D01*
X587855Y1368815D02*
X592365Y1368815D01*
X592365Y1369755D02*
X587855Y1369755D01*
X587855Y1370695D02*
X592365Y1370695D01*
X592365Y1371635D02*
X587855Y1371635D01*
X587855Y1372575D02*
X592365Y1372575D01*
X592365Y1373515D02*
X587855Y1373515D01*
X592365Y1388155D02*
X592365Y1416265D01*
X592365Y1388155D02*
X587855Y1388155D01*
X587855Y1416265D01*
X592365Y1416265D01*
X592365Y1389095D02*
X587855Y1389095D01*
X587855Y1390035D02*
X592365Y1390035D01*
X592365Y1390975D02*
X587855Y1390975D01*
X587855Y1391915D02*
X592365Y1391915D01*
X592365Y1392855D02*
X587855Y1392855D01*
X587855Y1393795D02*
X592365Y1393795D01*
X592365Y1394735D02*
X587855Y1394735D01*
X587855Y1395675D02*
X592365Y1395675D01*
X592365Y1396615D02*
X587855Y1396615D01*
X587855Y1397555D02*
X592365Y1397555D01*
X592365Y1398495D02*
X587855Y1398495D01*
X587855Y1399435D02*
X592365Y1399435D01*
X592365Y1400375D02*
X587855Y1400375D01*
X587855Y1401315D02*
X592365Y1401315D01*
X592365Y1402255D02*
X587855Y1402255D01*
X587855Y1403195D02*
X592365Y1403195D01*
X592365Y1404135D02*
X587855Y1404135D01*
X587855Y1405075D02*
X592365Y1405075D01*
X592365Y1406015D02*
X587855Y1406015D01*
X587855Y1406955D02*
X592365Y1406955D01*
X592365Y1407895D02*
X587855Y1407895D01*
X587855Y1408835D02*
X592365Y1408835D01*
X592365Y1409775D02*
X587855Y1409775D01*
X587855Y1410715D02*
X592365Y1410715D01*
X592365Y1411655D02*
X587855Y1411655D01*
X587855Y1412595D02*
X592365Y1412595D01*
X592365Y1413535D02*
X587855Y1413535D01*
X587855Y1414475D02*
X592365Y1414475D01*
X592365Y1415415D02*
X587855Y1415415D01*
D14*
X561210Y1549350D02*
X556230Y1549350D01*
X561210Y1549350D02*
X561210Y1544370D01*
X556230Y1544370D01*
X556230Y1549350D01*
X556230Y1545339D02*
X561210Y1545339D01*
X561210Y1546308D02*
X556230Y1546308D01*
X556230Y1547277D02*
X561210Y1547277D01*
X561210Y1548246D02*
X556230Y1548246D01*
X556230Y1549215D02*
X561210Y1549215D01*
X551210Y1549350D02*
X546230Y1549350D01*
X551210Y1549350D02*
X551210Y1544370D01*
X546230Y1544370D01*
X546230Y1549350D01*
X546230Y1545339D02*
X551210Y1545339D01*
X551210Y1546308D02*
X546230Y1546308D01*
X546230Y1547277D02*
X551210Y1547277D01*
X551210Y1548246D02*
X546230Y1548246D01*
X546230Y1549215D02*
X551210Y1549215D01*
X556230Y1536650D02*
X561210Y1536650D01*
X561210Y1531670D01*
X556230Y1531670D01*
X556230Y1536650D01*
X556230Y1532639D02*
X561210Y1532639D01*
X561210Y1533608D02*
X556230Y1533608D01*
X556230Y1534577D02*
X561210Y1534577D01*
X561210Y1535546D02*
X556230Y1535546D01*
X556230Y1536515D02*
X561210Y1536515D01*
X551210Y1536650D02*
X546230Y1536650D01*
X551210Y1536650D02*
X551210Y1531670D01*
X546230Y1531670D01*
X546230Y1536650D01*
X546230Y1532639D02*
X551210Y1532639D01*
X551210Y1533608D02*
X546230Y1533608D01*
X546230Y1534577D02*
X551210Y1534577D01*
X551210Y1535546D02*
X546230Y1535546D01*
X546230Y1536515D02*
X551210Y1536515D01*
X566550Y1582470D02*
X571530Y1582470D01*
X566550Y1582470D02*
X566550Y1587450D01*
X571530Y1587450D01*
X571530Y1582470D01*
X571530Y1583439D02*
X566550Y1583439D01*
X566550Y1584408D02*
X571530Y1584408D01*
X571530Y1585377D02*
X566550Y1585377D01*
X566550Y1586346D02*
X571530Y1586346D01*
X571530Y1587315D02*
X566550Y1587315D01*
X576550Y1582470D02*
X581530Y1582470D01*
X576550Y1582470D02*
X576550Y1587450D01*
X581530Y1587450D01*
X581530Y1582470D01*
X581530Y1583439D02*
X576550Y1583439D01*
X576550Y1584408D02*
X581530Y1584408D01*
X581530Y1585377D02*
X576550Y1585377D01*
X576550Y1586346D02*
X581530Y1586346D01*
X581530Y1587315D02*
X576550Y1587315D01*
X561210Y1511250D02*
X556230Y1511250D01*
X561210Y1511250D02*
X561210Y1506270D01*
X556230Y1506270D01*
X556230Y1511250D01*
X556230Y1507239D02*
X561210Y1507239D01*
X561210Y1508208D02*
X556230Y1508208D01*
X556230Y1509177D02*
X561210Y1509177D01*
X561210Y1510146D02*
X556230Y1510146D01*
X556230Y1511115D02*
X561210Y1511115D01*
X551210Y1511250D02*
X546230Y1511250D01*
X551210Y1511250D02*
X551210Y1506270D01*
X546230Y1506270D01*
X546230Y1511250D01*
X546230Y1507239D02*
X551210Y1507239D01*
X551210Y1508208D02*
X546230Y1508208D01*
X546230Y1509177D02*
X551210Y1509177D01*
X551210Y1510146D02*
X546230Y1510146D01*
X546230Y1511115D02*
X551210Y1511115D01*
X556230Y1523950D02*
X561210Y1523950D01*
X561210Y1518970D01*
X556230Y1518970D01*
X556230Y1523950D01*
X556230Y1519939D02*
X561210Y1519939D01*
X561210Y1520908D02*
X556230Y1520908D01*
X556230Y1521877D02*
X561210Y1521877D01*
X561210Y1522846D02*
X556230Y1522846D01*
X556230Y1523815D02*
X561210Y1523815D01*
X551210Y1523950D02*
X546230Y1523950D01*
X551210Y1523950D02*
X551210Y1518970D01*
X546230Y1518970D01*
X546230Y1523950D01*
X546230Y1519939D02*
X551210Y1519939D01*
X551210Y1520908D02*
X546230Y1520908D01*
X546230Y1521877D02*
X551210Y1521877D01*
X551210Y1522846D02*
X546230Y1522846D01*
X546230Y1523815D02*
X551210Y1523815D01*
X556230Y1562050D02*
X561210Y1562050D01*
X561210Y1557070D01*
X556230Y1557070D01*
X556230Y1562050D01*
X556230Y1558039D02*
X561210Y1558039D01*
X561210Y1559008D02*
X556230Y1559008D01*
X556230Y1559977D02*
X561210Y1559977D01*
X561210Y1560946D02*
X556230Y1560946D01*
X556230Y1561915D02*
X561210Y1561915D01*
X551210Y1562050D02*
X546230Y1562050D01*
X551210Y1562050D02*
X551210Y1557070D01*
X546230Y1557070D01*
X546230Y1562050D01*
X546230Y1558039D02*
X551210Y1558039D01*
X551210Y1559008D02*
X546230Y1559008D01*
X546230Y1559977D02*
X551210Y1559977D01*
X551210Y1560946D02*
X546230Y1560946D01*
X546230Y1561915D02*
X551210Y1561915D01*
X574170Y1557070D02*
X579150Y1557070D01*
X574170Y1557070D02*
X574170Y1562050D01*
X579150Y1562050D01*
X579150Y1557070D01*
X579150Y1558039D02*
X574170Y1558039D01*
X574170Y1559008D02*
X579150Y1559008D01*
X579150Y1559977D02*
X574170Y1559977D01*
X574170Y1560946D02*
X579150Y1560946D01*
X579150Y1561915D02*
X574170Y1561915D01*
X584170Y1557070D02*
X589150Y1557070D01*
X584170Y1557070D02*
X584170Y1562050D01*
X589150Y1562050D01*
X589150Y1557070D01*
X589150Y1558039D02*
X584170Y1558039D01*
X584170Y1559008D02*
X589150Y1559008D01*
X589150Y1559977D02*
X584170Y1559977D01*
X584170Y1560946D02*
X589150Y1560946D01*
X589150Y1561915D02*
X584170Y1561915D01*
X561210Y1587450D02*
X556230Y1587450D01*
X561210Y1587450D02*
X561210Y1582470D01*
X556230Y1582470D01*
X556230Y1587450D01*
X556230Y1583439D02*
X561210Y1583439D01*
X561210Y1584408D02*
X556230Y1584408D01*
X556230Y1585377D02*
X561210Y1585377D01*
X561210Y1586346D02*
X556230Y1586346D01*
X556230Y1587315D02*
X561210Y1587315D01*
X551210Y1587450D02*
X546230Y1587450D01*
X551210Y1587450D02*
X551210Y1582470D01*
X546230Y1582470D01*
X546230Y1587450D01*
X546230Y1583439D02*
X551210Y1583439D01*
X551210Y1584408D02*
X546230Y1584408D01*
X546230Y1585377D02*
X551210Y1585377D01*
X551210Y1586346D02*
X546230Y1586346D01*
X546230Y1587315D02*
X551210Y1587315D01*
X556230Y1574750D02*
X561210Y1574750D01*
X561210Y1569770D01*
X556230Y1569770D01*
X556230Y1574750D01*
X556230Y1570739D02*
X561210Y1570739D01*
X561210Y1571708D02*
X556230Y1571708D01*
X556230Y1572677D02*
X561210Y1572677D01*
X561210Y1573646D02*
X556230Y1573646D01*
X556230Y1574615D02*
X561210Y1574615D01*
X551210Y1574750D02*
X546230Y1574750D01*
X551210Y1574750D02*
X551210Y1569770D01*
X546230Y1569770D01*
X546230Y1574750D01*
X546230Y1570739D02*
X551210Y1570739D01*
X551210Y1571708D02*
X546230Y1571708D01*
X546230Y1572677D02*
X551210Y1572677D01*
X551210Y1573646D02*
X546230Y1573646D01*
X546230Y1574615D02*
X551210Y1574615D01*
D10*
X631610Y1608860D02*
X634610Y1608860D01*
X631610Y1608860D02*
X631610Y1611860D01*
X634610Y1611860D01*
X634610Y1608860D01*
X634610Y1609810D02*
X631610Y1609810D01*
X631610Y1610760D02*
X634610Y1610760D01*
X634610Y1611710D02*
X631610Y1611710D01*
X620610Y1608860D02*
X617610Y1608860D01*
X617610Y1611860D01*
X620610Y1611860D01*
X620610Y1608860D01*
X620610Y1609810D02*
X617610Y1609810D01*
X617610Y1610760D02*
X620610Y1610760D01*
X620610Y1611710D02*
X617610Y1611710D01*
D14*
X641320Y1689050D02*
X646300Y1689050D01*
X646300Y1684070D01*
X641320Y1684070D01*
X641320Y1689050D01*
X641320Y1685039D02*
X646300Y1685039D01*
X646300Y1686008D02*
X641320Y1686008D01*
X641320Y1686977D02*
X646300Y1686977D01*
X646300Y1687946D02*
X641320Y1687946D01*
X641320Y1688915D02*
X646300Y1688915D01*
X636300Y1689050D02*
X631320Y1689050D01*
X636300Y1689050D02*
X636300Y1684070D01*
X631320Y1684070D01*
X631320Y1689050D01*
X631320Y1685039D02*
X636300Y1685039D01*
X636300Y1686008D02*
X631320Y1686008D01*
X631320Y1686977D02*
X636300Y1686977D01*
X636300Y1687946D02*
X631320Y1687946D01*
X631320Y1688915D02*
X636300Y1688915D01*
D10*
X746940Y1415260D02*
X755940Y1415260D01*
X746940Y1415260D02*
X746940Y1419260D01*
X755940Y1419260D01*
X755940Y1415260D01*
X755940Y1416210D02*
X746940Y1416210D01*
X746940Y1417160D02*
X755940Y1417160D01*
X755940Y1418110D02*
X746940Y1418110D01*
X746940Y1419060D02*
X755940Y1419060D01*
X755940Y1404260D02*
X746940Y1404260D01*
X746940Y1408260D01*
X755940Y1408260D01*
X755940Y1404260D01*
X755940Y1405210D02*
X746940Y1405210D01*
X746940Y1406160D02*
X755940Y1406160D01*
X755940Y1407110D02*
X746940Y1407110D01*
X746940Y1408060D02*
X755940Y1408060D01*
X755940Y1393260D02*
X746940Y1393260D01*
X746940Y1397260D01*
X755940Y1397260D01*
X755940Y1393260D01*
X755940Y1394210D02*
X746940Y1394210D01*
X746940Y1395160D02*
X755940Y1395160D01*
X755940Y1396110D02*
X746940Y1396110D01*
X746940Y1397060D02*
X755940Y1397060D01*
X755940Y1382260D02*
X746940Y1382260D01*
X746940Y1386260D01*
X755940Y1386260D01*
X755940Y1382260D01*
X755940Y1383210D02*
X746940Y1383210D01*
X746940Y1384160D02*
X755940Y1384160D01*
X755940Y1385110D02*
X746940Y1385110D01*
X746940Y1386060D02*
X755940Y1386060D01*
X755940Y1371260D02*
X746940Y1371260D01*
X746940Y1375260D01*
X755940Y1375260D01*
X755940Y1371260D01*
X755940Y1372210D02*
X746940Y1372210D01*
X746940Y1373160D02*
X755940Y1373160D01*
X755940Y1374110D02*
X746940Y1374110D01*
X746940Y1375060D02*
X755940Y1375060D01*
X755940Y1360260D02*
X746940Y1360260D01*
X746940Y1364260D01*
X755940Y1364260D01*
X755940Y1360260D01*
X755940Y1361210D02*
X746940Y1361210D01*
X746940Y1362160D02*
X755940Y1362160D01*
X755940Y1363110D02*
X746940Y1363110D01*
X746940Y1364060D02*
X755940Y1364060D01*
X755940Y1349260D02*
X746940Y1349260D01*
X746940Y1353260D01*
X755940Y1353260D01*
X755940Y1349260D01*
X755940Y1350210D02*
X746940Y1350210D01*
X746940Y1351160D02*
X755940Y1351160D01*
X755940Y1352110D02*
X746940Y1352110D01*
X746940Y1353060D02*
X755940Y1353060D01*
X755940Y1338260D02*
X746940Y1338260D01*
X746940Y1342260D01*
X755940Y1342260D01*
X755940Y1338260D01*
X755940Y1339210D02*
X746940Y1339210D01*
X746940Y1340160D02*
X755940Y1340160D01*
X755940Y1341110D02*
X746940Y1341110D01*
X746940Y1342060D02*
X755940Y1342060D01*
D11*
X774844Y1432164D02*
X774844Y1438356D01*
X781636Y1438356D01*
X781636Y1432164D01*
X774844Y1432164D01*
X774844Y1433122D02*
X781636Y1433122D01*
X781636Y1434080D02*
X774844Y1434080D01*
X774844Y1435038D02*
X781636Y1435038D01*
X781636Y1435996D02*
X774844Y1435996D01*
X774844Y1436954D02*
X781636Y1436954D01*
X781636Y1437912D02*
X774844Y1437912D01*
D12*
X786065Y1430535D02*
X795815Y1430535D01*
X786065Y1430535D02*
X786065Y1439985D01*
X795815Y1439985D01*
X795815Y1430535D01*
X795815Y1431532D02*
X786065Y1431532D01*
X786065Y1432529D02*
X795815Y1432529D01*
X795815Y1433526D02*
X786065Y1433526D01*
X786065Y1434523D02*
X795815Y1434523D01*
X795815Y1435520D02*
X786065Y1435520D01*
X786065Y1436517D02*
X795815Y1436517D01*
X795815Y1437514D02*
X786065Y1437514D01*
X786065Y1438511D02*
X795815Y1438511D01*
X795815Y1439508D02*
X786065Y1439508D01*
X811565Y1430535D02*
X822515Y1430535D01*
X811565Y1430535D02*
X811565Y1439985D01*
X822515Y1439985D01*
X822515Y1430535D01*
X822515Y1431532D02*
X811565Y1431532D01*
X811565Y1432529D02*
X822515Y1432529D01*
X822515Y1433526D02*
X811565Y1433526D01*
X811565Y1434523D02*
X822515Y1434523D01*
X822515Y1435520D02*
X811565Y1435520D01*
X811565Y1436517D02*
X822515Y1436517D01*
X822515Y1437514D02*
X811565Y1437514D01*
X811565Y1438511D02*
X822515Y1438511D01*
X822515Y1439508D02*
X811565Y1439508D01*
X816815Y1323785D02*
X805865Y1323785D01*
X805865Y1333235D01*
X816815Y1333235D01*
X816815Y1323785D01*
X816815Y1324782D02*
X805865Y1324782D01*
X805865Y1325779D02*
X816815Y1325779D01*
X816815Y1326776D02*
X805865Y1326776D01*
X805865Y1327773D02*
X816815Y1327773D01*
X816815Y1328770D02*
X805865Y1328770D01*
X805865Y1329767D02*
X816815Y1329767D01*
X816815Y1330764D02*
X805865Y1330764D01*
X805865Y1331761D02*
X816815Y1331761D01*
X816815Y1332758D02*
X805865Y1332758D01*
X790915Y1323785D02*
X768065Y1323785D01*
X768065Y1333235D01*
X790915Y1333235D01*
X790915Y1323785D01*
X790915Y1324782D02*
X768065Y1324782D01*
X768065Y1325779D02*
X790915Y1325779D01*
X790915Y1326776D02*
X768065Y1326776D01*
X768065Y1327773D02*
X790915Y1327773D01*
X790915Y1328770D02*
X768065Y1328770D01*
X768065Y1329767D02*
X790915Y1329767D01*
X790915Y1330764D02*
X768065Y1330764D01*
X768065Y1331761D02*
X790915Y1331761D01*
X790915Y1332758D02*
X768065Y1332758D01*
D13*
X826045Y1346255D02*
X826045Y1374365D01*
X826045Y1346255D02*
X821535Y1346255D01*
X821535Y1374365D01*
X826045Y1374365D01*
X826045Y1347195D02*
X821535Y1347195D01*
X821535Y1348135D02*
X826045Y1348135D01*
X826045Y1349075D02*
X821535Y1349075D01*
X821535Y1350015D02*
X826045Y1350015D01*
X826045Y1350955D02*
X821535Y1350955D01*
X821535Y1351895D02*
X826045Y1351895D01*
X826045Y1352835D02*
X821535Y1352835D01*
X821535Y1353775D02*
X826045Y1353775D01*
X826045Y1354715D02*
X821535Y1354715D01*
X821535Y1355655D02*
X826045Y1355655D01*
X826045Y1356595D02*
X821535Y1356595D01*
X821535Y1357535D02*
X826045Y1357535D01*
X826045Y1358475D02*
X821535Y1358475D01*
X821535Y1359415D02*
X826045Y1359415D01*
X826045Y1360355D02*
X821535Y1360355D01*
X821535Y1361295D02*
X826045Y1361295D01*
X826045Y1362235D02*
X821535Y1362235D01*
X821535Y1363175D02*
X826045Y1363175D01*
X826045Y1364115D02*
X821535Y1364115D01*
X821535Y1365055D02*
X826045Y1365055D01*
X826045Y1365995D02*
X821535Y1365995D01*
X821535Y1366935D02*
X826045Y1366935D01*
X826045Y1367875D02*
X821535Y1367875D01*
X821535Y1368815D02*
X826045Y1368815D01*
X826045Y1369755D02*
X821535Y1369755D01*
X821535Y1370695D02*
X826045Y1370695D01*
X826045Y1371635D02*
X821535Y1371635D01*
X821535Y1372575D02*
X826045Y1372575D01*
X826045Y1373515D02*
X821535Y1373515D01*
X826045Y1388155D02*
X826045Y1416265D01*
X826045Y1388155D02*
X821535Y1388155D01*
X821535Y1416265D01*
X826045Y1416265D01*
X826045Y1389095D02*
X821535Y1389095D01*
X821535Y1390035D02*
X826045Y1390035D01*
X826045Y1390975D02*
X821535Y1390975D01*
X821535Y1391915D02*
X826045Y1391915D01*
X826045Y1392855D02*
X821535Y1392855D01*
X821535Y1393795D02*
X826045Y1393795D01*
X826045Y1394735D02*
X821535Y1394735D01*
X821535Y1395675D02*
X826045Y1395675D01*
X826045Y1396615D02*
X821535Y1396615D01*
X821535Y1397555D02*
X826045Y1397555D01*
X826045Y1398495D02*
X821535Y1398495D01*
X821535Y1399435D02*
X826045Y1399435D01*
X826045Y1400375D02*
X821535Y1400375D01*
X821535Y1401315D02*
X826045Y1401315D01*
X826045Y1402255D02*
X821535Y1402255D01*
X821535Y1403195D02*
X826045Y1403195D01*
X826045Y1404135D02*
X821535Y1404135D01*
X821535Y1405075D02*
X826045Y1405075D01*
X826045Y1406015D02*
X821535Y1406015D01*
X821535Y1406955D02*
X826045Y1406955D01*
X826045Y1407895D02*
X821535Y1407895D01*
X821535Y1408835D02*
X826045Y1408835D01*
X826045Y1409775D02*
X821535Y1409775D01*
X821535Y1410715D02*
X826045Y1410715D01*
X826045Y1411655D02*
X821535Y1411655D01*
X821535Y1412595D02*
X826045Y1412595D01*
X826045Y1413535D02*
X821535Y1413535D01*
X821535Y1414475D02*
X826045Y1414475D01*
X826045Y1415415D02*
X821535Y1415415D01*
D14*
X794890Y1549350D02*
X789910Y1549350D01*
X794890Y1549350D02*
X794890Y1544370D01*
X789910Y1544370D01*
X789910Y1549350D01*
X789910Y1545339D02*
X794890Y1545339D01*
X794890Y1546308D02*
X789910Y1546308D01*
X789910Y1547277D02*
X794890Y1547277D01*
X794890Y1548246D02*
X789910Y1548246D01*
X789910Y1549215D02*
X794890Y1549215D01*
X784890Y1549350D02*
X779910Y1549350D01*
X784890Y1549350D02*
X784890Y1544370D01*
X779910Y1544370D01*
X779910Y1549350D01*
X779910Y1545339D02*
X784890Y1545339D01*
X784890Y1546308D02*
X779910Y1546308D01*
X779910Y1547277D02*
X784890Y1547277D01*
X784890Y1548246D02*
X779910Y1548246D01*
X779910Y1549215D02*
X784890Y1549215D01*
X789910Y1536650D02*
X794890Y1536650D01*
X794890Y1531670D01*
X789910Y1531670D01*
X789910Y1536650D01*
X789910Y1532639D02*
X794890Y1532639D01*
X794890Y1533608D02*
X789910Y1533608D01*
X789910Y1534577D02*
X794890Y1534577D01*
X794890Y1535546D02*
X789910Y1535546D01*
X789910Y1536515D02*
X794890Y1536515D01*
X784890Y1536650D02*
X779910Y1536650D01*
X784890Y1536650D02*
X784890Y1531670D01*
X779910Y1531670D01*
X779910Y1536650D01*
X779910Y1532639D02*
X784890Y1532639D01*
X784890Y1533608D02*
X779910Y1533608D01*
X779910Y1534577D02*
X784890Y1534577D01*
X784890Y1535546D02*
X779910Y1535546D01*
X779910Y1536515D02*
X784890Y1536515D01*
X800230Y1582470D02*
X805210Y1582470D01*
X800230Y1582470D02*
X800230Y1587450D01*
X805210Y1587450D01*
X805210Y1582470D01*
X805210Y1583439D02*
X800230Y1583439D01*
X800230Y1584408D02*
X805210Y1584408D01*
X805210Y1585377D02*
X800230Y1585377D01*
X800230Y1586346D02*
X805210Y1586346D01*
X805210Y1587315D02*
X800230Y1587315D01*
X810230Y1582470D02*
X815210Y1582470D01*
X810230Y1582470D02*
X810230Y1587450D01*
X815210Y1587450D01*
X815210Y1582470D01*
X815210Y1583439D02*
X810230Y1583439D01*
X810230Y1584408D02*
X815210Y1584408D01*
X815210Y1585377D02*
X810230Y1585377D01*
X810230Y1586346D02*
X815210Y1586346D01*
X815210Y1587315D02*
X810230Y1587315D01*
X794890Y1511250D02*
X789910Y1511250D01*
X794890Y1511250D02*
X794890Y1506270D01*
X789910Y1506270D01*
X789910Y1511250D01*
X789910Y1507239D02*
X794890Y1507239D01*
X794890Y1508208D02*
X789910Y1508208D01*
X789910Y1509177D02*
X794890Y1509177D01*
X794890Y1510146D02*
X789910Y1510146D01*
X789910Y1511115D02*
X794890Y1511115D01*
X784890Y1511250D02*
X779910Y1511250D01*
X784890Y1511250D02*
X784890Y1506270D01*
X779910Y1506270D01*
X779910Y1511250D01*
X779910Y1507239D02*
X784890Y1507239D01*
X784890Y1508208D02*
X779910Y1508208D01*
X779910Y1509177D02*
X784890Y1509177D01*
X784890Y1510146D02*
X779910Y1510146D01*
X779910Y1511115D02*
X784890Y1511115D01*
X789910Y1523950D02*
X794890Y1523950D01*
X794890Y1518970D01*
X789910Y1518970D01*
X789910Y1523950D01*
X789910Y1519939D02*
X794890Y1519939D01*
X794890Y1520908D02*
X789910Y1520908D01*
X789910Y1521877D02*
X794890Y1521877D01*
X794890Y1522846D02*
X789910Y1522846D01*
X789910Y1523815D02*
X794890Y1523815D01*
X784890Y1523950D02*
X779910Y1523950D01*
X784890Y1523950D02*
X784890Y1518970D01*
X779910Y1518970D01*
X779910Y1523950D01*
X779910Y1519939D02*
X784890Y1519939D01*
X784890Y1520908D02*
X779910Y1520908D01*
X779910Y1521877D02*
X784890Y1521877D01*
X784890Y1522846D02*
X779910Y1522846D01*
X779910Y1523815D02*
X784890Y1523815D01*
X789910Y1562050D02*
X794890Y1562050D01*
X794890Y1557070D01*
X789910Y1557070D01*
X789910Y1562050D01*
X789910Y1558039D02*
X794890Y1558039D01*
X794890Y1559008D02*
X789910Y1559008D01*
X789910Y1559977D02*
X794890Y1559977D01*
X794890Y1560946D02*
X789910Y1560946D01*
X789910Y1561915D02*
X794890Y1561915D01*
X784890Y1562050D02*
X779910Y1562050D01*
X784890Y1562050D02*
X784890Y1557070D01*
X779910Y1557070D01*
X779910Y1562050D01*
X779910Y1558039D02*
X784890Y1558039D01*
X784890Y1559008D02*
X779910Y1559008D01*
X779910Y1559977D02*
X784890Y1559977D01*
X784890Y1560946D02*
X779910Y1560946D01*
X779910Y1561915D02*
X784890Y1561915D01*
X807850Y1557070D02*
X812830Y1557070D01*
X807850Y1557070D02*
X807850Y1562050D01*
X812830Y1562050D01*
X812830Y1557070D01*
X812830Y1558039D02*
X807850Y1558039D01*
X807850Y1559008D02*
X812830Y1559008D01*
X812830Y1559977D02*
X807850Y1559977D01*
X807850Y1560946D02*
X812830Y1560946D01*
X812830Y1561915D02*
X807850Y1561915D01*
X817850Y1557070D02*
X822830Y1557070D01*
X817850Y1557070D02*
X817850Y1562050D01*
X822830Y1562050D01*
X822830Y1557070D01*
X822830Y1558039D02*
X817850Y1558039D01*
X817850Y1559008D02*
X822830Y1559008D01*
X822830Y1559977D02*
X817850Y1559977D01*
X817850Y1560946D02*
X822830Y1560946D01*
X822830Y1561915D02*
X817850Y1561915D01*
X794890Y1587450D02*
X789910Y1587450D01*
X794890Y1587450D02*
X794890Y1582470D01*
X789910Y1582470D01*
X789910Y1587450D01*
X789910Y1583439D02*
X794890Y1583439D01*
X794890Y1584408D02*
X789910Y1584408D01*
X789910Y1585377D02*
X794890Y1585377D01*
X794890Y1586346D02*
X789910Y1586346D01*
X789910Y1587315D02*
X794890Y1587315D01*
X784890Y1587450D02*
X779910Y1587450D01*
X784890Y1587450D02*
X784890Y1582470D01*
X779910Y1582470D01*
X779910Y1587450D01*
X779910Y1583439D02*
X784890Y1583439D01*
X784890Y1584408D02*
X779910Y1584408D01*
X779910Y1585377D02*
X784890Y1585377D01*
X784890Y1586346D02*
X779910Y1586346D01*
X779910Y1587315D02*
X784890Y1587315D01*
X789910Y1574750D02*
X794890Y1574750D01*
X794890Y1569770D01*
X789910Y1569770D01*
X789910Y1574750D01*
X789910Y1570739D02*
X794890Y1570739D01*
X794890Y1571708D02*
X789910Y1571708D01*
X789910Y1572677D02*
X794890Y1572677D01*
X794890Y1573646D02*
X789910Y1573646D01*
X789910Y1574615D02*
X794890Y1574615D01*
X784890Y1574750D02*
X779910Y1574750D01*
X784890Y1574750D02*
X784890Y1569770D01*
X779910Y1569770D01*
X779910Y1574750D01*
X779910Y1570739D02*
X784890Y1570739D01*
X784890Y1571708D02*
X779910Y1571708D01*
X779910Y1572677D02*
X784890Y1572677D01*
X784890Y1573646D02*
X779910Y1573646D01*
X779910Y1574615D02*
X784890Y1574615D01*
D10*
X865290Y1608860D02*
X868290Y1608860D01*
X865290Y1608860D02*
X865290Y1611860D01*
X868290Y1611860D01*
X868290Y1608860D01*
X868290Y1609810D02*
X865290Y1609810D01*
X865290Y1610760D02*
X868290Y1610760D01*
X868290Y1611710D02*
X865290Y1611710D01*
X854290Y1608860D02*
X851290Y1608860D01*
X851290Y1611860D01*
X854290Y1611860D01*
X854290Y1608860D01*
X854290Y1609810D02*
X851290Y1609810D01*
X851290Y1610760D02*
X854290Y1610760D01*
X854290Y1611710D02*
X851290Y1611710D01*
D14*
X875000Y1689050D02*
X879980Y1689050D01*
X879980Y1684070D01*
X875000Y1684070D01*
X875000Y1689050D01*
X875000Y1685039D02*
X879980Y1685039D01*
X879980Y1686008D02*
X875000Y1686008D01*
X875000Y1686977D02*
X879980Y1686977D01*
X879980Y1687946D02*
X875000Y1687946D01*
X875000Y1688915D02*
X879980Y1688915D01*
X869980Y1689050D02*
X865000Y1689050D01*
X869980Y1689050D02*
X869980Y1684070D01*
X865000Y1684070D01*
X865000Y1689050D01*
X865000Y1685039D02*
X869980Y1685039D01*
X869980Y1686008D02*
X865000Y1686008D01*
X865000Y1686977D02*
X869980Y1686977D01*
X869980Y1687946D02*
X865000Y1687946D01*
X865000Y1688915D02*
X869980Y1688915D01*
M02*
