M48
;GenerationSoftware,Autodesk,EAGLE,9.6.2*%
;CreationDate,2022-09-09T21:34:36Z*%
FMAT,2
ICI,OFF
METRIC,TZ,000.000
T5C0.305
T4C0.432
T3C0.650
T2C1.016
T1C3.302
%
G90
M71
T1
X49276Y125476
X67056Y125476
X2540Y2540
X20320Y2540
X49276Y64008
X67056Y64008
X25908Y2540
X43688Y2540
X25908Y125476
X43688Y125476
X49276Y2540
X67056Y2540
X72644Y64008
X90424Y64008
X72644Y2540
X90424Y2540
X72644Y125476
X90424Y125476
X2540Y64008
X20320Y64008
X2540Y125476
X20320Y125476
X25908Y64008
X43688Y64008
T2
X1270Y24130
X44958Y10795
X44958Y136906
X24638Y147066
X24638Y149606
X24638Y152146
X24638Y154686
X24638Y157226
X24638Y159766
X24638Y162306
X24638Y164846
X24638Y167386
X24638Y169926
X24638Y172466
X24638Y175006
X44958Y133731
X42418Y133731
X68326Y175006
X68326Y172466
X68326Y169926
X68326Y167386
X68326Y164846
X68326Y162306
X68326Y159766
X68326Y157226
X68326Y154686
X21590Y52070
X21590Y49530
X21590Y46990
X21590Y44450
X21590Y41910
X21590Y39370
X21590Y36830
X21590Y34290
X21590Y31750
X21590Y29210
X21590Y26670
X21590Y24130
X21590Y21590
X21590Y19050
X21590Y16510
X21590Y13970
X68326Y44450
X1270Y26670
X1270Y29210
X1270Y31750
X1270Y34290
X1270Y36830
X1270Y39370
X1270Y41910
X1270Y44450
X1270Y46990
X1270Y49530
X1270Y52070
X21590Y10795
X19050Y10795
X68326Y152146
X68326Y149606
X68326Y147066
X68326Y144526
X68326Y141986
X68326Y139446
X68326Y136906
X48006Y147066
X48006Y149606
X48006Y152146
X44958Y52070
X44958Y49530
X44958Y46990
X44958Y44450
X44958Y41910
X44958Y39370
X44958Y36830
X44958Y34290
X44958Y31750
X44958Y29210
X44958Y26670
X44958Y24130
X44958Y21590
X44958Y19050
X44958Y16510
X44958Y13970
X24638Y24130
X24638Y26670
X24638Y29210
X24638Y31750
X24638Y34290
X24638Y36830
X24638Y39370
X24638Y41910
X24638Y44450
X24638Y46990
X24638Y49530
X24638Y52070
X42418Y10795
X48006Y154686
X48006Y157226
X48006Y159766
X48006Y162306
X48006Y164846
X48006Y167386
X48006Y169926
X48006Y172466
X48006Y175006
X68326Y133731
X68326Y52070
X68326Y49530
X68326Y46990
X65786Y133731
X68326Y41910
X68326Y39370
X68326Y36830
X68326Y34290
X68326Y31750
X68326Y29210
X68326Y26670
X68326Y24130
X68326Y21590
X68326Y19050
X68326Y16510
X68326Y13970
X48006Y24130
X48006Y26670
X48006Y29210
X48006Y31750
X48006Y34290
X48006Y36830
X48006Y39370
X48006Y41910
X48006Y44450
X48006Y46990
X48006Y49530
X48006Y52070
X68326Y10795
X65786Y10795
X91694Y175006
X91694Y172466
X91694Y169926
X91694Y167386
X91694Y164846
X91694Y162306
X91694Y159766
X91694Y157226
X91694Y154686
X91694Y152146
X91694Y52070
X91694Y49530
X91694Y46990
X91694Y44450
X91694Y41910
X91694Y39370
X91694Y36830
X91694Y34290
X91694Y31750
X91694Y29210
X91694Y26670
X91694Y24130
X91694Y21590
X91694Y19050
X91694Y16510
X91694Y13970
X71374Y24130
X71374Y26670
X71374Y29210
X71374Y31750
X71374Y34290
X71374Y36830
X71374Y39370
X71374Y41910
X71374Y44450
X71374Y46990
X71374Y49530
X71374Y52070
X91694Y10795
X89154Y10795
X91694Y149606
X91694Y147066
X91694Y144526
X91694Y141986
X91694Y139446
X91694Y136906
X71374Y147066
X71374Y149606
X71374Y152146
X71374Y154686
X21590Y113538
X21590Y110998
X21590Y108458
X21590Y105918
X21590Y103378
X21590Y100838
X21590Y98298
X21590Y95758
X21590Y93218
X21590Y90678
X21590Y88138
X21590Y85598
X21590Y83058
X21590Y80518
X21590Y77978
X21590Y75438
X1270Y85598
X1270Y88138
X1270Y90678
X1270Y93218
X1270Y95758
X1270Y98298
X1270Y100838
X1270Y103378
X1270Y105918
X1270Y108458
X1270Y110998
X1270Y113538
X21590Y72263
X19050Y72263
X71374Y157226
X71374Y159766
X71374Y162306
X71374Y164846
X71374Y167386
X71374Y169926
X71374Y172466
X71374Y175006
X91694Y133731
X89154Y133731
X44958Y113538
X44958Y110998
X44958Y108458
X44958Y105918
X44958Y103378
X44958Y100838
X44958Y98298
X44958Y95758
X44958Y93218
X44958Y90678
X44958Y88138
X44958Y85598
X44958Y83058
X44958Y80518
X44958Y77978
X44958Y75438
X24638Y85598
X24638Y88138
X24638Y90678
X24638Y93218
X24638Y95758
X24638Y98298
X24638Y100838
X24638Y103378
X24638Y105918
X24638Y108458
X24638Y110998
X24638Y113538
X44958Y72263
X42418Y72263
X68326Y113538
X68326Y110998
X68326Y108458
X68326Y105918
X68326Y103378
X68326Y100838
X68326Y98298
X68326Y95758
X68326Y93218
X68326Y90678
X68326Y88138
X68326Y85598
X68326Y83058
X68326Y80518
X68326Y77978
X68326Y75438
X48006Y85598
X48006Y88138
X48006Y90678
X48006Y93218
X48006Y95758
X48006Y98298
X48006Y100838
X48006Y103378
X48006Y105918
X48006Y108458
X48006Y110998
X48006Y113538
X68326Y72263
X65786Y72263
X91694Y113538
X91694Y110998
X91694Y108458
X91694Y105918
X91694Y103378
X91694Y100838
X91694Y98298
X91694Y95758
X91694Y93218
X91694Y90678
X91694Y88138
X91694Y85598
X91694Y83058
X91694Y80518
X91694Y77978
X91694Y75438
X71374Y85598
X71374Y88138
X71374Y90678
X71374Y93218
X71374Y95758
X71374Y98298
X71374Y100838
X71374Y103378
X71374Y105918
X71374Y108458
X71374Y110998
X71374Y113538
X91694Y72263
X89154Y72263
X21590Y175006
X21590Y172466
X21590Y169926
X21590Y167386
X21590Y164846
X21590Y162306
X21590Y159766
X21590Y157226
X21590Y154686
X21590Y152146
X21590Y149606
X21590Y147066
X21590Y144526
X21590Y141986
X21590Y139446
X21590Y136906
X1270Y147066
X1270Y149606
X1270Y152146
X1270Y154686
X1270Y157226
X1270Y159766
X1270Y162306
X1270Y164846
X1270Y167386
X1270Y169926
X1270Y172466
X1270Y175006
X21590Y133731
X19050Y133731
X44958Y175006
X44958Y172466
X44958Y169926
X44958Y167386
X44958Y164846
X44958Y162306
X44958Y159766
X44958Y157226
X44958Y154686
X44958Y152146
X44958Y149606
X44958Y147066
X44958Y144526
X44958Y141986
X44958Y139446
T3
X8540Y4905
X14320Y4905
X31908Y4905
X37688Y4905
X55276Y4905
X61056Y4905
X78644Y4905
X84424Y4905
X8540Y66373
X14320Y66373
X31908Y66373
X37688Y66373
X55276Y66373
X61056Y66373
X78644Y66373
X84424Y66373
X8540Y127841
X14320Y127841
X31908Y127841
X37688Y127841
X55276Y127841
X61056Y127841
X78644Y127841
X84424Y127841
T4
X8890Y39370
X8890Y40640
X10160Y39370
X10160Y40640
X11430Y39370
X11430Y40640
X12700Y39370
X12700Y40640
X13970Y39370
X13970Y40640
X32258Y39370
X32258Y40640
X33528Y39370
X33528Y40640
X34798Y39370
X34798Y40640
X36068Y39370
X36068Y40640
X37338Y39370
X37338Y40640
X84074Y163576
X55626Y39370
X55626Y40640
X56896Y39370
X56896Y40640
X58166Y39370
X58166Y40640
X59436Y39370
X59436Y40640
X60706Y39370
X60706Y40640
X78994Y39370
X78994Y40640
X80264Y39370
X80264Y40640
X81534Y39370
X81534Y40640
X82804Y39370
X82804Y40640
X84074Y39370
X84074Y40640
X8890Y100838
X8890Y102108
X10160Y100838
X10160Y102108
X11430Y100838
X11430Y102108
X12700Y100838
X12700Y102108
X13970Y100838
X13970Y102108
X55626Y100838
X55626Y102108
X56896Y100838
X56896Y102108
X58166Y100838
X58166Y102108
X59436Y100838
X59436Y102108
X60706Y100838
X60706Y102108
X32258Y100838
X32258Y102108
X33528Y100838
X33528Y102108
X34798Y100838
X34798Y102108
X36068Y100838
X36068Y102108
X37338Y100838
X37338Y102108
X55626Y162306
X55626Y163576
X56896Y162306
X56896Y163576
X58166Y162306
X58166Y163576
X59436Y162306
X59436Y163576
X60706Y162306
X60706Y163576
X78994Y100838
X78994Y102108
X80264Y100838
X80264Y102108
X81534Y100838
X81534Y102108
X82804Y100838
X82804Y102108
X84074Y100838
X84074Y102108
X32258Y162306
X32258Y163576
X33528Y162306
X33528Y163576
X34798Y162306
X34798Y163576
X36068Y162306
X36068Y163576
X37338Y162306
X37338Y163576
X8890Y162306
X8890Y163576
X10160Y162306
X10160Y163576
X11430Y162306
X11430Y163576
X12700Y162306
X12700Y163576
X13970Y162306
X13970Y163576
X78994Y162306
X78994Y163576
X80264Y162306
X80264Y163576
X81534Y162306
X81534Y163576
X82804Y162306
X82804Y163576
X84074Y162306
T5
X53594Y23368
X67818Y15240
X50292Y22606
X48514Y25400
X48514Y27940
X47320Y19964
X47320Y15646
X47320Y12979
X47447Y4978
X56515Y9525
X65278Y9525
X64008Y4572
X49860Y19202
X50749Y16662
X54915Y19710
X50876Y6604
X54102Y33020
X53594Y35535
X54102Y30480
X52451Y23876
X58167Y6916
X51054Y37338
X65786Y27559
X65532Y25781
X61595Y40640
X57455Y31526
X56642Y33782
X57404Y34544
X59427Y33574
X59436Y32512
X65151Y30480
X59436Y20320
X65151Y34925
X56896Y22225
X52451Y31242
X56642Y25908
X60706Y29210
X59690Y25908
X62738Y27178
X57150Y36551
X60706Y36830
X55753Y36576
X57175Y29362
X62408Y35433
X62853Y31127
X51054Y48090
X51054Y47090
X52578Y43688
X63754Y43688
X58166Y53086
X56896Y53086
X55626Y53086
X59436Y53086
X60706Y53086
X49911Y27940
X50038Y33020
X50038Y40640
X48768Y19685
X48768Y15875
X48768Y12700
X51816Y19685
X60325Y24765
X55372Y24765
X55372Y23749
X59436Y23749
X51054Y27940
X51054Y35535
X67818Y25400
X47371Y8890
X64262Y20955
X64770Y23368
X61214Y19050
X50546Y9398
X54610Y42418
X50762Y15621
X50190Y6807
X54229Y27305
X58598Y31547
X63881Y36195
X56693Y34493
X56896Y28702
X56693Y33071
X58166Y33782
X53721Y29845
X53721Y28575
X60833Y27686
X62611Y19050
X61976Y19050
X65151Y31750
X58166Y8966
X62357Y30480
X57201Y4064
X59134Y4064
X58166Y4055
X56540Y4724
X59793Y4723
X57765Y10922
X59075Y10184
X54229Y19710
X61468Y2159
X56261Y21590
X61595Y21590
X60071Y14605
X63500Y13843
X60452Y13843
X61976Y13843
X62992Y10541
X58417Y5053
X57417Y5080
X54991Y7620
X54991Y8890
X58420Y49530
X58974Y34128
X58448Y37026
X67056Y25654
X49657Y7366
X49657Y8636
X52980Y9779
X53213Y10795
X55880Y46379
X61987Y46112
X56413Y47422
X62230Y47244
X61976Y52473
X59436Y38608
X60236Y19050
X64516Y22352
X57404Y48514
X58420Y34544
X57686Y37026
X59436Y50546
X59284Y31526
X62484Y31750
X58057Y32291
X61976Y32385
X50800Y17780
X50038Y19939
X50800Y25400
X51491Y41204
X50038Y6096
X61468Y48514
X55327Y37211
X60452Y49530
X54146Y35008
X61722Y36119
X61722Y35433
X64986Y36195
X63881Y33655
X61976Y34290
X63881Y34925
X59660Y34260
X63881Y32385
X56649Y31693
X59436Y29515
X57658Y28829
X58380Y28829
X59182Y28829
X57148Y32189
X62661Y27940
X59182Y36957
X63881Y31115
X62738Y38862
X82296Y50038
X81280Y49022
X83312Y50038
X84328Y49022
X80264Y48006
X85344Y48006
X77343Y49085
X77343Y50101
X85725Y50101
X77343Y51117
X77343Y53149
X85725Y53149
X77343Y48069
X80264Y46863
X84963Y46863
X78994Y45720
X84709Y45720
X74168Y44640
X74168Y57594
X88900Y57594
X88900Y56578
X88900Y55562
X88900Y53530
X88773Y45021
X91186Y40640
X91186Y43180
X89027Y46482
X91186Y48260
X88646Y50101
X88646Y48082
X86360Y43053
X88646Y52133
X90297Y52387
X92329Y53276
X91694Y57150
X88646Y51117
X91186Y50800
X74422Y50101
X74422Y56070
X72644Y51498
X71374Y57150
X77216Y42799
X71882Y35560
X75184Y41910
X76454Y11811
X73914Y10414
X91186Y38100
X73660Y7874
X71882Y50800
X70739Y53276
X70688Y22885
X78867Y6985
X76073Y1270
X83566Y9144
X85090Y6985
X76962Y21717
X92329Y3810
X91821Y9017
X82448Y10947
X81128Y11938
X83642Y16129
X87376Y19050
X87503Y15240
X84709Y10541
X75692Y40640
X72517Y22479
X91186Y45720
X71882Y33020
X76962Y23368
X91186Y15240
X73660Y22606
X71882Y25400
X71882Y27940
X70688Y19964
X70688Y15646
X70688Y12979
X70815Y4978
X79883Y9525
X88646Y9525
X87376Y4572
X73228Y19202
X74117Y16662
X78283Y19710
X74244Y6604
X77470Y33020
X76962Y35535
X77470Y30480
X75819Y23876
X81535Y6916
X74422Y37338
X89154Y27559
X88900Y25781
X84963Y40640
X80823Y31526
X80010Y33782
X80772Y34544
X82795Y33574
X82804Y32512
X88519Y30480
X82804Y20320
X88519Y34925
X80264Y22225
X75819Y31242
X80010Y25908
X84074Y29210
X83058Y25908
X86106Y27178
X80518Y36551
X84074Y36830
X79121Y36576
X80543Y29362
X85776Y35433
X86221Y31127
X74422Y48090
X74422Y47090
X75946Y43688
X87122Y43688
X81534Y53086
X80264Y53086
X78994Y53086
X82804Y53086
X84074Y53086
X73279Y27940
X73406Y33020
X73406Y40640
X72136Y19685
X72136Y15875
X72136Y12700
X75184Y19685
X83693Y24765
X78740Y24765
X78740Y23749
X82804Y23749
X74422Y27940
X74422Y35535
X91186Y25400
X70739Y8890
X87630Y20955
X88138Y23368
X84582Y19050
X73914Y9398
X77978Y42418
X74130Y15621
X73558Y6807
X77597Y27305
X81966Y31547
X87249Y36195
X80061Y34493
X80264Y28702
X80061Y33071
X81534Y33782
X77089Y29845
X77089Y28575
X84201Y27686
X85979Y19050
X85344Y19050
X88519Y31750
X81534Y8966
X85725Y30480
X80569Y4064
X82502Y4064
X81534Y4055
X79908Y4724
X83161Y4723
X81133Y10922
X82443Y10184
X77597Y19710
X84836Y2159
X79629Y21590
X84963Y21590
X83439Y14605
X86868Y13843
X83820Y13843
X85344Y13843
X86360Y10541
X81785Y5053
X80785Y5080
X78359Y7620
X78359Y8890
X81788Y49530
X82342Y34128
X81816Y37026
X90424Y25654
X73025Y7366
X73025Y8636
X76348Y9779
X76581Y10795
X79248Y46379
X85355Y46112
X79781Y47422
X85598Y47244
X85344Y52473
X82804Y38608
X83604Y19050
X87884Y22352
X80772Y48514
X81788Y34544
X81054Y37026
X82804Y50546
X82652Y31526
X85852Y31750
X81425Y32291
X85344Y32385
X74168Y17780
X73406Y19939
X74168Y25400
X74859Y41204
X73406Y6096
X84836Y48514
X78695Y37211
X83820Y49530
X77514Y35008
X85090Y36119
X85090Y35433
X88354Y36195
X87249Y33655
X85344Y34290
X87249Y34925
X83028Y34260
X87249Y32385
X80017Y31693
X82804Y29515
X81026Y28829
X81748Y28829
X82550Y28829
X80516Y32189
X86029Y27940
X82550Y36957
X87249Y31115
X86106Y38862
X12192Y111506
X11176Y110490
X13208Y111506
X14224Y110490
X10160Y109474
X15240Y109474
X7239Y110553
X7239Y111569
X15621Y111569
X7239Y112585
X7239Y114617
X15621Y114617
X7239Y109537
X10160Y108331
X14859Y108331
X8890Y107188
X14605Y107188
X4064Y106108
X4064Y119062
X18796Y119062
X18796Y118046
X18796Y117030
X18796Y114998
X18669Y106489
X21082Y102108
X21082Y104648
X18923Y107950
X21082Y109728
X18542Y111569
X18542Y109550
X16256Y104521
X18542Y113601
X20193Y113855
X22225Y114744
X21590Y118618
X18542Y112585
X21082Y112268
X4318Y111569
X4318Y117538
X2540Y112966
X1270Y118618
X7112Y104267
X1778Y97028
X5080Y103378
X6350Y73279
X3810Y71882
X21082Y99568
X3556Y69342
X1778Y112268
X635Y114744
X584Y84353
X8763Y68453
X5969Y62738
X13462Y70612
X14986Y68453
X6858Y83185
X22225Y65278
X21717Y70485
X12344Y72415
X11024Y73406
X13538Y77597
X17272Y80518
X17399Y76708
X14605Y72009
X5588Y102108
X2413Y83947
X21082Y107188
X1778Y94488
X6858Y84836
X21082Y76708
X3556Y84074
X1778Y86868
X1778Y89408
X584Y81432
X584Y77114
X584Y74447
X711Y66446
X9779Y70993
X18542Y70993
X17272Y66040
X3124Y80670
X4013Y78130
X8179Y81178
X4140Y68072
X7366Y94488
X6858Y97003
X7366Y91948
X5715Y85344
X11431Y68384
X4318Y98806
X19050Y89027
X18796Y87249
X14859Y102108
X10719Y92994
X9906Y95250
X10668Y96012
X12691Y95042
X12700Y93980
X18415Y91948
X12700Y81788
X18415Y96393
X10160Y83693
X5715Y92710
X9906Y87376
X13970Y90678
X12954Y87376
X16002Y88646
X10414Y98019
X13970Y98298
X9017Y98044
X10439Y90830
X15672Y96901
X16117Y92595
X4318Y109558
X4318Y108558
X5842Y105156
X17018Y105156
X11430Y114554
X10160Y114554
X8890Y114554
X12700Y114554
X13970Y114554
X3175Y89408
X3302Y94488
X3302Y102108
X2032Y81153
X2032Y77343
X2032Y74168
X5080Y81153
X13589Y86233
X8636Y86233
X8636Y85217
X12700Y85217
X4318Y89408
X4318Y97003
X21082Y86868
X635Y70358
X17526Y82423
X18034Y84836
X14478Y80518
X3810Y70866
X7874Y103886
X4026Y77089
X3454Y68275
X7493Y88773
X11862Y93015
X17145Y97663
X9957Y95961
X10160Y90170
X9957Y94539
X11430Y95250
X6985Y91313
X6985Y90043
X14097Y89154
X15875Y80518
X15240Y80518
X18415Y93218
X11430Y70434
X15621Y91948
X10465Y65532
X12398Y65532
X11430Y65523
X9804Y66192
X13057Y66191
X11029Y72390
X12339Y71652
X7493Y81178
X14732Y63627
X9525Y83058
X14859Y83058
X13335Y76073
X16764Y75311
X13716Y75311
X15240Y75311
X16256Y72009
X11681Y66521
X10681Y66548
X8255Y69088
X8255Y70358
X11684Y110998
X12238Y95596
X11712Y98494
X20320Y87122
X2921Y68834
X2921Y70104
X6244Y71247
X6477Y72263
X9144Y107847
X15251Y107580
X9677Y108890
X15494Y108712
X15240Y113941
X12700Y100076
X13500Y80518
X17780Y83820
X10668Y109982
X11684Y96012
X10950Y98494
X12700Y112014
X12548Y92994
X15748Y93218
X11321Y93759
X15240Y93853
X4064Y79248
X3302Y81407
X4064Y86868
X4755Y102672
X3302Y67564
X14732Y109982
X8591Y98679
X13716Y110998
X7410Y96476
X14986Y97587
X14986Y96901
X18250Y97663
X17145Y95123
X15240Y95758
X17145Y96393
X12924Y95728
X17145Y93853
X9913Y93161
X12700Y90983
X10922Y90297
X11644Y90297
X12446Y90297
X10412Y93657
X15925Y89408
X12446Y98425
X17145Y92583
X16002Y100330
X35560Y111506
X34544Y110490
X36576Y111506
X37592Y110490
X33528Y109474
X38608Y109474
X30607Y110553
X30607Y111569
X38989Y111569
X30607Y112585
X30607Y114617
X38989Y114617
X30607Y109537
X33528Y108331
X38227Y108331
X32258Y107188
X37973Y107188
X27432Y106108
X27432Y119062
X42164Y119062
X42164Y118046
X42164Y117030
X42164Y114998
X42037Y106489
X44450Y102108
X44450Y104648
X42291Y107950
X44450Y109728
X41910Y111569
X41910Y109550
X39624Y104521
X41910Y113601
X43561Y113855
X45593Y114744
X44958Y118618
X41910Y112585
X44450Y112268
X27686Y111569
X27686Y117538
X25908Y112966
X24638Y118618
X30480Y104267
X25146Y97028
X28448Y103378
X29718Y73279
X27178Y71882
X44450Y99568
X26924Y69342
X25146Y112268
X24003Y114744
X23952Y84353
X32131Y68453
X29337Y62738
X36830Y70612
X38354Y68453
X30226Y83185
X45593Y65278
X45085Y70485
X35712Y72415
X34392Y73406
X36906Y77597
X40640Y80518
X40767Y76708
X37973Y72009
X28956Y102108
X25781Y83947
X44450Y107188
X25146Y94488
X30226Y84836
X44450Y76708
X26924Y84074
X25146Y86868
X25146Y89408
X23952Y81432
X23952Y77114
X23952Y74447
X24079Y66446
X33147Y70993
X41910Y70993
X40640Y66040
X26492Y80670
X27381Y78130
X31547Y81178
X27508Y68072
X30734Y94488
X30226Y97003
X30734Y91948
X29083Y85344
X34799Y68384
X27686Y98806
X42418Y89027
X42164Y87249
X38227Y102108
X34087Y92994
X33274Y95250
X34036Y96012
X36059Y95042
X36068Y93980
X41783Y91948
X36068Y81788
X41783Y96393
X33528Y83693
X29083Y92710
X33274Y87376
X37338Y90678
X36322Y87376
X39370Y88646
X33782Y98019
X37338Y98298
X32385Y98044
X33807Y90830
X39040Y96901
X39485Y92595
X27686Y109558
X27686Y108558
X29210Y105156
X40386Y105156
X34798Y114554
X33528Y114554
X32258Y114554
X36068Y114554
X37338Y114554
X26543Y89408
X26670Y94488
X26670Y102108
X25400Y81153
X25400Y77343
X25400Y74168
X28448Y81153
X36957Y86233
X32004Y86233
X32004Y85217
X36068Y85217
X27686Y89408
X27686Y97003
X44450Y86868
X24003Y70358
X40894Y82423
X41402Y84836
X37846Y80518
X27178Y70866
X31242Y103886
X27394Y77089
X26822Y68275
X30861Y88773
X35230Y93015
X40513Y97663
X33325Y95961
X33528Y90170
X33325Y94539
X34798Y95250
X30353Y91313
X30353Y90043
X37465Y89154
X39243Y80518
X38608Y80518
X41783Y93218
X34798Y70434
X38989Y91948
X33833Y65532
X35766Y65532
X34798Y65523
X33172Y66192
X36425Y66191
X34397Y72390
X35707Y71652
X30861Y81178
X38100Y63627
X32893Y83058
X38227Y83058
X36703Y76073
X40132Y75311
X37084Y75311
X38608Y75311
X39624Y72009
X35049Y66521
X34049Y66548
X31623Y69088
X31623Y70358
X35052Y110998
X35606Y95596
X35080Y98494
X43688Y87122
X26289Y68834
X26289Y70104
X29612Y71247
X29845Y72263
X32512Y107847
X38619Y107580
X33045Y108890
X38862Y108712
X38608Y113941
X36068Y100076
X36868Y80518
X41148Y83820
X34036Y109982
X35052Y96012
X34318Y98494
X36068Y112014
X35916Y92994
X39116Y93218
X34689Y93759
X38608Y93853
X27432Y79248
X26670Y81407
X27432Y86868
X28123Y102672
X26670Y67564
X38100Y109982
X31959Y98679
X37084Y110998
X30778Y96476
X38354Y97587
X38354Y96901
X41618Y97663
X40513Y95123
X38608Y95758
X40513Y96393
X36292Y95728
X40513Y93853
X33281Y93161
X36068Y90983
X34290Y90297
X35012Y90297
X35814Y90297
X33780Y93657
X39293Y89408
X35814Y98425
X40513Y92583
X39370Y100330
X58928Y111506
X57912Y110490
X59944Y111506
X60960Y110490
X56896Y109474
X61976Y109474
X53975Y110553
X53975Y111569
X62357Y111569
X53975Y112585
X53975Y114617
X62357Y114617
X53975Y109537
X56896Y108331
X61595Y108331
X55626Y107188
X61341Y107188
X50800Y106108
X50800Y119062
X65532Y119062
X65532Y118046
X65532Y117030
X65532Y114998
X65405Y106489
X67818Y102108
X67818Y104648
X65659Y107950
X67818Y109728
X65278Y111569
X65278Y109550
X62992Y104521
X65278Y113601
X66929Y113855
X68961Y114744
X68326Y118618
X65278Y112585
X67818Y112268
X51054Y111569
X51054Y117538
X49276Y112966
X48006Y118618
X53848Y104267
X48514Y97028
X51816Y103378
X53086Y73279
X50546Y71882
X67818Y99568
X50292Y69342
X48514Y112268
X47371Y114744
X47320Y84353
X55499Y68453
X52705Y62738
X60198Y70612
X61722Y68453
X53594Y83185
X68961Y65278
X68453Y70485
X59080Y72415
X57760Y73406
X60274Y77597
X64008Y80518
X64135Y76708
X61341Y72009
X52324Y102108
X49149Y83947
X67818Y107188
X48514Y94488
X53594Y84836
X67818Y76708
X50292Y84074
X48514Y86868
X48514Y89408
X47320Y81432
X47320Y77114
X47320Y74447
X47447Y66446
X56515Y70993
X65278Y70993
X64008Y66040
X49860Y80670
X50749Y78130
X54915Y81178
X50876Y68072
X54102Y94488
X53594Y97003
X54102Y91948
X52451Y85344
X58167Y68384
X51054Y98806
X65786Y89027
X65532Y87249
X61595Y102108
X57455Y92994
X56642Y95250
X57404Y96012
X59427Y95042
X59436Y93980
X65151Y91948
X59436Y81788
X65151Y96393
X56896Y83693
X52451Y92710
X56642Y87376
X60706Y90678
X59690Y87376
X62738Y88646
X57150Y98019
X60706Y98298
X55753Y98044
X57175Y90830
X62408Y96901
X62853Y92595
X51054Y109558
X51054Y108558
X52578Y105156
X63754Y105156
X58166Y114554
X56896Y114554
X55626Y114554
X59436Y114554
X60706Y114554
X49911Y89408
X50038Y94488
X50038Y102108
X48768Y81153
X48768Y77343
X48768Y74168
X51816Y81153
X60325Y86233
X55372Y86233
X55372Y85217
X59436Y85217
X51054Y89408
X51054Y97003
X67818Y86868
X47371Y70358
X64262Y82423
X64770Y84836
X61214Y80518
X50546Y70866
X54610Y103886
X50762Y77089
X50190Y68275
X54229Y88773
X58598Y93015
X63881Y97663
X56693Y95961
X56896Y90170
X56693Y94539
X58166Y95250
X53721Y91313
X53721Y90043
X60833Y89154
X62611Y80518
X61976Y80518
X65151Y93218
X58166Y70434
X62357Y91948
X57201Y65532
X59134Y65532
X58166Y65523
X56540Y66192
X59793Y66191
X57765Y72390
X59075Y71652
X54229Y81178
X61468Y63627
X56261Y83058
X61595Y83058
X60071Y76073
X63500Y75311
X60452Y75311
X61976Y75311
X62992Y72009
X58417Y66521
X57417Y66548
X54991Y69088
X54991Y70358
X58420Y110998
X58974Y95596
X58448Y98494
X67056Y87122
X49657Y68834
X49657Y70104
X52980Y71247
X53213Y72263
X55880Y107847
X61987Y107580
X56413Y108890
X62230Y108712
X61976Y113941
X59436Y100076
X60236Y80518
X64516Y83820
X57404Y109982
X58420Y96012
X57686Y98494
X59436Y112014
X59284Y92994
X62484Y93218
X58057Y93759
X61976Y93853
X50800Y79248
X50038Y81407
X50800Y86868
X51491Y102672
X50038Y67564
X61468Y109982
X55327Y98679
X60452Y110998
X54146Y96476
X61722Y97587
X61722Y96901
X64986Y97663
X63881Y95123
X61976Y95758
X63881Y96393
X59660Y95728
X63881Y93853
X56649Y93161
X59436Y90983
X57658Y90297
X58380Y90297
X59182Y90297
X57148Y93657
X62661Y89408
X59182Y98425
X63881Y92583
X62738Y100330
X82296Y111506
X81280Y110490
X83312Y111506
X84328Y110490
X80264Y109474
X85344Y109474
X77343Y110553
X77343Y111569
X85725Y111569
X77343Y112585
X77343Y114617
X85725Y114617
X77343Y109537
X80264Y108331
X84963Y108331
X78994Y107188
X84709Y107188
X74168Y106108
X74168Y119062
X88900Y119062
X88900Y118046
X88900Y117030
X88900Y114998
X88773Y106489
X91186Y102108
X91186Y104648
X89027Y107950
X91186Y109728
X88646Y111569
X88646Y109550
X86360Y104521
X88646Y113601
X90297Y113855
X92329Y114744
X35080Y37026
X88646Y112585
X91186Y112268
X74422Y111569
X74422Y117538
X72644Y112966
X71374Y118618
X77216Y104267
X71882Y97028
X75184Y103378
X76454Y73279
X73914Y71882
X91186Y99568
X73660Y69342
X71882Y112268
X70739Y114744
X70688Y84353
X78867Y68453
X76073Y62738
X83566Y70612
X85090Y68453
X76962Y83185
X92329Y65278
X91821Y70485
X82448Y72415
X81128Y73406
X83642Y77597
X87376Y80518
X87503Y76708
X84709Y72009
X75692Y102108
X72517Y83947
X91186Y107188
X71882Y94488
X76962Y84836
X91186Y76708
X73660Y84074
X71882Y86868
X71882Y89408
X70688Y81432
X70688Y77114
X70688Y74447
X70815Y66446
X79883Y70993
X88646Y70993
X87376Y66040
X73228Y80670
X74117Y78130
X78283Y81178
X74244Y68072
X77470Y94488
X76962Y97003
X77470Y91948
X75819Y85344
X81535Y68384
X74422Y98806
X89154Y89027
X88900Y87249
X84963Y102108
X80823Y92994
X80010Y95250
X80772Y96012
X82795Y95042
X82804Y93980
X88519Y91948
X82804Y81788
X88519Y96393
X80264Y83693
X75819Y92710
X80010Y87376
X84074Y90678
X83058Y87376
X86106Y88646
X80518Y98019
X84074Y98298
X79121Y98044
X80543Y90830
X85776Y96901
X86221Y92595
X74422Y109558
X74422Y108558
X75946Y105156
X87122Y105156
X81534Y114554
X80264Y114554
X78994Y114554
X82804Y114554
X84074Y114554
X73279Y89408
X73406Y94488
X73406Y102108
X72136Y81153
X72136Y77343
X72136Y74168
X75184Y81153
X83693Y86233
X78740Y86233
X78740Y85217
X82804Y85217
X74422Y89408
X74422Y97003
X91186Y86868
X70739Y70358
X87630Y82423
X88138Y84836
X84582Y80518
X73914Y70866
X77978Y103886
X74130Y77089
X73558Y68275
X77597Y88773
X81966Y93015
X87249Y97663
X80061Y95961
X80264Y90170
X80061Y94539
X81534Y95250
X77089Y91313
X77089Y90043
X84201Y89154
X85979Y80518
X85344Y80518
X88519Y93218
X81534Y70434
X85725Y91948
X80569Y65532
X82502Y65532
X81534Y65523
X79908Y66192
X83161Y66191
X81133Y72390
X82443Y71652
X77597Y81178
X84836Y63627
X79629Y83058
X84963Y83058
X83439Y76073
X86868Y75311
X83820Y75311
X85344Y75311
X86360Y72009
X81785Y66521
X80785Y66548
X78359Y69088
X78359Y70358
X81788Y110998
X82342Y95596
X81816Y98494
X90424Y87122
X73025Y68834
X73025Y70104
X76348Y71247
X76581Y72263
X79248Y107847
X85355Y107580
X79781Y108890
X85598Y108712
X85344Y113941
X82804Y100076
X83604Y80518
X87884Y83820
X80772Y109982
X81788Y96012
X81054Y98494
X82804Y112014
X82652Y92994
X85852Y93218
X81425Y93759
X85344Y93853
X74168Y79248
X73406Y81407
X74168Y86868
X74859Y102672
X73406Y67564
X84836Y109982
X78695Y98679
X83820Y110998
X77514Y96476
X85090Y97587
X85090Y96901
X88354Y97663
X87249Y95123
X85344Y95758
X87249Y96393
X83028Y95728
X87249Y93853
X80017Y93161
X82804Y90983
X81026Y90297
X81748Y90297
X82550Y90297
X80516Y93657
X86029Y89408
X82550Y98425
X87249Y92583
X86106Y100330
X12192Y172974
X11176Y171958
X13208Y172974
X14224Y171958
X10160Y170942
X15240Y170942
X7239Y172022
X7239Y173038
X15621Y173038
X7239Y174054
X7239Y176085
X15621Y176085
X7239Y171006
X10160Y169799
X14859Y169799
X8890Y168656
X14605Y168656
X4064Y167577
X4064Y180530
X18796Y180530
X18796Y179514
X18796Y178498
X18796Y176466
X18669Y167958
X21082Y163576
X21082Y166116
X18923Y169418
X21082Y171196
X18542Y173038
X18542Y171018
X16256Y165989
X18542Y175069
X20193Y175323
X22225Y176212
X21590Y180086
X18542Y174054
X21082Y173736
X4318Y173038
X4318Y179006
X2540Y174435
X1270Y180086
X7112Y165735
X1778Y158496
X5080Y164846
X6350Y134747
X3810Y133350
X21082Y161036
X3556Y130810
X1778Y173736
X635Y176212
X584Y145821
X8763Y129921
X5969Y124206
X13462Y132080
X14986Y129921
X6858Y144653
X22225Y126746
X21717Y131953
X12344Y133883
X11024Y134874
X13538Y139065
X17272Y141986
X17399Y138176
X14605Y133477
X5588Y163576
X2413Y145415
X21082Y168656
X1778Y155956
X6858Y146304
X21082Y138176
X3556Y145542
X1778Y148336
X1778Y150876
X584Y142900
X584Y138582
X584Y135915
X711Y127914
X9779Y132461
X18542Y132461
X17272Y127508
X3124Y142138
X4013Y139598
X8179Y142646
X4140Y129540
X7366Y155956
X6858Y158471
X7366Y153416
X5715Y146812
X11431Y129852
X4318Y160274
X19050Y150495
X18796Y148717
X14859Y163576
X10719Y154462
X9906Y156718
X10668Y157480
X12691Y156510
X12700Y155448
X18415Y153416
X12700Y143256
X18415Y157861
X10160Y145161
X5715Y154178
X9906Y148844
X13970Y152146
X12954Y148844
X16002Y150114
X10414Y159487
X13970Y159766
X9017Y159512
X10439Y152298
X15672Y158369
X16117Y154063
X4318Y171027
X4318Y170027
X5842Y166624
X17018Y166624
X11430Y176022
X10160Y176022
X8890Y176022
X12700Y176022
X13970Y176022
X3175Y150876
X3302Y155956
X3302Y163576
X2032Y142621
X2032Y138811
X2032Y135636
X5080Y142621
X13589Y147701
X8636Y147701
X8636Y146685
X12700Y146685
X4318Y150876
X4318Y158471
X21082Y148336
X635Y131826
X17526Y143891
X18034Y146304
X14478Y141986
X3810Y132334
X7874Y165354
X4026Y138557
X3454Y129743
X7493Y150241
X11862Y154483
X17145Y159131
X9957Y157429
X10160Y151638
X9957Y156007
X11430Y156718
X6985Y152781
X6985Y151511
X14097Y150622
X15875Y141986
X15240Y141986
X18415Y154686
X11430Y131902
X15621Y153416
X10465Y127000
X12398Y127000
X11430Y126991
X9804Y127660
X13057Y127659
X11029Y133858
X12339Y133120
X7493Y142646
X14732Y125095
X9525Y144526
X14859Y144526
X13335Y137541
X16764Y136779
X13716Y136779
X15240Y136779
X16256Y133477
X11681Y127989
X10681Y128016
X8255Y130556
X8255Y131826
X11684Y172466
X12238Y157064
X11712Y159962
X20320Y148590
X2921Y130302
X2921Y131572
X6244Y132715
X6477Y133731
X9144Y169316
X15251Y169048
X9677Y170358
X15494Y170180
X15240Y175409
X12700Y161544
X13500Y141986
X17780Y145288
X10668Y171450
X11684Y157480
X10950Y159962
X12700Y173482
X12548Y154462
X15748Y154686
X11321Y155227
X15240Y155321
X4064Y140716
X3302Y142875
X4064Y148336
X4755Y164140
X3302Y129032
X14732Y171450
X8591Y160147
X13716Y172466
X7410Y157944
X14986Y159055
X14986Y158369
X18250Y159131
X17145Y156591
X15240Y157226
X17145Y157861
X12924Y157196
X17145Y155321
X9913Y154629
X12700Y152451
X10922Y151765
X11644Y151765
X12446Y151765
X10412Y155125
X15925Y150876
X12446Y159893
X17145Y154051
X16002Y161798
X35560Y172974
X34544Y171958
X36576Y172974
X37592Y171958
X33528Y170942
X38608Y170942
X30607Y172022
X30607Y173038
X38989Y173038
X30607Y174054
X30607Y176085
X38989Y176085
X30607Y171006
X33528Y169799
X38227Y169799
X32258Y168656
X37973Y168656
X27432Y167577
X27432Y180530
X42164Y180530
X42164Y179514
X42164Y178498
X42164Y176466
X42037Y167958
X44450Y163576
X44450Y166116
X42291Y169418
X44450Y171196
X41910Y173038
X41910Y171018
X39624Y165989
X41910Y175069
X43561Y175323
X45593Y176212
X44958Y180086
X41910Y174054
X44450Y173736
X27686Y173038
X27686Y179006
X25908Y174435
X24638Y180086
X30480Y165735
X25146Y158496
X28448Y164846
X29718Y134747
X27178Y133350
X44450Y161036
X26924Y130810
X25146Y173736
X24003Y176212
X23952Y145821
X32131Y129921
X29337Y124206
X36830Y132080
X38354Y129921
X30226Y144653
X45593Y126746
X45085Y131953
X35712Y133883
X34392Y134874
X36906Y139065
X40640Y141986
X40767Y138176
X37973Y133477
X28956Y163576
X25781Y145415
X44450Y168656
X25146Y155956
X30226Y146304
X44450Y138176
X26924Y145542
X25146Y148336
X25146Y150876
X23952Y142900
X23952Y138582
X23952Y135915
X24079Y127914
X33147Y132461
X41910Y132461
X40640Y127508
X26492Y142138
X27381Y139598
X31547Y142646
X27508Y129540
X30734Y155956
X30226Y158471
X30734Y153416
X29083Y146812
X34799Y129852
X27686Y160274
X42418Y150495
X42164Y148717
X38227Y163576
X34087Y154462
X33274Y156718
X34036Y157480
X36059Y156510
X36068Y155448
X41783Y153416
X36068Y143256
X41783Y157861
X33528Y145161
X29083Y154178
X33274Y148844
X37338Y152146
X36322Y148844
X39370Y150114
X33782Y159487
X37338Y159766
X32385Y159512
X33807Y152298
X39040Y158369
X39485Y154063
X27686Y171027
X27686Y170027
X29210Y166624
X40386Y166624
X34798Y176022
X33528Y176022
X32258Y176022
X36068Y176022
X37338Y176022
X26543Y150876
X26670Y155956
X26670Y163576
X25400Y142621
X25400Y138811
X25400Y135636
X28448Y142621
X36957Y147701
X32004Y147701
X32004Y146685
X36068Y146685
X27686Y150876
X27686Y158471
X44450Y148336
X24003Y131826
X40894Y143891
X41402Y146304
X37846Y141986
X27178Y132334
X31242Y165354
X27394Y138557
X26822Y129743
X30861Y150241
X35230Y154483
X40513Y159131
X33325Y157429
X33528Y151638
X33325Y156007
X34798Y156718
X30353Y152781
X30353Y151511
X37465Y150622
X39243Y141986
X38608Y141986
X41783Y154686
X34798Y131902
X38989Y153416
X33833Y127000
X35766Y127000
X34798Y126991
X33172Y127660
X36425Y127659
X34397Y133858
X35707Y133120
X30861Y142646
X38100Y125095
X32893Y144526
X38227Y144526
X36703Y137541
X40132Y136779
X37084Y136779
X38608Y136779
X39624Y133477
X35049Y127989
X34049Y128016
X31623Y130556
X31623Y131826
X35052Y172466
X35606Y157064
X35080Y159962
X43688Y148590
X26289Y130302
X26289Y131572
X29612Y132715
X29845Y133731
X32512Y169316
X38619Y169048
X33045Y170358
X38862Y170180
X38608Y175409
X36068Y161544
X36868Y141986
X41148Y145288
X34036Y171450
X35052Y157480
X34318Y159962
X36068Y173482
X35916Y154462
X39116Y154686
X34689Y155227
X38608Y155321
X27432Y140716
X26670Y142875
X27432Y148336
X28123Y164140
X26670Y129032
X38100Y171450
X31959Y160147
X37084Y172466
X30778Y157944
X38354Y159055
X38354Y158369
X41618Y159131
X40513Y156591
X38608Y157226
X40513Y157861
X36292Y157196
X40513Y155321
X33281Y154629
X36068Y152451
X34290Y151765
X35012Y151765
X35814Y151765
X33780Y155125
X39293Y150876
X35814Y159893
X40513Y154051
X39370Y161798
X58928Y172974
X57912Y171958
X59944Y172974
X60960Y171958
X56896Y170942
X61976Y170942
X53975Y172022
X53975Y173038
X62357Y173038
X53975Y174054
X53975Y176085
X62357Y176085
X53975Y171006
X56896Y169799
X61595Y169799
X55626Y168656
X61341Y168656
X50800Y167577
X50800Y180530
X65532Y180530
X65532Y179514
X65532Y178498
X65532Y176466
X65405Y167958
X67818Y163576
X67818Y166116
X65659Y169418
X67818Y171196
X65278Y173038
X65278Y171018
X62992Y165989
X65278Y175069
X66929Y175323
X68961Y176212
X68326Y180086
X65278Y174054
X67818Y173736
X51054Y173038
X51054Y179006
X49276Y174435
X48006Y180086
X53848Y165735
X48514Y158496
X51816Y164846
X53086Y134747
X50546Y133350
X67818Y161036
X50292Y130810
X48514Y173736
X47371Y176212
X47320Y145821
X55499Y129921
X52705Y124206
X60198Y132080
X61722Y129921
X53594Y144653
X68961Y126746
X68453Y131953
X59080Y133883
X57760Y134874
X60274Y139065
X64008Y141986
X64135Y138176
X61341Y133477
X52324Y163576
X49149Y145415
X67818Y168656
X48514Y155956
X53594Y146304
X67818Y138176
X50292Y145542
X48514Y148336
X48514Y150876
X47320Y142900
X47320Y138582
X47320Y135915
X47447Y127914
X56515Y132461
X65278Y132461
X64008Y127508
X49860Y142138
X50749Y139598
X54915Y142646
X50876Y129540
X54102Y155956
X53594Y158471
X54102Y153416
X52451Y146812
X58167Y129852
X51054Y160274
X65786Y150495
X65532Y148717
X61595Y163576
X57455Y154462
X56642Y156718
X57404Y157480
X59427Y156510
X59436Y155448
X65151Y153416
X59436Y143256
X65151Y157861
X56896Y145161
X52451Y154178
X56642Y148844
X60706Y152146
X59690Y148844
X62738Y150114
X57150Y159487
X60706Y159766
X55753Y159512
X57175Y152298
X62408Y158369
X62853Y154063
X51054Y171027
X51054Y170027
X52578Y166624
X63754Y166624
X58166Y176022
X56896Y176022
X55626Y176022
X59436Y176022
X60706Y176022
X49911Y150876
X50038Y155956
X50038Y163576
X48768Y142621
X48768Y138811
X48768Y135636
X51816Y142621
X60325Y147701
X55372Y147701
X55372Y146685
X59436Y146685
X51054Y150876
X51054Y158471
X67818Y148336
X47371Y131826
X64262Y143891
X64770Y146304
X61214Y141986
X50546Y132334
X54610Y165354
X50762Y138557
X50190Y129743
X54229Y150241
X58598Y154483
X63881Y159131
X56693Y157429
X56896Y151638
X56693Y156007
X58166Y156718
X53721Y152781
X53721Y151511
X60833Y150622
X62611Y141986
X61976Y141986
X65151Y154686
X58166Y131902
X62357Y153416
X57201Y127000
X59134Y127000
X58166Y126991
X56540Y127660
X59793Y127659
X57765Y133858
X12192Y50038
X54229Y142646
X61468Y125095
X56261Y144526
X61595Y144526
X60071Y137541
X63500Y136779
X60452Y136779
X61976Y136779
X62992Y133477
X58417Y127989
X57417Y128016
X54991Y130556
X54991Y131826
X58420Y172466
X58974Y157064
X58448Y159962
X67056Y148590
X49657Y130302
X49657Y131572
X52980Y132715
X53213Y133731
X55880Y169316
X61987Y169048
X56413Y170358
X62230Y170180
X61976Y175409
X59436Y161544
X60236Y141986
X64516Y145288
X57404Y171450
X58420Y157480
X57686Y159962
X59436Y173482
X59284Y154462
X62484Y154686
X58057Y155227
X61976Y155321
X50800Y140716
X50038Y142875
X50800Y148336
X51491Y164140
X50038Y129032
X61468Y171450
X55327Y160147
X60452Y172466
X54146Y157944
X61722Y159055
X61722Y158369
X64986Y159131
X63881Y156591
X61976Y157226
X63881Y157861
X59660Y157196
X63881Y155321
X56649Y154629
X59436Y152451
X57658Y151765
X58380Y151765
X59182Y151765
X57148Y155125
X62661Y150876
X59182Y159893
X63881Y154051
X62738Y161798
X82296Y172974
X81280Y171958
X83312Y172974
X84328Y171958
X80264Y170942
X85344Y170942
X77343Y172022
X77343Y173038
X85725Y173038
X77343Y174054
X77343Y176085
X85725Y176085
X77343Y171006
X80264Y169799
X84963Y169799
X78994Y168656
X84709Y168656
X74168Y167577
X74168Y180530
X88900Y180530
X88900Y179514
X88900Y178498
X88900Y176466
X88773Y167958
X91186Y163576
X91186Y166116
X89027Y169418
X91186Y171196
X88646Y173038
X88646Y171018
X86360Y165989
X88646Y175069
X90297Y175323
X92329Y176212
X91694Y180086
X88646Y174054
X91186Y173736
X74422Y173038
X74422Y179006
X72644Y174435
X71374Y180086
X77216Y165735
X71882Y158496
X75184Y164846
X76454Y134747
X73914Y133350
X91186Y161036
X73660Y130810
X71882Y173736
X70739Y176212
X70688Y145821
X78867Y129921
X76073Y124206
X83566Y132080
X85090Y129921
X76962Y144653
X92329Y126746
X91821Y131953
X82448Y133883
X81128Y134874
X83642Y139065
X87376Y141986
X87503Y138176
X84709Y133477
X75692Y163576
X72517Y145415
X91186Y168656
X71882Y155956
X76962Y146304
X91186Y138176
X73660Y145542
X71882Y148336
X71882Y150876
X70688Y142900
X70688Y138582
X70688Y135915
X70815Y127914
X79883Y132461
X88646Y132461
X87376Y127508
X73228Y142138
X74117Y139598
X78283Y142646
X74244Y129540
X77470Y155956
X76962Y158471
X77470Y153416
X75819Y146812
X81535Y129852
X74422Y160274
X89154Y150495
X88900Y148717
X84963Y163576
X80823Y154462
X80010Y156718
X80772Y157480
X82795Y156510
X82804Y155448
X88519Y153416
X82804Y143256
X88519Y157861
X80264Y145161
X75819Y154178
X80010Y148844
X84074Y152146
X83058Y148844
X86106Y150114
X80518Y159487
X84074Y159766
X79121Y159512
X80543Y152298
X85776Y158369
X86221Y154063
X74422Y171027
X74422Y170027
X75946Y166624
X87122Y166624
X81534Y176022
X80264Y176022
X78994Y176022
X82804Y176022
X84074Y176022
X73279Y150876
X73406Y155956
X73406Y163576
X72136Y142621
X72136Y138811
X72136Y135636
X75184Y142621
X83693Y147701
X78740Y147701
X78740Y146685
X82804Y146685
X74422Y150876
X74422Y158471
X91186Y148336
X70739Y131826
X87630Y143891
X88138Y146304
X84582Y141986
X73914Y132334
X77978Y165354
X74130Y138557
X73558Y129743
X77597Y150241
X81966Y154483
X87249Y159131
X80061Y157429
X80264Y151638
X80061Y156007
X81534Y156718
X77089Y152781
X77089Y151511
X84201Y150622
X85979Y141986
X85344Y141986
X88519Y154686
X81534Y131902
X85725Y153416
X80569Y127000
X82502Y127000
X81534Y126991
X79908Y127660
X83161Y127659
X81133Y133858
X82443Y133120
X77597Y142646
X84836Y125095
X79629Y144526
X84963Y144526
X83439Y137541
X86868Y136779
X83820Y136779
X85344Y136779
X86360Y133477
X81785Y127989
X80785Y128016
X78359Y130556
X78359Y131826
X81788Y172466
X82342Y157064
X81816Y159962
X90424Y148590
X73025Y130302
X73025Y131572
X76348Y132715
X76581Y133731
X79248Y169316
X85355Y169048
X79781Y170358
X85598Y170180
X85344Y175409
X82804Y161544
X83604Y141986
X87884Y145288
X80772Y171450
X81788Y157480
X81054Y159962
X82804Y173482
X82652Y154462
X85852Y154686
X81425Y155227
X85344Y155321
X74168Y140716
X73406Y142875
X74168Y148336
X74859Y164140
X73406Y129032
X84836Y171450
X78695Y160147
X83820Y172466
X77514Y157944
X85090Y159055
X85090Y158369
X88354Y159131
X87249Y156591
X85344Y157226
X87249Y157861
X83028Y157196
X87249Y155321
X80017Y154629
X82804Y152451
X81026Y151765
X81748Y151765
X82550Y151765
X80516Y155125
X86029Y150876
X82550Y159893
X87249Y154051
X86106Y161798
X11176Y49022
X13208Y50038
X14224Y49022
X10160Y48006
X15240Y48006
X7239Y49085
X7239Y50101
X15621Y50101
X7239Y51117
X7239Y53149
X15621Y53149
X7239Y48069
X10160Y46863
X14859Y46863
X8890Y45720
X14605Y45720
X4064Y44640
X4064Y57594
X18796Y57594
X18796Y56578
X18796Y55562
X18796Y53530
X18669Y45021
X21082Y40640
X21082Y43180
X18923Y46482
X21082Y48260
X18542Y50101
X18542Y48082
X16256Y43053
X18542Y52133
X20193Y52387
X22225Y53276
X21590Y57150
X18542Y51117
X21082Y50800
X4318Y50101
X4318Y56070
X2540Y51498
X1270Y57150
X7112Y42799
X1778Y35560
X5080Y41910
X6350Y11811
X3810Y10414
X21082Y38100
X3556Y7874
X1778Y50800
X635Y53276
X584Y22885
X8763Y6985
X5969Y1270
X13462Y9144
X14986Y6985
X6858Y21717
X22225Y3810
X21717Y9017
X12344Y10947
X11024Y11938
X13538Y16129
X17272Y19050
X17399Y15240
X14605Y10541
X5588Y40640
X2413Y22479
X21082Y45720
X1778Y33020
X6858Y23368
X21082Y15240
X3556Y22606
X1778Y25400
X1778Y27940
X584Y19964
X584Y15646
X584Y12979
X711Y4978
X9779Y9525
X18542Y9525
X17272Y4572
X3124Y19202
X4013Y16662
X8179Y19710
X4140Y6604
X7366Y33020
X6858Y35535
X7366Y30480
X5715Y23876
X11431Y6916
X4318Y37338
X19050Y27559
X18796Y25781
X14859Y40640
X10719Y31526
X9906Y33782
X10668Y34544
X12691Y33574
X12700Y32512
X18415Y30480
X12700Y20320
X18415Y34925
X10160Y22225
X5715Y31242
X9906Y25908
X13970Y29210
X12954Y25908
X16002Y27178
X10414Y36551
X13970Y36830
X9017Y36576
X10439Y29362
X15672Y35433
X16117Y31127
X4318Y48090
X4318Y47090
X5842Y43688
X17018Y43688
X91694Y118618
X11430Y53086
X10160Y53086
X8890Y53086
X12700Y53086
X13970Y53086
X3175Y27940
X3302Y33020
X3302Y40640
X2032Y19685
X2032Y15875
X2032Y12700
X5080Y19685
X13589Y24765
X8636Y24765
X8636Y23749
X12700Y23749
X4318Y27940
X4318Y35535
X21082Y25400
X635Y8890
X17526Y20955
X18034Y23368
X14478Y19050
X3810Y9398
X7874Y42418
X4026Y15621
X3454Y6807
X7493Y27305
X11862Y31547
X17145Y36195
X9957Y34493
X10160Y28702
X9957Y33071
X11430Y33782
X6985Y29845
X6985Y28575
X14097Y27686
X15875Y19050
X15240Y19050
X18415Y31750
X11430Y8966
X15621Y30480
X10465Y4064
X12398Y4064
X11430Y4055
X9804Y4724
X13057Y4723
X11029Y10922
X12339Y10184
X7493Y19710
X14732Y2159
X9525Y21590
X14859Y21590
X13335Y14605
X16764Y13843
X13716Y13843
X15240Y13843
X16256Y10541
X11681Y5053
X10681Y5080
X8255Y7620
X8255Y8890
X11684Y49530
X12238Y34128
X11712Y37026
X20320Y25654
X2921Y7366
X2921Y8636
X6244Y9779
X6477Y10795
X9144Y46379
X15251Y46112
X9677Y47422
X15494Y47244
X15240Y52473
X12700Y38608
X13500Y19050
X17780Y22352
X10668Y48514
X11684Y34544
X10950Y37026
X12700Y50546
X12548Y31526
X15748Y31750
X11321Y32291
X15240Y32385
X4064Y17780
X3302Y19939
X4064Y25400
X4755Y41204
X3302Y6096
X14732Y48514
X8591Y37211
X13716Y49530
X7410Y35008
X14986Y36119
X14986Y35433
X18250Y36195
X17145Y33655
X15240Y34290
X17145Y34925
X12924Y34260
X17145Y32385
X9913Y31693
X12700Y29515
X10922Y28829
X11644Y28829
X12446Y28829
X10412Y32189
X15925Y27940
X12446Y36957
X17145Y31115
X16002Y38862
X35560Y50038
X34544Y49022
X36576Y50038
X37592Y49022
X33528Y48006
X38608Y48006
X30607Y49085
X30607Y50101
X38989Y50101
X30607Y51117
X30607Y53149
X38989Y53149
X30607Y48069
X33528Y46863
X38227Y46863
X32258Y45720
X37973Y45720
X27432Y44640
X27432Y57594
X42164Y57594
X42164Y56578
X42164Y55562
X42164Y53530
X42037Y45021
X44450Y40640
X44450Y43180
X42291Y46482
X44450Y48260
X41910Y50101
X41910Y48082
X39624Y43053
X41910Y52133
X43561Y52387
X45593Y53276
X44958Y57150
X41910Y51117
X44450Y50800
X27686Y50101
X27686Y56070
X25908Y51498
X24638Y57150
X30480Y42799
X25146Y35560
X28448Y41910
X29718Y11811
X27178Y10414
X44450Y38100
X26924Y7874
X25146Y50800
X24003Y53276
X23952Y22885
X32131Y6985
X29337Y1270
X36830Y9144
X38354Y6985
X30226Y21717
X45593Y3810
X45085Y9017
X35712Y10947
X34392Y11938
X36906Y16129
X40640Y19050
X40767Y15240
X37973Y10541
X28956Y40640
X25781Y22479
X44450Y45720
X25146Y33020
X30226Y23368
X44450Y15240
X26924Y22606
X25146Y25400
X25146Y27940
X23952Y19964
X23952Y15646
X23952Y12979
X24079Y4978
X33147Y9525
X41910Y9525
X40640Y4572
X26492Y19202
X27381Y16662
X31547Y19710
X27508Y6604
X30734Y33020
X30226Y35535
X30734Y30480
X29083Y23876
X34799Y6916
X27686Y37338
X42418Y27559
X42164Y25781
X38227Y40640
X34087Y31526
X33274Y33782
X34036Y34544
X36059Y33574
X36068Y32512
X41783Y30480
X36068Y20320
X41783Y34925
X33528Y22225
X29083Y31242
X33274Y25908
X37338Y29210
X36322Y25908
X39370Y27178
X33782Y36551
X37338Y36830
X32385Y36576
X33807Y29362
X39040Y35433
X39485Y31127
X27686Y48090
X27686Y47090
X29210Y43688
X40386Y43688
X34798Y53086
X33528Y53086
X32258Y53086
X36068Y53086
X37338Y53086
X26543Y27940
X26670Y33020
X26670Y40640
X25400Y19685
X25400Y15875
X25400Y12700
X28448Y19685
X36957Y24765
X32004Y24765
X32004Y23749
X36068Y23749
X27686Y27940
X27686Y35535
X44450Y25400
X24003Y8890
X40894Y20955
X41402Y23368
X37846Y19050
X27178Y9398
X31242Y42418
X27394Y15621
X26822Y6807
X30861Y27305
X35230Y31547
X40513Y36195
X33325Y34493
X33528Y28702
X33325Y33071
X34798Y33782
X30353Y29845
X30353Y28575
X37465Y27686
X39243Y19050
X38608Y19050
X41783Y31750
X34798Y8966
X38989Y30480
X33833Y4064
X35766Y4064
X34798Y4055
X33172Y4724
X36425Y4723
X34397Y10922
X35707Y10184
X30861Y19710
X38100Y2159
X32893Y21590
X38227Y21590
X36703Y14605
X40132Y13843
X37084Y13843
X38608Y13843
X39624Y10541
X35049Y5053
X34049Y5080
X31623Y7620
X31623Y8890
X35052Y49530
X35606Y34128
X43688Y25654
X26289Y7366
X26289Y8636
X29612Y9779
X29845Y10795
X32512Y46379
X38619Y46112
X33045Y47422
X38862Y47244
X38608Y52473
X36068Y38608
X36868Y19050
X41148Y22352
X34036Y48514
X35052Y34544
X34318Y37026
X36068Y50546
X35916Y31526
X39116Y31750
X34689Y32291
X38608Y32385
X27432Y17780
X26670Y19939
X27432Y25400
X28123Y41204
X26670Y6096
X38100Y48514
X31959Y37211
X37084Y49530
X30778Y35008
X38354Y36119
X38354Y35433
X41618Y36195
X40513Y33655
X38608Y34290
X40513Y34925
X36292Y34260
X40513Y32385
X33281Y31693
X36068Y29515
X34290Y28829
X35012Y28829
X35814Y28829
X33780Y32189
X39293Y27940
X35814Y36957
X40513Y31115
X39370Y38862
X58928Y50038
X57912Y49022
X59944Y50038
X60960Y49022
X56896Y48006
X61976Y48006
X53975Y49085
X53975Y50101
X62357Y50101
X53975Y51117
X53975Y53149
X62357Y53149
X53975Y48069
X56896Y46863
X61595Y46863
X55626Y45720
X61341Y45720
X50800Y44640
X50800Y57594
X65532Y57594
X65532Y56578
X65532Y55562
X65532Y53530
X65405Y45021
X67818Y40640
X67818Y43180
X65659Y46482
X67818Y48260
X65278Y50101
X65278Y48082
X62992Y43053
X65278Y52133
X66929Y52387
X68961Y53276
X68326Y57150
X65278Y51117
X67818Y50800
X51054Y50101
X51054Y56070
X49276Y51498
X48006Y57150
X53848Y42799
X48514Y35560
X51816Y41910
X53086Y11811
X50546Y10414
X67818Y38100
X50292Y7874
X48514Y50800
X47371Y53276
X47320Y22885
X55499Y6985
X52705Y1270
X60198Y9144
X61722Y6985
X53594Y21717
X68961Y3810
X68453Y9017
X59080Y10947
X57760Y11938
X60274Y16129
X64008Y19050
X64135Y15240
X61341Y10541
X52324Y40640
X49149Y22479
X67818Y45720
X48514Y33020
X59075Y133120
M30