M48
;GenerationSoftware,Autodesk,EAGLE,9.6.2*%
;CreationDate,2022-08-02T19:17:58Z*%
FMAT,2
ICI,OFF
METRIC,TZ,000.000
T5C0.305
T4C0.432
T3C0.650
T2C1.016
T1C3.302
%
G90
M71
T1
X25908Y2540
X43688Y2540
X2540Y2540
X20320Y2540
X49276Y2540
X67056Y2540
T2
X21590Y46990
X1270Y52070
X68326Y16510
X68326Y13970
X48006Y24130
X48006Y26670
X48006Y29210
X48006Y31750
X21590Y52070
X21590Y49530
X1270Y29210
X21590Y44450
X21590Y41910
X21590Y39370
X21590Y36830
X21590Y34290
X21590Y31750
X21590Y29210
X21590Y26670
X21590Y24130
X21590Y21590
X21590Y19050
X21590Y16510
X21590Y13970
X1270Y24130
X1270Y26670
X48006Y34290
X1270Y31750
X1270Y34290
X1270Y36830
X1270Y39370
X1270Y41910
X1270Y44450
X1270Y46990
X1270Y49530
X21590Y10795
X19050Y10795
X48006Y36830
X48006Y39370
X48006Y41910
X48006Y44450
X48006Y46990
X48006Y49530
X48006Y52070
X44958Y19050
X68326Y10795
X65786Y10795
X44958Y52070
X44958Y49530
X44958Y46990
X44958Y44450
X44958Y41910
X44958Y39370
X44958Y36830
X44958Y34290
X44958Y31750
X44958Y29210
X44958Y26670
X44958Y24130
X44958Y21590
X42418Y10795
X44958Y16510
X44958Y13970
X24638Y24130
X24638Y26670
X24638Y29210
X24638Y31750
X24638Y34290
X24638Y36830
X24638Y39370
X24638Y41910
X24638Y44450
X24638Y46990
X24638Y49530
X24638Y52070
X44958Y10795
X68326Y52070
X68326Y49530
X68326Y46990
X68326Y44450
X68326Y41910
X68326Y39370
X68326Y36830
X68326Y34290
X68326Y31750
X68326Y29210
X68326Y26670
X68326Y24130
X68326Y21590
X68326Y19050
T3
X8540Y4905
X14320Y4905
X31908Y4905
X37688Y4905
X55276Y4905
X61056Y4905
T4
X60706Y40640
X8890Y39370
X8890Y40640
X10160Y39370
X10160Y40640
X11430Y39370
X11430Y40640
X12700Y39370
X13970Y39370
X13970Y40640
X36068Y40640
X37338Y39370
X37338Y40640
X12700Y40640
X32258Y39370
X32258Y40640
X33528Y39370
X33528Y40640
X34798Y39370
X34798Y40640
X36068Y39370
X55626Y39370
X55626Y40640
X56896Y39370
X56896Y40640
X58166Y39370
X58166Y40640
X59436Y39370
X59436Y40640
X60706Y39370
T5
X11430Y8966
X15621Y30480
X10465Y4064
X12398Y4064
X11430Y4055
X9804Y4724
X13057Y4723
X11029Y10922
X12339Y10184
X7493Y19710
X14732Y2159
X9271Y23114
X16764Y21463
X13335Y14605
X16256Y12827
X14224Y12827
X15240Y12827
X16002Y10795
X11681Y5053
X10681Y5080
X8255Y7620
X8255Y8890
X11684Y49530
X12238Y34128
X11712Y37026
X2921Y7366
X2921Y8636
X6244Y9652
X6477Y10795
X9144Y46379
X15251Y46112
X9677Y47422
X15494Y47244
X15240Y52473
X20320Y22352
X12700Y38608
X10668Y48514
X11684Y34544
X10950Y37026
X12700Y50546
X12548Y31526
X15748Y31750
X11321Y32291
X15240Y32385
X4064Y17780
X3302Y19939
X4064Y40640
X3302Y6096
X14732Y48514
X8591Y37211
X13716Y49530
X7410Y35008
X14986Y36119
X14986Y35433
X18250Y36195
X17145Y33655
X15240Y34290
X17145Y34925
X12924Y34260
X17145Y32385
X9913Y31693
X12700Y29515
X10922Y28829
X11644Y28829
X12446Y28829
X10412Y32189
X15925Y28575
X12446Y36957
X17145Y31115
X16002Y38862
X35560Y50038
X34544Y49022
X36576Y50038
X37592Y49022
X33528Y48006
X38608Y48006
X30607Y49085
X30607Y50101
X38989Y50101
X30607Y51117
X30607Y53149
X38989Y53149
X30607Y48069
X33528Y46863
X38227Y46863
X32258Y45720
X37973Y45720
X27432Y44640
X27432Y57594
X42164Y57594
X42164Y56578
X42164Y55562
X42164Y53530
X42037Y45021
X44450Y40640
X44450Y43180
X42291Y46482
X44450Y48260
X41910Y50101
X41910Y48082
X39624Y43053
X41910Y52133
X43561Y52387
X45593Y53276
X44958Y57150
X41910Y51117
X44450Y50800
X27686Y50101
X27686Y56070
X25908Y51498
X24638Y57150
X30480Y42799
X25146Y35560
X28448Y41910
X29718Y11811
X27178Y10414
X44450Y38100
X26924Y7874
X25146Y50800
X24003Y53276
X23952Y22885
X32131Y6985
X29337Y1270
X37338Y9144
X38354Y6985
X30226Y21717
X45593Y3810
X45085Y9017
X35712Y10947
X34392Y11938
X37414Y16129
X40640Y19050
X40767Y15240
X37973Y12065
X28448Y40640
X25781Y22479
X44450Y45720
X25146Y33020
X30226Y23368
X44450Y15240
X26924Y22606
X26924Y25781
X26924Y27686
X23952Y19964
X23952Y15646
X23952Y12979
X24079Y4978
X33147Y9525
X41910Y9525
X40640Y4572
X26492Y19202
X27381Y16662
X31547Y19710
X27508Y6604
X30734Y33020
X30226Y35535
X30734Y30480
X29718Y24384
X34799Y6916
X30226Y36576
X42418Y27559
X42418Y25781
X38227Y40640
X34087Y31526
X33274Y33782
X34036Y34544
X36059Y33574
X36068Y32512
X41783Y30480
X36068Y21971
X41910Y34925
X33655Y23368
X29083Y31242
X33274Y25908
X37338Y29210
X36322Y25908
X39370Y27305
X33782Y36551
X37338Y36830
X32385Y36576
X33807Y29362
X39040Y35433
X39485Y31127
X27686Y48090
X27686Y47090
X27178Y9398
X31242Y42418
X27394Y15621
X26822Y6807
X30861Y27305
X35230Y31547
X40513Y36195
X33325Y34493
X33528Y28702
X33325Y33071
X34798Y33782
X30353Y29845
X30353Y28575
X37465Y26797
X39243Y19050
X38608Y19050
X41783Y31750
X34798Y8966
X38989Y30480
X33833Y4064
X35766Y4064
X34798Y4055
X33172Y4724
X36425Y4723
X34397Y10922
X35707Y10184
X30861Y19710
X38100Y2159
X32639Y23114
X40132Y21463
X36703Y14605
X39624Y12827
X37592Y12827
X38608Y12827
X39370Y10795
X35049Y5053
X34049Y5080
X31623Y7620
X31623Y8890
X35052Y49530
X35606Y34128
X35080Y37026
X26289Y7366
X26289Y8636
X29612Y9652
X29845Y10795
X32512Y46379
X38619Y46112
X33045Y47422
X38862Y47244
X38608Y52473
X43688Y22352
X14859Y40640
X34036Y48514
X35052Y34544
X34318Y37026
X36068Y50546
X35916Y31526
X39116Y31750
X34689Y32291
X38608Y32385
X27432Y17780
X26670Y19939
X27432Y40640
X26670Y6096
X38100Y48514
X31959Y37211
X37084Y49530
X30778Y35008
X38354Y36119
X38354Y35433
X41618Y36195
X40513Y33655
X38608Y34290
X40513Y34925
X36292Y34260
X40513Y32385
X33281Y31693
X36068Y29515
X34290Y28829
X35012Y28829
X35814Y28829
X33780Y32189
X39293Y28575
X35814Y36957
X40513Y31115
X39370Y38862
X58928Y50038
X57912Y49022
X59944Y50038
X60960Y49022
X56896Y48006
X61976Y48006
X53975Y49085
X53975Y50101
X62357Y50101
X53975Y51117
X53975Y53149
X62357Y53149
X53975Y48069
X56896Y46863
X61595Y46863
X55626Y45720
X61341Y45720
X50800Y44640
X50800Y57594
X65532Y57594
X65532Y56578
X65532Y55562
X65532Y53530
X65405Y45021
X67818Y40640
X67818Y43180
X65659Y46482
X67818Y48260
X65278Y50101
X65278Y48082
X62992Y43053
X65278Y52133
X66929Y52387
X68961Y53276
X68326Y57150
X65278Y51117
X67818Y50800
X51054Y50101
X51054Y56070
X49276Y51498
X48006Y57150
X53848Y42799
X48514Y35560
X51816Y41910
X53086Y11811
X50546Y10414
X67818Y38100
X50292Y7874
X48514Y50800
X47371Y53276
X47320Y22885
X55499Y6985
X52705Y1270
X60706Y9144
X61722Y6985
X53594Y21717
X68961Y3810
X68453Y9017
X59080Y10947
X57760Y11938
X60782Y16129
X64008Y19050
X64135Y15240
X61341Y12065
X51816Y40640
X49149Y22479
X67818Y45720
X48514Y33020
X53594Y23368
X67818Y15240
X50292Y22606
X50292Y25781
X50292Y27686
X47320Y19964
X47320Y15646
X47320Y12979
X47447Y4978
X56515Y9525
X65278Y9525
X64008Y4572
X49860Y19202
X50749Y16662
X54915Y19710
X50876Y6604
X54102Y33020
X53594Y35535
X54102Y30480
X53086Y24384
X58167Y6916
X53594Y36576
X65786Y27559
X65786Y25781
X61595Y40640
X57455Y31526
X56642Y33782
X57404Y34544
X59427Y33574
X59436Y32512
X65151Y30480
X59436Y21971
X65278Y34925
X57023Y23368
X52451Y31242
X56642Y25908
X60706Y29210
X59690Y25908
X62738Y27305
X57150Y36551
X60706Y36830
X55753Y36576
X57175Y29362
X62408Y35433
X62853Y31127
X51054Y48090
X51054Y47090
X50546Y9398
X54610Y42418
X50762Y15621
X50190Y6807
X54229Y27305
X58598Y31547
X63881Y36195
X56693Y34493
X56896Y28702
X56693Y33071
X58166Y33782
X53721Y29845
X53721Y28575
X60833Y26797
X62611Y19050
X61976Y19050
X65151Y31750
X58166Y8966
X62357Y30480
X57201Y4064
X59134Y4064
X58166Y4055
X56540Y4724
X59793Y4723
X57765Y10922
X59075Y10184
X54229Y19710
X61468Y2159
X56007Y23114
X63500Y21463
X60071Y14605
X62992Y12827
X60960Y12827
X61976Y12827
X12192Y50038
X58417Y5053
X57417Y5080
X54991Y7620
X54991Y8890
X58420Y49530
X58974Y34128
X58448Y37026
X49657Y7366
X49657Y8636
X52980Y9652
X53213Y10795
X55880Y46379
X61987Y46112
X56413Y47422
X62230Y47244
X61976Y52473
X67056Y22352
X59436Y38608
X57404Y48514
X58420Y34544
X57686Y37026
X59436Y50546
X59284Y31526
X62484Y31750
X58057Y32291
X61976Y32385
X50800Y17780
X50038Y19939
X50800Y40640
X50038Y6096
X61468Y48514
X55327Y37211
X60452Y49530
X54146Y35008
X61722Y36119
X61722Y35433
X64986Y36195
X63881Y33655
X61976Y34290
X63881Y34925
X59660Y34260
X63881Y32385
X56649Y31693
X59436Y29515
X57658Y28829
X58380Y28829
X59182Y28829
X57148Y32189
X62661Y28575
X59182Y36957
X63881Y31115
X62738Y38862
X11176Y49022
X13208Y50038
X14224Y49022
X10160Y48006
X15240Y48006
X7239Y49085
X7239Y50101
X15621Y50101
X7239Y51117
X7239Y53149
X15621Y53149
X7239Y48069
X10160Y46863
X14859Y46863
X8890Y45720
X14605Y45720
X4064Y44640
X4064Y57594
X18796Y57594
X18796Y56578
X18796Y55562
X18796Y53530
X18669Y45021
X21082Y40640
X21082Y43180
X18923Y46482
X21082Y48260
X18542Y50101
X18542Y48082
X16256Y43053
X18542Y52133
X20193Y52387
X22225Y53276
X21590Y57150
X18542Y51117
X21082Y50800
X4318Y50101
X4318Y56070
X2540Y51498
X36068Y38608
X1270Y57150
X7112Y42799
X1778Y35560
X5080Y41910
X6350Y11811
X3810Y10414
X21082Y38100
X3556Y7874
X1778Y50800
X635Y53276
X584Y22885
X8763Y6985
X5969Y1270
X13970Y9144
X14986Y6985
X6858Y21717
X22225Y3810
X21717Y9017
X12344Y10947
X11024Y11938
X14046Y16129
X17272Y19050
X17399Y15240
X14605Y12065
X5080Y40640
X2413Y22479
X21082Y45720
X1778Y33020
X6858Y23368
X21082Y15240
X3556Y22606
X3556Y25781
X3556Y27686
X584Y19964
X584Y15646
X584Y12979
X711Y4978
X9779Y9525
X18542Y9525
X17272Y4572
X3124Y19202
X4013Y16662
X8179Y19710
X4140Y6604
X7366Y33020
X6858Y35535
X7366Y30480
X6350Y24384
X11431Y6916
X6858Y36576
X19050Y27559
X19050Y25781
X10719Y31526
X9906Y33782
X10668Y34544
X12691Y33574
X12700Y32512
X18415Y30480
X12700Y21971
X18542Y34925
X10287Y23368
X5715Y31242
X9906Y25908
X13970Y29210
X12954Y25908
X16002Y27305
X10414Y36551
X13970Y36830
X9017Y36576
X10439Y29362
X15672Y35433
X16117Y31127
X4318Y48090
X4318Y47090
X3810Y9398
X7874Y42418
X4026Y15621
X3454Y6807
X7493Y27305
X11862Y31547
X17145Y36195
X9957Y34493
X10160Y28702
X9957Y33071
X11430Y33782
X6985Y29845
X6985Y28575
X14097Y26797
X15875Y19050
X15240Y19050
X18415Y31750
X62738Y10795
M30