G04 EAGLE Gerber RS-274X export*
G75*
%MOMM*%
%FSLAX34Y34*%
%LPD*%
%INSolderpaste Top*%
%IPPOS*%
%AMOC8*
5,1,8,0,0,1.08239X$1,22.5*%
G01*
%ADD10R,1.800000X0.500000*%
%ADD11C,0.500000*%
%ADD12R,0.500000X1.800000*%
%ADD13C,0.102000*%
%ADD14C,0.100000*%
%ADD15C,0.096000*%
%ADD16C,0.099000*%
%ADD17C,0.104000*%
%ADD18C,0.100800*%
%ADD19C,0.300000*%
%ADD20R,0.637500X0.250000*%
%ADD21R,0.640000X0.500000*%
%ADD22C,0.102500*%
%ADD23C,0.200000*%
%ADD24R,0.250000X0.550000*%
%ADD25R,1.400000X1.400000*%
%ADD26R,0.200000X0.350000*%
%ADD27R,1.500000X0.150000*%
%ADD28C,0.105000*%

G36*
X390980Y43951D02*
X390980Y43951D01*
X390981Y43951D01*
X392049Y43970D01*
X392056Y43975D01*
X392060Y43971D01*
X393097Y44227D01*
X393102Y44234D01*
X393108Y44231D01*
X394062Y44712D01*
X394066Y44719D01*
X394071Y44718D01*
X394895Y45399D01*
X394896Y45407D01*
X394902Y45407D01*
X395553Y46254D01*
X395553Y46262D01*
X395559Y46263D01*
X396006Y47234D01*
X396004Y47242D01*
X396009Y47244D01*
X396228Y48290D01*
X396225Y48297D01*
X396229Y48300D01*
X396229Y60300D01*
X396226Y60305D01*
X396229Y60308D01*
X396049Y61403D01*
X396043Y61409D01*
X396046Y61414D01*
X395627Y62442D01*
X395620Y62446D01*
X395622Y62451D01*
X394985Y63360D01*
X394977Y63363D01*
X394977Y63368D01*
X394154Y64112D01*
X394146Y64113D01*
X394145Y64119D01*
X393177Y64661D01*
X393168Y64660D01*
X393166Y64666D01*
X392102Y64979D01*
X392097Y64977D01*
X392093Y64977D01*
X392091Y64981D01*
X390983Y65049D01*
X390977Y65045D01*
X390973Y65049D01*
X389865Y64879D01*
X389859Y64873D01*
X389854Y64876D01*
X388812Y64464D01*
X388808Y64457D01*
X388803Y64459D01*
X387878Y63825D01*
X387876Y63817D01*
X387870Y63818D01*
X387110Y62995D01*
X387109Y62986D01*
X387103Y62986D01*
X386546Y62014D01*
X386547Y62006D01*
X386541Y62004D01*
X386214Y60932D01*
X386217Y60924D01*
X386212Y60921D01*
X386131Y59804D01*
X386132Y59801D01*
X386131Y59800D01*
X386131Y47800D01*
X386136Y47793D01*
X386132Y47789D01*
X386351Y46845D01*
X386357Y46839D01*
X386355Y46834D01*
X386779Y45962D01*
X386786Y45959D01*
X386784Y45953D01*
X387391Y45197D01*
X387399Y45195D01*
X387399Y45189D01*
X388159Y44588D01*
X388168Y44588D01*
X388169Y44582D01*
X389044Y44164D01*
X389052Y44166D01*
X389054Y44161D01*
X390000Y43949D01*
X390007Y43952D01*
X390011Y43947D01*
X390980Y43951D01*
G37*
G36*
X157300Y43951D02*
X157300Y43951D01*
X157301Y43951D01*
X158369Y43970D01*
X158376Y43975D01*
X158380Y43971D01*
X159417Y44227D01*
X159422Y44234D01*
X159428Y44231D01*
X160382Y44712D01*
X160386Y44719D01*
X160391Y44718D01*
X161215Y45399D01*
X161216Y45407D01*
X161222Y45407D01*
X161873Y46254D01*
X161873Y46262D01*
X161879Y46263D01*
X162326Y47234D01*
X162324Y47242D01*
X162329Y47244D01*
X162548Y48290D01*
X162545Y48297D01*
X162549Y48300D01*
X162549Y60300D01*
X162546Y60305D01*
X162549Y60308D01*
X162369Y61403D01*
X162363Y61409D01*
X162366Y61414D01*
X161947Y62442D01*
X161940Y62446D01*
X161942Y62451D01*
X161305Y63360D01*
X161297Y63363D01*
X161297Y63368D01*
X160474Y64112D01*
X160466Y64113D01*
X160465Y64119D01*
X159497Y64661D01*
X159488Y64660D01*
X159486Y64666D01*
X158422Y64979D01*
X158417Y64977D01*
X158413Y64977D01*
X158411Y64981D01*
X157303Y65049D01*
X157297Y65045D01*
X157293Y65049D01*
X156185Y64879D01*
X156179Y64873D01*
X156174Y64876D01*
X155132Y64464D01*
X155128Y64457D01*
X155123Y64459D01*
X154198Y63825D01*
X154196Y63817D01*
X154190Y63818D01*
X153430Y62995D01*
X153429Y62986D01*
X153423Y62986D01*
X152866Y62014D01*
X152867Y62006D01*
X152861Y62004D01*
X152534Y60932D01*
X152537Y60924D01*
X152532Y60921D01*
X152451Y59804D01*
X152452Y59801D01*
X152451Y59800D01*
X152451Y47800D01*
X152456Y47793D01*
X152452Y47789D01*
X152671Y46845D01*
X152677Y46839D01*
X152675Y46834D01*
X153099Y45962D01*
X153106Y45959D01*
X153104Y45953D01*
X153711Y45197D01*
X153719Y45195D01*
X153719Y45189D01*
X154479Y44588D01*
X154488Y44588D01*
X154489Y44582D01*
X155364Y44164D01*
X155372Y44166D01*
X155374Y44161D01*
X156320Y43949D01*
X156327Y43952D01*
X156331Y43947D01*
X157300Y43951D01*
G37*
G36*
X624660Y43951D02*
X624660Y43951D01*
X624661Y43951D01*
X625729Y43970D01*
X625736Y43975D01*
X625740Y43971D01*
X626777Y44227D01*
X626782Y44234D01*
X626788Y44231D01*
X627742Y44712D01*
X627746Y44719D01*
X627751Y44718D01*
X628575Y45399D01*
X628576Y45407D01*
X628582Y45407D01*
X629233Y46254D01*
X629233Y46262D01*
X629239Y46263D01*
X629686Y47234D01*
X629684Y47242D01*
X629689Y47244D01*
X629908Y48290D01*
X629905Y48297D01*
X629909Y48300D01*
X629909Y60300D01*
X629906Y60305D01*
X629909Y60308D01*
X629729Y61403D01*
X629723Y61409D01*
X629726Y61414D01*
X629307Y62442D01*
X629300Y62446D01*
X629302Y62451D01*
X628665Y63360D01*
X628657Y63363D01*
X628657Y63368D01*
X627834Y64112D01*
X627826Y64113D01*
X627825Y64119D01*
X626857Y64661D01*
X626848Y64660D01*
X626846Y64666D01*
X625782Y64979D01*
X625777Y64977D01*
X625773Y64977D01*
X625771Y64981D01*
X624663Y65049D01*
X624657Y65045D01*
X624653Y65049D01*
X623545Y64879D01*
X623539Y64873D01*
X623534Y64876D01*
X622492Y64464D01*
X622488Y64457D01*
X622483Y64459D01*
X621558Y63825D01*
X621556Y63817D01*
X621550Y63818D01*
X620790Y62995D01*
X620789Y62986D01*
X620783Y62986D01*
X620226Y62014D01*
X620227Y62006D01*
X620221Y62004D01*
X619894Y60932D01*
X619897Y60924D01*
X619892Y60921D01*
X619811Y59804D01*
X619812Y59801D01*
X619811Y59800D01*
X619811Y47800D01*
X619816Y47793D01*
X619812Y47789D01*
X620031Y46845D01*
X620037Y46839D01*
X620035Y46834D01*
X620459Y45962D01*
X620466Y45959D01*
X620464Y45953D01*
X621071Y45197D01*
X621079Y45195D01*
X621079Y45189D01*
X621839Y44588D01*
X621848Y44588D01*
X621849Y44582D01*
X622724Y44164D01*
X622732Y44166D01*
X622734Y44161D01*
X623680Y43949D01*
X623687Y43952D01*
X623691Y43947D01*
X624660Y43951D01*
G37*
G36*
X539241Y43960D02*
X539241Y43960D01*
X539248Y43965D01*
X539252Y43961D01*
X540304Y44211D01*
X540309Y44217D01*
X540314Y44214D01*
X541284Y44691D01*
X541287Y44699D01*
X541293Y44697D01*
X542132Y45378D01*
X542134Y45386D01*
X542140Y45386D01*
X542806Y46237D01*
X542807Y46245D01*
X542812Y46246D01*
X543273Y47223D01*
X543271Y47231D01*
X543277Y47234D01*
X543508Y48289D01*
X543505Y48297D01*
X543509Y48300D01*
X543509Y60300D01*
X543505Y60305D01*
X543509Y60308D01*
X543316Y61414D01*
X543310Y61419D01*
X543313Y61424D01*
X542880Y62459D01*
X542873Y62463D01*
X542875Y62468D01*
X542222Y63381D01*
X542214Y63383D01*
X542215Y63389D01*
X541376Y64133D01*
X541367Y64134D01*
X541367Y64139D01*
X540383Y64678D01*
X540375Y64677D01*
X540373Y64682D01*
X539294Y64989D01*
X539286Y64986D01*
X539283Y64991D01*
X538163Y65049D01*
X538158Y65046D01*
X538155Y65049D01*
X537109Y64931D01*
X537103Y64925D01*
X537098Y64929D01*
X536104Y64581D01*
X536100Y64574D01*
X536095Y64576D01*
X535203Y64016D01*
X535201Y64009D01*
X535195Y64009D01*
X534451Y63265D01*
X534449Y63257D01*
X534444Y63257D01*
X533884Y62365D01*
X533884Y62357D01*
X533879Y62356D01*
X533531Y61362D01*
X533534Y61354D01*
X533529Y61351D01*
X533411Y60306D01*
X533413Y60302D01*
X533411Y60300D01*
X533411Y48300D01*
X533414Y48295D01*
X533411Y48292D01*
X533569Y47296D01*
X533575Y47290D01*
X533572Y47285D01*
X533947Y46349D01*
X533954Y46345D01*
X533952Y46339D01*
X534526Y45510D01*
X534534Y45507D01*
X534533Y45502D01*
X535277Y44821D01*
X535286Y44820D01*
X535286Y44814D01*
X536163Y44316D01*
X536172Y44317D01*
X536174Y44312D01*
X537139Y44021D01*
X537147Y44024D01*
X537150Y44019D01*
X538157Y43951D01*
X538159Y43952D01*
X538160Y43951D01*
X539241Y43960D01*
G37*
G36*
X305561Y43960D02*
X305561Y43960D01*
X305568Y43965D01*
X305572Y43961D01*
X306624Y44211D01*
X306629Y44217D01*
X306634Y44214D01*
X307604Y44691D01*
X307607Y44699D01*
X307613Y44697D01*
X308452Y45378D01*
X308454Y45386D01*
X308460Y45386D01*
X309126Y46237D01*
X309127Y46245D01*
X309132Y46246D01*
X309593Y47223D01*
X309591Y47231D01*
X309597Y47234D01*
X309828Y48289D01*
X309825Y48297D01*
X309829Y48300D01*
X309829Y60300D01*
X309825Y60305D01*
X309829Y60308D01*
X309636Y61414D01*
X309630Y61419D01*
X309633Y61424D01*
X309200Y62459D01*
X309193Y62463D01*
X309195Y62468D01*
X308542Y63381D01*
X308534Y63383D01*
X308535Y63389D01*
X307696Y64133D01*
X307687Y64134D01*
X307687Y64139D01*
X306703Y64678D01*
X306695Y64677D01*
X306693Y64682D01*
X305614Y64989D01*
X305606Y64986D01*
X305603Y64991D01*
X304483Y65049D01*
X304478Y65046D01*
X304475Y65049D01*
X303429Y64931D01*
X303423Y64925D01*
X303418Y64929D01*
X302424Y64581D01*
X302420Y64574D01*
X302415Y64576D01*
X301523Y64016D01*
X301521Y64009D01*
X301515Y64009D01*
X300771Y63265D01*
X300769Y63257D01*
X300764Y63257D01*
X300204Y62365D01*
X300204Y62357D01*
X300199Y62356D01*
X299851Y61362D01*
X299854Y61354D01*
X299849Y61351D01*
X299731Y60306D01*
X299733Y60302D01*
X299731Y60300D01*
X299731Y48300D01*
X299734Y48295D01*
X299731Y48292D01*
X299889Y47296D01*
X299895Y47290D01*
X299892Y47285D01*
X300267Y46349D01*
X300274Y46345D01*
X300272Y46339D01*
X300846Y45510D01*
X300854Y45507D01*
X300853Y45502D01*
X301597Y44821D01*
X301606Y44820D01*
X301606Y44814D01*
X302483Y44316D01*
X302492Y44317D01*
X302494Y44312D01*
X303459Y44021D01*
X303467Y44024D01*
X303470Y44019D01*
X304477Y43951D01*
X304479Y43952D01*
X304480Y43951D01*
X305561Y43960D01*
G37*
G36*
X71881Y43960D02*
X71881Y43960D01*
X71888Y43965D01*
X71892Y43961D01*
X72944Y44211D01*
X72949Y44217D01*
X72954Y44214D01*
X73924Y44691D01*
X73927Y44699D01*
X73933Y44697D01*
X74772Y45378D01*
X74774Y45386D01*
X74780Y45386D01*
X75446Y46237D01*
X75447Y46245D01*
X75452Y46246D01*
X75913Y47223D01*
X75911Y47231D01*
X75917Y47234D01*
X76148Y48289D01*
X76145Y48297D01*
X76149Y48300D01*
X76149Y60300D01*
X76145Y60305D01*
X76149Y60308D01*
X75956Y61414D01*
X75950Y61419D01*
X75953Y61424D01*
X75520Y62459D01*
X75513Y62463D01*
X75515Y62468D01*
X74862Y63381D01*
X74854Y63383D01*
X74855Y63389D01*
X74016Y64133D01*
X74007Y64134D01*
X74007Y64139D01*
X73023Y64678D01*
X73015Y64677D01*
X73013Y64682D01*
X71934Y64989D01*
X71926Y64986D01*
X71923Y64991D01*
X70803Y65049D01*
X70798Y65046D01*
X70795Y65049D01*
X69749Y64931D01*
X69743Y64925D01*
X69738Y64929D01*
X68744Y64581D01*
X68740Y64574D01*
X68735Y64576D01*
X67843Y64016D01*
X67841Y64009D01*
X67835Y64009D01*
X67091Y63265D01*
X67089Y63257D01*
X67084Y63257D01*
X66524Y62365D01*
X66524Y62357D01*
X66519Y62356D01*
X66171Y61362D01*
X66174Y61354D01*
X66169Y61351D01*
X66051Y60306D01*
X66053Y60302D01*
X66051Y60300D01*
X66051Y48300D01*
X66054Y48295D01*
X66051Y48292D01*
X66209Y47296D01*
X66215Y47290D01*
X66212Y47285D01*
X66587Y46349D01*
X66594Y46345D01*
X66592Y46339D01*
X67166Y45510D01*
X67174Y45507D01*
X67173Y45502D01*
X67917Y44821D01*
X67926Y44820D01*
X67926Y44814D01*
X68803Y44316D01*
X68812Y44317D01*
X68814Y44312D01*
X69779Y44021D01*
X69787Y44024D01*
X69790Y44019D01*
X70797Y43951D01*
X70799Y43952D01*
X70800Y43951D01*
X71881Y43960D01*
G37*
G36*
X625164Y4455D02*
X625164Y4455D01*
X625167Y4451D01*
X626243Y4606D01*
X626248Y4612D01*
X626253Y4609D01*
X627267Y4999D01*
X627271Y5006D01*
X627277Y5005D01*
X628179Y5611D01*
X628181Y5619D01*
X628187Y5618D01*
X628931Y6410D01*
X628932Y6418D01*
X628938Y6418D01*
X629487Y7356D01*
X629486Y7364D01*
X629492Y7366D01*
X629819Y8402D01*
X629816Y8410D01*
X629821Y8413D01*
X629909Y9496D01*
X629907Y9499D01*
X629909Y9500D01*
X629909Y15500D01*
X629906Y15504D01*
X629909Y15506D01*
X629759Y16639D01*
X629753Y16645D01*
X629756Y16650D01*
X629358Y17720D01*
X629351Y17724D01*
X629353Y17730D01*
X628726Y18685D01*
X628718Y18688D01*
X628719Y18693D01*
X627896Y19485D01*
X627888Y19486D01*
X627887Y19492D01*
X626908Y20081D01*
X626900Y20080D01*
X626898Y20085D01*
X625813Y20441D01*
X625805Y20439D01*
X625802Y20443D01*
X624665Y20549D01*
X624656Y20544D01*
X624651Y20548D01*
X623514Y20341D01*
X623508Y20335D01*
X623503Y20338D01*
X622441Y19883D01*
X622437Y19876D01*
X622431Y19878D01*
X621496Y19198D01*
X621494Y19190D01*
X621488Y19191D01*
X620728Y18320D01*
X620728Y18312D01*
X620722Y18311D01*
X620175Y17292D01*
X620176Y17284D01*
X620171Y17282D01*
X620167Y17269D01*
X620154Y17220D01*
X620153Y17220D01*
X620154Y17220D01*
X620140Y17171D01*
X620126Y17121D01*
X620113Y17072D01*
X620099Y17023D01*
X620086Y16974D01*
X620072Y16924D01*
X620059Y16875D01*
X620045Y16826D01*
X620031Y16777D01*
X620018Y16727D01*
X620004Y16678D01*
X619991Y16629D01*
X619977Y16580D01*
X619964Y16530D01*
X619950Y16481D01*
X619937Y16432D01*
X619936Y16432D01*
X619923Y16383D01*
X619909Y16333D01*
X619864Y16168D01*
X619867Y16160D01*
X619862Y16157D01*
X619811Y15002D01*
X619812Y15001D01*
X619811Y15000D01*
X619811Y9000D01*
X619815Y8994D01*
X619812Y8991D01*
X620024Y7910D01*
X620030Y7905D01*
X620027Y7900D01*
X620474Y6894D01*
X620481Y6890D01*
X620479Y6884D01*
X621139Y6003D01*
X621147Y6000D01*
X621147Y5995D01*
X621986Y5282D01*
X621994Y5282D01*
X621995Y5276D01*
X622972Y4768D01*
X622980Y4769D01*
X622982Y4764D01*
X624047Y4486D01*
X624055Y4489D01*
X624058Y4485D01*
X625159Y4451D01*
X625164Y4455D01*
G37*
G36*
X157804Y4455D02*
X157804Y4455D01*
X157807Y4451D01*
X158883Y4606D01*
X158888Y4612D01*
X158893Y4609D01*
X159907Y4999D01*
X159911Y5006D01*
X159917Y5005D01*
X160819Y5611D01*
X160821Y5619D01*
X160827Y5618D01*
X161571Y6410D01*
X161572Y6418D01*
X161578Y6418D01*
X162127Y7356D01*
X162126Y7364D01*
X162132Y7366D01*
X162459Y8402D01*
X162456Y8410D01*
X162461Y8413D01*
X162549Y9496D01*
X162547Y9499D01*
X162549Y9500D01*
X162549Y15500D01*
X162546Y15504D01*
X162549Y15506D01*
X162399Y16639D01*
X162393Y16645D01*
X162396Y16650D01*
X161998Y17720D01*
X161991Y17724D01*
X161993Y17730D01*
X161366Y18685D01*
X161358Y18688D01*
X161359Y18693D01*
X160536Y19485D01*
X160528Y19486D01*
X160527Y19492D01*
X159548Y20081D01*
X159540Y20080D01*
X159538Y20085D01*
X158453Y20441D01*
X158445Y20439D01*
X158442Y20443D01*
X157305Y20549D01*
X157296Y20544D01*
X157291Y20548D01*
X156154Y20341D01*
X156148Y20335D01*
X156143Y20338D01*
X155081Y19883D01*
X155077Y19876D01*
X155071Y19878D01*
X154136Y19198D01*
X154134Y19190D01*
X154128Y19191D01*
X153368Y18320D01*
X153368Y18312D01*
X153362Y18311D01*
X152815Y17292D01*
X152816Y17284D01*
X152811Y17282D01*
X152807Y17269D01*
X152794Y17220D01*
X152793Y17220D01*
X152794Y17220D01*
X152780Y17171D01*
X152766Y17121D01*
X152753Y17072D01*
X152739Y17023D01*
X152726Y16974D01*
X152712Y16924D01*
X152699Y16875D01*
X152685Y16826D01*
X152671Y16777D01*
X152658Y16727D01*
X152644Y16678D01*
X152631Y16629D01*
X152617Y16580D01*
X152604Y16530D01*
X152590Y16481D01*
X152577Y16432D01*
X152576Y16432D01*
X152563Y16383D01*
X152549Y16333D01*
X152504Y16168D01*
X152507Y16160D01*
X152502Y16157D01*
X152451Y15002D01*
X152452Y15001D01*
X152451Y15000D01*
X152451Y9000D01*
X152455Y8994D01*
X152452Y8991D01*
X152664Y7910D01*
X152670Y7905D01*
X152667Y7900D01*
X153114Y6894D01*
X153121Y6890D01*
X153119Y6884D01*
X153779Y6003D01*
X153787Y6000D01*
X153787Y5995D01*
X154626Y5282D01*
X154634Y5282D01*
X154635Y5276D01*
X155612Y4768D01*
X155620Y4769D01*
X155622Y4764D01*
X156687Y4486D01*
X156695Y4489D01*
X156698Y4485D01*
X157799Y4451D01*
X157804Y4455D01*
G37*
G36*
X391484Y4455D02*
X391484Y4455D01*
X391487Y4451D01*
X392563Y4606D01*
X392568Y4612D01*
X392573Y4609D01*
X393587Y4999D01*
X393591Y5006D01*
X393597Y5005D01*
X394499Y5611D01*
X394501Y5619D01*
X394507Y5618D01*
X395251Y6410D01*
X395252Y6418D01*
X395258Y6418D01*
X395807Y7356D01*
X395806Y7364D01*
X395812Y7366D01*
X396139Y8402D01*
X396136Y8410D01*
X396141Y8413D01*
X396229Y9496D01*
X396227Y9499D01*
X396229Y9500D01*
X396229Y15500D01*
X396226Y15504D01*
X396229Y15506D01*
X396079Y16639D01*
X396073Y16645D01*
X396076Y16650D01*
X395678Y17720D01*
X395671Y17724D01*
X395673Y17730D01*
X395046Y18685D01*
X395038Y18688D01*
X395039Y18693D01*
X394216Y19485D01*
X394208Y19486D01*
X394207Y19492D01*
X393228Y20081D01*
X393220Y20080D01*
X393218Y20085D01*
X392133Y20441D01*
X392125Y20439D01*
X392122Y20443D01*
X390985Y20549D01*
X390976Y20544D01*
X390971Y20548D01*
X389834Y20341D01*
X389828Y20335D01*
X389823Y20338D01*
X388761Y19883D01*
X388757Y19876D01*
X388751Y19878D01*
X387816Y19198D01*
X387814Y19190D01*
X387808Y19191D01*
X387048Y18320D01*
X387048Y18312D01*
X387042Y18311D01*
X386495Y17292D01*
X386496Y17284D01*
X386491Y17282D01*
X386487Y17269D01*
X386474Y17220D01*
X386473Y17220D01*
X386474Y17220D01*
X386460Y17171D01*
X386446Y17121D01*
X386433Y17072D01*
X386419Y17023D01*
X386406Y16974D01*
X386392Y16924D01*
X386379Y16875D01*
X386365Y16826D01*
X386351Y16777D01*
X386338Y16727D01*
X386324Y16678D01*
X386311Y16629D01*
X386297Y16580D01*
X386284Y16530D01*
X386270Y16481D01*
X386257Y16432D01*
X386256Y16432D01*
X386243Y16383D01*
X386229Y16333D01*
X386184Y16168D01*
X386187Y16160D01*
X386182Y16157D01*
X386131Y15002D01*
X386132Y15001D01*
X386131Y15000D01*
X386131Y9000D01*
X386135Y8994D01*
X386132Y8991D01*
X386344Y7910D01*
X386350Y7905D01*
X386347Y7900D01*
X386794Y6894D01*
X386801Y6890D01*
X386799Y6884D01*
X387459Y6003D01*
X387467Y6000D01*
X387467Y5995D01*
X388306Y5282D01*
X388314Y5282D01*
X388315Y5276D01*
X389292Y4768D01*
X389300Y4769D01*
X389302Y4764D01*
X390367Y4486D01*
X390375Y4489D01*
X390378Y4485D01*
X391479Y4451D01*
X391484Y4455D01*
G37*
G36*
X304982Y4455D02*
X304982Y4455D01*
X304987Y4451D01*
X306074Y4596D01*
X306080Y4602D01*
X306085Y4599D01*
X307113Y4983D01*
X307118Y4989D01*
X307123Y4988D01*
X308040Y5590D01*
X308043Y5598D01*
X308049Y5597D01*
X308809Y6389D01*
X308810Y6397D01*
X308816Y6398D01*
X309380Y7339D01*
X309380Y7342D01*
X309381Y7343D01*
X309380Y7345D01*
X309379Y7347D01*
X309385Y7349D01*
X309726Y8392D01*
X309724Y8400D01*
X309728Y8403D01*
X309829Y9496D01*
X309827Y9498D01*
X309829Y9500D01*
X309829Y15500D01*
X309827Y15503D01*
X309829Y15505D01*
X309728Y16597D01*
X309723Y16603D01*
X309726Y16608D01*
X309385Y17651D01*
X309378Y17656D01*
X309380Y17661D01*
X308816Y18602D01*
X308808Y18605D01*
X308809Y18611D01*
X308049Y19403D01*
X308041Y19404D01*
X308040Y19410D01*
X307123Y20013D01*
X307115Y20012D01*
X307113Y20018D01*
X306085Y20401D01*
X306077Y20399D01*
X306074Y20404D01*
X304987Y20549D01*
X304979Y20545D01*
X304975Y20549D01*
X303838Y20443D01*
X303832Y20438D01*
X303827Y20441D01*
X302742Y20085D01*
X302737Y20078D01*
X302732Y20081D01*
X301753Y19492D01*
X301750Y19484D01*
X301744Y19485D01*
X300921Y18693D01*
X300920Y18685D01*
X300914Y18685D01*
X300287Y17730D01*
X300288Y17722D01*
X300282Y17720D01*
X299884Y16650D01*
X299886Y16642D01*
X299881Y16639D01*
X299731Y15506D01*
X299734Y15502D01*
X299731Y15500D01*
X299731Y9500D01*
X299734Y9496D01*
X299731Y9494D01*
X299881Y8361D01*
X299887Y8355D01*
X299884Y8350D01*
X300282Y7280D01*
X300289Y7276D01*
X300287Y7270D01*
X300914Y6315D01*
X300922Y6312D01*
X300921Y6307D01*
X301744Y5515D01*
X301752Y5514D01*
X301753Y5508D01*
X302732Y4919D01*
X302740Y4920D01*
X302742Y4915D01*
X303827Y4559D01*
X303835Y4562D01*
X303838Y4557D01*
X304975Y4451D01*
X304982Y4455D01*
G37*
G36*
X71302Y4455D02*
X71302Y4455D01*
X71307Y4451D01*
X72394Y4596D01*
X72400Y4602D01*
X72405Y4599D01*
X73433Y4983D01*
X73438Y4989D01*
X73443Y4988D01*
X74360Y5590D01*
X74363Y5598D01*
X74369Y5597D01*
X75129Y6389D01*
X75130Y6397D01*
X75136Y6398D01*
X75700Y7339D01*
X75700Y7342D01*
X75701Y7343D01*
X75700Y7345D01*
X75699Y7347D01*
X75705Y7349D01*
X76046Y8392D01*
X76044Y8400D01*
X76048Y8403D01*
X76149Y9496D01*
X76147Y9498D01*
X76149Y9500D01*
X76149Y15500D01*
X76147Y15503D01*
X76149Y15505D01*
X76048Y16597D01*
X76043Y16603D01*
X76046Y16608D01*
X75705Y17651D01*
X75698Y17656D01*
X75700Y17661D01*
X75136Y18602D01*
X75128Y18605D01*
X75129Y18611D01*
X74369Y19403D01*
X74361Y19404D01*
X74360Y19410D01*
X73443Y20013D01*
X73435Y20012D01*
X73433Y20018D01*
X72405Y20401D01*
X72397Y20399D01*
X72394Y20404D01*
X71307Y20549D01*
X71299Y20545D01*
X71295Y20549D01*
X70158Y20443D01*
X70152Y20438D01*
X70147Y20441D01*
X69062Y20085D01*
X69057Y20078D01*
X69052Y20081D01*
X68073Y19492D01*
X68070Y19484D01*
X68064Y19485D01*
X67241Y18693D01*
X67240Y18685D01*
X67234Y18685D01*
X66607Y17730D01*
X66608Y17722D01*
X66602Y17720D01*
X66204Y16650D01*
X66206Y16642D01*
X66201Y16639D01*
X66051Y15506D01*
X66054Y15502D01*
X66051Y15500D01*
X66051Y9500D01*
X66054Y9496D01*
X66051Y9494D01*
X66201Y8361D01*
X66207Y8355D01*
X66204Y8350D01*
X66602Y7280D01*
X66609Y7276D01*
X66607Y7270D01*
X67234Y6315D01*
X67242Y6312D01*
X67241Y6307D01*
X68064Y5515D01*
X68072Y5514D01*
X68073Y5508D01*
X69052Y4919D01*
X69060Y4920D01*
X69062Y4915D01*
X70147Y4559D01*
X70155Y4562D01*
X70158Y4557D01*
X71295Y4451D01*
X71302Y4455D01*
G37*
G36*
X538662Y4455D02*
X538662Y4455D01*
X538667Y4451D01*
X539754Y4596D01*
X539760Y4602D01*
X539765Y4599D01*
X540793Y4983D01*
X540798Y4989D01*
X540803Y4988D01*
X541720Y5590D01*
X541723Y5598D01*
X541729Y5597D01*
X542489Y6389D01*
X542490Y6397D01*
X542496Y6398D01*
X543060Y7339D01*
X543060Y7342D01*
X543061Y7343D01*
X543060Y7345D01*
X543059Y7347D01*
X543065Y7349D01*
X543406Y8392D01*
X543404Y8400D01*
X543408Y8403D01*
X543509Y9496D01*
X543507Y9498D01*
X543509Y9500D01*
X543509Y15500D01*
X543507Y15503D01*
X543509Y15505D01*
X543408Y16597D01*
X543403Y16603D01*
X543406Y16608D01*
X543065Y17651D01*
X543058Y17656D01*
X543060Y17661D01*
X542496Y18602D01*
X542488Y18605D01*
X542489Y18611D01*
X541729Y19403D01*
X541721Y19404D01*
X541720Y19410D01*
X540803Y20013D01*
X540795Y20012D01*
X540793Y20018D01*
X539765Y20401D01*
X539757Y20399D01*
X539754Y20404D01*
X538667Y20549D01*
X538659Y20545D01*
X538655Y20549D01*
X537518Y20443D01*
X537512Y20438D01*
X537507Y20441D01*
X536422Y20085D01*
X536417Y20078D01*
X536412Y20081D01*
X535433Y19492D01*
X535430Y19484D01*
X535424Y19485D01*
X534601Y18693D01*
X534600Y18685D01*
X534594Y18685D01*
X533967Y17730D01*
X533968Y17722D01*
X533962Y17720D01*
X533564Y16650D01*
X533566Y16642D01*
X533561Y16639D01*
X533411Y15506D01*
X533414Y15502D01*
X533411Y15500D01*
X533411Y9500D01*
X533414Y9496D01*
X533411Y9494D01*
X533561Y8361D01*
X533567Y8355D01*
X533564Y8350D01*
X533962Y7280D01*
X533969Y7276D01*
X533967Y7270D01*
X534594Y6315D01*
X534602Y6312D01*
X534601Y6307D01*
X535424Y5515D01*
X535432Y5514D01*
X535433Y5508D01*
X536412Y4919D01*
X536420Y4920D01*
X536422Y4915D01*
X537507Y4559D01*
X537515Y4562D01*
X537518Y4557D01*
X538655Y4451D01*
X538662Y4455D01*
G37*
D10*
X57800Y576000D03*
D11*
X48800Y576000D02*
X48800Y576000D01*
X48800Y576000D01*
X48800Y576000D01*
X48800Y576000D01*
X48800Y576000D01*
X48800Y576000D01*
X48800Y576000D01*
X48800Y576000D01*
X66800Y576000D02*
X66800Y576000D01*
X66800Y576000D01*
X66800Y576000D01*
X66800Y576000D01*
X66800Y576000D01*
X66800Y576000D01*
X66800Y576000D01*
X66800Y576000D01*
D10*
X57800Y566000D03*
D11*
X48800Y566000D02*
X48800Y566000D01*
X48800Y566000D01*
X48800Y566000D01*
X48800Y566000D01*
X48800Y566000D01*
X48800Y566000D01*
X48800Y566000D01*
X48800Y566000D01*
X66800Y566000D02*
X66800Y566000D01*
X66800Y566000D01*
X66800Y566000D01*
X66800Y566000D01*
X66800Y566000D01*
X66800Y566000D01*
X66800Y566000D01*
X66800Y566000D01*
D10*
X57800Y556000D03*
D11*
X48800Y556000D02*
X48800Y556000D01*
X48800Y556000D01*
X48800Y556000D01*
X48800Y556000D01*
X48800Y556000D01*
X48800Y556000D01*
X48800Y556000D01*
X48800Y556000D01*
X66800Y556000D02*
X66800Y556000D01*
X66800Y556000D01*
X66800Y556000D01*
X66800Y556000D01*
X66800Y556000D01*
X66800Y556000D01*
X66800Y556000D01*
X66800Y556000D01*
D10*
X57800Y546000D03*
D11*
X48800Y546000D02*
X48800Y546000D01*
X48800Y546000D01*
X48800Y546000D01*
X48800Y546000D01*
X48800Y546000D01*
X48800Y546000D01*
X48800Y546000D01*
X48800Y546000D01*
X66800Y546000D02*
X66800Y546000D01*
X66800Y546000D01*
X66800Y546000D01*
X66800Y546000D01*
X66800Y546000D01*
X66800Y546000D01*
X66800Y546000D01*
X66800Y546000D01*
D10*
X57800Y536000D03*
D11*
X48800Y536000D02*
X48800Y536000D01*
X48800Y536000D01*
X48800Y536000D01*
X48800Y536000D01*
X48800Y536000D01*
X48800Y536000D01*
X48800Y536000D01*
X48800Y536000D01*
X66800Y536000D02*
X66800Y536000D01*
X66800Y536000D01*
X66800Y536000D01*
X66800Y536000D01*
X66800Y536000D01*
X66800Y536000D01*
X66800Y536000D01*
X66800Y536000D01*
D10*
X57800Y526000D03*
D11*
X48800Y526000D02*
X48800Y526000D01*
X48800Y526000D01*
X48800Y526000D01*
X48800Y526000D01*
X48800Y526000D01*
X48800Y526000D01*
X48800Y526000D01*
X48800Y526000D01*
X66800Y526000D02*
X66800Y526000D01*
X66800Y526000D01*
X66800Y526000D01*
X66800Y526000D01*
X66800Y526000D01*
X66800Y526000D01*
X66800Y526000D01*
X66800Y526000D01*
D10*
X57800Y516000D03*
D11*
X48800Y516000D02*
X48800Y516000D01*
X48800Y516000D01*
X48800Y516000D01*
X48800Y516000D01*
X48800Y516000D01*
X48800Y516000D01*
X48800Y516000D01*
X48800Y516000D01*
X66800Y516000D02*
X66800Y516000D01*
X66800Y516000D01*
X66800Y516000D01*
X66800Y516000D01*
X66800Y516000D01*
X66800Y516000D01*
X66800Y516000D01*
X66800Y516000D01*
D10*
X57800Y506000D03*
D11*
X48800Y506000D02*
X48800Y506000D01*
X48800Y506000D01*
X48800Y506000D01*
X48800Y506000D01*
X48800Y506000D01*
X48800Y506000D01*
X48800Y506000D01*
X48800Y506000D01*
X66800Y506000D02*
X66800Y506000D01*
X66800Y506000D01*
X66800Y506000D01*
X66800Y506000D01*
X66800Y506000D01*
X66800Y506000D01*
X66800Y506000D01*
X66800Y506000D01*
D10*
X57800Y496000D03*
D11*
X48800Y496000D02*
X48800Y496000D01*
X48800Y496000D01*
X48800Y496000D01*
X48800Y496000D01*
X48800Y496000D01*
X48800Y496000D01*
X48800Y496000D01*
X48800Y496000D01*
X66800Y496000D02*
X66800Y496000D01*
X66800Y496000D01*
X66800Y496000D01*
X66800Y496000D01*
X66800Y496000D01*
X66800Y496000D01*
X66800Y496000D01*
X66800Y496000D01*
D10*
X57800Y486000D03*
D11*
X48800Y486000D02*
X48800Y486000D01*
X48800Y486000D01*
X48800Y486000D01*
X48800Y486000D01*
X48800Y486000D01*
X48800Y486000D01*
X48800Y486000D01*
X48800Y486000D01*
X66800Y486000D02*
X66800Y486000D01*
X66800Y486000D01*
X66800Y486000D01*
X66800Y486000D01*
X66800Y486000D01*
X66800Y486000D01*
X66800Y486000D01*
X66800Y486000D01*
D10*
X57800Y476000D03*
D11*
X48800Y476000D02*
X48800Y476000D01*
X48800Y476000D01*
X48800Y476000D01*
X48800Y476000D01*
X48800Y476000D01*
X48800Y476000D01*
X48800Y476000D01*
X48800Y476000D01*
X66800Y476000D02*
X66800Y476000D01*
X66800Y476000D01*
X66800Y476000D01*
X66800Y476000D01*
X66800Y476000D01*
X66800Y476000D01*
X66800Y476000D01*
X66800Y476000D01*
D10*
X57800Y466000D03*
D11*
X48800Y466000D02*
X48800Y466000D01*
X48800Y466000D01*
X48800Y466000D01*
X48800Y466000D01*
X48800Y466000D01*
X48800Y466000D01*
X48800Y466000D01*
X48800Y466000D01*
X66800Y466000D02*
X66800Y466000D01*
X66800Y466000D01*
X66800Y466000D01*
X66800Y466000D01*
X66800Y466000D01*
X66800Y466000D01*
X66800Y466000D01*
X66800Y466000D01*
D10*
X57800Y456000D03*
D11*
X48800Y456000D02*
X48800Y456000D01*
X48800Y456000D01*
X48800Y456000D01*
X48800Y456000D01*
X48800Y456000D01*
X48800Y456000D01*
X48800Y456000D01*
X48800Y456000D01*
X66800Y456000D02*
X66800Y456000D01*
X66800Y456000D01*
X66800Y456000D01*
X66800Y456000D01*
X66800Y456000D01*
X66800Y456000D01*
X66800Y456000D01*
X66800Y456000D01*
D10*
X57800Y446000D03*
D11*
X48800Y446000D02*
X48800Y446000D01*
X48800Y446000D01*
X48800Y446000D01*
X48800Y446000D01*
X48800Y446000D01*
X48800Y446000D01*
X48800Y446000D01*
X48800Y446000D01*
X66800Y446000D02*
X66800Y446000D01*
X66800Y446000D01*
X66800Y446000D01*
X66800Y446000D01*
X66800Y446000D01*
X66800Y446000D01*
X66800Y446000D01*
X66800Y446000D01*
D10*
X170800Y576000D03*
D11*
X161800Y576000D02*
X161800Y576000D01*
X161800Y576000D01*
X161800Y576000D01*
X161800Y576000D01*
X161800Y576000D01*
X161800Y576000D01*
X161800Y576000D01*
X161800Y576000D01*
X179800Y576000D02*
X179800Y576000D01*
X179800Y576000D01*
X179800Y576000D01*
X179800Y576000D01*
X179800Y576000D01*
X179800Y576000D01*
X179800Y576000D01*
X179800Y576000D01*
D10*
X170800Y566000D03*
D11*
X161800Y566000D02*
X161800Y566000D01*
X161800Y566000D01*
X161800Y566000D01*
X161800Y566000D01*
X161800Y566000D01*
X161800Y566000D01*
X161800Y566000D01*
X161800Y566000D01*
X179800Y566000D02*
X179800Y566000D01*
X179800Y566000D01*
X179800Y566000D01*
X179800Y566000D01*
X179800Y566000D01*
X179800Y566000D01*
X179800Y566000D01*
X179800Y566000D01*
D10*
X170800Y556000D03*
D11*
X161800Y556000D02*
X161800Y556000D01*
X161800Y556000D01*
X161800Y556000D01*
X161800Y556000D01*
X161800Y556000D01*
X161800Y556000D01*
X161800Y556000D01*
X161800Y556000D01*
X179800Y556000D02*
X179800Y556000D01*
X179800Y556000D01*
X179800Y556000D01*
X179800Y556000D01*
X179800Y556000D01*
X179800Y556000D01*
X179800Y556000D01*
X179800Y556000D01*
D10*
X170800Y546000D03*
D11*
X161800Y546000D02*
X161800Y546000D01*
X161800Y546000D01*
X161800Y546000D01*
X161800Y546000D01*
X161800Y546000D01*
X161800Y546000D01*
X161800Y546000D01*
X161800Y546000D01*
X179800Y546000D02*
X179800Y546000D01*
X179800Y546000D01*
X179800Y546000D01*
X179800Y546000D01*
X179800Y546000D01*
X179800Y546000D01*
X179800Y546000D01*
X179800Y546000D01*
D10*
X170800Y536000D03*
D11*
X161800Y536000D02*
X161800Y536000D01*
X161800Y536000D01*
X161800Y536000D01*
X161800Y536000D01*
X161800Y536000D01*
X161800Y536000D01*
X161800Y536000D01*
X161800Y536000D01*
X179800Y536000D02*
X179800Y536000D01*
X179800Y536000D01*
X179800Y536000D01*
X179800Y536000D01*
X179800Y536000D01*
X179800Y536000D01*
X179800Y536000D01*
X179800Y536000D01*
D10*
X170800Y526000D03*
D11*
X161800Y526000D02*
X161800Y526000D01*
X161800Y526000D01*
X161800Y526000D01*
X161800Y526000D01*
X161800Y526000D01*
X161800Y526000D01*
X161800Y526000D01*
X161800Y526000D01*
X179800Y526000D02*
X179800Y526000D01*
X179800Y526000D01*
X179800Y526000D01*
X179800Y526000D01*
X179800Y526000D01*
X179800Y526000D01*
X179800Y526000D01*
X179800Y526000D01*
D10*
X170800Y516000D03*
D11*
X161800Y516000D02*
X161800Y516000D01*
X161800Y516000D01*
X161800Y516000D01*
X161800Y516000D01*
X161800Y516000D01*
X161800Y516000D01*
X161800Y516000D01*
X161800Y516000D01*
X179800Y516000D02*
X179800Y516000D01*
X179800Y516000D01*
X179800Y516000D01*
X179800Y516000D01*
X179800Y516000D01*
X179800Y516000D01*
X179800Y516000D01*
X179800Y516000D01*
D10*
X170800Y506000D03*
D11*
X161800Y506000D02*
X161800Y506000D01*
X161800Y506000D01*
X161800Y506000D01*
X161800Y506000D01*
X161800Y506000D01*
X161800Y506000D01*
X161800Y506000D01*
X161800Y506000D01*
X179800Y506000D02*
X179800Y506000D01*
X179800Y506000D01*
X179800Y506000D01*
X179800Y506000D01*
X179800Y506000D01*
X179800Y506000D01*
X179800Y506000D01*
X179800Y506000D01*
D10*
X170800Y496000D03*
D11*
X161800Y496000D02*
X161800Y496000D01*
X161800Y496000D01*
X161800Y496000D01*
X161800Y496000D01*
X161800Y496000D01*
X161800Y496000D01*
X161800Y496000D01*
X161800Y496000D01*
X179800Y496000D02*
X179800Y496000D01*
X179800Y496000D01*
X179800Y496000D01*
X179800Y496000D01*
X179800Y496000D01*
X179800Y496000D01*
X179800Y496000D01*
X179800Y496000D01*
D10*
X170800Y486000D03*
D11*
X161800Y486000D02*
X161800Y486000D01*
X161800Y486000D01*
X161800Y486000D01*
X161800Y486000D01*
X161800Y486000D01*
X161800Y486000D01*
X161800Y486000D01*
X161800Y486000D01*
X179800Y486000D02*
X179800Y486000D01*
X179800Y486000D01*
X179800Y486000D01*
X179800Y486000D01*
X179800Y486000D01*
X179800Y486000D01*
X179800Y486000D01*
X179800Y486000D01*
D10*
X170800Y476000D03*
D11*
X161800Y476000D02*
X161800Y476000D01*
X161800Y476000D01*
X161800Y476000D01*
X161800Y476000D01*
X161800Y476000D01*
X161800Y476000D01*
X161800Y476000D01*
X161800Y476000D01*
X179800Y476000D02*
X179800Y476000D01*
X179800Y476000D01*
X179800Y476000D01*
X179800Y476000D01*
X179800Y476000D01*
X179800Y476000D01*
X179800Y476000D01*
X179800Y476000D01*
D10*
X170800Y466000D03*
D11*
X161800Y466000D02*
X161800Y466000D01*
X161800Y466000D01*
X161800Y466000D01*
X161800Y466000D01*
X161800Y466000D01*
X161800Y466000D01*
X161800Y466000D01*
X161800Y466000D01*
X179800Y466000D02*
X179800Y466000D01*
X179800Y466000D01*
X179800Y466000D01*
X179800Y466000D01*
X179800Y466000D01*
X179800Y466000D01*
X179800Y466000D01*
X179800Y466000D01*
D10*
X170800Y456000D03*
D11*
X161800Y456000D02*
X161800Y456000D01*
X161800Y456000D01*
X161800Y456000D01*
X161800Y456000D01*
X161800Y456000D01*
X161800Y456000D01*
X161800Y456000D01*
X161800Y456000D01*
X179800Y456000D02*
X179800Y456000D01*
X179800Y456000D01*
X179800Y456000D01*
X179800Y456000D01*
X179800Y456000D01*
X179800Y456000D01*
X179800Y456000D01*
X179800Y456000D01*
D10*
X170800Y446000D03*
D11*
X161800Y446000D02*
X161800Y446000D01*
X161800Y446000D01*
X161800Y446000D01*
X161800Y446000D01*
X161800Y446000D01*
X161800Y446000D01*
X161800Y446000D01*
X161800Y446000D01*
X179800Y446000D02*
X179800Y446000D01*
X179800Y446000D01*
X179800Y446000D01*
X179800Y446000D01*
X179800Y446000D01*
X179800Y446000D01*
X179800Y446000D01*
X179800Y446000D01*
D12*
X79300Y441000D03*
D11*
X79300Y432000D02*
X79300Y432000D01*
X79300Y432000D01*
X79300Y432000D01*
X79300Y432000D01*
X79300Y432000D01*
X79300Y432000D01*
X79300Y432000D01*
X79300Y432000D01*
X79300Y450000D02*
X79300Y450000D01*
X79300Y450000D01*
X79300Y450000D01*
X79300Y450000D01*
X79300Y450000D01*
X79300Y450000D01*
X79300Y450000D01*
X79300Y450000D01*
D12*
X89300Y441000D03*
D11*
X89300Y432000D02*
X89300Y432000D01*
X89300Y432000D01*
X89300Y432000D01*
X89300Y432000D01*
X89300Y432000D01*
X89300Y432000D01*
X89300Y432000D01*
X89300Y432000D01*
X89300Y450000D02*
X89300Y450000D01*
X89300Y450000D01*
X89300Y450000D01*
X89300Y450000D01*
X89300Y450000D01*
X89300Y450000D01*
X89300Y450000D01*
X89300Y450000D01*
D12*
X99300Y441000D03*
D11*
X99300Y432000D02*
X99300Y432000D01*
X99300Y432000D01*
X99300Y432000D01*
X99300Y432000D01*
X99300Y432000D01*
X99300Y432000D01*
X99300Y432000D01*
X99300Y432000D01*
X99300Y450000D02*
X99300Y450000D01*
X99300Y450000D01*
X99300Y450000D01*
X99300Y450000D01*
X99300Y450000D01*
X99300Y450000D01*
X99300Y450000D01*
X99300Y450000D01*
D12*
X109300Y441000D03*
D11*
X109300Y432000D02*
X109300Y432000D01*
X109300Y432000D01*
X109300Y432000D01*
X109300Y432000D01*
X109300Y432000D01*
X109300Y432000D01*
X109300Y432000D01*
X109300Y432000D01*
X109300Y450000D02*
X109300Y450000D01*
X109300Y450000D01*
X109300Y450000D01*
X109300Y450000D01*
X109300Y450000D01*
X109300Y450000D01*
X109300Y450000D01*
X109300Y450000D01*
D12*
X119300Y441000D03*
D11*
X119300Y432000D02*
X119300Y432000D01*
X119300Y432000D01*
X119300Y432000D01*
X119300Y432000D01*
X119300Y432000D01*
X119300Y432000D01*
X119300Y432000D01*
X119300Y432000D01*
X119300Y450000D02*
X119300Y450000D01*
X119300Y450000D01*
X119300Y450000D01*
X119300Y450000D01*
X119300Y450000D01*
X119300Y450000D01*
X119300Y450000D01*
X119300Y450000D01*
D12*
X129300Y441000D03*
D11*
X129300Y432000D02*
X129300Y432000D01*
X129300Y432000D01*
X129300Y432000D01*
X129300Y432000D01*
X129300Y432000D01*
X129300Y432000D01*
X129300Y432000D01*
X129300Y432000D01*
X129300Y450000D02*
X129300Y450000D01*
X129300Y450000D01*
X129300Y450000D01*
X129300Y450000D01*
X129300Y450000D01*
X129300Y450000D01*
X129300Y450000D01*
X129300Y450000D01*
D12*
X139300Y441000D03*
D11*
X139300Y432000D02*
X139300Y432000D01*
X139300Y432000D01*
X139300Y432000D01*
X139300Y432000D01*
X139300Y432000D01*
X139300Y432000D01*
X139300Y432000D01*
X139300Y432000D01*
X139300Y450000D02*
X139300Y450000D01*
X139300Y450000D01*
X139300Y450000D01*
X139300Y450000D01*
X139300Y450000D01*
X139300Y450000D01*
X139300Y450000D01*
X139300Y450000D01*
D12*
X149300Y441000D03*
D11*
X149300Y432000D02*
X149300Y432000D01*
X149300Y432000D01*
X149300Y432000D01*
X149300Y432000D01*
X149300Y432000D01*
X149300Y432000D01*
X149300Y432000D01*
X149300Y432000D01*
X149300Y450000D02*
X149300Y450000D01*
X149300Y450000D01*
X149300Y450000D01*
X149300Y450000D01*
X149300Y450000D01*
X149300Y450000D01*
X149300Y450000D01*
X149300Y450000D01*
D13*
X122790Y55610D02*
X120810Y55610D01*
X120810Y64590D01*
X122790Y64590D01*
X122790Y55610D01*
X122790Y56579D02*
X120810Y56579D01*
X120810Y57548D02*
X122790Y57548D01*
X122790Y58517D02*
X120810Y58517D01*
X120810Y59486D02*
X122790Y59486D01*
X122790Y60455D02*
X120810Y60455D01*
X120810Y61424D02*
X122790Y61424D01*
X122790Y62393D02*
X120810Y62393D01*
X120810Y63362D02*
X122790Y63362D01*
X122790Y64331D02*
X120810Y64331D01*
X117790Y55610D02*
X115810Y55610D01*
X115810Y64590D01*
X117790Y64590D01*
X117790Y55610D01*
X117790Y56579D02*
X115810Y56579D01*
X115810Y57548D02*
X117790Y57548D01*
X117790Y58517D02*
X115810Y58517D01*
X115810Y59486D02*
X117790Y59486D01*
X117790Y60455D02*
X115810Y60455D01*
X115810Y61424D02*
X117790Y61424D01*
X117790Y62393D02*
X115810Y62393D01*
X115810Y63362D02*
X117790Y63362D01*
X117790Y64331D02*
X115810Y64331D01*
X144060Y55610D02*
X149040Y55610D01*
X144060Y55610D02*
X144060Y64590D01*
X149040Y64590D01*
X149040Y55610D01*
X149040Y56579D02*
X144060Y56579D01*
X144060Y57548D02*
X149040Y57548D01*
X149040Y58517D02*
X144060Y58517D01*
X144060Y59486D02*
X149040Y59486D01*
X149040Y60455D02*
X144060Y60455D01*
X144060Y61424D02*
X149040Y61424D01*
X149040Y62393D02*
X144060Y62393D01*
X144060Y63362D02*
X149040Y63362D01*
X149040Y64331D02*
X144060Y64331D01*
X141290Y55610D02*
X136310Y55610D01*
X136310Y64590D01*
X141290Y64590D01*
X141290Y55610D01*
X141290Y56579D02*
X136310Y56579D01*
X136310Y57548D02*
X141290Y57548D01*
X141290Y58517D02*
X136310Y58517D01*
X136310Y59486D02*
X141290Y59486D01*
X141290Y60455D02*
X136310Y60455D01*
X136310Y61424D02*
X141290Y61424D01*
X141290Y62393D02*
X136310Y62393D01*
X136310Y63362D02*
X141290Y63362D01*
X141290Y64331D02*
X136310Y64331D01*
X132790Y55610D02*
X130810Y55610D01*
X130810Y64590D01*
X132790Y64590D01*
X132790Y55610D01*
X132790Y56579D02*
X130810Y56579D01*
X130810Y57548D02*
X132790Y57548D01*
X132790Y58517D02*
X130810Y58517D01*
X130810Y59486D02*
X132790Y59486D01*
X132790Y60455D02*
X130810Y60455D01*
X130810Y61424D02*
X132790Y61424D01*
X132790Y62393D02*
X130810Y62393D01*
X130810Y63362D02*
X132790Y63362D01*
X132790Y64331D02*
X130810Y64331D01*
X127790Y55610D02*
X125810Y55610D01*
X125810Y64590D01*
X127790Y64590D01*
X127790Y55610D01*
X127790Y56579D02*
X125810Y56579D01*
X125810Y57548D02*
X127790Y57548D01*
X127790Y58517D02*
X125810Y58517D01*
X125810Y59486D02*
X127790Y59486D01*
X127790Y60455D02*
X125810Y60455D01*
X125810Y61424D02*
X127790Y61424D01*
X127790Y62393D02*
X125810Y62393D01*
X125810Y63362D02*
X127790Y63362D01*
X127790Y64331D02*
X125810Y64331D01*
X107790Y64590D02*
X105810Y64590D01*
X107790Y64590D02*
X107790Y55610D01*
X105810Y55610D01*
X105810Y64590D01*
X105810Y56579D02*
X107790Y56579D01*
X107790Y57548D02*
X105810Y57548D01*
X105810Y58517D02*
X107790Y58517D01*
X107790Y59486D02*
X105810Y59486D01*
X105810Y60455D02*
X107790Y60455D01*
X107790Y61424D02*
X105810Y61424D01*
X105810Y62393D02*
X107790Y62393D01*
X107790Y63362D02*
X105810Y63362D01*
X105810Y64331D02*
X107790Y64331D01*
X110810Y64590D02*
X112790Y64590D01*
X112790Y55610D01*
X110810Y55610D01*
X110810Y64590D01*
X110810Y56579D02*
X112790Y56579D01*
X112790Y57548D02*
X110810Y57548D01*
X110810Y58517D02*
X112790Y58517D01*
X112790Y59486D02*
X110810Y59486D01*
X110810Y60455D02*
X112790Y60455D01*
X112790Y61424D02*
X110810Y61424D01*
X110810Y62393D02*
X112790Y62393D01*
X112790Y63362D02*
X110810Y63362D01*
X110810Y64331D02*
X112790Y64331D01*
X84540Y64590D02*
X79560Y64590D01*
X84540Y64590D02*
X84540Y55610D01*
X79560Y55610D01*
X79560Y64590D01*
X79560Y56579D02*
X84540Y56579D01*
X84540Y57548D02*
X79560Y57548D01*
X79560Y58517D02*
X84540Y58517D01*
X84540Y59486D02*
X79560Y59486D01*
X79560Y60455D02*
X84540Y60455D01*
X84540Y61424D02*
X79560Y61424D01*
X79560Y62393D02*
X84540Y62393D01*
X84540Y63362D02*
X79560Y63362D01*
X79560Y64331D02*
X84540Y64331D01*
X87310Y64590D02*
X92290Y64590D01*
X92290Y55610D01*
X87310Y55610D01*
X87310Y64590D01*
X87310Y56579D02*
X92290Y56579D01*
X92290Y57548D02*
X87310Y57548D01*
X87310Y58517D02*
X92290Y58517D01*
X92290Y59486D02*
X87310Y59486D01*
X87310Y60455D02*
X92290Y60455D01*
X92290Y61424D02*
X87310Y61424D01*
X87310Y62393D02*
X92290Y62393D01*
X92290Y63362D02*
X87310Y63362D01*
X87310Y64331D02*
X92290Y64331D01*
X95810Y64590D02*
X97790Y64590D01*
X97790Y55610D01*
X95810Y55610D01*
X95810Y64590D01*
X95810Y56579D02*
X97790Y56579D01*
X97790Y57548D02*
X95810Y57548D01*
X95810Y58517D02*
X97790Y58517D01*
X97790Y59486D02*
X95810Y59486D01*
X95810Y60455D02*
X97790Y60455D01*
X97790Y61424D02*
X95810Y61424D01*
X95810Y62393D02*
X97790Y62393D01*
X97790Y63362D02*
X95810Y63362D01*
X95810Y64331D02*
X97790Y64331D01*
X100810Y64590D02*
X102790Y64590D01*
X102790Y55610D01*
X100810Y55610D01*
X100810Y64590D01*
X100810Y56579D02*
X102790Y56579D01*
X102790Y57548D02*
X100810Y57548D01*
X100810Y58517D02*
X102790Y58517D01*
X102790Y59486D02*
X100810Y59486D01*
X100810Y60455D02*
X102790Y60455D01*
X102790Y61424D02*
X100810Y61424D01*
X100810Y62393D02*
X102790Y62393D01*
X102790Y63362D02*
X100810Y63362D01*
X100810Y64331D02*
X102790Y64331D01*
D14*
X97600Y163300D02*
X97600Y172300D01*
X97600Y163300D02*
X52600Y163300D01*
X52600Y172300D01*
X97600Y172300D01*
X97600Y164250D02*
X52600Y164250D01*
X52600Y165200D02*
X97600Y165200D01*
X97600Y166150D02*
X52600Y166150D01*
X52600Y167100D02*
X97600Y167100D01*
X97600Y168050D02*
X52600Y168050D01*
X52600Y169000D02*
X97600Y169000D01*
X97600Y169950D02*
X52600Y169950D01*
X52600Y170900D02*
X97600Y170900D01*
X97600Y171850D02*
X52600Y171850D01*
X97600Y183300D02*
X97600Y192300D01*
X97600Y183300D02*
X52600Y183300D01*
X52600Y192300D01*
X97600Y192300D01*
X97600Y184250D02*
X52600Y184250D01*
X52600Y185200D02*
X97600Y185200D01*
X97600Y186150D02*
X52600Y186150D01*
X52600Y187100D02*
X97600Y187100D01*
X97600Y188050D02*
X52600Y188050D01*
X52600Y189000D02*
X97600Y189000D01*
X97600Y189950D02*
X52600Y189950D01*
X52600Y190900D02*
X97600Y190900D01*
X97600Y191850D02*
X52600Y191850D01*
D15*
X39620Y151320D02*
X6580Y151320D01*
X39620Y151320D02*
X39620Y136280D01*
X6580Y136280D01*
X6580Y151320D01*
X6580Y137192D02*
X39620Y137192D01*
X39620Y138104D02*
X6580Y138104D01*
X6580Y139016D02*
X39620Y139016D01*
X39620Y139928D02*
X6580Y139928D01*
X6580Y140840D02*
X39620Y140840D01*
X39620Y141752D02*
X6580Y141752D01*
X6580Y142664D02*
X39620Y142664D01*
X39620Y143576D02*
X6580Y143576D01*
X6580Y144488D02*
X39620Y144488D01*
X39620Y145400D02*
X6580Y145400D01*
X6580Y146312D02*
X39620Y146312D01*
X39620Y147224D02*
X6580Y147224D01*
X6580Y148136D02*
X39620Y148136D01*
X39620Y149048D02*
X6580Y149048D01*
X6580Y149960D02*
X39620Y149960D01*
X39620Y150872D02*
X6580Y150872D01*
X6580Y219320D02*
X39620Y219320D01*
X39620Y204280D01*
X6580Y204280D01*
X6580Y219320D01*
X6580Y205192D02*
X39620Y205192D01*
X39620Y206104D02*
X6580Y206104D01*
X6580Y207016D02*
X39620Y207016D01*
X39620Y207928D02*
X6580Y207928D01*
X6580Y208840D02*
X39620Y208840D01*
X39620Y209752D02*
X6580Y209752D01*
X6580Y210664D02*
X39620Y210664D01*
X39620Y211576D02*
X6580Y211576D01*
X6580Y212488D02*
X39620Y212488D01*
X39620Y213400D02*
X6580Y213400D01*
X6580Y214312D02*
X39620Y214312D01*
X39620Y215224D02*
X6580Y215224D01*
X6580Y216136D02*
X39620Y216136D01*
X39620Y217048D02*
X6580Y217048D01*
X6580Y217960D02*
X39620Y217960D01*
X39620Y218872D02*
X6580Y218872D01*
D16*
X191226Y183255D02*
X191226Y178745D01*
X180216Y178745D01*
X180216Y183255D01*
X191226Y183255D01*
X191226Y179685D02*
X180216Y179685D01*
X180216Y180625D02*
X191226Y180625D01*
X191226Y181565D02*
X180216Y181565D01*
X180216Y182505D02*
X191226Y182505D01*
X191226Y188245D02*
X191226Y192755D01*
X191226Y188245D02*
X180216Y188245D01*
X180216Y192755D01*
X191226Y192755D01*
X191226Y189185D02*
X180216Y189185D01*
X180216Y190125D02*
X191226Y190125D01*
X191226Y191065D02*
X180216Y191065D01*
X180216Y192005D02*
X191226Y192005D01*
X191226Y197745D02*
X191226Y202255D01*
X191226Y197745D02*
X180216Y197745D01*
X180216Y202255D01*
X191226Y202255D01*
X191226Y198685D02*
X180216Y198685D01*
X180216Y199625D02*
X191226Y199625D01*
X191226Y200565D02*
X180216Y200565D01*
X180216Y201505D02*
X191226Y201505D01*
X165224Y202255D02*
X165224Y197745D01*
X154214Y197745D01*
X154214Y202255D01*
X165224Y202255D01*
X165224Y198685D02*
X154214Y198685D01*
X154214Y199625D02*
X165224Y199625D01*
X165224Y200565D02*
X154214Y200565D01*
X154214Y201505D02*
X165224Y201505D01*
X165224Y183255D02*
X165224Y178745D01*
X154214Y178745D01*
X154214Y183255D01*
X165224Y183255D01*
X165224Y179685D02*
X154214Y179685D01*
X154214Y180625D02*
X165224Y180625D01*
X165224Y181565D02*
X154214Y181565D01*
X154214Y182505D02*
X165224Y182505D01*
D17*
X191780Y70180D02*
X191780Y63220D01*
X183820Y63220D01*
X183820Y70180D01*
X191780Y70180D01*
X191780Y64208D02*
X183820Y64208D01*
X183820Y65196D02*
X191780Y65196D01*
X191780Y66184D02*
X183820Y66184D01*
X183820Y67172D02*
X191780Y67172D01*
X191780Y68160D02*
X183820Y68160D01*
X183820Y69148D02*
X191780Y69148D01*
X191780Y70136D02*
X183820Y70136D01*
X191780Y82220D02*
X191780Y89180D01*
X191780Y82220D02*
X183820Y82220D01*
X183820Y89180D01*
X191780Y89180D01*
X191780Y83208D02*
X183820Y83208D01*
X183820Y84196D02*
X191780Y84196D01*
X191780Y85184D02*
X183820Y85184D01*
X183820Y86172D02*
X191780Y86172D01*
X191780Y87160D02*
X183820Y87160D01*
X183820Y88148D02*
X191780Y88148D01*
X191780Y89136D02*
X183820Y89136D01*
X170780Y79680D02*
X170780Y72720D01*
X162820Y72720D01*
X162820Y79680D01*
X170780Y79680D01*
X170780Y73708D02*
X162820Y73708D01*
X162820Y74696D02*
X170780Y74696D01*
X170780Y75684D02*
X162820Y75684D01*
X162820Y76672D02*
X170780Y76672D01*
X170780Y77660D02*
X162820Y77660D01*
X162820Y78648D02*
X170780Y78648D01*
X170780Y79636D02*
X162820Y79636D01*
D13*
X201880Y183010D02*
X201880Y187990D01*
X201880Y183010D02*
X196900Y183010D01*
X196900Y187990D01*
X201880Y187990D01*
X201880Y183979D02*
X196900Y183979D01*
X196900Y184948D02*
X201880Y184948D01*
X201880Y185917D02*
X196900Y185917D01*
X196900Y186886D02*
X201880Y186886D01*
X201880Y187855D02*
X196900Y187855D01*
X201880Y193010D02*
X201880Y197990D01*
X201880Y193010D02*
X196900Y193010D01*
X196900Y197990D01*
X201880Y197990D01*
X201880Y193979D02*
X196900Y193979D01*
X196900Y194948D02*
X201880Y194948D01*
X201880Y195917D02*
X196900Y195917D01*
X196900Y196886D02*
X201880Y196886D01*
X201880Y197855D02*
X196900Y197855D01*
X197990Y154890D02*
X193010Y154890D01*
X197990Y154890D02*
X197990Y149910D01*
X193010Y149910D01*
X193010Y154890D01*
X193010Y150879D02*
X197990Y150879D01*
X197990Y151848D02*
X193010Y151848D01*
X193010Y152817D02*
X197990Y152817D01*
X197990Y153786D02*
X193010Y153786D01*
X193010Y154755D02*
X197990Y154755D01*
X187990Y154890D02*
X183010Y154890D01*
X187990Y154890D02*
X187990Y149910D01*
X183010Y149910D01*
X183010Y154890D01*
X183010Y150879D02*
X187990Y150879D01*
X187990Y151848D02*
X183010Y151848D01*
X183010Y152817D02*
X187990Y152817D01*
X187990Y153786D02*
X183010Y153786D01*
X183010Y154755D02*
X187990Y154755D01*
D18*
X199554Y90346D02*
X199554Y85054D01*
X199554Y90346D02*
X206846Y90346D01*
X206846Y85054D01*
X199554Y85054D01*
X199554Y86012D02*
X206846Y86012D01*
X206846Y86970D02*
X199554Y86970D01*
X199554Y87928D02*
X206846Y87928D01*
X206846Y88886D02*
X199554Y88886D01*
X199554Y89844D02*
X206846Y89844D01*
X199554Y67346D02*
X199554Y62054D01*
X199554Y67346D02*
X206846Y67346D01*
X206846Y62054D01*
X199554Y62054D01*
X199554Y63012D02*
X206846Y63012D01*
X206846Y63970D02*
X199554Y63970D01*
X199554Y64928D02*
X206846Y64928D01*
X206846Y65886D02*
X199554Y65886D01*
X199554Y66844D02*
X206846Y66844D01*
D13*
X214680Y78710D02*
X214680Y83690D01*
X219660Y83690D01*
X219660Y78710D01*
X214680Y78710D01*
X214680Y79679D02*
X219660Y79679D01*
X219660Y80648D02*
X214680Y80648D01*
X214680Y81617D02*
X219660Y81617D01*
X219660Y82586D02*
X214680Y82586D01*
X214680Y83555D02*
X219660Y83555D01*
X214680Y73690D02*
X214680Y68710D01*
X214680Y73690D02*
X219660Y73690D01*
X219660Y68710D01*
X214680Y68710D01*
X214680Y69679D02*
X219660Y69679D01*
X219660Y70648D02*
X214680Y70648D01*
X214680Y71617D02*
X219660Y71617D01*
X219660Y72586D02*
X214680Y72586D01*
X214680Y73555D02*
X219660Y73555D01*
X166240Y167590D02*
X161260Y167590D01*
X166240Y167590D02*
X166240Y162610D01*
X161260Y162610D01*
X161260Y167590D01*
X161260Y163579D02*
X166240Y163579D01*
X166240Y164548D02*
X161260Y164548D01*
X161260Y165517D02*
X166240Y165517D01*
X166240Y166486D02*
X161260Y166486D01*
X161260Y167455D02*
X166240Y167455D01*
X156240Y167590D02*
X151260Y167590D01*
X156240Y167590D02*
X156240Y162610D01*
X151260Y162610D01*
X151260Y167590D01*
X151260Y163579D02*
X156240Y163579D01*
X156240Y164548D02*
X151260Y164548D01*
X151260Y165517D02*
X156240Y165517D01*
X156240Y166486D02*
X151260Y166486D01*
X151260Y167455D02*
X156240Y167455D01*
D16*
X127544Y119705D02*
X127544Y115195D01*
X127544Y119705D02*
X138554Y119705D01*
X138554Y115195D01*
X127544Y115195D01*
X127544Y116135D02*
X138554Y116135D01*
X138554Y117075D02*
X127544Y117075D01*
X127544Y118015D02*
X138554Y118015D01*
X138554Y118955D02*
X127544Y118955D01*
X127544Y110205D02*
X127544Y105695D01*
X127544Y110205D02*
X138554Y110205D01*
X138554Y105695D01*
X127544Y105695D01*
X127544Y106635D02*
X138554Y106635D01*
X138554Y107575D02*
X127544Y107575D01*
X127544Y108515D02*
X138554Y108515D01*
X138554Y109455D02*
X127544Y109455D01*
X127544Y100705D02*
X127544Y96195D01*
X127544Y100705D02*
X138554Y100705D01*
X138554Y96195D01*
X127544Y96195D01*
X127544Y97135D02*
X138554Y97135D01*
X138554Y98075D02*
X127544Y98075D01*
X127544Y99015D02*
X138554Y99015D01*
X138554Y99955D02*
X127544Y99955D01*
X153546Y100705D02*
X153546Y96195D01*
X153546Y100705D02*
X164556Y100705D01*
X164556Y96195D01*
X153546Y96195D01*
X153546Y97135D02*
X164556Y97135D01*
X164556Y98075D02*
X153546Y98075D01*
X153546Y99015D02*
X164556Y99015D01*
X164556Y99955D02*
X153546Y99955D01*
X153546Y115195D02*
X153546Y119705D01*
X164556Y119705D01*
X164556Y115195D01*
X153546Y115195D01*
X153546Y116135D02*
X164556Y116135D01*
X164556Y117075D02*
X153546Y117075D01*
X153546Y118015D02*
X164556Y118015D01*
X164556Y118955D02*
X153546Y118955D01*
D19*
X130500Y140780D02*
X123500Y140780D01*
X130500Y140780D02*
X130500Y133780D01*
X123500Y133780D01*
X123500Y140780D01*
X123500Y136630D02*
X130500Y136630D01*
X130500Y139480D02*
X123500Y139480D01*
X123500Y158320D02*
X130500Y158320D01*
X130500Y151320D01*
X123500Y151320D01*
X123500Y158320D01*
X123500Y154170D02*
X130500Y154170D01*
X130500Y157020D02*
X123500Y157020D01*
D13*
X168960Y115440D02*
X168960Y110460D01*
X168960Y115440D02*
X173940Y115440D01*
X173940Y110460D01*
X168960Y110460D01*
X168960Y111429D02*
X173940Y111429D01*
X173940Y112398D02*
X168960Y112398D01*
X168960Y113367D02*
X173940Y113367D01*
X173940Y114336D02*
X168960Y114336D01*
X168960Y115305D02*
X173940Y115305D01*
X168960Y105440D02*
X168960Y100460D01*
X168960Y105440D02*
X173940Y105440D01*
X173940Y100460D01*
X168960Y100460D01*
X168960Y101429D02*
X173940Y101429D01*
X173940Y102398D02*
X168960Y102398D01*
X168960Y103367D02*
X173940Y103367D01*
X173940Y104336D02*
X168960Y104336D01*
X168960Y105305D02*
X173940Y105305D01*
X180310Y57100D02*
X185290Y57100D01*
X185290Y52120D01*
X180310Y52120D01*
X180310Y57100D01*
X180310Y53089D02*
X185290Y53089D01*
X185290Y54058D02*
X180310Y54058D01*
X180310Y55027D02*
X185290Y55027D01*
X185290Y55996D02*
X180310Y55996D01*
X180310Y56965D02*
X185290Y56965D01*
X175290Y57100D02*
X170310Y57100D01*
X175290Y57100D02*
X175290Y52120D01*
X170310Y52120D01*
X170310Y57100D01*
X170310Y53089D02*
X175290Y53089D01*
X175290Y54058D02*
X170310Y54058D01*
X170310Y55027D02*
X175290Y55027D01*
X175290Y55996D02*
X170310Y55996D01*
X170310Y56965D02*
X175290Y56965D01*
X143560Y148560D02*
X143560Y153540D01*
X148540Y153540D01*
X148540Y148560D01*
X143560Y148560D01*
X143560Y149529D02*
X148540Y149529D01*
X148540Y150498D02*
X143560Y150498D01*
X143560Y151467D02*
X148540Y151467D01*
X148540Y152436D02*
X143560Y152436D01*
X143560Y153405D02*
X148540Y153405D01*
X143560Y143540D02*
X143560Y138560D01*
X143560Y143540D02*
X148540Y143540D01*
X148540Y138560D01*
X143560Y138560D01*
X143560Y139529D02*
X148540Y139529D01*
X148540Y140498D02*
X143560Y140498D01*
X143560Y141467D02*
X148540Y141467D01*
X148540Y142436D02*
X143560Y142436D01*
X143560Y143405D02*
X148540Y143405D01*
X156260Y148560D02*
X156260Y153540D01*
X161240Y153540D01*
X161240Y148560D01*
X156260Y148560D01*
X156260Y149529D02*
X161240Y149529D01*
X161240Y150498D02*
X156260Y150498D01*
X156260Y151467D02*
X161240Y151467D01*
X161240Y152436D02*
X156260Y152436D01*
X156260Y153405D02*
X161240Y153405D01*
X156260Y143540D02*
X156260Y138560D01*
X156260Y143540D02*
X161240Y143540D01*
X161240Y138560D01*
X156260Y138560D01*
X156260Y139529D02*
X161240Y139529D01*
X161240Y140498D02*
X156260Y140498D01*
X156260Y141467D02*
X161240Y141467D01*
X161240Y142436D02*
X156260Y142436D01*
X156260Y143405D02*
X161240Y143405D01*
X159890Y87580D02*
X154910Y87580D01*
X159890Y87580D02*
X159890Y82600D01*
X154910Y82600D01*
X154910Y87580D01*
X154910Y83569D02*
X159890Y83569D01*
X159890Y84538D02*
X154910Y84538D01*
X154910Y85507D02*
X159890Y85507D01*
X159890Y86476D02*
X154910Y86476D01*
X154910Y87445D02*
X159890Y87445D01*
X149890Y87580D02*
X144910Y87580D01*
X149890Y87580D02*
X149890Y82600D01*
X144910Y82600D01*
X144910Y87580D01*
X144910Y83569D02*
X149890Y83569D01*
X149890Y84538D02*
X144910Y84538D01*
X144910Y85507D02*
X149890Y85507D01*
X149890Y86476D02*
X144910Y86476D01*
X144910Y87445D02*
X149890Y87445D01*
D20*
X92738Y108070D03*
X72363Y113070D03*
X72363Y108070D03*
X72363Y118070D03*
X72363Y123070D03*
X92738Y113070D03*
X92738Y118070D03*
X92738Y123070D03*
D21*
X82550Y118970D03*
X82550Y112170D03*
D13*
X100380Y113000D02*
X100380Y117980D01*
X105360Y117980D01*
X105360Y113000D01*
X100380Y113000D01*
X100380Y113969D02*
X105360Y113969D01*
X105360Y114938D02*
X100380Y114938D01*
X100380Y115907D02*
X105360Y115907D01*
X105360Y116876D02*
X100380Y116876D01*
X100380Y117845D02*
X105360Y117845D01*
X100380Y107980D02*
X100380Y103000D01*
X100380Y107980D02*
X105360Y107980D01*
X105360Y103000D01*
X100380Y103000D01*
X100380Y103969D02*
X105360Y103969D01*
X105360Y104938D02*
X100380Y104938D01*
X100380Y105907D02*
X105360Y105907D01*
X105360Y106876D02*
X100380Y106876D01*
X100380Y107845D02*
X105360Y107845D01*
X130860Y86738D02*
X130860Y81758D01*
X130860Y86738D02*
X135840Y86738D01*
X135840Y81758D01*
X130860Y81758D01*
X130860Y82727D02*
X135840Y82727D01*
X135840Y83696D02*
X130860Y83696D01*
X130860Y84665D02*
X135840Y84665D01*
X135840Y85634D02*
X130860Y85634D01*
X130860Y86603D02*
X135840Y86603D01*
X130860Y76738D02*
X130860Y71758D01*
X130860Y76738D02*
X135840Y76738D01*
X135840Y71758D01*
X130860Y71758D01*
X130860Y72727D02*
X135840Y72727D01*
X135840Y73696D02*
X130860Y73696D01*
X130860Y74665D02*
X135840Y74665D01*
X135840Y75634D02*
X130860Y75634D01*
X130860Y76603D02*
X135840Y76603D01*
X92760Y81758D02*
X92760Y86738D01*
X97740Y86738D01*
X97740Y81758D01*
X92760Y81758D01*
X92760Y82727D02*
X97740Y82727D01*
X97740Y83696D02*
X92760Y83696D01*
X92760Y84665D02*
X97740Y84665D01*
X97740Y85634D02*
X92760Y85634D01*
X92760Y86603D02*
X97740Y86603D01*
X92760Y76738D02*
X92760Y71758D01*
X92760Y76738D02*
X97740Y76738D01*
X97740Y71758D01*
X92760Y71758D01*
X92760Y72727D02*
X97740Y72727D01*
X97740Y73696D02*
X92760Y73696D01*
X92760Y74665D02*
X97740Y74665D01*
X97740Y75634D02*
X92760Y75634D01*
X92760Y76603D02*
X97740Y76603D01*
D22*
X110038Y77736D02*
X110038Y72660D01*
X108562Y72660D01*
X108562Y77736D01*
X110038Y77736D01*
X110038Y73634D02*
X108562Y73634D01*
X108562Y74608D02*
X110038Y74608D01*
X110038Y75582D02*
X108562Y75582D01*
X108562Y76556D02*
X110038Y76556D01*
X110038Y77530D02*
X108562Y77530D01*
X115038Y77236D02*
X115038Y72660D01*
X113562Y72660D01*
X113562Y77236D01*
X115038Y77236D01*
X115038Y73634D02*
X113562Y73634D01*
X113562Y74608D02*
X115038Y74608D01*
X115038Y75582D02*
X113562Y75582D01*
X113562Y76556D02*
X115038Y76556D01*
X120038Y77236D02*
X120038Y72660D01*
X118562Y72660D01*
X118562Y77236D01*
X120038Y77236D01*
X120038Y73634D02*
X118562Y73634D01*
X118562Y74608D02*
X120038Y74608D01*
X120038Y75582D02*
X118562Y75582D01*
X118562Y76556D02*
X120038Y76556D01*
X118562Y81260D02*
X118562Y85836D01*
X120038Y85836D01*
X120038Y81260D01*
X118562Y81260D01*
X118562Y82234D02*
X120038Y82234D01*
X120038Y83208D02*
X118562Y83208D01*
X118562Y84182D02*
X120038Y84182D01*
X120038Y85156D02*
X118562Y85156D01*
X113562Y85836D02*
X113562Y81260D01*
X113562Y85836D02*
X115038Y85836D01*
X115038Y81260D01*
X113562Y81260D01*
X113562Y82234D02*
X115038Y82234D01*
X115038Y83208D02*
X113562Y83208D01*
X113562Y84182D02*
X115038Y84182D01*
X115038Y85156D02*
X113562Y85156D01*
X108562Y85836D02*
X108562Y81260D01*
X108562Y85836D02*
X110038Y85836D01*
X110038Y81260D01*
X108562Y81260D01*
X108562Y82234D02*
X110038Y82234D01*
X110038Y83208D02*
X108562Y83208D01*
X108562Y84182D02*
X110038Y84182D01*
X110038Y85156D02*
X108562Y85156D01*
D15*
X4530Y111380D02*
X4530Y122420D01*
X23570Y122420D01*
X23570Y111380D01*
X4530Y111380D01*
X4530Y112292D02*
X23570Y112292D01*
X23570Y113204D02*
X4530Y113204D01*
X4530Y114116D02*
X23570Y114116D01*
X23570Y115028D02*
X4530Y115028D01*
X4530Y115940D02*
X23570Y115940D01*
X23570Y116852D02*
X4530Y116852D01*
X4530Y117764D02*
X23570Y117764D01*
X23570Y118676D02*
X4530Y118676D01*
X4530Y119588D02*
X23570Y119588D01*
X23570Y120500D02*
X4530Y120500D01*
X4530Y121412D02*
X23570Y121412D01*
X23570Y122324D02*
X4530Y122324D01*
X4530Y66420D02*
X4530Y55380D01*
X4530Y66420D02*
X23570Y66420D01*
X23570Y55380D01*
X4530Y55380D01*
X4530Y56292D02*
X23570Y56292D01*
X23570Y57204D02*
X4530Y57204D01*
X4530Y58116D02*
X23570Y58116D01*
X23570Y59028D02*
X4530Y59028D01*
X4530Y59940D02*
X23570Y59940D01*
X23570Y60852D02*
X4530Y60852D01*
X4530Y61764D02*
X23570Y61764D01*
X23570Y62676D02*
X4530Y62676D01*
X4530Y63588D02*
X23570Y63588D01*
X23570Y64500D02*
X4530Y64500D01*
X4530Y65412D02*
X23570Y65412D01*
X23570Y66324D02*
X4530Y66324D01*
D13*
X44560Y101410D02*
X44560Y106390D01*
X57040Y106390D01*
X57040Y101410D01*
X44560Y101410D01*
X44560Y102379D02*
X57040Y102379D01*
X57040Y103348D02*
X44560Y103348D01*
X44560Y104317D02*
X57040Y104317D01*
X57040Y105286D02*
X44560Y105286D01*
X44560Y106255D02*
X57040Y106255D01*
X44560Y96390D02*
X44560Y91410D01*
X44560Y96390D02*
X57040Y96390D01*
X57040Y91410D01*
X44560Y91410D01*
X44560Y92379D02*
X57040Y92379D01*
X57040Y93348D02*
X44560Y93348D01*
X44560Y94317D02*
X57040Y94317D01*
X57040Y95286D02*
X44560Y95286D01*
X44560Y96255D02*
X57040Y96255D01*
X44560Y86390D02*
X44560Y81410D01*
X44560Y86390D02*
X57040Y86390D01*
X57040Y81410D01*
X44560Y81410D01*
X44560Y82379D02*
X57040Y82379D01*
X57040Y83348D02*
X44560Y83348D01*
X44560Y84317D02*
X57040Y84317D01*
X57040Y85286D02*
X44560Y85286D01*
X44560Y86255D02*
X57040Y86255D01*
X44560Y76390D02*
X44560Y71410D01*
X44560Y76390D02*
X57040Y76390D01*
X57040Y71410D01*
X44560Y71410D01*
X44560Y72379D02*
X57040Y72379D01*
X57040Y73348D02*
X44560Y73348D01*
X44560Y74317D02*
X57040Y74317D01*
X57040Y75286D02*
X44560Y75286D01*
X44560Y76255D02*
X57040Y76255D01*
X62360Y73710D02*
X67340Y73710D01*
X62360Y73710D02*
X62360Y78690D01*
X67340Y78690D01*
X67340Y73710D01*
X67340Y74679D02*
X62360Y74679D01*
X62360Y75648D02*
X67340Y75648D01*
X67340Y76617D02*
X62360Y76617D01*
X62360Y77586D02*
X67340Y77586D01*
X67340Y78555D02*
X62360Y78555D01*
X72360Y73710D02*
X77340Y73710D01*
X72360Y73710D02*
X72360Y78690D01*
X77340Y78690D01*
X77340Y73710D01*
X77340Y74679D02*
X72360Y74679D01*
X72360Y75648D02*
X77340Y75648D01*
X77340Y76617D02*
X72360Y76617D01*
X72360Y77586D02*
X77340Y77586D01*
X77340Y78555D02*
X72360Y78555D01*
X67340Y86410D02*
X62360Y86410D01*
X62360Y91390D01*
X67340Y91390D01*
X67340Y86410D01*
X67340Y87379D02*
X62360Y87379D01*
X62360Y88348D02*
X67340Y88348D01*
X67340Y89317D02*
X62360Y89317D01*
X62360Y90286D02*
X67340Y90286D01*
X67340Y91255D02*
X62360Y91255D01*
X72360Y86410D02*
X77340Y86410D01*
X72360Y86410D02*
X72360Y91390D01*
X77340Y91390D01*
X77340Y86410D01*
X77340Y87379D02*
X72360Y87379D01*
X72360Y88348D02*
X77340Y88348D01*
X77340Y89317D02*
X72360Y89317D01*
X72360Y90286D02*
X77340Y90286D01*
X77340Y91255D02*
X72360Y91255D01*
X70990Y421590D02*
X66010Y421590D01*
X70990Y421590D02*
X70990Y416610D01*
X66010Y416610D01*
X66010Y421590D01*
X66010Y417579D02*
X70990Y417579D01*
X70990Y418548D02*
X66010Y418548D01*
X66010Y419517D02*
X70990Y419517D01*
X70990Y420486D02*
X66010Y420486D01*
X66010Y421455D02*
X70990Y421455D01*
X60990Y421590D02*
X56010Y421590D01*
X60990Y421590D02*
X60990Y416610D01*
X56010Y416610D01*
X56010Y421590D01*
X56010Y417579D02*
X60990Y417579D01*
X60990Y418548D02*
X56010Y418548D01*
X56010Y419517D02*
X60990Y419517D01*
X60990Y420486D02*
X56010Y420486D01*
X56010Y421455D02*
X60990Y421455D01*
D19*
X62540Y385890D02*
X69540Y385890D01*
X69540Y378890D01*
X62540Y378890D01*
X62540Y385890D01*
X62540Y381740D02*
X69540Y381740D01*
X69540Y384590D02*
X62540Y384590D01*
X62540Y403430D02*
X69540Y403430D01*
X69540Y396430D01*
X62540Y396430D01*
X62540Y403430D01*
X62540Y399280D02*
X69540Y399280D01*
X69540Y402130D02*
X62540Y402130D01*
D13*
X35590Y378510D02*
X30610Y378510D01*
X30610Y383490D01*
X35590Y383490D01*
X35590Y378510D01*
X35590Y379479D02*
X30610Y379479D01*
X30610Y380448D02*
X35590Y380448D01*
X35590Y381417D02*
X30610Y381417D01*
X30610Y382386D02*
X35590Y382386D01*
X35590Y383355D02*
X30610Y383355D01*
X40610Y378510D02*
X45590Y378510D01*
X40610Y378510D02*
X40610Y383490D01*
X45590Y383490D01*
X45590Y378510D01*
X45590Y379479D02*
X40610Y379479D01*
X40610Y380448D02*
X45590Y380448D01*
X45590Y381417D02*
X40610Y381417D01*
X40610Y382386D02*
X45590Y382386D01*
X45590Y383355D02*
X40610Y383355D01*
D16*
X130495Y174005D02*
X130495Y165995D01*
X130495Y174005D02*
X139505Y174005D01*
X139505Y165995D01*
X130495Y165995D01*
X130495Y166935D02*
X139505Y166935D01*
X139505Y167875D02*
X130495Y167875D01*
X130495Y168815D02*
X139505Y168815D01*
X139505Y169755D02*
X130495Y169755D01*
X130495Y170695D02*
X139505Y170695D01*
X139505Y171635D02*
X130495Y171635D01*
X130495Y172575D02*
X139505Y172575D01*
X139505Y173515D02*
X130495Y173515D01*
X114495Y174005D02*
X114495Y165995D01*
X114495Y174005D02*
X123505Y174005D01*
X123505Y165995D01*
X114495Y165995D01*
X114495Y166935D02*
X123505Y166935D01*
X123505Y167875D02*
X114495Y167875D01*
X114495Y168815D02*
X123505Y168815D01*
X123505Y169755D02*
X114495Y169755D01*
X114495Y170695D02*
X123505Y170695D01*
X123505Y171635D02*
X114495Y171635D01*
X114495Y172575D02*
X123505Y172575D01*
X123505Y173515D02*
X114495Y173515D01*
X114495Y206995D02*
X114495Y215005D01*
X123505Y215005D01*
X123505Y206995D01*
X114495Y206995D01*
X114495Y207935D02*
X123505Y207935D01*
X123505Y208875D02*
X114495Y208875D01*
X114495Y209815D02*
X123505Y209815D01*
X123505Y210755D02*
X114495Y210755D01*
X114495Y211695D02*
X123505Y211695D01*
X123505Y212635D02*
X114495Y212635D01*
X114495Y213575D02*
X123505Y213575D01*
X123505Y214515D02*
X114495Y214515D01*
X130495Y215005D02*
X130495Y206995D01*
X130495Y215005D02*
X139505Y215005D01*
X139505Y206995D01*
X130495Y206995D01*
X130495Y207935D02*
X139505Y207935D01*
X139505Y208875D02*
X130495Y208875D01*
X130495Y209815D02*
X139505Y209815D01*
X139505Y210755D02*
X130495Y210755D01*
X130495Y211695D02*
X139505Y211695D01*
X139505Y212635D02*
X130495Y212635D01*
X130495Y213575D02*
X139505Y213575D01*
X139505Y214515D02*
X130495Y214515D01*
D19*
X63190Y26480D02*
X56190Y26480D01*
X63190Y26480D02*
X63190Y19480D01*
X56190Y19480D01*
X56190Y26480D01*
X56190Y22330D02*
X63190Y22330D01*
X63190Y25180D02*
X56190Y25180D01*
X56190Y44020D02*
X63190Y44020D01*
X63190Y37020D01*
X56190Y37020D01*
X56190Y44020D01*
X56190Y39870D02*
X63190Y39870D01*
X63190Y42720D02*
X56190Y42720D01*
D13*
X62180Y49660D02*
X62180Y54640D01*
X62180Y49660D02*
X57200Y49660D01*
X57200Y54640D01*
X62180Y54640D01*
X62180Y50629D02*
X57200Y50629D01*
X57200Y51598D02*
X62180Y51598D01*
X62180Y52567D02*
X57200Y52567D01*
X57200Y53536D02*
X62180Y53536D01*
X62180Y54505D02*
X57200Y54505D01*
X62180Y59660D02*
X62180Y64640D01*
X62180Y59660D02*
X57200Y59660D01*
X57200Y64640D01*
X62180Y64640D01*
X62180Y60629D02*
X57200Y60629D01*
X57200Y61598D02*
X62180Y61598D01*
X62180Y62567D02*
X57200Y62567D01*
X57200Y63536D02*
X62180Y63536D01*
X62180Y64505D02*
X57200Y64505D01*
X48290Y124510D02*
X43310Y124510D01*
X43310Y129490D01*
X48290Y129490D01*
X48290Y124510D01*
X48290Y125479D02*
X43310Y125479D01*
X43310Y126448D02*
X48290Y126448D01*
X48290Y127417D02*
X43310Y127417D01*
X43310Y128386D02*
X48290Y128386D01*
X48290Y129355D02*
X43310Y129355D01*
X53310Y124510D02*
X58290Y124510D01*
X53310Y124510D02*
X53310Y129490D01*
X58290Y129490D01*
X58290Y124510D01*
X58290Y125479D02*
X53310Y125479D01*
X53310Y126448D02*
X58290Y126448D01*
X58290Y127417D02*
X53310Y127417D01*
X53310Y128386D02*
X58290Y128386D01*
X58290Y129355D02*
X53310Y129355D01*
D23*
X144300Y360200D03*
X144300Y355200D03*
X144300Y350200D03*
X144300Y345200D03*
X144300Y340200D03*
X144300Y335200D03*
X144300Y330200D03*
X144300Y325200D03*
X144300Y320200D03*
X144300Y315200D03*
X144300Y310200D03*
X144300Y305200D03*
X144300Y300200D03*
X139300Y360200D03*
X139300Y355200D03*
X139300Y350200D03*
X139300Y345200D03*
X139300Y340200D03*
X139300Y335200D03*
X139300Y330200D03*
X139300Y325200D03*
X139300Y320200D03*
X139300Y315200D03*
X139300Y310200D03*
X139300Y305200D03*
X139300Y300200D03*
X134300Y360200D03*
X129300Y360200D03*
X124300Y360200D03*
X119300Y360200D03*
X114300Y360200D03*
X109300Y360200D03*
X104300Y360200D03*
X99300Y360200D03*
X94300Y360200D03*
X89300Y360200D03*
X84300Y360200D03*
X134300Y355200D03*
X129300Y355200D03*
X124300Y355200D03*
X119300Y355200D03*
X114300Y355200D03*
X109300Y355200D03*
X104300Y355200D03*
X99300Y355200D03*
X94300Y355200D03*
X89300Y355200D03*
X84300Y355200D03*
X134300Y350200D03*
X129300Y350200D03*
X124300Y350200D03*
X119300Y350200D03*
X114300Y350200D03*
X109300Y350200D03*
X104300Y350200D03*
X99300Y350200D03*
X94300Y350200D03*
X89300Y350200D03*
X84300Y350200D03*
X134300Y345200D03*
X94300Y345200D03*
X89300Y345200D03*
X84300Y345200D03*
X134300Y340200D03*
X94300Y340200D03*
X89300Y340200D03*
X84300Y340200D03*
X134300Y335200D03*
X94300Y335200D03*
X89300Y335200D03*
X84300Y335200D03*
X134300Y330200D03*
X94300Y330200D03*
X89300Y330200D03*
X84300Y330200D03*
X134300Y325200D03*
X94300Y325200D03*
X89300Y325200D03*
X84300Y325200D03*
X134300Y320200D03*
X94300Y320200D03*
X89300Y320200D03*
X84300Y320200D03*
X134300Y315200D03*
X94300Y315200D03*
X89300Y315200D03*
X84300Y315200D03*
X134300Y310200D03*
X129300Y310200D03*
X124300Y310200D03*
X119300Y310200D03*
X114300Y310200D03*
X109300Y310200D03*
X104300Y310200D03*
X99300Y310200D03*
X94300Y310200D03*
X89300Y310200D03*
X84300Y310200D03*
X134300Y305200D03*
X129300Y305200D03*
X124300Y305200D03*
X119300Y305200D03*
X114300Y305200D03*
X109300Y305200D03*
X104300Y305200D03*
X99300Y305200D03*
X94300Y305200D03*
X89300Y305200D03*
X84300Y305200D03*
X134300Y300200D03*
X129300Y300200D03*
X124300Y300200D03*
X119300Y300200D03*
X114300Y300200D03*
X109300Y300200D03*
X104300Y300200D03*
X99300Y300200D03*
X94300Y300200D03*
X89300Y300200D03*
X84300Y300200D03*
D24*
X106800Y280700D03*
X111800Y280700D03*
X116800Y280700D03*
X121800Y280700D03*
X106800Y252700D03*
X111800Y252700D03*
X116800Y252700D03*
X121800Y252700D03*
D25*
X114300Y266700D03*
D13*
X130860Y275560D02*
X130860Y280540D01*
X135840Y280540D01*
X135840Y275560D01*
X130860Y275560D01*
X130860Y276529D02*
X135840Y276529D01*
X135840Y277498D02*
X130860Y277498D01*
X130860Y278467D02*
X135840Y278467D01*
X135840Y279436D02*
X130860Y279436D01*
X130860Y280405D02*
X135840Y280405D01*
X130860Y270540D02*
X130860Y265560D01*
X130860Y270540D02*
X135840Y270540D01*
X135840Y265560D01*
X130860Y265560D01*
X130860Y266529D02*
X135840Y266529D01*
X135840Y267498D02*
X130860Y267498D01*
X130860Y268467D02*
X135840Y268467D01*
X135840Y269436D02*
X130860Y269436D01*
X130860Y270405D02*
X135840Y270405D01*
X92760Y275560D02*
X92760Y280540D01*
X97740Y280540D01*
X97740Y275560D01*
X92760Y275560D01*
X92760Y276529D02*
X97740Y276529D01*
X97740Y277498D02*
X92760Y277498D01*
X92760Y278467D02*
X97740Y278467D01*
X97740Y279436D02*
X92760Y279436D01*
X92760Y280405D02*
X97740Y280405D01*
X92760Y270540D02*
X92760Y265560D01*
X92760Y270540D02*
X97740Y270540D01*
X97740Y265560D01*
X92760Y265560D01*
X92760Y266529D02*
X97740Y266529D01*
X97740Y267498D02*
X92760Y267498D01*
X92760Y268467D02*
X97740Y268467D01*
X97740Y269436D02*
X92760Y269436D01*
X92760Y270405D02*
X97740Y270405D01*
X163960Y315010D02*
X168940Y315010D01*
X163960Y315010D02*
X163960Y319990D01*
X168940Y319990D01*
X168940Y315010D01*
X168940Y315979D02*
X163960Y315979D01*
X163960Y316948D02*
X168940Y316948D01*
X168940Y317917D02*
X163960Y317917D01*
X163960Y318886D02*
X168940Y318886D01*
X168940Y319855D02*
X163960Y319855D01*
X173960Y315010D02*
X178940Y315010D01*
X173960Y315010D02*
X173960Y319990D01*
X178940Y319990D01*
X178940Y315010D01*
X178940Y315979D02*
X173960Y315979D01*
X173960Y316948D02*
X178940Y316948D01*
X178940Y317917D02*
X173960Y317917D01*
X173960Y318886D02*
X178940Y318886D01*
X178940Y319855D02*
X173960Y319855D01*
D14*
X78050Y286550D02*
X78050Y276550D01*
X78050Y286550D02*
X87050Y286550D01*
X87050Y276550D01*
X78050Y276550D01*
X78050Y277500D02*
X87050Y277500D01*
X87050Y278450D02*
X78050Y278450D01*
X78050Y279400D02*
X87050Y279400D01*
X87050Y280350D02*
X78050Y280350D01*
X78050Y281300D02*
X87050Y281300D01*
X87050Y282250D02*
X78050Y282250D01*
X78050Y283200D02*
X87050Y283200D01*
X87050Y284150D02*
X78050Y284150D01*
X78050Y285100D02*
X87050Y285100D01*
X87050Y286050D02*
X78050Y286050D01*
X78050Y269550D02*
X78050Y259550D01*
X78050Y269550D02*
X87050Y269550D01*
X87050Y259550D01*
X78050Y259550D01*
X78050Y260500D02*
X87050Y260500D01*
X87050Y261450D02*
X78050Y261450D01*
X78050Y262400D02*
X87050Y262400D01*
X87050Y263350D02*
X78050Y263350D01*
X78050Y264300D02*
X87050Y264300D01*
X87050Y265250D02*
X78050Y265250D01*
X78050Y266200D02*
X87050Y266200D01*
X87050Y267150D02*
X78050Y267150D01*
X78050Y268100D02*
X87050Y268100D01*
X87050Y269050D02*
X78050Y269050D01*
D13*
X54640Y264210D02*
X49660Y264210D01*
X49660Y269190D01*
X54640Y269190D01*
X54640Y264210D01*
X54640Y265179D02*
X49660Y265179D01*
X49660Y266148D02*
X54640Y266148D01*
X54640Y267117D02*
X49660Y267117D01*
X49660Y268086D02*
X54640Y268086D01*
X54640Y269055D02*
X49660Y269055D01*
X59660Y264210D02*
X64640Y264210D01*
X59660Y264210D02*
X59660Y269190D01*
X64640Y269190D01*
X64640Y264210D01*
X64640Y265179D02*
X59660Y265179D01*
X59660Y266148D02*
X64640Y266148D01*
X64640Y267117D02*
X59660Y267117D01*
X59660Y268086D02*
X64640Y268086D01*
X64640Y269055D02*
X59660Y269055D01*
X59660Y294590D02*
X64640Y294590D01*
X64640Y289610D01*
X59660Y289610D01*
X59660Y294590D01*
X59660Y290579D02*
X64640Y290579D01*
X64640Y291548D02*
X59660Y291548D01*
X59660Y292517D02*
X64640Y292517D01*
X64640Y293486D02*
X59660Y293486D01*
X59660Y294455D02*
X64640Y294455D01*
X54640Y294590D02*
X49660Y294590D01*
X54640Y294590D02*
X54640Y289610D01*
X49660Y289610D01*
X49660Y294590D01*
X49660Y290579D02*
X54640Y290579D01*
X54640Y291548D02*
X49660Y291548D01*
X49660Y292517D02*
X54640Y292517D01*
X54640Y293486D02*
X49660Y293486D01*
X49660Y294455D02*
X54640Y294455D01*
X59660Y307290D02*
X64640Y307290D01*
X64640Y302310D01*
X59660Y302310D01*
X59660Y307290D01*
X59660Y303279D02*
X64640Y303279D01*
X64640Y304248D02*
X59660Y304248D01*
X59660Y305217D02*
X64640Y305217D01*
X64640Y306186D02*
X59660Y306186D01*
X59660Y307155D02*
X64640Y307155D01*
X54640Y307290D02*
X49660Y307290D01*
X54640Y307290D02*
X54640Y302310D01*
X49660Y302310D01*
X49660Y307290D01*
X49660Y303279D02*
X54640Y303279D01*
X54640Y304248D02*
X49660Y304248D01*
X49660Y305217D02*
X54640Y305217D01*
X54640Y306186D02*
X49660Y306186D01*
X49660Y307155D02*
X54640Y307155D01*
X59660Y281890D02*
X64640Y281890D01*
X64640Y276910D01*
X59660Y276910D01*
X59660Y281890D01*
X59660Y277879D02*
X64640Y277879D01*
X64640Y278848D02*
X59660Y278848D01*
X59660Y279817D02*
X64640Y279817D01*
X64640Y280786D02*
X59660Y280786D01*
X59660Y281755D02*
X64640Y281755D01*
X54640Y281890D02*
X49660Y281890D01*
X54640Y281890D02*
X54640Y276910D01*
X49660Y276910D01*
X49660Y281890D01*
X49660Y277879D02*
X54640Y277879D01*
X54640Y278848D02*
X49660Y278848D01*
X49660Y279817D02*
X54640Y279817D01*
X54640Y280786D02*
X49660Y280786D01*
X49660Y281755D02*
X54640Y281755D01*
D19*
X167950Y248730D02*
X174950Y248730D01*
X174950Y241730D01*
X167950Y241730D01*
X167950Y248730D01*
X167950Y244580D02*
X174950Y244580D01*
X174950Y247430D02*
X167950Y247430D01*
X167950Y266270D02*
X174950Y266270D01*
X174950Y259270D01*
X167950Y259270D01*
X167950Y266270D01*
X167950Y262120D02*
X174950Y262120D01*
X174950Y264970D02*
X167950Y264970D01*
D13*
X168940Y276910D02*
X163960Y276910D01*
X163960Y281890D01*
X168940Y281890D01*
X168940Y276910D01*
X168940Y277879D02*
X163960Y277879D01*
X163960Y278848D02*
X168940Y278848D01*
X168940Y279817D02*
X163960Y279817D01*
X163960Y280786D02*
X168940Y280786D01*
X168940Y281755D02*
X163960Y281755D01*
X173960Y276910D02*
X178940Y276910D01*
X173960Y276910D02*
X173960Y281890D01*
X178940Y281890D01*
X178940Y276910D01*
X178940Y277879D02*
X173960Y277879D01*
X173960Y278848D02*
X178940Y278848D01*
X178940Y279817D02*
X173960Y279817D01*
X173960Y280786D02*
X178940Y280786D01*
X178940Y281755D02*
X173960Y281755D01*
X168940Y302310D02*
X163960Y302310D01*
X163960Y307290D01*
X168940Y307290D01*
X168940Y302310D01*
X168940Y303279D02*
X163960Y303279D01*
X163960Y304248D02*
X168940Y304248D01*
X168940Y305217D02*
X163960Y305217D01*
X163960Y306186D02*
X168940Y306186D01*
X168940Y307155D02*
X163960Y307155D01*
X173960Y302310D02*
X178940Y302310D01*
X173960Y302310D02*
X173960Y307290D01*
X178940Y307290D01*
X178940Y302310D01*
X178940Y303279D02*
X173960Y303279D01*
X173960Y304248D02*
X178940Y304248D01*
X178940Y305217D02*
X173960Y305217D01*
X173960Y306186D02*
X178940Y306186D01*
X178940Y307155D02*
X173960Y307155D01*
X168940Y289610D02*
X163960Y289610D01*
X163960Y294590D01*
X168940Y294590D01*
X168940Y289610D01*
X168940Y290579D02*
X163960Y290579D01*
X163960Y291548D02*
X168940Y291548D01*
X168940Y292517D02*
X163960Y292517D01*
X163960Y293486D02*
X168940Y293486D01*
X168940Y294455D02*
X163960Y294455D01*
X173960Y289610D02*
X178940Y289610D01*
X173960Y289610D02*
X173960Y294590D01*
X178940Y294590D01*
X178940Y289610D01*
X178940Y290579D02*
X173960Y290579D01*
X173960Y291548D02*
X178940Y291548D01*
X178940Y292517D02*
X173960Y292517D01*
X173960Y293486D02*
X178940Y293486D01*
X178940Y294455D02*
X173960Y294455D01*
D26*
X163950Y355400D03*
X168950Y355400D03*
X173950Y355400D03*
X178950Y355400D03*
X178950Y330400D03*
X173950Y330400D03*
X168950Y330400D03*
X163950Y330400D03*
D27*
X171450Y342900D03*
D13*
X168940Y365810D02*
X163960Y365810D01*
X163960Y370790D01*
X168940Y370790D01*
X168940Y365810D01*
X168940Y366779D02*
X163960Y366779D01*
X163960Y367748D02*
X168940Y367748D01*
X168940Y368717D02*
X163960Y368717D01*
X163960Y369686D02*
X168940Y369686D01*
X168940Y370655D02*
X163960Y370655D01*
X173960Y365810D02*
X178940Y365810D01*
X173960Y365810D02*
X173960Y370790D01*
X178940Y370790D01*
X178940Y365810D01*
X178940Y366779D02*
X173960Y366779D01*
X173960Y367748D02*
X178940Y367748D01*
X178940Y368717D02*
X173960Y368717D01*
X173960Y369686D02*
X178940Y369686D01*
X178940Y370655D02*
X173960Y370655D01*
D28*
X55125Y327175D02*
X55125Y319725D01*
X48675Y319725D01*
X48675Y327175D01*
X55125Y327175D01*
X55125Y320722D02*
X48675Y320722D01*
X48675Y321719D02*
X55125Y321719D01*
X55125Y322716D02*
X48675Y322716D01*
X48675Y323713D02*
X55125Y323713D01*
X55125Y324710D02*
X48675Y324710D01*
X48675Y325707D02*
X55125Y325707D01*
X55125Y326704D02*
X48675Y326704D01*
X48675Y333225D02*
X48675Y340675D01*
X55125Y340675D01*
X55125Y333225D01*
X48675Y333225D01*
X48675Y334222D02*
X55125Y334222D01*
X55125Y335219D02*
X48675Y335219D01*
X48675Y336216D02*
X55125Y336216D01*
X55125Y337213D02*
X48675Y337213D01*
X48675Y338210D02*
X55125Y338210D01*
X55125Y339207D02*
X48675Y339207D01*
X48675Y340204D02*
X55125Y340204D01*
X59175Y340675D02*
X59175Y333225D01*
X59175Y340675D02*
X65625Y340675D01*
X65625Y333225D01*
X59175Y333225D01*
X59175Y334222D02*
X65625Y334222D01*
X65625Y335219D02*
X59175Y335219D01*
X59175Y336216D02*
X65625Y336216D01*
X65625Y337213D02*
X59175Y337213D01*
X59175Y338210D02*
X65625Y338210D01*
X65625Y339207D02*
X59175Y339207D01*
X59175Y340204D02*
X65625Y340204D01*
X65625Y327175D02*
X65625Y319725D01*
X59175Y319725D01*
X59175Y327175D01*
X65625Y327175D01*
X65625Y320722D02*
X59175Y320722D01*
X59175Y321719D02*
X65625Y321719D01*
X65625Y322716D02*
X59175Y322716D01*
X59175Y323713D02*
X65625Y323713D01*
X65625Y324710D02*
X59175Y324710D01*
X59175Y325707D02*
X65625Y325707D01*
X65625Y326704D02*
X59175Y326704D01*
D13*
X151260Y378510D02*
X156240Y378510D01*
X151260Y378510D02*
X151260Y383490D01*
X156240Y383490D01*
X156240Y378510D01*
X156240Y379479D02*
X151260Y379479D01*
X151260Y380448D02*
X156240Y380448D01*
X156240Y381417D02*
X151260Y381417D01*
X151260Y382386D02*
X156240Y382386D01*
X156240Y383355D02*
X151260Y383355D01*
X161260Y378510D02*
X166240Y378510D01*
X161260Y378510D02*
X161260Y383490D01*
X166240Y383490D01*
X166240Y378510D01*
X166240Y379479D02*
X161260Y379479D01*
X161260Y380448D02*
X166240Y380448D01*
X166240Y381417D02*
X161260Y381417D01*
X161260Y382386D02*
X166240Y382386D01*
X166240Y383355D02*
X161260Y383355D01*
D10*
X291480Y576000D03*
D11*
X282480Y576000D02*
X282480Y576000D01*
X282480Y576000D01*
X282480Y576000D01*
X282480Y576000D01*
X282480Y576000D01*
X282480Y576000D01*
X282480Y576000D01*
X282480Y576000D01*
X300480Y576000D02*
X300480Y576000D01*
X300480Y576000D01*
X300480Y576000D01*
X300480Y576000D01*
X300480Y576000D01*
X300480Y576000D01*
X300480Y576000D01*
X300480Y576000D01*
D10*
X291480Y566000D03*
D11*
X282480Y566000D02*
X282480Y566000D01*
X282480Y566000D01*
X282480Y566000D01*
X282480Y566000D01*
X282480Y566000D01*
X282480Y566000D01*
X282480Y566000D01*
X282480Y566000D01*
X300480Y566000D02*
X300480Y566000D01*
X300480Y566000D01*
X300480Y566000D01*
X300480Y566000D01*
X300480Y566000D01*
X300480Y566000D01*
X300480Y566000D01*
X300480Y566000D01*
D10*
X291480Y556000D03*
D11*
X282480Y556000D02*
X282480Y556000D01*
X282480Y556000D01*
X282480Y556000D01*
X282480Y556000D01*
X282480Y556000D01*
X282480Y556000D01*
X282480Y556000D01*
X282480Y556000D01*
X300480Y556000D02*
X300480Y556000D01*
X300480Y556000D01*
X300480Y556000D01*
X300480Y556000D01*
X300480Y556000D01*
X300480Y556000D01*
X300480Y556000D01*
X300480Y556000D01*
D10*
X291480Y546000D03*
D11*
X282480Y546000D02*
X282480Y546000D01*
X282480Y546000D01*
X282480Y546000D01*
X282480Y546000D01*
X282480Y546000D01*
X282480Y546000D01*
X282480Y546000D01*
X282480Y546000D01*
X300480Y546000D02*
X300480Y546000D01*
X300480Y546000D01*
X300480Y546000D01*
X300480Y546000D01*
X300480Y546000D01*
X300480Y546000D01*
X300480Y546000D01*
X300480Y546000D01*
D10*
X291480Y536000D03*
D11*
X282480Y536000D02*
X282480Y536000D01*
X282480Y536000D01*
X282480Y536000D01*
X282480Y536000D01*
X282480Y536000D01*
X282480Y536000D01*
X282480Y536000D01*
X282480Y536000D01*
X300480Y536000D02*
X300480Y536000D01*
X300480Y536000D01*
X300480Y536000D01*
X300480Y536000D01*
X300480Y536000D01*
X300480Y536000D01*
X300480Y536000D01*
X300480Y536000D01*
D10*
X291480Y526000D03*
D11*
X282480Y526000D02*
X282480Y526000D01*
X282480Y526000D01*
X282480Y526000D01*
X282480Y526000D01*
X282480Y526000D01*
X282480Y526000D01*
X282480Y526000D01*
X282480Y526000D01*
X300480Y526000D02*
X300480Y526000D01*
X300480Y526000D01*
X300480Y526000D01*
X300480Y526000D01*
X300480Y526000D01*
X300480Y526000D01*
X300480Y526000D01*
X300480Y526000D01*
D10*
X291480Y516000D03*
D11*
X282480Y516000D02*
X282480Y516000D01*
X282480Y516000D01*
X282480Y516000D01*
X282480Y516000D01*
X282480Y516000D01*
X282480Y516000D01*
X282480Y516000D01*
X282480Y516000D01*
X300480Y516000D02*
X300480Y516000D01*
X300480Y516000D01*
X300480Y516000D01*
X300480Y516000D01*
X300480Y516000D01*
X300480Y516000D01*
X300480Y516000D01*
X300480Y516000D01*
D10*
X291480Y506000D03*
D11*
X282480Y506000D02*
X282480Y506000D01*
X282480Y506000D01*
X282480Y506000D01*
X282480Y506000D01*
X282480Y506000D01*
X282480Y506000D01*
X282480Y506000D01*
X282480Y506000D01*
X300480Y506000D02*
X300480Y506000D01*
X300480Y506000D01*
X300480Y506000D01*
X300480Y506000D01*
X300480Y506000D01*
X300480Y506000D01*
X300480Y506000D01*
X300480Y506000D01*
D10*
X291480Y496000D03*
D11*
X282480Y496000D02*
X282480Y496000D01*
X282480Y496000D01*
X282480Y496000D01*
X282480Y496000D01*
X282480Y496000D01*
X282480Y496000D01*
X282480Y496000D01*
X282480Y496000D01*
X300480Y496000D02*
X300480Y496000D01*
X300480Y496000D01*
X300480Y496000D01*
X300480Y496000D01*
X300480Y496000D01*
X300480Y496000D01*
X300480Y496000D01*
X300480Y496000D01*
D10*
X291480Y486000D03*
D11*
X282480Y486000D02*
X282480Y486000D01*
X282480Y486000D01*
X282480Y486000D01*
X282480Y486000D01*
X282480Y486000D01*
X282480Y486000D01*
X282480Y486000D01*
X282480Y486000D01*
X300480Y486000D02*
X300480Y486000D01*
X300480Y486000D01*
X300480Y486000D01*
X300480Y486000D01*
X300480Y486000D01*
X300480Y486000D01*
X300480Y486000D01*
X300480Y486000D01*
D10*
X291480Y476000D03*
D11*
X282480Y476000D02*
X282480Y476000D01*
X282480Y476000D01*
X282480Y476000D01*
X282480Y476000D01*
X282480Y476000D01*
X282480Y476000D01*
X282480Y476000D01*
X282480Y476000D01*
X300480Y476000D02*
X300480Y476000D01*
X300480Y476000D01*
X300480Y476000D01*
X300480Y476000D01*
X300480Y476000D01*
X300480Y476000D01*
X300480Y476000D01*
X300480Y476000D01*
D10*
X291480Y466000D03*
D11*
X282480Y466000D02*
X282480Y466000D01*
X282480Y466000D01*
X282480Y466000D01*
X282480Y466000D01*
X282480Y466000D01*
X282480Y466000D01*
X282480Y466000D01*
X282480Y466000D01*
X300480Y466000D02*
X300480Y466000D01*
X300480Y466000D01*
X300480Y466000D01*
X300480Y466000D01*
X300480Y466000D01*
X300480Y466000D01*
X300480Y466000D01*
X300480Y466000D01*
D10*
X291480Y456000D03*
D11*
X282480Y456000D02*
X282480Y456000D01*
X282480Y456000D01*
X282480Y456000D01*
X282480Y456000D01*
X282480Y456000D01*
X282480Y456000D01*
X282480Y456000D01*
X282480Y456000D01*
X300480Y456000D02*
X300480Y456000D01*
X300480Y456000D01*
X300480Y456000D01*
X300480Y456000D01*
X300480Y456000D01*
X300480Y456000D01*
X300480Y456000D01*
X300480Y456000D01*
D10*
X291480Y446000D03*
D11*
X282480Y446000D02*
X282480Y446000D01*
X282480Y446000D01*
X282480Y446000D01*
X282480Y446000D01*
X282480Y446000D01*
X282480Y446000D01*
X282480Y446000D01*
X282480Y446000D01*
X300480Y446000D02*
X300480Y446000D01*
X300480Y446000D01*
X300480Y446000D01*
X300480Y446000D01*
X300480Y446000D01*
X300480Y446000D01*
X300480Y446000D01*
X300480Y446000D01*
D10*
X404480Y576000D03*
D11*
X395480Y576000D02*
X395480Y576000D01*
X395480Y576000D01*
X395480Y576000D01*
X395480Y576000D01*
X395480Y576000D01*
X395480Y576000D01*
X395480Y576000D01*
X395480Y576000D01*
X413480Y576000D02*
X413480Y576000D01*
X413480Y576000D01*
X413480Y576000D01*
X413480Y576000D01*
X413480Y576000D01*
X413480Y576000D01*
X413480Y576000D01*
X413480Y576000D01*
D10*
X404480Y566000D03*
D11*
X395480Y566000D02*
X395480Y566000D01*
X395480Y566000D01*
X395480Y566000D01*
X395480Y566000D01*
X395480Y566000D01*
X395480Y566000D01*
X395480Y566000D01*
X395480Y566000D01*
X413480Y566000D02*
X413480Y566000D01*
X413480Y566000D01*
X413480Y566000D01*
X413480Y566000D01*
X413480Y566000D01*
X413480Y566000D01*
X413480Y566000D01*
X413480Y566000D01*
D10*
X404480Y556000D03*
D11*
X395480Y556000D02*
X395480Y556000D01*
X395480Y556000D01*
X395480Y556000D01*
X395480Y556000D01*
X395480Y556000D01*
X395480Y556000D01*
X395480Y556000D01*
X395480Y556000D01*
X413480Y556000D02*
X413480Y556000D01*
X413480Y556000D01*
X413480Y556000D01*
X413480Y556000D01*
X413480Y556000D01*
X413480Y556000D01*
X413480Y556000D01*
X413480Y556000D01*
D10*
X404480Y546000D03*
D11*
X395480Y546000D02*
X395480Y546000D01*
X395480Y546000D01*
X395480Y546000D01*
X395480Y546000D01*
X395480Y546000D01*
X395480Y546000D01*
X395480Y546000D01*
X395480Y546000D01*
X413480Y546000D02*
X413480Y546000D01*
X413480Y546000D01*
X413480Y546000D01*
X413480Y546000D01*
X413480Y546000D01*
X413480Y546000D01*
X413480Y546000D01*
X413480Y546000D01*
D10*
X404480Y536000D03*
D11*
X395480Y536000D02*
X395480Y536000D01*
X395480Y536000D01*
X395480Y536000D01*
X395480Y536000D01*
X395480Y536000D01*
X395480Y536000D01*
X395480Y536000D01*
X395480Y536000D01*
X413480Y536000D02*
X413480Y536000D01*
X413480Y536000D01*
X413480Y536000D01*
X413480Y536000D01*
X413480Y536000D01*
X413480Y536000D01*
X413480Y536000D01*
X413480Y536000D01*
D10*
X404480Y526000D03*
D11*
X395480Y526000D02*
X395480Y526000D01*
X395480Y526000D01*
X395480Y526000D01*
X395480Y526000D01*
X395480Y526000D01*
X395480Y526000D01*
X395480Y526000D01*
X395480Y526000D01*
X413480Y526000D02*
X413480Y526000D01*
X413480Y526000D01*
X413480Y526000D01*
X413480Y526000D01*
X413480Y526000D01*
X413480Y526000D01*
X413480Y526000D01*
X413480Y526000D01*
D10*
X404480Y516000D03*
D11*
X395480Y516000D02*
X395480Y516000D01*
X395480Y516000D01*
X395480Y516000D01*
X395480Y516000D01*
X395480Y516000D01*
X395480Y516000D01*
X395480Y516000D01*
X395480Y516000D01*
X413480Y516000D02*
X413480Y516000D01*
X413480Y516000D01*
X413480Y516000D01*
X413480Y516000D01*
X413480Y516000D01*
X413480Y516000D01*
X413480Y516000D01*
X413480Y516000D01*
D10*
X404480Y506000D03*
D11*
X395480Y506000D02*
X395480Y506000D01*
X395480Y506000D01*
X395480Y506000D01*
X395480Y506000D01*
X395480Y506000D01*
X395480Y506000D01*
X395480Y506000D01*
X395480Y506000D01*
X413480Y506000D02*
X413480Y506000D01*
X413480Y506000D01*
X413480Y506000D01*
X413480Y506000D01*
X413480Y506000D01*
X413480Y506000D01*
X413480Y506000D01*
X413480Y506000D01*
D10*
X404480Y496000D03*
D11*
X395480Y496000D02*
X395480Y496000D01*
X395480Y496000D01*
X395480Y496000D01*
X395480Y496000D01*
X395480Y496000D01*
X395480Y496000D01*
X395480Y496000D01*
X395480Y496000D01*
X413480Y496000D02*
X413480Y496000D01*
X413480Y496000D01*
X413480Y496000D01*
X413480Y496000D01*
X413480Y496000D01*
X413480Y496000D01*
X413480Y496000D01*
X413480Y496000D01*
D10*
X404480Y486000D03*
D11*
X395480Y486000D02*
X395480Y486000D01*
X395480Y486000D01*
X395480Y486000D01*
X395480Y486000D01*
X395480Y486000D01*
X395480Y486000D01*
X395480Y486000D01*
X395480Y486000D01*
X413480Y486000D02*
X413480Y486000D01*
X413480Y486000D01*
X413480Y486000D01*
X413480Y486000D01*
X413480Y486000D01*
X413480Y486000D01*
X413480Y486000D01*
X413480Y486000D01*
D10*
X404480Y476000D03*
D11*
X395480Y476000D02*
X395480Y476000D01*
X395480Y476000D01*
X395480Y476000D01*
X395480Y476000D01*
X395480Y476000D01*
X395480Y476000D01*
X395480Y476000D01*
X395480Y476000D01*
X413480Y476000D02*
X413480Y476000D01*
X413480Y476000D01*
X413480Y476000D01*
X413480Y476000D01*
X413480Y476000D01*
X413480Y476000D01*
X413480Y476000D01*
X413480Y476000D01*
D10*
X404480Y466000D03*
D11*
X395480Y466000D02*
X395480Y466000D01*
X395480Y466000D01*
X395480Y466000D01*
X395480Y466000D01*
X395480Y466000D01*
X395480Y466000D01*
X395480Y466000D01*
X395480Y466000D01*
X413480Y466000D02*
X413480Y466000D01*
X413480Y466000D01*
X413480Y466000D01*
X413480Y466000D01*
X413480Y466000D01*
X413480Y466000D01*
X413480Y466000D01*
X413480Y466000D01*
D10*
X404480Y456000D03*
D11*
X395480Y456000D02*
X395480Y456000D01*
X395480Y456000D01*
X395480Y456000D01*
X395480Y456000D01*
X395480Y456000D01*
X395480Y456000D01*
X395480Y456000D01*
X395480Y456000D01*
X413480Y456000D02*
X413480Y456000D01*
X413480Y456000D01*
X413480Y456000D01*
X413480Y456000D01*
X413480Y456000D01*
X413480Y456000D01*
X413480Y456000D01*
X413480Y456000D01*
D10*
X404480Y446000D03*
D11*
X395480Y446000D02*
X395480Y446000D01*
X395480Y446000D01*
X395480Y446000D01*
X395480Y446000D01*
X395480Y446000D01*
X395480Y446000D01*
X395480Y446000D01*
X395480Y446000D01*
X413480Y446000D02*
X413480Y446000D01*
X413480Y446000D01*
X413480Y446000D01*
X413480Y446000D01*
X413480Y446000D01*
X413480Y446000D01*
X413480Y446000D01*
X413480Y446000D01*
D12*
X312980Y441000D03*
D11*
X312980Y432000D02*
X312980Y432000D01*
X312980Y432000D01*
X312980Y432000D01*
X312980Y432000D01*
X312980Y432000D01*
X312980Y432000D01*
X312980Y432000D01*
X312980Y432000D01*
X312980Y450000D02*
X312980Y450000D01*
X312980Y450000D01*
X312980Y450000D01*
X312980Y450000D01*
X312980Y450000D01*
X312980Y450000D01*
X312980Y450000D01*
X312980Y450000D01*
D12*
X322980Y441000D03*
D11*
X322980Y432000D02*
X322980Y432000D01*
X322980Y432000D01*
X322980Y432000D01*
X322980Y432000D01*
X322980Y432000D01*
X322980Y432000D01*
X322980Y432000D01*
X322980Y432000D01*
X322980Y450000D02*
X322980Y450000D01*
X322980Y450000D01*
X322980Y450000D01*
X322980Y450000D01*
X322980Y450000D01*
X322980Y450000D01*
X322980Y450000D01*
X322980Y450000D01*
D12*
X332980Y441000D03*
D11*
X332980Y432000D02*
X332980Y432000D01*
X332980Y432000D01*
X332980Y432000D01*
X332980Y432000D01*
X332980Y432000D01*
X332980Y432000D01*
X332980Y432000D01*
X332980Y432000D01*
X332980Y450000D02*
X332980Y450000D01*
X332980Y450000D01*
X332980Y450000D01*
X332980Y450000D01*
X332980Y450000D01*
X332980Y450000D01*
X332980Y450000D01*
X332980Y450000D01*
D12*
X342980Y441000D03*
D11*
X342980Y432000D02*
X342980Y432000D01*
X342980Y432000D01*
X342980Y432000D01*
X342980Y432000D01*
X342980Y432000D01*
X342980Y432000D01*
X342980Y432000D01*
X342980Y432000D01*
X342980Y450000D02*
X342980Y450000D01*
X342980Y450000D01*
X342980Y450000D01*
X342980Y450000D01*
X342980Y450000D01*
X342980Y450000D01*
X342980Y450000D01*
X342980Y450000D01*
D12*
X352980Y441000D03*
D11*
X352980Y432000D02*
X352980Y432000D01*
X352980Y432000D01*
X352980Y432000D01*
X352980Y432000D01*
X352980Y432000D01*
X352980Y432000D01*
X352980Y432000D01*
X352980Y432000D01*
X352980Y450000D02*
X352980Y450000D01*
X352980Y450000D01*
X352980Y450000D01*
X352980Y450000D01*
X352980Y450000D01*
X352980Y450000D01*
X352980Y450000D01*
X352980Y450000D01*
D12*
X362980Y441000D03*
D11*
X362980Y432000D02*
X362980Y432000D01*
X362980Y432000D01*
X362980Y432000D01*
X362980Y432000D01*
X362980Y432000D01*
X362980Y432000D01*
X362980Y432000D01*
X362980Y432000D01*
X362980Y450000D02*
X362980Y450000D01*
X362980Y450000D01*
X362980Y450000D01*
X362980Y450000D01*
X362980Y450000D01*
X362980Y450000D01*
X362980Y450000D01*
X362980Y450000D01*
D12*
X372980Y441000D03*
D11*
X372980Y432000D02*
X372980Y432000D01*
X372980Y432000D01*
X372980Y432000D01*
X372980Y432000D01*
X372980Y432000D01*
X372980Y432000D01*
X372980Y432000D01*
X372980Y432000D01*
X372980Y450000D02*
X372980Y450000D01*
X372980Y450000D01*
X372980Y450000D01*
X372980Y450000D01*
X372980Y450000D01*
X372980Y450000D01*
X372980Y450000D01*
X372980Y450000D01*
D12*
X382980Y441000D03*
D11*
X382980Y432000D02*
X382980Y432000D01*
X382980Y432000D01*
X382980Y432000D01*
X382980Y432000D01*
X382980Y432000D01*
X382980Y432000D01*
X382980Y432000D01*
X382980Y432000D01*
X382980Y450000D02*
X382980Y450000D01*
X382980Y450000D01*
X382980Y450000D01*
X382980Y450000D01*
X382980Y450000D01*
X382980Y450000D01*
X382980Y450000D01*
X382980Y450000D01*
D13*
X356470Y55610D02*
X354490Y55610D01*
X354490Y64590D01*
X356470Y64590D01*
X356470Y55610D01*
X356470Y56579D02*
X354490Y56579D01*
X354490Y57548D02*
X356470Y57548D01*
X356470Y58517D02*
X354490Y58517D01*
X354490Y59486D02*
X356470Y59486D01*
X356470Y60455D02*
X354490Y60455D01*
X354490Y61424D02*
X356470Y61424D01*
X356470Y62393D02*
X354490Y62393D01*
X354490Y63362D02*
X356470Y63362D01*
X356470Y64331D02*
X354490Y64331D01*
X351470Y55610D02*
X349490Y55610D01*
X349490Y64590D01*
X351470Y64590D01*
X351470Y55610D01*
X351470Y56579D02*
X349490Y56579D01*
X349490Y57548D02*
X351470Y57548D01*
X351470Y58517D02*
X349490Y58517D01*
X349490Y59486D02*
X351470Y59486D01*
X351470Y60455D02*
X349490Y60455D01*
X349490Y61424D02*
X351470Y61424D01*
X351470Y62393D02*
X349490Y62393D01*
X349490Y63362D02*
X351470Y63362D01*
X351470Y64331D02*
X349490Y64331D01*
X377740Y55610D02*
X382720Y55610D01*
X377740Y55610D02*
X377740Y64590D01*
X382720Y64590D01*
X382720Y55610D01*
X382720Y56579D02*
X377740Y56579D01*
X377740Y57548D02*
X382720Y57548D01*
X382720Y58517D02*
X377740Y58517D01*
X377740Y59486D02*
X382720Y59486D01*
X382720Y60455D02*
X377740Y60455D01*
X377740Y61424D02*
X382720Y61424D01*
X382720Y62393D02*
X377740Y62393D01*
X377740Y63362D02*
X382720Y63362D01*
X382720Y64331D02*
X377740Y64331D01*
X374970Y55610D02*
X369990Y55610D01*
X369990Y64590D01*
X374970Y64590D01*
X374970Y55610D01*
X374970Y56579D02*
X369990Y56579D01*
X369990Y57548D02*
X374970Y57548D01*
X374970Y58517D02*
X369990Y58517D01*
X369990Y59486D02*
X374970Y59486D01*
X374970Y60455D02*
X369990Y60455D01*
X369990Y61424D02*
X374970Y61424D01*
X374970Y62393D02*
X369990Y62393D01*
X369990Y63362D02*
X374970Y63362D01*
X374970Y64331D02*
X369990Y64331D01*
X366470Y55610D02*
X364490Y55610D01*
X364490Y64590D01*
X366470Y64590D01*
X366470Y55610D01*
X366470Y56579D02*
X364490Y56579D01*
X364490Y57548D02*
X366470Y57548D01*
X366470Y58517D02*
X364490Y58517D01*
X364490Y59486D02*
X366470Y59486D01*
X366470Y60455D02*
X364490Y60455D01*
X364490Y61424D02*
X366470Y61424D01*
X366470Y62393D02*
X364490Y62393D01*
X364490Y63362D02*
X366470Y63362D01*
X366470Y64331D02*
X364490Y64331D01*
X361470Y55610D02*
X359490Y55610D01*
X359490Y64590D01*
X361470Y64590D01*
X361470Y55610D01*
X361470Y56579D02*
X359490Y56579D01*
X359490Y57548D02*
X361470Y57548D01*
X361470Y58517D02*
X359490Y58517D01*
X359490Y59486D02*
X361470Y59486D01*
X361470Y60455D02*
X359490Y60455D01*
X359490Y61424D02*
X361470Y61424D01*
X361470Y62393D02*
X359490Y62393D01*
X359490Y63362D02*
X361470Y63362D01*
X361470Y64331D02*
X359490Y64331D01*
X341470Y64590D02*
X339490Y64590D01*
X341470Y64590D02*
X341470Y55610D01*
X339490Y55610D01*
X339490Y64590D01*
X339490Y56579D02*
X341470Y56579D01*
X341470Y57548D02*
X339490Y57548D01*
X339490Y58517D02*
X341470Y58517D01*
X341470Y59486D02*
X339490Y59486D01*
X339490Y60455D02*
X341470Y60455D01*
X341470Y61424D02*
X339490Y61424D01*
X339490Y62393D02*
X341470Y62393D01*
X341470Y63362D02*
X339490Y63362D01*
X339490Y64331D02*
X341470Y64331D01*
X344490Y64590D02*
X346470Y64590D01*
X346470Y55610D01*
X344490Y55610D01*
X344490Y64590D01*
X344490Y56579D02*
X346470Y56579D01*
X346470Y57548D02*
X344490Y57548D01*
X344490Y58517D02*
X346470Y58517D01*
X346470Y59486D02*
X344490Y59486D01*
X344490Y60455D02*
X346470Y60455D01*
X346470Y61424D02*
X344490Y61424D01*
X344490Y62393D02*
X346470Y62393D01*
X346470Y63362D02*
X344490Y63362D01*
X344490Y64331D02*
X346470Y64331D01*
X318220Y64590D02*
X313240Y64590D01*
X318220Y64590D02*
X318220Y55610D01*
X313240Y55610D01*
X313240Y64590D01*
X313240Y56579D02*
X318220Y56579D01*
X318220Y57548D02*
X313240Y57548D01*
X313240Y58517D02*
X318220Y58517D01*
X318220Y59486D02*
X313240Y59486D01*
X313240Y60455D02*
X318220Y60455D01*
X318220Y61424D02*
X313240Y61424D01*
X313240Y62393D02*
X318220Y62393D01*
X318220Y63362D02*
X313240Y63362D01*
X313240Y64331D02*
X318220Y64331D01*
X320990Y64590D02*
X325970Y64590D01*
X325970Y55610D01*
X320990Y55610D01*
X320990Y64590D01*
X320990Y56579D02*
X325970Y56579D01*
X325970Y57548D02*
X320990Y57548D01*
X320990Y58517D02*
X325970Y58517D01*
X325970Y59486D02*
X320990Y59486D01*
X320990Y60455D02*
X325970Y60455D01*
X325970Y61424D02*
X320990Y61424D01*
X320990Y62393D02*
X325970Y62393D01*
X325970Y63362D02*
X320990Y63362D01*
X320990Y64331D02*
X325970Y64331D01*
X329490Y64590D02*
X331470Y64590D01*
X331470Y55610D01*
X329490Y55610D01*
X329490Y64590D01*
X329490Y56579D02*
X331470Y56579D01*
X331470Y57548D02*
X329490Y57548D01*
X329490Y58517D02*
X331470Y58517D01*
X331470Y59486D02*
X329490Y59486D01*
X329490Y60455D02*
X331470Y60455D01*
X331470Y61424D02*
X329490Y61424D01*
X329490Y62393D02*
X331470Y62393D01*
X331470Y63362D02*
X329490Y63362D01*
X329490Y64331D02*
X331470Y64331D01*
X334490Y64590D02*
X336470Y64590D01*
X336470Y55610D01*
X334490Y55610D01*
X334490Y64590D01*
X334490Y56579D02*
X336470Y56579D01*
X336470Y57548D02*
X334490Y57548D01*
X334490Y58517D02*
X336470Y58517D01*
X336470Y59486D02*
X334490Y59486D01*
X334490Y60455D02*
X336470Y60455D01*
X336470Y61424D02*
X334490Y61424D01*
X334490Y62393D02*
X336470Y62393D01*
X336470Y63362D02*
X334490Y63362D01*
X334490Y64331D02*
X336470Y64331D01*
D14*
X331280Y163300D02*
X331280Y172300D01*
X331280Y163300D02*
X286280Y163300D01*
X286280Y172300D01*
X331280Y172300D01*
X331280Y164250D02*
X286280Y164250D01*
X286280Y165200D02*
X331280Y165200D01*
X331280Y166150D02*
X286280Y166150D01*
X286280Y167100D02*
X331280Y167100D01*
X331280Y168050D02*
X286280Y168050D01*
X286280Y169000D02*
X331280Y169000D01*
X331280Y169950D02*
X286280Y169950D01*
X286280Y170900D02*
X331280Y170900D01*
X331280Y171850D02*
X286280Y171850D01*
X331280Y183300D02*
X331280Y192300D01*
X331280Y183300D02*
X286280Y183300D01*
X286280Y192300D01*
X331280Y192300D01*
X331280Y184250D02*
X286280Y184250D01*
X286280Y185200D02*
X331280Y185200D01*
X331280Y186150D02*
X286280Y186150D01*
X286280Y187100D02*
X331280Y187100D01*
X331280Y188050D02*
X286280Y188050D01*
X286280Y189000D02*
X331280Y189000D01*
X331280Y189950D02*
X286280Y189950D01*
X286280Y190900D02*
X331280Y190900D01*
X331280Y191850D02*
X286280Y191850D01*
D15*
X273300Y151320D02*
X240260Y151320D01*
X273300Y151320D02*
X273300Y136280D01*
X240260Y136280D01*
X240260Y151320D01*
X240260Y137192D02*
X273300Y137192D01*
X273300Y138104D02*
X240260Y138104D01*
X240260Y139016D02*
X273300Y139016D01*
X273300Y139928D02*
X240260Y139928D01*
X240260Y140840D02*
X273300Y140840D01*
X273300Y141752D02*
X240260Y141752D01*
X240260Y142664D02*
X273300Y142664D01*
X273300Y143576D02*
X240260Y143576D01*
X240260Y144488D02*
X273300Y144488D01*
X273300Y145400D02*
X240260Y145400D01*
X240260Y146312D02*
X273300Y146312D01*
X273300Y147224D02*
X240260Y147224D01*
X240260Y148136D02*
X273300Y148136D01*
X273300Y149048D02*
X240260Y149048D01*
X240260Y149960D02*
X273300Y149960D01*
X273300Y150872D02*
X240260Y150872D01*
X240260Y219320D02*
X273300Y219320D01*
X273300Y204280D01*
X240260Y204280D01*
X240260Y219320D01*
X240260Y205192D02*
X273300Y205192D01*
X273300Y206104D02*
X240260Y206104D01*
X240260Y207016D02*
X273300Y207016D01*
X273300Y207928D02*
X240260Y207928D01*
X240260Y208840D02*
X273300Y208840D01*
X273300Y209752D02*
X240260Y209752D01*
X240260Y210664D02*
X273300Y210664D01*
X273300Y211576D02*
X240260Y211576D01*
X240260Y212488D02*
X273300Y212488D01*
X273300Y213400D02*
X240260Y213400D01*
X240260Y214312D02*
X273300Y214312D01*
X273300Y215224D02*
X240260Y215224D01*
X240260Y216136D02*
X273300Y216136D01*
X273300Y217048D02*
X240260Y217048D01*
X240260Y217960D02*
X273300Y217960D01*
X273300Y218872D02*
X240260Y218872D01*
D16*
X424906Y183255D02*
X424906Y178745D01*
X413896Y178745D01*
X413896Y183255D01*
X424906Y183255D01*
X424906Y179685D02*
X413896Y179685D01*
X413896Y180625D02*
X424906Y180625D01*
X424906Y181565D02*
X413896Y181565D01*
X413896Y182505D02*
X424906Y182505D01*
X424906Y188245D02*
X424906Y192755D01*
X424906Y188245D02*
X413896Y188245D01*
X413896Y192755D01*
X424906Y192755D01*
X424906Y189185D02*
X413896Y189185D01*
X413896Y190125D02*
X424906Y190125D01*
X424906Y191065D02*
X413896Y191065D01*
X413896Y192005D02*
X424906Y192005D01*
X424906Y197745D02*
X424906Y202255D01*
X424906Y197745D02*
X413896Y197745D01*
X413896Y202255D01*
X424906Y202255D01*
X424906Y198685D02*
X413896Y198685D01*
X413896Y199625D02*
X424906Y199625D01*
X424906Y200565D02*
X413896Y200565D01*
X413896Y201505D02*
X424906Y201505D01*
X398904Y202255D02*
X398904Y197745D01*
X387894Y197745D01*
X387894Y202255D01*
X398904Y202255D01*
X398904Y198685D02*
X387894Y198685D01*
X387894Y199625D02*
X398904Y199625D01*
X398904Y200565D02*
X387894Y200565D01*
X387894Y201505D02*
X398904Y201505D01*
X398904Y183255D02*
X398904Y178745D01*
X387894Y178745D01*
X387894Y183255D01*
X398904Y183255D01*
X398904Y179685D02*
X387894Y179685D01*
X387894Y180625D02*
X398904Y180625D01*
X398904Y181565D02*
X387894Y181565D01*
X387894Y182505D02*
X398904Y182505D01*
D17*
X425460Y70180D02*
X425460Y63220D01*
X417500Y63220D01*
X417500Y70180D01*
X425460Y70180D01*
X425460Y64208D02*
X417500Y64208D01*
X417500Y65196D02*
X425460Y65196D01*
X425460Y66184D02*
X417500Y66184D01*
X417500Y67172D02*
X425460Y67172D01*
X425460Y68160D02*
X417500Y68160D01*
X417500Y69148D02*
X425460Y69148D01*
X425460Y70136D02*
X417500Y70136D01*
X425460Y82220D02*
X425460Y89180D01*
X425460Y82220D02*
X417500Y82220D01*
X417500Y89180D01*
X425460Y89180D01*
X425460Y83208D02*
X417500Y83208D01*
X417500Y84196D02*
X425460Y84196D01*
X425460Y85184D02*
X417500Y85184D01*
X417500Y86172D02*
X425460Y86172D01*
X425460Y87160D02*
X417500Y87160D01*
X417500Y88148D02*
X425460Y88148D01*
X425460Y89136D02*
X417500Y89136D01*
X404460Y79680D02*
X404460Y72720D01*
X396500Y72720D01*
X396500Y79680D01*
X404460Y79680D01*
X404460Y73708D02*
X396500Y73708D01*
X396500Y74696D02*
X404460Y74696D01*
X404460Y75684D02*
X396500Y75684D01*
X396500Y76672D02*
X404460Y76672D01*
X404460Y77660D02*
X396500Y77660D01*
X396500Y78648D02*
X404460Y78648D01*
X404460Y79636D02*
X396500Y79636D01*
D13*
X435560Y183010D02*
X435560Y187990D01*
X435560Y183010D02*
X430580Y183010D01*
X430580Y187990D01*
X435560Y187990D01*
X435560Y183979D02*
X430580Y183979D01*
X430580Y184948D02*
X435560Y184948D01*
X435560Y185917D02*
X430580Y185917D01*
X430580Y186886D02*
X435560Y186886D01*
X435560Y187855D02*
X430580Y187855D01*
X435560Y193010D02*
X435560Y197990D01*
X435560Y193010D02*
X430580Y193010D01*
X430580Y197990D01*
X435560Y197990D01*
X435560Y193979D02*
X430580Y193979D01*
X430580Y194948D02*
X435560Y194948D01*
X435560Y195917D02*
X430580Y195917D01*
X430580Y196886D02*
X435560Y196886D01*
X435560Y197855D02*
X430580Y197855D01*
X431670Y154890D02*
X426690Y154890D01*
X431670Y154890D02*
X431670Y149910D01*
X426690Y149910D01*
X426690Y154890D01*
X426690Y150879D02*
X431670Y150879D01*
X431670Y151848D02*
X426690Y151848D01*
X426690Y152817D02*
X431670Y152817D01*
X431670Y153786D02*
X426690Y153786D01*
X426690Y154755D02*
X431670Y154755D01*
X421670Y154890D02*
X416690Y154890D01*
X421670Y154890D02*
X421670Y149910D01*
X416690Y149910D01*
X416690Y154890D01*
X416690Y150879D02*
X421670Y150879D01*
X421670Y151848D02*
X416690Y151848D01*
X416690Y152817D02*
X421670Y152817D01*
X421670Y153786D02*
X416690Y153786D01*
X416690Y154755D02*
X421670Y154755D01*
D18*
X433234Y90346D02*
X433234Y85054D01*
X433234Y90346D02*
X440526Y90346D01*
X440526Y85054D01*
X433234Y85054D01*
X433234Y86012D02*
X440526Y86012D01*
X440526Y86970D02*
X433234Y86970D01*
X433234Y87928D02*
X440526Y87928D01*
X440526Y88886D02*
X433234Y88886D01*
X433234Y89844D02*
X440526Y89844D01*
X433234Y67346D02*
X433234Y62054D01*
X433234Y67346D02*
X440526Y67346D01*
X440526Y62054D01*
X433234Y62054D01*
X433234Y63012D02*
X440526Y63012D01*
X440526Y63970D02*
X433234Y63970D01*
X433234Y64928D02*
X440526Y64928D01*
X440526Y65886D02*
X433234Y65886D01*
X433234Y66844D02*
X440526Y66844D01*
D13*
X448360Y78710D02*
X448360Y83690D01*
X453340Y83690D01*
X453340Y78710D01*
X448360Y78710D01*
X448360Y79679D02*
X453340Y79679D01*
X453340Y80648D02*
X448360Y80648D01*
X448360Y81617D02*
X453340Y81617D01*
X453340Y82586D02*
X448360Y82586D01*
X448360Y83555D02*
X453340Y83555D01*
X448360Y73690D02*
X448360Y68710D01*
X448360Y73690D02*
X453340Y73690D01*
X453340Y68710D01*
X448360Y68710D01*
X448360Y69679D02*
X453340Y69679D01*
X453340Y70648D02*
X448360Y70648D01*
X448360Y71617D02*
X453340Y71617D01*
X453340Y72586D02*
X448360Y72586D01*
X448360Y73555D02*
X453340Y73555D01*
X399920Y167590D02*
X394940Y167590D01*
X399920Y167590D02*
X399920Y162610D01*
X394940Y162610D01*
X394940Y167590D01*
X394940Y163579D02*
X399920Y163579D01*
X399920Y164548D02*
X394940Y164548D01*
X394940Y165517D02*
X399920Y165517D01*
X399920Y166486D02*
X394940Y166486D01*
X394940Y167455D02*
X399920Y167455D01*
X389920Y167590D02*
X384940Y167590D01*
X389920Y167590D02*
X389920Y162610D01*
X384940Y162610D01*
X384940Y167590D01*
X384940Y163579D02*
X389920Y163579D01*
X389920Y164548D02*
X384940Y164548D01*
X384940Y165517D02*
X389920Y165517D01*
X389920Y166486D02*
X384940Y166486D01*
X384940Y167455D02*
X389920Y167455D01*
D16*
X361224Y119705D02*
X361224Y115195D01*
X361224Y119705D02*
X372234Y119705D01*
X372234Y115195D01*
X361224Y115195D01*
X361224Y116135D02*
X372234Y116135D01*
X372234Y117075D02*
X361224Y117075D01*
X361224Y118015D02*
X372234Y118015D01*
X372234Y118955D02*
X361224Y118955D01*
X361224Y110205D02*
X361224Y105695D01*
X361224Y110205D02*
X372234Y110205D01*
X372234Y105695D01*
X361224Y105695D01*
X361224Y106635D02*
X372234Y106635D01*
X372234Y107575D02*
X361224Y107575D01*
X361224Y108515D02*
X372234Y108515D01*
X372234Y109455D02*
X361224Y109455D01*
X361224Y100705D02*
X361224Y96195D01*
X361224Y100705D02*
X372234Y100705D01*
X372234Y96195D01*
X361224Y96195D01*
X361224Y97135D02*
X372234Y97135D01*
X372234Y98075D02*
X361224Y98075D01*
X361224Y99015D02*
X372234Y99015D01*
X372234Y99955D02*
X361224Y99955D01*
X387226Y100705D02*
X387226Y96195D01*
X387226Y100705D02*
X398236Y100705D01*
X398236Y96195D01*
X387226Y96195D01*
X387226Y97135D02*
X398236Y97135D01*
X398236Y98075D02*
X387226Y98075D01*
X387226Y99015D02*
X398236Y99015D01*
X398236Y99955D02*
X387226Y99955D01*
X387226Y115195D02*
X387226Y119705D01*
X398236Y119705D01*
X398236Y115195D01*
X387226Y115195D01*
X387226Y116135D02*
X398236Y116135D01*
X398236Y117075D02*
X387226Y117075D01*
X387226Y118015D02*
X398236Y118015D01*
X398236Y118955D02*
X387226Y118955D01*
D19*
X364180Y140780D02*
X357180Y140780D01*
X364180Y140780D02*
X364180Y133780D01*
X357180Y133780D01*
X357180Y140780D01*
X357180Y136630D02*
X364180Y136630D01*
X364180Y139480D02*
X357180Y139480D01*
X357180Y158320D02*
X364180Y158320D01*
X364180Y151320D01*
X357180Y151320D01*
X357180Y158320D01*
X357180Y154170D02*
X364180Y154170D01*
X364180Y157020D02*
X357180Y157020D01*
D13*
X402640Y115440D02*
X402640Y110460D01*
X402640Y115440D02*
X407620Y115440D01*
X407620Y110460D01*
X402640Y110460D01*
X402640Y111429D02*
X407620Y111429D01*
X407620Y112398D02*
X402640Y112398D01*
X402640Y113367D02*
X407620Y113367D01*
X407620Y114336D02*
X402640Y114336D01*
X402640Y115305D02*
X407620Y115305D01*
X402640Y105440D02*
X402640Y100460D01*
X402640Y105440D02*
X407620Y105440D01*
X407620Y100460D01*
X402640Y100460D01*
X402640Y101429D02*
X407620Y101429D01*
X407620Y102398D02*
X402640Y102398D01*
X402640Y103367D02*
X407620Y103367D01*
X407620Y104336D02*
X402640Y104336D01*
X402640Y105305D02*
X407620Y105305D01*
X413990Y57100D02*
X418970Y57100D01*
X418970Y52120D01*
X413990Y52120D01*
X413990Y57100D01*
X413990Y53089D02*
X418970Y53089D01*
X418970Y54058D02*
X413990Y54058D01*
X413990Y55027D02*
X418970Y55027D01*
X418970Y55996D02*
X413990Y55996D01*
X413990Y56965D02*
X418970Y56965D01*
X408970Y57100D02*
X403990Y57100D01*
X408970Y57100D02*
X408970Y52120D01*
X403990Y52120D01*
X403990Y57100D01*
X403990Y53089D02*
X408970Y53089D01*
X408970Y54058D02*
X403990Y54058D01*
X403990Y55027D02*
X408970Y55027D01*
X408970Y55996D02*
X403990Y55996D01*
X403990Y56965D02*
X408970Y56965D01*
X377240Y148560D02*
X377240Y153540D01*
X382220Y153540D01*
X382220Y148560D01*
X377240Y148560D01*
X377240Y149529D02*
X382220Y149529D01*
X382220Y150498D02*
X377240Y150498D01*
X377240Y151467D02*
X382220Y151467D01*
X382220Y152436D02*
X377240Y152436D01*
X377240Y153405D02*
X382220Y153405D01*
X377240Y143540D02*
X377240Y138560D01*
X377240Y143540D02*
X382220Y143540D01*
X382220Y138560D01*
X377240Y138560D01*
X377240Y139529D02*
X382220Y139529D01*
X382220Y140498D02*
X377240Y140498D01*
X377240Y141467D02*
X382220Y141467D01*
X382220Y142436D02*
X377240Y142436D01*
X377240Y143405D02*
X382220Y143405D01*
X389940Y148560D02*
X389940Y153540D01*
X394920Y153540D01*
X394920Y148560D01*
X389940Y148560D01*
X389940Y149529D02*
X394920Y149529D01*
X394920Y150498D02*
X389940Y150498D01*
X389940Y151467D02*
X394920Y151467D01*
X394920Y152436D02*
X389940Y152436D01*
X389940Y153405D02*
X394920Y153405D01*
X389940Y143540D02*
X389940Y138560D01*
X389940Y143540D02*
X394920Y143540D01*
X394920Y138560D01*
X389940Y138560D01*
X389940Y139529D02*
X394920Y139529D01*
X394920Y140498D02*
X389940Y140498D01*
X389940Y141467D02*
X394920Y141467D01*
X394920Y142436D02*
X389940Y142436D01*
X389940Y143405D02*
X394920Y143405D01*
X393570Y87580D02*
X388590Y87580D01*
X393570Y87580D02*
X393570Y82600D01*
X388590Y82600D01*
X388590Y87580D01*
X388590Y83569D02*
X393570Y83569D01*
X393570Y84538D02*
X388590Y84538D01*
X388590Y85507D02*
X393570Y85507D01*
X393570Y86476D02*
X388590Y86476D01*
X388590Y87445D02*
X393570Y87445D01*
X383570Y87580D02*
X378590Y87580D01*
X383570Y87580D02*
X383570Y82600D01*
X378590Y82600D01*
X378590Y87580D01*
X378590Y83569D02*
X383570Y83569D01*
X383570Y84538D02*
X378590Y84538D01*
X378590Y85507D02*
X383570Y85507D01*
X383570Y86476D02*
X378590Y86476D01*
X378590Y87445D02*
X383570Y87445D01*
D20*
X326418Y108070D03*
X306043Y113070D03*
X306043Y108070D03*
X306043Y118070D03*
X306043Y123070D03*
X326418Y113070D03*
X326418Y118070D03*
X326418Y123070D03*
D21*
X316230Y118970D03*
X316230Y112170D03*
D13*
X334060Y113000D02*
X334060Y117980D01*
X339040Y117980D01*
X339040Y113000D01*
X334060Y113000D01*
X334060Y113969D02*
X339040Y113969D01*
X339040Y114938D02*
X334060Y114938D01*
X334060Y115907D02*
X339040Y115907D01*
X339040Y116876D02*
X334060Y116876D01*
X334060Y117845D02*
X339040Y117845D01*
X334060Y107980D02*
X334060Y103000D01*
X334060Y107980D02*
X339040Y107980D01*
X339040Y103000D01*
X334060Y103000D01*
X334060Y103969D02*
X339040Y103969D01*
X339040Y104938D02*
X334060Y104938D01*
X334060Y105907D02*
X339040Y105907D01*
X339040Y106876D02*
X334060Y106876D01*
X334060Y107845D02*
X339040Y107845D01*
X364540Y86738D02*
X364540Y81758D01*
X364540Y86738D02*
X369520Y86738D01*
X369520Y81758D01*
X364540Y81758D01*
X364540Y82727D02*
X369520Y82727D01*
X369520Y83696D02*
X364540Y83696D01*
X364540Y84665D02*
X369520Y84665D01*
X369520Y85634D02*
X364540Y85634D01*
X364540Y86603D02*
X369520Y86603D01*
X364540Y76738D02*
X364540Y71758D01*
X364540Y76738D02*
X369520Y76738D01*
X369520Y71758D01*
X364540Y71758D01*
X364540Y72727D02*
X369520Y72727D01*
X369520Y73696D02*
X364540Y73696D01*
X364540Y74665D02*
X369520Y74665D01*
X369520Y75634D02*
X364540Y75634D01*
X364540Y76603D02*
X369520Y76603D01*
X326440Y81758D02*
X326440Y86738D01*
X331420Y86738D01*
X331420Y81758D01*
X326440Y81758D01*
X326440Y82727D02*
X331420Y82727D01*
X331420Y83696D02*
X326440Y83696D01*
X326440Y84665D02*
X331420Y84665D01*
X331420Y85634D02*
X326440Y85634D01*
X326440Y86603D02*
X331420Y86603D01*
X326440Y76738D02*
X326440Y71758D01*
X326440Y76738D02*
X331420Y76738D01*
X331420Y71758D01*
X326440Y71758D01*
X326440Y72727D02*
X331420Y72727D01*
X331420Y73696D02*
X326440Y73696D01*
X326440Y74665D02*
X331420Y74665D01*
X331420Y75634D02*
X326440Y75634D01*
X326440Y76603D02*
X331420Y76603D01*
D22*
X343718Y77736D02*
X343718Y72660D01*
X342242Y72660D01*
X342242Y77736D01*
X343718Y77736D01*
X343718Y73634D02*
X342242Y73634D01*
X342242Y74608D02*
X343718Y74608D01*
X343718Y75582D02*
X342242Y75582D01*
X342242Y76556D02*
X343718Y76556D01*
X343718Y77530D02*
X342242Y77530D01*
X348718Y77236D02*
X348718Y72660D01*
X347242Y72660D01*
X347242Y77236D01*
X348718Y77236D01*
X348718Y73634D02*
X347242Y73634D01*
X347242Y74608D02*
X348718Y74608D01*
X348718Y75582D02*
X347242Y75582D01*
X347242Y76556D02*
X348718Y76556D01*
X353718Y77236D02*
X353718Y72660D01*
X352242Y72660D01*
X352242Y77236D01*
X353718Y77236D01*
X353718Y73634D02*
X352242Y73634D01*
X352242Y74608D02*
X353718Y74608D01*
X353718Y75582D02*
X352242Y75582D01*
X352242Y76556D02*
X353718Y76556D01*
X352242Y81260D02*
X352242Y85836D01*
X353718Y85836D01*
X353718Y81260D01*
X352242Y81260D01*
X352242Y82234D02*
X353718Y82234D01*
X353718Y83208D02*
X352242Y83208D01*
X352242Y84182D02*
X353718Y84182D01*
X353718Y85156D02*
X352242Y85156D01*
X347242Y85836D02*
X347242Y81260D01*
X347242Y85836D02*
X348718Y85836D01*
X348718Y81260D01*
X347242Y81260D01*
X347242Y82234D02*
X348718Y82234D01*
X348718Y83208D02*
X347242Y83208D01*
X347242Y84182D02*
X348718Y84182D01*
X348718Y85156D02*
X347242Y85156D01*
X342242Y85836D02*
X342242Y81260D01*
X342242Y85836D02*
X343718Y85836D01*
X343718Y81260D01*
X342242Y81260D01*
X342242Y82234D02*
X343718Y82234D01*
X343718Y83208D02*
X342242Y83208D01*
X342242Y84182D02*
X343718Y84182D01*
X343718Y85156D02*
X342242Y85156D01*
D15*
X238210Y111380D02*
X238210Y122420D01*
X257250Y122420D01*
X257250Y111380D01*
X238210Y111380D01*
X238210Y112292D02*
X257250Y112292D01*
X257250Y113204D02*
X238210Y113204D01*
X238210Y114116D02*
X257250Y114116D01*
X257250Y115028D02*
X238210Y115028D01*
X238210Y115940D02*
X257250Y115940D01*
X257250Y116852D02*
X238210Y116852D01*
X238210Y117764D02*
X257250Y117764D01*
X257250Y118676D02*
X238210Y118676D01*
X238210Y119588D02*
X257250Y119588D01*
X257250Y120500D02*
X238210Y120500D01*
X238210Y121412D02*
X257250Y121412D01*
X257250Y122324D02*
X238210Y122324D01*
X238210Y66420D02*
X238210Y55380D01*
X238210Y66420D02*
X257250Y66420D01*
X257250Y55380D01*
X238210Y55380D01*
X238210Y56292D02*
X257250Y56292D01*
X257250Y57204D02*
X238210Y57204D01*
X238210Y58116D02*
X257250Y58116D01*
X257250Y59028D02*
X238210Y59028D01*
X238210Y59940D02*
X257250Y59940D01*
X257250Y60852D02*
X238210Y60852D01*
X238210Y61764D02*
X257250Y61764D01*
X257250Y62676D02*
X238210Y62676D01*
X238210Y63588D02*
X257250Y63588D01*
X257250Y64500D02*
X238210Y64500D01*
X238210Y65412D02*
X257250Y65412D01*
X257250Y66324D02*
X238210Y66324D01*
D13*
X278240Y101410D02*
X278240Y106390D01*
X290720Y106390D01*
X290720Y101410D01*
X278240Y101410D01*
X278240Y102379D02*
X290720Y102379D01*
X290720Y103348D02*
X278240Y103348D01*
X278240Y104317D02*
X290720Y104317D01*
X290720Y105286D02*
X278240Y105286D01*
X278240Y106255D02*
X290720Y106255D01*
X278240Y96390D02*
X278240Y91410D01*
X278240Y96390D02*
X290720Y96390D01*
X290720Y91410D01*
X278240Y91410D01*
X278240Y92379D02*
X290720Y92379D01*
X290720Y93348D02*
X278240Y93348D01*
X278240Y94317D02*
X290720Y94317D01*
X290720Y95286D02*
X278240Y95286D01*
X278240Y96255D02*
X290720Y96255D01*
X278240Y86390D02*
X278240Y81410D01*
X278240Y86390D02*
X290720Y86390D01*
X290720Y81410D01*
X278240Y81410D01*
X278240Y82379D02*
X290720Y82379D01*
X290720Y83348D02*
X278240Y83348D01*
X278240Y84317D02*
X290720Y84317D01*
X290720Y85286D02*
X278240Y85286D01*
X278240Y86255D02*
X290720Y86255D01*
X278240Y76390D02*
X278240Y71410D01*
X278240Y76390D02*
X290720Y76390D01*
X290720Y71410D01*
X278240Y71410D01*
X278240Y72379D02*
X290720Y72379D01*
X290720Y73348D02*
X278240Y73348D01*
X278240Y74317D02*
X290720Y74317D01*
X290720Y75286D02*
X278240Y75286D01*
X278240Y76255D02*
X290720Y76255D01*
X296040Y73710D02*
X301020Y73710D01*
X296040Y73710D02*
X296040Y78690D01*
X301020Y78690D01*
X301020Y73710D01*
X301020Y74679D02*
X296040Y74679D01*
X296040Y75648D02*
X301020Y75648D01*
X301020Y76617D02*
X296040Y76617D01*
X296040Y77586D02*
X301020Y77586D01*
X301020Y78555D02*
X296040Y78555D01*
X306040Y73710D02*
X311020Y73710D01*
X306040Y73710D02*
X306040Y78690D01*
X311020Y78690D01*
X311020Y73710D01*
X311020Y74679D02*
X306040Y74679D01*
X306040Y75648D02*
X311020Y75648D01*
X311020Y76617D02*
X306040Y76617D01*
X306040Y77586D02*
X311020Y77586D01*
X311020Y78555D02*
X306040Y78555D01*
X301020Y86410D02*
X296040Y86410D01*
X296040Y91390D01*
X301020Y91390D01*
X301020Y86410D01*
X301020Y87379D02*
X296040Y87379D01*
X296040Y88348D02*
X301020Y88348D01*
X301020Y89317D02*
X296040Y89317D01*
X296040Y90286D02*
X301020Y90286D01*
X301020Y91255D02*
X296040Y91255D01*
X306040Y86410D02*
X311020Y86410D01*
X306040Y86410D02*
X306040Y91390D01*
X311020Y91390D01*
X311020Y86410D01*
X311020Y87379D02*
X306040Y87379D01*
X306040Y88348D02*
X311020Y88348D01*
X311020Y89317D02*
X306040Y89317D01*
X306040Y90286D02*
X311020Y90286D01*
X311020Y91255D02*
X306040Y91255D01*
X304670Y421590D02*
X299690Y421590D01*
X304670Y421590D02*
X304670Y416610D01*
X299690Y416610D01*
X299690Y421590D01*
X299690Y417579D02*
X304670Y417579D01*
X304670Y418548D02*
X299690Y418548D01*
X299690Y419517D02*
X304670Y419517D01*
X304670Y420486D02*
X299690Y420486D01*
X299690Y421455D02*
X304670Y421455D01*
X294670Y421590D02*
X289690Y421590D01*
X294670Y421590D02*
X294670Y416610D01*
X289690Y416610D01*
X289690Y421590D01*
X289690Y417579D02*
X294670Y417579D01*
X294670Y418548D02*
X289690Y418548D01*
X289690Y419517D02*
X294670Y419517D01*
X294670Y420486D02*
X289690Y420486D01*
X289690Y421455D02*
X294670Y421455D01*
D19*
X296220Y385890D02*
X303220Y385890D01*
X303220Y378890D01*
X296220Y378890D01*
X296220Y385890D01*
X296220Y381740D02*
X303220Y381740D01*
X303220Y384590D02*
X296220Y384590D01*
X296220Y403430D02*
X303220Y403430D01*
X303220Y396430D01*
X296220Y396430D01*
X296220Y403430D01*
X296220Y399280D02*
X303220Y399280D01*
X303220Y402130D02*
X296220Y402130D01*
D13*
X269270Y378510D02*
X264290Y378510D01*
X264290Y383490D01*
X269270Y383490D01*
X269270Y378510D01*
X269270Y379479D02*
X264290Y379479D01*
X264290Y380448D02*
X269270Y380448D01*
X269270Y381417D02*
X264290Y381417D01*
X264290Y382386D02*
X269270Y382386D01*
X269270Y383355D02*
X264290Y383355D01*
X274290Y378510D02*
X279270Y378510D01*
X274290Y378510D02*
X274290Y383490D01*
X279270Y383490D01*
X279270Y378510D01*
X279270Y379479D02*
X274290Y379479D01*
X274290Y380448D02*
X279270Y380448D01*
X279270Y381417D02*
X274290Y381417D01*
X274290Y382386D02*
X279270Y382386D01*
X279270Y383355D02*
X274290Y383355D01*
D16*
X364175Y174005D02*
X364175Y165995D01*
X364175Y174005D02*
X373185Y174005D01*
X373185Y165995D01*
X364175Y165995D01*
X364175Y166935D02*
X373185Y166935D01*
X373185Y167875D02*
X364175Y167875D01*
X364175Y168815D02*
X373185Y168815D01*
X373185Y169755D02*
X364175Y169755D01*
X364175Y170695D02*
X373185Y170695D01*
X373185Y171635D02*
X364175Y171635D01*
X364175Y172575D02*
X373185Y172575D01*
X373185Y173515D02*
X364175Y173515D01*
X348175Y174005D02*
X348175Y165995D01*
X348175Y174005D02*
X357185Y174005D01*
X357185Y165995D01*
X348175Y165995D01*
X348175Y166935D02*
X357185Y166935D01*
X357185Y167875D02*
X348175Y167875D01*
X348175Y168815D02*
X357185Y168815D01*
X357185Y169755D02*
X348175Y169755D01*
X348175Y170695D02*
X357185Y170695D01*
X357185Y171635D02*
X348175Y171635D01*
X348175Y172575D02*
X357185Y172575D01*
X357185Y173515D02*
X348175Y173515D01*
X348175Y206995D02*
X348175Y215005D01*
X357185Y215005D01*
X357185Y206995D01*
X348175Y206995D01*
X348175Y207935D02*
X357185Y207935D01*
X357185Y208875D02*
X348175Y208875D01*
X348175Y209815D02*
X357185Y209815D01*
X357185Y210755D02*
X348175Y210755D01*
X348175Y211695D02*
X357185Y211695D01*
X357185Y212635D02*
X348175Y212635D01*
X348175Y213575D02*
X357185Y213575D01*
X357185Y214515D02*
X348175Y214515D01*
X364175Y215005D02*
X364175Y206995D01*
X364175Y215005D02*
X373185Y215005D01*
X373185Y206995D01*
X364175Y206995D01*
X364175Y207935D02*
X373185Y207935D01*
X373185Y208875D02*
X364175Y208875D01*
X364175Y209815D02*
X373185Y209815D01*
X373185Y210755D02*
X364175Y210755D01*
X364175Y211695D02*
X373185Y211695D01*
X373185Y212635D02*
X364175Y212635D01*
X364175Y213575D02*
X373185Y213575D01*
X373185Y214515D02*
X364175Y214515D01*
D19*
X296870Y26480D02*
X289870Y26480D01*
X296870Y26480D02*
X296870Y19480D01*
X289870Y19480D01*
X289870Y26480D01*
X289870Y22330D02*
X296870Y22330D01*
X296870Y25180D02*
X289870Y25180D01*
X289870Y44020D02*
X296870Y44020D01*
X296870Y37020D01*
X289870Y37020D01*
X289870Y44020D01*
X289870Y39870D02*
X296870Y39870D01*
X296870Y42720D02*
X289870Y42720D01*
D13*
X295860Y49660D02*
X295860Y54640D01*
X295860Y49660D02*
X290880Y49660D01*
X290880Y54640D01*
X295860Y54640D01*
X295860Y50629D02*
X290880Y50629D01*
X290880Y51598D02*
X295860Y51598D01*
X295860Y52567D02*
X290880Y52567D01*
X290880Y53536D02*
X295860Y53536D01*
X295860Y54505D02*
X290880Y54505D01*
X295860Y59660D02*
X295860Y64640D01*
X295860Y59660D02*
X290880Y59660D01*
X290880Y64640D01*
X295860Y64640D01*
X295860Y60629D02*
X290880Y60629D01*
X290880Y61598D02*
X295860Y61598D01*
X295860Y62567D02*
X290880Y62567D01*
X290880Y63536D02*
X295860Y63536D01*
X295860Y64505D02*
X290880Y64505D01*
X281970Y124510D02*
X276990Y124510D01*
X276990Y129490D01*
X281970Y129490D01*
X281970Y124510D01*
X281970Y125479D02*
X276990Y125479D01*
X276990Y126448D02*
X281970Y126448D01*
X281970Y127417D02*
X276990Y127417D01*
X276990Y128386D02*
X281970Y128386D01*
X281970Y129355D02*
X276990Y129355D01*
X286990Y124510D02*
X291970Y124510D01*
X286990Y124510D02*
X286990Y129490D01*
X291970Y129490D01*
X291970Y124510D01*
X291970Y125479D02*
X286990Y125479D01*
X286990Y126448D02*
X291970Y126448D01*
X291970Y127417D02*
X286990Y127417D01*
X286990Y128386D02*
X291970Y128386D01*
X291970Y129355D02*
X286990Y129355D01*
D23*
X377980Y360200D03*
X377980Y355200D03*
X377980Y350200D03*
X377980Y345200D03*
X377980Y340200D03*
X377980Y335200D03*
X377980Y330200D03*
X377980Y325200D03*
X377980Y320200D03*
X377980Y315200D03*
X377980Y310200D03*
X377980Y305200D03*
X377980Y300200D03*
X372980Y360200D03*
X372980Y355200D03*
X372980Y350200D03*
X372980Y345200D03*
X372980Y340200D03*
X372980Y335200D03*
X372980Y330200D03*
X372980Y325200D03*
X372980Y320200D03*
X372980Y315200D03*
X372980Y310200D03*
X372980Y305200D03*
X372980Y300200D03*
X367980Y360200D03*
X362980Y360200D03*
X357980Y360200D03*
X352980Y360200D03*
X347980Y360200D03*
X342980Y360200D03*
X337980Y360200D03*
X332980Y360200D03*
X327980Y360200D03*
X322980Y360200D03*
X317980Y360200D03*
X367980Y355200D03*
X362980Y355200D03*
X357980Y355200D03*
X352980Y355200D03*
X347980Y355200D03*
X342980Y355200D03*
X337980Y355200D03*
X332980Y355200D03*
X327980Y355200D03*
X322980Y355200D03*
X317980Y355200D03*
X367980Y350200D03*
X362980Y350200D03*
X357980Y350200D03*
X352980Y350200D03*
X347980Y350200D03*
X342980Y350200D03*
X337980Y350200D03*
X332980Y350200D03*
X327980Y350200D03*
X322980Y350200D03*
X317980Y350200D03*
X367980Y345200D03*
X327980Y345200D03*
X322980Y345200D03*
X317980Y345200D03*
X367980Y340200D03*
X327980Y340200D03*
X322980Y340200D03*
X317980Y340200D03*
X367980Y335200D03*
X327980Y335200D03*
X322980Y335200D03*
X317980Y335200D03*
X367980Y330200D03*
X327980Y330200D03*
X322980Y330200D03*
X317980Y330200D03*
X367980Y325200D03*
X327980Y325200D03*
X322980Y325200D03*
X317980Y325200D03*
X367980Y320200D03*
X327980Y320200D03*
X322980Y320200D03*
X317980Y320200D03*
X367980Y315200D03*
X327980Y315200D03*
X322980Y315200D03*
X317980Y315200D03*
X367980Y310200D03*
X362980Y310200D03*
X357980Y310200D03*
X352980Y310200D03*
X347980Y310200D03*
X342980Y310200D03*
X337980Y310200D03*
X332980Y310200D03*
X327980Y310200D03*
X322980Y310200D03*
X317980Y310200D03*
X367980Y305200D03*
X362980Y305200D03*
X357980Y305200D03*
X352980Y305200D03*
X347980Y305200D03*
X342980Y305200D03*
X337980Y305200D03*
X332980Y305200D03*
X327980Y305200D03*
X322980Y305200D03*
X317980Y305200D03*
X367980Y300200D03*
X362980Y300200D03*
X357980Y300200D03*
X352980Y300200D03*
X347980Y300200D03*
X342980Y300200D03*
X337980Y300200D03*
X332980Y300200D03*
X327980Y300200D03*
X322980Y300200D03*
X317980Y300200D03*
D24*
X340480Y280700D03*
X345480Y280700D03*
X350480Y280700D03*
X355480Y280700D03*
X340480Y252700D03*
X345480Y252700D03*
X350480Y252700D03*
X355480Y252700D03*
D25*
X347980Y266700D03*
D13*
X364540Y275560D02*
X364540Y280540D01*
X369520Y280540D01*
X369520Y275560D01*
X364540Y275560D01*
X364540Y276529D02*
X369520Y276529D01*
X369520Y277498D02*
X364540Y277498D01*
X364540Y278467D02*
X369520Y278467D01*
X369520Y279436D02*
X364540Y279436D01*
X364540Y280405D02*
X369520Y280405D01*
X364540Y270540D02*
X364540Y265560D01*
X364540Y270540D02*
X369520Y270540D01*
X369520Y265560D01*
X364540Y265560D01*
X364540Y266529D02*
X369520Y266529D01*
X369520Y267498D02*
X364540Y267498D01*
X364540Y268467D02*
X369520Y268467D01*
X369520Y269436D02*
X364540Y269436D01*
X364540Y270405D02*
X369520Y270405D01*
X326440Y275560D02*
X326440Y280540D01*
X331420Y280540D01*
X331420Y275560D01*
X326440Y275560D01*
X326440Y276529D02*
X331420Y276529D01*
X331420Y277498D02*
X326440Y277498D01*
X326440Y278467D02*
X331420Y278467D01*
X331420Y279436D02*
X326440Y279436D01*
X326440Y280405D02*
X331420Y280405D01*
X326440Y270540D02*
X326440Y265560D01*
X326440Y270540D02*
X331420Y270540D01*
X331420Y265560D01*
X326440Y265560D01*
X326440Y266529D02*
X331420Y266529D01*
X331420Y267498D02*
X326440Y267498D01*
X326440Y268467D02*
X331420Y268467D01*
X331420Y269436D02*
X326440Y269436D01*
X326440Y270405D02*
X331420Y270405D01*
X397640Y315010D02*
X402620Y315010D01*
X397640Y315010D02*
X397640Y319990D01*
X402620Y319990D01*
X402620Y315010D01*
X402620Y315979D02*
X397640Y315979D01*
X397640Y316948D02*
X402620Y316948D01*
X402620Y317917D02*
X397640Y317917D01*
X397640Y318886D02*
X402620Y318886D01*
X402620Y319855D02*
X397640Y319855D01*
X407640Y315010D02*
X412620Y315010D01*
X407640Y315010D02*
X407640Y319990D01*
X412620Y319990D01*
X412620Y315010D01*
X412620Y315979D02*
X407640Y315979D01*
X407640Y316948D02*
X412620Y316948D01*
X412620Y317917D02*
X407640Y317917D01*
X407640Y318886D02*
X412620Y318886D01*
X412620Y319855D02*
X407640Y319855D01*
D14*
X311730Y286550D02*
X311730Y276550D01*
X311730Y286550D02*
X320730Y286550D01*
X320730Y276550D01*
X311730Y276550D01*
X311730Y277500D02*
X320730Y277500D01*
X320730Y278450D02*
X311730Y278450D01*
X311730Y279400D02*
X320730Y279400D01*
X320730Y280350D02*
X311730Y280350D01*
X311730Y281300D02*
X320730Y281300D01*
X320730Y282250D02*
X311730Y282250D01*
X311730Y283200D02*
X320730Y283200D01*
X320730Y284150D02*
X311730Y284150D01*
X311730Y285100D02*
X320730Y285100D01*
X320730Y286050D02*
X311730Y286050D01*
X311730Y269550D02*
X311730Y259550D01*
X311730Y269550D02*
X320730Y269550D01*
X320730Y259550D01*
X311730Y259550D01*
X311730Y260500D02*
X320730Y260500D01*
X320730Y261450D02*
X311730Y261450D01*
X311730Y262400D02*
X320730Y262400D01*
X320730Y263350D02*
X311730Y263350D01*
X311730Y264300D02*
X320730Y264300D01*
X320730Y265250D02*
X311730Y265250D01*
X311730Y266200D02*
X320730Y266200D01*
X320730Y267150D02*
X311730Y267150D01*
X311730Y268100D02*
X320730Y268100D01*
X320730Y269050D02*
X311730Y269050D01*
D13*
X288320Y264210D02*
X283340Y264210D01*
X283340Y269190D01*
X288320Y269190D01*
X288320Y264210D01*
X288320Y265179D02*
X283340Y265179D01*
X283340Y266148D02*
X288320Y266148D01*
X288320Y267117D02*
X283340Y267117D01*
X283340Y268086D02*
X288320Y268086D01*
X288320Y269055D02*
X283340Y269055D01*
X293340Y264210D02*
X298320Y264210D01*
X293340Y264210D02*
X293340Y269190D01*
X298320Y269190D01*
X298320Y264210D01*
X298320Y265179D02*
X293340Y265179D01*
X293340Y266148D02*
X298320Y266148D01*
X298320Y267117D02*
X293340Y267117D01*
X293340Y268086D02*
X298320Y268086D01*
X298320Y269055D02*
X293340Y269055D01*
X293340Y294590D02*
X298320Y294590D01*
X298320Y289610D01*
X293340Y289610D01*
X293340Y294590D01*
X293340Y290579D02*
X298320Y290579D01*
X298320Y291548D02*
X293340Y291548D01*
X293340Y292517D02*
X298320Y292517D01*
X298320Y293486D02*
X293340Y293486D01*
X293340Y294455D02*
X298320Y294455D01*
X288320Y294590D02*
X283340Y294590D01*
X288320Y294590D02*
X288320Y289610D01*
X283340Y289610D01*
X283340Y294590D01*
X283340Y290579D02*
X288320Y290579D01*
X288320Y291548D02*
X283340Y291548D01*
X283340Y292517D02*
X288320Y292517D01*
X288320Y293486D02*
X283340Y293486D01*
X283340Y294455D02*
X288320Y294455D01*
X293340Y307290D02*
X298320Y307290D01*
X298320Y302310D01*
X293340Y302310D01*
X293340Y307290D01*
X293340Y303279D02*
X298320Y303279D01*
X298320Y304248D02*
X293340Y304248D01*
X293340Y305217D02*
X298320Y305217D01*
X298320Y306186D02*
X293340Y306186D01*
X293340Y307155D02*
X298320Y307155D01*
X288320Y307290D02*
X283340Y307290D01*
X288320Y307290D02*
X288320Y302310D01*
X283340Y302310D01*
X283340Y307290D01*
X283340Y303279D02*
X288320Y303279D01*
X288320Y304248D02*
X283340Y304248D01*
X283340Y305217D02*
X288320Y305217D01*
X288320Y306186D02*
X283340Y306186D01*
X283340Y307155D02*
X288320Y307155D01*
X293340Y281890D02*
X298320Y281890D01*
X298320Y276910D01*
X293340Y276910D01*
X293340Y281890D01*
X293340Y277879D02*
X298320Y277879D01*
X298320Y278848D02*
X293340Y278848D01*
X293340Y279817D02*
X298320Y279817D01*
X298320Y280786D02*
X293340Y280786D01*
X293340Y281755D02*
X298320Y281755D01*
X288320Y281890D02*
X283340Y281890D01*
X288320Y281890D02*
X288320Y276910D01*
X283340Y276910D01*
X283340Y281890D01*
X283340Y277879D02*
X288320Y277879D01*
X288320Y278848D02*
X283340Y278848D01*
X283340Y279817D02*
X288320Y279817D01*
X288320Y280786D02*
X283340Y280786D01*
X283340Y281755D02*
X288320Y281755D01*
D19*
X401630Y248730D02*
X408630Y248730D01*
X408630Y241730D01*
X401630Y241730D01*
X401630Y248730D01*
X401630Y244580D02*
X408630Y244580D01*
X408630Y247430D02*
X401630Y247430D01*
X401630Y266270D02*
X408630Y266270D01*
X408630Y259270D01*
X401630Y259270D01*
X401630Y266270D01*
X401630Y262120D02*
X408630Y262120D01*
X408630Y264970D02*
X401630Y264970D01*
D13*
X402620Y276910D02*
X397640Y276910D01*
X397640Y281890D01*
X402620Y281890D01*
X402620Y276910D01*
X402620Y277879D02*
X397640Y277879D01*
X397640Y278848D02*
X402620Y278848D01*
X402620Y279817D02*
X397640Y279817D01*
X397640Y280786D02*
X402620Y280786D01*
X402620Y281755D02*
X397640Y281755D01*
X407640Y276910D02*
X412620Y276910D01*
X407640Y276910D02*
X407640Y281890D01*
X412620Y281890D01*
X412620Y276910D01*
X412620Y277879D02*
X407640Y277879D01*
X407640Y278848D02*
X412620Y278848D01*
X412620Y279817D02*
X407640Y279817D01*
X407640Y280786D02*
X412620Y280786D01*
X412620Y281755D02*
X407640Y281755D01*
X402620Y302310D02*
X397640Y302310D01*
X397640Y307290D01*
X402620Y307290D01*
X402620Y302310D01*
X402620Y303279D02*
X397640Y303279D01*
X397640Y304248D02*
X402620Y304248D01*
X402620Y305217D02*
X397640Y305217D01*
X397640Y306186D02*
X402620Y306186D01*
X402620Y307155D02*
X397640Y307155D01*
X407640Y302310D02*
X412620Y302310D01*
X407640Y302310D02*
X407640Y307290D01*
X412620Y307290D01*
X412620Y302310D01*
X412620Y303279D02*
X407640Y303279D01*
X407640Y304248D02*
X412620Y304248D01*
X412620Y305217D02*
X407640Y305217D01*
X407640Y306186D02*
X412620Y306186D01*
X412620Y307155D02*
X407640Y307155D01*
X402620Y289610D02*
X397640Y289610D01*
X397640Y294590D01*
X402620Y294590D01*
X402620Y289610D01*
X402620Y290579D02*
X397640Y290579D01*
X397640Y291548D02*
X402620Y291548D01*
X402620Y292517D02*
X397640Y292517D01*
X397640Y293486D02*
X402620Y293486D01*
X402620Y294455D02*
X397640Y294455D01*
X407640Y289610D02*
X412620Y289610D01*
X407640Y289610D02*
X407640Y294590D01*
X412620Y294590D01*
X412620Y289610D01*
X412620Y290579D02*
X407640Y290579D01*
X407640Y291548D02*
X412620Y291548D01*
X412620Y292517D02*
X407640Y292517D01*
X407640Y293486D02*
X412620Y293486D01*
X412620Y294455D02*
X407640Y294455D01*
D26*
X397630Y355400D03*
X402630Y355400D03*
X407630Y355400D03*
X412630Y355400D03*
X412630Y330400D03*
X407630Y330400D03*
X402630Y330400D03*
X397630Y330400D03*
D27*
X405130Y342900D03*
D13*
X402620Y365810D02*
X397640Y365810D01*
X397640Y370790D01*
X402620Y370790D01*
X402620Y365810D01*
X402620Y366779D02*
X397640Y366779D01*
X397640Y367748D02*
X402620Y367748D01*
X402620Y368717D02*
X397640Y368717D01*
X397640Y369686D02*
X402620Y369686D01*
X402620Y370655D02*
X397640Y370655D01*
X407640Y365810D02*
X412620Y365810D01*
X407640Y365810D02*
X407640Y370790D01*
X412620Y370790D01*
X412620Y365810D01*
X412620Y366779D02*
X407640Y366779D01*
X407640Y367748D02*
X412620Y367748D01*
X412620Y368717D02*
X407640Y368717D01*
X407640Y369686D02*
X412620Y369686D01*
X412620Y370655D02*
X407640Y370655D01*
D28*
X288805Y327175D02*
X288805Y319725D01*
X282355Y319725D01*
X282355Y327175D01*
X288805Y327175D01*
X288805Y320722D02*
X282355Y320722D01*
X282355Y321719D02*
X288805Y321719D01*
X288805Y322716D02*
X282355Y322716D01*
X282355Y323713D02*
X288805Y323713D01*
X288805Y324710D02*
X282355Y324710D01*
X282355Y325707D02*
X288805Y325707D01*
X288805Y326704D02*
X282355Y326704D01*
X282355Y333225D02*
X282355Y340675D01*
X288805Y340675D01*
X288805Y333225D01*
X282355Y333225D01*
X282355Y334222D02*
X288805Y334222D01*
X288805Y335219D02*
X282355Y335219D01*
X282355Y336216D02*
X288805Y336216D01*
X288805Y337213D02*
X282355Y337213D01*
X282355Y338210D02*
X288805Y338210D01*
X288805Y339207D02*
X282355Y339207D01*
X282355Y340204D02*
X288805Y340204D01*
X292855Y340675D02*
X292855Y333225D01*
X292855Y340675D02*
X299305Y340675D01*
X299305Y333225D01*
X292855Y333225D01*
X292855Y334222D02*
X299305Y334222D01*
X299305Y335219D02*
X292855Y335219D01*
X292855Y336216D02*
X299305Y336216D01*
X299305Y337213D02*
X292855Y337213D01*
X292855Y338210D02*
X299305Y338210D01*
X299305Y339207D02*
X292855Y339207D01*
X292855Y340204D02*
X299305Y340204D01*
X299305Y327175D02*
X299305Y319725D01*
X292855Y319725D01*
X292855Y327175D01*
X299305Y327175D01*
X299305Y320722D02*
X292855Y320722D01*
X292855Y321719D02*
X299305Y321719D01*
X299305Y322716D02*
X292855Y322716D01*
X292855Y323713D02*
X299305Y323713D01*
X299305Y324710D02*
X292855Y324710D01*
X292855Y325707D02*
X299305Y325707D01*
X299305Y326704D02*
X292855Y326704D01*
D13*
X384940Y378510D02*
X389920Y378510D01*
X384940Y378510D02*
X384940Y383490D01*
X389920Y383490D01*
X389920Y378510D01*
X389920Y379479D02*
X384940Y379479D01*
X384940Y380448D02*
X389920Y380448D01*
X389920Y381417D02*
X384940Y381417D01*
X384940Y382386D02*
X389920Y382386D01*
X389920Y383355D02*
X384940Y383355D01*
X394940Y378510D02*
X399920Y378510D01*
X394940Y378510D02*
X394940Y383490D01*
X399920Y383490D01*
X399920Y378510D01*
X399920Y379479D02*
X394940Y379479D01*
X394940Y380448D02*
X399920Y380448D01*
X399920Y381417D02*
X394940Y381417D01*
X394940Y382386D02*
X399920Y382386D01*
X399920Y383355D02*
X394940Y383355D01*
D10*
X525160Y576000D03*
D11*
X516160Y576000D02*
X516160Y576000D01*
X516160Y576000D01*
X516160Y576000D01*
X516160Y576000D01*
X516160Y576000D01*
X516160Y576000D01*
X516160Y576000D01*
X516160Y576000D01*
X534160Y576000D02*
X534160Y576000D01*
X534160Y576000D01*
X534160Y576000D01*
X534160Y576000D01*
X534160Y576000D01*
X534160Y576000D01*
X534160Y576000D01*
X534160Y576000D01*
D10*
X525160Y566000D03*
D11*
X516160Y566000D02*
X516160Y566000D01*
X516160Y566000D01*
X516160Y566000D01*
X516160Y566000D01*
X516160Y566000D01*
X516160Y566000D01*
X516160Y566000D01*
X516160Y566000D01*
X534160Y566000D02*
X534160Y566000D01*
X534160Y566000D01*
X534160Y566000D01*
X534160Y566000D01*
X534160Y566000D01*
X534160Y566000D01*
X534160Y566000D01*
X534160Y566000D01*
D10*
X525160Y556000D03*
D11*
X516160Y556000D02*
X516160Y556000D01*
X516160Y556000D01*
X516160Y556000D01*
X516160Y556000D01*
X516160Y556000D01*
X516160Y556000D01*
X516160Y556000D01*
X516160Y556000D01*
X534160Y556000D02*
X534160Y556000D01*
X534160Y556000D01*
X534160Y556000D01*
X534160Y556000D01*
X534160Y556000D01*
X534160Y556000D01*
X534160Y556000D01*
X534160Y556000D01*
D10*
X525160Y546000D03*
D11*
X516160Y546000D02*
X516160Y546000D01*
X516160Y546000D01*
X516160Y546000D01*
X516160Y546000D01*
X516160Y546000D01*
X516160Y546000D01*
X516160Y546000D01*
X516160Y546000D01*
X534160Y546000D02*
X534160Y546000D01*
X534160Y546000D01*
X534160Y546000D01*
X534160Y546000D01*
X534160Y546000D01*
X534160Y546000D01*
X534160Y546000D01*
X534160Y546000D01*
D10*
X525160Y536000D03*
D11*
X516160Y536000D02*
X516160Y536000D01*
X516160Y536000D01*
X516160Y536000D01*
X516160Y536000D01*
X516160Y536000D01*
X516160Y536000D01*
X516160Y536000D01*
X516160Y536000D01*
X534160Y536000D02*
X534160Y536000D01*
X534160Y536000D01*
X534160Y536000D01*
X534160Y536000D01*
X534160Y536000D01*
X534160Y536000D01*
X534160Y536000D01*
X534160Y536000D01*
D10*
X525160Y526000D03*
D11*
X516160Y526000D02*
X516160Y526000D01*
X516160Y526000D01*
X516160Y526000D01*
X516160Y526000D01*
X516160Y526000D01*
X516160Y526000D01*
X516160Y526000D01*
X516160Y526000D01*
X534160Y526000D02*
X534160Y526000D01*
X534160Y526000D01*
X534160Y526000D01*
X534160Y526000D01*
X534160Y526000D01*
X534160Y526000D01*
X534160Y526000D01*
X534160Y526000D01*
D10*
X525160Y516000D03*
D11*
X516160Y516000D02*
X516160Y516000D01*
X516160Y516000D01*
X516160Y516000D01*
X516160Y516000D01*
X516160Y516000D01*
X516160Y516000D01*
X516160Y516000D01*
X516160Y516000D01*
X534160Y516000D02*
X534160Y516000D01*
X534160Y516000D01*
X534160Y516000D01*
X534160Y516000D01*
X534160Y516000D01*
X534160Y516000D01*
X534160Y516000D01*
X534160Y516000D01*
D10*
X525160Y506000D03*
D11*
X516160Y506000D02*
X516160Y506000D01*
X516160Y506000D01*
X516160Y506000D01*
X516160Y506000D01*
X516160Y506000D01*
X516160Y506000D01*
X516160Y506000D01*
X516160Y506000D01*
X534160Y506000D02*
X534160Y506000D01*
X534160Y506000D01*
X534160Y506000D01*
X534160Y506000D01*
X534160Y506000D01*
X534160Y506000D01*
X534160Y506000D01*
X534160Y506000D01*
D10*
X525160Y496000D03*
D11*
X516160Y496000D02*
X516160Y496000D01*
X516160Y496000D01*
X516160Y496000D01*
X516160Y496000D01*
X516160Y496000D01*
X516160Y496000D01*
X516160Y496000D01*
X516160Y496000D01*
X534160Y496000D02*
X534160Y496000D01*
X534160Y496000D01*
X534160Y496000D01*
X534160Y496000D01*
X534160Y496000D01*
X534160Y496000D01*
X534160Y496000D01*
X534160Y496000D01*
D10*
X525160Y486000D03*
D11*
X516160Y486000D02*
X516160Y486000D01*
X516160Y486000D01*
X516160Y486000D01*
X516160Y486000D01*
X516160Y486000D01*
X516160Y486000D01*
X516160Y486000D01*
X516160Y486000D01*
X534160Y486000D02*
X534160Y486000D01*
X534160Y486000D01*
X534160Y486000D01*
X534160Y486000D01*
X534160Y486000D01*
X534160Y486000D01*
X534160Y486000D01*
X534160Y486000D01*
D10*
X525160Y476000D03*
D11*
X516160Y476000D02*
X516160Y476000D01*
X516160Y476000D01*
X516160Y476000D01*
X516160Y476000D01*
X516160Y476000D01*
X516160Y476000D01*
X516160Y476000D01*
X516160Y476000D01*
X534160Y476000D02*
X534160Y476000D01*
X534160Y476000D01*
X534160Y476000D01*
X534160Y476000D01*
X534160Y476000D01*
X534160Y476000D01*
X534160Y476000D01*
X534160Y476000D01*
D10*
X525160Y466000D03*
D11*
X516160Y466000D02*
X516160Y466000D01*
X516160Y466000D01*
X516160Y466000D01*
X516160Y466000D01*
X516160Y466000D01*
X516160Y466000D01*
X516160Y466000D01*
X516160Y466000D01*
X534160Y466000D02*
X534160Y466000D01*
X534160Y466000D01*
X534160Y466000D01*
X534160Y466000D01*
X534160Y466000D01*
X534160Y466000D01*
X534160Y466000D01*
X534160Y466000D01*
D10*
X525160Y456000D03*
D11*
X516160Y456000D02*
X516160Y456000D01*
X516160Y456000D01*
X516160Y456000D01*
X516160Y456000D01*
X516160Y456000D01*
X516160Y456000D01*
X516160Y456000D01*
X516160Y456000D01*
X534160Y456000D02*
X534160Y456000D01*
X534160Y456000D01*
X534160Y456000D01*
X534160Y456000D01*
X534160Y456000D01*
X534160Y456000D01*
X534160Y456000D01*
X534160Y456000D01*
D10*
X525160Y446000D03*
D11*
X516160Y446000D02*
X516160Y446000D01*
X516160Y446000D01*
X516160Y446000D01*
X516160Y446000D01*
X516160Y446000D01*
X516160Y446000D01*
X516160Y446000D01*
X516160Y446000D01*
X534160Y446000D02*
X534160Y446000D01*
X534160Y446000D01*
X534160Y446000D01*
X534160Y446000D01*
X534160Y446000D01*
X534160Y446000D01*
X534160Y446000D01*
X534160Y446000D01*
D10*
X638160Y576000D03*
D11*
X629160Y576000D02*
X629160Y576000D01*
X629160Y576000D01*
X629160Y576000D01*
X629160Y576000D01*
X629160Y576000D01*
X629160Y576000D01*
X629160Y576000D01*
X629160Y576000D01*
X647160Y576000D02*
X647160Y576000D01*
X647160Y576000D01*
X647160Y576000D01*
X647160Y576000D01*
X647160Y576000D01*
X647160Y576000D01*
X647160Y576000D01*
X647160Y576000D01*
D10*
X638160Y566000D03*
D11*
X629160Y566000D02*
X629160Y566000D01*
X629160Y566000D01*
X629160Y566000D01*
X629160Y566000D01*
X629160Y566000D01*
X629160Y566000D01*
X629160Y566000D01*
X629160Y566000D01*
X647160Y566000D02*
X647160Y566000D01*
X647160Y566000D01*
X647160Y566000D01*
X647160Y566000D01*
X647160Y566000D01*
X647160Y566000D01*
X647160Y566000D01*
X647160Y566000D01*
D10*
X638160Y556000D03*
D11*
X629160Y556000D02*
X629160Y556000D01*
X629160Y556000D01*
X629160Y556000D01*
X629160Y556000D01*
X629160Y556000D01*
X629160Y556000D01*
X629160Y556000D01*
X629160Y556000D01*
X647160Y556000D02*
X647160Y556000D01*
X647160Y556000D01*
X647160Y556000D01*
X647160Y556000D01*
X647160Y556000D01*
X647160Y556000D01*
X647160Y556000D01*
X647160Y556000D01*
D10*
X638160Y546000D03*
D11*
X629160Y546000D02*
X629160Y546000D01*
X629160Y546000D01*
X629160Y546000D01*
X629160Y546000D01*
X629160Y546000D01*
X629160Y546000D01*
X629160Y546000D01*
X629160Y546000D01*
X647160Y546000D02*
X647160Y546000D01*
X647160Y546000D01*
X647160Y546000D01*
X647160Y546000D01*
X647160Y546000D01*
X647160Y546000D01*
X647160Y546000D01*
X647160Y546000D01*
D10*
X638160Y536000D03*
D11*
X629160Y536000D02*
X629160Y536000D01*
X629160Y536000D01*
X629160Y536000D01*
X629160Y536000D01*
X629160Y536000D01*
X629160Y536000D01*
X629160Y536000D01*
X629160Y536000D01*
X647160Y536000D02*
X647160Y536000D01*
X647160Y536000D01*
X647160Y536000D01*
X647160Y536000D01*
X647160Y536000D01*
X647160Y536000D01*
X647160Y536000D01*
X647160Y536000D01*
D10*
X638160Y526000D03*
D11*
X629160Y526000D02*
X629160Y526000D01*
X629160Y526000D01*
X629160Y526000D01*
X629160Y526000D01*
X629160Y526000D01*
X629160Y526000D01*
X629160Y526000D01*
X629160Y526000D01*
X647160Y526000D02*
X647160Y526000D01*
X647160Y526000D01*
X647160Y526000D01*
X647160Y526000D01*
X647160Y526000D01*
X647160Y526000D01*
X647160Y526000D01*
X647160Y526000D01*
D10*
X638160Y516000D03*
D11*
X629160Y516000D02*
X629160Y516000D01*
X629160Y516000D01*
X629160Y516000D01*
X629160Y516000D01*
X629160Y516000D01*
X629160Y516000D01*
X629160Y516000D01*
X629160Y516000D01*
X647160Y516000D02*
X647160Y516000D01*
X647160Y516000D01*
X647160Y516000D01*
X647160Y516000D01*
X647160Y516000D01*
X647160Y516000D01*
X647160Y516000D01*
X647160Y516000D01*
D10*
X638160Y506000D03*
D11*
X629160Y506000D02*
X629160Y506000D01*
X629160Y506000D01*
X629160Y506000D01*
X629160Y506000D01*
X629160Y506000D01*
X629160Y506000D01*
X629160Y506000D01*
X629160Y506000D01*
X647160Y506000D02*
X647160Y506000D01*
X647160Y506000D01*
X647160Y506000D01*
X647160Y506000D01*
X647160Y506000D01*
X647160Y506000D01*
X647160Y506000D01*
X647160Y506000D01*
D10*
X638160Y496000D03*
D11*
X629160Y496000D02*
X629160Y496000D01*
X629160Y496000D01*
X629160Y496000D01*
X629160Y496000D01*
X629160Y496000D01*
X629160Y496000D01*
X629160Y496000D01*
X629160Y496000D01*
X647160Y496000D02*
X647160Y496000D01*
X647160Y496000D01*
X647160Y496000D01*
X647160Y496000D01*
X647160Y496000D01*
X647160Y496000D01*
X647160Y496000D01*
X647160Y496000D01*
D10*
X638160Y486000D03*
D11*
X629160Y486000D02*
X629160Y486000D01*
X629160Y486000D01*
X629160Y486000D01*
X629160Y486000D01*
X629160Y486000D01*
X629160Y486000D01*
X629160Y486000D01*
X629160Y486000D01*
X647160Y486000D02*
X647160Y486000D01*
X647160Y486000D01*
X647160Y486000D01*
X647160Y486000D01*
X647160Y486000D01*
X647160Y486000D01*
X647160Y486000D01*
X647160Y486000D01*
D10*
X638160Y476000D03*
D11*
X629160Y476000D02*
X629160Y476000D01*
X629160Y476000D01*
X629160Y476000D01*
X629160Y476000D01*
X629160Y476000D01*
X629160Y476000D01*
X629160Y476000D01*
X629160Y476000D01*
X647160Y476000D02*
X647160Y476000D01*
X647160Y476000D01*
X647160Y476000D01*
X647160Y476000D01*
X647160Y476000D01*
X647160Y476000D01*
X647160Y476000D01*
X647160Y476000D01*
D10*
X638160Y466000D03*
D11*
X629160Y466000D02*
X629160Y466000D01*
X629160Y466000D01*
X629160Y466000D01*
X629160Y466000D01*
X629160Y466000D01*
X629160Y466000D01*
X629160Y466000D01*
X629160Y466000D01*
X647160Y466000D02*
X647160Y466000D01*
X647160Y466000D01*
X647160Y466000D01*
X647160Y466000D01*
X647160Y466000D01*
X647160Y466000D01*
X647160Y466000D01*
X647160Y466000D01*
D10*
X638160Y456000D03*
D11*
X629160Y456000D02*
X629160Y456000D01*
X629160Y456000D01*
X629160Y456000D01*
X629160Y456000D01*
X629160Y456000D01*
X629160Y456000D01*
X629160Y456000D01*
X629160Y456000D01*
X647160Y456000D02*
X647160Y456000D01*
X647160Y456000D01*
X647160Y456000D01*
X647160Y456000D01*
X647160Y456000D01*
X647160Y456000D01*
X647160Y456000D01*
X647160Y456000D01*
D10*
X638160Y446000D03*
D11*
X629160Y446000D02*
X629160Y446000D01*
X629160Y446000D01*
X629160Y446000D01*
X629160Y446000D01*
X629160Y446000D01*
X629160Y446000D01*
X629160Y446000D01*
X629160Y446000D01*
X647160Y446000D02*
X647160Y446000D01*
X647160Y446000D01*
X647160Y446000D01*
X647160Y446000D01*
X647160Y446000D01*
X647160Y446000D01*
X647160Y446000D01*
X647160Y446000D01*
D12*
X546660Y441000D03*
D11*
X546660Y432000D02*
X546660Y432000D01*
X546660Y432000D01*
X546660Y432000D01*
X546660Y432000D01*
X546660Y432000D01*
X546660Y432000D01*
X546660Y432000D01*
X546660Y432000D01*
X546660Y450000D02*
X546660Y450000D01*
X546660Y450000D01*
X546660Y450000D01*
X546660Y450000D01*
X546660Y450000D01*
X546660Y450000D01*
X546660Y450000D01*
X546660Y450000D01*
D12*
X556660Y441000D03*
D11*
X556660Y432000D02*
X556660Y432000D01*
X556660Y432000D01*
X556660Y432000D01*
X556660Y432000D01*
X556660Y432000D01*
X556660Y432000D01*
X556660Y432000D01*
X556660Y432000D01*
X556660Y450000D02*
X556660Y450000D01*
X556660Y450000D01*
X556660Y450000D01*
X556660Y450000D01*
X556660Y450000D01*
X556660Y450000D01*
X556660Y450000D01*
X556660Y450000D01*
D12*
X566660Y441000D03*
D11*
X566660Y432000D02*
X566660Y432000D01*
X566660Y432000D01*
X566660Y432000D01*
X566660Y432000D01*
X566660Y432000D01*
X566660Y432000D01*
X566660Y432000D01*
X566660Y432000D01*
X566660Y450000D02*
X566660Y450000D01*
X566660Y450000D01*
X566660Y450000D01*
X566660Y450000D01*
X566660Y450000D01*
X566660Y450000D01*
X566660Y450000D01*
X566660Y450000D01*
D12*
X576660Y441000D03*
D11*
X576660Y432000D02*
X576660Y432000D01*
X576660Y432000D01*
X576660Y432000D01*
X576660Y432000D01*
X576660Y432000D01*
X576660Y432000D01*
X576660Y432000D01*
X576660Y432000D01*
X576660Y450000D02*
X576660Y450000D01*
X576660Y450000D01*
X576660Y450000D01*
X576660Y450000D01*
X576660Y450000D01*
X576660Y450000D01*
X576660Y450000D01*
X576660Y450000D01*
D12*
X586660Y441000D03*
D11*
X586660Y432000D02*
X586660Y432000D01*
X586660Y432000D01*
X586660Y432000D01*
X586660Y432000D01*
X586660Y432000D01*
X586660Y432000D01*
X586660Y432000D01*
X586660Y432000D01*
X586660Y450000D02*
X586660Y450000D01*
X586660Y450000D01*
X586660Y450000D01*
X586660Y450000D01*
X586660Y450000D01*
X586660Y450000D01*
X586660Y450000D01*
X586660Y450000D01*
D12*
X596660Y441000D03*
D11*
X596660Y432000D02*
X596660Y432000D01*
X596660Y432000D01*
X596660Y432000D01*
X596660Y432000D01*
X596660Y432000D01*
X596660Y432000D01*
X596660Y432000D01*
X596660Y432000D01*
X596660Y450000D02*
X596660Y450000D01*
X596660Y450000D01*
X596660Y450000D01*
X596660Y450000D01*
X596660Y450000D01*
X596660Y450000D01*
X596660Y450000D01*
X596660Y450000D01*
D12*
X606660Y441000D03*
D11*
X606660Y432000D02*
X606660Y432000D01*
X606660Y432000D01*
X606660Y432000D01*
X606660Y432000D01*
X606660Y432000D01*
X606660Y432000D01*
X606660Y432000D01*
X606660Y432000D01*
X606660Y450000D02*
X606660Y450000D01*
X606660Y450000D01*
X606660Y450000D01*
X606660Y450000D01*
X606660Y450000D01*
X606660Y450000D01*
X606660Y450000D01*
X606660Y450000D01*
D12*
X616660Y441000D03*
D11*
X616660Y432000D02*
X616660Y432000D01*
X616660Y432000D01*
X616660Y432000D01*
X616660Y432000D01*
X616660Y432000D01*
X616660Y432000D01*
X616660Y432000D01*
X616660Y432000D01*
X616660Y450000D02*
X616660Y450000D01*
X616660Y450000D01*
X616660Y450000D01*
X616660Y450000D01*
X616660Y450000D01*
X616660Y450000D01*
X616660Y450000D01*
X616660Y450000D01*
D13*
X590150Y55610D02*
X588170Y55610D01*
X588170Y64590D01*
X590150Y64590D01*
X590150Y55610D01*
X590150Y56579D02*
X588170Y56579D01*
X588170Y57548D02*
X590150Y57548D01*
X590150Y58517D02*
X588170Y58517D01*
X588170Y59486D02*
X590150Y59486D01*
X590150Y60455D02*
X588170Y60455D01*
X588170Y61424D02*
X590150Y61424D01*
X590150Y62393D02*
X588170Y62393D01*
X588170Y63362D02*
X590150Y63362D01*
X590150Y64331D02*
X588170Y64331D01*
X585150Y55610D02*
X583170Y55610D01*
X583170Y64590D01*
X585150Y64590D01*
X585150Y55610D01*
X585150Y56579D02*
X583170Y56579D01*
X583170Y57548D02*
X585150Y57548D01*
X585150Y58517D02*
X583170Y58517D01*
X583170Y59486D02*
X585150Y59486D01*
X585150Y60455D02*
X583170Y60455D01*
X583170Y61424D02*
X585150Y61424D01*
X585150Y62393D02*
X583170Y62393D01*
X583170Y63362D02*
X585150Y63362D01*
X585150Y64331D02*
X583170Y64331D01*
X611420Y55610D02*
X616400Y55610D01*
X611420Y55610D02*
X611420Y64590D01*
X616400Y64590D01*
X616400Y55610D01*
X616400Y56579D02*
X611420Y56579D01*
X611420Y57548D02*
X616400Y57548D01*
X616400Y58517D02*
X611420Y58517D01*
X611420Y59486D02*
X616400Y59486D01*
X616400Y60455D02*
X611420Y60455D01*
X611420Y61424D02*
X616400Y61424D01*
X616400Y62393D02*
X611420Y62393D01*
X611420Y63362D02*
X616400Y63362D01*
X616400Y64331D02*
X611420Y64331D01*
X608650Y55610D02*
X603670Y55610D01*
X603670Y64590D01*
X608650Y64590D01*
X608650Y55610D01*
X608650Y56579D02*
X603670Y56579D01*
X603670Y57548D02*
X608650Y57548D01*
X608650Y58517D02*
X603670Y58517D01*
X603670Y59486D02*
X608650Y59486D01*
X608650Y60455D02*
X603670Y60455D01*
X603670Y61424D02*
X608650Y61424D01*
X608650Y62393D02*
X603670Y62393D01*
X603670Y63362D02*
X608650Y63362D01*
X608650Y64331D02*
X603670Y64331D01*
X600150Y55610D02*
X598170Y55610D01*
X598170Y64590D01*
X600150Y64590D01*
X600150Y55610D01*
X600150Y56579D02*
X598170Y56579D01*
X598170Y57548D02*
X600150Y57548D01*
X600150Y58517D02*
X598170Y58517D01*
X598170Y59486D02*
X600150Y59486D01*
X600150Y60455D02*
X598170Y60455D01*
X598170Y61424D02*
X600150Y61424D01*
X600150Y62393D02*
X598170Y62393D01*
X598170Y63362D02*
X600150Y63362D01*
X600150Y64331D02*
X598170Y64331D01*
X595150Y55610D02*
X593170Y55610D01*
X593170Y64590D01*
X595150Y64590D01*
X595150Y55610D01*
X595150Y56579D02*
X593170Y56579D01*
X593170Y57548D02*
X595150Y57548D01*
X595150Y58517D02*
X593170Y58517D01*
X593170Y59486D02*
X595150Y59486D01*
X595150Y60455D02*
X593170Y60455D01*
X593170Y61424D02*
X595150Y61424D01*
X595150Y62393D02*
X593170Y62393D01*
X593170Y63362D02*
X595150Y63362D01*
X595150Y64331D02*
X593170Y64331D01*
X575150Y64590D02*
X573170Y64590D01*
X575150Y64590D02*
X575150Y55610D01*
X573170Y55610D01*
X573170Y64590D01*
X573170Y56579D02*
X575150Y56579D01*
X575150Y57548D02*
X573170Y57548D01*
X573170Y58517D02*
X575150Y58517D01*
X575150Y59486D02*
X573170Y59486D01*
X573170Y60455D02*
X575150Y60455D01*
X575150Y61424D02*
X573170Y61424D01*
X573170Y62393D02*
X575150Y62393D01*
X575150Y63362D02*
X573170Y63362D01*
X573170Y64331D02*
X575150Y64331D01*
X578170Y64590D02*
X580150Y64590D01*
X580150Y55610D01*
X578170Y55610D01*
X578170Y64590D01*
X578170Y56579D02*
X580150Y56579D01*
X580150Y57548D02*
X578170Y57548D01*
X578170Y58517D02*
X580150Y58517D01*
X580150Y59486D02*
X578170Y59486D01*
X578170Y60455D02*
X580150Y60455D01*
X580150Y61424D02*
X578170Y61424D01*
X578170Y62393D02*
X580150Y62393D01*
X580150Y63362D02*
X578170Y63362D01*
X578170Y64331D02*
X580150Y64331D01*
X551900Y64590D02*
X546920Y64590D01*
X551900Y64590D02*
X551900Y55610D01*
X546920Y55610D01*
X546920Y64590D01*
X546920Y56579D02*
X551900Y56579D01*
X551900Y57548D02*
X546920Y57548D01*
X546920Y58517D02*
X551900Y58517D01*
X551900Y59486D02*
X546920Y59486D01*
X546920Y60455D02*
X551900Y60455D01*
X551900Y61424D02*
X546920Y61424D01*
X546920Y62393D02*
X551900Y62393D01*
X551900Y63362D02*
X546920Y63362D01*
X546920Y64331D02*
X551900Y64331D01*
X554670Y64590D02*
X559650Y64590D01*
X559650Y55610D01*
X554670Y55610D01*
X554670Y64590D01*
X554670Y56579D02*
X559650Y56579D01*
X559650Y57548D02*
X554670Y57548D01*
X554670Y58517D02*
X559650Y58517D01*
X559650Y59486D02*
X554670Y59486D01*
X554670Y60455D02*
X559650Y60455D01*
X559650Y61424D02*
X554670Y61424D01*
X554670Y62393D02*
X559650Y62393D01*
X559650Y63362D02*
X554670Y63362D01*
X554670Y64331D02*
X559650Y64331D01*
X563170Y64590D02*
X565150Y64590D01*
X565150Y55610D01*
X563170Y55610D01*
X563170Y64590D01*
X563170Y56579D02*
X565150Y56579D01*
X565150Y57548D02*
X563170Y57548D01*
X563170Y58517D02*
X565150Y58517D01*
X565150Y59486D02*
X563170Y59486D01*
X563170Y60455D02*
X565150Y60455D01*
X565150Y61424D02*
X563170Y61424D01*
X563170Y62393D02*
X565150Y62393D01*
X565150Y63362D02*
X563170Y63362D01*
X563170Y64331D02*
X565150Y64331D01*
X568170Y64590D02*
X570150Y64590D01*
X570150Y55610D01*
X568170Y55610D01*
X568170Y64590D01*
X568170Y56579D02*
X570150Y56579D01*
X570150Y57548D02*
X568170Y57548D01*
X568170Y58517D02*
X570150Y58517D01*
X570150Y59486D02*
X568170Y59486D01*
X568170Y60455D02*
X570150Y60455D01*
X570150Y61424D02*
X568170Y61424D01*
X568170Y62393D02*
X570150Y62393D01*
X570150Y63362D02*
X568170Y63362D01*
X568170Y64331D02*
X570150Y64331D01*
D14*
X564960Y163300D02*
X564960Y172300D01*
X564960Y163300D02*
X519960Y163300D01*
X519960Y172300D01*
X564960Y172300D01*
X564960Y164250D02*
X519960Y164250D01*
X519960Y165200D02*
X564960Y165200D01*
X564960Y166150D02*
X519960Y166150D01*
X519960Y167100D02*
X564960Y167100D01*
X564960Y168050D02*
X519960Y168050D01*
X519960Y169000D02*
X564960Y169000D01*
X564960Y169950D02*
X519960Y169950D01*
X519960Y170900D02*
X564960Y170900D01*
X564960Y171850D02*
X519960Y171850D01*
X564960Y183300D02*
X564960Y192300D01*
X564960Y183300D02*
X519960Y183300D01*
X519960Y192300D01*
X564960Y192300D01*
X564960Y184250D02*
X519960Y184250D01*
X519960Y185200D02*
X564960Y185200D01*
X564960Y186150D02*
X519960Y186150D01*
X519960Y187100D02*
X564960Y187100D01*
X564960Y188050D02*
X519960Y188050D01*
X519960Y189000D02*
X564960Y189000D01*
X564960Y189950D02*
X519960Y189950D01*
X519960Y190900D02*
X564960Y190900D01*
X564960Y191850D02*
X519960Y191850D01*
D15*
X506980Y151320D02*
X473940Y151320D01*
X506980Y151320D02*
X506980Y136280D01*
X473940Y136280D01*
X473940Y151320D01*
X473940Y137192D02*
X506980Y137192D01*
X506980Y138104D02*
X473940Y138104D01*
X473940Y139016D02*
X506980Y139016D01*
X506980Y139928D02*
X473940Y139928D01*
X473940Y140840D02*
X506980Y140840D01*
X506980Y141752D02*
X473940Y141752D01*
X473940Y142664D02*
X506980Y142664D01*
X506980Y143576D02*
X473940Y143576D01*
X473940Y144488D02*
X506980Y144488D01*
X506980Y145400D02*
X473940Y145400D01*
X473940Y146312D02*
X506980Y146312D01*
X506980Y147224D02*
X473940Y147224D01*
X473940Y148136D02*
X506980Y148136D01*
X506980Y149048D02*
X473940Y149048D01*
X473940Y149960D02*
X506980Y149960D01*
X506980Y150872D02*
X473940Y150872D01*
X473940Y219320D02*
X506980Y219320D01*
X506980Y204280D01*
X473940Y204280D01*
X473940Y219320D01*
X473940Y205192D02*
X506980Y205192D01*
X506980Y206104D02*
X473940Y206104D01*
X473940Y207016D02*
X506980Y207016D01*
X506980Y207928D02*
X473940Y207928D01*
X473940Y208840D02*
X506980Y208840D01*
X506980Y209752D02*
X473940Y209752D01*
X473940Y210664D02*
X506980Y210664D01*
X506980Y211576D02*
X473940Y211576D01*
X473940Y212488D02*
X506980Y212488D01*
X506980Y213400D02*
X473940Y213400D01*
X473940Y214312D02*
X506980Y214312D01*
X506980Y215224D02*
X473940Y215224D01*
X473940Y216136D02*
X506980Y216136D01*
X506980Y217048D02*
X473940Y217048D01*
X473940Y217960D02*
X506980Y217960D01*
X506980Y218872D02*
X473940Y218872D01*
D16*
X658586Y183255D02*
X658586Y178745D01*
X647576Y178745D01*
X647576Y183255D01*
X658586Y183255D01*
X658586Y179685D02*
X647576Y179685D01*
X647576Y180625D02*
X658586Y180625D01*
X658586Y181565D02*
X647576Y181565D01*
X647576Y182505D02*
X658586Y182505D01*
X658586Y188245D02*
X658586Y192755D01*
X658586Y188245D02*
X647576Y188245D01*
X647576Y192755D01*
X658586Y192755D01*
X658586Y189185D02*
X647576Y189185D01*
X647576Y190125D02*
X658586Y190125D01*
X658586Y191065D02*
X647576Y191065D01*
X647576Y192005D02*
X658586Y192005D01*
X658586Y197745D02*
X658586Y202255D01*
X658586Y197745D02*
X647576Y197745D01*
X647576Y202255D01*
X658586Y202255D01*
X658586Y198685D02*
X647576Y198685D01*
X647576Y199625D02*
X658586Y199625D01*
X658586Y200565D02*
X647576Y200565D01*
X647576Y201505D02*
X658586Y201505D01*
X632584Y202255D02*
X632584Y197745D01*
X621574Y197745D01*
X621574Y202255D01*
X632584Y202255D01*
X632584Y198685D02*
X621574Y198685D01*
X621574Y199625D02*
X632584Y199625D01*
X632584Y200565D02*
X621574Y200565D01*
X621574Y201505D02*
X632584Y201505D01*
X632584Y183255D02*
X632584Y178745D01*
X621574Y178745D01*
X621574Y183255D01*
X632584Y183255D01*
X632584Y179685D02*
X621574Y179685D01*
X621574Y180625D02*
X632584Y180625D01*
X632584Y181565D02*
X621574Y181565D01*
X621574Y182505D02*
X632584Y182505D01*
D17*
X659140Y70180D02*
X659140Y63220D01*
X651180Y63220D01*
X651180Y70180D01*
X659140Y70180D01*
X659140Y64208D02*
X651180Y64208D01*
X651180Y65196D02*
X659140Y65196D01*
X659140Y66184D02*
X651180Y66184D01*
X651180Y67172D02*
X659140Y67172D01*
X659140Y68160D02*
X651180Y68160D01*
X651180Y69148D02*
X659140Y69148D01*
X659140Y70136D02*
X651180Y70136D01*
X659140Y82220D02*
X659140Y89180D01*
X659140Y82220D02*
X651180Y82220D01*
X651180Y89180D01*
X659140Y89180D01*
X659140Y83208D02*
X651180Y83208D01*
X651180Y84196D02*
X659140Y84196D01*
X659140Y85184D02*
X651180Y85184D01*
X651180Y86172D02*
X659140Y86172D01*
X659140Y87160D02*
X651180Y87160D01*
X651180Y88148D02*
X659140Y88148D01*
X659140Y89136D02*
X651180Y89136D01*
X638140Y79680D02*
X638140Y72720D01*
X630180Y72720D01*
X630180Y79680D01*
X638140Y79680D01*
X638140Y73708D02*
X630180Y73708D01*
X630180Y74696D02*
X638140Y74696D01*
X638140Y75684D02*
X630180Y75684D01*
X630180Y76672D02*
X638140Y76672D01*
X638140Y77660D02*
X630180Y77660D01*
X630180Y78648D02*
X638140Y78648D01*
X638140Y79636D02*
X630180Y79636D01*
D13*
X669240Y183010D02*
X669240Y187990D01*
X669240Y183010D02*
X664260Y183010D01*
X664260Y187990D01*
X669240Y187990D01*
X669240Y183979D02*
X664260Y183979D01*
X664260Y184948D02*
X669240Y184948D01*
X669240Y185917D02*
X664260Y185917D01*
X664260Y186886D02*
X669240Y186886D01*
X669240Y187855D02*
X664260Y187855D01*
X669240Y193010D02*
X669240Y197990D01*
X669240Y193010D02*
X664260Y193010D01*
X664260Y197990D01*
X669240Y197990D01*
X669240Y193979D02*
X664260Y193979D01*
X664260Y194948D02*
X669240Y194948D01*
X669240Y195917D02*
X664260Y195917D01*
X664260Y196886D02*
X669240Y196886D01*
X669240Y197855D02*
X664260Y197855D01*
X665350Y154890D02*
X660370Y154890D01*
X665350Y154890D02*
X665350Y149910D01*
X660370Y149910D01*
X660370Y154890D01*
X660370Y150879D02*
X665350Y150879D01*
X665350Y151848D02*
X660370Y151848D01*
X660370Y152817D02*
X665350Y152817D01*
X665350Y153786D02*
X660370Y153786D01*
X660370Y154755D02*
X665350Y154755D01*
X655350Y154890D02*
X650370Y154890D01*
X655350Y154890D02*
X655350Y149910D01*
X650370Y149910D01*
X650370Y154890D01*
X650370Y150879D02*
X655350Y150879D01*
X655350Y151848D02*
X650370Y151848D01*
X650370Y152817D02*
X655350Y152817D01*
X655350Y153786D02*
X650370Y153786D01*
X650370Y154755D02*
X655350Y154755D01*
D18*
X666914Y90346D02*
X666914Y85054D01*
X666914Y90346D02*
X674206Y90346D01*
X674206Y85054D01*
X666914Y85054D01*
X666914Y86012D02*
X674206Y86012D01*
X674206Y86970D02*
X666914Y86970D01*
X666914Y87928D02*
X674206Y87928D01*
X674206Y88886D02*
X666914Y88886D01*
X666914Y89844D02*
X674206Y89844D01*
X666914Y67346D02*
X666914Y62054D01*
X666914Y67346D02*
X674206Y67346D01*
X674206Y62054D01*
X666914Y62054D01*
X666914Y63012D02*
X674206Y63012D01*
X674206Y63970D02*
X666914Y63970D01*
X666914Y64928D02*
X674206Y64928D01*
X674206Y65886D02*
X666914Y65886D01*
X666914Y66844D02*
X674206Y66844D01*
D13*
X682040Y78710D02*
X682040Y83690D01*
X687020Y83690D01*
X687020Y78710D01*
X682040Y78710D01*
X682040Y79679D02*
X687020Y79679D01*
X687020Y80648D02*
X682040Y80648D01*
X682040Y81617D02*
X687020Y81617D01*
X687020Y82586D02*
X682040Y82586D01*
X682040Y83555D02*
X687020Y83555D01*
X682040Y73690D02*
X682040Y68710D01*
X682040Y73690D02*
X687020Y73690D01*
X687020Y68710D01*
X682040Y68710D01*
X682040Y69679D02*
X687020Y69679D01*
X687020Y70648D02*
X682040Y70648D01*
X682040Y71617D02*
X687020Y71617D01*
X687020Y72586D02*
X682040Y72586D01*
X682040Y73555D02*
X687020Y73555D01*
X633600Y167590D02*
X628620Y167590D01*
X633600Y167590D02*
X633600Y162610D01*
X628620Y162610D01*
X628620Y167590D01*
X628620Y163579D02*
X633600Y163579D01*
X633600Y164548D02*
X628620Y164548D01*
X628620Y165517D02*
X633600Y165517D01*
X633600Y166486D02*
X628620Y166486D01*
X628620Y167455D02*
X633600Y167455D01*
X623600Y167590D02*
X618620Y167590D01*
X623600Y167590D02*
X623600Y162610D01*
X618620Y162610D01*
X618620Y167590D01*
X618620Y163579D02*
X623600Y163579D01*
X623600Y164548D02*
X618620Y164548D01*
X618620Y165517D02*
X623600Y165517D01*
X623600Y166486D02*
X618620Y166486D01*
X618620Y167455D02*
X623600Y167455D01*
D16*
X594904Y119705D02*
X594904Y115195D01*
X594904Y119705D02*
X605914Y119705D01*
X605914Y115195D01*
X594904Y115195D01*
X594904Y116135D02*
X605914Y116135D01*
X605914Y117075D02*
X594904Y117075D01*
X594904Y118015D02*
X605914Y118015D01*
X605914Y118955D02*
X594904Y118955D01*
X594904Y110205D02*
X594904Y105695D01*
X594904Y110205D02*
X605914Y110205D01*
X605914Y105695D01*
X594904Y105695D01*
X594904Y106635D02*
X605914Y106635D01*
X605914Y107575D02*
X594904Y107575D01*
X594904Y108515D02*
X605914Y108515D01*
X605914Y109455D02*
X594904Y109455D01*
X594904Y100705D02*
X594904Y96195D01*
X594904Y100705D02*
X605914Y100705D01*
X605914Y96195D01*
X594904Y96195D01*
X594904Y97135D02*
X605914Y97135D01*
X605914Y98075D02*
X594904Y98075D01*
X594904Y99015D02*
X605914Y99015D01*
X605914Y99955D02*
X594904Y99955D01*
X620906Y100705D02*
X620906Y96195D01*
X620906Y100705D02*
X631916Y100705D01*
X631916Y96195D01*
X620906Y96195D01*
X620906Y97135D02*
X631916Y97135D01*
X631916Y98075D02*
X620906Y98075D01*
X620906Y99015D02*
X631916Y99015D01*
X631916Y99955D02*
X620906Y99955D01*
X620906Y115195D02*
X620906Y119705D01*
X631916Y119705D01*
X631916Y115195D01*
X620906Y115195D01*
X620906Y116135D02*
X631916Y116135D01*
X631916Y117075D02*
X620906Y117075D01*
X620906Y118015D02*
X631916Y118015D01*
X631916Y118955D02*
X620906Y118955D01*
D19*
X597860Y140780D02*
X590860Y140780D01*
X597860Y140780D02*
X597860Y133780D01*
X590860Y133780D01*
X590860Y140780D01*
X590860Y136630D02*
X597860Y136630D01*
X597860Y139480D02*
X590860Y139480D01*
X590860Y158320D02*
X597860Y158320D01*
X597860Y151320D01*
X590860Y151320D01*
X590860Y158320D01*
X590860Y154170D02*
X597860Y154170D01*
X597860Y157020D02*
X590860Y157020D01*
D13*
X636320Y115440D02*
X636320Y110460D01*
X636320Y115440D02*
X641300Y115440D01*
X641300Y110460D01*
X636320Y110460D01*
X636320Y111429D02*
X641300Y111429D01*
X641300Y112398D02*
X636320Y112398D01*
X636320Y113367D02*
X641300Y113367D01*
X641300Y114336D02*
X636320Y114336D01*
X636320Y115305D02*
X641300Y115305D01*
X636320Y105440D02*
X636320Y100460D01*
X636320Y105440D02*
X641300Y105440D01*
X641300Y100460D01*
X636320Y100460D01*
X636320Y101429D02*
X641300Y101429D01*
X641300Y102398D02*
X636320Y102398D01*
X636320Y103367D02*
X641300Y103367D01*
X641300Y104336D02*
X636320Y104336D01*
X636320Y105305D02*
X641300Y105305D01*
X647670Y57100D02*
X652650Y57100D01*
X652650Y52120D01*
X647670Y52120D01*
X647670Y57100D01*
X647670Y53089D02*
X652650Y53089D01*
X652650Y54058D02*
X647670Y54058D01*
X647670Y55027D02*
X652650Y55027D01*
X652650Y55996D02*
X647670Y55996D01*
X647670Y56965D02*
X652650Y56965D01*
X642650Y57100D02*
X637670Y57100D01*
X642650Y57100D02*
X642650Y52120D01*
X637670Y52120D01*
X637670Y57100D01*
X637670Y53089D02*
X642650Y53089D01*
X642650Y54058D02*
X637670Y54058D01*
X637670Y55027D02*
X642650Y55027D01*
X642650Y55996D02*
X637670Y55996D01*
X637670Y56965D02*
X642650Y56965D01*
X610920Y148560D02*
X610920Y153540D01*
X615900Y153540D01*
X615900Y148560D01*
X610920Y148560D01*
X610920Y149529D02*
X615900Y149529D01*
X615900Y150498D02*
X610920Y150498D01*
X610920Y151467D02*
X615900Y151467D01*
X615900Y152436D02*
X610920Y152436D01*
X610920Y153405D02*
X615900Y153405D01*
X610920Y143540D02*
X610920Y138560D01*
X610920Y143540D02*
X615900Y143540D01*
X615900Y138560D01*
X610920Y138560D01*
X610920Y139529D02*
X615900Y139529D01*
X615900Y140498D02*
X610920Y140498D01*
X610920Y141467D02*
X615900Y141467D01*
X615900Y142436D02*
X610920Y142436D01*
X610920Y143405D02*
X615900Y143405D01*
X623620Y148560D02*
X623620Y153540D01*
X628600Y153540D01*
X628600Y148560D01*
X623620Y148560D01*
X623620Y149529D02*
X628600Y149529D01*
X628600Y150498D02*
X623620Y150498D01*
X623620Y151467D02*
X628600Y151467D01*
X628600Y152436D02*
X623620Y152436D01*
X623620Y153405D02*
X628600Y153405D01*
X623620Y143540D02*
X623620Y138560D01*
X623620Y143540D02*
X628600Y143540D01*
X628600Y138560D01*
X623620Y138560D01*
X623620Y139529D02*
X628600Y139529D01*
X628600Y140498D02*
X623620Y140498D01*
X623620Y141467D02*
X628600Y141467D01*
X628600Y142436D02*
X623620Y142436D01*
X623620Y143405D02*
X628600Y143405D01*
X627250Y87580D02*
X622270Y87580D01*
X627250Y87580D02*
X627250Y82600D01*
X622270Y82600D01*
X622270Y87580D01*
X622270Y83569D02*
X627250Y83569D01*
X627250Y84538D02*
X622270Y84538D01*
X622270Y85507D02*
X627250Y85507D01*
X627250Y86476D02*
X622270Y86476D01*
X622270Y87445D02*
X627250Y87445D01*
X617250Y87580D02*
X612270Y87580D01*
X617250Y87580D02*
X617250Y82600D01*
X612270Y82600D01*
X612270Y87580D01*
X612270Y83569D02*
X617250Y83569D01*
X617250Y84538D02*
X612270Y84538D01*
X612270Y85507D02*
X617250Y85507D01*
X617250Y86476D02*
X612270Y86476D01*
X612270Y87445D02*
X617250Y87445D01*
D20*
X560098Y108070D03*
X539723Y113070D03*
X539723Y108070D03*
X539723Y118070D03*
X539723Y123070D03*
X560098Y113070D03*
X560098Y118070D03*
X560098Y123070D03*
D21*
X549910Y118970D03*
X549910Y112170D03*
D13*
X567740Y113000D02*
X567740Y117980D01*
X572720Y117980D01*
X572720Y113000D01*
X567740Y113000D01*
X567740Y113969D02*
X572720Y113969D01*
X572720Y114938D02*
X567740Y114938D01*
X567740Y115907D02*
X572720Y115907D01*
X572720Y116876D02*
X567740Y116876D01*
X567740Y117845D02*
X572720Y117845D01*
X567740Y107980D02*
X567740Y103000D01*
X567740Y107980D02*
X572720Y107980D01*
X572720Y103000D01*
X567740Y103000D01*
X567740Y103969D02*
X572720Y103969D01*
X572720Y104938D02*
X567740Y104938D01*
X567740Y105907D02*
X572720Y105907D01*
X572720Y106876D02*
X567740Y106876D01*
X567740Y107845D02*
X572720Y107845D01*
X598220Y86738D02*
X598220Y81758D01*
X598220Y86738D02*
X603200Y86738D01*
X603200Y81758D01*
X598220Y81758D01*
X598220Y82727D02*
X603200Y82727D01*
X603200Y83696D02*
X598220Y83696D01*
X598220Y84665D02*
X603200Y84665D01*
X603200Y85634D02*
X598220Y85634D01*
X598220Y86603D02*
X603200Y86603D01*
X598220Y76738D02*
X598220Y71758D01*
X598220Y76738D02*
X603200Y76738D01*
X603200Y71758D01*
X598220Y71758D01*
X598220Y72727D02*
X603200Y72727D01*
X603200Y73696D02*
X598220Y73696D01*
X598220Y74665D02*
X603200Y74665D01*
X603200Y75634D02*
X598220Y75634D01*
X598220Y76603D02*
X603200Y76603D01*
X560120Y81758D02*
X560120Y86738D01*
X565100Y86738D01*
X565100Y81758D01*
X560120Y81758D01*
X560120Y82727D02*
X565100Y82727D01*
X565100Y83696D02*
X560120Y83696D01*
X560120Y84665D02*
X565100Y84665D01*
X565100Y85634D02*
X560120Y85634D01*
X560120Y86603D02*
X565100Y86603D01*
X560120Y76738D02*
X560120Y71758D01*
X560120Y76738D02*
X565100Y76738D01*
X565100Y71758D01*
X560120Y71758D01*
X560120Y72727D02*
X565100Y72727D01*
X565100Y73696D02*
X560120Y73696D01*
X560120Y74665D02*
X565100Y74665D01*
X565100Y75634D02*
X560120Y75634D01*
X560120Y76603D02*
X565100Y76603D01*
D22*
X577398Y77736D02*
X577398Y72660D01*
X575922Y72660D01*
X575922Y77736D01*
X577398Y77736D01*
X577398Y73634D02*
X575922Y73634D01*
X575922Y74608D02*
X577398Y74608D01*
X577398Y75582D02*
X575922Y75582D01*
X575922Y76556D02*
X577398Y76556D01*
X577398Y77530D02*
X575922Y77530D01*
X582398Y77236D02*
X582398Y72660D01*
X580922Y72660D01*
X580922Y77236D01*
X582398Y77236D01*
X582398Y73634D02*
X580922Y73634D01*
X580922Y74608D02*
X582398Y74608D01*
X582398Y75582D02*
X580922Y75582D01*
X580922Y76556D02*
X582398Y76556D01*
X587398Y77236D02*
X587398Y72660D01*
X585922Y72660D01*
X585922Y77236D01*
X587398Y77236D01*
X587398Y73634D02*
X585922Y73634D01*
X585922Y74608D02*
X587398Y74608D01*
X587398Y75582D02*
X585922Y75582D01*
X585922Y76556D02*
X587398Y76556D01*
X585922Y81260D02*
X585922Y85836D01*
X587398Y85836D01*
X587398Y81260D01*
X585922Y81260D01*
X585922Y82234D02*
X587398Y82234D01*
X587398Y83208D02*
X585922Y83208D01*
X585922Y84182D02*
X587398Y84182D01*
X587398Y85156D02*
X585922Y85156D01*
X580922Y85836D02*
X580922Y81260D01*
X580922Y85836D02*
X582398Y85836D01*
X582398Y81260D01*
X580922Y81260D01*
X580922Y82234D02*
X582398Y82234D01*
X582398Y83208D02*
X580922Y83208D01*
X580922Y84182D02*
X582398Y84182D01*
X582398Y85156D02*
X580922Y85156D01*
X575922Y85836D02*
X575922Y81260D01*
X575922Y85836D02*
X577398Y85836D01*
X577398Y81260D01*
X575922Y81260D01*
X575922Y82234D02*
X577398Y82234D01*
X577398Y83208D02*
X575922Y83208D01*
X575922Y84182D02*
X577398Y84182D01*
X577398Y85156D02*
X575922Y85156D01*
D15*
X471890Y111380D02*
X471890Y122420D01*
X490930Y122420D01*
X490930Y111380D01*
X471890Y111380D01*
X471890Y112292D02*
X490930Y112292D01*
X490930Y113204D02*
X471890Y113204D01*
X471890Y114116D02*
X490930Y114116D01*
X490930Y115028D02*
X471890Y115028D01*
X471890Y115940D02*
X490930Y115940D01*
X490930Y116852D02*
X471890Y116852D01*
X471890Y117764D02*
X490930Y117764D01*
X490930Y118676D02*
X471890Y118676D01*
X471890Y119588D02*
X490930Y119588D01*
X490930Y120500D02*
X471890Y120500D01*
X471890Y121412D02*
X490930Y121412D01*
X490930Y122324D02*
X471890Y122324D01*
X471890Y66420D02*
X471890Y55380D01*
X471890Y66420D02*
X490930Y66420D01*
X490930Y55380D01*
X471890Y55380D01*
X471890Y56292D02*
X490930Y56292D01*
X490930Y57204D02*
X471890Y57204D01*
X471890Y58116D02*
X490930Y58116D01*
X490930Y59028D02*
X471890Y59028D01*
X471890Y59940D02*
X490930Y59940D01*
X490930Y60852D02*
X471890Y60852D01*
X471890Y61764D02*
X490930Y61764D01*
X490930Y62676D02*
X471890Y62676D01*
X471890Y63588D02*
X490930Y63588D01*
X490930Y64500D02*
X471890Y64500D01*
X471890Y65412D02*
X490930Y65412D01*
X490930Y66324D02*
X471890Y66324D01*
D13*
X511920Y101410D02*
X511920Y106390D01*
X524400Y106390D01*
X524400Y101410D01*
X511920Y101410D01*
X511920Y102379D02*
X524400Y102379D01*
X524400Y103348D02*
X511920Y103348D01*
X511920Y104317D02*
X524400Y104317D01*
X524400Y105286D02*
X511920Y105286D01*
X511920Y106255D02*
X524400Y106255D01*
X511920Y96390D02*
X511920Y91410D01*
X511920Y96390D02*
X524400Y96390D01*
X524400Y91410D01*
X511920Y91410D01*
X511920Y92379D02*
X524400Y92379D01*
X524400Y93348D02*
X511920Y93348D01*
X511920Y94317D02*
X524400Y94317D01*
X524400Y95286D02*
X511920Y95286D01*
X511920Y96255D02*
X524400Y96255D01*
X511920Y86390D02*
X511920Y81410D01*
X511920Y86390D02*
X524400Y86390D01*
X524400Y81410D01*
X511920Y81410D01*
X511920Y82379D02*
X524400Y82379D01*
X524400Y83348D02*
X511920Y83348D01*
X511920Y84317D02*
X524400Y84317D01*
X524400Y85286D02*
X511920Y85286D01*
X511920Y86255D02*
X524400Y86255D01*
X511920Y76390D02*
X511920Y71410D01*
X511920Y76390D02*
X524400Y76390D01*
X524400Y71410D01*
X511920Y71410D01*
X511920Y72379D02*
X524400Y72379D01*
X524400Y73348D02*
X511920Y73348D01*
X511920Y74317D02*
X524400Y74317D01*
X524400Y75286D02*
X511920Y75286D01*
X511920Y76255D02*
X524400Y76255D01*
X529720Y73710D02*
X534700Y73710D01*
X529720Y73710D02*
X529720Y78690D01*
X534700Y78690D01*
X534700Y73710D01*
X534700Y74679D02*
X529720Y74679D01*
X529720Y75648D02*
X534700Y75648D01*
X534700Y76617D02*
X529720Y76617D01*
X529720Y77586D02*
X534700Y77586D01*
X534700Y78555D02*
X529720Y78555D01*
X539720Y73710D02*
X544700Y73710D01*
X539720Y73710D02*
X539720Y78690D01*
X544700Y78690D01*
X544700Y73710D01*
X544700Y74679D02*
X539720Y74679D01*
X539720Y75648D02*
X544700Y75648D01*
X544700Y76617D02*
X539720Y76617D01*
X539720Y77586D02*
X544700Y77586D01*
X544700Y78555D02*
X539720Y78555D01*
X534700Y86410D02*
X529720Y86410D01*
X529720Y91390D01*
X534700Y91390D01*
X534700Y86410D01*
X534700Y87379D02*
X529720Y87379D01*
X529720Y88348D02*
X534700Y88348D01*
X534700Y89317D02*
X529720Y89317D01*
X529720Y90286D02*
X534700Y90286D01*
X534700Y91255D02*
X529720Y91255D01*
X539720Y86410D02*
X544700Y86410D01*
X539720Y86410D02*
X539720Y91390D01*
X544700Y91390D01*
X544700Y86410D01*
X544700Y87379D02*
X539720Y87379D01*
X539720Y88348D02*
X544700Y88348D01*
X544700Y89317D02*
X539720Y89317D01*
X539720Y90286D02*
X544700Y90286D01*
X544700Y91255D02*
X539720Y91255D01*
X538350Y421590D02*
X533370Y421590D01*
X538350Y421590D02*
X538350Y416610D01*
X533370Y416610D01*
X533370Y421590D01*
X533370Y417579D02*
X538350Y417579D01*
X538350Y418548D02*
X533370Y418548D01*
X533370Y419517D02*
X538350Y419517D01*
X538350Y420486D02*
X533370Y420486D01*
X533370Y421455D02*
X538350Y421455D01*
X528350Y421590D02*
X523370Y421590D01*
X528350Y421590D02*
X528350Y416610D01*
X523370Y416610D01*
X523370Y421590D01*
X523370Y417579D02*
X528350Y417579D01*
X528350Y418548D02*
X523370Y418548D01*
X523370Y419517D02*
X528350Y419517D01*
X528350Y420486D02*
X523370Y420486D01*
X523370Y421455D02*
X528350Y421455D01*
D19*
X529900Y385890D02*
X536900Y385890D01*
X536900Y378890D01*
X529900Y378890D01*
X529900Y385890D01*
X529900Y381740D02*
X536900Y381740D01*
X536900Y384590D02*
X529900Y384590D01*
X529900Y403430D02*
X536900Y403430D01*
X536900Y396430D01*
X529900Y396430D01*
X529900Y403430D01*
X529900Y399280D02*
X536900Y399280D01*
X536900Y402130D02*
X529900Y402130D01*
D13*
X502950Y378510D02*
X497970Y378510D01*
X497970Y383490D01*
X502950Y383490D01*
X502950Y378510D01*
X502950Y379479D02*
X497970Y379479D01*
X497970Y380448D02*
X502950Y380448D01*
X502950Y381417D02*
X497970Y381417D01*
X497970Y382386D02*
X502950Y382386D01*
X502950Y383355D02*
X497970Y383355D01*
X507970Y378510D02*
X512950Y378510D01*
X507970Y378510D02*
X507970Y383490D01*
X512950Y383490D01*
X512950Y378510D01*
X512950Y379479D02*
X507970Y379479D01*
X507970Y380448D02*
X512950Y380448D01*
X512950Y381417D02*
X507970Y381417D01*
X507970Y382386D02*
X512950Y382386D01*
X512950Y383355D02*
X507970Y383355D01*
D16*
X597855Y174005D02*
X597855Y165995D01*
X597855Y174005D02*
X606865Y174005D01*
X606865Y165995D01*
X597855Y165995D01*
X597855Y166935D02*
X606865Y166935D01*
X606865Y167875D02*
X597855Y167875D01*
X597855Y168815D02*
X606865Y168815D01*
X606865Y169755D02*
X597855Y169755D01*
X597855Y170695D02*
X606865Y170695D01*
X606865Y171635D02*
X597855Y171635D01*
X597855Y172575D02*
X606865Y172575D01*
X606865Y173515D02*
X597855Y173515D01*
X581855Y174005D02*
X581855Y165995D01*
X581855Y174005D02*
X590865Y174005D01*
X590865Y165995D01*
X581855Y165995D01*
X581855Y166935D02*
X590865Y166935D01*
X590865Y167875D02*
X581855Y167875D01*
X581855Y168815D02*
X590865Y168815D01*
X590865Y169755D02*
X581855Y169755D01*
X581855Y170695D02*
X590865Y170695D01*
X590865Y171635D02*
X581855Y171635D01*
X581855Y172575D02*
X590865Y172575D01*
X590865Y173515D02*
X581855Y173515D01*
X581855Y206995D02*
X581855Y215005D01*
X590865Y215005D01*
X590865Y206995D01*
X581855Y206995D01*
X581855Y207935D02*
X590865Y207935D01*
X590865Y208875D02*
X581855Y208875D01*
X581855Y209815D02*
X590865Y209815D01*
X590865Y210755D02*
X581855Y210755D01*
X581855Y211695D02*
X590865Y211695D01*
X590865Y212635D02*
X581855Y212635D01*
X581855Y213575D02*
X590865Y213575D01*
X590865Y214515D02*
X581855Y214515D01*
X597855Y215005D02*
X597855Y206995D01*
X597855Y215005D02*
X606865Y215005D01*
X606865Y206995D01*
X597855Y206995D01*
X597855Y207935D02*
X606865Y207935D01*
X606865Y208875D02*
X597855Y208875D01*
X597855Y209815D02*
X606865Y209815D01*
X606865Y210755D02*
X597855Y210755D01*
X597855Y211695D02*
X606865Y211695D01*
X606865Y212635D02*
X597855Y212635D01*
X597855Y213575D02*
X606865Y213575D01*
X606865Y214515D02*
X597855Y214515D01*
D19*
X530550Y26480D02*
X523550Y26480D01*
X530550Y26480D02*
X530550Y19480D01*
X523550Y19480D01*
X523550Y26480D01*
X523550Y22330D02*
X530550Y22330D01*
X530550Y25180D02*
X523550Y25180D01*
X523550Y44020D02*
X530550Y44020D01*
X530550Y37020D01*
X523550Y37020D01*
X523550Y44020D01*
X523550Y39870D02*
X530550Y39870D01*
X530550Y42720D02*
X523550Y42720D01*
D13*
X529540Y49660D02*
X529540Y54640D01*
X529540Y49660D02*
X524560Y49660D01*
X524560Y54640D01*
X529540Y54640D01*
X529540Y50629D02*
X524560Y50629D01*
X524560Y51598D02*
X529540Y51598D01*
X529540Y52567D02*
X524560Y52567D01*
X524560Y53536D02*
X529540Y53536D01*
X529540Y54505D02*
X524560Y54505D01*
X529540Y59660D02*
X529540Y64640D01*
X529540Y59660D02*
X524560Y59660D01*
X524560Y64640D01*
X529540Y64640D01*
X529540Y60629D02*
X524560Y60629D01*
X524560Y61598D02*
X529540Y61598D01*
X529540Y62567D02*
X524560Y62567D01*
X524560Y63536D02*
X529540Y63536D01*
X529540Y64505D02*
X524560Y64505D01*
X515650Y124510D02*
X510670Y124510D01*
X510670Y129490D01*
X515650Y129490D01*
X515650Y124510D01*
X515650Y125479D02*
X510670Y125479D01*
X510670Y126448D02*
X515650Y126448D01*
X515650Y127417D02*
X510670Y127417D01*
X510670Y128386D02*
X515650Y128386D01*
X515650Y129355D02*
X510670Y129355D01*
X520670Y124510D02*
X525650Y124510D01*
X520670Y124510D02*
X520670Y129490D01*
X525650Y129490D01*
X525650Y124510D01*
X525650Y125479D02*
X520670Y125479D01*
X520670Y126448D02*
X525650Y126448D01*
X525650Y127417D02*
X520670Y127417D01*
X520670Y128386D02*
X525650Y128386D01*
X525650Y129355D02*
X520670Y129355D01*
D23*
X611660Y360200D03*
X611660Y355200D03*
X611660Y350200D03*
X611660Y345200D03*
X611660Y340200D03*
X611660Y335200D03*
X611660Y330200D03*
X611660Y325200D03*
X611660Y320200D03*
X611660Y315200D03*
X611660Y310200D03*
X611660Y305200D03*
X611660Y300200D03*
X606660Y360200D03*
X606660Y355200D03*
X606660Y350200D03*
X606660Y345200D03*
X606660Y340200D03*
X606660Y335200D03*
X606660Y330200D03*
X606660Y325200D03*
X606660Y320200D03*
X606660Y315200D03*
X606660Y310200D03*
X606660Y305200D03*
X606660Y300200D03*
X601660Y360200D03*
X596660Y360200D03*
X591660Y360200D03*
X586660Y360200D03*
X581660Y360200D03*
X576660Y360200D03*
X571660Y360200D03*
X566660Y360200D03*
X561660Y360200D03*
X556660Y360200D03*
X551660Y360200D03*
X601660Y355200D03*
X596660Y355200D03*
X591660Y355200D03*
X586660Y355200D03*
X581660Y355200D03*
X576660Y355200D03*
X571660Y355200D03*
X566660Y355200D03*
X561660Y355200D03*
X556660Y355200D03*
X551660Y355200D03*
X601660Y350200D03*
X596660Y350200D03*
X591660Y350200D03*
X586660Y350200D03*
X581660Y350200D03*
X576660Y350200D03*
X571660Y350200D03*
X566660Y350200D03*
X561660Y350200D03*
X556660Y350200D03*
X551660Y350200D03*
X601660Y345200D03*
X561660Y345200D03*
X556660Y345200D03*
X551660Y345200D03*
X601660Y340200D03*
X561660Y340200D03*
X556660Y340200D03*
X551660Y340200D03*
X601660Y335200D03*
X561660Y335200D03*
X556660Y335200D03*
X551660Y335200D03*
X601660Y330200D03*
X561660Y330200D03*
X556660Y330200D03*
X551660Y330200D03*
X601660Y325200D03*
X561660Y325200D03*
X556660Y325200D03*
X551660Y325200D03*
X601660Y320200D03*
X561660Y320200D03*
X556660Y320200D03*
X551660Y320200D03*
X601660Y315200D03*
X561660Y315200D03*
X556660Y315200D03*
X551660Y315200D03*
X601660Y310200D03*
X596660Y310200D03*
X591660Y310200D03*
X586660Y310200D03*
X581660Y310200D03*
X576660Y310200D03*
X571660Y310200D03*
X566660Y310200D03*
X561660Y310200D03*
X556660Y310200D03*
X551660Y310200D03*
X601660Y305200D03*
X596660Y305200D03*
X591660Y305200D03*
X586660Y305200D03*
X581660Y305200D03*
X576660Y305200D03*
X571660Y305200D03*
X566660Y305200D03*
X561660Y305200D03*
X556660Y305200D03*
X551660Y305200D03*
X601660Y300200D03*
X596660Y300200D03*
X591660Y300200D03*
X586660Y300200D03*
X581660Y300200D03*
X576660Y300200D03*
X571660Y300200D03*
X566660Y300200D03*
X561660Y300200D03*
X556660Y300200D03*
X551660Y300200D03*
D24*
X574160Y280700D03*
X579160Y280700D03*
X584160Y280700D03*
X589160Y280700D03*
X574160Y252700D03*
X579160Y252700D03*
X584160Y252700D03*
X589160Y252700D03*
D25*
X581660Y266700D03*
D13*
X598220Y275560D02*
X598220Y280540D01*
X603200Y280540D01*
X603200Y275560D01*
X598220Y275560D01*
X598220Y276529D02*
X603200Y276529D01*
X603200Y277498D02*
X598220Y277498D01*
X598220Y278467D02*
X603200Y278467D01*
X603200Y279436D02*
X598220Y279436D01*
X598220Y280405D02*
X603200Y280405D01*
X598220Y270540D02*
X598220Y265560D01*
X598220Y270540D02*
X603200Y270540D01*
X603200Y265560D01*
X598220Y265560D01*
X598220Y266529D02*
X603200Y266529D01*
X603200Y267498D02*
X598220Y267498D01*
X598220Y268467D02*
X603200Y268467D01*
X603200Y269436D02*
X598220Y269436D01*
X598220Y270405D02*
X603200Y270405D01*
X560120Y275560D02*
X560120Y280540D01*
X565100Y280540D01*
X565100Y275560D01*
X560120Y275560D01*
X560120Y276529D02*
X565100Y276529D01*
X565100Y277498D02*
X560120Y277498D01*
X560120Y278467D02*
X565100Y278467D01*
X565100Y279436D02*
X560120Y279436D01*
X560120Y280405D02*
X565100Y280405D01*
X560120Y270540D02*
X560120Y265560D01*
X560120Y270540D02*
X565100Y270540D01*
X565100Y265560D01*
X560120Y265560D01*
X560120Y266529D02*
X565100Y266529D01*
X565100Y267498D02*
X560120Y267498D01*
X560120Y268467D02*
X565100Y268467D01*
X565100Y269436D02*
X560120Y269436D01*
X560120Y270405D02*
X565100Y270405D01*
X631320Y315010D02*
X636300Y315010D01*
X631320Y315010D02*
X631320Y319990D01*
X636300Y319990D01*
X636300Y315010D01*
X636300Y315979D02*
X631320Y315979D01*
X631320Y316948D02*
X636300Y316948D01*
X636300Y317917D02*
X631320Y317917D01*
X631320Y318886D02*
X636300Y318886D01*
X636300Y319855D02*
X631320Y319855D01*
X641320Y315010D02*
X646300Y315010D01*
X641320Y315010D02*
X641320Y319990D01*
X646300Y319990D01*
X646300Y315010D01*
X646300Y315979D02*
X641320Y315979D01*
X641320Y316948D02*
X646300Y316948D01*
X646300Y317917D02*
X641320Y317917D01*
X641320Y318886D02*
X646300Y318886D01*
X646300Y319855D02*
X641320Y319855D01*
D14*
X545410Y286550D02*
X545410Y276550D01*
X545410Y286550D02*
X554410Y286550D01*
X554410Y276550D01*
X545410Y276550D01*
X545410Y277500D02*
X554410Y277500D01*
X554410Y278450D02*
X545410Y278450D01*
X545410Y279400D02*
X554410Y279400D01*
X554410Y280350D02*
X545410Y280350D01*
X545410Y281300D02*
X554410Y281300D01*
X554410Y282250D02*
X545410Y282250D01*
X545410Y283200D02*
X554410Y283200D01*
X554410Y284150D02*
X545410Y284150D01*
X545410Y285100D02*
X554410Y285100D01*
X554410Y286050D02*
X545410Y286050D01*
X545410Y269550D02*
X545410Y259550D01*
X545410Y269550D02*
X554410Y269550D01*
X554410Y259550D01*
X545410Y259550D01*
X545410Y260500D02*
X554410Y260500D01*
X554410Y261450D02*
X545410Y261450D01*
X545410Y262400D02*
X554410Y262400D01*
X554410Y263350D02*
X545410Y263350D01*
X545410Y264300D02*
X554410Y264300D01*
X554410Y265250D02*
X545410Y265250D01*
X545410Y266200D02*
X554410Y266200D01*
X554410Y267150D02*
X545410Y267150D01*
X545410Y268100D02*
X554410Y268100D01*
X554410Y269050D02*
X545410Y269050D01*
D13*
X522000Y264210D02*
X517020Y264210D01*
X517020Y269190D01*
X522000Y269190D01*
X522000Y264210D01*
X522000Y265179D02*
X517020Y265179D01*
X517020Y266148D02*
X522000Y266148D01*
X522000Y267117D02*
X517020Y267117D01*
X517020Y268086D02*
X522000Y268086D01*
X522000Y269055D02*
X517020Y269055D01*
X527020Y264210D02*
X532000Y264210D01*
X527020Y264210D02*
X527020Y269190D01*
X532000Y269190D01*
X532000Y264210D01*
X532000Y265179D02*
X527020Y265179D01*
X527020Y266148D02*
X532000Y266148D01*
X532000Y267117D02*
X527020Y267117D01*
X527020Y268086D02*
X532000Y268086D01*
X532000Y269055D02*
X527020Y269055D01*
X527020Y294590D02*
X532000Y294590D01*
X532000Y289610D01*
X527020Y289610D01*
X527020Y294590D01*
X527020Y290579D02*
X532000Y290579D01*
X532000Y291548D02*
X527020Y291548D01*
X527020Y292517D02*
X532000Y292517D01*
X532000Y293486D02*
X527020Y293486D01*
X527020Y294455D02*
X532000Y294455D01*
X522000Y294590D02*
X517020Y294590D01*
X522000Y294590D02*
X522000Y289610D01*
X517020Y289610D01*
X517020Y294590D01*
X517020Y290579D02*
X522000Y290579D01*
X522000Y291548D02*
X517020Y291548D01*
X517020Y292517D02*
X522000Y292517D01*
X522000Y293486D02*
X517020Y293486D01*
X517020Y294455D02*
X522000Y294455D01*
X527020Y307290D02*
X532000Y307290D01*
X532000Y302310D01*
X527020Y302310D01*
X527020Y307290D01*
X527020Y303279D02*
X532000Y303279D01*
X532000Y304248D02*
X527020Y304248D01*
X527020Y305217D02*
X532000Y305217D01*
X532000Y306186D02*
X527020Y306186D01*
X527020Y307155D02*
X532000Y307155D01*
X522000Y307290D02*
X517020Y307290D01*
X522000Y307290D02*
X522000Y302310D01*
X517020Y302310D01*
X517020Y307290D01*
X517020Y303279D02*
X522000Y303279D01*
X522000Y304248D02*
X517020Y304248D01*
X517020Y305217D02*
X522000Y305217D01*
X522000Y306186D02*
X517020Y306186D01*
X517020Y307155D02*
X522000Y307155D01*
X527020Y281890D02*
X532000Y281890D01*
X532000Y276910D01*
X527020Y276910D01*
X527020Y281890D01*
X527020Y277879D02*
X532000Y277879D01*
X532000Y278848D02*
X527020Y278848D01*
X527020Y279817D02*
X532000Y279817D01*
X532000Y280786D02*
X527020Y280786D01*
X527020Y281755D02*
X532000Y281755D01*
X522000Y281890D02*
X517020Y281890D01*
X522000Y281890D02*
X522000Y276910D01*
X517020Y276910D01*
X517020Y281890D01*
X517020Y277879D02*
X522000Y277879D01*
X522000Y278848D02*
X517020Y278848D01*
X517020Y279817D02*
X522000Y279817D01*
X522000Y280786D02*
X517020Y280786D01*
X517020Y281755D02*
X522000Y281755D01*
D19*
X635310Y248730D02*
X642310Y248730D01*
X642310Y241730D01*
X635310Y241730D01*
X635310Y248730D01*
X635310Y244580D02*
X642310Y244580D01*
X642310Y247430D02*
X635310Y247430D01*
X635310Y266270D02*
X642310Y266270D01*
X642310Y259270D01*
X635310Y259270D01*
X635310Y266270D01*
X635310Y262120D02*
X642310Y262120D01*
X642310Y264970D02*
X635310Y264970D01*
D13*
X636300Y276910D02*
X631320Y276910D01*
X631320Y281890D01*
X636300Y281890D01*
X636300Y276910D01*
X636300Y277879D02*
X631320Y277879D01*
X631320Y278848D02*
X636300Y278848D01*
X636300Y279817D02*
X631320Y279817D01*
X631320Y280786D02*
X636300Y280786D01*
X636300Y281755D02*
X631320Y281755D01*
X641320Y276910D02*
X646300Y276910D01*
X641320Y276910D02*
X641320Y281890D01*
X646300Y281890D01*
X646300Y276910D01*
X646300Y277879D02*
X641320Y277879D01*
X641320Y278848D02*
X646300Y278848D01*
X646300Y279817D02*
X641320Y279817D01*
X641320Y280786D02*
X646300Y280786D01*
X646300Y281755D02*
X641320Y281755D01*
X636300Y302310D02*
X631320Y302310D01*
X631320Y307290D01*
X636300Y307290D01*
X636300Y302310D01*
X636300Y303279D02*
X631320Y303279D01*
X631320Y304248D02*
X636300Y304248D01*
X636300Y305217D02*
X631320Y305217D01*
X631320Y306186D02*
X636300Y306186D01*
X636300Y307155D02*
X631320Y307155D01*
X641320Y302310D02*
X646300Y302310D01*
X641320Y302310D02*
X641320Y307290D01*
X646300Y307290D01*
X646300Y302310D01*
X646300Y303279D02*
X641320Y303279D01*
X641320Y304248D02*
X646300Y304248D01*
X646300Y305217D02*
X641320Y305217D01*
X641320Y306186D02*
X646300Y306186D01*
X646300Y307155D02*
X641320Y307155D01*
X636300Y289610D02*
X631320Y289610D01*
X631320Y294590D01*
X636300Y294590D01*
X636300Y289610D01*
X636300Y290579D02*
X631320Y290579D01*
X631320Y291548D02*
X636300Y291548D01*
X636300Y292517D02*
X631320Y292517D01*
X631320Y293486D02*
X636300Y293486D01*
X636300Y294455D02*
X631320Y294455D01*
X641320Y289610D02*
X646300Y289610D01*
X641320Y289610D02*
X641320Y294590D01*
X646300Y294590D01*
X646300Y289610D01*
X646300Y290579D02*
X641320Y290579D01*
X641320Y291548D02*
X646300Y291548D01*
X646300Y292517D02*
X641320Y292517D01*
X641320Y293486D02*
X646300Y293486D01*
X646300Y294455D02*
X641320Y294455D01*
D26*
X631310Y355400D03*
X636310Y355400D03*
X641310Y355400D03*
X646310Y355400D03*
X646310Y330400D03*
X641310Y330400D03*
X636310Y330400D03*
X631310Y330400D03*
D27*
X638810Y342900D03*
D13*
X636300Y365810D02*
X631320Y365810D01*
X631320Y370790D01*
X636300Y370790D01*
X636300Y365810D01*
X636300Y366779D02*
X631320Y366779D01*
X631320Y367748D02*
X636300Y367748D01*
X636300Y368717D02*
X631320Y368717D01*
X631320Y369686D02*
X636300Y369686D01*
X636300Y370655D02*
X631320Y370655D01*
X641320Y365810D02*
X646300Y365810D01*
X641320Y365810D02*
X641320Y370790D01*
X646300Y370790D01*
X646300Y365810D01*
X646300Y366779D02*
X641320Y366779D01*
X641320Y367748D02*
X646300Y367748D01*
X646300Y368717D02*
X641320Y368717D01*
X641320Y369686D02*
X646300Y369686D01*
X646300Y370655D02*
X641320Y370655D01*
D28*
X522485Y327175D02*
X522485Y319725D01*
X516035Y319725D01*
X516035Y327175D01*
X522485Y327175D01*
X522485Y320722D02*
X516035Y320722D01*
X516035Y321719D02*
X522485Y321719D01*
X522485Y322716D02*
X516035Y322716D01*
X516035Y323713D02*
X522485Y323713D01*
X522485Y324710D02*
X516035Y324710D01*
X516035Y325707D02*
X522485Y325707D01*
X522485Y326704D02*
X516035Y326704D01*
X516035Y333225D02*
X516035Y340675D01*
X522485Y340675D01*
X522485Y333225D01*
X516035Y333225D01*
X516035Y334222D02*
X522485Y334222D01*
X522485Y335219D02*
X516035Y335219D01*
X516035Y336216D02*
X522485Y336216D01*
X522485Y337213D02*
X516035Y337213D01*
X516035Y338210D02*
X522485Y338210D01*
X522485Y339207D02*
X516035Y339207D01*
X516035Y340204D02*
X522485Y340204D01*
X526535Y340675D02*
X526535Y333225D01*
X526535Y340675D02*
X532985Y340675D01*
X532985Y333225D01*
X526535Y333225D01*
X526535Y334222D02*
X532985Y334222D01*
X532985Y335219D02*
X526535Y335219D01*
X526535Y336216D02*
X532985Y336216D01*
X532985Y337213D02*
X526535Y337213D01*
X526535Y338210D02*
X532985Y338210D01*
X532985Y339207D02*
X526535Y339207D01*
X526535Y340204D02*
X532985Y340204D01*
X532985Y327175D02*
X532985Y319725D01*
X526535Y319725D01*
X526535Y327175D01*
X532985Y327175D01*
X532985Y320722D02*
X526535Y320722D01*
X526535Y321719D02*
X532985Y321719D01*
X532985Y322716D02*
X526535Y322716D01*
X526535Y323713D02*
X532985Y323713D01*
X532985Y324710D02*
X526535Y324710D01*
X526535Y325707D02*
X532985Y325707D01*
X532985Y326704D02*
X526535Y326704D01*
D13*
X618620Y378510D02*
X623600Y378510D01*
X618620Y378510D02*
X618620Y383490D01*
X623600Y383490D01*
X623600Y378510D01*
X623600Y379479D02*
X618620Y379479D01*
X618620Y380448D02*
X623600Y380448D01*
X623600Y381417D02*
X618620Y381417D01*
X618620Y382386D02*
X623600Y382386D01*
X623600Y383355D02*
X618620Y383355D01*
X628620Y378510D02*
X633600Y378510D01*
X628620Y378510D02*
X628620Y383490D01*
X633600Y383490D01*
X633600Y378510D01*
X633600Y379479D02*
X628620Y379479D01*
X628620Y380448D02*
X633600Y380448D01*
X633600Y381417D02*
X628620Y381417D01*
X628620Y382386D02*
X633600Y382386D01*
X633600Y383355D02*
X628620Y383355D01*
M02*
