G04 EAGLE Gerber RS-274X export*
G75*
%MOMM*%
%FSLAX34Y34*%
%LPD*%
%INSolderpaste Bottom*%
%IPPOS*%
%AMOC8*
5,1,8,0,0,1.08239X$1,22.5*%
G01*
%ADD10C,0.100000*%
%ADD11C,0.100800*%
%ADD12C,0.105000*%
%ADD13C,0.099000*%
%ADD14C,0.102000*%


D10*
X54900Y185900D02*
X45900Y185900D01*
X45900Y189900D01*
X54900Y189900D01*
X54900Y185900D01*
X54900Y186850D02*
X45900Y186850D01*
X45900Y187800D02*
X54900Y187800D01*
X54900Y188750D02*
X45900Y188750D01*
X45900Y189700D02*
X54900Y189700D01*
X54900Y174900D02*
X45900Y174900D01*
X45900Y178900D01*
X54900Y178900D01*
X54900Y174900D01*
X54900Y175850D02*
X45900Y175850D01*
X45900Y176800D02*
X54900Y176800D01*
X54900Y177750D02*
X45900Y177750D01*
X45900Y178700D02*
X54900Y178700D01*
X54900Y163900D02*
X45900Y163900D01*
X45900Y167900D01*
X54900Y167900D01*
X54900Y163900D01*
X54900Y164850D02*
X45900Y164850D01*
X45900Y165800D02*
X54900Y165800D01*
X54900Y166750D02*
X45900Y166750D01*
X45900Y167700D02*
X54900Y167700D01*
X54900Y152900D02*
X45900Y152900D01*
X45900Y156900D01*
X54900Y156900D01*
X54900Y152900D01*
X54900Y153850D02*
X45900Y153850D01*
X45900Y154800D02*
X54900Y154800D01*
X54900Y155750D02*
X45900Y155750D01*
X45900Y156700D02*
X54900Y156700D01*
X54900Y141900D02*
X45900Y141900D01*
X45900Y145900D01*
X54900Y145900D01*
X54900Y141900D01*
X54900Y142850D02*
X45900Y142850D01*
X45900Y143800D02*
X54900Y143800D01*
X54900Y144750D02*
X45900Y144750D01*
X45900Y145700D02*
X54900Y145700D01*
X54900Y130900D02*
X45900Y130900D01*
X45900Y134900D01*
X54900Y134900D01*
X54900Y130900D01*
X54900Y131850D02*
X45900Y131850D01*
X45900Y132800D02*
X54900Y132800D01*
X54900Y133750D02*
X45900Y133750D01*
X45900Y134700D02*
X54900Y134700D01*
X54900Y119900D02*
X45900Y119900D01*
X45900Y123900D01*
X54900Y123900D01*
X54900Y119900D01*
X54900Y120850D02*
X45900Y120850D01*
X45900Y121800D02*
X54900Y121800D01*
X54900Y122750D02*
X45900Y122750D01*
X45900Y123700D02*
X54900Y123700D01*
X54900Y108900D02*
X45900Y108900D01*
X45900Y112900D01*
X54900Y112900D01*
X54900Y108900D01*
X54900Y109850D02*
X45900Y109850D01*
X45900Y110800D02*
X54900Y110800D01*
X54900Y111750D02*
X45900Y111750D01*
X45900Y112700D02*
X54900Y112700D01*
D11*
X73804Y202804D02*
X73804Y208996D01*
X80596Y208996D01*
X80596Y202804D01*
X73804Y202804D01*
X73804Y203762D02*
X80596Y203762D01*
X80596Y204720D02*
X73804Y204720D01*
X73804Y205678D02*
X80596Y205678D01*
X80596Y206636D02*
X73804Y206636D01*
X73804Y207594D02*
X80596Y207594D01*
X80596Y208552D02*
X73804Y208552D01*
D12*
X85025Y201175D02*
X94775Y201175D01*
X85025Y201175D02*
X85025Y210625D01*
X94775Y210625D01*
X94775Y201175D01*
X94775Y202172D02*
X85025Y202172D01*
X85025Y203169D02*
X94775Y203169D01*
X94775Y204166D02*
X85025Y204166D01*
X85025Y205163D02*
X94775Y205163D01*
X94775Y206160D02*
X85025Y206160D01*
X85025Y207157D02*
X94775Y207157D01*
X94775Y208154D02*
X85025Y208154D01*
X85025Y209151D02*
X94775Y209151D01*
X94775Y210148D02*
X85025Y210148D01*
X110525Y201175D02*
X121475Y201175D01*
X110525Y201175D02*
X110525Y210625D01*
X121475Y210625D01*
X121475Y201175D01*
X121475Y202172D02*
X110525Y202172D01*
X110525Y203169D02*
X121475Y203169D01*
X121475Y204166D02*
X110525Y204166D01*
X110525Y205163D02*
X121475Y205163D01*
X121475Y206160D02*
X110525Y206160D01*
X110525Y207157D02*
X121475Y207157D01*
X121475Y208154D02*
X110525Y208154D01*
X110525Y209151D02*
X121475Y209151D01*
X121475Y210148D02*
X110525Y210148D01*
X115775Y94425D02*
X104825Y94425D01*
X104825Y103875D01*
X115775Y103875D01*
X115775Y94425D01*
X115775Y95422D02*
X104825Y95422D01*
X104825Y96419D02*
X115775Y96419D01*
X115775Y97416D02*
X104825Y97416D01*
X104825Y98413D02*
X115775Y98413D01*
X115775Y99410D02*
X104825Y99410D01*
X104825Y100407D02*
X115775Y100407D01*
X115775Y101404D02*
X104825Y101404D01*
X104825Y102401D02*
X115775Y102401D01*
X115775Y103398D02*
X104825Y103398D01*
X89875Y94425D02*
X67025Y94425D01*
X67025Y103875D01*
X89875Y103875D01*
X89875Y94425D01*
X89875Y95422D02*
X67025Y95422D01*
X67025Y96419D02*
X89875Y96419D01*
X89875Y97416D02*
X67025Y97416D01*
X67025Y98413D02*
X89875Y98413D01*
X89875Y99410D02*
X67025Y99410D01*
X67025Y100407D02*
X89875Y100407D01*
X89875Y101404D02*
X67025Y101404D01*
X67025Y102401D02*
X89875Y102401D01*
X89875Y103398D02*
X67025Y103398D01*
D13*
X125005Y116895D02*
X125005Y145005D01*
X125005Y116895D02*
X120495Y116895D01*
X120495Y145005D01*
X125005Y145005D01*
X125005Y117835D02*
X120495Y117835D01*
X120495Y118775D02*
X125005Y118775D01*
X125005Y119715D02*
X120495Y119715D01*
X120495Y120655D02*
X125005Y120655D01*
X125005Y121595D02*
X120495Y121595D01*
X120495Y122535D02*
X125005Y122535D01*
X125005Y123475D02*
X120495Y123475D01*
X120495Y124415D02*
X125005Y124415D01*
X125005Y125355D02*
X120495Y125355D01*
X120495Y126295D02*
X125005Y126295D01*
X125005Y127235D02*
X120495Y127235D01*
X120495Y128175D02*
X125005Y128175D01*
X125005Y129115D02*
X120495Y129115D01*
X120495Y130055D02*
X125005Y130055D01*
X125005Y130995D02*
X120495Y130995D01*
X120495Y131935D02*
X125005Y131935D01*
X125005Y132875D02*
X120495Y132875D01*
X120495Y133815D02*
X125005Y133815D01*
X125005Y134755D02*
X120495Y134755D01*
X120495Y135695D02*
X125005Y135695D01*
X125005Y136635D02*
X120495Y136635D01*
X120495Y137575D02*
X125005Y137575D01*
X125005Y138515D02*
X120495Y138515D01*
X120495Y139455D02*
X125005Y139455D01*
X125005Y140395D02*
X120495Y140395D01*
X120495Y141335D02*
X125005Y141335D01*
X125005Y142275D02*
X120495Y142275D01*
X120495Y143215D02*
X125005Y143215D01*
X125005Y144155D02*
X120495Y144155D01*
X125005Y158795D02*
X125005Y186905D01*
X125005Y158795D02*
X120495Y158795D01*
X120495Y186905D01*
X125005Y186905D01*
X125005Y159735D02*
X120495Y159735D01*
X120495Y160675D02*
X125005Y160675D01*
X125005Y161615D02*
X120495Y161615D01*
X120495Y162555D02*
X125005Y162555D01*
X125005Y163495D02*
X120495Y163495D01*
X120495Y164435D02*
X125005Y164435D01*
X125005Y165375D02*
X120495Y165375D01*
X120495Y166315D02*
X125005Y166315D01*
X125005Y167255D02*
X120495Y167255D01*
X120495Y168195D02*
X125005Y168195D01*
X125005Y169135D02*
X120495Y169135D01*
X120495Y170075D02*
X125005Y170075D01*
X125005Y171015D02*
X120495Y171015D01*
X120495Y171955D02*
X125005Y171955D01*
X125005Y172895D02*
X120495Y172895D01*
X120495Y173835D02*
X125005Y173835D01*
X125005Y174775D02*
X120495Y174775D01*
X120495Y175715D02*
X125005Y175715D01*
X125005Y176655D02*
X120495Y176655D01*
X120495Y177595D02*
X125005Y177595D01*
X125005Y178535D02*
X120495Y178535D01*
X120495Y179475D02*
X125005Y179475D01*
X125005Y180415D02*
X120495Y180415D01*
X120495Y181355D02*
X125005Y181355D01*
X125005Y182295D02*
X120495Y182295D01*
X120495Y183235D02*
X125005Y183235D01*
X125005Y184175D02*
X120495Y184175D01*
X120495Y185115D02*
X125005Y185115D01*
X125005Y186055D02*
X120495Y186055D01*
D14*
X93850Y319990D02*
X88870Y319990D01*
X93850Y319990D02*
X93850Y315010D01*
X88870Y315010D01*
X88870Y319990D01*
X88870Y315979D02*
X93850Y315979D01*
X93850Y316948D02*
X88870Y316948D01*
X88870Y317917D02*
X93850Y317917D01*
X93850Y318886D02*
X88870Y318886D01*
X88870Y319855D02*
X93850Y319855D01*
X83850Y319990D02*
X78870Y319990D01*
X83850Y319990D02*
X83850Y315010D01*
X78870Y315010D01*
X78870Y319990D01*
X78870Y315979D02*
X83850Y315979D01*
X83850Y316948D02*
X78870Y316948D01*
X78870Y317917D02*
X83850Y317917D01*
X83850Y318886D02*
X78870Y318886D01*
X78870Y319855D02*
X83850Y319855D01*
X88870Y307290D02*
X93850Y307290D01*
X93850Y302310D01*
X88870Y302310D01*
X88870Y307290D01*
X88870Y303279D02*
X93850Y303279D01*
X93850Y304248D02*
X88870Y304248D01*
X88870Y305217D02*
X93850Y305217D01*
X93850Y306186D02*
X88870Y306186D01*
X88870Y307155D02*
X93850Y307155D01*
X83850Y307290D02*
X78870Y307290D01*
X83850Y307290D02*
X83850Y302310D01*
X78870Y302310D01*
X78870Y307290D01*
X78870Y303279D02*
X83850Y303279D01*
X83850Y304248D02*
X78870Y304248D01*
X78870Y305217D02*
X83850Y305217D01*
X83850Y306186D02*
X78870Y306186D01*
X78870Y307155D02*
X83850Y307155D01*
X99190Y353110D02*
X104170Y353110D01*
X99190Y353110D02*
X99190Y358090D01*
X104170Y358090D01*
X104170Y353110D01*
X104170Y354079D02*
X99190Y354079D01*
X99190Y355048D02*
X104170Y355048D01*
X104170Y356017D02*
X99190Y356017D01*
X99190Y356986D02*
X104170Y356986D01*
X104170Y357955D02*
X99190Y357955D01*
X109190Y353110D02*
X114170Y353110D01*
X109190Y353110D02*
X109190Y358090D01*
X114170Y358090D01*
X114170Y353110D01*
X114170Y354079D02*
X109190Y354079D01*
X109190Y355048D02*
X114170Y355048D01*
X114170Y356017D02*
X109190Y356017D01*
X109190Y356986D02*
X114170Y356986D01*
X114170Y357955D02*
X109190Y357955D01*
X93850Y281890D02*
X88870Y281890D01*
X93850Y281890D02*
X93850Y276910D01*
X88870Y276910D01*
X88870Y281890D01*
X88870Y277879D02*
X93850Y277879D01*
X93850Y278848D02*
X88870Y278848D01*
X88870Y279817D02*
X93850Y279817D01*
X93850Y280786D02*
X88870Y280786D01*
X88870Y281755D02*
X93850Y281755D01*
X83850Y281890D02*
X78870Y281890D01*
X83850Y281890D02*
X83850Y276910D01*
X78870Y276910D01*
X78870Y281890D01*
X78870Y277879D02*
X83850Y277879D01*
X83850Y278848D02*
X78870Y278848D01*
X78870Y279817D02*
X83850Y279817D01*
X83850Y280786D02*
X78870Y280786D01*
X78870Y281755D02*
X83850Y281755D01*
X88870Y294590D02*
X93850Y294590D01*
X93850Y289610D01*
X88870Y289610D01*
X88870Y294590D01*
X88870Y290579D02*
X93850Y290579D01*
X93850Y291548D02*
X88870Y291548D01*
X88870Y292517D02*
X93850Y292517D01*
X93850Y293486D02*
X88870Y293486D01*
X88870Y294455D02*
X93850Y294455D01*
X83850Y294590D02*
X78870Y294590D01*
X83850Y294590D02*
X83850Y289610D01*
X78870Y289610D01*
X78870Y294590D01*
X78870Y290579D02*
X83850Y290579D01*
X83850Y291548D02*
X78870Y291548D01*
X78870Y292517D02*
X83850Y292517D01*
X83850Y293486D02*
X78870Y293486D01*
X78870Y294455D02*
X83850Y294455D01*
X88870Y332690D02*
X93850Y332690D01*
X93850Y327710D01*
X88870Y327710D01*
X88870Y332690D01*
X88870Y328679D02*
X93850Y328679D01*
X93850Y329648D02*
X88870Y329648D01*
X88870Y330617D02*
X93850Y330617D01*
X93850Y331586D02*
X88870Y331586D01*
X88870Y332555D02*
X93850Y332555D01*
X83850Y332690D02*
X78870Y332690D01*
X83850Y332690D02*
X83850Y327710D01*
X78870Y327710D01*
X78870Y332690D01*
X78870Y328679D02*
X83850Y328679D01*
X83850Y329648D02*
X78870Y329648D01*
X78870Y330617D02*
X83850Y330617D01*
X83850Y331586D02*
X78870Y331586D01*
X78870Y332555D02*
X83850Y332555D01*
X106810Y327710D02*
X111790Y327710D01*
X106810Y327710D02*
X106810Y332690D01*
X111790Y332690D01*
X111790Y327710D01*
X111790Y328679D02*
X106810Y328679D01*
X106810Y329648D02*
X111790Y329648D01*
X111790Y330617D02*
X106810Y330617D01*
X106810Y331586D02*
X111790Y331586D01*
X111790Y332555D02*
X106810Y332555D01*
X116810Y327710D02*
X121790Y327710D01*
X116810Y327710D02*
X116810Y332690D01*
X121790Y332690D01*
X121790Y327710D01*
X121790Y328679D02*
X116810Y328679D01*
X116810Y329648D02*
X121790Y329648D01*
X121790Y330617D02*
X116810Y330617D01*
X116810Y331586D02*
X121790Y331586D01*
X121790Y332555D02*
X116810Y332555D01*
X93850Y358090D02*
X88870Y358090D01*
X93850Y358090D02*
X93850Y353110D01*
X88870Y353110D01*
X88870Y358090D01*
X88870Y354079D02*
X93850Y354079D01*
X93850Y355048D02*
X88870Y355048D01*
X88870Y356017D02*
X93850Y356017D01*
X93850Y356986D02*
X88870Y356986D01*
X88870Y357955D02*
X93850Y357955D01*
X83850Y358090D02*
X78870Y358090D01*
X83850Y358090D02*
X83850Y353110D01*
X78870Y353110D01*
X78870Y358090D01*
X78870Y354079D02*
X83850Y354079D01*
X83850Y355048D02*
X78870Y355048D01*
X78870Y356017D02*
X83850Y356017D01*
X83850Y356986D02*
X78870Y356986D01*
X78870Y357955D02*
X83850Y357955D01*
X88870Y345390D02*
X93850Y345390D01*
X93850Y340410D01*
X88870Y340410D01*
X88870Y345390D01*
X88870Y341379D02*
X93850Y341379D01*
X93850Y342348D02*
X88870Y342348D01*
X88870Y343317D02*
X93850Y343317D01*
X93850Y344286D02*
X88870Y344286D01*
X88870Y345255D02*
X93850Y345255D01*
X83850Y345390D02*
X78870Y345390D01*
X83850Y345390D02*
X83850Y340410D01*
X78870Y340410D01*
X78870Y345390D01*
X78870Y341379D02*
X83850Y341379D01*
X83850Y342348D02*
X78870Y342348D01*
X78870Y343317D02*
X83850Y343317D01*
X83850Y344286D02*
X78870Y344286D01*
X78870Y345255D02*
X83850Y345255D01*
D10*
X164250Y379500D02*
X167250Y379500D01*
X164250Y379500D02*
X164250Y382500D01*
X167250Y382500D01*
X167250Y379500D01*
X167250Y380450D02*
X164250Y380450D01*
X164250Y381400D02*
X167250Y381400D01*
X167250Y382350D02*
X164250Y382350D01*
X153250Y379500D02*
X150250Y379500D01*
X150250Y382500D01*
X153250Y382500D01*
X153250Y379500D01*
X153250Y380450D02*
X150250Y380450D01*
X150250Y381400D02*
X153250Y381400D01*
X153250Y382350D02*
X150250Y382350D01*
X279580Y185900D02*
X288580Y185900D01*
X279580Y185900D02*
X279580Y189900D01*
X288580Y189900D01*
X288580Y185900D01*
X288580Y186850D02*
X279580Y186850D01*
X279580Y187800D02*
X288580Y187800D01*
X288580Y188750D02*
X279580Y188750D01*
X279580Y189700D02*
X288580Y189700D01*
X288580Y174900D02*
X279580Y174900D01*
X279580Y178900D01*
X288580Y178900D01*
X288580Y174900D01*
X288580Y175850D02*
X279580Y175850D01*
X279580Y176800D02*
X288580Y176800D01*
X288580Y177750D02*
X279580Y177750D01*
X279580Y178700D02*
X288580Y178700D01*
X288580Y163900D02*
X279580Y163900D01*
X279580Y167900D01*
X288580Y167900D01*
X288580Y163900D01*
X288580Y164850D02*
X279580Y164850D01*
X279580Y165800D02*
X288580Y165800D01*
X288580Y166750D02*
X279580Y166750D01*
X279580Y167700D02*
X288580Y167700D01*
X288580Y152900D02*
X279580Y152900D01*
X279580Y156900D01*
X288580Y156900D01*
X288580Y152900D01*
X288580Y153850D02*
X279580Y153850D01*
X279580Y154800D02*
X288580Y154800D01*
X288580Y155750D02*
X279580Y155750D01*
X279580Y156700D02*
X288580Y156700D01*
X288580Y141900D02*
X279580Y141900D01*
X279580Y145900D01*
X288580Y145900D01*
X288580Y141900D01*
X288580Y142850D02*
X279580Y142850D01*
X279580Y143800D02*
X288580Y143800D01*
X288580Y144750D02*
X279580Y144750D01*
X279580Y145700D02*
X288580Y145700D01*
X288580Y130900D02*
X279580Y130900D01*
X279580Y134900D01*
X288580Y134900D01*
X288580Y130900D01*
X288580Y131850D02*
X279580Y131850D01*
X279580Y132800D02*
X288580Y132800D01*
X288580Y133750D02*
X279580Y133750D01*
X279580Y134700D02*
X288580Y134700D01*
X288580Y119900D02*
X279580Y119900D01*
X279580Y123900D01*
X288580Y123900D01*
X288580Y119900D01*
X288580Y120850D02*
X279580Y120850D01*
X279580Y121800D02*
X288580Y121800D01*
X288580Y122750D02*
X279580Y122750D01*
X279580Y123700D02*
X288580Y123700D01*
X288580Y108900D02*
X279580Y108900D01*
X279580Y112900D01*
X288580Y112900D01*
X288580Y108900D01*
X288580Y109850D02*
X279580Y109850D01*
X279580Y110800D02*
X288580Y110800D01*
X288580Y111750D02*
X279580Y111750D01*
X279580Y112700D02*
X288580Y112700D01*
D11*
X307484Y202804D02*
X307484Y208996D01*
X314276Y208996D01*
X314276Y202804D01*
X307484Y202804D01*
X307484Y203762D02*
X314276Y203762D01*
X314276Y204720D02*
X307484Y204720D01*
X307484Y205678D02*
X314276Y205678D01*
X314276Y206636D02*
X307484Y206636D01*
X307484Y207594D02*
X314276Y207594D01*
X314276Y208552D02*
X307484Y208552D01*
D12*
X318705Y201175D02*
X328455Y201175D01*
X318705Y201175D02*
X318705Y210625D01*
X328455Y210625D01*
X328455Y201175D01*
X328455Y202172D02*
X318705Y202172D01*
X318705Y203169D02*
X328455Y203169D01*
X328455Y204166D02*
X318705Y204166D01*
X318705Y205163D02*
X328455Y205163D01*
X328455Y206160D02*
X318705Y206160D01*
X318705Y207157D02*
X328455Y207157D01*
X328455Y208154D02*
X318705Y208154D01*
X318705Y209151D02*
X328455Y209151D01*
X328455Y210148D02*
X318705Y210148D01*
X344205Y201175D02*
X355155Y201175D01*
X344205Y201175D02*
X344205Y210625D01*
X355155Y210625D01*
X355155Y201175D01*
X355155Y202172D02*
X344205Y202172D01*
X344205Y203169D02*
X355155Y203169D01*
X355155Y204166D02*
X344205Y204166D01*
X344205Y205163D02*
X355155Y205163D01*
X355155Y206160D02*
X344205Y206160D01*
X344205Y207157D02*
X355155Y207157D01*
X355155Y208154D02*
X344205Y208154D01*
X344205Y209151D02*
X355155Y209151D01*
X355155Y210148D02*
X344205Y210148D01*
X349455Y94425D02*
X338505Y94425D01*
X338505Y103875D01*
X349455Y103875D01*
X349455Y94425D01*
X349455Y95422D02*
X338505Y95422D01*
X338505Y96419D02*
X349455Y96419D01*
X349455Y97416D02*
X338505Y97416D01*
X338505Y98413D02*
X349455Y98413D01*
X349455Y99410D02*
X338505Y99410D01*
X338505Y100407D02*
X349455Y100407D01*
X349455Y101404D02*
X338505Y101404D01*
X338505Y102401D02*
X349455Y102401D01*
X349455Y103398D02*
X338505Y103398D01*
X323555Y94425D02*
X300705Y94425D01*
X300705Y103875D01*
X323555Y103875D01*
X323555Y94425D01*
X323555Y95422D02*
X300705Y95422D01*
X300705Y96419D02*
X323555Y96419D01*
X323555Y97416D02*
X300705Y97416D01*
X300705Y98413D02*
X323555Y98413D01*
X323555Y99410D02*
X300705Y99410D01*
X300705Y100407D02*
X323555Y100407D01*
X323555Y101404D02*
X300705Y101404D01*
X300705Y102401D02*
X323555Y102401D01*
X323555Y103398D02*
X300705Y103398D01*
D13*
X358685Y116895D02*
X358685Y145005D01*
X358685Y116895D02*
X354175Y116895D01*
X354175Y145005D01*
X358685Y145005D01*
X358685Y117835D02*
X354175Y117835D01*
X354175Y118775D02*
X358685Y118775D01*
X358685Y119715D02*
X354175Y119715D01*
X354175Y120655D02*
X358685Y120655D01*
X358685Y121595D02*
X354175Y121595D01*
X354175Y122535D02*
X358685Y122535D01*
X358685Y123475D02*
X354175Y123475D01*
X354175Y124415D02*
X358685Y124415D01*
X358685Y125355D02*
X354175Y125355D01*
X354175Y126295D02*
X358685Y126295D01*
X358685Y127235D02*
X354175Y127235D01*
X354175Y128175D02*
X358685Y128175D01*
X358685Y129115D02*
X354175Y129115D01*
X354175Y130055D02*
X358685Y130055D01*
X358685Y130995D02*
X354175Y130995D01*
X354175Y131935D02*
X358685Y131935D01*
X358685Y132875D02*
X354175Y132875D01*
X354175Y133815D02*
X358685Y133815D01*
X358685Y134755D02*
X354175Y134755D01*
X354175Y135695D02*
X358685Y135695D01*
X358685Y136635D02*
X354175Y136635D01*
X354175Y137575D02*
X358685Y137575D01*
X358685Y138515D02*
X354175Y138515D01*
X354175Y139455D02*
X358685Y139455D01*
X358685Y140395D02*
X354175Y140395D01*
X354175Y141335D02*
X358685Y141335D01*
X358685Y142275D02*
X354175Y142275D01*
X354175Y143215D02*
X358685Y143215D01*
X358685Y144155D02*
X354175Y144155D01*
X358685Y158795D02*
X358685Y186905D01*
X358685Y158795D02*
X354175Y158795D01*
X354175Y186905D01*
X358685Y186905D01*
X358685Y159735D02*
X354175Y159735D01*
X354175Y160675D02*
X358685Y160675D01*
X358685Y161615D02*
X354175Y161615D01*
X354175Y162555D02*
X358685Y162555D01*
X358685Y163495D02*
X354175Y163495D01*
X354175Y164435D02*
X358685Y164435D01*
X358685Y165375D02*
X354175Y165375D01*
X354175Y166315D02*
X358685Y166315D01*
X358685Y167255D02*
X354175Y167255D01*
X354175Y168195D02*
X358685Y168195D01*
X358685Y169135D02*
X354175Y169135D01*
X354175Y170075D02*
X358685Y170075D01*
X358685Y171015D02*
X354175Y171015D01*
X354175Y171955D02*
X358685Y171955D01*
X358685Y172895D02*
X354175Y172895D01*
X354175Y173835D02*
X358685Y173835D01*
X358685Y174775D02*
X354175Y174775D01*
X354175Y175715D02*
X358685Y175715D01*
X358685Y176655D02*
X354175Y176655D01*
X354175Y177595D02*
X358685Y177595D01*
X358685Y178535D02*
X354175Y178535D01*
X354175Y179475D02*
X358685Y179475D01*
X358685Y180415D02*
X354175Y180415D01*
X354175Y181355D02*
X358685Y181355D01*
X358685Y182295D02*
X354175Y182295D01*
X354175Y183235D02*
X358685Y183235D01*
X358685Y184175D02*
X354175Y184175D01*
X354175Y185115D02*
X358685Y185115D01*
X358685Y186055D02*
X354175Y186055D01*
D14*
X327530Y319990D02*
X322550Y319990D01*
X327530Y319990D02*
X327530Y315010D01*
X322550Y315010D01*
X322550Y319990D01*
X322550Y315979D02*
X327530Y315979D01*
X327530Y316948D02*
X322550Y316948D01*
X322550Y317917D02*
X327530Y317917D01*
X327530Y318886D02*
X322550Y318886D01*
X322550Y319855D02*
X327530Y319855D01*
X317530Y319990D02*
X312550Y319990D01*
X317530Y319990D02*
X317530Y315010D01*
X312550Y315010D01*
X312550Y319990D01*
X312550Y315979D02*
X317530Y315979D01*
X317530Y316948D02*
X312550Y316948D01*
X312550Y317917D02*
X317530Y317917D01*
X317530Y318886D02*
X312550Y318886D01*
X312550Y319855D02*
X317530Y319855D01*
X322550Y307290D02*
X327530Y307290D01*
X327530Y302310D01*
X322550Y302310D01*
X322550Y307290D01*
X322550Y303279D02*
X327530Y303279D01*
X327530Y304248D02*
X322550Y304248D01*
X322550Y305217D02*
X327530Y305217D01*
X327530Y306186D02*
X322550Y306186D01*
X322550Y307155D02*
X327530Y307155D01*
X317530Y307290D02*
X312550Y307290D01*
X317530Y307290D02*
X317530Y302310D01*
X312550Y302310D01*
X312550Y307290D01*
X312550Y303279D02*
X317530Y303279D01*
X317530Y304248D02*
X312550Y304248D01*
X312550Y305217D02*
X317530Y305217D01*
X317530Y306186D02*
X312550Y306186D01*
X312550Y307155D02*
X317530Y307155D01*
X332870Y353110D02*
X337850Y353110D01*
X332870Y353110D02*
X332870Y358090D01*
X337850Y358090D01*
X337850Y353110D01*
X337850Y354079D02*
X332870Y354079D01*
X332870Y355048D02*
X337850Y355048D01*
X337850Y356017D02*
X332870Y356017D01*
X332870Y356986D02*
X337850Y356986D01*
X337850Y357955D02*
X332870Y357955D01*
X342870Y353110D02*
X347850Y353110D01*
X342870Y353110D02*
X342870Y358090D01*
X347850Y358090D01*
X347850Y353110D01*
X347850Y354079D02*
X342870Y354079D01*
X342870Y355048D02*
X347850Y355048D01*
X347850Y356017D02*
X342870Y356017D01*
X342870Y356986D02*
X347850Y356986D01*
X347850Y357955D02*
X342870Y357955D01*
X327530Y281890D02*
X322550Y281890D01*
X327530Y281890D02*
X327530Y276910D01*
X322550Y276910D01*
X322550Y281890D01*
X322550Y277879D02*
X327530Y277879D01*
X327530Y278848D02*
X322550Y278848D01*
X322550Y279817D02*
X327530Y279817D01*
X327530Y280786D02*
X322550Y280786D01*
X322550Y281755D02*
X327530Y281755D01*
X317530Y281890D02*
X312550Y281890D01*
X317530Y281890D02*
X317530Y276910D01*
X312550Y276910D01*
X312550Y281890D01*
X312550Y277879D02*
X317530Y277879D01*
X317530Y278848D02*
X312550Y278848D01*
X312550Y279817D02*
X317530Y279817D01*
X317530Y280786D02*
X312550Y280786D01*
X312550Y281755D02*
X317530Y281755D01*
X322550Y294590D02*
X327530Y294590D01*
X327530Y289610D01*
X322550Y289610D01*
X322550Y294590D01*
X322550Y290579D02*
X327530Y290579D01*
X327530Y291548D02*
X322550Y291548D01*
X322550Y292517D02*
X327530Y292517D01*
X327530Y293486D02*
X322550Y293486D01*
X322550Y294455D02*
X327530Y294455D01*
X317530Y294590D02*
X312550Y294590D01*
X317530Y294590D02*
X317530Y289610D01*
X312550Y289610D01*
X312550Y294590D01*
X312550Y290579D02*
X317530Y290579D01*
X317530Y291548D02*
X312550Y291548D01*
X312550Y292517D02*
X317530Y292517D01*
X317530Y293486D02*
X312550Y293486D01*
X312550Y294455D02*
X317530Y294455D01*
X322550Y332690D02*
X327530Y332690D01*
X327530Y327710D01*
X322550Y327710D01*
X322550Y332690D01*
X322550Y328679D02*
X327530Y328679D01*
X327530Y329648D02*
X322550Y329648D01*
X322550Y330617D02*
X327530Y330617D01*
X327530Y331586D02*
X322550Y331586D01*
X322550Y332555D02*
X327530Y332555D01*
X317530Y332690D02*
X312550Y332690D01*
X317530Y332690D02*
X317530Y327710D01*
X312550Y327710D01*
X312550Y332690D01*
X312550Y328679D02*
X317530Y328679D01*
X317530Y329648D02*
X312550Y329648D01*
X312550Y330617D02*
X317530Y330617D01*
X317530Y331586D02*
X312550Y331586D01*
X312550Y332555D02*
X317530Y332555D01*
X340490Y327710D02*
X345470Y327710D01*
X340490Y327710D02*
X340490Y332690D01*
X345470Y332690D01*
X345470Y327710D01*
X345470Y328679D02*
X340490Y328679D01*
X340490Y329648D02*
X345470Y329648D01*
X345470Y330617D02*
X340490Y330617D01*
X340490Y331586D02*
X345470Y331586D01*
X345470Y332555D02*
X340490Y332555D01*
X350490Y327710D02*
X355470Y327710D01*
X350490Y327710D02*
X350490Y332690D01*
X355470Y332690D01*
X355470Y327710D01*
X355470Y328679D02*
X350490Y328679D01*
X350490Y329648D02*
X355470Y329648D01*
X355470Y330617D02*
X350490Y330617D01*
X350490Y331586D02*
X355470Y331586D01*
X355470Y332555D02*
X350490Y332555D01*
X327530Y358090D02*
X322550Y358090D01*
X327530Y358090D02*
X327530Y353110D01*
X322550Y353110D01*
X322550Y358090D01*
X322550Y354079D02*
X327530Y354079D01*
X327530Y355048D02*
X322550Y355048D01*
X322550Y356017D02*
X327530Y356017D01*
X327530Y356986D02*
X322550Y356986D01*
X322550Y357955D02*
X327530Y357955D01*
X317530Y358090D02*
X312550Y358090D01*
X317530Y358090D02*
X317530Y353110D01*
X312550Y353110D01*
X312550Y358090D01*
X312550Y354079D02*
X317530Y354079D01*
X317530Y355048D02*
X312550Y355048D01*
X312550Y356017D02*
X317530Y356017D01*
X317530Y356986D02*
X312550Y356986D01*
X312550Y357955D02*
X317530Y357955D01*
X322550Y345390D02*
X327530Y345390D01*
X327530Y340410D01*
X322550Y340410D01*
X322550Y345390D01*
X322550Y341379D02*
X327530Y341379D01*
X327530Y342348D02*
X322550Y342348D01*
X322550Y343317D02*
X327530Y343317D01*
X327530Y344286D02*
X322550Y344286D01*
X322550Y345255D02*
X327530Y345255D01*
X317530Y345390D02*
X312550Y345390D01*
X317530Y345390D02*
X317530Y340410D01*
X312550Y340410D01*
X312550Y345390D01*
X312550Y341379D02*
X317530Y341379D01*
X317530Y342348D02*
X312550Y342348D01*
X312550Y343317D02*
X317530Y343317D01*
X317530Y344286D02*
X312550Y344286D01*
X312550Y345255D02*
X317530Y345255D01*
D10*
X397930Y379500D02*
X400930Y379500D01*
X397930Y379500D02*
X397930Y382500D01*
X400930Y382500D01*
X400930Y379500D01*
X400930Y380450D02*
X397930Y380450D01*
X397930Y381400D02*
X400930Y381400D01*
X400930Y382350D02*
X397930Y382350D01*
X386930Y379500D02*
X383930Y379500D01*
X383930Y382500D01*
X386930Y382500D01*
X386930Y379500D01*
X386930Y380450D02*
X383930Y380450D01*
X383930Y381400D02*
X386930Y381400D01*
X386930Y382350D02*
X383930Y382350D01*
X513260Y185900D02*
X522260Y185900D01*
X513260Y185900D02*
X513260Y189900D01*
X522260Y189900D01*
X522260Y185900D01*
X522260Y186850D02*
X513260Y186850D01*
X513260Y187800D02*
X522260Y187800D01*
X522260Y188750D02*
X513260Y188750D01*
X513260Y189700D02*
X522260Y189700D01*
X522260Y174900D02*
X513260Y174900D01*
X513260Y178900D01*
X522260Y178900D01*
X522260Y174900D01*
X522260Y175850D02*
X513260Y175850D01*
X513260Y176800D02*
X522260Y176800D01*
X522260Y177750D02*
X513260Y177750D01*
X513260Y178700D02*
X522260Y178700D01*
X522260Y163900D02*
X513260Y163900D01*
X513260Y167900D01*
X522260Y167900D01*
X522260Y163900D01*
X522260Y164850D02*
X513260Y164850D01*
X513260Y165800D02*
X522260Y165800D01*
X522260Y166750D02*
X513260Y166750D01*
X513260Y167700D02*
X522260Y167700D01*
X522260Y152900D02*
X513260Y152900D01*
X513260Y156900D01*
X522260Y156900D01*
X522260Y152900D01*
X522260Y153850D02*
X513260Y153850D01*
X513260Y154800D02*
X522260Y154800D01*
X522260Y155750D02*
X513260Y155750D01*
X513260Y156700D02*
X522260Y156700D01*
X522260Y141900D02*
X513260Y141900D01*
X513260Y145900D01*
X522260Y145900D01*
X522260Y141900D01*
X522260Y142850D02*
X513260Y142850D01*
X513260Y143800D02*
X522260Y143800D01*
X522260Y144750D02*
X513260Y144750D01*
X513260Y145700D02*
X522260Y145700D01*
X522260Y130900D02*
X513260Y130900D01*
X513260Y134900D01*
X522260Y134900D01*
X522260Y130900D01*
X522260Y131850D02*
X513260Y131850D01*
X513260Y132800D02*
X522260Y132800D01*
X522260Y133750D02*
X513260Y133750D01*
X513260Y134700D02*
X522260Y134700D01*
X522260Y119900D02*
X513260Y119900D01*
X513260Y123900D01*
X522260Y123900D01*
X522260Y119900D01*
X522260Y120850D02*
X513260Y120850D01*
X513260Y121800D02*
X522260Y121800D01*
X522260Y122750D02*
X513260Y122750D01*
X513260Y123700D02*
X522260Y123700D01*
X522260Y108900D02*
X513260Y108900D01*
X513260Y112900D01*
X522260Y112900D01*
X522260Y108900D01*
X522260Y109850D02*
X513260Y109850D01*
X513260Y110800D02*
X522260Y110800D01*
X522260Y111750D02*
X513260Y111750D01*
X513260Y112700D02*
X522260Y112700D01*
D11*
X541164Y202804D02*
X541164Y208996D01*
X547956Y208996D01*
X547956Y202804D01*
X541164Y202804D01*
X541164Y203762D02*
X547956Y203762D01*
X547956Y204720D02*
X541164Y204720D01*
X541164Y205678D02*
X547956Y205678D01*
X547956Y206636D02*
X541164Y206636D01*
X541164Y207594D02*
X547956Y207594D01*
X547956Y208552D02*
X541164Y208552D01*
D12*
X552385Y201175D02*
X562135Y201175D01*
X552385Y201175D02*
X552385Y210625D01*
X562135Y210625D01*
X562135Y201175D01*
X562135Y202172D02*
X552385Y202172D01*
X552385Y203169D02*
X562135Y203169D01*
X562135Y204166D02*
X552385Y204166D01*
X552385Y205163D02*
X562135Y205163D01*
X562135Y206160D02*
X552385Y206160D01*
X552385Y207157D02*
X562135Y207157D01*
X562135Y208154D02*
X552385Y208154D01*
X552385Y209151D02*
X562135Y209151D01*
X562135Y210148D02*
X552385Y210148D01*
X577885Y201175D02*
X588835Y201175D01*
X577885Y201175D02*
X577885Y210625D01*
X588835Y210625D01*
X588835Y201175D01*
X588835Y202172D02*
X577885Y202172D01*
X577885Y203169D02*
X588835Y203169D01*
X588835Y204166D02*
X577885Y204166D01*
X577885Y205163D02*
X588835Y205163D01*
X588835Y206160D02*
X577885Y206160D01*
X577885Y207157D02*
X588835Y207157D01*
X588835Y208154D02*
X577885Y208154D01*
X577885Y209151D02*
X588835Y209151D01*
X588835Y210148D02*
X577885Y210148D01*
X583135Y94425D02*
X572185Y94425D01*
X572185Y103875D01*
X583135Y103875D01*
X583135Y94425D01*
X583135Y95422D02*
X572185Y95422D01*
X572185Y96419D02*
X583135Y96419D01*
X583135Y97416D02*
X572185Y97416D01*
X572185Y98413D02*
X583135Y98413D01*
X583135Y99410D02*
X572185Y99410D01*
X572185Y100407D02*
X583135Y100407D01*
X583135Y101404D02*
X572185Y101404D01*
X572185Y102401D02*
X583135Y102401D01*
X583135Y103398D02*
X572185Y103398D01*
X557235Y94425D02*
X534385Y94425D01*
X534385Y103875D01*
X557235Y103875D01*
X557235Y94425D01*
X557235Y95422D02*
X534385Y95422D01*
X534385Y96419D02*
X557235Y96419D01*
X557235Y97416D02*
X534385Y97416D01*
X534385Y98413D02*
X557235Y98413D01*
X557235Y99410D02*
X534385Y99410D01*
X534385Y100407D02*
X557235Y100407D01*
X557235Y101404D02*
X534385Y101404D01*
X534385Y102401D02*
X557235Y102401D01*
X557235Y103398D02*
X534385Y103398D01*
D13*
X592365Y116895D02*
X592365Y145005D01*
X592365Y116895D02*
X587855Y116895D01*
X587855Y145005D01*
X592365Y145005D01*
X592365Y117835D02*
X587855Y117835D01*
X587855Y118775D02*
X592365Y118775D01*
X592365Y119715D02*
X587855Y119715D01*
X587855Y120655D02*
X592365Y120655D01*
X592365Y121595D02*
X587855Y121595D01*
X587855Y122535D02*
X592365Y122535D01*
X592365Y123475D02*
X587855Y123475D01*
X587855Y124415D02*
X592365Y124415D01*
X592365Y125355D02*
X587855Y125355D01*
X587855Y126295D02*
X592365Y126295D01*
X592365Y127235D02*
X587855Y127235D01*
X587855Y128175D02*
X592365Y128175D01*
X592365Y129115D02*
X587855Y129115D01*
X587855Y130055D02*
X592365Y130055D01*
X592365Y130995D02*
X587855Y130995D01*
X587855Y131935D02*
X592365Y131935D01*
X592365Y132875D02*
X587855Y132875D01*
X587855Y133815D02*
X592365Y133815D01*
X592365Y134755D02*
X587855Y134755D01*
X587855Y135695D02*
X592365Y135695D01*
X592365Y136635D02*
X587855Y136635D01*
X587855Y137575D02*
X592365Y137575D01*
X592365Y138515D02*
X587855Y138515D01*
X587855Y139455D02*
X592365Y139455D01*
X592365Y140395D02*
X587855Y140395D01*
X587855Y141335D02*
X592365Y141335D01*
X592365Y142275D02*
X587855Y142275D01*
X587855Y143215D02*
X592365Y143215D01*
X592365Y144155D02*
X587855Y144155D01*
X592365Y158795D02*
X592365Y186905D01*
X592365Y158795D02*
X587855Y158795D01*
X587855Y186905D01*
X592365Y186905D01*
X592365Y159735D02*
X587855Y159735D01*
X587855Y160675D02*
X592365Y160675D01*
X592365Y161615D02*
X587855Y161615D01*
X587855Y162555D02*
X592365Y162555D01*
X592365Y163495D02*
X587855Y163495D01*
X587855Y164435D02*
X592365Y164435D01*
X592365Y165375D02*
X587855Y165375D01*
X587855Y166315D02*
X592365Y166315D01*
X592365Y167255D02*
X587855Y167255D01*
X587855Y168195D02*
X592365Y168195D01*
X592365Y169135D02*
X587855Y169135D01*
X587855Y170075D02*
X592365Y170075D01*
X592365Y171015D02*
X587855Y171015D01*
X587855Y171955D02*
X592365Y171955D01*
X592365Y172895D02*
X587855Y172895D01*
X587855Y173835D02*
X592365Y173835D01*
X592365Y174775D02*
X587855Y174775D01*
X587855Y175715D02*
X592365Y175715D01*
X592365Y176655D02*
X587855Y176655D01*
X587855Y177595D02*
X592365Y177595D01*
X592365Y178535D02*
X587855Y178535D01*
X587855Y179475D02*
X592365Y179475D01*
X592365Y180415D02*
X587855Y180415D01*
X587855Y181355D02*
X592365Y181355D01*
X592365Y182295D02*
X587855Y182295D01*
X587855Y183235D02*
X592365Y183235D01*
X592365Y184175D02*
X587855Y184175D01*
X587855Y185115D02*
X592365Y185115D01*
X592365Y186055D02*
X587855Y186055D01*
D14*
X561210Y319990D02*
X556230Y319990D01*
X561210Y319990D02*
X561210Y315010D01*
X556230Y315010D01*
X556230Y319990D01*
X556230Y315979D02*
X561210Y315979D01*
X561210Y316948D02*
X556230Y316948D01*
X556230Y317917D02*
X561210Y317917D01*
X561210Y318886D02*
X556230Y318886D01*
X556230Y319855D02*
X561210Y319855D01*
X551210Y319990D02*
X546230Y319990D01*
X551210Y319990D02*
X551210Y315010D01*
X546230Y315010D01*
X546230Y319990D01*
X546230Y315979D02*
X551210Y315979D01*
X551210Y316948D02*
X546230Y316948D01*
X546230Y317917D02*
X551210Y317917D01*
X551210Y318886D02*
X546230Y318886D01*
X546230Y319855D02*
X551210Y319855D01*
X556230Y307290D02*
X561210Y307290D01*
X561210Y302310D01*
X556230Y302310D01*
X556230Y307290D01*
X556230Y303279D02*
X561210Y303279D01*
X561210Y304248D02*
X556230Y304248D01*
X556230Y305217D02*
X561210Y305217D01*
X561210Y306186D02*
X556230Y306186D01*
X556230Y307155D02*
X561210Y307155D01*
X551210Y307290D02*
X546230Y307290D01*
X551210Y307290D02*
X551210Y302310D01*
X546230Y302310D01*
X546230Y307290D01*
X546230Y303279D02*
X551210Y303279D01*
X551210Y304248D02*
X546230Y304248D01*
X546230Y305217D02*
X551210Y305217D01*
X551210Y306186D02*
X546230Y306186D01*
X546230Y307155D02*
X551210Y307155D01*
X566550Y353110D02*
X571530Y353110D01*
X566550Y353110D02*
X566550Y358090D01*
X571530Y358090D01*
X571530Y353110D01*
X571530Y354079D02*
X566550Y354079D01*
X566550Y355048D02*
X571530Y355048D01*
X571530Y356017D02*
X566550Y356017D01*
X566550Y356986D02*
X571530Y356986D01*
X571530Y357955D02*
X566550Y357955D01*
X576550Y353110D02*
X581530Y353110D01*
X576550Y353110D02*
X576550Y358090D01*
X581530Y358090D01*
X581530Y353110D01*
X581530Y354079D02*
X576550Y354079D01*
X576550Y355048D02*
X581530Y355048D01*
X581530Y356017D02*
X576550Y356017D01*
X576550Y356986D02*
X581530Y356986D01*
X581530Y357955D02*
X576550Y357955D01*
X561210Y281890D02*
X556230Y281890D01*
X561210Y281890D02*
X561210Y276910D01*
X556230Y276910D01*
X556230Y281890D01*
X556230Y277879D02*
X561210Y277879D01*
X561210Y278848D02*
X556230Y278848D01*
X556230Y279817D02*
X561210Y279817D01*
X561210Y280786D02*
X556230Y280786D01*
X556230Y281755D02*
X561210Y281755D01*
X551210Y281890D02*
X546230Y281890D01*
X551210Y281890D02*
X551210Y276910D01*
X546230Y276910D01*
X546230Y281890D01*
X546230Y277879D02*
X551210Y277879D01*
X551210Y278848D02*
X546230Y278848D01*
X546230Y279817D02*
X551210Y279817D01*
X551210Y280786D02*
X546230Y280786D01*
X546230Y281755D02*
X551210Y281755D01*
X556230Y294590D02*
X561210Y294590D01*
X561210Y289610D01*
X556230Y289610D01*
X556230Y294590D01*
X556230Y290579D02*
X561210Y290579D01*
X561210Y291548D02*
X556230Y291548D01*
X556230Y292517D02*
X561210Y292517D01*
X561210Y293486D02*
X556230Y293486D01*
X556230Y294455D02*
X561210Y294455D01*
X551210Y294590D02*
X546230Y294590D01*
X551210Y294590D02*
X551210Y289610D01*
X546230Y289610D01*
X546230Y294590D01*
X546230Y290579D02*
X551210Y290579D01*
X551210Y291548D02*
X546230Y291548D01*
X546230Y292517D02*
X551210Y292517D01*
X551210Y293486D02*
X546230Y293486D01*
X546230Y294455D02*
X551210Y294455D01*
X556230Y332690D02*
X561210Y332690D01*
X561210Y327710D01*
X556230Y327710D01*
X556230Y332690D01*
X556230Y328679D02*
X561210Y328679D01*
X561210Y329648D02*
X556230Y329648D01*
X556230Y330617D02*
X561210Y330617D01*
X561210Y331586D02*
X556230Y331586D01*
X556230Y332555D02*
X561210Y332555D01*
X551210Y332690D02*
X546230Y332690D01*
X551210Y332690D02*
X551210Y327710D01*
X546230Y327710D01*
X546230Y332690D01*
X546230Y328679D02*
X551210Y328679D01*
X551210Y329648D02*
X546230Y329648D01*
X546230Y330617D02*
X551210Y330617D01*
X551210Y331586D02*
X546230Y331586D01*
X546230Y332555D02*
X551210Y332555D01*
X574170Y327710D02*
X579150Y327710D01*
X574170Y327710D02*
X574170Y332690D01*
X579150Y332690D01*
X579150Y327710D01*
X579150Y328679D02*
X574170Y328679D01*
X574170Y329648D02*
X579150Y329648D01*
X579150Y330617D02*
X574170Y330617D01*
X574170Y331586D02*
X579150Y331586D01*
X579150Y332555D02*
X574170Y332555D01*
X584170Y327710D02*
X589150Y327710D01*
X584170Y327710D02*
X584170Y332690D01*
X589150Y332690D01*
X589150Y327710D01*
X589150Y328679D02*
X584170Y328679D01*
X584170Y329648D02*
X589150Y329648D01*
X589150Y330617D02*
X584170Y330617D01*
X584170Y331586D02*
X589150Y331586D01*
X589150Y332555D02*
X584170Y332555D01*
X561210Y358090D02*
X556230Y358090D01*
X561210Y358090D02*
X561210Y353110D01*
X556230Y353110D01*
X556230Y358090D01*
X556230Y354079D02*
X561210Y354079D01*
X561210Y355048D02*
X556230Y355048D01*
X556230Y356017D02*
X561210Y356017D01*
X561210Y356986D02*
X556230Y356986D01*
X556230Y357955D02*
X561210Y357955D01*
X551210Y358090D02*
X546230Y358090D01*
X551210Y358090D02*
X551210Y353110D01*
X546230Y353110D01*
X546230Y358090D01*
X546230Y354079D02*
X551210Y354079D01*
X551210Y355048D02*
X546230Y355048D01*
X546230Y356017D02*
X551210Y356017D01*
X551210Y356986D02*
X546230Y356986D01*
X546230Y357955D02*
X551210Y357955D01*
X556230Y345390D02*
X561210Y345390D01*
X561210Y340410D01*
X556230Y340410D01*
X556230Y345390D01*
X556230Y341379D02*
X561210Y341379D01*
X561210Y342348D02*
X556230Y342348D01*
X556230Y343317D02*
X561210Y343317D01*
X561210Y344286D02*
X556230Y344286D01*
X556230Y345255D02*
X561210Y345255D01*
X551210Y345390D02*
X546230Y345390D01*
X551210Y345390D02*
X551210Y340410D01*
X546230Y340410D01*
X546230Y345390D01*
X546230Y341379D02*
X551210Y341379D01*
X551210Y342348D02*
X546230Y342348D01*
X546230Y343317D02*
X551210Y343317D01*
X551210Y344286D02*
X546230Y344286D01*
X546230Y345255D02*
X551210Y345255D01*
D10*
X631610Y379500D02*
X634610Y379500D01*
X631610Y379500D02*
X631610Y382500D01*
X634610Y382500D01*
X634610Y379500D01*
X634610Y380450D02*
X631610Y380450D01*
X631610Y381400D02*
X634610Y381400D01*
X634610Y382350D02*
X631610Y382350D01*
X620610Y379500D02*
X617610Y379500D01*
X617610Y382500D01*
X620610Y382500D01*
X620610Y379500D01*
X620610Y380450D02*
X617610Y380450D01*
X617610Y381400D02*
X620610Y381400D01*
X620610Y382350D02*
X617610Y382350D01*
M02*
