G04 EAGLE Gerber RS-274X export*
G75*
%MOMM*%
%FSLAX34Y34*%
%LPD*%
%INSoldermask Bottom*%
%IPPOS*%
%AMOC8*
5,1,8,0,0,1.08239X$1,22.5*%
G01*
%ADD10C,2.006600*%
%ADD11C,1.127000*%
%ADD12C,3.429000*%
%ADD13C,0.777000*%
%ADD14C,0.228344*%
%ADD15C,0.228600*%
%ADD16C,0.225719*%
%ADD17C,0.228688*%
%ADD18C,0.235400*%
%ADD19C,0.223409*%
%ADD20C,0.812800*%
%ADD21C,0.889000*%
%ADD22C,0.225369*%
%ADD23C,0.226609*%
%ADD24C,1.270000*%
%ADD25C,1.627000*%

G36*
X205170Y100723D02*
X205170Y100723D01*
X205236Y100725D01*
X205279Y100743D01*
X205326Y100751D01*
X205383Y100785D01*
X205443Y100810D01*
X205478Y100841D01*
X205519Y100866D01*
X205561Y100917D01*
X205609Y100961D01*
X205631Y101003D01*
X205660Y101040D01*
X205681Y101102D01*
X205712Y101161D01*
X205720Y101215D01*
X205732Y101252D01*
X205731Y101292D01*
X205739Y101346D01*
X205739Y114554D01*
X205728Y114619D01*
X205726Y114685D01*
X205708Y114728D01*
X205700Y114775D01*
X205666Y114832D01*
X205641Y114892D01*
X205610Y114927D01*
X205585Y114968D01*
X205534Y115010D01*
X205490Y115058D01*
X205448Y115080D01*
X205411Y115109D01*
X205349Y115130D01*
X205290Y115161D01*
X205236Y115169D01*
X205199Y115181D01*
X205159Y115180D01*
X205105Y115188D01*
X201295Y115188D01*
X201230Y115177D01*
X201164Y115175D01*
X201121Y115157D01*
X201074Y115149D01*
X201017Y115115D01*
X200957Y115090D01*
X200922Y115059D01*
X200881Y115034D01*
X200840Y114983D01*
X200791Y114939D01*
X200769Y114897D01*
X200740Y114860D01*
X200719Y114798D01*
X200688Y114739D01*
X200680Y114685D01*
X200668Y114648D01*
X200669Y114608D01*
X200661Y114554D01*
X200661Y101346D01*
X200672Y101281D01*
X200674Y101215D01*
X200692Y101172D01*
X200700Y101125D01*
X200734Y101068D01*
X200759Y101008D01*
X200790Y100973D01*
X200815Y100932D01*
X200866Y100891D01*
X200910Y100842D01*
X200952Y100820D01*
X200989Y100791D01*
X201051Y100770D01*
X201110Y100739D01*
X201164Y100731D01*
X201201Y100719D01*
X201241Y100720D01*
X201295Y100712D01*
X205105Y100712D01*
X205170Y100723D01*
G37*
G36*
X672530Y100723D02*
X672530Y100723D01*
X672596Y100725D01*
X672639Y100743D01*
X672686Y100751D01*
X672743Y100785D01*
X672803Y100810D01*
X672838Y100841D01*
X672879Y100866D01*
X672921Y100917D01*
X672969Y100961D01*
X672991Y101003D01*
X673020Y101040D01*
X673041Y101102D01*
X673072Y101161D01*
X673080Y101215D01*
X673092Y101252D01*
X673091Y101292D01*
X673099Y101346D01*
X673099Y114554D01*
X673088Y114619D01*
X673086Y114685D01*
X673068Y114728D01*
X673060Y114775D01*
X673026Y114832D01*
X673001Y114892D01*
X672970Y114927D01*
X672945Y114968D01*
X672894Y115010D01*
X672850Y115058D01*
X672808Y115080D01*
X672771Y115109D01*
X672709Y115130D01*
X672650Y115161D01*
X672596Y115169D01*
X672559Y115181D01*
X672519Y115180D01*
X672465Y115188D01*
X668655Y115188D01*
X668590Y115177D01*
X668524Y115175D01*
X668481Y115157D01*
X668434Y115149D01*
X668377Y115115D01*
X668317Y115090D01*
X668282Y115059D01*
X668241Y115034D01*
X668200Y114983D01*
X668151Y114939D01*
X668129Y114897D01*
X668100Y114860D01*
X668079Y114798D01*
X668048Y114739D01*
X668040Y114685D01*
X668028Y114648D01*
X668029Y114608D01*
X668021Y114554D01*
X668021Y101346D01*
X668032Y101281D01*
X668034Y101215D01*
X668052Y101172D01*
X668060Y101125D01*
X668094Y101068D01*
X668119Y101008D01*
X668150Y100973D01*
X668175Y100932D01*
X668226Y100891D01*
X668270Y100842D01*
X668312Y100820D01*
X668349Y100791D01*
X668411Y100770D01*
X668470Y100739D01*
X668524Y100731D01*
X668561Y100719D01*
X668601Y100720D01*
X668655Y100712D01*
X672465Y100712D01*
X672530Y100723D01*
G37*
G36*
X438850Y100723D02*
X438850Y100723D01*
X438916Y100725D01*
X438959Y100743D01*
X439006Y100751D01*
X439063Y100785D01*
X439123Y100810D01*
X439158Y100841D01*
X439199Y100866D01*
X439241Y100917D01*
X439289Y100961D01*
X439311Y101003D01*
X439340Y101040D01*
X439361Y101102D01*
X439392Y101161D01*
X439400Y101215D01*
X439412Y101252D01*
X439411Y101292D01*
X439419Y101346D01*
X439419Y114554D01*
X439408Y114619D01*
X439406Y114685D01*
X439388Y114728D01*
X439380Y114775D01*
X439346Y114832D01*
X439321Y114892D01*
X439290Y114927D01*
X439265Y114968D01*
X439214Y115010D01*
X439170Y115058D01*
X439128Y115080D01*
X439091Y115109D01*
X439029Y115130D01*
X438970Y115161D01*
X438916Y115169D01*
X438879Y115181D01*
X438839Y115180D01*
X438785Y115188D01*
X434975Y115188D01*
X434910Y115177D01*
X434844Y115175D01*
X434801Y115157D01*
X434754Y115149D01*
X434697Y115115D01*
X434637Y115090D01*
X434602Y115059D01*
X434561Y115034D01*
X434520Y114983D01*
X434471Y114939D01*
X434449Y114897D01*
X434420Y114860D01*
X434399Y114798D01*
X434368Y114739D01*
X434360Y114685D01*
X434348Y114648D01*
X434349Y114608D01*
X434341Y114554D01*
X434341Y101346D01*
X434352Y101281D01*
X434354Y101215D01*
X434372Y101172D01*
X434380Y101125D01*
X434414Y101068D01*
X434439Y101008D01*
X434470Y100973D01*
X434495Y100932D01*
X434546Y100891D01*
X434590Y100842D01*
X434632Y100820D01*
X434669Y100791D01*
X434731Y100770D01*
X434790Y100739D01*
X434844Y100731D01*
X434881Y100719D01*
X434921Y100720D01*
X434975Y100712D01*
X438785Y100712D01*
X438850Y100723D01*
G37*
G36*
X640145Y289572D02*
X640145Y289572D01*
X640211Y289574D01*
X640254Y289592D01*
X640301Y289600D01*
X640358Y289634D01*
X640418Y289659D01*
X640453Y289690D01*
X640494Y289715D01*
X640536Y289766D01*
X640584Y289810D01*
X640606Y289852D01*
X640635Y289889D01*
X640656Y289951D01*
X640687Y290010D01*
X640695Y290064D01*
X640707Y290101D01*
X640706Y290141D01*
X640714Y290195D01*
X640714Y294005D01*
X640703Y294070D01*
X640701Y294136D01*
X640683Y294179D01*
X640675Y294226D01*
X640641Y294283D01*
X640616Y294343D01*
X640585Y294378D01*
X640560Y294419D01*
X640509Y294461D01*
X640465Y294509D01*
X640423Y294531D01*
X640386Y294560D01*
X640324Y294581D01*
X640265Y294612D01*
X640211Y294620D01*
X640174Y294632D01*
X640134Y294631D01*
X640080Y294639D01*
X637540Y294639D01*
X637475Y294628D01*
X637409Y294626D01*
X637366Y294608D01*
X637319Y294600D01*
X637262Y294566D01*
X637202Y294541D01*
X637167Y294510D01*
X637126Y294485D01*
X637085Y294434D01*
X637036Y294390D01*
X637014Y294348D01*
X636985Y294311D01*
X636964Y294249D01*
X636933Y294190D01*
X636925Y294136D01*
X636913Y294099D01*
X636913Y294095D01*
X636913Y294094D01*
X636914Y294059D01*
X636906Y294005D01*
X636906Y290195D01*
X636917Y290130D01*
X636919Y290064D01*
X636937Y290021D01*
X636945Y289974D01*
X636979Y289917D01*
X637004Y289857D01*
X637035Y289822D01*
X637060Y289781D01*
X637111Y289740D01*
X637155Y289691D01*
X637197Y289669D01*
X637234Y289640D01*
X637296Y289619D01*
X637355Y289588D01*
X637409Y289580D01*
X637446Y289568D01*
X637486Y289569D01*
X637540Y289561D01*
X640080Y289561D01*
X640145Y289572D01*
G37*
G36*
X406465Y289572D02*
X406465Y289572D01*
X406531Y289574D01*
X406574Y289592D01*
X406621Y289600D01*
X406678Y289634D01*
X406738Y289659D01*
X406773Y289690D01*
X406814Y289715D01*
X406856Y289766D01*
X406904Y289810D01*
X406926Y289852D01*
X406955Y289889D01*
X406976Y289951D01*
X407007Y290010D01*
X407015Y290064D01*
X407027Y290101D01*
X407026Y290141D01*
X407034Y290195D01*
X407034Y294005D01*
X407023Y294070D01*
X407021Y294136D01*
X407003Y294179D01*
X406995Y294226D01*
X406961Y294283D01*
X406936Y294343D01*
X406905Y294378D01*
X406880Y294419D01*
X406829Y294461D01*
X406785Y294509D01*
X406743Y294531D01*
X406706Y294560D01*
X406644Y294581D01*
X406585Y294612D01*
X406531Y294620D01*
X406494Y294632D01*
X406454Y294631D01*
X406400Y294639D01*
X403860Y294639D01*
X403795Y294628D01*
X403729Y294626D01*
X403686Y294608D01*
X403639Y294600D01*
X403582Y294566D01*
X403522Y294541D01*
X403487Y294510D01*
X403446Y294485D01*
X403405Y294434D01*
X403356Y294390D01*
X403334Y294348D01*
X403305Y294311D01*
X403284Y294249D01*
X403253Y294190D01*
X403245Y294136D01*
X403233Y294099D01*
X403233Y294095D01*
X403233Y294094D01*
X403234Y294059D01*
X403226Y294005D01*
X403226Y290195D01*
X403237Y290130D01*
X403239Y290064D01*
X403257Y290021D01*
X403265Y289974D01*
X403299Y289917D01*
X403324Y289857D01*
X403355Y289822D01*
X403380Y289781D01*
X403431Y289740D01*
X403475Y289691D01*
X403517Y289669D01*
X403554Y289640D01*
X403616Y289619D01*
X403675Y289588D01*
X403729Y289580D01*
X403766Y289568D01*
X403806Y289569D01*
X403860Y289561D01*
X406400Y289561D01*
X406465Y289572D01*
G37*
G36*
X172785Y289572D02*
X172785Y289572D01*
X172851Y289574D01*
X172894Y289592D01*
X172941Y289600D01*
X172998Y289634D01*
X173058Y289659D01*
X173093Y289690D01*
X173134Y289715D01*
X173176Y289766D01*
X173224Y289810D01*
X173246Y289852D01*
X173275Y289889D01*
X173296Y289951D01*
X173327Y290010D01*
X173335Y290064D01*
X173347Y290101D01*
X173346Y290141D01*
X173354Y290195D01*
X173354Y294005D01*
X173343Y294070D01*
X173341Y294136D01*
X173323Y294179D01*
X173315Y294226D01*
X173281Y294283D01*
X173256Y294343D01*
X173225Y294378D01*
X173200Y294419D01*
X173149Y294461D01*
X173105Y294509D01*
X173063Y294531D01*
X173026Y294560D01*
X172964Y294581D01*
X172905Y294612D01*
X172851Y294620D01*
X172814Y294632D01*
X172774Y294631D01*
X172720Y294639D01*
X170180Y294639D01*
X170115Y294628D01*
X170049Y294626D01*
X170006Y294608D01*
X169959Y294600D01*
X169902Y294566D01*
X169842Y294541D01*
X169807Y294510D01*
X169766Y294485D01*
X169725Y294434D01*
X169676Y294390D01*
X169654Y294348D01*
X169625Y294311D01*
X169604Y294249D01*
X169573Y294190D01*
X169565Y294136D01*
X169553Y294099D01*
X169553Y294095D01*
X169553Y294094D01*
X169554Y294059D01*
X169546Y294005D01*
X169546Y290195D01*
X169557Y290130D01*
X169559Y290064D01*
X169577Y290021D01*
X169585Y289974D01*
X169619Y289917D01*
X169644Y289857D01*
X169675Y289822D01*
X169700Y289781D01*
X169751Y289740D01*
X169795Y289691D01*
X169837Y289669D01*
X169874Y289640D01*
X169936Y289619D01*
X169995Y289588D01*
X170049Y289580D01*
X170086Y289568D01*
X170126Y289569D01*
X170180Y289561D01*
X172720Y289561D01*
X172785Y289572D01*
G37*
G36*
X147385Y105422D02*
X147385Y105422D01*
X147451Y105424D01*
X147494Y105442D01*
X147541Y105450D01*
X147598Y105484D01*
X147658Y105509D01*
X147693Y105540D01*
X147734Y105565D01*
X147776Y105616D01*
X147824Y105660D01*
X147846Y105702D01*
X147875Y105739D01*
X147896Y105801D01*
X147927Y105860D01*
X147935Y105914D01*
X147947Y105951D01*
X147946Y105991D01*
X147954Y106045D01*
X147954Y109855D01*
X147943Y109920D01*
X147941Y109986D01*
X147923Y110029D01*
X147915Y110076D01*
X147881Y110133D01*
X147856Y110193D01*
X147825Y110228D01*
X147800Y110269D01*
X147749Y110311D01*
X147705Y110359D01*
X147663Y110381D01*
X147626Y110410D01*
X147564Y110431D01*
X147505Y110462D01*
X147451Y110470D01*
X147414Y110482D01*
X147374Y110481D01*
X147320Y110489D01*
X144780Y110489D01*
X144715Y110478D01*
X144649Y110476D01*
X144606Y110458D01*
X144559Y110450D01*
X144502Y110416D01*
X144442Y110391D01*
X144407Y110360D01*
X144366Y110335D01*
X144325Y110284D01*
X144276Y110240D01*
X144254Y110198D01*
X144225Y110161D01*
X144204Y110099D01*
X144173Y110040D01*
X144165Y109986D01*
X144153Y109949D01*
X144153Y109945D01*
X144153Y109944D01*
X144154Y109909D01*
X144146Y109855D01*
X144146Y106045D01*
X144157Y105980D01*
X144159Y105914D01*
X144177Y105871D01*
X144185Y105824D01*
X144219Y105767D01*
X144244Y105707D01*
X144275Y105672D01*
X144300Y105631D01*
X144351Y105590D01*
X144395Y105541D01*
X144437Y105519D01*
X144474Y105490D01*
X144536Y105469D01*
X144595Y105438D01*
X144649Y105430D01*
X144686Y105418D01*
X144726Y105419D01*
X144780Y105411D01*
X147320Y105411D01*
X147385Y105422D01*
G37*
G36*
X614745Y105422D02*
X614745Y105422D01*
X614811Y105424D01*
X614854Y105442D01*
X614901Y105450D01*
X614958Y105484D01*
X615018Y105509D01*
X615053Y105540D01*
X615094Y105565D01*
X615136Y105616D01*
X615184Y105660D01*
X615206Y105702D01*
X615235Y105739D01*
X615256Y105801D01*
X615287Y105860D01*
X615295Y105914D01*
X615307Y105951D01*
X615306Y105991D01*
X615314Y106045D01*
X615314Y109855D01*
X615303Y109920D01*
X615301Y109986D01*
X615283Y110029D01*
X615275Y110076D01*
X615241Y110133D01*
X615216Y110193D01*
X615185Y110228D01*
X615160Y110269D01*
X615109Y110311D01*
X615065Y110359D01*
X615023Y110381D01*
X614986Y110410D01*
X614924Y110431D01*
X614865Y110462D01*
X614811Y110470D01*
X614774Y110482D01*
X614734Y110481D01*
X614680Y110489D01*
X612140Y110489D01*
X612075Y110478D01*
X612009Y110476D01*
X611966Y110458D01*
X611919Y110450D01*
X611862Y110416D01*
X611802Y110391D01*
X611767Y110360D01*
X611726Y110335D01*
X611685Y110284D01*
X611636Y110240D01*
X611614Y110198D01*
X611585Y110161D01*
X611564Y110099D01*
X611533Y110040D01*
X611525Y109986D01*
X611513Y109949D01*
X611513Y109945D01*
X611513Y109944D01*
X611514Y109909D01*
X611506Y109855D01*
X611506Y106045D01*
X611517Y105980D01*
X611519Y105914D01*
X611537Y105871D01*
X611545Y105824D01*
X611579Y105767D01*
X611604Y105707D01*
X611635Y105672D01*
X611660Y105631D01*
X611711Y105590D01*
X611755Y105541D01*
X611797Y105519D01*
X611834Y105490D01*
X611896Y105469D01*
X611955Y105438D01*
X612009Y105430D01*
X612046Y105418D01*
X612086Y105419D01*
X612140Y105411D01*
X614680Y105411D01*
X614745Y105422D01*
G37*
G36*
X381065Y105422D02*
X381065Y105422D01*
X381131Y105424D01*
X381174Y105442D01*
X381221Y105450D01*
X381278Y105484D01*
X381338Y105509D01*
X381373Y105540D01*
X381414Y105565D01*
X381456Y105616D01*
X381504Y105660D01*
X381526Y105702D01*
X381555Y105739D01*
X381576Y105801D01*
X381607Y105860D01*
X381615Y105914D01*
X381627Y105951D01*
X381626Y105991D01*
X381634Y106045D01*
X381634Y109855D01*
X381623Y109920D01*
X381621Y109986D01*
X381603Y110029D01*
X381595Y110076D01*
X381561Y110133D01*
X381536Y110193D01*
X381505Y110228D01*
X381480Y110269D01*
X381429Y110311D01*
X381385Y110359D01*
X381343Y110381D01*
X381306Y110410D01*
X381244Y110431D01*
X381185Y110462D01*
X381131Y110470D01*
X381094Y110482D01*
X381054Y110481D01*
X381000Y110489D01*
X378460Y110489D01*
X378395Y110478D01*
X378329Y110476D01*
X378286Y110458D01*
X378239Y110450D01*
X378182Y110416D01*
X378122Y110391D01*
X378087Y110360D01*
X378046Y110335D01*
X378005Y110284D01*
X377956Y110240D01*
X377934Y110198D01*
X377905Y110161D01*
X377884Y110099D01*
X377853Y110040D01*
X377845Y109986D01*
X377833Y109949D01*
X377833Y109945D01*
X377833Y109944D01*
X377834Y109909D01*
X377826Y109855D01*
X377826Y106045D01*
X377837Y105980D01*
X377839Y105914D01*
X377857Y105871D01*
X377865Y105824D01*
X377899Y105767D01*
X377924Y105707D01*
X377955Y105672D01*
X377980Y105631D01*
X378031Y105590D01*
X378075Y105541D01*
X378117Y105519D01*
X378154Y105490D01*
X378216Y105469D01*
X378275Y105438D01*
X378329Y105430D01*
X378366Y105418D01*
X378406Y105419D01*
X378460Y105411D01*
X381000Y105411D01*
X381065Y105422D01*
G37*
G36*
X52135Y85102D02*
X52135Y85102D01*
X52201Y85104D01*
X52244Y85122D01*
X52291Y85130D01*
X52348Y85164D01*
X52408Y85189D01*
X52443Y85220D01*
X52484Y85245D01*
X52526Y85296D01*
X52574Y85340D01*
X52596Y85382D01*
X52625Y85419D01*
X52646Y85481D01*
X52677Y85540D01*
X52685Y85594D01*
X52697Y85631D01*
X52696Y85671D01*
X52704Y85725D01*
X52704Y89535D01*
X52693Y89600D01*
X52691Y89666D01*
X52673Y89709D01*
X52665Y89756D01*
X52631Y89813D01*
X52606Y89873D01*
X52575Y89908D01*
X52550Y89949D01*
X52499Y89991D01*
X52455Y90039D01*
X52413Y90061D01*
X52376Y90090D01*
X52314Y90111D01*
X52255Y90142D01*
X52201Y90150D01*
X52164Y90162D01*
X52124Y90161D01*
X52070Y90169D01*
X49530Y90169D01*
X49465Y90158D01*
X49399Y90156D01*
X49356Y90138D01*
X49309Y90130D01*
X49252Y90096D01*
X49192Y90071D01*
X49157Y90040D01*
X49116Y90015D01*
X49075Y89964D01*
X49026Y89920D01*
X49004Y89878D01*
X48975Y89841D01*
X48954Y89779D01*
X48923Y89720D01*
X48915Y89666D01*
X48903Y89629D01*
X48903Y89625D01*
X48903Y89624D01*
X48904Y89589D01*
X48896Y89535D01*
X48896Y85725D01*
X48907Y85660D01*
X48909Y85594D01*
X48927Y85551D01*
X48935Y85504D01*
X48969Y85447D01*
X48994Y85387D01*
X49025Y85352D01*
X49050Y85311D01*
X49101Y85270D01*
X49145Y85221D01*
X49187Y85199D01*
X49224Y85170D01*
X49286Y85149D01*
X49345Y85118D01*
X49399Y85110D01*
X49436Y85098D01*
X49476Y85099D01*
X49530Y85091D01*
X52070Y85091D01*
X52135Y85102D01*
G37*
G36*
X519495Y85102D02*
X519495Y85102D01*
X519561Y85104D01*
X519604Y85122D01*
X519651Y85130D01*
X519708Y85164D01*
X519768Y85189D01*
X519803Y85220D01*
X519844Y85245D01*
X519886Y85296D01*
X519934Y85340D01*
X519956Y85382D01*
X519985Y85419D01*
X520006Y85481D01*
X520037Y85540D01*
X520045Y85594D01*
X520057Y85631D01*
X520056Y85671D01*
X520064Y85725D01*
X520064Y89535D01*
X520053Y89600D01*
X520051Y89666D01*
X520033Y89709D01*
X520025Y89756D01*
X519991Y89813D01*
X519966Y89873D01*
X519935Y89908D01*
X519910Y89949D01*
X519859Y89991D01*
X519815Y90039D01*
X519773Y90061D01*
X519736Y90090D01*
X519674Y90111D01*
X519615Y90142D01*
X519561Y90150D01*
X519524Y90162D01*
X519484Y90161D01*
X519430Y90169D01*
X516890Y90169D01*
X516825Y90158D01*
X516759Y90156D01*
X516716Y90138D01*
X516669Y90130D01*
X516612Y90096D01*
X516552Y90071D01*
X516517Y90040D01*
X516476Y90015D01*
X516435Y89964D01*
X516386Y89920D01*
X516364Y89878D01*
X516335Y89841D01*
X516314Y89779D01*
X516283Y89720D01*
X516275Y89666D01*
X516263Y89629D01*
X516263Y89625D01*
X516263Y89624D01*
X516264Y89589D01*
X516256Y89535D01*
X516256Y85725D01*
X516267Y85660D01*
X516269Y85594D01*
X516287Y85551D01*
X516295Y85504D01*
X516329Y85447D01*
X516354Y85387D01*
X516385Y85352D01*
X516410Y85311D01*
X516461Y85270D01*
X516505Y85221D01*
X516547Y85199D01*
X516584Y85170D01*
X516646Y85149D01*
X516705Y85118D01*
X516759Y85110D01*
X516796Y85098D01*
X516836Y85099D01*
X516890Y85091D01*
X519430Y85091D01*
X519495Y85102D01*
G37*
G36*
X285815Y85102D02*
X285815Y85102D01*
X285881Y85104D01*
X285924Y85122D01*
X285971Y85130D01*
X286028Y85164D01*
X286088Y85189D01*
X286123Y85220D01*
X286164Y85245D01*
X286206Y85296D01*
X286254Y85340D01*
X286276Y85382D01*
X286305Y85419D01*
X286326Y85481D01*
X286357Y85540D01*
X286365Y85594D01*
X286377Y85631D01*
X286376Y85671D01*
X286384Y85725D01*
X286384Y89535D01*
X286373Y89600D01*
X286371Y89666D01*
X286353Y89709D01*
X286345Y89756D01*
X286311Y89813D01*
X286286Y89873D01*
X286255Y89908D01*
X286230Y89949D01*
X286179Y89991D01*
X286135Y90039D01*
X286093Y90061D01*
X286056Y90090D01*
X285994Y90111D01*
X285935Y90142D01*
X285881Y90150D01*
X285844Y90162D01*
X285804Y90161D01*
X285750Y90169D01*
X283210Y90169D01*
X283145Y90158D01*
X283079Y90156D01*
X283036Y90138D01*
X282989Y90130D01*
X282932Y90096D01*
X282872Y90071D01*
X282837Y90040D01*
X282796Y90015D01*
X282755Y89964D01*
X282706Y89920D01*
X282684Y89878D01*
X282655Y89841D01*
X282634Y89779D01*
X282603Y89720D01*
X282595Y89666D01*
X282583Y89629D01*
X282583Y89625D01*
X282583Y89624D01*
X282584Y89589D01*
X282576Y89535D01*
X282576Y85725D01*
X282587Y85660D01*
X282589Y85594D01*
X282607Y85551D01*
X282615Y85504D01*
X282649Y85447D01*
X282674Y85387D01*
X282705Y85352D01*
X282730Y85311D01*
X282781Y85270D01*
X282825Y85221D01*
X282867Y85199D01*
X282904Y85170D01*
X282966Y85149D01*
X283025Y85118D01*
X283079Y85110D01*
X283116Y85098D01*
X283156Y85099D01*
X283210Y85091D01*
X285750Y85091D01*
X285815Y85102D01*
G37*
G36*
X52135Y74942D02*
X52135Y74942D01*
X52201Y74944D01*
X52244Y74962D01*
X52291Y74970D01*
X52348Y75004D01*
X52408Y75029D01*
X52443Y75060D01*
X52484Y75085D01*
X52526Y75136D01*
X52574Y75180D01*
X52596Y75222D01*
X52625Y75259D01*
X52646Y75321D01*
X52677Y75380D01*
X52685Y75434D01*
X52697Y75471D01*
X52696Y75511D01*
X52704Y75565D01*
X52704Y79375D01*
X52693Y79440D01*
X52691Y79506D01*
X52673Y79549D01*
X52665Y79596D01*
X52631Y79653D01*
X52606Y79713D01*
X52575Y79748D01*
X52550Y79789D01*
X52499Y79831D01*
X52455Y79879D01*
X52413Y79901D01*
X52376Y79930D01*
X52314Y79951D01*
X52255Y79982D01*
X52201Y79990D01*
X52164Y80002D01*
X52124Y80001D01*
X52070Y80009D01*
X49530Y80009D01*
X49465Y79998D01*
X49399Y79996D01*
X49356Y79978D01*
X49309Y79970D01*
X49252Y79936D01*
X49192Y79911D01*
X49157Y79880D01*
X49116Y79855D01*
X49075Y79804D01*
X49026Y79760D01*
X49004Y79718D01*
X48975Y79681D01*
X48954Y79619D01*
X48923Y79560D01*
X48915Y79506D01*
X48903Y79469D01*
X48903Y79465D01*
X48903Y79464D01*
X48904Y79429D01*
X48896Y79375D01*
X48896Y75565D01*
X48907Y75500D01*
X48909Y75434D01*
X48927Y75391D01*
X48935Y75344D01*
X48969Y75287D01*
X48994Y75227D01*
X49025Y75192D01*
X49050Y75151D01*
X49101Y75110D01*
X49145Y75061D01*
X49187Y75039D01*
X49224Y75010D01*
X49286Y74989D01*
X49345Y74958D01*
X49399Y74950D01*
X49436Y74938D01*
X49476Y74939D01*
X49530Y74931D01*
X52070Y74931D01*
X52135Y74942D01*
G37*
G36*
X285815Y74942D02*
X285815Y74942D01*
X285881Y74944D01*
X285924Y74962D01*
X285971Y74970D01*
X286028Y75004D01*
X286088Y75029D01*
X286123Y75060D01*
X286164Y75085D01*
X286206Y75136D01*
X286254Y75180D01*
X286276Y75222D01*
X286305Y75259D01*
X286326Y75321D01*
X286357Y75380D01*
X286365Y75434D01*
X286377Y75471D01*
X286376Y75511D01*
X286384Y75565D01*
X286384Y79375D01*
X286373Y79440D01*
X286371Y79506D01*
X286353Y79549D01*
X286345Y79596D01*
X286311Y79653D01*
X286286Y79713D01*
X286255Y79748D01*
X286230Y79789D01*
X286179Y79831D01*
X286135Y79879D01*
X286093Y79901D01*
X286056Y79930D01*
X285994Y79951D01*
X285935Y79982D01*
X285881Y79990D01*
X285844Y80002D01*
X285804Y80001D01*
X285750Y80009D01*
X283210Y80009D01*
X283145Y79998D01*
X283079Y79996D01*
X283036Y79978D01*
X282989Y79970D01*
X282932Y79936D01*
X282872Y79911D01*
X282837Y79880D01*
X282796Y79855D01*
X282755Y79804D01*
X282706Y79760D01*
X282684Y79718D01*
X282655Y79681D01*
X282634Y79619D01*
X282603Y79560D01*
X282595Y79506D01*
X282583Y79469D01*
X282583Y79465D01*
X282583Y79464D01*
X282584Y79429D01*
X282576Y79375D01*
X282576Y75565D01*
X282587Y75500D01*
X282589Y75434D01*
X282607Y75391D01*
X282615Y75344D01*
X282649Y75287D01*
X282674Y75227D01*
X282705Y75192D01*
X282730Y75151D01*
X282781Y75110D01*
X282825Y75061D01*
X282867Y75039D01*
X282904Y75010D01*
X282966Y74989D01*
X283025Y74958D01*
X283079Y74950D01*
X283116Y74938D01*
X283156Y74939D01*
X283210Y74931D01*
X285750Y74931D01*
X285815Y74942D01*
G37*
G36*
X519495Y74942D02*
X519495Y74942D01*
X519561Y74944D01*
X519604Y74962D01*
X519651Y74970D01*
X519708Y75004D01*
X519768Y75029D01*
X519803Y75060D01*
X519844Y75085D01*
X519886Y75136D01*
X519934Y75180D01*
X519956Y75222D01*
X519985Y75259D01*
X520006Y75321D01*
X520037Y75380D01*
X520045Y75434D01*
X520057Y75471D01*
X520056Y75511D01*
X520064Y75565D01*
X520064Y79375D01*
X520053Y79440D01*
X520051Y79506D01*
X520033Y79549D01*
X520025Y79596D01*
X519991Y79653D01*
X519966Y79713D01*
X519935Y79748D01*
X519910Y79789D01*
X519859Y79831D01*
X519815Y79879D01*
X519773Y79901D01*
X519736Y79930D01*
X519674Y79951D01*
X519615Y79982D01*
X519561Y79990D01*
X519524Y80002D01*
X519484Y80001D01*
X519430Y80009D01*
X516890Y80009D01*
X516825Y79998D01*
X516759Y79996D01*
X516716Y79978D01*
X516669Y79970D01*
X516612Y79936D01*
X516552Y79911D01*
X516517Y79880D01*
X516476Y79855D01*
X516435Y79804D01*
X516386Y79760D01*
X516364Y79718D01*
X516335Y79681D01*
X516314Y79619D01*
X516283Y79560D01*
X516275Y79506D01*
X516263Y79469D01*
X516263Y79465D01*
X516263Y79464D01*
X516264Y79429D01*
X516256Y79375D01*
X516256Y75565D01*
X516267Y75500D01*
X516269Y75434D01*
X516287Y75391D01*
X516295Y75344D01*
X516329Y75287D01*
X516354Y75227D01*
X516385Y75192D01*
X516410Y75151D01*
X516461Y75110D01*
X516505Y75061D01*
X516547Y75039D01*
X516584Y75010D01*
X516646Y74989D01*
X516705Y74958D01*
X516759Y74950D01*
X516796Y74938D01*
X516836Y74939D01*
X516890Y74931D01*
X519430Y74931D01*
X519495Y74942D01*
G37*
G36*
X486475Y64782D02*
X486475Y64782D01*
X486541Y64784D01*
X486584Y64802D01*
X486631Y64810D01*
X486688Y64844D01*
X486748Y64869D01*
X486783Y64900D01*
X486824Y64925D01*
X486866Y64976D01*
X486914Y65020D01*
X486936Y65062D01*
X486965Y65099D01*
X486986Y65161D01*
X487017Y65220D01*
X487025Y65274D01*
X487037Y65311D01*
X487036Y65351D01*
X487044Y65405D01*
X487044Y69215D01*
X487033Y69280D01*
X487031Y69346D01*
X487013Y69389D01*
X487005Y69436D01*
X486971Y69493D01*
X486946Y69553D01*
X486915Y69588D01*
X486890Y69629D01*
X486839Y69671D01*
X486795Y69719D01*
X486753Y69741D01*
X486716Y69770D01*
X486654Y69791D01*
X486595Y69822D01*
X486541Y69830D01*
X486504Y69842D01*
X486464Y69841D01*
X486410Y69849D01*
X483870Y69849D01*
X483805Y69838D01*
X483739Y69836D01*
X483696Y69818D01*
X483649Y69810D01*
X483592Y69776D01*
X483532Y69751D01*
X483497Y69720D01*
X483456Y69695D01*
X483415Y69644D01*
X483366Y69600D01*
X483344Y69558D01*
X483315Y69521D01*
X483294Y69459D01*
X483263Y69400D01*
X483255Y69346D01*
X483243Y69309D01*
X483243Y69305D01*
X483243Y69304D01*
X483244Y69269D01*
X483236Y69215D01*
X483236Y65405D01*
X483247Y65340D01*
X483249Y65274D01*
X483267Y65231D01*
X483275Y65184D01*
X483309Y65127D01*
X483334Y65067D01*
X483365Y65032D01*
X483390Y64991D01*
X483441Y64950D01*
X483485Y64901D01*
X483527Y64879D01*
X483564Y64850D01*
X483626Y64829D01*
X483685Y64798D01*
X483739Y64790D01*
X483776Y64778D01*
X483816Y64779D01*
X483870Y64771D01*
X486410Y64771D01*
X486475Y64782D01*
G37*
G36*
X252795Y64782D02*
X252795Y64782D01*
X252861Y64784D01*
X252904Y64802D01*
X252951Y64810D01*
X253008Y64844D01*
X253068Y64869D01*
X253103Y64900D01*
X253144Y64925D01*
X253186Y64976D01*
X253234Y65020D01*
X253256Y65062D01*
X253285Y65099D01*
X253306Y65161D01*
X253337Y65220D01*
X253345Y65274D01*
X253357Y65311D01*
X253356Y65351D01*
X253364Y65405D01*
X253364Y69215D01*
X253353Y69280D01*
X253351Y69346D01*
X253333Y69389D01*
X253325Y69436D01*
X253291Y69493D01*
X253266Y69553D01*
X253235Y69588D01*
X253210Y69629D01*
X253159Y69671D01*
X253115Y69719D01*
X253073Y69741D01*
X253036Y69770D01*
X252974Y69791D01*
X252915Y69822D01*
X252861Y69830D01*
X252824Y69842D01*
X252784Y69841D01*
X252730Y69849D01*
X250190Y69849D01*
X250125Y69838D01*
X250059Y69836D01*
X250016Y69818D01*
X249969Y69810D01*
X249912Y69776D01*
X249852Y69751D01*
X249817Y69720D01*
X249776Y69695D01*
X249735Y69644D01*
X249686Y69600D01*
X249664Y69558D01*
X249635Y69521D01*
X249614Y69459D01*
X249583Y69400D01*
X249575Y69346D01*
X249563Y69309D01*
X249563Y69305D01*
X249563Y69304D01*
X249564Y69269D01*
X249556Y69215D01*
X249556Y65405D01*
X249567Y65340D01*
X249569Y65274D01*
X249587Y65231D01*
X249595Y65184D01*
X249629Y65127D01*
X249654Y65067D01*
X249685Y65032D01*
X249710Y64991D01*
X249761Y64950D01*
X249805Y64901D01*
X249847Y64879D01*
X249884Y64850D01*
X249946Y64829D01*
X250005Y64798D01*
X250059Y64790D01*
X250096Y64778D01*
X250136Y64779D01*
X250190Y64771D01*
X252730Y64771D01*
X252795Y64782D01*
G37*
G36*
X19115Y64782D02*
X19115Y64782D01*
X19181Y64784D01*
X19224Y64802D01*
X19271Y64810D01*
X19328Y64844D01*
X19388Y64869D01*
X19423Y64900D01*
X19464Y64925D01*
X19506Y64976D01*
X19554Y65020D01*
X19576Y65062D01*
X19605Y65099D01*
X19626Y65161D01*
X19657Y65220D01*
X19665Y65274D01*
X19677Y65311D01*
X19676Y65351D01*
X19684Y65405D01*
X19684Y69215D01*
X19673Y69280D01*
X19671Y69346D01*
X19653Y69389D01*
X19645Y69436D01*
X19611Y69493D01*
X19586Y69553D01*
X19555Y69588D01*
X19530Y69629D01*
X19479Y69671D01*
X19435Y69719D01*
X19393Y69741D01*
X19356Y69770D01*
X19294Y69791D01*
X19235Y69822D01*
X19181Y69830D01*
X19144Y69842D01*
X19104Y69841D01*
X19050Y69849D01*
X16510Y69849D01*
X16445Y69838D01*
X16379Y69836D01*
X16336Y69818D01*
X16289Y69810D01*
X16232Y69776D01*
X16172Y69751D01*
X16137Y69720D01*
X16096Y69695D01*
X16055Y69644D01*
X16006Y69600D01*
X15984Y69558D01*
X15955Y69521D01*
X15934Y69459D01*
X15903Y69400D01*
X15895Y69346D01*
X15883Y69309D01*
X15883Y69305D01*
X15883Y69304D01*
X15884Y69269D01*
X15876Y69215D01*
X15876Y65405D01*
X15887Y65340D01*
X15889Y65274D01*
X15907Y65231D01*
X15915Y65184D01*
X15949Y65127D01*
X15974Y65067D01*
X16005Y65032D01*
X16030Y64991D01*
X16081Y64950D01*
X16125Y64901D01*
X16167Y64879D01*
X16204Y64850D01*
X16266Y64829D01*
X16325Y64798D01*
X16379Y64790D01*
X16416Y64778D01*
X16456Y64779D01*
X16510Y64771D01*
X19050Y64771D01*
X19115Y64782D01*
G37*
G36*
X382970Y137807D02*
X382970Y137807D01*
X383036Y137809D01*
X383079Y137827D01*
X383126Y137835D01*
X383183Y137869D01*
X383243Y137894D01*
X383278Y137925D01*
X383319Y137950D01*
X383361Y138001D01*
X383409Y138045D01*
X383431Y138087D01*
X383460Y138124D01*
X383481Y138186D01*
X383512Y138245D01*
X383520Y138299D01*
X383532Y138336D01*
X383531Y138376D01*
X383539Y138430D01*
X383539Y140970D01*
X383528Y141035D01*
X383526Y141101D01*
X383508Y141144D01*
X383500Y141191D01*
X383466Y141248D01*
X383441Y141308D01*
X383410Y141343D01*
X383385Y141384D01*
X383334Y141426D01*
X383290Y141474D01*
X383248Y141496D01*
X383211Y141525D01*
X383149Y141546D01*
X383090Y141577D01*
X383036Y141585D01*
X382999Y141597D01*
X382959Y141596D01*
X382905Y141604D01*
X379095Y141604D01*
X379030Y141593D01*
X378964Y141591D01*
X378921Y141573D01*
X378874Y141565D01*
X378817Y141531D01*
X378757Y141506D01*
X378722Y141475D01*
X378681Y141450D01*
X378640Y141399D01*
X378591Y141355D01*
X378569Y141313D01*
X378540Y141276D01*
X378519Y141214D01*
X378488Y141155D01*
X378480Y141101D01*
X378468Y141064D01*
X378468Y141061D01*
X378469Y141024D01*
X378461Y140970D01*
X378461Y138430D01*
X378472Y138365D01*
X378474Y138299D01*
X378492Y138256D01*
X378500Y138209D01*
X378534Y138152D01*
X378559Y138092D01*
X378590Y138057D01*
X378615Y138016D01*
X378666Y137975D01*
X378710Y137926D01*
X378752Y137904D01*
X378789Y137875D01*
X378851Y137854D01*
X378910Y137823D01*
X378964Y137815D01*
X379001Y137803D01*
X379041Y137804D01*
X379095Y137796D01*
X382905Y137796D01*
X382970Y137807D01*
G37*
G36*
X149290Y137807D02*
X149290Y137807D01*
X149356Y137809D01*
X149399Y137827D01*
X149446Y137835D01*
X149503Y137869D01*
X149563Y137894D01*
X149598Y137925D01*
X149639Y137950D01*
X149681Y138001D01*
X149729Y138045D01*
X149751Y138087D01*
X149780Y138124D01*
X149801Y138186D01*
X149832Y138245D01*
X149840Y138299D01*
X149852Y138336D01*
X149851Y138376D01*
X149859Y138430D01*
X149859Y140970D01*
X149848Y141035D01*
X149846Y141101D01*
X149828Y141144D01*
X149820Y141191D01*
X149786Y141248D01*
X149761Y141308D01*
X149730Y141343D01*
X149705Y141384D01*
X149654Y141426D01*
X149610Y141474D01*
X149568Y141496D01*
X149531Y141525D01*
X149469Y141546D01*
X149410Y141577D01*
X149356Y141585D01*
X149319Y141597D01*
X149279Y141596D01*
X149225Y141604D01*
X145415Y141604D01*
X145350Y141593D01*
X145284Y141591D01*
X145241Y141573D01*
X145194Y141565D01*
X145137Y141531D01*
X145077Y141506D01*
X145042Y141475D01*
X145001Y141450D01*
X144960Y141399D01*
X144911Y141355D01*
X144889Y141313D01*
X144860Y141276D01*
X144839Y141214D01*
X144808Y141155D01*
X144800Y141101D01*
X144788Y141064D01*
X144788Y141061D01*
X144789Y141024D01*
X144781Y140970D01*
X144781Y138430D01*
X144792Y138365D01*
X144794Y138299D01*
X144812Y138256D01*
X144820Y138209D01*
X144854Y138152D01*
X144879Y138092D01*
X144910Y138057D01*
X144935Y138016D01*
X144986Y137975D01*
X145030Y137926D01*
X145072Y137904D01*
X145109Y137875D01*
X145171Y137854D01*
X145230Y137823D01*
X145284Y137815D01*
X145321Y137803D01*
X145361Y137804D01*
X145415Y137796D01*
X149225Y137796D01*
X149290Y137807D01*
G37*
G36*
X616650Y137807D02*
X616650Y137807D01*
X616716Y137809D01*
X616759Y137827D01*
X616806Y137835D01*
X616863Y137869D01*
X616923Y137894D01*
X616958Y137925D01*
X616999Y137950D01*
X617041Y138001D01*
X617089Y138045D01*
X617111Y138087D01*
X617140Y138124D01*
X617161Y138186D01*
X617192Y138245D01*
X617200Y138299D01*
X617212Y138336D01*
X617211Y138376D01*
X617219Y138430D01*
X617219Y140970D01*
X617208Y141035D01*
X617206Y141101D01*
X617188Y141144D01*
X617180Y141191D01*
X617146Y141248D01*
X617121Y141308D01*
X617090Y141343D01*
X617065Y141384D01*
X617014Y141426D01*
X616970Y141474D01*
X616928Y141496D01*
X616891Y141525D01*
X616829Y141546D01*
X616770Y141577D01*
X616716Y141585D01*
X616679Y141597D01*
X616639Y141596D01*
X616585Y141604D01*
X612775Y141604D01*
X612710Y141593D01*
X612644Y141591D01*
X612601Y141573D01*
X612554Y141565D01*
X612497Y141531D01*
X612437Y141506D01*
X612402Y141475D01*
X612361Y141450D01*
X612320Y141399D01*
X612271Y141355D01*
X612249Y141313D01*
X612220Y141276D01*
X612199Y141214D01*
X612168Y141155D01*
X612160Y141101D01*
X612148Y141064D01*
X612148Y141061D01*
X612149Y141024D01*
X612141Y140970D01*
X612141Y138430D01*
X612152Y138365D01*
X612154Y138299D01*
X612172Y138256D01*
X612180Y138209D01*
X612214Y138152D01*
X612239Y138092D01*
X612270Y138057D01*
X612295Y138016D01*
X612346Y137975D01*
X612390Y137926D01*
X612432Y137904D01*
X612469Y137875D01*
X612531Y137854D01*
X612590Y137823D01*
X612644Y137815D01*
X612681Y137803D01*
X612721Y137804D01*
X612775Y137796D01*
X616585Y137796D01*
X616650Y137807D01*
G37*
G36*
X631890Y29857D02*
X631890Y29857D01*
X631956Y29859D01*
X631999Y29877D01*
X632046Y29885D01*
X632103Y29919D01*
X632163Y29944D01*
X632198Y29975D01*
X632239Y30000D01*
X632281Y30051D01*
X632329Y30095D01*
X632351Y30137D01*
X632380Y30174D01*
X632401Y30236D01*
X632432Y30295D01*
X632440Y30349D01*
X632452Y30386D01*
X632451Y30426D01*
X632459Y30480D01*
X632459Y33020D01*
X632448Y33085D01*
X632446Y33151D01*
X632428Y33194D01*
X632420Y33241D01*
X632386Y33298D01*
X632361Y33358D01*
X632330Y33393D01*
X632305Y33434D01*
X632254Y33476D01*
X632210Y33524D01*
X632168Y33546D01*
X632131Y33575D01*
X632069Y33596D01*
X632010Y33627D01*
X631956Y33635D01*
X631919Y33647D01*
X631879Y33646D01*
X631825Y33654D01*
X628015Y33654D01*
X627950Y33643D01*
X627884Y33641D01*
X627841Y33623D01*
X627794Y33615D01*
X627737Y33581D01*
X627677Y33556D01*
X627642Y33525D01*
X627601Y33500D01*
X627560Y33449D01*
X627511Y33405D01*
X627489Y33363D01*
X627460Y33326D01*
X627439Y33264D01*
X627408Y33205D01*
X627400Y33151D01*
X627388Y33114D01*
X627388Y33111D01*
X627389Y33074D01*
X627381Y33020D01*
X627381Y30480D01*
X627392Y30415D01*
X627394Y30349D01*
X627412Y30306D01*
X627420Y30259D01*
X627454Y30202D01*
X627479Y30142D01*
X627510Y30107D01*
X627535Y30066D01*
X627586Y30025D01*
X627630Y29976D01*
X627672Y29954D01*
X627709Y29925D01*
X627771Y29904D01*
X627830Y29873D01*
X627884Y29865D01*
X627921Y29853D01*
X627961Y29854D01*
X628015Y29846D01*
X631825Y29846D01*
X631890Y29857D01*
G37*
G36*
X398210Y29857D02*
X398210Y29857D01*
X398276Y29859D01*
X398319Y29877D01*
X398366Y29885D01*
X398423Y29919D01*
X398483Y29944D01*
X398518Y29975D01*
X398559Y30000D01*
X398601Y30051D01*
X398649Y30095D01*
X398671Y30137D01*
X398700Y30174D01*
X398721Y30236D01*
X398752Y30295D01*
X398760Y30349D01*
X398772Y30386D01*
X398771Y30426D01*
X398779Y30480D01*
X398779Y33020D01*
X398768Y33085D01*
X398766Y33151D01*
X398748Y33194D01*
X398740Y33241D01*
X398706Y33298D01*
X398681Y33358D01*
X398650Y33393D01*
X398625Y33434D01*
X398574Y33476D01*
X398530Y33524D01*
X398488Y33546D01*
X398451Y33575D01*
X398389Y33596D01*
X398330Y33627D01*
X398276Y33635D01*
X398239Y33647D01*
X398199Y33646D01*
X398145Y33654D01*
X394335Y33654D01*
X394270Y33643D01*
X394204Y33641D01*
X394161Y33623D01*
X394114Y33615D01*
X394057Y33581D01*
X393997Y33556D01*
X393962Y33525D01*
X393921Y33500D01*
X393880Y33449D01*
X393831Y33405D01*
X393809Y33363D01*
X393780Y33326D01*
X393759Y33264D01*
X393728Y33205D01*
X393720Y33151D01*
X393708Y33114D01*
X393708Y33111D01*
X393709Y33074D01*
X393701Y33020D01*
X393701Y30480D01*
X393712Y30415D01*
X393714Y30349D01*
X393732Y30306D01*
X393740Y30259D01*
X393774Y30202D01*
X393799Y30142D01*
X393830Y30107D01*
X393855Y30066D01*
X393906Y30025D01*
X393950Y29976D01*
X393992Y29954D01*
X394029Y29925D01*
X394091Y29904D01*
X394150Y29873D01*
X394204Y29865D01*
X394241Y29853D01*
X394281Y29854D01*
X394335Y29846D01*
X398145Y29846D01*
X398210Y29857D01*
G37*
G36*
X164530Y29857D02*
X164530Y29857D01*
X164596Y29859D01*
X164639Y29877D01*
X164686Y29885D01*
X164743Y29919D01*
X164803Y29944D01*
X164838Y29975D01*
X164879Y30000D01*
X164921Y30051D01*
X164969Y30095D01*
X164991Y30137D01*
X165020Y30174D01*
X165041Y30236D01*
X165072Y30295D01*
X165080Y30349D01*
X165092Y30386D01*
X165091Y30426D01*
X165099Y30480D01*
X165099Y33020D01*
X165088Y33085D01*
X165086Y33151D01*
X165068Y33194D01*
X165060Y33241D01*
X165026Y33298D01*
X165001Y33358D01*
X164970Y33393D01*
X164945Y33434D01*
X164894Y33476D01*
X164850Y33524D01*
X164808Y33546D01*
X164771Y33575D01*
X164709Y33596D01*
X164650Y33627D01*
X164596Y33635D01*
X164559Y33647D01*
X164519Y33646D01*
X164465Y33654D01*
X160655Y33654D01*
X160590Y33643D01*
X160524Y33641D01*
X160481Y33623D01*
X160434Y33615D01*
X160377Y33581D01*
X160317Y33556D01*
X160282Y33525D01*
X160241Y33500D01*
X160200Y33449D01*
X160151Y33405D01*
X160129Y33363D01*
X160100Y33326D01*
X160079Y33264D01*
X160048Y33205D01*
X160040Y33151D01*
X160028Y33114D01*
X160028Y33111D01*
X160029Y33074D01*
X160021Y33020D01*
X160021Y30480D01*
X160032Y30415D01*
X160034Y30349D01*
X160052Y30306D01*
X160060Y30259D01*
X160094Y30202D01*
X160119Y30142D01*
X160150Y30107D01*
X160175Y30066D01*
X160226Y30025D01*
X160270Y29976D01*
X160312Y29954D01*
X160349Y29925D01*
X160411Y29904D01*
X160470Y29873D01*
X160524Y29865D01*
X160561Y29853D01*
X160601Y29854D01*
X160655Y29846D01*
X164465Y29846D01*
X164530Y29857D01*
G37*
D10*
X215900Y520700D03*
X215900Y495300D03*
X215900Y469900D03*
X215900Y444500D03*
X215900Y419100D03*
X215900Y393700D03*
X215900Y368300D03*
X215900Y342900D03*
X215900Y317500D03*
X215900Y292100D03*
X215900Y266700D03*
X215900Y241300D03*
X215900Y215900D03*
X215900Y190500D03*
X215900Y165100D03*
X215900Y139700D03*
X12700Y241300D03*
X12700Y266700D03*
X12700Y292100D03*
X12700Y317500D03*
X12700Y342900D03*
X12700Y368300D03*
X12700Y393700D03*
X12700Y419100D03*
X12700Y444500D03*
X12700Y469900D03*
X12700Y495300D03*
X12700Y520700D03*
D11*
X8890Y544830D03*
X177800Y12700D03*
D12*
X25400Y25400D03*
X203200Y25400D03*
D13*
X85400Y49050D03*
X143200Y49050D03*
D14*
X160018Y145544D02*
X165610Y145544D01*
X165610Y133856D01*
X160018Y133856D01*
X160018Y145544D01*
X160018Y136025D02*
X165610Y136025D01*
X165610Y138194D02*
X160018Y138194D01*
X160018Y140363D02*
X165610Y140363D01*
X165610Y142532D02*
X160018Y142532D01*
X160018Y144701D02*
X165610Y144701D01*
X155196Y145544D02*
X149604Y145544D01*
X155196Y145544D02*
X155196Y133856D01*
X149604Y133856D01*
X149604Y145544D01*
X149604Y136025D02*
X155196Y136025D01*
X155196Y138194D02*
X149604Y138194D01*
X149604Y140363D02*
X155196Y140363D01*
X155196Y142532D02*
X149604Y142532D01*
X149604Y144701D02*
X155196Y144701D01*
X144782Y145544D02*
X139190Y145544D01*
X144782Y145544D02*
X144782Y133856D01*
X139190Y133856D01*
X139190Y145544D01*
X139190Y136025D02*
X144782Y136025D01*
X144782Y138194D02*
X139190Y138194D01*
X139190Y140363D02*
X144782Y140363D01*
X144782Y142532D02*
X139190Y142532D01*
X139190Y144701D02*
X144782Y144701D01*
X151894Y105539D02*
X151894Y99947D01*
X140206Y99947D01*
X140206Y105539D01*
X151894Y105539D01*
X151894Y102116D02*
X140206Y102116D01*
X140206Y104285D02*
X151894Y104285D01*
X151894Y110361D02*
X151894Y115953D01*
X151894Y110361D02*
X140206Y110361D01*
X140206Y115953D01*
X151894Y115953D01*
X151894Y112530D02*
X140206Y112530D01*
X140206Y114699D02*
X151894Y114699D01*
X164971Y37594D02*
X170563Y37594D01*
X170563Y25906D01*
X164971Y25906D01*
X164971Y37594D01*
X164971Y28075D02*
X170563Y28075D01*
X170563Y30244D02*
X164971Y30244D01*
X164971Y32413D02*
X170563Y32413D01*
X170563Y34582D02*
X164971Y34582D01*
X164971Y36751D02*
X170563Y36751D01*
X160149Y37594D02*
X154557Y37594D01*
X160149Y37594D02*
X160149Y25906D01*
X154557Y25906D01*
X154557Y37594D01*
X154557Y28075D02*
X160149Y28075D01*
X160149Y30244D02*
X154557Y30244D01*
X154557Y32413D02*
X160149Y32413D01*
X160149Y34582D02*
X154557Y34582D01*
X154557Y36751D02*
X160149Y36751D01*
D15*
X205613Y113792D02*
X210947Y113792D01*
X210947Y102108D01*
X205613Y102108D01*
X205613Y113792D01*
X205613Y104280D02*
X210947Y104280D01*
X210947Y106452D02*
X205613Y106452D01*
X205613Y108624D02*
X210947Y108624D01*
X210947Y110796D02*
X205613Y110796D01*
X205613Y112968D02*
X210947Y112968D01*
X200787Y113792D02*
X195453Y113792D01*
X200787Y113792D02*
X200787Y102108D01*
X195453Y102108D01*
X195453Y113792D01*
X195453Y104280D02*
X200787Y104280D01*
X200787Y106452D02*
X195453Y106452D01*
X195453Y108624D02*
X200787Y108624D01*
X200787Y110796D02*
X195453Y110796D01*
X195453Y112968D02*
X200787Y112968D01*
D10*
X215900Y107950D03*
X190500Y107950D03*
D14*
X44956Y95760D02*
X44956Y90168D01*
X44956Y95760D02*
X56644Y95760D01*
X56644Y90168D01*
X44956Y90168D01*
X44956Y92337D02*
X56644Y92337D01*
X56644Y94506D02*
X44956Y94506D01*
X44956Y85346D02*
X44956Y79754D01*
X44956Y85346D02*
X56644Y85346D01*
X56644Y79754D01*
X44956Y79754D01*
X44956Y81923D02*
X56644Y81923D01*
X56644Y84092D02*
X44956Y84092D01*
X44956Y74932D02*
X44956Y69340D01*
X44956Y74932D02*
X56644Y74932D01*
X56644Y69340D01*
X44956Y69340D01*
X44956Y71509D02*
X56644Y71509D01*
X56644Y73678D02*
X44956Y73678D01*
D16*
X45893Y185893D02*
X54907Y185893D01*
X45893Y185893D02*
X45893Y189907D01*
X54907Y189907D01*
X54907Y185893D01*
X54907Y188037D02*
X45893Y188037D01*
X45893Y174893D02*
X54907Y174893D01*
X45893Y174893D02*
X45893Y178907D01*
X54907Y178907D01*
X54907Y174893D01*
X54907Y177037D02*
X45893Y177037D01*
X45893Y163893D02*
X54907Y163893D01*
X45893Y163893D02*
X45893Y167907D01*
X54907Y167907D01*
X54907Y163893D01*
X54907Y166037D02*
X45893Y166037D01*
X45893Y152893D02*
X54907Y152893D01*
X45893Y152893D02*
X45893Y156907D01*
X54907Y156907D01*
X54907Y152893D01*
X54907Y155037D02*
X45893Y155037D01*
X45893Y141893D02*
X54907Y141893D01*
X45893Y141893D02*
X45893Y145907D01*
X54907Y145907D01*
X54907Y141893D01*
X54907Y144037D02*
X45893Y144037D01*
X45893Y130893D02*
X54907Y130893D01*
X45893Y130893D02*
X45893Y134907D01*
X54907Y134907D01*
X54907Y130893D01*
X54907Y133037D02*
X45893Y133037D01*
X45893Y119893D02*
X54907Y119893D01*
X45893Y119893D02*
X45893Y123907D01*
X54907Y123907D01*
X54907Y119893D01*
X54907Y122037D02*
X45893Y122037D01*
X45893Y108893D02*
X54907Y108893D01*
X45893Y108893D02*
X45893Y112907D01*
X54907Y112907D01*
X54907Y108893D01*
X54907Y111037D02*
X45893Y111037D01*
D17*
X73808Y202808D02*
X73808Y208992D01*
X80592Y208992D01*
X80592Y202808D01*
X73808Y202808D01*
X73808Y204981D02*
X80592Y204981D01*
X80592Y207154D02*
X73808Y207154D01*
D18*
X85042Y201192D02*
X94758Y201192D01*
X85042Y201192D02*
X85042Y210608D01*
X94758Y210608D01*
X94758Y201192D01*
X94758Y203428D02*
X85042Y203428D01*
X85042Y205664D02*
X94758Y205664D01*
X94758Y207900D02*
X85042Y207900D01*
X85042Y210136D02*
X94758Y210136D01*
X110542Y201192D02*
X121458Y201192D01*
X110542Y201192D02*
X110542Y210608D01*
X121458Y210608D01*
X121458Y201192D01*
X121458Y203428D02*
X110542Y203428D01*
X110542Y205664D02*
X121458Y205664D01*
X121458Y207900D02*
X110542Y207900D01*
X110542Y210136D02*
X121458Y210136D01*
X115758Y94442D02*
X104842Y94442D01*
X104842Y103858D01*
X115758Y103858D01*
X115758Y94442D01*
X115758Y96678D02*
X104842Y96678D01*
X104842Y98914D02*
X115758Y98914D01*
X115758Y101150D02*
X104842Y101150D01*
X104842Y103386D02*
X115758Y103386D01*
X89858Y94442D02*
X67042Y94442D01*
X67042Y103858D01*
X89858Y103858D01*
X89858Y94442D01*
X89858Y96678D02*
X67042Y96678D01*
X67042Y98914D02*
X89858Y98914D01*
X89858Y101150D02*
X67042Y101150D01*
X67042Y103386D02*
X89858Y103386D01*
D19*
X125018Y116882D02*
X125018Y145018D01*
X125018Y116882D02*
X120482Y116882D01*
X120482Y145018D01*
X125018Y145018D01*
X125018Y119004D02*
X120482Y119004D01*
X120482Y121126D02*
X125018Y121126D01*
X125018Y123248D02*
X120482Y123248D01*
X120482Y125370D02*
X125018Y125370D01*
X125018Y127492D02*
X120482Y127492D01*
X120482Y129614D02*
X125018Y129614D01*
X125018Y131736D02*
X120482Y131736D01*
X120482Y133858D02*
X125018Y133858D01*
X125018Y135980D02*
X120482Y135980D01*
X120482Y138102D02*
X125018Y138102D01*
X125018Y140224D02*
X120482Y140224D01*
X120482Y142346D02*
X125018Y142346D01*
X125018Y144468D02*
X120482Y144468D01*
X125018Y158782D02*
X125018Y186918D01*
X125018Y158782D02*
X120482Y158782D01*
X120482Y186918D01*
X125018Y186918D01*
X125018Y160904D02*
X120482Y160904D01*
X120482Y163026D02*
X125018Y163026D01*
X125018Y165148D02*
X120482Y165148D01*
X120482Y167270D02*
X125018Y167270D01*
X125018Y169392D02*
X120482Y169392D01*
X120482Y171514D02*
X125018Y171514D01*
X125018Y173636D02*
X120482Y173636D01*
X120482Y175758D02*
X125018Y175758D01*
X125018Y177880D02*
X120482Y177880D01*
X120482Y180002D02*
X125018Y180002D01*
X125018Y182124D02*
X120482Y182124D01*
X120482Y184246D02*
X125018Y184246D01*
X125018Y186368D02*
X120482Y186368D01*
D20*
X88900Y393700D03*
X88900Y406400D03*
X101600Y393700D03*
X101600Y406400D03*
X114300Y393700D03*
X114300Y406400D03*
X127000Y393700D03*
X127000Y406400D03*
X139700Y393700D03*
X139700Y406400D03*
D14*
X23624Y64899D02*
X23624Y59307D01*
X11936Y59307D01*
X11936Y64899D01*
X23624Y64899D01*
X23624Y61476D02*
X11936Y61476D01*
X11936Y63645D02*
X23624Y63645D01*
X23624Y69721D02*
X23624Y75313D01*
X23624Y69721D02*
X11936Y69721D01*
X11936Y75313D01*
X23624Y75313D01*
X23624Y71890D02*
X11936Y71890D01*
X11936Y74059D02*
X23624Y74059D01*
D21*
X133350Y304800D03*
X146050Y304800D03*
X133350Y317500D03*
X146050Y317500D03*
X133350Y330200D03*
X146050Y330200D03*
D22*
X93868Y320008D02*
X88852Y320008D01*
X93868Y320008D02*
X93868Y314992D01*
X88852Y314992D01*
X88852Y320008D01*
X88852Y317133D02*
X93868Y317133D01*
X93868Y319274D02*
X88852Y319274D01*
X83868Y320008D02*
X78852Y320008D01*
X83868Y320008D02*
X83868Y314992D01*
X78852Y314992D01*
X78852Y320008D01*
X78852Y317133D02*
X83868Y317133D01*
X83868Y319274D02*
X78852Y319274D01*
X88852Y307308D02*
X93868Y307308D01*
X93868Y302292D01*
X88852Y302292D01*
X88852Y307308D01*
X88852Y304433D02*
X93868Y304433D01*
X93868Y306574D02*
X88852Y306574D01*
X83868Y307308D02*
X78852Y307308D01*
X83868Y307308D02*
X83868Y302292D01*
X78852Y302292D01*
X78852Y307308D01*
X78852Y304433D02*
X83868Y304433D01*
X83868Y306574D02*
X78852Y306574D01*
D21*
X177800Y342900D03*
X177800Y355600D03*
X165100Y342900D03*
X165100Y355600D03*
X127000Y279400D03*
X114300Y279400D03*
X177800Y368300D03*
X165100Y368300D03*
D22*
X104188Y353092D02*
X99172Y353092D01*
X99172Y358108D01*
X104188Y358108D01*
X104188Y353092D01*
X104188Y355233D02*
X99172Y355233D01*
X99172Y357374D02*
X104188Y357374D01*
X109172Y353092D02*
X114188Y353092D01*
X109172Y353092D02*
X109172Y358108D01*
X114188Y358108D01*
X114188Y353092D01*
X114188Y355233D02*
X109172Y355233D01*
X109172Y357374D02*
X114188Y357374D01*
X93868Y281908D02*
X88852Y281908D01*
X93868Y281908D02*
X93868Y276892D01*
X88852Y276892D01*
X88852Y281908D01*
X88852Y279033D02*
X93868Y279033D01*
X93868Y281174D02*
X88852Y281174D01*
X83868Y281908D02*
X78852Y281908D01*
X83868Y281908D02*
X83868Y276892D01*
X78852Y276892D01*
X78852Y281908D01*
X78852Y279033D02*
X83868Y279033D01*
X83868Y281174D02*
X78852Y281174D01*
X88852Y294608D02*
X93868Y294608D01*
X93868Y289592D01*
X88852Y289592D01*
X88852Y294608D01*
X88852Y291733D02*
X93868Y291733D01*
X93868Y293874D02*
X88852Y293874D01*
X83868Y294608D02*
X78852Y294608D01*
X83868Y294608D02*
X83868Y289592D01*
X78852Y289592D01*
X78852Y294608D01*
X78852Y291733D02*
X83868Y291733D01*
X83868Y293874D02*
X78852Y293874D01*
X88852Y332708D02*
X93868Y332708D01*
X93868Y327692D01*
X88852Y327692D01*
X88852Y332708D01*
X88852Y329833D02*
X93868Y329833D01*
X93868Y331974D02*
X88852Y331974D01*
X83868Y332708D02*
X78852Y332708D01*
X83868Y332708D02*
X83868Y327692D01*
X78852Y327692D01*
X78852Y332708D01*
X78852Y329833D02*
X83868Y329833D01*
X83868Y331974D02*
X78852Y331974D01*
X106792Y327692D02*
X111808Y327692D01*
X106792Y327692D02*
X106792Y332708D01*
X111808Y332708D01*
X111808Y327692D01*
X111808Y329833D02*
X106792Y329833D01*
X106792Y331974D02*
X111808Y331974D01*
X116792Y327692D02*
X121808Y327692D01*
X116792Y327692D02*
X116792Y332708D01*
X121808Y332708D01*
X121808Y327692D01*
X121808Y329833D02*
X116792Y329833D01*
X116792Y331974D02*
X121808Y331974D01*
X93868Y358108D02*
X88852Y358108D01*
X93868Y358108D02*
X93868Y353092D01*
X88852Y353092D01*
X88852Y358108D01*
X88852Y355233D02*
X93868Y355233D01*
X93868Y357374D02*
X88852Y357374D01*
X83868Y358108D02*
X78852Y358108D01*
X83868Y358108D02*
X83868Y353092D01*
X78852Y353092D01*
X78852Y358108D01*
X78852Y355233D02*
X83868Y355233D01*
X83868Y357374D02*
X78852Y357374D01*
X88852Y345408D02*
X93868Y345408D01*
X93868Y340392D01*
X88852Y340392D01*
X88852Y345408D01*
X88852Y342533D02*
X93868Y342533D01*
X93868Y344674D02*
X88852Y344674D01*
X83868Y345408D02*
X78852Y345408D01*
X83868Y345408D02*
X83868Y340392D01*
X78852Y340392D01*
X78852Y345408D01*
X78852Y342533D02*
X83868Y342533D01*
X83868Y344674D02*
X78852Y344674D01*
D23*
X164248Y379498D02*
X167252Y379498D01*
X164248Y379498D02*
X164248Y382502D01*
X167252Y382502D01*
X167252Y379498D01*
X167252Y381651D02*
X164248Y381651D01*
X153252Y379498D02*
X150248Y379498D01*
X150248Y382502D01*
X153252Y382502D01*
X153252Y379498D01*
X153252Y381651D02*
X150248Y381651D01*
D14*
X165606Y300103D02*
X165606Y294511D01*
X165606Y300103D02*
X177294Y300103D01*
X177294Y294511D01*
X165606Y294511D01*
X165606Y296680D02*
X177294Y296680D01*
X177294Y298849D02*
X165606Y298849D01*
X165606Y289689D02*
X165606Y284097D01*
X165606Y289689D02*
X177294Y289689D01*
X177294Y284097D01*
X165606Y284097D01*
X165606Y286266D02*
X177294Y286266D01*
X177294Y288435D02*
X165606Y288435D01*
D10*
X449580Y520700D03*
X449580Y495300D03*
X449580Y469900D03*
X449580Y444500D03*
X449580Y419100D03*
X449580Y393700D03*
X449580Y368300D03*
X449580Y342900D03*
X449580Y317500D03*
X449580Y292100D03*
X449580Y266700D03*
X449580Y241300D03*
X449580Y215900D03*
X449580Y190500D03*
X449580Y165100D03*
X449580Y139700D03*
X246380Y241300D03*
X246380Y266700D03*
X246380Y292100D03*
X246380Y317500D03*
X246380Y342900D03*
X246380Y368300D03*
X246380Y393700D03*
X246380Y419100D03*
X246380Y444500D03*
X246380Y469900D03*
X246380Y495300D03*
X246380Y520700D03*
D11*
X242570Y544830D03*
X411480Y12700D03*
D12*
X259080Y25400D03*
X436880Y25400D03*
D13*
X319080Y49050D03*
X376880Y49050D03*
D14*
X393698Y145544D02*
X399290Y145544D01*
X399290Y133856D01*
X393698Y133856D01*
X393698Y145544D01*
X393698Y136025D02*
X399290Y136025D01*
X399290Y138194D02*
X393698Y138194D01*
X393698Y140363D02*
X399290Y140363D01*
X399290Y142532D02*
X393698Y142532D01*
X393698Y144701D02*
X399290Y144701D01*
X388876Y145544D02*
X383284Y145544D01*
X388876Y145544D02*
X388876Y133856D01*
X383284Y133856D01*
X383284Y145544D01*
X383284Y136025D02*
X388876Y136025D01*
X388876Y138194D02*
X383284Y138194D01*
X383284Y140363D02*
X388876Y140363D01*
X388876Y142532D02*
X383284Y142532D01*
X383284Y144701D02*
X388876Y144701D01*
X378462Y145544D02*
X372870Y145544D01*
X378462Y145544D02*
X378462Y133856D01*
X372870Y133856D01*
X372870Y145544D01*
X372870Y136025D02*
X378462Y136025D01*
X378462Y138194D02*
X372870Y138194D01*
X372870Y140363D02*
X378462Y140363D01*
X378462Y142532D02*
X372870Y142532D01*
X372870Y144701D02*
X378462Y144701D01*
X385574Y105539D02*
X385574Y99947D01*
X373886Y99947D01*
X373886Y105539D01*
X385574Y105539D01*
X385574Y102116D02*
X373886Y102116D01*
X373886Y104285D02*
X385574Y104285D01*
X385574Y110361D02*
X385574Y115953D01*
X385574Y110361D02*
X373886Y110361D01*
X373886Y115953D01*
X385574Y115953D01*
X385574Y112530D02*
X373886Y112530D01*
X373886Y114699D02*
X385574Y114699D01*
X398651Y37594D02*
X404243Y37594D01*
X404243Y25906D01*
X398651Y25906D01*
X398651Y37594D01*
X398651Y28075D02*
X404243Y28075D01*
X404243Y30244D02*
X398651Y30244D01*
X398651Y32413D02*
X404243Y32413D01*
X404243Y34582D02*
X398651Y34582D01*
X398651Y36751D02*
X404243Y36751D01*
X393829Y37594D02*
X388237Y37594D01*
X393829Y37594D02*
X393829Y25906D01*
X388237Y25906D01*
X388237Y37594D01*
X388237Y28075D02*
X393829Y28075D01*
X393829Y30244D02*
X388237Y30244D01*
X388237Y32413D02*
X393829Y32413D01*
X393829Y34582D02*
X388237Y34582D01*
X388237Y36751D02*
X393829Y36751D01*
D15*
X439293Y113792D02*
X444627Y113792D01*
X444627Y102108D01*
X439293Y102108D01*
X439293Y113792D01*
X439293Y104280D02*
X444627Y104280D01*
X444627Y106452D02*
X439293Y106452D01*
X439293Y108624D02*
X444627Y108624D01*
X444627Y110796D02*
X439293Y110796D01*
X439293Y112968D02*
X444627Y112968D01*
X434467Y113792D02*
X429133Y113792D01*
X434467Y113792D02*
X434467Y102108D01*
X429133Y102108D01*
X429133Y113792D01*
X429133Y104280D02*
X434467Y104280D01*
X434467Y106452D02*
X429133Y106452D01*
X429133Y108624D02*
X434467Y108624D01*
X434467Y110796D02*
X429133Y110796D01*
X429133Y112968D02*
X434467Y112968D01*
D10*
X449580Y107950D03*
X424180Y107950D03*
D14*
X278636Y95760D02*
X278636Y90168D01*
X278636Y95760D02*
X290324Y95760D01*
X290324Y90168D01*
X278636Y90168D01*
X278636Y92337D02*
X290324Y92337D01*
X290324Y94506D02*
X278636Y94506D01*
X278636Y85346D02*
X278636Y79754D01*
X278636Y85346D02*
X290324Y85346D01*
X290324Y79754D01*
X278636Y79754D01*
X278636Y81923D02*
X290324Y81923D01*
X290324Y84092D02*
X278636Y84092D01*
X278636Y74932D02*
X278636Y69340D01*
X278636Y74932D02*
X290324Y74932D01*
X290324Y69340D01*
X278636Y69340D01*
X278636Y71509D02*
X290324Y71509D01*
X290324Y73678D02*
X278636Y73678D01*
D16*
X279573Y185893D02*
X288587Y185893D01*
X279573Y185893D02*
X279573Y189907D01*
X288587Y189907D01*
X288587Y185893D01*
X288587Y188037D02*
X279573Y188037D01*
X279573Y174893D02*
X288587Y174893D01*
X279573Y174893D02*
X279573Y178907D01*
X288587Y178907D01*
X288587Y174893D01*
X288587Y177037D02*
X279573Y177037D01*
X279573Y163893D02*
X288587Y163893D01*
X279573Y163893D02*
X279573Y167907D01*
X288587Y167907D01*
X288587Y163893D01*
X288587Y166037D02*
X279573Y166037D01*
X279573Y152893D02*
X288587Y152893D01*
X279573Y152893D02*
X279573Y156907D01*
X288587Y156907D01*
X288587Y152893D01*
X288587Y155037D02*
X279573Y155037D01*
X279573Y141893D02*
X288587Y141893D01*
X279573Y141893D02*
X279573Y145907D01*
X288587Y145907D01*
X288587Y141893D01*
X288587Y144037D02*
X279573Y144037D01*
X279573Y130893D02*
X288587Y130893D01*
X279573Y130893D02*
X279573Y134907D01*
X288587Y134907D01*
X288587Y130893D01*
X288587Y133037D02*
X279573Y133037D01*
X279573Y119893D02*
X288587Y119893D01*
X279573Y119893D02*
X279573Y123907D01*
X288587Y123907D01*
X288587Y119893D01*
X288587Y122037D02*
X279573Y122037D01*
X279573Y108893D02*
X288587Y108893D01*
X279573Y108893D02*
X279573Y112907D01*
X288587Y112907D01*
X288587Y108893D01*
X288587Y111037D02*
X279573Y111037D01*
D17*
X307488Y202808D02*
X307488Y208992D01*
X314272Y208992D01*
X314272Y202808D01*
X307488Y202808D01*
X307488Y204981D02*
X314272Y204981D01*
X314272Y207154D02*
X307488Y207154D01*
D18*
X318722Y201192D02*
X328438Y201192D01*
X318722Y201192D02*
X318722Y210608D01*
X328438Y210608D01*
X328438Y201192D01*
X328438Y203428D02*
X318722Y203428D01*
X318722Y205664D02*
X328438Y205664D01*
X328438Y207900D02*
X318722Y207900D01*
X318722Y210136D02*
X328438Y210136D01*
X344222Y201192D02*
X355138Y201192D01*
X344222Y201192D02*
X344222Y210608D01*
X355138Y210608D01*
X355138Y201192D01*
X355138Y203428D02*
X344222Y203428D01*
X344222Y205664D02*
X355138Y205664D01*
X355138Y207900D02*
X344222Y207900D01*
X344222Y210136D02*
X355138Y210136D01*
X349438Y94442D02*
X338522Y94442D01*
X338522Y103858D01*
X349438Y103858D01*
X349438Y94442D01*
X349438Y96678D02*
X338522Y96678D01*
X338522Y98914D02*
X349438Y98914D01*
X349438Y101150D02*
X338522Y101150D01*
X338522Y103386D02*
X349438Y103386D01*
X323538Y94442D02*
X300722Y94442D01*
X300722Y103858D01*
X323538Y103858D01*
X323538Y94442D01*
X323538Y96678D02*
X300722Y96678D01*
X300722Y98914D02*
X323538Y98914D01*
X323538Y101150D02*
X300722Y101150D01*
X300722Y103386D02*
X323538Y103386D01*
D19*
X358698Y116882D02*
X358698Y145018D01*
X358698Y116882D02*
X354162Y116882D01*
X354162Y145018D01*
X358698Y145018D01*
X358698Y119004D02*
X354162Y119004D01*
X354162Y121126D02*
X358698Y121126D01*
X358698Y123248D02*
X354162Y123248D01*
X354162Y125370D02*
X358698Y125370D01*
X358698Y127492D02*
X354162Y127492D01*
X354162Y129614D02*
X358698Y129614D01*
X358698Y131736D02*
X354162Y131736D01*
X354162Y133858D02*
X358698Y133858D01*
X358698Y135980D02*
X354162Y135980D01*
X354162Y138102D02*
X358698Y138102D01*
X358698Y140224D02*
X354162Y140224D01*
X354162Y142346D02*
X358698Y142346D01*
X358698Y144468D02*
X354162Y144468D01*
X358698Y158782D02*
X358698Y186918D01*
X358698Y158782D02*
X354162Y158782D01*
X354162Y186918D01*
X358698Y186918D01*
X358698Y160904D02*
X354162Y160904D01*
X354162Y163026D02*
X358698Y163026D01*
X358698Y165148D02*
X354162Y165148D01*
X354162Y167270D02*
X358698Y167270D01*
X358698Y169392D02*
X354162Y169392D01*
X354162Y171514D02*
X358698Y171514D01*
X358698Y173636D02*
X354162Y173636D01*
X354162Y175758D02*
X358698Y175758D01*
X358698Y177880D02*
X354162Y177880D01*
X354162Y180002D02*
X358698Y180002D01*
X358698Y182124D02*
X354162Y182124D01*
X354162Y184246D02*
X358698Y184246D01*
X358698Y186368D02*
X354162Y186368D01*
D20*
X322580Y393700D03*
X322580Y406400D03*
X335280Y393700D03*
X335280Y406400D03*
X347980Y393700D03*
X347980Y406400D03*
X360680Y393700D03*
X360680Y406400D03*
X373380Y393700D03*
X373380Y406400D03*
D14*
X257304Y64899D02*
X257304Y59307D01*
X245616Y59307D01*
X245616Y64899D01*
X257304Y64899D01*
X257304Y61476D02*
X245616Y61476D01*
X245616Y63645D02*
X257304Y63645D01*
X257304Y69721D02*
X257304Y75313D01*
X257304Y69721D02*
X245616Y69721D01*
X245616Y75313D01*
X257304Y75313D01*
X257304Y71890D02*
X245616Y71890D01*
X245616Y74059D02*
X257304Y74059D01*
D21*
X367030Y304800D03*
X379730Y304800D03*
X367030Y317500D03*
X379730Y317500D03*
X367030Y330200D03*
X379730Y330200D03*
D22*
X327548Y320008D02*
X322532Y320008D01*
X327548Y320008D02*
X327548Y314992D01*
X322532Y314992D01*
X322532Y320008D01*
X322532Y317133D02*
X327548Y317133D01*
X327548Y319274D02*
X322532Y319274D01*
X317548Y320008D02*
X312532Y320008D01*
X317548Y320008D02*
X317548Y314992D01*
X312532Y314992D01*
X312532Y320008D01*
X312532Y317133D02*
X317548Y317133D01*
X317548Y319274D02*
X312532Y319274D01*
X322532Y307308D02*
X327548Y307308D01*
X327548Y302292D01*
X322532Y302292D01*
X322532Y307308D01*
X322532Y304433D02*
X327548Y304433D01*
X327548Y306574D02*
X322532Y306574D01*
X317548Y307308D02*
X312532Y307308D01*
X317548Y307308D02*
X317548Y302292D01*
X312532Y302292D01*
X312532Y307308D01*
X312532Y304433D02*
X317548Y304433D01*
X317548Y306574D02*
X312532Y306574D01*
D21*
X411480Y342900D03*
X411480Y355600D03*
X398780Y342900D03*
X398780Y355600D03*
X360680Y279400D03*
X347980Y279400D03*
X411480Y368300D03*
X398780Y368300D03*
D22*
X337868Y353092D02*
X332852Y353092D01*
X332852Y358108D01*
X337868Y358108D01*
X337868Y353092D01*
X337868Y355233D02*
X332852Y355233D01*
X332852Y357374D02*
X337868Y357374D01*
X342852Y353092D02*
X347868Y353092D01*
X342852Y353092D02*
X342852Y358108D01*
X347868Y358108D01*
X347868Y353092D01*
X347868Y355233D02*
X342852Y355233D01*
X342852Y357374D02*
X347868Y357374D01*
X327548Y281908D02*
X322532Y281908D01*
X327548Y281908D02*
X327548Y276892D01*
X322532Y276892D01*
X322532Y281908D01*
X322532Y279033D02*
X327548Y279033D01*
X327548Y281174D02*
X322532Y281174D01*
X317548Y281908D02*
X312532Y281908D01*
X317548Y281908D02*
X317548Y276892D01*
X312532Y276892D01*
X312532Y281908D01*
X312532Y279033D02*
X317548Y279033D01*
X317548Y281174D02*
X312532Y281174D01*
X322532Y294608D02*
X327548Y294608D01*
X327548Y289592D01*
X322532Y289592D01*
X322532Y294608D01*
X322532Y291733D02*
X327548Y291733D01*
X327548Y293874D02*
X322532Y293874D01*
X317548Y294608D02*
X312532Y294608D01*
X317548Y294608D02*
X317548Y289592D01*
X312532Y289592D01*
X312532Y294608D01*
X312532Y291733D02*
X317548Y291733D01*
X317548Y293874D02*
X312532Y293874D01*
X322532Y332708D02*
X327548Y332708D01*
X327548Y327692D01*
X322532Y327692D01*
X322532Y332708D01*
X322532Y329833D02*
X327548Y329833D01*
X327548Y331974D02*
X322532Y331974D01*
X317548Y332708D02*
X312532Y332708D01*
X317548Y332708D02*
X317548Y327692D01*
X312532Y327692D01*
X312532Y332708D01*
X312532Y329833D02*
X317548Y329833D01*
X317548Y331974D02*
X312532Y331974D01*
X340472Y327692D02*
X345488Y327692D01*
X340472Y327692D02*
X340472Y332708D01*
X345488Y332708D01*
X345488Y327692D01*
X345488Y329833D02*
X340472Y329833D01*
X340472Y331974D02*
X345488Y331974D01*
X350472Y327692D02*
X355488Y327692D01*
X350472Y327692D02*
X350472Y332708D01*
X355488Y332708D01*
X355488Y327692D01*
X355488Y329833D02*
X350472Y329833D01*
X350472Y331974D02*
X355488Y331974D01*
X327548Y358108D02*
X322532Y358108D01*
X327548Y358108D02*
X327548Y353092D01*
X322532Y353092D01*
X322532Y358108D01*
X322532Y355233D02*
X327548Y355233D01*
X327548Y357374D02*
X322532Y357374D01*
X317548Y358108D02*
X312532Y358108D01*
X317548Y358108D02*
X317548Y353092D01*
X312532Y353092D01*
X312532Y358108D01*
X312532Y355233D02*
X317548Y355233D01*
X317548Y357374D02*
X312532Y357374D01*
X322532Y345408D02*
X327548Y345408D01*
X327548Y340392D01*
X322532Y340392D01*
X322532Y345408D01*
X322532Y342533D02*
X327548Y342533D01*
X327548Y344674D02*
X322532Y344674D01*
X317548Y345408D02*
X312532Y345408D01*
X317548Y345408D02*
X317548Y340392D01*
X312532Y340392D01*
X312532Y345408D01*
X312532Y342533D02*
X317548Y342533D01*
X317548Y344674D02*
X312532Y344674D01*
D23*
X397928Y379498D02*
X400932Y379498D01*
X397928Y379498D02*
X397928Y382502D01*
X400932Y382502D01*
X400932Y379498D01*
X400932Y381651D02*
X397928Y381651D01*
X386932Y379498D02*
X383928Y379498D01*
X383928Y382502D01*
X386932Y382502D01*
X386932Y379498D01*
X386932Y381651D02*
X383928Y381651D01*
D14*
X399286Y300103D02*
X399286Y294511D01*
X399286Y300103D02*
X410974Y300103D01*
X410974Y294511D01*
X399286Y294511D01*
X399286Y296680D02*
X410974Y296680D01*
X410974Y298849D02*
X399286Y298849D01*
X399286Y289689D02*
X399286Y284097D01*
X399286Y289689D02*
X410974Y289689D01*
X410974Y284097D01*
X399286Y284097D01*
X399286Y286266D02*
X410974Y286266D01*
X410974Y288435D02*
X399286Y288435D01*
D10*
X683260Y520700D03*
X683260Y495300D03*
X683260Y469900D03*
X683260Y444500D03*
X683260Y419100D03*
X683260Y393700D03*
X683260Y368300D03*
X683260Y342900D03*
X683260Y317500D03*
X683260Y292100D03*
X683260Y266700D03*
X683260Y241300D03*
X683260Y215900D03*
X683260Y190500D03*
X683260Y165100D03*
X683260Y139700D03*
X480060Y241300D03*
X480060Y266700D03*
X480060Y292100D03*
X480060Y317500D03*
X480060Y342900D03*
X480060Y368300D03*
X480060Y393700D03*
X480060Y419100D03*
X480060Y444500D03*
X480060Y469900D03*
X480060Y495300D03*
X480060Y520700D03*
D11*
X476250Y544830D03*
X645160Y12700D03*
D12*
X492760Y25400D03*
X670560Y25400D03*
D13*
X552760Y49050D03*
X610560Y49050D03*
D14*
X627378Y145544D02*
X632970Y145544D01*
X632970Y133856D01*
X627378Y133856D01*
X627378Y145544D01*
X627378Y136025D02*
X632970Y136025D01*
X632970Y138194D02*
X627378Y138194D01*
X627378Y140363D02*
X632970Y140363D01*
X632970Y142532D02*
X627378Y142532D01*
X627378Y144701D02*
X632970Y144701D01*
X622556Y145544D02*
X616964Y145544D01*
X622556Y145544D02*
X622556Y133856D01*
X616964Y133856D01*
X616964Y145544D01*
X616964Y136025D02*
X622556Y136025D01*
X622556Y138194D02*
X616964Y138194D01*
X616964Y140363D02*
X622556Y140363D01*
X622556Y142532D02*
X616964Y142532D01*
X616964Y144701D02*
X622556Y144701D01*
X612142Y145544D02*
X606550Y145544D01*
X612142Y145544D02*
X612142Y133856D01*
X606550Y133856D01*
X606550Y145544D01*
X606550Y136025D02*
X612142Y136025D01*
X612142Y138194D02*
X606550Y138194D01*
X606550Y140363D02*
X612142Y140363D01*
X612142Y142532D02*
X606550Y142532D01*
X606550Y144701D02*
X612142Y144701D01*
X619254Y105539D02*
X619254Y99947D01*
X607566Y99947D01*
X607566Y105539D01*
X619254Y105539D01*
X619254Y102116D02*
X607566Y102116D01*
X607566Y104285D02*
X619254Y104285D01*
X619254Y110361D02*
X619254Y115953D01*
X619254Y110361D02*
X607566Y110361D01*
X607566Y115953D01*
X619254Y115953D01*
X619254Y112530D02*
X607566Y112530D01*
X607566Y114699D02*
X619254Y114699D01*
X632331Y37594D02*
X637923Y37594D01*
X637923Y25906D01*
X632331Y25906D01*
X632331Y37594D01*
X632331Y28075D02*
X637923Y28075D01*
X637923Y30244D02*
X632331Y30244D01*
X632331Y32413D02*
X637923Y32413D01*
X637923Y34582D02*
X632331Y34582D01*
X632331Y36751D02*
X637923Y36751D01*
X627509Y37594D02*
X621917Y37594D01*
X627509Y37594D02*
X627509Y25906D01*
X621917Y25906D01*
X621917Y37594D01*
X621917Y28075D02*
X627509Y28075D01*
X627509Y30244D02*
X621917Y30244D01*
X621917Y32413D02*
X627509Y32413D01*
X627509Y34582D02*
X621917Y34582D01*
X621917Y36751D02*
X627509Y36751D01*
D15*
X672973Y113792D02*
X678307Y113792D01*
X678307Y102108D01*
X672973Y102108D01*
X672973Y113792D01*
X672973Y104280D02*
X678307Y104280D01*
X678307Y106452D02*
X672973Y106452D01*
X672973Y108624D02*
X678307Y108624D01*
X678307Y110796D02*
X672973Y110796D01*
X672973Y112968D02*
X678307Y112968D01*
X668147Y113792D02*
X662813Y113792D01*
X668147Y113792D02*
X668147Y102108D01*
X662813Y102108D01*
X662813Y113792D01*
X662813Y104280D02*
X668147Y104280D01*
X668147Y106452D02*
X662813Y106452D01*
X662813Y108624D02*
X668147Y108624D01*
X668147Y110796D02*
X662813Y110796D01*
X662813Y112968D02*
X668147Y112968D01*
D10*
X683260Y107950D03*
X657860Y107950D03*
D14*
X512316Y95760D02*
X512316Y90168D01*
X512316Y95760D02*
X524004Y95760D01*
X524004Y90168D01*
X512316Y90168D01*
X512316Y92337D02*
X524004Y92337D01*
X524004Y94506D02*
X512316Y94506D01*
X512316Y85346D02*
X512316Y79754D01*
X512316Y85346D02*
X524004Y85346D01*
X524004Y79754D01*
X512316Y79754D01*
X512316Y81923D02*
X524004Y81923D01*
X524004Y84092D02*
X512316Y84092D01*
X512316Y74932D02*
X512316Y69340D01*
X512316Y74932D02*
X524004Y74932D01*
X524004Y69340D01*
X512316Y69340D01*
X512316Y71509D02*
X524004Y71509D01*
X524004Y73678D02*
X512316Y73678D01*
D16*
X513253Y185893D02*
X522267Y185893D01*
X513253Y185893D02*
X513253Y189907D01*
X522267Y189907D01*
X522267Y185893D01*
X522267Y188037D02*
X513253Y188037D01*
X513253Y174893D02*
X522267Y174893D01*
X513253Y174893D02*
X513253Y178907D01*
X522267Y178907D01*
X522267Y174893D01*
X522267Y177037D02*
X513253Y177037D01*
X513253Y163893D02*
X522267Y163893D01*
X513253Y163893D02*
X513253Y167907D01*
X522267Y167907D01*
X522267Y163893D01*
X522267Y166037D02*
X513253Y166037D01*
X513253Y152893D02*
X522267Y152893D01*
X513253Y152893D02*
X513253Y156907D01*
X522267Y156907D01*
X522267Y152893D01*
X522267Y155037D02*
X513253Y155037D01*
X513253Y141893D02*
X522267Y141893D01*
X513253Y141893D02*
X513253Y145907D01*
X522267Y145907D01*
X522267Y141893D01*
X522267Y144037D02*
X513253Y144037D01*
X513253Y130893D02*
X522267Y130893D01*
X513253Y130893D02*
X513253Y134907D01*
X522267Y134907D01*
X522267Y130893D01*
X522267Y133037D02*
X513253Y133037D01*
X513253Y119893D02*
X522267Y119893D01*
X513253Y119893D02*
X513253Y123907D01*
X522267Y123907D01*
X522267Y119893D01*
X522267Y122037D02*
X513253Y122037D01*
X513253Y108893D02*
X522267Y108893D01*
X513253Y108893D02*
X513253Y112907D01*
X522267Y112907D01*
X522267Y108893D01*
X522267Y111037D02*
X513253Y111037D01*
D17*
X541168Y202808D02*
X541168Y208992D01*
X547952Y208992D01*
X547952Y202808D01*
X541168Y202808D01*
X541168Y204981D02*
X547952Y204981D01*
X547952Y207154D02*
X541168Y207154D01*
D18*
X552402Y201192D02*
X562118Y201192D01*
X552402Y201192D02*
X552402Y210608D01*
X562118Y210608D01*
X562118Y201192D01*
X562118Y203428D02*
X552402Y203428D01*
X552402Y205664D02*
X562118Y205664D01*
X562118Y207900D02*
X552402Y207900D01*
X552402Y210136D02*
X562118Y210136D01*
X577902Y201192D02*
X588818Y201192D01*
X577902Y201192D02*
X577902Y210608D01*
X588818Y210608D01*
X588818Y201192D01*
X588818Y203428D02*
X577902Y203428D01*
X577902Y205664D02*
X588818Y205664D01*
X588818Y207900D02*
X577902Y207900D01*
X577902Y210136D02*
X588818Y210136D01*
X583118Y94442D02*
X572202Y94442D01*
X572202Y103858D01*
X583118Y103858D01*
X583118Y94442D01*
X583118Y96678D02*
X572202Y96678D01*
X572202Y98914D02*
X583118Y98914D01*
X583118Y101150D02*
X572202Y101150D01*
X572202Y103386D02*
X583118Y103386D01*
X557218Y94442D02*
X534402Y94442D01*
X534402Y103858D01*
X557218Y103858D01*
X557218Y94442D01*
X557218Y96678D02*
X534402Y96678D01*
X534402Y98914D02*
X557218Y98914D01*
X557218Y101150D02*
X534402Y101150D01*
X534402Y103386D02*
X557218Y103386D01*
D19*
X592378Y116882D02*
X592378Y145018D01*
X592378Y116882D02*
X587842Y116882D01*
X587842Y145018D01*
X592378Y145018D01*
X592378Y119004D02*
X587842Y119004D01*
X587842Y121126D02*
X592378Y121126D01*
X592378Y123248D02*
X587842Y123248D01*
X587842Y125370D02*
X592378Y125370D01*
X592378Y127492D02*
X587842Y127492D01*
X587842Y129614D02*
X592378Y129614D01*
X592378Y131736D02*
X587842Y131736D01*
X587842Y133858D02*
X592378Y133858D01*
X592378Y135980D02*
X587842Y135980D01*
X587842Y138102D02*
X592378Y138102D01*
X592378Y140224D02*
X587842Y140224D01*
X587842Y142346D02*
X592378Y142346D01*
X592378Y144468D02*
X587842Y144468D01*
X592378Y158782D02*
X592378Y186918D01*
X592378Y158782D02*
X587842Y158782D01*
X587842Y186918D01*
X592378Y186918D01*
X592378Y160904D02*
X587842Y160904D01*
X587842Y163026D02*
X592378Y163026D01*
X592378Y165148D02*
X587842Y165148D01*
X587842Y167270D02*
X592378Y167270D01*
X592378Y169392D02*
X587842Y169392D01*
X587842Y171514D02*
X592378Y171514D01*
X592378Y173636D02*
X587842Y173636D01*
X587842Y175758D02*
X592378Y175758D01*
X592378Y177880D02*
X587842Y177880D01*
X587842Y180002D02*
X592378Y180002D01*
X592378Y182124D02*
X587842Y182124D01*
X587842Y184246D02*
X592378Y184246D01*
X592378Y186368D02*
X587842Y186368D01*
D20*
X556260Y393700D03*
X556260Y406400D03*
X568960Y393700D03*
X568960Y406400D03*
X581660Y393700D03*
X581660Y406400D03*
X594360Y393700D03*
X594360Y406400D03*
X607060Y393700D03*
X607060Y406400D03*
D14*
X490984Y64899D02*
X490984Y59307D01*
X479296Y59307D01*
X479296Y64899D01*
X490984Y64899D01*
X490984Y61476D02*
X479296Y61476D01*
X479296Y63645D02*
X490984Y63645D01*
X490984Y69721D02*
X490984Y75313D01*
X490984Y69721D02*
X479296Y69721D01*
X479296Y75313D01*
X490984Y75313D01*
X490984Y71890D02*
X479296Y71890D01*
X479296Y74059D02*
X490984Y74059D01*
D21*
X600710Y304800D03*
X613410Y304800D03*
X600710Y317500D03*
X613410Y317500D03*
X600710Y330200D03*
X613410Y330200D03*
D22*
X561228Y320008D02*
X556212Y320008D01*
X561228Y320008D02*
X561228Y314992D01*
X556212Y314992D01*
X556212Y320008D01*
X556212Y317133D02*
X561228Y317133D01*
X561228Y319274D02*
X556212Y319274D01*
X551228Y320008D02*
X546212Y320008D01*
X551228Y320008D02*
X551228Y314992D01*
X546212Y314992D01*
X546212Y320008D01*
X546212Y317133D02*
X551228Y317133D01*
X551228Y319274D02*
X546212Y319274D01*
X556212Y307308D02*
X561228Y307308D01*
X561228Y302292D01*
X556212Y302292D01*
X556212Y307308D01*
X556212Y304433D02*
X561228Y304433D01*
X561228Y306574D02*
X556212Y306574D01*
X551228Y307308D02*
X546212Y307308D01*
X551228Y307308D02*
X551228Y302292D01*
X546212Y302292D01*
X546212Y307308D01*
X546212Y304433D02*
X551228Y304433D01*
X551228Y306574D02*
X546212Y306574D01*
D21*
X645160Y342900D03*
X645160Y355600D03*
X632460Y342900D03*
X632460Y355600D03*
X594360Y279400D03*
X581660Y279400D03*
X645160Y368300D03*
X632460Y368300D03*
D22*
X571548Y353092D02*
X566532Y353092D01*
X566532Y358108D01*
X571548Y358108D01*
X571548Y353092D01*
X571548Y355233D02*
X566532Y355233D01*
X566532Y357374D02*
X571548Y357374D01*
X576532Y353092D02*
X581548Y353092D01*
X576532Y353092D02*
X576532Y358108D01*
X581548Y358108D01*
X581548Y353092D01*
X581548Y355233D02*
X576532Y355233D01*
X576532Y357374D02*
X581548Y357374D01*
X561228Y281908D02*
X556212Y281908D01*
X561228Y281908D02*
X561228Y276892D01*
X556212Y276892D01*
X556212Y281908D01*
X556212Y279033D02*
X561228Y279033D01*
X561228Y281174D02*
X556212Y281174D01*
X551228Y281908D02*
X546212Y281908D01*
X551228Y281908D02*
X551228Y276892D01*
X546212Y276892D01*
X546212Y281908D01*
X546212Y279033D02*
X551228Y279033D01*
X551228Y281174D02*
X546212Y281174D01*
X556212Y294608D02*
X561228Y294608D01*
X561228Y289592D01*
X556212Y289592D01*
X556212Y294608D01*
X556212Y291733D02*
X561228Y291733D01*
X561228Y293874D02*
X556212Y293874D01*
X551228Y294608D02*
X546212Y294608D01*
X551228Y294608D02*
X551228Y289592D01*
X546212Y289592D01*
X546212Y294608D01*
X546212Y291733D02*
X551228Y291733D01*
X551228Y293874D02*
X546212Y293874D01*
X556212Y332708D02*
X561228Y332708D01*
X561228Y327692D01*
X556212Y327692D01*
X556212Y332708D01*
X556212Y329833D02*
X561228Y329833D01*
X561228Y331974D02*
X556212Y331974D01*
X551228Y332708D02*
X546212Y332708D01*
X551228Y332708D02*
X551228Y327692D01*
X546212Y327692D01*
X546212Y332708D01*
X546212Y329833D02*
X551228Y329833D01*
X551228Y331974D02*
X546212Y331974D01*
X574152Y327692D02*
X579168Y327692D01*
X574152Y327692D02*
X574152Y332708D01*
X579168Y332708D01*
X579168Y327692D01*
X579168Y329833D02*
X574152Y329833D01*
X574152Y331974D02*
X579168Y331974D01*
X584152Y327692D02*
X589168Y327692D01*
X584152Y327692D02*
X584152Y332708D01*
X589168Y332708D01*
X589168Y327692D01*
X589168Y329833D02*
X584152Y329833D01*
X584152Y331974D02*
X589168Y331974D01*
X561228Y358108D02*
X556212Y358108D01*
X561228Y358108D02*
X561228Y353092D01*
X556212Y353092D01*
X556212Y358108D01*
X556212Y355233D02*
X561228Y355233D01*
X561228Y357374D02*
X556212Y357374D01*
X551228Y358108D02*
X546212Y358108D01*
X551228Y358108D02*
X551228Y353092D01*
X546212Y353092D01*
X546212Y358108D01*
X546212Y355233D02*
X551228Y355233D01*
X551228Y357374D02*
X546212Y357374D01*
X556212Y345408D02*
X561228Y345408D01*
X561228Y340392D01*
X556212Y340392D01*
X556212Y345408D01*
X556212Y342533D02*
X561228Y342533D01*
X561228Y344674D02*
X556212Y344674D01*
X551228Y345408D02*
X546212Y345408D01*
X551228Y345408D02*
X551228Y340392D01*
X546212Y340392D01*
X546212Y345408D01*
X546212Y342533D02*
X551228Y342533D01*
X551228Y344674D02*
X546212Y344674D01*
D23*
X631608Y379498D02*
X634612Y379498D01*
X631608Y379498D02*
X631608Y382502D01*
X634612Y382502D01*
X634612Y379498D01*
X634612Y381651D02*
X631608Y381651D01*
X620612Y379498D02*
X617608Y379498D01*
X617608Y382502D01*
X620612Y382502D01*
X620612Y379498D01*
X620612Y381651D02*
X617608Y381651D01*
D14*
X632966Y300103D02*
X632966Y294511D01*
X632966Y300103D02*
X644654Y300103D01*
X644654Y294511D01*
X632966Y294511D01*
X632966Y296680D02*
X644654Y296680D01*
X644654Y298849D02*
X632966Y298849D01*
X632966Y289689D02*
X632966Y284097D01*
X632966Y289689D02*
X644654Y289689D01*
X644654Y284097D01*
X632966Y284097D01*
X632966Y286266D02*
X644654Y286266D01*
X644654Y288435D02*
X632966Y288435D01*
D11*
X68580Y605155D03*
X626745Y605155D03*
D24*
X59525Y-20955D02*
X59528Y-20733D01*
X59536Y-20511D01*
X59550Y-20289D01*
X59569Y-20067D01*
X59593Y-19847D01*
X59623Y-19626D01*
X59658Y-19407D01*
X59699Y-19188D01*
X59745Y-18971D01*
X59796Y-18755D01*
X59853Y-18540D01*
X59915Y-18326D01*
X59982Y-18115D01*
X60054Y-17904D01*
X60132Y-17696D01*
X60214Y-17490D01*
X60302Y-17286D01*
X60394Y-17083D01*
X60492Y-16884D01*
X60594Y-16687D01*
X60701Y-16492D01*
X60813Y-16300D01*
X60930Y-16111D01*
X61051Y-15924D01*
X61177Y-15741D01*
X61307Y-15561D01*
X61442Y-15384D01*
X61580Y-15211D01*
X61723Y-15041D01*
X61871Y-14874D01*
X62022Y-14711D01*
X62177Y-14552D01*
X62336Y-14397D01*
X62499Y-14246D01*
X62666Y-14098D01*
X62836Y-13955D01*
X63009Y-13817D01*
X63186Y-13682D01*
X63366Y-13552D01*
X63549Y-13426D01*
X63736Y-13305D01*
X63925Y-13188D01*
X64117Y-13076D01*
X64312Y-12969D01*
X64509Y-12867D01*
X64708Y-12769D01*
X64911Y-12677D01*
X65115Y-12589D01*
X65321Y-12507D01*
X65529Y-12429D01*
X65740Y-12357D01*
X65951Y-12290D01*
X66165Y-12228D01*
X66380Y-12171D01*
X66596Y-12120D01*
X66813Y-12074D01*
X67032Y-12033D01*
X67251Y-11998D01*
X67472Y-11968D01*
X67692Y-11944D01*
X67914Y-11925D01*
X68136Y-11911D01*
X68358Y-11903D01*
X68580Y-11900D01*
X68802Y-11903D01*
X69024Y-11911D01*
X69246Y-11925D01*
X69468Y-11944D01*
X69688Y-11968D01*
X69909Y-11998D01*
X70128Y-12033D01*
X70347Y-12074D01*
X70564Y-12120D01*
X70780Y-12171D01*
X70995Y-12228D01*
X71209Y-12290D01*
X71420Y-12357D01*
X71631Y-12429D01*
X71839Y-12507D01*
X72045Y-12589D01*
X72249Y-12677D01*
X72452Y-12769D01*
X72651Y-12867D01*
X72848Y-12969D01*
X73043Y-13076D01*
X73235Y-13188D01*
X73424Y-13305D01*
X73611Y-13426D01*
X73794Y-13552D01*
X73974Y-13682D01*
X74151Y-13817D01*
X74324Y-13955D01*
X74494Y-14098D01*
X74661Y-14246D01*
X74824Y-14397D01*
X74983Y-14552D01*
X75138Y-14711D01*
X75289Y-14874D01*
X75437Y-15041D01*
X75580Y-15211D01*
X75718Y-15384D01*
X75853Y-15561D01*
X75983Y-15741D01*
X76109Y-15924D01*
X76230Y-16111D01*
X76347Y-16300D01*
X76459Y-16492D01*
X76566Y-16687D01*
X76668Y-16884D01*
X76766Y-17083D01*
X76858Y-17286D01*
X76946Y-17490D01*
X77028Y-17696D01*
X77106Y-17904D01*
X77178Y-18115D01*
X77245Y-18326D01*
X77307Y-18540D01*
X77364Y-18755D01*
X77415Y-18971D01*
X77461Y-19188D01*
X77502Y-19407D01*
X77537Y-19626D01*
X77567Y-19847D01*
X77591Y-20067D01*
X77610Y-20289D01*
X77624Y-20511D01*
X77632Y-20733D01*
X77635Y-20955D01*
X77632Y-21177D01*
X77624Y-21399D01*
X77610Y-21621D01*
X77591Y-21843D01*
X77567Y-22063D01*
X77537Y-22284D01*
X77502Y-22503D01*
X77461Y-22722D01*
X77415Y-22939D01*
X77364Y-23155D01*
X77307Y-23370D01*
X77245Y-23584D01*
X77178Y-23795D01*
X77106Y-24006D01*
X77028Y-24214D01*
X76946Y-24420D01*
X76858Y-24624D01*
X76766Y-24827D01*
X76668Y-25026D01*
X76566Y-25223D01*
X76459Y-25418D01*
X76347Y-25610D01*
X76230Y-25799D01*
X76109Y-25986D01*
X75983Y-26169D01*
X75853Y-26349D01*
X75718Y-26526D01*
X75580Y-26699D01*
X75437Y-26869D01*
X75289Y-27036D01*
X75138Y-27199D01*
X74983Y-27358D01*
X74824Y-27513D01*
X74661Y-27664D01*
X74494Y-27812D01*
X74324Y-27955D01*
X74151Y-28093D01*
X73974Y-28228D01*
X73794Y-28358D01*
X73611Y-28484D01*
X73424Y-28605D01*
X73235Y-28722D01*
X73043Y-28834D01*
X72848Y-28941D01*
X72651Y-29043D01*
X72452Y-29141D01*
X72249Y-29233D01*
X72045Y-29321D01*
X71839Y-29403D01*
X71631Y-29481D01*
X71420Y-29553D01*
X71209Y-29620D01*
X70995Y-29682D01*
X70780Y-29739D01*
X70564Y-29790D01*
X70347Y-29836D01*
X70128Y-29877D01*
X69909Y-29912D01*
X69688Y-29942D01*
X69468Y-29966D01*
X69246Y-29985D01*
X69024Y-29999D01*
X68802Y-30007D01*
X68580Y-30010D01*
X68358Y-30007D01*
X68136Y-29999D01*
X67914Y-29985D01*
X67692Y-29966D01*
X67472Y-29942D01*
X67251Y-29912D01*
X67032Y-29877D01*
X66813Y-29836D01*
X66596Y-29790D01*
X66380Y-29739D01*
X66165Y-29682D01*
X65951Y-29620D01*
X65740Y-29553D01*
X65529Y-29481D01*
X65321Y-29403D01*
X65115Y-29321D01*
X64911Y-29233D01*
X64708Y-29141D01*
X64509Y-29043D01*
X64312Y-28941D01*
X64117Y-28834D01*
X63925Y-28722D01*
X63736Y-28605D01*
X63549Y-28484D01*
X63366Y-28358D01*
X63186Y-28228D01*
X63009Y-28093D01*
X62836Y-27955D01*
X62666Y-27812D01*
X62499Y-27664D01*
X62336Y-27513D01*
X62177Y-27358D01*
X62022Y-27199D01*
X61871Y-27036D01*
X61723Y-26869D01*
X61580Y-26699D01*
X61442Y-26526D01*
X61307Y-26349D01*
X61177Y-26169D01*
X61051Y-25986D01*
X60930Y-25799D01*
X60813Y-25610D01*
X60701Y-25418D01*
X60594Y-25223D01*
X60492Y-25026D01*
X60394Y-24827D01*
X60302Y-24624D01*
X60214Y-24420D01*
X60132Y-24214D01*
X60054Y-24006D01*
X59982Y-23795D01*
X59915Y-23584D01*
X59853Y-23370D01*
X59796Y-23155D01*
X59745Y-22939D01*
X59699Y-22722D01*
X59658Y-22503D01*
X59623Y-22284D01*
X59593Y-22063D01*
X59569Y-21843D01*
X59550Y-21621D01*
X59536Y-21399D01*
X59528Y-21177D01*
X59525Y-20955D01*
D25*
X68580Y-20955D03*
M02*
