G04 EAGLE Gerber RS-274X export*
G75*
%MOMM*%
%FSLAX34Y34*%
%LPD*%
%IN*%
%IPPOS*%
%AMOC8*
5,1,8,0,0,1.08239X$1,22.5*%
G01*
%ADD10C,0.203200*%
%ADD11C,0.381000*%
%ADD12C,0.279400*%
%ADD13C,0.254000*%
%ADD14C,0.000000*%
%ADD15C,0.010000*%


D10*
X25400Y584200D02*
X24786Y584193D01*
X24173Y584170D01*
X23560Y584133D01*
X22949Y584081D01*
X22338Y584015D01*
X21730Y583933D01*
X21124Y583837D01*
X20520Y583727D01*
X19919Y583602D01*
X19321Y583462D01*
X18727Y583308D01*
X18137Y583139D01*
X17551Y582957D01*
X16970Y582760D01*
X16393Y582549D01*
X15822Y582325D01*
X15256Y582087D01*
X14696Y581835D01*
X14143Y581569D01*
X13596Y581291D01*
X13056Y580999D01*
X12523Y580694D01*
X11998Y580376D01*
X11480Y580046D01*
X10971Y579704D01*
X10470Y579349D01*
X9978Y578982D01*
X9495Y578604D01*
X9021Y578214D01*
X8557Y577812D01*
X8102Y577400D01*
X7658Y576976D01*
X7224Y576542D01*
X6800Y576098D01*
X6388Y575643D01*
X5986Y575179D01*
X5596Y574705D01*
X5218Y574222D01*
X4851Y573730D01*
X4496Y573229D01*
X4154Y572720D01*
X3824Y572202D01*
X3506Y571677D01*
X3201Y571144D01*
X2909Y570604D01*
X2631Y570057D01*
X2365Y569504D01*
X2113Y568944D01*
X1875Y568378D01*
X1651Y567807D01*
X1440Y567230D01*
X1243Y566649D01*
X1061Y566063D01*
X892Y565473D01*
X738Y564879D01*
X598Y564281D01*
X473Y563680D01*
X363Y563076D01*
X267Y562470D01*
X185Y561862D01*
X119Y561251D01*
X67Y560640D01*
X30Y560027D01*
X7Y559414D01*
X0Y558800D01*
X25400Y584200D02*
X203200Y584200D01*
X203814Y584193D01*
X204427Y584170D01*
X205040Y584133D01*
X205651Y584081D01*
X206262Y584015D01*
X206870Y583933D01*
X207476Y583837D01*
X208080Y583727D01*
X208681Y583602D01*
X209279Y583462D01*
X209873Y583308D01*
X210463Y583139D01*
X211049Y582957D01*
X211630Y582760D01*
X212207Y582549D01*
X212778Y582325D01*
X213344Y582087D01*
X213904Y581835D01*
X214457Y581569D01*
X215004Y581291D01*
X215544Y580999D01*
X216077Y580694D01*
X216602Y580376D01*
X217120Y580046D01*
X217629Y579704D01*
X218130Y579349D01*
X218622Y578982D01*
X219105Y578604D01*
X219579Y578214D01*
X220043Y577812D01*
X220498Y577400D01*
X220942Y576976D01*
X221376Y576542D01*
X221800Y576098D01*
X222212Y575643D01*
X222614Y575179D01*
X223004Y574705D01*
X223382Y574222D01*
X223749Y573730D01*
X224104Y573229D01*
X224446Y572720D01*
X224776Y572202D01*
X225094Y571677D01*
X225399Y571144D01*
X225691Y570604D01*
X225969Y570057D01*
X226235Y569504D01*
X226487Y568944D01*
X226725Y568378D01*
X226949Y567807D01*
X227160Y567230D01*
X227357Y566649D01*
X227539Y566063D01*
X227708Y565473D01*
X227862Y564879D01*
X228002Y564281D01*
X228127Y563680D01*
X228237Y563076D01*
X228333Y562470D01*
X228415Y561862D01*
X228481Y561251D01*
X228533Y560640D01*
X228570Y560027D01*
X228593Y559414D01*
X228600Y558800D01*
X228600Y25400D01*
X228593Y24786D01*
X228570Y24173D01*
X228533Y23560D01*
X228481Y22949D01*
X228415Y22338D01*
X228333Y21730D01*
X228237Y21124D01*
X228127Y20520D01*
X228002Y19919D01*
X227862Y19321D01*
X227708Y18727D01*
X227539Y18137D01*
X227357Y17551D01*
X227160Y16970D01*
X226949Y16393D01*
X226725Y15822D01*
X226487Y15256D01*
X226235Y14696D01*
X225969Y14143D01*
X225691Y13596D01*
X225399Y13056D01*
X225094Y12523D01*
X224776Y11998D01*
X224446Y11480D01*
X224104Y10971D01*
X223749Y10470D01*
X223382Y9978D01*
X223004Y9495D01*
X222614Y9021D01*
X222212Y8557D01*
X221800Y8102D01*
X221376Y7658D01*
X220942Y7224D01*
X220498Y6800D01*
X220043Y6388D01*
X219579Y5986D01*
X219105Y5596D01*
X218622Y5218D01*
X218130Y4851D01*
X217629Y4496D01*
X217120Y4154D01*
X216602Y3824D01*
X216077Y3506D01*
X215544Y3201D01*
X215004Y2909D01*
X214457Y2631D01*
X213904Y2365D01*
X213344Y2113D01*
X212778Y1875D01*
X212207Y1651D01*
X211630Y1440D01*
X211049Y1243D01*
X210463Y1061D01*
X209873Y892D01*
X209279Y738D01*
X208681Y598D01*
X208080Y473D01*
X207476Y363D01*
X206870Y267D01*
X206262Y185D01*
X205651Y119D01*
X205040Y67D01*
X204427Y30D01*
X203814Y7D01*
X203200Y0D01*
X25400Y0D01*
X24786Y7D01*
X24173Y30D01*
X23560Y67D01*
X22949Y119D01*
X22338Y185D01*
X21730Y267D01*
X21124Y363D01*
X20520Y473D01*
X19919Y598D01*
X19321Y738D01*
X18727Y892D01*
X18137Y1061D01*
X17551Y1243D01*
X16970Y1440D01*
X16393Y1651D01*
X15822Y1875D01*
X15256Y2113D01*
X14696Y2365D01*
X14143Y2631D01*
X13596Y2909D01*
X13056Y3201D01*
X12523Y3506D01*
X11998Y3824D01*
X11480Y4154D01*
X10971Y4496D01*
X10470Y4851D01*
X9978Y5218D01*
X9495Y5596D01*
X9021Y5986D01*
X8557Y6388D01*
X8102Y6800D01*
X7658Y7224D01*
X7224Y7658D01*
X6800Y8102D01*
X6388Y8557D01*
X5986Y9021D01*
X5596Y9495D01*
X5218Y9978D01*
X4851Y10470D01*
X4496Y10971D01*
X4154Y11480D01*
X3824Y11998D01*
X3506Y12523D01*
X3201Y13056D01*
X2909Y13596D01*
X2631Y14143D01*
X2365Y14696D01*
X2113Y15256D01*
X1875Y15822D01*
X1651Y16393D01*
X1440Y16970D01*
X1243Y17551D01*
X1061Y18137D01*
X892Y18727D01*
X738Y19321D01*
X598Y19919D01*
X473Y20520D01*
X363Y21124D01*
X267Y21730D01*
X185Y22338D01*
X119Y22949D01*
X67Y23560D01*
X30Y24173D01*
X7Y24786D01*
X0Y25400D01*
X0Y558800D01*
X233680Y558800D02*
X233687Y559414D01*
X233710Y560027D01*
X233747Y560640D01*
X233799Y561251D01*
X233865Y561862D01*
X233947Y562470D01*
X234043Y563076D01*
X234153Y563680D01*
X234278Y564281D01*
X234418Y564879D01*
X234572Y565473D01*
X234741Y566063D01*
X234923Y566649D01*
X235120Y567230D01*
X235331Y567807D01*
X235555Y568378D01*
X235793Y568944D01*
X236045Y569504D01*
X236311Y570057D01*
X236589Y570604D01*
X236881Y571144D01*
X237186Y571677D01*
X237504Y572202D01*
X237834Y572720D01*
X238176Y573229D01*
X238531Y573730D01*
X238898Y574222D01*
X239276Y574705D01*
X239666Y575179D01*
X240068Y575643D01*
X240480Y576098D01*
X240904Y576542D01*
X241338Y576976D01*
X241782Y577400D01*
X242237Y577812D01*
X242701Y578214D01*
X243175Y578604D01*
X243658Y578982D01*
X244150Y579349D01*
X244651Y579704D01*
X245160Y580046D01*
X245678Y580376D01*
X246203Y580694D01*
X246736Y580999D01*
X247276Y581291D01*
X247823Y581569D01*
X248376Y581835D01*
X248936Y582087D01*
X249502Y582325D01*
X250073Y582549D01*
X250650Y582760D01*
X251231Y582957D01*
X251817Y583139D01*
X252407Y583308D01*
X253001Y583462D01*
X253599Y583602D01*
X254200Y583727D01*
X254804Y583837D01*
X255410Y583933D01*
X256018Y584015D01*
X256629Y584081D01*
X257240Y584133D01*
X257853Y584170D01*
X258466Y584193D01*
X259080Y584200D01*
X436880Y584200D01*
X437494Y584193D01*
X438107Y584170D01*
X438720Y584133D01*
X439331Y584081D01*
X439942Y584015D01*
X440550Y583933D01*
X441156Y583837D01*
X441760Y583727D01*
X442361Y583602D01*
X442959Y583462D01*
X443553Y583308D01*
X444143Y583139D01*
X444729Y582957D01*
X445310Y582760D01*
X445887Y582549D01*
X446458Y582325D01*
X447024Y582087D01*
X447584Y581835D01*
X448137Y581569D01*
X448684Y581291D01*
X449224Y580999D01*
X449757Y580694D01*
X450282Y580376D01*
X450800Y580046D01*
X451309Y579704D01*
X451810Y579349D01*
X452302Y578982D01*
X452785Y578604D01*
X453259Y578214D01*
X453723Y577812D01*
X454178Y577400D01*
X454622Y576976D01*
X455056Y576542D01*
X455480Y576098D01*
X455892Y575643D01*
X456294Y575179D01*
X456684Y574705D01*
X457062Y574222D01*
X457429Y573730D01*
X457784Y573229D01*
X458126Y572720D01*
X458456Y572202D01*
X458774Y571677D01*
X459079Y571144D01*
X459371Y570604D01*
X459649Y570057D01*
X459915Y569504D01*
X460167Y568944D01*
X460405Y568378D01*
X460629Y567807D01*
X460840Y567230D01*
X461037Y566649D01*
X461219Y566063D01*
X461388Y565473D01*
X461542Y564879D01*
X461682Y564281D01*
X461807Y563680D01*
X461917Y563076D01*
X462013Y562470D01*
X462095Y561862D01*
X462161Y561251D01*
X462213Y560640D01*
X462250Y560027D01*
X462273Y559414D01*
X462280Y558800D01*
X462280Y25400D01*
X462273Y24786D01*
X462250Y24173D01*
X462213Y23560D01*
X462161Y22949D01*
X462095Y22338D01*
X462013Y21730D01*
X461917Y21124D01*
X461807Y20520D01*
X461682Y19919D01*
X461542Y19321D01*
X461388Y18727D01*
X461219Y18137D01*
X461037Y17551D01*
X460840Y16970D01*
X460629Y16393D01*
X460405Y15822D01*
X460167Y15256D01*
X459915Y14696D01*
X459649Y14143D01*
X459371Y13596D01*
X459079Y13056D01*
X458774Y12523D01*
X458456Y11998D01*
X458126Y11480D01*
X457784Y10971D01*
X457429Y10470D01*
X457062Y9978D01*
X456684Y9495D01*
X456294Y9021D01*
X455892Y8557D01*
X455480Y8102D01*
X455056Y7658D01*
X454622Y7224D01*
X454178Y6800D01*
X453723Y6388D01*
X453259Y5986D01*
X452785Y5596D01*
X452302Y5218D01*
X451810Y4851D01*
X451309Y4496D01*
X450800Y4154D01*
X450282Y3824D01*
X449757Y3506D01*
X449224Y3201D01*
X448684Y2909D01*
X448137Y2631D01*
X447584Y2365D01*
X447024Y2113D01*
X446458Y1875D01*
X445887Y1651D01*
X445310Y1440D01*
X444729Y1243D01*
X444143Y1061D01*
X443553Y892D01*
X442959Y738D01*
X442361Y598D01*
X441760Y473D01*
X441156Y363D01*
X440550Y267D01*
X439942Y185D01*
X439331Y119D01*
X438720Y67D01*
X438107Y30D01*
X437494Y7D01*
X436880Y0D01*
X259080Y0D01*
X258466Y7D01*
X257853Y30D01*
X257240Y67D01*
X256629Y119D01*
X256018Y185D01*
X255410Y267D01*
X254804Y363D01*
X254200Y473D01*
X253599Y598D01*
X253001Y738D01*
X252407Y892D01*
X251817Y1061D01*
X251231Y1243D01*
X250650Y1440D01*
X250073Y1651D01*
X249502Y1875D01*
X248936Y2113D01*
X248376Y2365D01*
X247823Y2631D01*
X247276Y2909D01*
X246736Y3201D01*
X246203Y3506D01*
X245678Y3824D01*
X245160Y4154D01*
X244651Y4496D01*
X244150Y4851D01*
X243658Y5218D01*
X243175Y5596D01*
X242701Y5986D01*
X242237Y6388D01*
X241782Y6800D01*
X241338Y7224D01*
X240904Y7658D01*
X240480Y8102D01*
X240068Y8557D01*
X239666Y9021D01*
X239276Y9495D01*
X238898Y9978D01*
X238531Y10470D01*
X238176Y10971D01*
X237834Y11480D01*
X237504Y11998D01*
X237186Y12523D01*
X236881Y13056D01*
X236589Y13596D01*
X236311Y14143D01*
X236045Y14696D01*
X235793Y15256D01*
X235555Y15822D01*
X235331Y16393D01*
X235120Y16970D01*
X234923Y17551D01*
X234741Y18137D01*
X234572Y18727D01*
X234418Y19321D01*
X234278Y19919D01*
X234153Y20520D01*
X234043Y21124D01*
X233947Y21730D01*
X233865Y22338D01*
X233799Y22949D01*
X233747Y23560D01*
X233710Y24173D01*
X233687Y24786D01*
X233680Y25400D01*
X233680Y558800D01*
X467360Y558800D02*
X467367Y559414D01*
X467390Y560027D01*
X467427Y560640D01*
X467479Y561251D01*
X467545Y561862D01*
X467627Y562470D01*
X467723Y563076D01*
X467833Y563680D01*
X467958Y564281D01*
X468098Y564879D01*
X468252Y565473D01*
X468421Y566063D01*
X468603Y566649D01*
X468800Y567230D01*
X469011Y567807D01*
X469235Y568378D01*
X469473Y568944D01*
X469725Y569504D01*
X469991Y570057D01*
X470269Y570604D01*
X470561Y571144D01*
X470866Y571677D01*
X471184Y572202D01*
X471514Y572720D01*
X471856Y573229D01*
X472211Y573730D01*
X472578Y574222D01*
X472956Y574705D01*
X473346Y575179D01*
X473748Y575643D01*
X474160Y576098D01*
X474584Y576542D01*
X475018Y576976D01*
X475462Y577400D01*
X475917Y577812D01*
X476381Y578214D01*
X476855Y578604D01*
X477338Y578982D01*
X477830Y579349D01*
X478331Y579704D01*
X478840Y580046D01*
X479358Y580376D01*
X479883Y580694D01*
X480416Y580999D01*
X480956Y581291D01*
X481503Y581569D01*
X482056Y581835D01*
X482616Y582087D01*
X483182Y582325D01*
X483753Y582549D01*
X484330Y582760D01*
X484911Y582957D01*
X485497Y583139D01*
X486087Y583308D01*
X486681Y583462D01*
X487279Y583602D01*
X487880Y583727D01*
X488484Y583837D01*
X489090Y583933D01*
X489698Y584015D01*
X490309Y584081D01*
X490920Y584133D01*
X491533Y584170D01*
X492146Y584193D01*
X492760Y584200D01*
X670560Y584200D01*
X671174Y584193D01*
X671787Y584170D01*
X672400Y584133D01*
X673011Y584081D01*
X673622Y584015D01*
X674230Y583933D01*
X674836Y583837D01*
X675440Y583727D01*
X676041Y583602D01*
X676639Y583462D01*
X677233Y583308D01*
X677823Y583139D01*
X678409Y582957D01*
X678990Y582760D01*
X679567Y582549D01*
X680138Y582325D01*
X680704Y582087D01*
X681264Y581835D01*
X681817Y581569D01*
X682364Y581291D01*
X682904Y580999D01*
X683437Y580694D01*
X683962Y580376D01*
X684480Y580046D01*
X684989Y579704D01*
X685490Y579349D01*
X685982Y578982D01*
X686465Y578604D01*
X686939Y578214D01*
X687403Y577812D01*
X687858Y577400D01*
X688302Y576976D01*
X688736Y576542D01*
X689160Y576098D01*
X689572Y575643D01*
X689974Y575179D01*
X690364Y574705D01*
X690742Y574222D01*
X691109Y573730D01*
X691464Y573229D01*
X691806Y572720D01*
X692136Y572202D01*
X692454Y571677D01*
X692759Y571144D01*
X693051Y570604D01*
X693329Y570057D01*
X693595Y569504D01*
X693847Y568944D01*
X694085Y568378D01*
X694309Y567807D01*
X694520Y567230D01*
X694717Y566649D01*
X694899Y566063D01*
X695068Y565473D01*
X695222Y564879D01*
X695362Y564281D01*
X695487Y563680D01*
X695597Y563076D01*
X695693Y562470D01*
X695775Y561862D01*
X695841Y561251D01*
X695893Y560640D01*
X695930Y560027D01*
X695953Y559414D01*
X695960Y558800D01*
X695960Y25400D01*
X695953Y24786D01*
X695930Y24173D01*
X695893Y23560D01*
X695841Y22949D01*
X695775Y22338D01*
X695693Y21730D01*
X695597Y21124D01*
X695487Y20520D01*
X695362Y19919D01*
X695222Y19321D01*
X695068Y18727D01*
X694899Y18137D01*
X694717Y17551D01*
X694520Y16970D01*
X694309Y16393D01*
X694085Y15822D01*
X693847Y15256D01*
X693595Y14696D01*
X693329Y14143D01*
X693051Y13596D01*
X692759Y13056D01*
X692454Y12523D01*
X692136Y11998D01*
X691806Y11480D01*
X691464Y10971D01*
X691109Y10470D01*
X690742Y9978D01*
X690364Y9495D01*
X689974Y9021D01*
X689572Y8557D01*
X689160Y8102D01*
X688736Y7658D01*
X688302Y7224D01*
X687858Y6800D01*
X687403Y6388D01*
X686939Y5986D01*
X686465Y5596D01*
X685982Y5218D01*
X685490Y4851D01*
X684989Y4496D01*
X684480Y4154D01*
X683962Y3824D01*
X683437Y3506D01*
X682904Y3201D01*
X682364Y2909D01*
X681817Y2631D01*
X681264Y2365D01*
X680704Y2113D01*
X680138Y1875D01*
X679567Y1651D01*
X678990Y1440D01*
X678409Y1243D01*
X677823Y1061D01*
X677233Y892D01*
X676639Y738D01*
X676041Y598D01*
X675440Y473D01*
X674836Y363D01*
X674230Y267D01*
X673622Y185D01*
X673011Y119D01*
X672400Y67D01*
X671787Y30D01*
X671174Y7D01*
X670560Y0D01*
X492760Y0D01*
X492146Y7D01*
X491533Y30D01*
X490920Y67D01*
X490309Y119D01*
X489698Y185D01*
X489090Y267D01*
X488484Y363D01*
X487880Y473D01*
X487279Y598D01*
X486681Y738D01*
X486087Y892D01*
X485497Y1061D01*
X484911Y1243D01*
X484330Y1440D01*
X483753Y1651D01*
X483182Y1875D01*
X482616Y2113D01*
X482056Y2365D01*
X481503Y2631D01*
X480956Y2909D01*
X480416Y3201D01*
X479883Y3506D01*
X479358Y3824D01*
X478840Y4154D01*
X478331Y4496D01*
X477830Y4851D01*
X477338Y5218D01*
X476855Y5596D01*
X476381Y5986D01*
X475917Y6388D01*
X475462Y6800D01*
X475018Y7224D01*
X474584Y7658D01*
X474160Y8102D01*
X473748Y8557D01*
X473346Y9021D01*
X472956Y9495D01*
X472578Y9978D01*
X472211Y10470D01*
X471856Y10971D01*
X471514Y11480D01*
X471184Y11998D01*
X470866Y12523D01*
X470561Y13056D01*
X470269Y13596D01*
X469991Y14143D01*
X469725Y14696D01*
X469473Y15256D01*
X469235Y15822D01*
X469011Y16393D01*
X468800Y16970D01*
X468603Y17551D01*
X468421Y18137D01*
X468252Y18727D01*
X468098Y19321D01*
X467958Y19919D01*
X467833Y20520D01*
X467723Y21124D01*
X467627Y21730D01*
X467545Y22338D01*
X467479Y22949D01*
X467427Y23560D01*
X467390Y24173D01*
X467367Y24786D01*
X467360Y25400D01*
X467360Y558800D01*
D11*
X-2540Y657860D02*
X-2540Y-68580D01*
D12*
X-42921Y673227D02*
X-46251Y683218D01*
X-39590Y683218D02*
X-42921Y673227D01*
X-32806Y679055D02*
X-22815Y679055D01*
X-14261Y679055D02*
X-10098Y677390D01*
X-14261Y679054D02*
X-14346Y679090D01*
X-14429Y679130D01*
X-14510Y679173D01*
X-14590Y679220D01*
X-14667Y679270D01*
X-14743Y679323D01*
X-14816Y679379D01*
X-14886Y679439D01*
X-14954Y679501D01*
X-15019Y679566D01*
X-15081Y679634D01*
X-15141Y679705D01*
X-15197Y679778D01*
X-15250Y679853D01*
X-15300Y679931D01*
X-15346Y680010D01*
X-15389Y680092D01*
X-15429Y680175D01*
X-15465Y680260D01*
X-15497Y680346D01*
X-15526Y680434D01*
X-15550Y680523D01*
X-15571Y680613D01*
X-15588Y680703D01*
X-15602Y680794D01*
X-15611Y680886D01*
X-15616Y680978D01*
X-15618Y681070D01*
X-15616Y681162D01*
X-15609Y681254D01*
X-15599Y681346D01*
X-15585Y681437D01*
X-15567Y681528D01*
X-15545Y681617D01*
X-15519Y681706D01*
X-15489Y681793D01*
X-15456Y681879D01*
X-15419Y681963D01*
X-15379Y682046D01*
X-15335Y682127D01*
X-15288Y682206D01*
X-15237Y682283D01*
X-15183Y682358D01*
X-15126Y682431D01*
X-15066Y682501D01*
X-15003Y682568D01*
X-14937Y682632D01*
X-14869Y682694D01*
X-14798Y682753D01*
X-14724Y682808D01*
X-14648Y682861D01*
X-14570Y682910D01*
X-14490Y682956D01*
X-14409Y682998D01*
X-14325Y683037D01*
X-14240Y683072D01*
X-14153Y683103D01*
X-14065Y683131D01*
X-13976Y683155D01*
X-13886Y683175D01*
X-13796Y683192D01*
X-13704Y683204D01*
X-13612Y683213D01*
X-13520Y683217D01*
X-13428Y683218D01*
X-13201Y683212D01*
X-12974Y683201D01*
X-12747Y683184D01*
X-12521Y683161D01*
X-12295Y683134D01*
X-12070Y683100D01*
X-11846Y683062D01*
X-11623Y683018D01*
X-11401Y682969D01*
X-11180Y682914D01*
X-10961Y682854D01*
X-10743Y682789D01*
X-10527Y682718D01*
X-10313Y682643D01*
X-10100Y682562D01*
X-9890Y682476D01*
X-9681Y682385D01*
X-10098Y677390D02*
X-10013Y677354D01*
X-9930Y677314D01*
X-9849Y677271D01*
X-9769Y677224D01*
X-9692Y677174D01*
X-9616Y677121D01*
X-9543Y677065D01*
X-9473Y677005D01*
X-9405Y676943D01*
X-9340Y676878D01*
X-9278Y676810D01*
X-9218Y676739D01*
X-9162Y676666D01*
X-9109Y676591D01*
X-9059Y676513D01*
X-9013Y676434D01*
X-8970Y676352D01*
X-8930Y676269D01*
X-8894Y676184D01*
X-8862Y676098D01*
X-8833Y676010D01*
X-8809Y675921D01*
X-8788Y675831D01*
X-8771Y675741D01*
X-8757Y675650D01*
X-8748Y675558D01*
X-8743Y675466D01*
X-8741Y675374D01*
X-8743Y675282D01*
X-8750Y675190D01*
X-8760Y675098D01*
X-8774Y675007D01*
X-8792Y674916D01*
X-8814Y674827D01*
X-8840Y674738D01*
X-8870Y674651D01*
X-8903Y674565D01*
X-8940Y674481D01*
X-8980Y674398D01*
X-9024Y674317D01*
X-9071Y674238D01*
X-9122Y674161D01*
X-9176Y674086D01*
X-9233Y674013D01*
X-9293Y673943D01*
X-9356Y673876D01*
X-9422Y673812D01*
X-9490Y673750D01*
X-9561Y673691D01*
X-9635Y673636D01*
X-9711Y673583D01*
X-9789Y673534D01*
X-9869Y673488D01*
X-9950Y673446D01*
X-10034Y673407D01*
X-10119Y673372D01*
X-10206Y673341D01*
X-10294Y673313D01*
X-10383Y673289D01*
X-10473Y673269D01*
X-10563Y673252D01*
X-10655Y673240D01*
X-10747Y673231D01*
X-10839Y673227D01*
X-10931Y673226D01*
X-10931Y673227D02*
X-11265Y673236D01*
X-11598Y673253D01*
X-11931Y673277D01*
X-12264Y673310D01*
X-12595Y673350D01*
X-12926Y673398D01*
X-13255Y673454D01*
X-13583Y673517D01*
X-13909Y673589D01*
X-14233Y673668D01*
X-14556Y673754D01*
X-14876Y673849D01*
X-15194Y673951D01*
X-15510Y674060D01*
X562Y673227D02*
X3892Y673227D01*
X562Y673227D02*
X464Y673229D01*
X366Y673235D01*
X268Y673244D01*
X171Y673258D01*
X75Y673275D01*
X-21Y673296D01*
X-116Y673321D01*
X-210Y673349D01*
X-303Y673381D01*
X-394Y673417D01*
X-484Y673456D01*
X-572Y673499D01*
X-659Y673546D01*
X-743Y673595D01*
X-826Y673648D01*
X-906Y673704D01*
X-985Y673763D01*
X-1060Y673826D01*
X-1134Y673891D01*
X-1204Y673959D01*
X-1272Y674029D01*
X-1338Y674103D01*
X-1400Y674179D01*
X-1459Y674257D01*
X-1515Y674337D01*
X-1568Y674420D01*
X-1618Y674504D01*
X-1664Y674591D01*
X-1707Y674679D01*
X-1746Y674769D01*
X-1782Y674860D01*
X-1814Y674953D01*
X-1842Y675047D01*
X-1867Y675142D01*
X-1888Y675238D01*
X-1905Y675334D01*
X-1919Y675431D01*
X-1928Y675529D01*
X-1934Y675627D01*
X-1936Y675725D01*
X-1936Y680720D01*
X-1934Y680818D01*
X-1928Y680916D01*
X-1919Y681014D01*
X-1905Y681111D01*
X-1888Y681207D01*
X-1867Y681303D01*
X-1842Y681398D01*
X-1814Y681492D01*
X-1782Y681585D01*
X-1746Y681676D01*
X-1707Y681766D01*
X-1664Y681854D01*
X-1617Y681941D01*
X-1568Y682025D01*
X-1515Y682108D01*
X-1459Y682188D01*
X-1400Y682266D01*
X-1337Y682342D01*
X-1272Y682416D01*
X-1204Y682486D01*
X-1134Y682554D01*
X-1060Y682619D01*
X-984Y682682D01*
X-906Y682741D01*
X-826Y682797D01*
X-743Y682850D01*
X-659Y682899D01*
X-572Y682946D01*
X-484Y682989D01*
X-394Y683028D01*
X-303Y683064D01*
X-210Y683096D01*
X-116Y683124D01*
X-21Y683149D01*
X75Y683170D01*
X171Y683187D01*
X268Y683201D01*
X366Y683210D01*
X464Y683216D01*
X562Y683218D01*
X3892Y683218D01*
X10022Y679887D02*
X10022Y676557D01*
X10022Y679887D02*
X10024Y680001D01*
X10030Y680114D01*
X10039Y680228D01*
X10053Y680340D01*
X10070Y680453D01*
X10092Y680565D01*
X10117Y680675D01*
X10145Y680785D01*
X10178Y680894D01*
X10214Y681002D01*
X10254Y681109D01*
X10298Y681214D01*
X10345Y681317D01*
X10395Y681419D01*
X10449Y681519D01*
X10507Y681617D01*
X10568Y681713D01*
X10631Y681807D01*
X10699Y681899D01*
X10769Y681989D01*
X10842Y682075D01*
X10918Y682160D01*
X10997Y682242D01*
X11079Y682321D01*
X11164Y682397D01*
X11250Y682470D01*
X11340Y682540D01*
X11432Y682608D01*
X11526Y682671D01*
X11622Y682732D01*
X11720Y682790D01*
X11820Y682844D01*
X11922Y682894D01*
X12025Y682941D01*
X12130Y682985D01*
X12237Y683025D01*
X12345Y683061D01*
X12454Y683094D01*
X12564Y683122D01*
X12674Y683147D01*
X12786Y683169D01*
X12899Y683186D01*
X13011Y683200D01*
X13125Y683209D01*
X13238Y683215D01*
X13352Y683217D01*
X13466Y683215D01*
X13579Y683209D01*
X13693Y683200D01*
X13805Y683186D01*
X13918Y683169D01*
X14030Y683147D01*
X14140Y683122D01*
X14250Y683094D01*
X14359Y683061D01*
X14467Y683025D01*
X14574Y682985D01*
X14679Y682941D01*
X14782Y682894D01*
X14884Y682844D01*
X14984Y682790D01*
X15082Y682732D01*
X15178Y682671D01*
X15272Y682608D01*
X15364Y682540D01*
X15454Y682470D01*
X15540Y682397D01*
X15625Y682321D01*
X15707Y682242D01*
X15786Y682160D01*
X15862Y682075D01*
X15935Y681989D01*
X16005Y681899D01*
X16073Y681807D01*
X16136Y681713D01*
X16197Y681617D01*
X16255Y681519D01*
X16309Y681419D01*
X16359Y681317D01*
X16406Y681214D01*
X16450Y681109D01*
X16490Y681002D01*
X16526Y680894D01*
X16559Y680785D01*
X16587Y680675D01*
X16612Y680565D01*
X16634Y680453D01*
X16651Y680340D01*
X16665Y680228D01*
X16674Y680114D01*
X16680Y680001D01*
X16682Y679887D01*
X16682Y676557D01*
X16680Y676443D01*
X16674Y676330D01*
X16665Y676216D01*
X16651Y676104D01*
X16634Y675991D01*
X16612Y675879D01*
X16587Y675769D01*
X16559Y675659D01*
X16526Y675550D01*
X16490Y675442D01*
X16450Y675335D01*
X16406Y675230D01*
X16359Y675127D01*
X16309Y675025D01*
X16255Y674925D01*
X16197Y674827D01*
X16136Y674731D01*
X16073Y674637D01*
X16005Y674545D01*
X15935Y674455D01*
X15862Y674369D01*
X15786Y674284D01*
X15707Y674202D01*
X15625Y674123D01*
X15540Y674047D01*
X15454Y673974D01*
X15364Y673904D01*
X15272Y673836D01*
X15178Y673773D01*
X15082Y673712D01*
X14984Y673654D01*
X14884Y673600D01*
X14782Y673550D01*
X14679Y673503D01*
X14574Y673459D01*
X14467Y673419D01*
X14359Y673383D01*
X14250Y673350D01*
X14140Y673322D01*
X14030Y673297D01*
X13918Y673275D01*
X13805Y673258D01*
X13693Y673244D01*
X13579Y673235D01*
X13466Y673229D01*
X13352Y673227D01*
X13238Y673229D01*
X13125Y673235D01*
X13011Y673244D01*
X12899Y673258D01*
X12786Y673275D01*
X12674Y673297D01*
X12564Y673322D01*
X12454Y673350D01*
X12345Y673383D01*
X12237Y673419D01*
X12130Y673459D01*
X12025Y673503D01*
X11922Y673550D01*
X11820Y673600D01*
X11720Y673654D01*
X11622Y673712D01*
X11526Y673773D01*
X11432Y673836D01*
X11340Y673904D01*
X11250Y673974D01*
X11164Y674047D01*
X11079Y674123D01*
X10997Y674202D01*
X10918Y674284D01*
X10842Y674369D01*
X10769Y674455D01*
X10699Y674545D01*
X10631Y674637D01*
X10568Y674731D01*
X10507Y674827D01*
X10449Y674925D01*
X10395Y675025D01*
X10345Y675127D01*
X10298Y675230D01*
X10254Y675335D01*
X10214Y675442D01*
X10178Y675550D01*
X10145Y675659D01*
X10117Y675769D01*
X10092Y675879D01*
X10070Y675991D01*
X10053Y676104D01*
X10039Y676216D01*
X10030Y676330D01*
X10024Y676443D01*
X10022Y676557D01*
X24218Y673227D02*
X24218Y683218D01*
X29213Y683218D01*
X29213Y681553D01*
X37008Y673227D02*
X41171Y673227D01*
X37008Y673227D02*
X36910Y673229D01*
X36812Y673235D01*
X36714Y673244D01*
X36617Y673258D01*
X36521Y673275D01*
X36425Y673296D01*
X36330Y673321D01*
X36236Y673349D01*
X36143Y673381D01*
X36052Y673417D01*
X35962Y673456D01*
X35874Y673499D01*
X35787Y673546D01*
X35703Y673595D01*
X35620Y673648D01*
X35540Y673704D01*
X35462Y673763D01*
X35386Y673826D01*
X35312Y673891D01*
X35242Y673959D01*
X35174Y674029D01*
X35109Y674103D01*
X35046Y674179D01*
X34987Y674257D01*
X34931Y674337D01*
X34878Y674420D01*
X34829Y674504D01*
X34782Y674591D01*
X34739Y674679D01*
X34700Y674769D01*
X34664Y674860D01*
X34632Y674953D01*
X34604Y675047D01*
X34579Y675142D01*
X34558Y675238D01*
X34541Y675334D01*
X34527Y675431D01*
X34518Y675529D01*
X34512Y675627D01*
X34510Y675725D01*
X34510Y679887D01*
X34511Y679887D02*
X34513Y680001D01*
X34519Y680114D01*
X34528Y680228D01*
X34542Y680340D01*
X34559Y680453D01*
X34581Y680565D01*
X34606Y680675D01*
X34634Y680785D01*
X34667Y680894D01*
X34703Y681002D01*
X34743Y681109D01*
X34787Y681214D01*
X34834Y681317D01*
X34884Y681419D01*
X34938Y681519D01*
X34996Y681617D01*
X35057Y681713D01*
X35120Y681807D01*
X35188Y681899D01*
X35258Y681989D01*
X35331Y682075D01*
X35407Y682160D01*
X35486Y682242D01*
X35568Y682321D01*
X35653Y682397D01*
X35739Y682470D01*
X35829Y682540D01*
X35921Y682608D01*
X36015Y682671D01*
X36111Y682732D01*
X36209Y682790D01*
X36309Y682844D01*
X36411Y682894D01*
X36514Y682941D01*
X36619Y682985D01*
X36726Y683025D01*
X36834Y683061D01*
X36943Y683094D01*
X37053Y683122D01*
X37163Y683147D01*
X37275Y683169D01*
X37388Y683186D01*
X37500Y683200D01*
X37614Y683209D01*
X37727Y683215D01*
X37841Y683217D01*
X37955Y683215D01*
X38068Y683209D01*
X38182Y683200D01*
X38294Y683186D01*
X38407Y683169D01*
X38519Y683147D01*
X38629Y683122D01*
X38739Y683094D01*
X38848Y683061D01*
X38956Y683025D01*
X39063Y682985D01*
X39168Y682941D01*
X39271Y682894D01*
X39373Y682844D01*
X39473Y682790D01*
X39571Y682732D01*
X39667Y682671D01*
X39761Y682608D01*
X39853Y682540D01*
X39943Y682470D01*
X40029Y682397D01*
X40114Y682321D01*
X40196Y682242D01*
X40275Y682160D01*
X40351Y682075D01*
X40424Y681989D01*
X40494Y681899D01*
X40562Y681807D01*
X40625Y681713D01*
X40686Y681617D01*
X40744Y681519D01*
X40798Y681419D01*
X40848Y681317D01*
X40895Y681214D01*
X40939Y681109D01*
X40979Y681002D01*
X41015Y680894D01*
X41048Y680785D01*
X41076Y680675D01*
X41101Y680565D01*
X41123Y680453D01*
X41140Y680340D01*
X41154Y680228D01*
X41163Y680114D01*
X41169Y680001D01*
X41171Y679887D01*
X41171Y678222D01*
X34510Y678222D01*
D11*
X231140Y657860D02*
X231140Y-68580D01*
D12*
X190759Y673227D02*
X187429Y683218D01*
X194090Y683218D02*
X190759Y673227D01*
X200874Y679055D02*
X210865Y679055D01*
X219419Y679055D02*
X223582Y677390D01*
X219419Y679054D02*
X219334Y679090D01*
X219251Y679130D01*
X219170Y679173D01*
X219090Y679220D01*
X219013Y679270D01*
X218937Y679323D01*
X218864Y679379D01*
X218794Y679439D01*
X218726Y679501D01*
X218661Y679566D01*
X218599Y679634D01*
X218539Y679705D01*
X218483Y679778D01*
X218430Y679853D01*
X218380Y679931D01*
X218334Y680010D01*
X218291Y680092D01*
X218251Y680175D01*
X218215Y680260D01*
X218183Y680346D01*
X218154Y680434D01*
X218130Y680523D01*
X218109Y680613D01*
X218092Y680703D01*
X218078Y680794D01*
X218069Y680886D01*
X218064Y680978D01*
X218062Y681070D01*
X218064Y681162D01*
X218071Y681254D01*
X218081Y681346D01*
X218095Y681437D01*
X218113Y681528D01*
X218135Y681617D01*
X218161Y681706D01*
X218191Y681793D01*
X218224Y681879D01*
X218261Y681963D01*
X218301Y682046D01*
X218345Y682127D01*
X218392Y682206D01*
X218443Y682283D01*
X218497Y682358D01*
X218554Y682431D01*
X218614Y682501D01*
X218677Y682568D01*
X218743Y682632D01*
X218811Y682694D01*
X218882Y682753D01*
X218956Y682808D01*
X219032Y682861D01*
X219110Y682910D01*
X219190Y682956D01*
X219271Y682998D01*
X219355Y683037D01*
X219440Y683072D01*
X219527Y683103D01*
X219615Y683131D01*
X219704Y683155D01*
X219794Y683175D01*
X219884Y683192D01*
X219976Y683204D01*
X220068Y683213D01*
X220160Y683217D01*
X220252Y683218D01*
X220479Y683212D01*
X220706Y683201D01*
X220933Y683184D01*
X221159Y683161D01*
X221385Y683134D01*
X221610Y683100D01*
X221834Y683062D01*
X222057Y683018D01*
X222279Y682969D01*
X222500Y682914D01*
X222719Y682854D01*
X222937Y682789D01*
X223153Y682718D01*
X223367Y682643D01*
X223580Y682562D01*
X223790Y682476D01*
X223999Y682385D01*
X223582Y677390D02*
X223667Y677354D01*
X223750Y677314D01*
X223831Y677271D01*
X223911Y677224D01*
X223988Y677174D01*
X224064Y677121D01*
X224137Y677065D01*
X224207Y677005D01*
X224275Y676943D01*
X224340Y676878D01*
X224402Y676810D01*
X224462Y676739D01*
X224518Y676666D01*
X224571Y676591D01*
X224621Y676513D01*
X224667Y676434D01*
X224710Y676352D01*
X224750Y676269D01*
X224786Y676184D01*
X224818Y676098D01*
X224847Y676010D01*
X224871Y675921D01*
X224892Y675831D01*
X224909Y675741D01*
X224923Y675650D01*
X224932Y675558D01*
X224937Y675466D01*
X224939Y675374D01*
X224937Y675282D01*
X224930Y675190D01*
X224920Y675098D01*
X224906Y675007D01*
X224888Y674916D01*
X224866Y674827D01*
X224840Y674738D01*
X224810Y674651D01*
X224777Y674565D01*
X224740Y674481D01*
X224700Y674398D01*
X224656Y674317D01*
X224609Y674238D01*
X224558Y674161D01*
X224504Y674086D01*
X224447Y674013D01*
X224387Y673943D01*
X224324Y673876D01*
X224258Y673812D01*
X224190Y673750D01*
X224119Y673691D01*
X224045Y673636D01*
X223969Y673583D01*
X223891Y673534D01*
X223811Y673488D01*
X223730Y673446D01*
X223646Y673407D01*
X223561Y673372D01*
X223474Y673341D01*
X223386Y673313D01*
X223297Y673289D01*
X223207Y673269D01*
X223117Y673252D01*
X223025Y673240D01*
X222933Y673231D01*
X222841Y673227D01*
X222749Y673226D01*
X222749Y673227D02*
X222415Y673236D01*
X222082Y673253D01*
X221749Y673277D01*
X221416Y673310D01*
X221085Y673350D01*
X220754Y673398D01*
X220425Y673454D01*
X220097Y673517D01*
X219771Y673589D01*
X219447Y673668D01*
X219124Y673754D01*
X218804Y673849D01*
X218486Y673951D01*
X218170Y674060D01*
X234242Y673227D02*
X237572Y673227D01*
X234242Y673227D02*
X234144Y673229D01*
X234046Y673235D01*
X233948Y673244D01*
X233851Y673258D01*
X233755Y673275D01*
X233659Y673296D01*
X233564Y673321D01*
X233470Y673349D01*
X233377Y673381D01*
X233286Y673417D01*
X233196Y673456D01*
X233108Y673499D01*
X233021Y673546D01*
X232937Y673595D01*
X232854Y673648D01*
X232774Y673704D01*
X232696Y673763D01*
X232620Y673826D01*
X232546Y673891D01*
X232476Y673959D01*
X232408Y674029D01*
X232343Y674103D01*
X232280Y674179D01*
X232221Y674257D01*
X232165Y674337D01*
X232112Y674420D01*
X232063Y674504D01*
X232016Y674591D01*
X231973Y674679D01*
X231934Y674769D01*
X231898Y674860D01*
X231866Y674953D01*
X231838Y675047D01*
X231813Y675142D01*
X231792Y675238D01*
X231775Y675334D01*
X231761Y675431D01*
X231752Y675529D01*
X231746Y675627D01*
X231744Y675725D01*
X231744Y680720D01*
X231746Y680818D01*
X231752Y680916D01*
X231761Y681014D01*
X231775Y681111D01*
X231792Y681207D01*
X231813Y681303D01*
X231838Y681398D01*
X231866Y681492D01*
X231898Y681585D01*
X231934Y681676D01*
X231973Y681766D01*
X232016Y681854D01*
X232063Y681941D01*
X232112Y682025D01*
X232165Y682108D01*
X232221Y682188D01*
X232280Y682267D01*
X232343Y682342D01*
X232408Y682416D01*
X232476Y682486D01*
X232546Y682554D01*
X232620Y682620D01*
X232696Y682682D01*
X232774Y682741D01*
X232854Y682797D01*
X232937Y682850D01*
X233021Y682900D01*
X233108Y682946D01*
X233196Y682989D01*
X233286Y683028D01*
X233377Y683064D01*
X233470Y683096D01*
X233564Y683124D01*
X233659Y683149D01*
X233755Y683170D01*
X233851Y683187D01*
X233948Y683201D01*
X234046Y683210D01*
X234144Y683216D01*
X234242Y683218D01*
X237572Y683218D01*
X243702Y679887D02*
X243702Y676557D01*
X243702Y679887D02*
X243704Y680001D01*
X243710Y680114D01*
X243719Y680228D01*
X243733Y680340D01*
X243750Y680453D01*
X243772Y680565D01*
X243797Y680675D01*
X243825Y680785D01*
X243858Y680894D01*
X243894Y681002D01*
X243934Y681109D01*
X243978Y681214D01*
X244025Y681317D01*
X244075Y681419D01*
X244129Y681519D01*
X244187Y681617D01*
X244248Y681713D01*
X244311Y681807D01*
X244379Y681899D01*
X244449Y681989D01*
X244522Y682075D01*
X244598Y682160D01*
X244677Y682242D01*
X244759Y682321D01*
X244844Y682397D01*
X244930Y682470D01*
X245020Y682540D01*
X245112Y682608D01*
X245206Y682671D01*
X245302Y682732D01*
X245400Y682790D01*
X245500Y682844D01*
X245602Y682894D01*
X245705Y682941D01*
X245810Y682985D01*
X245917Y683025D01*
X246025Y683061D01*
X246134Y683094D01*
X246244Y683122D01*
X246354Y683147D01*
X246466Y683169D01*
X246579Y683186D01*
X246691Y683200D01*
X246805Y683209D01*
X246918Y683215D01*
X247032Y683217D01*
X247146Y683215D01*
X247259Y683209D01*
X247373Y683200D01*
X247485Y683186D01*
X247598Y683169D01*
X247710Y683147D01*
X247820Y683122D01*
X247930Y683094D01*
X248039Y683061D01*
X248147Y683025D01*
X248254Y682985D01*
X248359Y682941D01*
X248462Y682894D01*
X248564Y682844D01*
X248664Y682790D01*
X248762Y682732D01*
X248858Y682671D01*
X248952Y682608D01*
X249044Y682540D01*
X249134Y682470D01*
X249220Y682397D01*
X249305Y682321D01*
X249387Y682242D01*
X249466Y682160D01*
X249542Y682075D01*
X249615Y681989D01*
X249685Y681899D01*
X249753Y681807D01*
X249816Y681713D01*
X249877Y681617D01*
X249935Y681519D01*
X249989Y681419D01*
X250039Y681317D01*
X250086Y681214D01*
X250130Y681109D01*
X250170Y681002D01*
X250206Y680894D01*
X250239Y680785D01*
X250267Y680675D01*
X250292Y680565D01*
X250314Y680453D01*
X250331Y680340D01*
X250345Y680228D01*
X250354Y680114D01*
X250360Y680001D01*
X250362Y679887D01*
X250362Y676557D01*
X250360Y676443D01*
X250354Y676330D01*
X250345Y676216D01*
X250331Y676104D01*
X250314Y675991D01*
X250292Y675879D01*
X250267Y675769D01*
X250239Y675659D01*
X250206Y675550D01*
X250170Y675442D01*
X250130Y675335D01*
X250086Y675230D01*
X250039Y675127D01*
X249989Y675025D01*
X249935Y674925D01*
X249877Y674827D01*
X249816Y674731D01*
X249753Y674637D01*
X249685Y674545D01*
X249615Y674455D01*
X249542Y674369D01*
X249466Y674284D01*
X249387Y674202D01*
X249305Y674123D01*
X249220Y674047D01*
X249134Y673974D01*
X249044Y673904D01*
X248952Y673836D01*
X248858Y673773D01*
X248762Y673712D01*
X248664Y673654D01*
X248564Y673600D01*
X248462Y673550D01*
X248359Y673503D01*
X248254Y673459D01*
X248147Y673419D01*
X248039Y673383D01*
X247930Y673350D01*
X247820Y673322D01*
X247710Y673297D01*
X247598Y673275D01*
X247485Y673258D01*
X247373Y673244D01*
X247259Y673235D01*
X247146Y673229D01*
X247032Y673227D01*
X246918Y673229D01*
X246805Y673235D01*
X246691Y673244D01*
X246579Y673258D01*
X246466Y673275D01*
X246354Y673297D01*
X246244Y673322D01*
X246134Y673350D01*
X246025Y673383D01*
X245917Y673419D01*
X245810Y673459D01*
X245705Y673503D01*
X245602Y673550D01*
X245500Y673600D01*
X245400Y673654D01*
X245302Y673712D01*
X245206Y673773D01*
X245112Y673836D01*
X245020Y673904D01*
X244930Y673974D01*
X244844Y674047D01*
X244759Y674123D01*
X244677Y674202D01*
X244598Y674284D01*
X244522Y674369D01*
X244449Y674455D01*
X244379Y674545D01*
X244311Y674637D01*
X244248Y674731D01*
X244187Y674827D01*
X244129Y674925D01*
X244075Y675025D01*
X244025Y675127D01*
X243978Y675230D01*
X243934Y675335D01*
X243894Y675442D01*
X243858Y675550D01*
X243825Y675659D01*
X243797Y675769D01*
X243772Y675879D01*
X243750Y675991D01*
X243733Y676104D01*
X243719Y676216D01*
X243710Y676330D01*
X243704Y676443D01*
X243702Y676557D01*
X257898Y673227D02*
X257898Y683218D01*
X262893Y683218D01*
X262893Y681553D01*
X270688Y673227D02*
X274851Y673227D01*
X270688Y673227D02*
X270590Y673229D01*
X270492Y673235D01*
X270394Y673244D01*
X270297Y673258D01*
X270201Y673275D01*
X270105Y673296D01*
X270010Y673321D01*
X269916Y673349D01*
X269823Y673381D01*
X269732Y673417D01*
X269642Y673456D01*
X269554Y673499D01*
X269467Y673546D01*
X269383Y673595D01*
X269300Y673648D01*
X269220Y673704D01*
X269142Y673763D01*
X269066Y673826D01*
X268992Y673891D01*
X268922Y673959D01*
X268854Y674029D01*
X268789Y674103D01*
X268726Y674179D01*
X268667Y674257D01*
X268611Y674337D01*
X268558Y674420D01*
X268509Y674504D01*
X268462Y674591D01*
X268419Y674679D01*
X268380Y674769D01*
X268344Y674860D01*
X268312Y674953D01*
X268284Y675047D01*
X268259Y675142D01*
X268238Y675238D01*
X268221Y675334D01*
X268207Y675431D01*
X268198Y675529D01*
X268192Y675627D01*
X268190Y675725D01*
X268190Y679887D01*
X268191Y679887D02*
X268193Y680001D01*
X268199Y680114D01*
X268208Y680228D01*
X268222Y680340D01*
X268239Y680453D01*
X268261Y680565D01*
X268286Y680675D01*
X268314Y680785D01*
X268347Y680894D01*
X268383Y681002D01*
X268423Y681109D01*
X268467Y681214D01*
X268514Y681317D01*
X268564Y681419D01*
X268618Y681519D01*
X268676Y681617D01*
X268737Y681713D01*
X268800Y681807D01*
X268868Y681899D01*
X268938Y681989D01*
X269011Y682075D01*
X269087Y682160D01*
X269166Y682242D01*
X269248Y682321D01*
X269333Y682397D01*
X269419Y682470D01*
X269509Y682540D01*
X269601Y682608D01*
X269695Y682671D01*
X269791Y682732D01*
X269889Y682790D01*
X269989Y682844D01*
X270091Y682894D01*
X270194Y682941D01*
X270299Y682985D01*
X270406Y683025D01*
X270514Y683061D01*
X270623Y683094D01*
X270733Y683122D01*
X270843Y683147D01*
X270955Y683169D01*
X271068Y683186D01*
X271180Y683200D01*
X271294Y683209D01*
X271407Y683215D01*
X271521Y683217D01*
X271635Y683215D01*
X271748Y683209D01*
X271862Y683200D01*
X271974Y683186D01*
X272087Y683169D01*
X272199Y683147D01*
X272309Y683122D01*
X272419Y683094D01*
X272528Y683061D01*
X272636Y683025D01*
X272743Y682985D01*
X272848Y682941D01*
X272951Y682894D01*
X273053Y682844D01*
X273153Y682790D01*
X273251Y682732D01*
X273347Y682671D01*
X273441Y682608D01*
X273533Y682540D01*
X273623Y682470D01*
X273709Y682397D01*
X273794Y682321D01*
X273876Y682242D01*
X273955Y682160D01*
X274031Y682075D01*
X274104Y681989D01*
X274174Y681899D01*
X274242Y681807D01*
X274305Y681713D01*
X274366Y681617D01*
X274424Y681519D01*
X274478Y681419D01*
X274528Y681317D01*
X274575Y681214D01*
X274619Y681109D01*
X274659Y681002D01*
X274695Y680894D01*
X274728Y680785D01*
X274756Y680675D01*
X274781Y680565D01*
X274803Y680453D01*
X274820Y680340D01*
X274834Y680228D01*
X274843Y680114D01*
X274849Y680001D01*
X274851Y679887D01*
X274851Y678222D01*
X268190Y678222D01*
D11*
X464820Y657860D02*
X464820Y-68580D01*
D12*
X424439Y673227D02*
X421109Y683218D01*
X427770Y683218D02*
X424439Y673227D01*
X434554Y679055D02*
X444545Y679055D01*
X453099Y679055D02*
X457262Y677390D01*
X453099Y679054D02*
X453014Y679090D01*
X452931Y679130D01*
X452850Y679173D01*
X452770Y679220D01*
X452693Y679270D01*
X452617Y679323D01*
X452544Y679379D01*
X452474Y679439D01*
X452406Y679501D01*
X452341Y679566D01*
X452279Y679634D01*
X452219Y679705D01*
X452163Y679778D01*
X452110Y679853D01*
X452060Y679931D01*
X452014Y680010D01*
X451971Y680092D01*
X451931Y680175D01*
X451895Y680260D01*
X451863Y680346D01*
X451834Y680434D01*
X451810Y680523D01*
X451789Y680613D01*
X451772Y680703D01*
X451758Y680794D01*
X451749Y680886D01*
X451744Y680978D01*
X451742Y681070D01*
X451744Y681162D01*
X451751Y681254D01*
X451761Y681346D01*
X451775Y681437D01*
X451793Y681528D01*
X451815Y681617D01*
X451841Y681706D01*
X451871Y681793D01*
X451904Y681879D01*
X451941Y681963D01*
X451981Y682046D01*
X452025Y682127D01*
X452072Y682206D01*
X452123Y682283D01*
X452177Y682358D01*
X452234Y682431D01*
X452294Y682501D01*
X452357Y682568D01*
X452423Y682632D01*
X452491Y682694D01*
X452562Y682753D01*
X452636Y682808D01*
X452712Y682861D01*
X452790Y682910D01*
X452870Y682956D01*
X452951Y682998D01*
X453035Y683037D01*
X453120Y683072D01*
X453207Y683103D01*
X453295Y683131D01*
X453384Y683155D01*
X453474Y683175D01*
X453564Y683192D01*
X453656Y683204D01*
X453748Y683213D01*
X453840Y683217D01*
X453932Y683218D01*
X454159Y683212D01*
X454386Y683201D01*
X454613Y683184D01*
X454839Y683161D01*
X455065Y683134D01*
X455290Y683100D01*
X455514Y683062D01*
X455737Y683018D01*
X455959Y682969D01*
X456180Y682914D01*
X456399Y682854D01*
X456617Y682789D01*
X456833Y682718D01*
X457047Y682643D01*
X457260Y682562D01*
X457470Y682476D01*
X457679Y682385D01*
X457262Y677390D02*
X457347Y677354D01*
X457430Y677314D01*
X457511Y677271D01*
X457591Y677224D01*
X457668Y677174D01*
X457744Y677121D01*
X457817Y677065D01*
X457887Y677005D01*
X457955Y676943D01*
X458020Y676878D01*
X458082Y676810D01*
X458142Y676739D01*
X458198Y676666D01*
X458251Y676591D01*
X458301Y676513D01*
X458347Y676434D01*
X458390Y676352D01*
X458430Y676269D01*
X458466Y676184D01*
X458498Y676098D01*
X458527Y676010D01*
X458551Y675921D01*
X458572Y675831D01*
X458589Y675741D01*
X458603Y675650D01*
X458612Y675558D01*
X458617Y675466D01*
X458619Y675374D01*
X458617Y675282D01*
X458610Y675190D01*
X458600Y675098D01*
X458586Y675007D01*
X458568Y674916D01*
X458546Y674827D01*
X458520Y674738D01*
X458490Y674651D01*
X458457Y674565D01*
X458420Y674481D01*
X458380Y674398D01*
X458336Y674317D01*
X458289Y674238D01*
X458238Y674161D01*
X458184Y674086D01*
X458127Y674013D01*
X458067Y673943D01*
X458004Y673876D01*
X457938Y673812D01*
X457870Y673750D01*
X457799Y673691D01*
X457725Y673636D01*
X457649Y673583D01*
X457571Y673534D01*
X457491Y673488D01*
X457410Y673446D01*
X457326Y673407D01*
X457241Y673372D01*
X457154Y673341D01*
X457066Y673313D01*
X456977Y673289D01*
X456887Y673269D01*
X456797Y673252D01*
X456705Y673240D01*
X456613Y673231D01*
X456521Y673227D01*
X456429Y673226D01*
X456429Y673227D02*
X456095Y673236D01*
X455762Y673253D01*
X455429Y673277D01*
X455096Y673310D01*
X454765Y673350D01*
X454434Y673398D01*
X454105Y673454D01*
X453777Y673517D01*
X453451Y673589D01*
X453127Y673668D01*
X452804Y673754D01*
X452484Y673849D01*
X452166Y673951D01*
X451850Y674060D01*
X467922Y673227D02*
X471252Y673227D01*
X467922Y673227D02*
X467824Y673229D01*
X467726Y673235D01*
X467628Y673244D01*
X467531Y673258D01*
X467435Y673275D01*
X467339Y673296D01*
X467244Y673321D01*
X467150Y673349D01*
X467057Y673381D01*
X466966Y673417D01*
X466876Y673456D01*
X466788Y673499D01*
X466701Y673546D01*
X466617Y673595D01*
X466534Y673648D01*
X466454Y673704D01*
X466376Y673763D01*
X466300Y673826D01*
X466226Y673891D01*
X466156Y673959D01*
X466088Y674029D01*
X466023Y674103D01*
X465960Y674179D01*
X465901Y674257D01*
X465845Y674337D01*
X465792Y674420D01*
X465743Y674504D01*
X465696Y674591D01*
X465653Y674679D01*
X465614Y674769D01*
X465578Y674860D01*
X465546Y674953D01*
X465518Y675047D01*
X465493Y675142D01*
X465472Y675238D01*
X465455Y675334D01*
X465441Y675431D01*
X465432Y675529D01*
X465426Y675627D01*
X465424Y675725D01*
X465424Y680720D01*
X465426Y680818D01*
X465432Y680916D01*
X465441Y681014D01*
X465455Y681111D01*
X465472Y681207D01*
X465493Y681303D01*
X465518Y681398D01*
X465546Y681492D01*
X465578Y681585D01*
X465614Y681676D01*
X465653Y681766D01*
X465696Y681854D01*
X465743Y681941D01*
X465792Y682025D01*
X465845Y682108D01*
X465901Y682188D01*
X465960Y682267D01*
X466023Y682342D01*
X466088Y682416D01*
X466156Y682486D01*
X466226Y682554D01*
X466300Y682620D01*
X466376Y682682D01*
X466454Y682741D01*
X466534Y682797D01*
X466617Y682850D01*
X466701Y682900D01*
X466788Y682946D01*
X466876Y682989D01*
X466966Y683028D01*
X467057Y683064D01*
X467150Y683096D01*
X467244Y683124D01*
X467339Y683149D01*
X467435Y683170D01*
X467531Y683187D01*
X467628Y683201D01*
X467726Y683210D01*
X467824Y683216D01*
X467922Y683218D01*
X471252Y683218D01*
X477382Y679887D02*
X477382Y676557D01*
X477382Y679887D02*
X477384Y680001D01*
X477390Y680114D01*
X477399Y680228D01*
X477413Y680340D01*
X477430Y680453D01*
X477452Y680565D01*
X477477Y680675D01*
X477505Y680785D01*
X477538Y680894D01*
X477574Y681002D01*
X477614Y681109D01*
X477658Y681214D01*
X477705Y681317D01*
X477755Y681419D01*
X477809Y681519D01*
X477867Y681617D01*
X477928Y681713D01*
X477991Y681807D01*
X478059Y681899D01*
X478129Y681989D01*
X478202Y682075D01*
X478278Y682160D01*
X478357Y682242D01*
X478439Y682321D01*
X478524Y682397D01*
X478610Y682470D01*
X478700Y682540D01*
X478792Y682608D01*
X478886Y682671D01*
X478982Y682732D01*
X479080Y682790D01*
X479180Y682844D01*
X479282Y682894D01*
X479385Y682941D01*
X479490Y682985D01*
X479597Y683025D01*
X479705Y683061D01*
X479814Y683094D01*
X479924Y683122D01*
X480034Y683147D01*
X480146Y683169D01*
X480259Y683186D01*
X480371Y683200D01*
X480485Y683209D01*
X480598Y683215D01*
X480712Y683217D01*
X480826Y683215D01*
X480939Y683209D01*
X481053Y683200D01*
X481165Y683186D01*
X481278Y683169D01*
X481390Y683147D01*
X481500Y683122D01*
X481610Y683094D01*
X481719Y683061D01*
X481827Y683025D01*
X481934Y682985D01*
X482039Y682941D01*
X482142Y682894D01*
X482244Y682844D01*
X482344Y682790D01*
X482442Y682732D01*
X482538Y682671D01*
X482632Y682608D01*
X482724Y682540D01*
X482814Y682470D01*
X482900Y682397D01*
X482985Y682321D01*
X483067Y682242D01*
X483146Y682160D01*
X483222Y682075D01*
X483295Y681989D01*
X483365Y681899D01*
X483433Y681807D01*
X483496Y681713D01*
X483557Y681617D01*
X483615Y681519D01*
X483669Y681419D01*
X483719Y681317D01*
X483766Y681214D01*
X483810Y681109D01*
X483850Y681002D01*
X483886Y680894D01*
X483919Y680785D01*
X483947Y680675D01*
X483972Y680565D01*
X483994Y680453D01*
X484011Y680340D01*
X484025Y680228D01*
X484034Y680114D01*
X484040Y680001D01*
X484042Y679887D01*
X484042Y676557D01*
X484040Y676443D01*
X484034Y676330D01*
X484025Y676216D01*
X484011Y676104D01*
X483994Y675991D01*
X483972Y675879D01*
X483947Y675769D01*
X483919Y675659D01*
X483886Y675550D01*
X483850Y675442D01*
X483810Y675335D01*
X483766Y675230D01*
X483719Y675127D01*
X483669Y675025D01*
X483615Y674925D01*
X483557Y674827D01*
X483496Y674731D01*
X483433Y674637D01*
X483365Y674545D01*
X483295Y674455D01*
X483222Y674369D01*
X483146Y674284D01*
X483067Y674202D01*
X482985Y674123D01*
X482900Y674047D01*
X482814Y673974D01*
X482724Y673904D01*
X482632Y673836D01*
X482538Y673773D01*
X482442Y673712D01*
X482344Y673654D01*
X482244Y673600D01*
X482142Y673550D01*
X482039Y673503D01*
X481934Y673459D01*
X481827Y673419D01*
X481719Y673383D01*
X481610Y673350D01*
X481500Y673322D01*
X481390Y673297D01*
X481278Y673275D01*
X481165Y673258D01*
X481053Y673244D01*
X480939Y673235D01*
X480826Y673229D01*
X480712Y673227D01*
X480598Y673229D01*
X480485Y673235D01*
X480371Y673244D01*
X480259Y673258D01*
X480146Y673275D01*
X480034Y673297D01*
X479924Y673322D01*
X479814Y673350D01*
X479705Y673383D01*
X479597Y673419D01*
X479490Y673459D01*
X479385Y673503D01*
X479282Y673550D01*
X479180Y673600D01*
X479080Y673654D01*
X478982Y673712D01*
X478886Y673773D01*
X478792Y673836D01*
X478700Y673904D01*
X478610Y673974D01*
X478524Y674047D01*
X478439Y674123D01*
X478357Y674202D01*
X478278Y674284D01*
X478202Y674369D01*
X478129Y674455D01*
X478059Y674545D01*
X477991Y674637D01*
X477928Y674731D01*
X477867Y674827D01*
X477809Y674925D01*
X477755Y675025D01*
X477705Y675127D01*
X477658Y675230D01*
X477614Y675335D01*
X477574Y675442D01*
X477538Y675550D01*
X477505Y675659D01*
X477477Y675769D01*
X477452Y675879D01*
X477430Y675991D01*
X477413Y676104D01*
X477399Y676216D01*
X477390Y676330D01*
X477384Y676443D01*
X477382Y676557D01*
X491578Y673227D02*
X491578Y683218D01*
X496573Y683218D01*
X496573Y681553D01*
X504368Y673227D02*
X508531Y673227D01*
X504368Y673227D02*
X504270Y673229D01*
X504172Y673235D01*
X504074Y673244D01*
X503977Y673258D01*
X503881Y673275D01*
X503785Y673296D01*
X503690Y673321D01*
X503596Y673349D01*
X503503Y673381D01*
X503412Y673417D01*
X503322Y673456D01*
X503234Y673499D01*
X503147Y673546D01*
X503063Y673595D01*
X502980Y673648D01*
X502900Y673704D01*
X502822Y673763D01*
X502746Y673826D01*
X502672Y673891D01*
X502602Y673959D01*
X502534Y674029D01*
X502469Y674103D01*
X502406Y674179D01*
X502347Y674257D01*
X502291Y674337D01*
X502238Y674420D01*
X502189Y674504D01*
X502142Y674591D01*
X502099Y674679D01*
X502060Y674769D01*
X502024Y674860D01*
X501992Y674953D01*
X501964Y675047D01*
X501939Y675142D01*
X501918Y675238D01*
X501901Y675334D01*
X501887Y675431D01*
X501878Y675529D01*
X501872Y675627D01*
X501870Y675725D01*
X501870Y679887D01*
X501871Y679887D02*
X501873Y680001D01*
X501879Y680114D01*
X501888Y680228D01*
X501902Y680340D01*
X501919Y680453D01*
X501941Y680565D01*
X501966Y680675D01*
X501994Y680785D01*
X502027Y680894D01*
X502063Y681002D01*
X502103Y681109D01*
X502147Y681214D01*
X502194Y681317D01*
X502244Y681419D01*
X502298Y681519D01*
X502356Y681617D01*
X502417Y681713D01*
X502480Y681807D01*
X502548Y681899D01*
X502618Y681989D01*
X502691Y682075D01*
X502767Y682160D01*
X502846Y682242D01*
X502928Y682321D01*
X503013Y682397D01*
X503099Y682470D01*
X503189Y682540D01*
X503281Y682608D01*
X503375Y682671D01*
X503471Y682732D01*
X503569Y682790D01*
X503669Y682844D01*
X503771Y682894D01*
X503874Y682941D01*
X503979Y682985D01*
X504086Y683025D01*
X504194Y683061D01*
X504303Y683094D01*
X504413Y683122D01*
X504523Y683147D01*
X504635Y683169D01*
X504748Y683186D01*
X504860Y683200D01*
X504974Y683209D01*
X505087Y683215D01*
X505201Y683217D01*
X505315Y683215D01*
X505428Y683209D01*
X505542Y683200D01*
X505654Y683186D01*
X505767Y683169D01*
X505879Y683147D01*
X505989Y683122D01*
X506099Y683094D01*
X506208Y683061D01*
X506316Y683025D01*
X506423Y682985D01*
X506528Y682941D01*
X506631Y682894D01*
X506733Y682844D01*
X506833Y682790D01*
X506931Y682732D01*
X507027Y682671D01*
X507121Y682608D01*
X507213Y682540D01*
X507303Y682470D01*
X507389Y682397D01*
X507474Y682321D01*
X507556Y682242D01*
X507635Y682160D01*
X507711Y682075D01*
X507784Y681989D01*
X507854Y681899D01*
X507922Y681807D01*
X507985Y681713D01*
X508046Y681617D01*
X508104Y681519D01*
X508158Y681419D01*
X508208Y681317D01*
X508255Y681214D01*
X508299Y681109D01*
X508339Y681002D01*
X508375Y680894D01*
X508408Y680785D01*
X508436Y680675D01*
X508461Y680565D01*
X508483Y680453D01*
X508500Y680340D01*
X508514Y680228D01*
X508523Y680114D01*
X508529Y680001D01*
X508531Y679887D01*
X508531Y678222D01*
X501870Y678222D01*
D11*
X698500Y657860D02*
X698500Y-68580D01*
D12*
X658119Y673227D02*
X654789Y683218D01*
X661450Y683218D02*
X658119Y673227D01*
X668234Y679055D02*
X678225Y679055D01*
X686779Y679055D02*
X690942Y677390D01*
X686779Y679054D02*
X686694Y679090D01*
X686611Y679130D01*
X686530Y679173D01*
X686450Y679220D01*
X686373Y679270D01*
X686297Y679323D01*
X686224Y679379D01*
X686154Y679439D01*
X686086Y679501D01*
X686021Y679566D01*
X685959Y679634D01*
X685899Y679705D01*
X685843Y679778D01*
X685790Y679853D01*
X685740Y679931D01*
X685694Y680010D01*
X685651Y680092D01*
X685611Y680175D01*
X685575Y680260D01*
X685543Y680346D01*
X685514Y680434D01*
X685490Y680523D01*
X685469Y680613D01*
X685452Y680703D01*
X685438Y680794D01*
X685429Y680886D01*
X685424Y680978D01*
X685422Y681070D01*
X685424Y681162D01*
X685431Y681254D01*
X685441Y681346D01*
X685455Y681437D01*
X685473Y681528D01*
X685495Y681617D01*
X685521Y681706D01*
X685551Y681793D01*
X685584Y681879D01*
X685621Y681963D01*
X685661Y682046D01*
X685705Y682127D01*
X685752Y682206D01*
X685803Y682283D01*
X685857Y682358D01*
X685914Y682431D01*
X685974Y682501D01*
X686037Y682568D01*
X686103Y682632D01*
X686171Y682694D01*
X686242Y682753D01*
X686316Y682808D01*
X686392Y682861D01*
X686470Y682910D01*
X686550Y682956D01*
X686631Y682998D01*
X686715Y683037D01*
X686800Y683072D01*
X686887Y683103D01*
X686975Y683131D01*
X687064Y683155D01*
X687154Y683175D01*
X687244Y683192D01*
X687336Y683204D01*
X687428Y683213D01*
X687520Y683217D01*
X687612Y683218D01*
X687839Y683212D01*
X688066Y683201D01*
X688293Y683184D01*
X688519Y683161D01*
X688745Y683134D01*
X688970Y683100D01*
X689194Y683062D01*
X689417Y683018D01*
X689639Y682969D01*
X689860Y682914D01*
X690079Y682854D01*
X690297Y682789D01*
X690513Y682718D01*
X690727Y682643D01*
X690940Y682562D01*
X691150Y682476D01*
X691359Y682385D01*
X690942Y677390D02*
X691027Y677354D01*
X691110Y677314D01*
X691191Y677271D01*
X691271Y677224D01*
X691348Y677174D01*
X691424Y677121D01*
X691497Y677065D01*
X691567Y677005D01*
X691635Y676943D01*
X691700Y676878D01*
X691762Y676810D01*
X691822Y676739D01*
X691878Y676666D01*
X691931Y676591D01*
X691981Y676513D01*
X692027Y676434D01*
X692070Y676352D01*
X692110Y676269D01*
X692146Y676184D01*
X692178Y676098D01*
X692207Y676010D01*
X692231Y675921D01*
X692252Y675831D01*
X692269Y675741D01*
X692283Y675650D01*
X692292Y675558D01*
X692297Y675466D01*
X692299Y675374D01*
X692297Y675282D01*
X692290Y675190D01*
X692280Y675098D01*
X692266Y675007D01*
X692248Y674916D01*
X692226Y674827D01*
X692200Y674738D01*
X692170Y674651D01*
X692137Y674565D01*
X692100Y674481D01*
X692060Y674398D01*
X692016Y674317D01*
X691969Y674238D01*
X691918Y674161D01*
X691864Y674086D01*
X691807Y674013D01*
X691747Y673943D01*
X691684Y673876D01*
X691618Y673812D01*
X691550Y673750D01*
X691479Y673691D01*
X691405Y673636D01*
X691329Y673583D01*
X691251Y673534D01*
X691171Y673488D01*
X691090Y673446D01*
X691006Y673407D01*
X690921Y673372D01*
X690834Y673341D01*
X690746Y673313D01*
X690657Y673289D01*
X690567Y673269D01*
X690477Y673252D01*
X690385Y673240D01*
X690293Y673231D01*
X690201Y673227D01*
X690109Y673226D01*
X690109Y673227D02*
X689775Y673236D01*
X689442Y673253D01*
X689109Y673277D01*
X688776Y673310D01*
X688445Y673350D01*
X688114Y673398D01*
X687785Y673454D01*
X687457Y673517D01*
X687131Y673589D01*
X686807Y673668D01*
X686484Y673754D01*
X686164Y673849D01*
X685846Y673951D01*
X685530Y674060D01*
X701602Y673227D02*
X704932Y673227D01*
X701602Y673227D02*
X701504Y673229D01*
X701406Y673235D01*
X701308Y673244D01*
X701211Y673258D01*
X701115Y673275D01*
X701019Y673296D01*
X700924Y673321D01*
X700830Y673349D01*
X700737Y673381D01*
X700646Y673417D01*
X700556Y673456D01*
X700468Y673499D01*
X700381Y673546D01*
X700297Y673595D01*
X700214Y673648D01*
X700134Y673704D01*
X700056Y673763D01*
X699980Y673826D01*
X699906Y673891D01*
X699836Y673959D01*
X699768Y674029D01*
X699703Y674103D01*
X699640Y674179D01*
X699581Y674257D01*
X699525Y674337D01*
X699472Y674420D01*
X699423Y674504D01*
X699376Y674591D01*
X699333Y674679D01*
X699294Y674769D01*
X699258Y674860D01*
X699226Y674953D01*
X699198Y675047D01*
X699173Y675142D01*
X699152Y675238D01*
X699135Y675334D01*
X699121Y675431D01*
X699112Y675529D01*
X699106Y675627D01*
X699104Y675725D01*
X699104Y680720D01*
X699106Y680818D01*
X699112Y680916D01*
X699121Y681014D01*
X699135Y681111D01*
X699152Y681207D01*
X699173Y681303D01*
X699198Y681398D01*
X699226Y681492D01*
X699258Y681585D01*
X699294Y681676D01*
X699333Y681766D01*
X699376Y681854D01*
X699423Y681941D01*
X699472Y682025D01*
X699525Y682108D01*
X699581Y682188D01*
X699640Y682267D01*
X699703Y682342D01*
X699768Y682416D01*
X699836Y682486D01*
X699906Y682554D01*
X699980Y682620D01*
X700056Y682682D01*
X700134Y682741D01*
X700214Y682797D01*
X700297Y682850D01*
X700381Y682900D01*
X700468Y682946D01*
X700556Y682989D01*
X700646Y683028D01*
X700737Y683064D01*
X700830Y683096D01*
X700924Y683124D01*
X701019Y683149D01*
X701115Y683170D01*
X701211Y683187D01*
X701308Y683201D01*
X701406Y683210D01*
X701504Y683216D01*
X701602Y683218D01*
X704932Y683218D01*
X711062Y679887D02*
X711062Y676557D01*
X711062Y679887D02*
X711064Y680001D01*
X711070Y680114D01*
X711079Y680228D01*
X711093Y680340D01*
X711110Y680453D01*
X711132Y680565D01*
X711157Y680675D01*
X711185Y680785D01*
X711218Y680894D01*
X711254Y681002D01*
X711294Y681109D01*
X711338Y681214D01*
X711385Y681317D01*
X711435Y681419D01*
X711489Y681519D01*
X711547Y681617D01*
X711608Y681713D01*
X711671Y681807D01*
X711739Y681899D01*
X711809Y681989D01*
X711882Y682075D01*
X711958Y682160D01*
X712037Y682242D01*
X712119Y682321D01*
X712204Y682397D01*
X712290Y682470D01*
X712380Y682540D01*
X712472Y682608D01*
X712566Y682671D01*
X712662Y682732D01*
X712760Y682790D01*
X712860Y682844D01*
X712962Y682894D01*
X713065Y682941D01*
X713170Y682985D01*
X713277Y683025D01*
X713385Y683061D01*
X713494Y683094D01*
X713604Y683122D01*
X713714Y683147D01*
X713826Y683169D01*
X713939Y683186D01*
X714051Y683200D01*
X714165Y683209D01*
X714278Y683215D01*
X714392Y683217D01*
X714506Y683215D01*
X714619Y683209D01*
X714733Y683200D01*
X714845Y683186D01*
X714958Y683169D01*
X715070Y683147D01*
X715180Y683122D01*
X715290Y683094D01*
X715399Y683061D01*
X715507Y683025D01*
X715614Y682985D01*
X715719Y682941D01*
X715822Y682894D01*
X715924Y682844D01*
X716024Y682790D01*
X716122Y682732D01*
X716218Y682671D01*
X716312Y682608D01*
X716404Y682540D01*
X716494Y682470D01*
X716580Y682397D01*
X716665Y682321D01*
X716747Y682242D01*
X716826Y682160D01*
X716902Y682075D01*
X716975Y681989D01*
X717045Y681899D01*
X717113Y681807D01*
X717176Y681713D01*
X717237Y681617D01*
X717295Y681519D01*
X717349Y681419D01*
X717399Y681317D01*
X717446Y681214D01*
X717490Y681109D01*
X717530Y681002D01*
X717566Y680894D01*
X717599Y680785D01*
X717627Y680675D01*
X717652Y680565D01*
X717674Y680453D01*
X717691Y680340D01*
X717705Y680228D01*
X717714Y680114D01*
X717720Y680001D01*
X717722Y679887D01*
X717722Y676557D01*
X717720Y676443D01*
X717714Y676330D01*
X717705Y676216D01*
X717691Y676104D01*
X717674Y675991D01*
X717652Y675879D01*
X717627Y675769D01*
X717599Y675659D01*
X717566Y675550D01*
X717530Y675442D01*
X717490Y675335D01*
X717446Y675230D01*
X717399Y675127D01*
X717349Y675025D01*
X717295Y674925D01*
X717237Y674827D01*
X717176Y674731D01*
X717113Y674637D01*
X717045Y674545D01*
X716975Y674455D01*
X716902Y674369D01*
X716826Y674284D01*
X716747Y674202D01*
X716665Y674123D01*
X716580Y674047D01*
X716494Y673974D01*
X716404Y673904D01*
X716312Y673836D01*
X716218Y673773D01*
X716122Y673712D01*
X716024Y673654D01*
X715924Y673600D01*
X715822Y673550D01*
X715719Y673503D01*
X715614Y673459D01*
X715507Y673419D01*
X715399Y673383D01*
X715290Y673350D01*
X715180Y673322D01*
X715070Y673297D01*
X714958Y673275D01*
X714845Y673258D01*
X714733Y673244D01*
X714619Y673235D01*
X714506Y673229D01*
X714392Y673227D01*
X714278Y673229D01*
X714165Y673235D01*
X714051Y673244D01*
X713939Y673258D01*
X713826Y673275D01*
X713714Y673297D01*
X713604Y673322D01*
X713494Y673350D01*
X713385Y673383D01*
X713277Y673419D01*
X713170Y673459D01*
X713065Y673503D01*
X712962Y673550D01*
X712860Y673600D01*
X712760Y673654D01*
X712662Y673712D01*
X712566Y673773D01*
X712472Y673836D01*
X712380Y673904D01*
X712290Y673974D01*
X712204Y674047D01*
X712119Y674123D01*
X712037Y674202D01*
X711958Y674284D01*
X711882Y674369D01*
X711809Y674455D01*
X711739Y674545D01*
X711671Y674637D01*
X711608Y674731D01*
X711547Y674827D01*
X711489Y674925D01*
X711435Y675025D01*
X711385Y675127D01*
X711338Y675230D01*
X711294Y675335D01*
X711254Y675442D01*
X711218Y675550D01*
X711185Y675659D01*
X711157Y675769D01*
X711132Y675879D01*
X711110Y675991D01*
X711093Y676104D01*
X711079Y676216D01*
X711070Y676330D01*
X711064Y676443D01*
X711062Y676557D01*
X725258Y673227D02*
X725258Y683218D01*
X730253Y683218D01*
X730253Y681553D01*
X738048Y673227D02*
X742211Y673227D01*
X738048Y673227D02*
X737950Y673229D01*
X737852Y673235D01*
X737754Y673244D01*
X737657Y673258D01*
X737561Y673275D01*
X737465Y673296D01*
X737370Y673321D01*
X737276Y673349D01*
X737183Y673381D01*
X737092Y673417D01*
X737002Y673456D01*
X736914Y673499D01*
X736827Y673546D01*
X736743Y673595D01*
X736660Y673648D01*
X736580Y673704D01*
X736502Y673763D01*
X736426Y673826D01*
X736352Y673891D01*
X736282Y673959D01*
X736214Y674029D01*
X736149Y674103D01*
X736086Y674179D01*
X736027Y674257D01*
X735971Y674337D01*
X735918Y674420D01*
X735869Y674504D01*
X735822Y674591D01*
X735779Y674679D01*
X735740Y674769D01*
X735704Y674860D01*
X735672Y674953D01*
X735644Y675047D01*
X735619Y675142D01*
X735598Y675238D01*
X735581Y675334D01*
X735567Y675431D01*
X735558Y675529D01*
X735552Y675627D01*
X735550Y675725D01*
X735550Y679887D01*
X735551Y679887D02*
X735553Y680001D01*
X735559Y680114D01*
X735568Y680228D01*
X735582Y680340D01*
X735599Y680453D01*
X735621Y680565D01*
X735646Y680675D01*
X735674Y680785D01*
X735707Y680894D01*
X735743Y681002D01*
X735783Y681109D01*
X735827Y681214D01*
X735874Y681317D01*
X735924Y681419D01*
X735978Y681519D01*
X736036Y681617D01*
X736097Y681713D01*
X736160Y681807D01*
X736228Y681899D01*
X736298Y681989D01*
X736371Y682075D01*
X736447Y682160D01*
X736526Y682242D01*
X736608Y682321D01*
X736693Y682397D01*
X736779Y682470D01*
X736869Y682540D01*
X736961Y682608D01*
X737055Y682671D01*
X737151Y682732D01*
X737249Y682790D01*
X737349Y682844D01*
X737451Y682894D01*
X737554Y682941D01*
X737659Y682985D01*
X737766Y683025D01*
X737874Y683061D01*
X737983Y683094D01*
X738093Y683122D01*
X738203Y683147D01*
X738315Y683169D01*
X738428Y683186D01*
X738540Y683200D01*
X738654Y683209D01*
X738767Y683215D01*
X738881Y683217D01*
X738995Y683215D01*
X739108Y683209D01*
X739222Y683200D01*
X739334Y683186D01*
X739447Y683169D01*
X739559Y683147D01*
X739669Y683122D01*
X739779Y683094D01*
X739888Y683061D01*
X739996Y683025D01*
X740103Y682985D01*
X740208Y682941D01*
X740311Y682894D01*
X740413Y682844D01*
X740513Y682790D01*
X740611Y682732D01*
X740707Y682671D01*
X740801Y682608D01*
X740893Y682540D01*
X740983Y682470D01*
X741069Y682397D01*
X741154Y682321D01*
X741236Y682242D01*
X741315Y682160D01*
X741391Y682075D01*
X741464Y681989D01*
X741534Y681899D01*
X741602Y681807D01*
X741665Y681713D01*
X741726Y681617D01*
X741784Y681519D01*
X741838Y681419D01*
X741888Y681317D01*
X741935Y681214D01*
X741979Y681109D01*
X742019Y681002D01*
X742055Y680894D01*
X742088Y680785D01*
X742116Y680675D01*
X742141Y680565D01*
X742163Y680453D01*
X742180Y680340D01*
X742194Y680228D01*
X742203Y680114D01*
X742209Y680001D01*
X742211Y679887D01*
X742211Y678222D01*
X735550Y678222D01*
D11*
X828040Y-2540D02*
X-68580Y-2540D01*
D12*
X860529Y-42D02*
X863859Y-10033D01*
X867190Y-42D01*
X873974Y-4205D02*
X883965Y-4205D01*
X892519Y-4205D02*
X896682Y-5870D01*
X892519Y-4206D02*
X892434Y-4170D01*
X892351Y-4130D01*
X892270Y-4087D01*
X892190Y-4040D01*
X892113Y-3990D01*
X892037Y-3937D01*
X891964Y-3881D01*
X891894Y-3821D01*
X891826Y-3759D01*
X891761Y-3694D01*
X891699Y-3626D01*
X891639Y-3555D01*
X891583Y-3482D01*
X891530Y-3407D01*
X891480Y-3329D01*
X891434Y-3250D01*
X891391Y-3168D01*
X891351Y-3085D01*
X891315Y-3000D01*
X891283Y-2914D01*
X891254Y-2826D01*
X891230Y-2737D01*
X891209Y-2647D01*
X891192Y-2557D01*
X891178Y-2466D01*
X891169Y-2374D01*
X891164Y-2282D01*
X891162Y-2190D01*
X891164Y-2098D01*
X891171Y-2006D01*
X891181Y-1914D01*
X891195Y-1823D01*
X891213Y-1732D01*
X891235Y-1643D01*
X891261Y-1554D01*
X891291Y-1467D01*
X891324Y-1381D01*
X891361Y-1297D01*
X891401Y-1214D01*
X891445Y-1133D01*
X891492Y-1054D01*
X891543Y-977D01*
X891597Y-902D01*
X891654Y-829D01*
X891714Y-759D01*
X891777Y-692D01*
X891843Y-628D01*
X891911Y-566D01*
X891982Y-507D01*
X892056Y-452D01*
X892132Y-399D01*
X892210Y-350D01*
X892290Y-304D01*
X892371Y-262D01*
X892455Y-223D01*
X892540Y-188D01*
X892627Y-157D01*
X892715Y-129D01*
X892804Y-105D01*
X892894Y-85D01*
X892984Y-68D01*
X893076Y-56D01*
X893168Y-47D01*
X893260Y-43D01*
X893352Y-42D01*
X893579Y-48D01*
X893806Y-59D01*
X894033Y-76D01*
X894259Y-99D01*
X894485Y-126D01*
X894710Y-160D01*
X894934Y-198D01*
X895157Y-242D01*
X895379Y-291D01*
X895600Y-346D01*
X895819Y-406D01*
X896037Y-471D01*
X896253Y-542D01*
X896467Y-617D01*
X896680Y-698D01*
X896890Y-784D01*
X897099Y-875D01*
X896682Y-5870D02*
X896767Y-5906D01*
X896850Y-5946D01*
X896931Y-5989D01*
X897011Y-6036D01*
X897088Y-6086D01*
X897164Y-6139D01*
X897237Y-6195D01*
X897307Y-6255D01*
X897375Y-6317D01*
X897440Y-6382D01*
X897502Y-6450D01*
X897562Y-6521D01*
X897618Y-6594D01*
X897671Y-6669D01*
X897721Y-6747D01*
X897767Y-6826D01*
X897810Y-6908D01*
X897850Y-6991D01*
X897886Y-7076D01*
X897918Y-7162D01*
X897947Y-7250D01*
X897971Y-7339D01*
X897992Y-7429D01*
X898009Y-7519D01*
X898023Y-7610D01*
X898032Y-7702D01*
X898037Y-7794D01*
X898039Y-7886D01*
X898037Y-7978D01*
X898030Y-8070D01*
X898020Y-8162D01*
X898006Y-8253D01*
X897988Y-8344D01*
X897966Y-8433D01*
X897940Y-8522D01*
X897910Y-8609D01*
X897877Y-8695D01*
X897840Y-8779D01*
X897800Y-8862D01*
X897756Y-8943D01*
X897709Y-9022D01*
X897658Y-9099D01*
X897604Y-9174D01*
X897547Y-9247D01*
X897487Y-9317D01*
X897424Y-9384D01*
X897358Y-9448D01*
X897290Y-9510D01*
X897219Y-9569D01*
X897145Y-9624D01*
X897069Y-9677D01*
X896991Y-9726D01*
X896911Y-9772D01*
X896830Y-9814D01*
X896746Y-9853D01*
X896661Y-9888D01*
X896574Y-9919D01*
X896486Y-9947D01*
X896397Y-9971D01*
X896307Y-9991D01*
X896217Y-10008D01*
X896125Y-10020D01*
X896033Y-10029D01*
X895941Y-10033D01*
X895849Y-10034D01*
X895849Y-10033D02*
X895515Y-10024D01*
X895182Y-10007D01*
X894849Y-9983D01*
X894516Y-9950D01*
X894185Y-9910D01*
X893854Y-9862D01*
X893525Y-9806D01*
X893197Y-9743D01*
X892871Y-9671D01*
X892547Y-9592D01*
X892224Y-9506D01*
X891904Y-9411D01*
X891586Y-9309D01*
X891270Y-9200D01*
X907342Y-10033D02*
X910672Y-10033D01*
X907342Y-10033D02*
X907244Y-10031D01*
X907146Y-10025D01*
X907048Y-10016D01*
X906951Y-10002D01*
X906855Y-9985D01*
X906759Y-9964D01*
X906664Y-9939D01*
X906570Y-9911D01*
X906477Y-9879D01*
X906386Y-9843D01*
X906296Y-9804D01*
X906208Y-9761D01*
X906121Y-9714D01*
X906037Y-9665D01*
X905954Y-9612D01*
X905874Y-9556D01*
X905796Y-9497D01*
X905720Y-9435D01*
X905646Y-9369D01*
X905576Y-9301D01*
X905508Y-9231D01*
X905443Y-9157D01*
X905380Y-9082D01*
X905321Y-9003D01*
X905265Y-8923D01*
X905212Y-8840D01*
X905163Y-8756D01*
X905116Y-8669D01*
X905073Y-8581D01*
X905034Y-8491D01*
X904998Y-8400D01*
X904966Y-8307D01*
X904938Y-8213D01*
X904913Y-8118D01*
X904892Y-8022D01*
X904875Y-7926D01*
X904861Y-7829D01*
X904852Y-7731D01*
X904846Y-7633D01*
X904844Y-7535D01*
X904844Y-2540D01*
X904846Y-2442D01*
X904852Y-2344D01*
X904861Y-2246D01*
X904875Y-2149D01*
X904892Y-2053D01*
X904913Y-1957D01*
X904938Y-1862D01*
X904966Y-1768D01*
X904998Y-1675D01*
X905034Y-1584D01*
X905073Y-1494D01*
X905116Y-1406D01*
X905163Y-1319D01*
X905212Y-1235D01*
X905265Y-1152D01*
X905321Y-1072D01*
X905380Y-994D01*
X905443Y-918D01*
X905508Y-844D01*
X905576Y-774D01*
X905646Y-706D01*
X905720Y-641D01*
X905796Y-578D01*
X905874Y-519D01*
X905954Y-463D01*
X906037Y-410D01*
X906121Y-361D01*
X906208Y-314D01*
X906296Y-271D01*
X906386Y-232D01*
X906477Y-196D01*
X906570Y-164D01*
X906664Y-136D01*
X906759Y-111D01*
X906855Y-90D01*
X906951Y-73D01*
X907048Y-59D01*
X907146Y-50D01*
X907244Y-44D01*
X907342Y-42D01*
X910672Y-42D01*
X916802Y-3373D02*
X916802Y-6703D01*
X916802Y-3373D02*
X916804Y-3259D01*
X916810Y-3146D01*
X916819Y-3032D01*
X916833Y-2920D01*
X916850Y-2807D01*
X916872Y-2695D01*
X916897Y-2585D01*
X916925Y-2475D01*
X916958Y-2366D01*
X916994Y-2258D01*
X917034Y-2151D01*
X917078Y-2046D01*
X917125Y-1943D01*
X917175Y-1841D01*
X917229Y-1741D01*
X917287Y-1643D01*
X917348Y-1547D01*
X917411Y-1453D01*
X917479Y-1361D01*
X917549Y-1271D01*
X917622Y-1185D01*
X917698Y-1100D01*
X917777Y-1018D01*
X917859Y-939D01*
X917944Y-863D01*
X918030Y-790D01*
X918120Y-720D01*
X918212Y-652D01*
X918306Y-589D01*
X918402Y-528D01*
X918500Y-470D01*
X918600Y-416D01*
X918702Y-366D01*
X918805Y-319D01*
X918910Y-275D01*
X919017Y-235D01*
X919125Y-199D01*
X919234Y-166D01*
X919344Y-138D01*
X919454Y-113D01*
X919566Y-91D01*
X919679Y-74D01*
X919791Y-60D01*
X919905Y-51D01*
X920018Y-45D01*
X920132Y-43D01*
X920246Y-45D01*
X920359Y-51D01*
X920473Y-60D01*
X920585Y-74D01*
X920698Y-91D01*
X920810Y-113D01*
X920920Y-138D01*
X921030Y-166D01*
X921139Y-199D01*
X921247Y-235D01*
X921354Y-275D01*
X921459Y-319D01*
X921562Y-366D01*
X921664Y-416D01*
X921764Y-470D01*
X921862Y-528D01*
X921958Y-589D01*
X922052Y-652D01*
X922144Y-720D01*
X922234Y-790D01*
X922320Y-863D01*
X922405Y-939D01*
X922487Y-1018D01*
X922566Y-1100D01*
X922642Y-1185D01*
X922715Y-1271D01*
X922785Y-1361D01*
X922853Y-1453D01*
X922916Y-1547D01*
X922977Y-1643D01*
X923035Y-1741D01*
X923089Y-1841D01*
X923139Y-1943D01*
X923186Y-2046D01*
X923230Y-2151D01*
X923270Y-2258D01*
X923306Y-2366D01*
X923339Y-2475D01*
X923367Y-2585D01*
X923392Y-2695D01*
X923414Y-2807D01*
X923431Y-2920D01*
X923445Y-3032D01*
X923454Y-3146D01*
X923460Y-3259D01*
X923462Y-3373D01*
X923462Y-6703D01*
X923460Y-6817D01*
X923454Y-6930D01*
X923445Y-7044D01*
X923431Y-7156D01*
X923414Y-7269D01*
X923392Y-7381D01*
X923367Y-7491D01*
X923339Y-7601D01*
X923306Y-7710D01*
X923270Y-7818D01*
X923230Y-7925D01*
X923186Y-8030D01*
X923139Y-8133D01*
X923089Y-8235D01*
X923035Y-8335D01*
X922977Y-8433D01*
X922916Y-8529D01*
X922853Y-8623D01*
X922785Y-8715D01*
X922715Y-8805D01*
X922642Y-8891D01*
X922566Y-8976D01*
X922487Y-9058D01*
X922405Y-9137D01*
X922320Y-9213D01*
X922234Y-9286D01*
X922144Y-9356D01*
X922052Y-9424D01*
X921958Y-9487D01*
X921862Y-9548D01*
X921764Y-9606D01*
X921664Y-9660D01*
X921562Y-9710D01*
X921459Y-9757D01*
X921354Y-9801D01*
X921247Y-9841D01*
X921139Y-9877D01*
X921030Y-9910D01*
X920920Y-9938D01*
X920810Y-9963D01*
X920698Y-9985D01*
X920585Y-10002D01*
X920473Y-10016D01*
X920359Y-10025D01*
X920246Y-10031D01*
X920132Y-10033D01*
X920018Y-10031D01*
X919905Y-10025D01*
X919791Y-10016D01*
X919679Y-10002D01*
X919566Y-9985D01*
X919454Y-9963D01*
X919344Y-9938D01*
X919234Y-9910D01*
X919125Y-9877D01*
X919017Y-9841D01*
X918910Y-9801D01*
X918805Y-9757D01*
X918702Y-9710D01*
X918600Y-9660D01*
X918500Y-9606D01*
X918402Y-9548D01*
X918306Y-9487D01*
X918212Y-9424D01*
X918120Y-9356D01*
X918030Y-9286D01*
X917944Y-9213D01*
X917859Y-9137D01*
X917777Y-9058D01*
X917698Y-8976D01*
X917622Y-8891D01*
X917549Y-8805D01*
X917479Y-8715D01*
X917411Y-8623D01*
X917348Y-8529D01*
X917287Y-8433D01*
X917229Y-8335D01*
X917175Y-8235D01*
X917125Y-8133D01*
X917078Y-8030D01*
X917034Y-7925D01*
X916994Y-7818D01*
X916958Y-7710D01*
X916925Y-7601D01*
X916897Y-7491D01*
X916872Y-7381D01*
X916850Y-7269D01*
X916833Y-7156D01*
X916819Y-7044D01*
X916810Y-6930D01*
X916804Y-6817D01*
X916802Y-6703D01*
X930998Y-10033D02*
X930998Y-42D01*
X935993Y-42D01*
X935993Y-1707D01*
X943788Y-10033D02*
X947951Y-10033D01*
X943788Y-10033D02*
X943690Y-10031D01*
X943592Y-10025D01*
X943494Y-10016D01*
X943397Y-10002D01*
X943301Y-9985D01*
X943205Y-9964D01*
X943110Y-9939D01*
X943016Y-9911D01*
X942923Y-9879D01*
X942832Y-9843D01*
X942742Y-9804D01*
X942654Y-9761D01*
X942567Y-9714D01*
X942483Y-9665D01*
X942400Y-9612D01*
X942320Y-9556D01*
X942242Y-9497D01*
X942166Y-9435D01*
X942092Y-9369D01*
X942022Y-9301D01*
X941954Y-9231D01*
X941889Y-9157D01*
X941826Y-9082D01*
X941767Y-9003D01*
X941711Y-8923D01*
X941658Y-8840D01*
X941609Y-8756D01*
X941562Y-8669D01*
X941519Y-8581D01*
X941480Y-8491D01*
X941444Y-8400D01*
X941412Y-8307D01*
X941384Y-8213D01*
X941359Y-8118D01*
X941338Y-8022D01*
X941321Y-7926D01*
X941307Y-7829D01*
X941298Y-7731D01*
X941292Y-7633D01*
X941290Y-7535D01*
X941290Y-3373D01*
X941291Y-3373D02*
X941293Y-3259D01*
X941299Y-3146D01*
X941308Y-3032D01*
X941322Y-2920D01*
X941339Y-2807D01*
X941361Y-2695D01*
X941386Y-2585D01*
X941414Y-2475D01*
X941447Y-2366D01*
X941483Y-2258D01*
X941523Y-2151D01*
X941567Y-2046D01*
X941614Y-1943D01*
X941664Y-1841D01*
X941718Y-1741D01*
X941776Y-1643D01*
X941837Y-1547D01*
X941900Y-1453D01*
X941968Y-1361D01*
X942038Y-1271D01*
X942111Y-1185D01*
X942187Y-1100D01*
X942266Y-1018D01*
X942348Y-939D01*
X942433Y-863D01*
X942519Y-790D01*
X942609Y-720D01*
X942701Y-652D01*
X942795Y-589D01*
X942891Y-528D01*
X942989Y-470D01*
X943089Y-416D01*
X943191Y-366D01*
X943294Y-319D01*
X943399Y-275D01*
X943506Y-235D01*
X943614Y-199D01*
X943723Y-166D01*
X943833Y-138D01*
X943943Y-113D01*
X944055Y-91D01*
X944168Y-74D01*
X944280Y-60D01*
X944394Y-51D01*
X944507Y-45D01*
X944621Y-43D01*
X944735Y-45D01*
X944848Y-51D01*
X944962Y-60D01*
X945074Y-74D01*
X945187Y-91D01*
X945299Y-113D01*
X945409Y-138D01*
X945519Y-166D01*
X945628Y-199D01*
X945736Y-235D01*
X945843Y-275D01*
X945948Y-319D01*
X946051Y-366D01*
X946153Y-416D01*
X946253Y-470D01*
X946351Y-528D01*
X946447Y-589D01*
X946541Y-652D01*
X946633Y-720D01*
X946723Y-790D01*
X946809Y-863D01*
X946894Y-939D01*
X946976Y-1018D01*
X947055Y-1100D01*
X947131Y-1185D01*
X947204Y-1271D01*
X947274Y-1361D01*
X947342Y-1453D01*
X947405Y-1547D01*
X947466Y-1643D01*
X947524Y-1741D01*
X947578Y-1841D01*
X947628Y-1943D01*
X947675Y-2046D01*
X947719Y-2151D01*
X947759Y-2258D01*
X947795Y-2366D01*
X947828Y-2475D01*
X947856Y-2585D01*
X947881Y-2695D01*
X947903Y-2807D01*
X947920Y-2920D01*
X947934Y-3032D01*
X947943Y-3146D01*
X947949Y-3259D01*
X947951Y-3373D01*
X947951Y-5038D01*
X941290Y-5038D01*
D11*
X828040Y586740D02*
X-68580Y586740D01*
D12*
X860529Y589238D02*
X863859Y579247D01*
X867190Y589238D01*
X873974Y585075D02*
X883965Y585075D01*
X892519Y585075D02*
X896682Y583410D01*
X892519Y585074D02*
X892434Y585110D01*
X892351Y585150D01*
X892270Y585193D01*
X892190Y585240D01*
X892113Y585290D01*
X892037Y585343D01*
X891964Y585399D01*
X891894Y585459D01*
X891826Y585521D01*
X891761Y585586D01*
X891699Y585654D01*
X891639Y585725D01*
X891583Y585798D01*
X891530Y585873D01*
X891480Y585951D01*
X891434Y586030D01*
X891391Y586112D01*
X891351Y586195D01*
X891315Y586280D01*
X891283Y586366D01*
X891254Y586454D01*
X891230Y586543D01*
X891209Y586633D01*
X891192Y586723D01*
X891178Y586814D01*
X891169Y586906D01*
X891164Y586998D01*
X891162Y587090D01*
X891164Y587182D01*
X891171Y587274D01*
X891181Y587366D01*
X891195Y587457D01*
X891213Y587548D01*
X891235Y587637D01*
X891261Y587726D01*
X891291Y587813D01*
X891324Y587899D01*
X891361Y587983D01*
X891401Y588066D01*
X891445Y588147D01*
X891492Y588226D01*
X891543Y588303D01*
X891597Y588378D01*
X891654Y588451D01*
X891714Y588521D01*
X891777Y588588D01*
X891843Y588652D01*
X891911Y588714D01*
X891982Y588773D01*
X892056Y588828D01*
X892132Y588881D01*
X892210Y588930D01*
X892290Y588976D01*
X892371Y589018D01*
X892455Y589057D01*
X892540Y589092D01*
X892627Y589123D01*
X892715Y589151D01*
X892804Y589175D01*
X892894Y589195D01*
X892984Y589212D01*
X893076Y589224D01*
X893168Y589233D01*
X893260Y589237D01*
X893352Y589238D01*
X893579Y589232D01*
X893806Y589221D01*
X894033Y589204D01*
X894259Y589181D01*
X894485Y589154D01*
X894710Y589120D01*
X894934Y589082D01*
X895157Y589038D01*
X895379Y588989D01*
X895600Y588934D01*
X895819Y588874D01*
X896037Y588809D01*
X896253Y588738D01*
X896467Y588663D01*
X896680Y588582D01*
X896890Y588496D01*
X897099Y588405D01*
X896682Y583410D02*
X896767Y583374D01*
X896850Y583334D01*
X896931Y583291D01*
X897011Y583244D01*
X897088Y583194D01*
X897164Y583141D01*
X897237Y583085D01*
X897307Y583025D01*
X897375Y582963D01*
X897440Y582898D01*
X897502Y582830D01*
X897562Y582759D01*
X897618Y582686D01*
X897671Y582611D01*
X897721Y582533D01*
X897767Y582454D01*
X897810Y582372D01*
X897850Y582289D01*
X897886Y582204D01*
X897918Y582118D01*
X897947Y582030D01*
X897971Y581941D01*
X897992Y581851D01*
X898009Y581761D01*
X898023Y581670D01*
X898032Y581578D01*
X898037Y581486D01*
X898039Y581394D01*
X898037Y581302D01*
X898030Y581210D01*
X898020Y581118D01*
X898006Y581027D01*
X897988Y580936D01*
X897966Y580847D01*
X897940Y580758D01*
X897910Y580671D01*
X897877Y580585D01*
X897840Y580501D01*
X897800Y580418D01*
X897756Y580337D01*
X897709Y580258D01*
X897658Y580181D01*
X897604Y580106D01*
X897547Y580033D01*
X897487Y579963D01*
X897424Y579896D01*
X897358Y579832D01*
X897290Y579770D01*
X897219Y579711D01*
X897145Y579656D01*
X897069Y579603D01*
X896991Y579554D01*
X896911Y579508D01*
X896830Y579466D01*
X896746Y579427D01*
X896661Y579392D01*
X896574Y579361D01*
X896486Y579333D01*
X896397Y579309D01*
X896307Y579289D01*
X896217Y579272D01*
X896125Y579260D01*
X896033Y579251D01*
X895941Y579247D01*
X895849Y579246D01*
X895849Y579247D02*
X895515Y579256D01*
X895182Y579273D01*
X894849Y579297D01*
X894516Y579330D01*
X894185Y579370D01*
X893854Y579418D01*
X893525Y579474D01*
X893197Y579537D01*
X892871Y579609D01*
X892547Y579688D01*
X892224Y579774D01*
X891904Y579869D01*
X891586Y579971D01*
X891270Y580080D01*
X907342Y579247D02*
X910672Y579247D01*
X907342Y579247D02*
X907244Y579249D01*
X907146Y579255D01*
X907048Y579264D01*
X906951Y579278D01*
X906855Y579295D01*
X906759Y579316D01*
X906664Y579341D01*
X906570Y579369D01*
X906477Y579401D01*
X906386Y579437D01*
X906296Y579476D01*
X906208Y579519D01*
X906121Y579566D01*
X906037Y579615D01*
X905954Y579668D01*
X905874Y579724D01*
X905796Y579783D01*
X905720Y579846D01*
X905646Y579911D01*
X905576Y579979D01*
X905508Y580049D01*
X905443Y580123D01*
X905380Y580199D01*
X905321Y580277D01*
X905265Y580357D01*
X905212Y580440D01*
X905163Y580524D01*
X905116Y580611D01*
X905073Y580699D01*
X905034Y580789D01*
X904998Y580880D01*
X904966Y580973D01*
X904938Y581067D01*
X904913Y581162D01*
X904892Y581258D01*
X904875Y581354D01*
X904861Y581451D01*
X904852Y581549D01*
X904846Y581647D01*
X904844Y581745D01*
X904844Y586740D01*
X904846Y586838D01*
X904852Y586936D01*
X904861Y587034D01*
X904875Y587131D01*
X904892Y587227D01*
X904913Y587323D01*
X904938Y587418D01*
X904966Y587512D01*
X904998Y587605D01*
X905034Y587696D01*
X905073Y587786D01*
X905116Y587874D01*
X905163Y587961D01*
X905212Y588045D01*
X905265Y588128D01*
X905321Y588208D01*
X905380Y588287D01*
X905443Y588362D01*
X905508Y588436D01*
X905576Y588506D01*
X905646Y588574D01*
X905720Y588640D01*
X905796Y588702D01*
X905874Y588761D01*
X905954Y588817D01*
X906037Y588870D01*
X906121Y588920D01*
X906208Y588966D01*
X906296Y589009D01*
X906386Y589048D01*
X906477Y589084D01*
X906570Y589116D01*
X906664Y589144D01*
X906759Y589169D01*
X906855Y589190D01*
X906951Y589207D01*
X907048Y589221D01*
X907146Y589230D01*
X907244Y589236D01*
X907342Y589238D01*
X910672Y589238D01*
X916802Y585907D02*
X916802Y582577D01*
X916802Y585907D02*
X916804Y586021D01*
X916810Y586134D01*
X916819Y586248D01*
X916833Y586360D01*
X916850Y586473D01*
X916872Y586585D01*
X916897Y586695D01*
X916925Y586805D01*
X916958Y586914D01*
X916994Y587022D01*
X917034Y587129D01*
X917078Y587234D01*
X917125Y587337D01*
X917175Y587439D01*
X917229Y587539D01*
X917287Y587637D01*
X917348Y587733D01*
X917411Y587827D01*
X917479Y587919D01*
X917549Y588009D01*
X917622Y588095D01*
X917698Y588180D01*
X917777Y588262D01*
X917859Y588341D01*
X917944Y588417D01*
X918030Y588490D01*
X918120Y588560D01*
X918212Y588628D01*
X918306Y588691D01*
X918402Y588752D01*
X918500Y588810D01*
X918600Y588864D01*
X918702Y588914D01*
X918805Y588961D01*
X918910Y589005D01*
X919017Y589045D01*
X919125Y589081D01*
X919234Y589114D01*
X919344Y589142D01*
X919454Y589167D01*
X919566Y589189D01*
X919679Y589206D01*
X919791Y589220D01*
X919905Y589229D01*
X920018Y589235D01*
X920132Y589237D01*
X920246Y589235D01*
X920359Y589229D01*
X920473Y589220D01*
X920585Y589206D01*
X920698Y589189D01*
X920810Y589167D01*
X920920Y589142D01*
X921030Y589114D01*
X921139Y589081D01*
X921247Y589045D01*
X921354Y589005D01*
X921459Y588961D01*
X921562Y588914D01*
X921664Y588864D01*
X921764Y588810D01*
X921862Y588752D01*
X921958Y588691D01*
X922052Y588628D01*
X922144Y588560D01*
X922234Y588490D01*
X922320Y588417D01*
X922405Y588341D01*
X922487Y588262D01*
X922566Y588180D01*
X922642Y588095D01*
X922715Y588009D01*
X922785Y587919D01*
X922853Y587827D01*
X922916Y587733D01*
X922977Y587637D01*
X923035Y587539D01*
X923089Y587439D01*
X923139Y587337D01*
X923186Y587234D01*
X923230Y587129D01*
X923270Y587022D01*
X923306Y586914D01*
X923339Y586805D01*
X923367Y586695D01*
X923392Y586585D01*
X923414Y586473D01*
X923431Y586360D01*
X923445Y586248D01*
X923454Y586134D01*
X923460Y586021D01*
X923462Y585907D01*
X923462Y582577D01*
X923460Y582463D01*
X923454Y582350D01*
X923445Y582236D01*
X923431Y582124D01*
X923414Y582011D01*
X923392Y581899D01*
X923367Y581789D01*
X923339Y581679D01*
X923306Y581570D01*
X923270Y581462D01*
X923230Y581355D01*
X923186Y581250D01*
X923139Y581147D01*
X923089Y581045D01*
X923035Y580945D01*
X922977Y580847D01*
X922916Y580751D01*
X922853Y580657D01*
X922785Y580565D01*
X922715Y580475D01*
X922642Y580389D01*
X922566Y580304D01*
X922487Y580222D01*
X922405Y580143D01*
X922320Y580067D01*
X922234Y579994D01*
X922144Y579924D01*
X922052Y579856D01*
X921958Y579793D01*
X921862Y579732D01*
X921764Y579674D01*
X921664Y579620D01*
X921562Y579570D01*
X921459Y579523D01*
X921354Y579479D01*
X921247Y579439D01*
X921139Y579403D01*
X921030Y579370D01*
X920920Y579342D01*
X920810Y579317D01*
X920698Y579295D01*
X920585Y579278D01*
X920473Y579264D01*
X920359Y579255D01*
X920246Y579249D01*
X920132Y579247D01*
X920018Y579249D01*
X919905Y579255D01*
X919791Y579264D01*
X919679Y579278D01*
X919566Y579295D01*
X919454Y579317D01*
X919344Y579342D01*
X919234Y579370D01*
X919125Y579403D01*
X919017Y579439D01*
X918910Y579479D01*
X918805Y579523D01*
X918702Y579570D01*
X918600Y579620D01*
X918500Y579674D01*
X918402Y579732D01*
X918306Y579793D01*
X918212Y579856D01*
X918120Y579924D01*
X918030Y579994D01*
X917944Y580067D01*
X917859Y580143D01*
X917777Y580222D01*
X917698Y580304D01*
X917622Y580389D01*
X917549Y580475D01*
X917479Y580565D01*
X917411Y580657D01*
X917348Y580751D01*
X917287Y580847D01*
X917229Y580945D01*
X917175Y581045D01*
X917125Y581147D01*
X917078Y581250D01*
X917034Y581355D01*
X916994Y581462D01*
X916958Y581570D01*
X916925Y581679D01*
X916897Y581789D01*
X916872Y581899D01*
X916850Y582011D01*
X916833Y582124D01*
X916819Y582236D01*
X916810Y582350D01*
X916804Y582463D01*
X916802Y582577D01*
X930998Y579247D02*
X930998Y589238D01*
X935993Y589238D01*
X935993Y587573D01*
X943788Y579247D02*
X947951Y579247D01*
X943788Y579247D02*
X943690Y579249D01*
X943592Y579255D01*
X943494Y579264D01*
X943397Y579278D01*
X943301Y579295D01*
X943205Y579316D01*
X943110Y579341D01*
X943016Y579369D01*
X942923Y579401D01*
X942832Y579437D01*
X942742Y579476D01*
X942654Y579519D01*
X942567Y579566D01*
X942483Y579615D01*
X942400Y579668D01*
X942320Y579724D01*
X942242Y579783D01*
X942166Y579846D01*
X942092Y579911D01*
X942022Y579979D01*
X941954Y580049D01*
X941889Y580123D01*
X941826Y580199D01*
X941767Y580277D01*
X941711Y580357D01*
X941658Y580440D01*
X941609Y580524D01*
X941562Y580611D01*
X941519Y580699D01*
X941480Y580789D01*
X941444Y580880D01*
X941412Y580973D01*
X941384Y581067D01*
X941359Y581162D01*
X941338Y581258D01*
X941321Y581354D01*
X941307Y581451D01*
X941298Y581549D01*
X941292Y581647D01*
X941290Y581745D01*
X941290Y585907D01*
X941291Y585907D02*
X941293Y586021D01*
X941299Y586134D01*
X941308Y586248D01*
X941322Y586360D01*
X941339Y586473D01*
X941361Y586585D01*
X941386Y586695D01*
X941414Y586805D01*
X941447Y586914D01*
X941483Y587022D01*
X941523Y587129D01*
X941567Y587234D01*
X941614Y587337D01*
X941664Y587439D01*
X941718Y587539D01*
X941776Y587637D01*
X941837Y587733D01*
X941900Y587827D01*
X941968Y587919D01*
X942038Y588009D01*
X942111Y588095D01*
X942187Y588180D01*
X942266Y588262D01*
X942348Y588341D01*
X942433Y588417D01*
X942519Y588490D01*
X942609Y588560D01*
X942701Y588628D01*
X942795Y588691D01*
X942891Y588752D01*
X942989Y588810D01*
X943089Y588864D01*
X943191Y588914D01*
X943294Y588961D01*
X943399Y589005D01*
X943506Y589045D01*
X943614Y589081D01*
X943723Y589114D01*
X943833Y589142D01*
X943943Y589167D01*
X944055Y589189D01*
X944168Y589206D01*
X944280Y589220D01*
X944394Y589229D01*
X944507Y589235D01*
X944621Y589237D01*
X944735Y589235D01*
X944848Y589229D01*
X944962Y589220D01*
X945074Y589206D01*
X945187Y589189D01*
X945299Y589167D01*
X945409Y589142D01*
X945519Y589114D01*
X945628Y589081D01*
X945736Y589045D01*
X945843Y589005D01*
X945948Y588961D01*
X946051Y588914D01*
X946153Y588864D01*
X946253Y588810D01*
X946351Y588752D01*
X946447Y588691D01*
X946541Y588628D01*
X946633Y588560D01*
X946723Y588490D01*
X946809Y588417D01*
X946894Y588341D01*
X946976Y588262D01*
X947055Y588180D01*
X947131Y588095D01*
X947204Y588009D01*
X947274Y587919D01*
X947342Y587827D01*
X947405Y587733D01*
X947466Y587637D01*
X947524Y587539D01*
X947578Y587439D01*
X947628Y587337D01*
X947675Y587234D01*
X947719Y587129D01*
X947759Y587022D01*
X947795Y586914D01*
X947828Y586805D01*
X947856Y586695D01*
X947881Y586585D01*
X947903Y586473D01*
X947920Y586360D01*
X947934Y586248D01*
X947943Y586134D01*
X947949Y586021D01*
X947951Y585907D01*
X947951Y584242D01*
X941290Y584242D01*
D13*
X764540Y-5080D02*
X-68580Y-5080D01*
X764540Y-5080D02*
X764540Y-68580D01*
X-68580Y-68580D01*
X-68580Y-5080D01*
X701040Y584200D02*
X764540Y584200D01*
X764540Y0D01*
X701040Y0D01*
X701040Y584200D01*
X764540Y652780D02*
X-68580Y652780D01*
X764540Y652780D02*
X764540Y589280D01*
X-68580Y589280D01*
X-68580Y652780D01*
X-68580Y584200D02*
X-5080Y584200D01*
X-5080Y0D01*
X-68580Y0D01*
X-68580Y584200D01*
D14*
X8890Y25400D02*
X8895Y25805D01*
X8910Y26210D01*
X8935Y26615D01*
X8970Y27018D01*
X9014Y27421D01*
X9069Y27823D01*
X9133Y28223D01*
X9207Y28621D01*
X9291Y29017D01*
X9385Y29412D01*
X9488Y29803D01*
X9601Y30193D01*
X9723Y30579D01*
X9855Y30962D01*
X9996Y31342D01*
X10147Y31718D01*
X10306Y32091D01*
X10475Y32459D01*
X10653Y32823D01*
X10839Y33183D01*
X11035Y33538D01*
X11239Y33888D01*
X11451Y34233D01*
X11672Y34572D01*
X11902Y34907D01*
X12139Y35235D01*
X12384Y35557D01*
X12638Y35874D01*
X12898Y36184D01*
X13167Y36487D01*
X13443Y36784D01*
X13726Y37074D01*
X14016Y37357D01*
X14313Y37633D01*
X14616Y37902D01*
X14926Y38162D01*
X15243Y38416D01*
X15565Y38661D01*
X15893Y38898D01*
X16228Y39128D01*
X16567Y39349D01*
X16912Y39561D01*
X17262Y39765D01*
X17617Y39961D01*
X17977Y40147D01*
X18341Y40325D01*
X18709Y40494D01*
X19082Y40653D01*
X19458Y40804D01*
X19838Y40945D01*
X20221Y41077D01*
X20607Y41199D01*
X20997Y41312D01*
X21388Y41415D01*
X21783Y41509D01*
X22179Y41593D01*
X22577Y41667D01*
X22977Y41731D01*
X23379Y41786D01*
X23782Y41830D01*
X24185Y41865D01*
X24590Y41890D01*
X24995Y41905D01*
X25400Y41910D01*
X25805Y41905D01*
X26210Y41890D01*
X26615Y41865D01*
X27018Y41830D01*
X27421Y41786D01*
X27823Y41731D01*
X28223Y41667D01*
X28621Y41593D01*
X29017Y41509D01*
X29412Y41415D01*
X29803Y41312D01*
X30193Y41199D01*
X30579Y41077D01*
X30962Y40945D01*
X31342Y40804D01*
X31718Y40653D01*
X32091Y40494D01*
X32459Y40325D01*
X32823Y40147D01*
X33183Y39961D01*
X33538Y39765D01*
X33888Y39561D01*
X34233Y39349D01*
X34572Y39128D01*
X34907Y38898D01*
X35235Y38661D01*
X35557Y38416D01*
X35874Y38162D01*
X36184Y37902D01*
X36487Y37633D01*
X36784Y37357D01*
X37074Y37074D01*
X37357Y36784D01*
X37633Y36487D01*
X37902Y36184D01*
X38162Y35874D01*
X38416Y35557D01*
X38661Y35235D01*
X38898Y34907D01*
X39128Y34572D01*
X39349Y34233D01*
X39561Y33888D01*
X39765Y33538D01*
X39961Y33183D01*
X40147Y32823D01*
X40325Y32459D01*
X40494Y32091D01*
X40653Y31718D01*
X40804Y31342D01*
X40945Y30962D01*
X41077Y30579D01*
X41199Y30193D01*
X41312Y29803D01*
X41415Y29412D01*
X41509Y29017D01*
X41593Y28621D01*
X41667Y28223D01*
X41731Y27823D01*
X41786Y27421D01*
X41830Y27018D01*
X41865Y26615D01*
X41890Y26210D01*
X41905Y25805D01*
X41910Y25400D01*
X41905Y24995D01*
X41890Y24590D01*
X41865Y24185D01*
X41830Y23782D01*
X41786Y23379D01*
X41731Y22977D01*
X41667Y22577D01*
X41593Y22179D01*
X41509Y21783D01*
X41415Y21388D01*
X41312Y20997D01*
X41199Y20607D01*
X41077Y20221D01*
X40945Y19838D01*
X40804Y19458D01*
X40653Y19082D01*
X40494Y18709D01*
X40325Y18341D01*
X40147Y17977D01*
X39961Y17617D01*
X39765Y17262D01*
X39561Y16912D01*
X39349Y16567D01*
X39128Y16228D01*
X38898Y15893D01*
X38661Y15565D01*
X38416Y15243D01*
X38162Y14926D01*
X37902Y14616D01*
X37633Y14313D01*
X37357Y14016D01*
X37074Y13726D01*
X36784Y13443D01*
X36487Y13167D01*
X36184Y12898D01*
X35874Y12638D01*
X35557Y12384D01*
X35235Y12139D01*
X34907Y11902D01*
X34572Y11672D01*
X34233Y11451D01*
X33888Y11239D01*
X33538Y11035D01*
X33183Y10839D01*
X32823Y10653D01*
X32459Y10475D01*
X32091Y10306D01*
X31718Y10147D01*
X31342Y9996D01*
X30962Y9855D01*
X30579Y9723D01*
X30193Y9601D01*
X29803Y9488D01*
X29412Y9385D01*
X29017Y9291D01*
X28621Y9207D01*
X28223Y9133D01*
X27823Y9069D01*
X27421Y9014D01*
X27018Y8970D01*
X26615Y8935D01*
X26210Y8910D01*
X25805Y8895D01*
X25400Y8890D01*
X24995Y8895D01*
X24590Y8910D01*
X24185Y8935D01*
X23782Y8970D01*
X23379Y9014D01*
X22977Y9069D01*
X22577Y9133D01*
X22179Y9207D01*
X21783Y9291D01*
X21388Y9385D01*
X20997Y9488D01*
X20607Y9601D01*
X20221Y9723D01*
X19838Y9855D01*
X19458Y9996D01*
X19082Y10147D01*
X18709Y10306D01*
X18341Y10475D01*
X17977Y10653D01*
X17617Y10839D01*
X17262Y11035D01*
X16912Y11239D01*
X16567Y11451D01*
X16228Y11672D01*
X15893Y11902D01*
X15565Y12139D01*
X15243Y12384D01*
X14926Y12638D01*
X14616Y12898D01*
X14313Y13167D01*
X14016Y13443D01*
X13726Y13726D01*
X13443Y14016D01*
X13167Y14313D01*
X12898Y14616D01*
X12638Y14926D01*
X12384Y15243D01*
X12139Y15565D01*
X11902Y15893D01*
X11672Y16228D01*
X11451Y16567D01*
X11239Y16912D01*
X11035Y17262D01*
X10839Y17617D01*
X10653Y17977D01*
X10475Y18341D01*
X10306Y18709D01*
X10147Y19082D01*
X9996Y19458D01*
X9855Y19838D01*
X9723Y20221D01*
X9601Y20607D01*
X9488Y20997D01*
X9385Y21388D01*
X9291Y21783D01*
X9207Y22179D01*
X9133Y22577D01*
X9069Y22977D01*
X9014Y23379D01*
X8970Y23782D01*
X8935Y24185D01*
X8910Y24590D01*
X8895Y24995D01*
X8890Y25400D01*
X186690Y25400D02*
X186695Y25805D01*
X186710Y26210D01*
X186735Y26615D01*
X186770Y27018D01*
X186814Y27421D01*
X186869Y27823D01*
X186933Y28223D01*
X187007Y28621D01*
X187091Y29017D01*
X187185Y29412D01*
X187288Y29803D01*
X187401Y30193D01*
X187523Y30579D01*
X187655Y30962D01*
X187796Y31342D01*
X187947Y31718D01*
X188106Y32091D01*
X188275Y32459D01*
X188453Y32823D01*
X188639Y33183D01*
X188835Y33538D01*
X189039Y33888D01*
X189251Y34233D01*
X189472Y34572D01*
X189702Y34907D01*
X189939Y35235D01*
X190184Y35557D01*
X190438Y35874D01*
X190698Y36184D01*
X190967Y36487D01*
X191243Y36784D01*
X191526Y37074D01*
X191816Y37357D01*
X192113Y37633D01*
X192416Y37902D01*
X192726Y38162D01*
X193043Y38416D01*
X193365Y38661D01*
X193693Y38898D01*
X194028Y39128D01*
X194367Y39349D01*
X194712Y39561D01*
X195062Y39765D01*
X195417Y39961D01*
X195777Y40147D01*
X196141Y40325D01*
X196509Y40494D01*
X196882Y40653D01*
X197258Y40804D01*
X197638Y40945D01*
X198021Y41077D01*
X198407Y41199D01*
X198797Y41312D01*
X199188Y41415D01*
X199583Y41509D01*
X199979Y41593D01*
X200377Y41667D01*
X200777Y41731D01*
X201179Y41786D01*
X201582Y41830D01*
X201985Y41865D01*
X202390Y41890D01*
X202795Y41905D01*
X203200Y41910D01*
X203605Y41905D01*
X204010Y41890D01*
X204415Y41865D01*
X204818Y41830D01*
X205221Y41786D01*
X205623Y41731D01*
X206023Y41667D01*
X206421Y41593D01*
X206817Y41509D01*
X207212Y41415D01*
X207603Y41312D01*
X207993Y41199D01*
X208379Y41077D01*
X208762Y40945D01*
X209142Y40804D01*
X209518Y40653D01*
X209891Y40494D01*
X210259Y40325D01*
X210623Y40147D01*
X210983Y39961D01*
X211338Y39765D01*
X211688Y39561D01*
X212033Y39349D01*
X212372Y39128D01*
X212707Y38898D01*
X213035Y38661D01*
X213357Y38416D01*
X213674Y38162D01*
X213984Y37902D01*
X214287Y37633D01*
X214584Y37357D01*
X214874Y37074D01*
X215157Y36784D01*
X215433Y36487D01*
X215702Y36184D01*
X215962Y35874D01*
X216216Y35557D01*
X216461Y35235D01*
X216698Y34907D01*
X216928Y34572D01*
X217149Y34233D01*
X217361Y33888D01*
X217565Y33538D01*
X217761Y33183D01*
X217947Y32823D01*
X218125Y32459D01*
X218294Y32091D01*
X218453Y31718D01*
X218604Y31342D01*
X218745Y30962D01*
X218877Y30579D01*
X218999Y30193D01*
X219112Y29803D01*
X219215Y29412D01*
X219309Y29017D01*
X219393Y28621D01*
X219467Y28223D01*
X219531Y27823D01*
X219586Y27421D01*
X219630Y27018D01*
X219665Y26615D01*
X219690Y26210D01*
X219705Y25805D01*
X219710Y25400D01*
X219705Y24995D01*
X219690Y24590D01*
X219665Y24185D01*
X219630Y23782D01*
X219586Y23379D01*
X219531Y22977D01*
X219467Y22577D01*
X219393Y22179D01*
X219309Y21783D01*
X219215Y21388D01*
X219112Y20997D01*
X218999Y20607D01*
X218877Y20221D01*
X218745Y19838D01*
X218604Y19458D01*
X218453Y19082D01*
X218294Y18709D01*
X218125Y18341D01*
X217947Y17977D01*
X217761Y17617D01*
X217565Y17262D01*
X217361Y16912D01*
X217149Y16567D01*
X216928Y16228D01*
X216698Y15893D01*
X216461Y15565D01*
X216216Y15243D01*
X215962Y14926D01*
X215702Y14616D01*
X215433Y14313D01*
X215157Y14016D01*
X214874Y13726D01*
X214584Y13443D01*
X214287Y13167D01*
X213984Y12898D01*
X213674Y12638D01*
X213357Y12384D01*
X213035Y12139D01*
X212707Y11902D01*
X212372Y11672D01*
X212033Y11451D01*
X211688Y11239D01*
X211338Y11035D01*
X210983Y10839D01*
X210623Y10653D01*
X210259Y10475D01*
X209891Y10306D01*
X209518Y10147D01*
X209142Y9996D01*
X208762Y9855D01*
X208379Y9723D01*
X207993Y9601D01*
X207603Y9488D01*
X207212Y9385D01*
X206817Y9291D01*
X206421Y9207D01*
X206023Y9133D01*
X205623Y9069D01*
X205221Y9014D01*
X204818Y8970D01*
X204415Y8935D01*
X204010Y8910D01*
X203605Y8895D01*
X203200Y8890D01*
X202795Y8895D01*
X202390Y8910D01*
X201985Y8935D01*
X201582Y8970D01*
X201179Y9014D01*
X200777Y9069D01*
X200377Y9133D01*
X199979Y9207D01*
X199583Y9291D01*
X199188Y9385D01*
X198797Y9488D01*
X198407Y9601D01*
X198021Y9723D01*
X197638Y9855D01*
X197258Y9996D01*
X196882Y10147D01*
X196509Y10306D01*
X196141Y10475D01*
X195777Y10653D01*
X195417Y10839D01*
X195062Y11035D01*
X194712Y11239D01*
X194367Y11451D01*
X194028Y11672D01*
X193693Y11902D01*
X193365Y12139D01*
X193043Y12384D01*
X192726Y12638D01*
X192416Y12898D01*
X192113Y13167D01*
X191816Y13443D01*
X191526Y13726D01*
X191243Y14016D01*
X190967Y14313D01*
X190698Y14616D01*
X190438Y14926D01*
X190184Y15243D01*
X189939Y15565D01*
X189702Y15893D01*
X189472Y16228D01*
X189251Y16567D01*
X189039Y16912D01*
X188835Y17262D01*
X188639Y17617D01*
X188453Y17977D01*
X188275Y18341D01*
X188106Y18709D01*
X187947Y19082D01*
X187796Y19458D01*
X187655Y19838D01*
X187523Y20221D01*
X187401Y20607D01*
X187288Y20997D01*
X187185Y21388D01*
X187091Y21783D01*
X187007Y22179D01*
X186933Y22577D01*
X186869Y22977D01*
X186814Y23379D01*
X186770Y23782D01*
X186735Y24185D01*
X186710Y24590D01*
X186695Y24995D01*
X186690Y25400D01*
X82150Y49050D02*
X82152Y49163D01*
X82158Y49277D01*
X82168Y49390D01*
X82182Y49502D01*
X82199Y49614D01*
X82221Y49726D01*
X82247Y49836D01*
X82276Y49946D01*
X82309Y50054D01*
X82346Y50162D01*
X82387Y50267D01*
X82431Y50372D01*
X82479Y50475D01*
X82530Y50576D01*
X82585Y50675D01*
X82644Y50772D01*
X82706Y50867D01*
X82771Y50960D01*
X82839Y51051D01*
X82910Y51139D01*
X82985Y51225D01*
X83062Y51308D01*
X83142Y51388D01*
X83225Y51465D01*
X83311Y51540D01*
X83399Y51611D01*
X83490Y51679D01*
X83583Y51744D01*
X83678Y51806D01*
X83775Y51865D01*
X83874Y51920D01*
X83975Y51971D01*
X84078Y52019D01*
X84183Y52063D01*
X84288Y52104D01*
X84396Y52141D01*
X84504Y52174D01*
X84614Y52203D01*
X84724Y52229D01*
X84836Y52251D01*
X84948Y52268D01*
X85060Y52282D01*
X85173Y52292D01*
X85287Y52298D01*
X85400Y52300D01*
X85513Y52298D01*
X85627Y52292D01*
X85740Y52282D01*
X85852Y52268D01*
X85964Y52251D01*
X86076Y52229D01*
X86186Y52203D01*
X86296Y52174D01*
X86404Y52141D01*
X86512Y52104D01*
X86617Y52063D01*
X86722Y52019D01*
X86825Y51971D01*
X86926Y51920D01*
X87025Y51865D01*
X87122Y51806D01*
X87217Y51744D01*
X87310Y51679D01*
X87401Y51611D01*
X87489Y51540D01*
X87575Y51465D01*
X87658Y51388D01*
X87738Y51308D01*
X87815Y51225D01*
X87890Y51139D01*
X87961Y51051D01*
X88029Y50960D01*
X88094Y50867D01*
X88156Y50772D01*
X88215Y50675D01*
X88270Y50576D01*
X88321Y50475D01*
X88369Y50372D01*
X88413Y50267D01*
X88454Y50162D01*
X88491Y50054D01*
X88524Y49946D01*
X88553Y49836D01*
X88579Y49726D01*
X88601Y49614D01*
X88618Y49502D01*
X88632Y49390D01*
X88642Y49277D01*
X88648Y49163D01*
X88650Y49050D01*
X88648Y48937D01*
X88642Y48823D01*
X88632Y48710D01*
X88618Y48598D01*
X88601Y48486D01*
X88579Y48374D01*
X88553Y48264D01*
X88524Y48154D01*
X88491Y48046D01*
X88454Y47938D01*
X88413Y47833D01*
X88369Y47728D01*
X88321Y47625D01*
X88270Y47524D01*
X88215Y47425D01*
X88156Y47328D01*
X88094Y47233D01*
X88029Y47140D01*
X87961Y47049D01*
X87890Y46961D01*
X87815Y46875D01*
X87738Y46792D01*
X87658Y46712D01*
X87575Y46635D01*
X87489Y46560D01*
X87401Y46489D01*
X87310Y46421D01*
X87217Y46356D01*
X87122Y46294D01*
X87025Y46235D01*
X86926Y46180D01*
X86825Y46129D01*
X86722Y46081D01*
X86617Y46037D01*
X86512Y45996D01*
X86404Y45959D01*
X86296Y45926D01*
X86186Y45897D01*
X86076Y45871D01*
X85964Y45849D01*
X85852Y45832D01*
X85740Y45818D01*
X85627Y45808D01*
X85513Y45802D01*
X85400Y45800D01*
X85287Y45802D01*
X85173Y45808D01*
X85060Y45818D01*
X84948Y45832D01*
X84836Y45849D01*
X84724Y45871D01*
X84614Y45897D01*
X84504Y45926D01*
X84396Y45959D01*
X84288Y45996D01*
X84183Y46037D01*
X84078Y46081D01*
X83975Y46129D01*
X83874Y46180D01*
X83775Y46235D01*
X83678Y46294D01*
X83583Y46356D01*
X83490Y46421D01*
X83399Y46489D01*
X83311Y46560D01*
X83225Y46635D01*
X83142Y46712D01*
X83062Y46792D01*
X82985Y46875D01*
X82910Y46961D01*
X82839Y47049D01*
X82771Y47140D01*
X82706Y47233D01*
X82644Y47328D01*
X82585Y47425D01*
X82530Y47524D01*
X82479Y47625D01*
X82431Y47728D01*
X82387Y47833D01*
X82346Y47938D01*
X82309Y48046D01*
X82276Y48154D01*
X82247Y48264D01*
X82221Y48374D01*
X82199Y48486D01*
X82182Y48598D01*
X82168Y48710D01*
X82158Y48823D01*
X82152Y48937D01*
X82150Y49050D01*
X139950Y49050D02*
X139952Y49163D01*
X139958Y49277D01*
X139968Y49390D01*
X139982Y49502D01*
X139999Y49614D01*
X140021Y49726D01*
X140047Y49836D01*
X140076Y49946D01*
X140109Y50054D01*
X140146Y50162D01*
X140187Y50267D01*
X140231Y50372D01*
X140279Y50475D01*
X140330Y50576D01*
X140385Y50675D01*
X140444Y50772D01*
X140506Y50867D01*
X140571Y50960D01*
X140639Y51051D01*
X140710Y51139D01*
X140785Y51225D01*
X140862Y51308D01*
X140942Y51388D01*
X141025Y51465D01*
X141111Y51540D01*
X141199Y51611D01*
X141290Y51679D01*
X141383Y51744D01*
X141478Y51806D01*
X141575Y51865D01*
X141674Y51920D01*
X141775Y51971D01*
X141878Y52019D01*
X141983Y52063D01*
X142088Y52104D01*
X142196Y52141D01*
X142304Y52174D01*
X142414Y52203D01*
X142524Y52229D01*
X142636Y52251D01*
X142748Y52268D01*
X142860Y52282D01*
X142973Y52292D01*
X143087Y52298D01*
X143200Y52300D01*
X143313Y52298D01*
X143427Y52292D01*
X143540Y52282D01*
X143652Y52268D01*
X143764Y52251D01*
X143876Y52229D01*
X143986Y52203D01*
X144096Y52174D01*
X144204Y52141D01*
X144312Y52104D01*
X144417Y52063D01*
X144522Y52019D01*
X144625Y51971D01*
X144726Y51920D01*
X144825Y51865D01*
X144922Y51806D01*
X145017Y51744D01*
X145110Y51679D01*
X145201Y51611D01*
X145289Y51540D01*
X145375Y51465D01*
X145458Y51388D01*
X145538Y51308D01*
X145615Y51225D01*
X145690Y51139D01*
X145761Y51051D01*
X145829Y50960D01*
X145894Y50867D01*
X145956Y50772D01*
X146015Y50675D01*
X146070Y50576D01*
X146121Y50475D01*
X146169Y50372D01*
X146213Y50267D01*
X146254Y50162D01*
X146291Y50054D01*
X146324Y49946D01*
X146353Y49836D01*
X146379Y49726D01*
X146401Y49614D01*
X146418Y49502D01*
X146432Y49390D01*
X146442Y49277D01*
X146448Y49163D01*
X146450Y49050D01*
X146448Y48937D01*
X146442Y48823D01*
X146432Y48710D01*
X146418Y48598D01*
X146401Y48486D01*
X146379Y48374D01*
X146353Y48264D01*
X146324Y48154D01*
X146291Y48046D01*
X146254Y47938D01*
X146213Y47833D01*
X146169Y47728D01*
X146121Y47625D01*
X146070Y47524D01*
X146015Y47425D01*
X145956Y47328D01*
X145894Y47233D01*
X145829Y47140D01*
X145761Y47049D01*
X145690Y46961D01*
X145615Y46875D01*
X145538Y46792D01*
X145458Y46712D01*
X145375Y46635D01*
X145289Y46560D01*
X145201Y46489D01*
X145110Y46421D01*
X145017Y46356D01*
X144922Y46294D01*
X144825Y46235D01*
X144726Y46180D01*
X144625Y46129D01*
X144522Y46081D01*
X144417Y46037D01*
X144312Y45996D01*
X144204Y45959D01*
X144096Y45926D01*
X143986Y45897D01*
X143876Y45871D01*
X143764Y45849D01*
X143652Y45832D01*
X143540Y45818D01*
X143427Y45808D01*
X143313Y45802D01*
X143200Y45800D01*
X143087Y45802D01*
X142973Y45808D01*
X142860Y45818D01*
X142748Y45832D01*
X142636Y45849D01*
X142524Y45871D01*
X142414Y45897D01*
X142304Y45926D01*
X142196Y45959D01*
X142088Y45996D01*
X141983Y46037D01*
X141878Y46081D01*
X141775Y46129D01*
X141674Y46180D01*
X141575Y46235D01*
X141478Y46294D01*
X141383Y46356D01*
X141290Y46421D01*
X141199Y46489D01*
X141111Y46560D01*
X141025Y46635D01*
X140942Y46712D01*
X140862Y46792D01*
X140785Y46875D01*
X140710Y46961D01*
X140639Y47049D01*
X140571Y47140D01*
X140506Y47233D01*
X140444Y47328D01*
X140385Y47425D01*
X140330Y47524D01*
X140279Y47625D01*
X140231Y47728D01*
X140187Y47833D01*
X140146Y47938D01*
X140109Y48046D01*
X140076Y48154D01*
X140047Y48264D01*
X140021Y48374D01*
X139999Y48486D01*
X139982Y48598D01*
X139968Y48710D01*
X139958Y48823D01*
X139952Y48937D01*
X139950Y49050D01*
D15*
X68100Y15700D02*
X68100Y9500D01*
X74100Y9500D02*
X74100Y15700D01*
X74098Y15808D01*
X74092Y15916D01*
X74082Y16024D01*
X74069Y16132D01*
X74051Y16239D01*
X74030Y16345D01*
X74005Y16450D01*
X73976Y16555D01*
X73943Y16658D01*
X73907Y16760D01*
X73866Y16861D01*
X73823Y16960D01*
X73775Y17057D01*
X73725Y17153D01*
X73671Y17247D01*
X73613Y17338D01*
X73552Y17428D01*
X73488Y17516D01*
X73421Y17601D01*
X73351Y17683D01*
X73278Y17763D01*
X73202Y17840D01*
X73123Y17915D01*
X73042Y17986D01*
X72958Y18055D01*
X72872Y18121D01*
X72784Y18183D01*
X72693Y18242D01*
X72600Y18298D01*
X72505Y18351D01*
X72409Y18400D01*
X72310Y18445D01*
X72210Y18487D01*
X72109Y18525D01*
X72006Y18560D01*
X71903Y18591D01*
X71798Y18618D01*
X71692Y18641D01*
X71585Y18660D01*
X71478Y18676D01*
X71370Y18688D01*
X71262Y18696D01*
X71154Y18700D01*
X71046Y18700D01*
X70938Y18696D01*
X70830Y18688D01*
X70722Y18676D01*
X70615Y18660D01*
X70508Y18641D01*
X70402Y18618D01*
X70297Y18591D01*
X70194Y18560D01*
X70091Y18525D01*
X69990Y18487D01*
X69890Y18445D01*
X69791Y18400D01*
X69695Y18351D01*
X69600Y18298D01*
X69507Y18242D01*
X69416Y18183D01*
X69328Y18121D01*
X69242Y18055D01*
X69158Y17986D01*
X69077Y17915D01*
X68998Y17840D01*
X68922Y17763D01*
X68849Y17683D01*
X68779Y17601D01*
X68712Y17516D01*
X68648Y17428D01*
X68587Y17338D01*
X68529Y17247D01*
X68475Y17153D01*
X68425Y17057D01*
X68377Y16960D01*
X68334Y16861D01*
X68293Y16760D01*
X68257Y16658D01*
X68224Y16555D01*
X68195Y16450D01*
X68170Y16345D01*
X68149Y16239D01*
X68131Y16132D01*
X68118Y16024D01*
X68108Y15916D01*
X68102Y15808D01*
X68100Y15700D01*
X68100Y9500D02*
X68102Y9392D01*
X68108Y9284D01*
X68118Y9176D01*
X68131Y9068D01*
X68149Y8961D01*
X68170Y8855D01*
X68195Y8750D01*
X68224Y8645D01*
X68257Y8542D01*
X68293Y8440D01*
X68334Y8339D01*
X68377Y8240D01*
X68425Y8143D01*
X68475Y8047D01*
X68529Y7953D01*
X68587Y7862D01*
X68648Y7772D01*
X68712Y7684D01*
X68779Y7599D01*
X68849Y7517D01*
X68922Y7437D01*
X68998Y7360D01*
X69077Y7285D01*
X69158Y7214D01*
X69242Y7145D01*
X69328Y7079D01*
X69416Y7017D01*
X69507Y6958D01*
X69600Y6902D01*
X69695Y6849D01*
X69791Y6800D01*
X69890Y6755D01*
X69990Y6713D01*
X70091Y6675D01*
X70194Y6640D01*
X70297Y6609D01*
X70402Y6582D01*
X70508Y6559D01*
X70615Y6540D01*
X70722Y6524D01*
X70830Y6512D01*
X70938Y6504D01*
X71046Y6500D01*
X71154Y6500D01*
X71262Y6504D01*
X71370Y6512D01*
X71478Y6524D01*
X71585Y6540D01*
X71692Y6559D01*
X71798Y6582D01*
X71903Y6609D01*
X72006Y6640D01*
X72109Y6675D01*
X72210Y6713D01*
X72310Y6755D01*
X72409Y6800D01*
X72505Y6849D01*
X72600Y6902D01*
X72693Y6958D01*
X72784Y7017D01*
X72872Y7079D01*
X72958Y7145D01*
X73042Y7214D01*
X73123Y7285D01*
X73202Y7360D01*
X73278Y7437D01*
X73351Y7517D01*
X73421Y7599D01*
X73488Y7684D01*
X73552Y7772D01*
X73613Y7862D01*
X73671Y7953D01*
X73725Y8047D01*
X73775Y8143D01*
X73823Y8240D01*
X73866Y8339D01*
X73907Y8440D01*
X73943Y8542D01*
X73976Y8645D01*
X74005Y8750D01*
X74030Y8855D01*
X74051Y8961D01*
X74069Y9068D01*
X74082Y9176D01*
X74092Y9284D01*
X74098Y9392D01*
X74100Y9500D01*
X68100Y48850D02*
X68100Y59850D01*
X74100Y59850D02*
X74100Y48850D01*
X74098Y48742D01*
X74092Y48634D01*
X74082Y48526D01*
X74069Y48418D01*
X74051Y48311D01*
X74030Y48205D01*
X74005Y48100D01*
X73976Y47995D01*
X73943Y47892D01*
X73907Y47790D01*
X73866Y47689D01*
X73823Y47590D01*
X73775Y47493D01*
X73725Y47397D01*
X73671Y47303D01*
X73613Y47212D01*
X73552Y47122D01*
X73488Y47034D01*
X73421Y46949D01*
X73351Y46867D01*
X73278Y46787D01*
X73202Y46710D01*
X73123Y46635D01*
X73042Y46564D01*
X72958Y46495D01*
X72872Y46429D01*
X72784Y46367D01*
X72693Y46308D01*
X72600Y46252D01*
X72505Y46199D01*
X72409Y46150D01*
X72310Y46105D01*
X72210Y46063D01*
X72109Y46025D01*
X72006Y45990D01*
X71903Y45959D01*
X71798Y45932D01*
X71692Y45909D01*
X71585Y45890D01*
X71478Y45874D01*
X71370Y45862D01*
X71262Y45854D01*
X71154Y45850D01*
X71046Y45850D01*
X70938Y45854D01*
X70830Y45862D01*
X70722Y45874D01*
X70615Y45890D01*
X70508Y45909D01*
X70402Y45932D01*
X70297Y45959D01*
X70194Y45990D01*
X70091Y46025D01*
X69990Y46063D01*
X69890Y46105D01*
X69791Y46150D01*
X69695Y46199D01*
X69600Y46252D01*
X69507Y46308D01*
X69416Y46367D01*
X69328Y46429D01*
X69242Y46495D01*
X69158Y46564D01*
X69077Y46635D01*
X68998Y46710D01*
X68922Y46787D01*
X68849Y46867D01*
X68779Y46949D01*
X68712Y47034D01*
X68648Y47122D01*
X68587Y47212D01*
X68529Y47303D01*
X68475Y47397D01*
X68425Y47493D01*
X68377Y47590D01*
X68334Y47689D01*
X68293Y47790D01*
X68257Y47892D01*
X68224Y47995D01*
X68195Y48100D01*
X68170Y48205D01*
X68149Y48311D01*
X68131Y48418D01*
X68118Y48526D01*
X68108Y48634D01*
X68102Y48742D01*
X68100Y48850D01*
X68100Y59850D02*
X68102Y59958D01*
X68108Y60066D01*
X68118Y60174D01*
X68131Y60282D01*
X68149Y60389D01*
X68170Y60495D01*
X68195Y60600D01*
X68224Y60705D01*
X68257Y60808D01*
X68293Y60910D01*
X68334Y61011D01*
X68377Y61110D01*
X68425Y61207D01*
X68475Y61303D01*
X68529Y61397D01*
X68587Y61488D01*
X68648Y61578D01*
X68712Y61666D01*
X68779Y61751D01*
X68849Y61833D01*
X68922Y61913D01*
X68998Y61990D01*
X69077Y62065D01*
X69158Y62136D01*
X69242Y62205D01*
X69328Y62271D01*
X69416Y62333D01*
X69507Y62392D01*
X69600Y62448D01*
X69695Y62501D01*
X69791Y62550D01*
X69890Y62595D01*
X69990Y62637D01*
X70091Y62675D01*
X70194Y62710D01*
X70297Y62741D01*
X70402Y62768D01*
X70508Y62791D01*
X70615Y62810D01*
X70722Y62826D01*
X70830Y62838D01*
X70938Y62846D01*
X71046Y62850D01*
X71154Y62850D01*
X71262Y62846D01*
X71370Y62838D01*
X71478Y62826D01*
X71585Y62810D01*
X71692Y62791D01*
X71798Y62768D01*
X71903Y62741D01*
X72006Y62710D01*
X72109Y62675D01*
X72210Y62637D01*
X72310Y62595D01*
X72409Y62550D01*
X72505Y62501D01*
X72600Y62448D01*
X72693Y62392D01*
X72784Y62333D01*
X72872Y62271D01*
X72958Y62205D01*
X73042Y62136D01*
X73123Y62065D01*
X73202Y61990D01*
X73278Y61913D01*
X73351Y61833D01*
X73421Y61751D01*
X73488Y61666D01*
X73552Y61578D01*
X73613Y61488D01*
X73671Y61397D01*
X73725Y61303D01*
X73775Y61207D01*
X73823Y61110D01*
X73866Y61011D01*
X73907Y60910D01*
X73943Y60808D01*
X73976Y60705D01*
X74005Y60600D01*
X74030Y60495D01*
X74051Y60389D01*
X74069Y60282D01*
X74082Y60174D01*
X74092Y60066D01*
X74098Y59958D01*
X74100Y59850D01*
X154500Y15700D02*
X154500Y9500D01*
X160500Y9500D02*
X160500Y15700D01*
X160498Y15808D01*
X160492Y15916D01*
X160482Y16024D01*
X160469Y16132D01*
X160451Y16239D01*
X160430Y16345D01*
X160405Y16450D01*
X160376Y16555D01*
X160343Y16658D01*
X160307Y16760D01*
X160266Y16861D01*
X160223Y16960D01*
X160175Y17057D01*
X160125Y17153D01*
X160071Y17247D01*
X160013Y17338D01*
X159952Y17428D01*
X159888Y17516D01*
X159821Y17601D01*
X159751Y17683D01*
X159678Y17763D01*
X159602Y17840D01*
X159523Y17915D01*
X159442Y17986D01*
X159358Y18055D01*
X159272Y18121D01*
X159184Y18183D01*
X159093Y18242D01*
X159000Y18298D01*
X158905Y18351D01*
X158809Y18400D01*
X158710Y18445D01*
X158610Y18487D01*
X158509Y18525D01*
X158406Y18560D01*
X158303Y18591D01*
X158198Y18618D01*
X158092Y18641D01*
X157985Y18660D01*
X157878Y18676D01*
X157770Y18688D01*
X157662Y18696D01*
X157554Y18700D01*
X157446Y18700D01*
X157338Y18696D01*
X157230Y18688D01*
X157122Y18676D01*
X157015Y18660D01*
X156908Y18641D01*
X156802Y18618D01*
X156697Y18591D01*
X156594Y18560D01*
X156491Y18525D01*
X156390Y18487D01*
X156290Y18445D01*
X156191Y18400D01*
X156095Y18351D01*
X156000Y18298D01*
X155907Y18242D01*
X155816Y18183D01*
X155728Y18121D01*
X155642Y18055D01*
X155558Y17986D01*
X155477Y17915D01*
X155398Y17840D01*
X155322Y17763D01*
X155249Y17683D01*
X155179Y17601D01*
X155112Y17516D01*
X155048Y17428D01*
X154987Y17338D01*
X154929Y17247D01*
X154875Y17153D01*
X154825Y17057D01*
X154777Y16960D01*
X154734Y16861D01*
X154693Y16760D01*
X154657Y16658D01*
X154624Y16555D01*
X154595Y16450D01*
X154570Y16345D01*
X154549Y16239D01*
X154531Y16132D01*
X154518Y16024D01*
X154508Y15916D01*
X154502Y15808D01*
X154500Y15700D01*
X154500Y9500D02*
X154502Y9392D01*
X154508Y9284D01*
X154518Y9176D01*
X154531Y9068D01*
X154549Y8961D01*
X154570Y8855D01*
X154595Y8750D01*
X154624Y8645D01*
X154657Y8542D01*
X154693Y8440D01*
X154734Y8339D01*
X154777Y8240D01*
X154825Y8143D01*
X154875Y8047D01*
X154929Y7953D01*
X154987Y7862D01*
X155048Y7772D01*
X155112Y7684D01*
X155179Y7599D01*
X155249Y7517D01*
X155322Y7437D01*
X155398Y7360D01*
X155477Y7285D01*
X155558Y7214D01*
X155642Y7145D01*
X155728Y7079D01*
X155816Y7017D01*
X155907Y6958D01*
X156000Y6902D01*
X156095Y6849D01*
X156191Y6800D01*
X156290Y6755D01*
X156390Y6713D01*
X156491Y6675D01*
X156594Y6640D01*
X156697Y6609D01*
X156802Y6582D01*
X156908Y6559D01*
X157015Y6540D01*
X157122Y6524D01*
X157230Y6512D01*
X157338Y6504D01*
X157446Y6500D01*
X157554Y6500D01*
X157662Y6504D01*
X157770Y6512D01*
X157878Y6524D01*
X157985Y6540D01*
X158092Y6559D01*
X158198Y6582D01*
X158303Y6609D01*
X158406Y6640D01*
X158509Y6675D01*
X158610Y6713D01*
X158710Y6755D01*
X158809Y6800D01*
X158905Y6849D01*
X159000Y6902D01*
X159093Y6958D01*
X159184Y7017D01*
X159272Y7079D01*
X159358Y7145D01*
X159442Y7214D01*
X159523Y7285D01*
X159602Y7360D01*
X159678Y7437D01*
X159751Y7517D01*
X159821Y7599D01*
X159888Y7684D01*
X159952Y7772D01*
X160013Y7862D01*
X160071Y7953D01*
X160125Y8047D01*
X160175Y8143D01*
X160223Y8240D01*
X160266Y8339D01*
X160307Y8440D01*
X160343Y8542D01*
X160376Y8645D01*
X160405Y8750D01*
X160430Y8855D01*
X160451Y8961D01*
X160469Y9068D01*
X160482Y9176D01*
X160492Y9284D01*
X160498Y9392D01*
X160500Y9500D01*
X154500Y48850D02*
X154500Y59850D01*
X160500Y59850D02*
X160500Y48850D01*
X160498Y48742D01*
X160492Y48634D01*
X160482Y48526D01*
X160469Y48418D01*
X160451Y48311D01*
X160430Y48205D01*
X160405Y48100D01*
X160376Y47995D01*
X160343Y47892D01*
X160307Y47790D01*
X160266Y47689D01*
X160223Y47590D01*
X160175Y47493D01*
X160125Y47397D01*
X160071Y47303D01*
X160013Y47212D01*
X159952Y47122D01*
X159888Y47034D01*
X159821Y46949D01*
X159751Y46867D01*
X159678Y46787D01*
X159602Y46710D01*
X159523Y46635D01*
X159442Y46564D01*
X159358Y46495D01*
X159272Y46429D01*
X159184Y46367D01*
X159093Y46308D01*
X159000Y46252D01*
X158905Y46199D01*
X158809Y46150D01*
X158710Y46105D01*
X158610Y46063D01*
X158509Y46025D01*
X158406Y45990D01*
X158303Y45959D01*
X158198Y45932D01*
X158092Y45909D01*
X157985Y45890D01*
X157878Y45874D01*
X157770Y45862D01*
X157662Y45854D01*
X157554Y45850D01*
X157446Y45850D01*
X157338Y45854D01*
X157230Y45862D01*
X157122Y45874D01*
X157015Y45890D01*
X156908Y45909D01*
X156802Y45932D01*
X156697Y45959D01*
X156594Y45990D01*
X156491Y46025D01*
X156390Y46063D01*
X156290Y46105D01*
X156191Y46150D01*
X156095Y46199D01*
X156000Y46252D01*
X155907Y46308D01*
X155816Y46367D01*
X155728Y46429D01*
X155642Y46495D01*
X155558Y46564D01*
X155477Y46635D01*
X155398Y46710D01*
X155322Y46787D01*
X155249Y46867D01*
X155179Y46949D01*
X155112Y47034D01*
X155048Y47122D01*
X154987Y47212D01*
X154929Y47303D01*
X154875Y47397D01*
X154825Y47493D01*
X154777Y47590D01*
X154734Y47689D01*
X154693Y47790D01*
X154657Y47892D01*
X154624Y47995D01*
X154595Y48100D01*
X154570Y48205D01*
X154549Y48311D01*
X154531Y48418D01*
X154518Y48526D01*
X154508Y48634D01*
X154502Y48742D01*
X154500Y48850D01*
X154500Y59850D02*
X154502Y59958D01*
X154508Y60066D01*
X154518Y60174D01*
X154531Y60282D01*
X154549Y60389D01*
X154570Y60495D01*
X154595Y60600D01*
X154624Y60705D01*
X154657Y60808D01*
X154693Y60910D01*
X154734Y61011D01*
X154777Y61110D01*
X154825Y61207D01*
X154875Y61303D01*
X154929Y61397D01*
X154987Y61488D01*
X155048Y61578D01*
X155112Y61666D01*
X155179Y61751D01*
X155249Y61833D01*
X155322Y61913D01*
X155398Y61990D01*
X155477Y62065D01*
X155558Y62136D01*
X155642Y62205D01*
X155728Y62271D01*
X155816Y62333D01*
X155907Y62392D01*
X156000Y62448D01*
X156095Y62501D01*
X156191Y62550D01*
X156290Y62595D01*
X156390Y62637D01*
X156491Y62675D01*
X156594Y62710D01*
X156697Y62741D01*
X156802Y62768D01*
X156908Y62791D01*
X157015Y62810D01*
X157122Y62826D01*
X157230Y62838D01*
X157338Y62846D01*
X157446Y62850D01*
X157554Y62850D01*
X157662Y62846D01*
X157770Y62838D01*
X157878Y62826D01*
X157985Y62810D01*
X158092Y62791D01*
X158198Y62768D01*
X158303Y62741D01*
X158406Y62710D01*
X158509Y62675D01*
X158610Y62637D01*
X158710Y62595D01*
X158809Y62550D01*
X158905Y62501D01*
X159000Y62448D01*
X159093Y62392D01*
X159184Y62333D01*
X159272Y62271D01*
X159358Y62205D01*
X159442Y62136D01*
X159523Y62065D01*
X159602Y61990D01*
X159678Y61913D01*
X159751Y61833D01*
X159821Y61751D01*
X159888Y61666D01*
X159952Y61578D01*
X160013Y61488D01*
X160071Y61397D01*
X160125Y61303D01*
X160175Y61207D01*
X160223Y61110D01*
X160266Y61011D01*
X160307Y60910D01*
X160343Y60808D01*
X160376Y60705D01*
X160405Y60600D01*
X160430Y60495D01*
X160451Y60389D01*
X160469Y60282D01*
X160482Y60174D01*
X160492Y60066D01*
X160498Y59958D01*
X160500Y59850D01*
D14*
X242570Y25400D02*
X242575Y25805D01*
X242590Y26210D01*
X242615Y26615D01*
X242650Y27018D01*
X242694Y27421D01*
X242749Y27823D01*
X242813Y28223D01*
X242887Y28621D01*
X242971Y29017D01*
X243065Y29412D01*
X243168Y29803D01*
X243281Y30193D01*
X243403Y30579D01*
X243535Y30962D01*
X243676Y31342D01*
X243827Y31718D01*
X243986Y32091D01*
X244155Y32459D01*
X244333Y32823D01*
X244519Y33183D01*
X244715Y33538D01*
X244919Y33888D01*
X245131Y34233D01*
X245352Y34572D01*
X245582Y34907D01*
X245819Y35235D01*
X246064Y35557D01*
X246318Y35874D01*
X246578Y36184D01*
X246847Y36487D01*
X247123Y36784D01*
X247406Y37074D01*
X247696Y37357D01*
X247993Y37633D01*
X248296Y37902D01*
X248606Y38162D01*
X248923Y38416D01*
X249245Y38661D01*
X249573Y38898D01*
X249908Y39128D01*
X250247Y39349D01*
X250592Y39561D01*
X250942Y39765D01*
X251297Y39961D01*
X251657Y40147D01*
X252021Y40325D01*
X252389Y40494D01*
X252762Y40653D01*
X253138Y40804D01*
X253518Y40945D01*
X253901Y41077D01*
X254287Y41199D01*
X254677Y41312D01*
X255068Y41415D01*
X255463Y41509D01*
X255859Y41593D01*
X256257Y41667D01*
X256657Y41731D01*
X257059Y41786D01*
X257462Y41830D01*
X257865Y41865D01*
X258270Y41890D01*
X258675Y41905D01*
X259080Y41910D01*
X259485Y41905D01*
X259890Y41890D01*
X260295Y41865D01*
X260698Y41830D01*
X261101Y41786D01*
X261503Y41731D01*
X261903Y41667D01*
X262301Y41593D01*
X262697Y41509D01*
X263092Y41415D01*
X263483Y41312D01*
X263873Y41199D01*
X264259Y41077D01*
X264642Y40945D01*
X265022Y40804D01*
X265398Y40653D01*
X265771Y40494D01*
X266139Y40325D01*
X266503Y40147D01*
X266863Y39961D01*
X267218Y39765D01*
X267568Y39561D01*
X267913Y39349D01*
X268252Y39128D01*
X268587Y38898D01*
X268915Y38661D01*
X269237Y38416D01*
X269554Y38162D01*
X269864Y37902D01*
X270167Y37633D01*
X270464Y37357D01*
X270754Y37074D01*
X271037Y36784D01*
X271313Y36487D01*
X271582Y36184D01*
X271842Y35874D01*
X272096Y35557D01*
X272341Y35235D01*
X272578Y34907D01*
X272808Y34572D01*
X273029Y34233D01*
X273241Y33888D01*
X273445Y33538D01*
X273641Y33183D01*
X273827Y32823D01*
X274005Y32459D01*
X274174Y32091D01*
X274333Y31718D01*
X274484Y31342D01*
X274625Y30962D01*
X274757Y30579D01*
X274879Y30193D01*
X274992Y29803D01*
X275095Y29412D01*
X275189Y29017D01*
X275273Y28621D01*
X275347Y28223D01*
X275411Y27823D01*
X275466Y27421D01*
X275510Y27018D01*
X275545Y26615D01*
X275570Y26210D01*
X275585Y25805D01*
X275590Y25400D01*
X275585Y24995D01*
X275570Y24590D01*
X275545Y24185D01*
X275510Y23782D01*
X275466Y23379D01*
X275411Y22977D01*
X275347Y22577D01*
X275273Y22179D01*
X275189Y21783D01*
X275095Y21388D01*
X274992Y20997D01*
X274879Y20607D01*
X274757Y20221D01*
X274625Y19838D01*
X274484Y19458D01*
X274333Y19082D01*
X274174Y18709D01*
X274005Y18341D01*
X273827Y17977D01*
X273641Y17617D01*
X273445Y17262D01*
X273241Y16912D01*
X273029Y16567D01*
X272808Y16228D01*
X272578Y15893D01*
X272341Y15565D01*
X272096Y15243D01*
X271842Y14926D01*
X271582Y14616D01*
X271313Y14313D01*
X271037Y14016D01*
X270754Y13726D01*
X270464Y13443D01*
X270167Y13167D01*
X269864Y12898D01*
X269554Y12638D01*
X269237Y12384D01*
X268915Y12139D01*
X268587Y11902D01*
X268252Y11672D01*
X267913Y11451D01*
X267568Y11239D01*
X267218Y11035D01*
X266863Y10839D01*
X266503Y10653D01*
X266139Y10475D01*
X265771Y10306D01*
X265398Y10147D01*
X265022Y9996D01*
X264642Y9855D01*
X264259Y9723D01*
X263873Y9601D01*
X263483Y9488D01*
X263092Y9385D01*
X262697Y9291D01*
X262301Y9207D01*
X261903Y9133D01*
X261503Y9069D01*
X261101Y9014D01*
X260698Y8970D01*
X260295Y8935D01*
X259890Y8910D01*
X259485Y8895D01*
X259080Y8890D01*
X258675Y8895D01*
X258270Y8910D01*
X257865Y8935D01*
X257462Y8970D01*
X257059Y9014D01*
X256657Y9069D01*
X256257Y9133D01*
X255859Y9207D01*
X255463Y9291D01*
X255068Y9385D01*
X254677Y9488D01*
X254287Y9601D01*
X253901Y9723D01*
X253518Y9855D01*
X253138Y9996D01*
X252762Y10147D01*
X252389Y10306D01*
X252021Y10475D01*
X251657Y10653D01*
X251297Y10839D01*
X250942Y11035D01*
X250592Y11239D01*
X250247Y11451D01*
X249908Y11672D01*
X249573Y11902D01*
X249245Y12139D01*
X248923Y12384D01*
X248606Y12638D01*
X248296Y12898D01*
X247993Y13167D01*
X247696Y13443D01*
X247406Y13726D01*
X247123Y14016D01*
X246847Y14313D01*
X246578Y14616D01*
X246318Y14926D01*
X246064Y15243D01*
X245819Y15565D01*
X245582Y15893D01*
X245352Y16228D01*
X245131Y16567D01*
X244919Y16912D01*
X244715Y17262D01*
X244519Y17617D01*
X244333Y17977D01*
X244155Y18341D01*
X243986Y18709D01*
X243827Y19082D01*
X243676Y19458D01*
X243535Y19838D01*
X243403Y20221D01*
X243281Y20607D01*
X243168Y20997D01*
X243065Y21388D01*
X242971Y21783D01*
X242887Y22179D01*
X242813Y22577D01*
X242749Y22977D01*
X242694Y23379D01*
X242650Y23782D01*
X242615Y24185D01*
X242590Y24590D01*
X242575Y24995D01*
X242570Y25400D01*
X420370Y25400D02*
X420375Y25805D01*
X420390Y26210D01*
X420415Y26615D01*
X420450Y27018D01*
X420494Y27421D01*
X420549Y27823D01*
X420613Y28223D01*
X420687Y28621D01*
X420771Y29017D01*
X420865Y29412D01*
X420968Y29803D01*
X421081Y30193D01*
X421203Y30579D01*
X421335Y30962D01*
X421476Y31342D01*
X421627Y31718D01*
X421786Y32091D01*
X421955Y32459D01*
X422133Y32823D01*
X422319Y33183D01*
X422515Y33538D01*
X422719Y33888D01*
X422931Y34233D01*
X423152Y34572D01*
X423382Y34907D01*
X423619Y35235D01*
X423864Y35557D01*
X424118Y35874D01*
X424378Y36184D01*
X424647Y36487D01*
X424923Y36784D01*
X425206Y37074D01*
X425496Y37357D01*
X425793Y37633D01*
X426096Y37902D01*
X426406Y38162D01*
X426723Y38416D01*
X427045Y38661D01*
X427373Y38898D01*
X427708Y39128D01*
X428047Y39349D01*
X428392Y39561D01*
X428742Y39765D01*
X429097Y39961D01*
X429457Y40147D01*
X429821Y40325D01*
X430189Y40494D01*
X430562Y40653D01*
X430938Y40804D01*
X431318Y40945D01*
X431701Y41077D01*
X432087Y41199D01*
X432477Y41312D01*
X432868Y41415D01*
X433263Y41509D01*
X433659Y41593D01*
X434057Y41667D01*
X434457Y41731D01*
X434859Y41786D01*
X435262Y41830D01*
X435665Y41865D01*
X436070Y41890D01*
X436475Y41905D01*
X436880Y41910D01*
X437285Y41905D01*
X437690Y41890D01*
X438095Y41865D01*
X438498Y41830D01*
X438901Y41786D01*
X439303Y41731D01*
X439703Y41667D01*
X440101Y41593D01*
X440497Y41509D01*
X440892Y41415D01*
X441283Y41312D01*
X441673Y41199D01*
X442059Y41077D01*
X442442Y40945D01*
X442822Y40804D01*
X443198Y40653D01*
X443571Y40494D01*
X443939Y40325D01*
X444303Y40147D01*
X444663Y39961D01*
X445018Y39765D01*
X445368Y39561D01*
X445713Y39349D01*
X446052Y39128D01*
X446387Y38898D01*
X446715Y38661D01*
X447037Y38416D01*
X447354Y38162D01*
X447664Y37902D01*
X447967Y37633D01*
X448264Y37357D01*
X448554Y37074D01*
X448837Y36784D01*
X449113Y36487D01*
X449382Y36184D01*
X449642Y35874D01*
X449896Y35557D01*
X450141Y35235D01*
X450378Y34907D01*
X450608Y34572D01*
X450829Y34233D01*
X451041Y33888D01*
X451245Y33538D01*
X451441Y33183D01*
X451627Y32823D01*
X451805Y32459D01*
X451974Y32091D01*
X452133Y31718D01*
X452284Y31342D01*
X452425Y30962D01*
X452557Y30579D01*
X452679Y30193D01*
X452792Y29803D01*
X452895Y29412D01*
X452989Y29017D01*
X453073Y28621D01*
X453147Y28223D01*
X453211Y27823D01*
X453266Y27421D01*
X453310Y27018D01*
X453345Y26615D01*
X453370Y26210D01*
X453385Y25805D01*
X453390Y25400D01*
X453385Y24995D01*
X453370Y24590D01*
X453345Y24185D01*
X453310Y23782D01*
X453266Y23379D01*
X453211Y22977D01*
X453147Y22577D01*
X453073Y22179D01*
X452989Y21783D01*
X452895Y21388D01*
X452792Y20997D01*
X452679Y20607D01*
X452557Y20221D01*
X452425Y19838D01*
X452284Y19458D01*
X452133Y19082D01*
X451974Y18709D01*
X451805Y18341D01*
X451627Y17977D01*
X451441Y17617D01*
X451245Y17262D01*
X451041Y16912D01*
X450829Y16567D01*
X450608Y16228D01*
X450378Y15893D01*
X450141Y15565D01*
X449896Y15243D01*
X449642Y14926D01*
X449382Y14616D01*
X449113Y14313D01*
X448837Y14016D01*
X448554Y13726D01*
X448264Y13443D01*
X447967Y13167D01*
X447664Y12898D01*
X447354Y12638D01*
X447037Y12384D01*
X446715Y12139D01*
X446387Y11902D01*
X446052Y11672D01*
X445713Y11451D01*
X445368Y11239D01*
X445018Y11035D01*
X444663Y10839D01*
X444303Y10653D01*
X443939Y10475D01*
X443571Y10306D01*
X443198Y10147D01*
X442822Y9996D01*
X442442Y9855D01*
X442059Y9723D01*
X441673Y9601D01*
X441283Y9488D01*
X440892Y9385D01*
X440497Y9291D01*
X440101Y9207D01*
X439703Y9133D01*
X439303Y9069D01*
X438901Y9014D01*
X438498Y8970D01*
X438095Y8935D01*
X437690Y8910D01*
X437285Y8895D01*
X436880Y8890D01*
X436475Y8895D01*
X436070Y8910D01*
X435665Y8935D01*
X435262Y8970D01*
X434859Y9014D01*
X434457Y9069D01*
X434057Y9133D01*
X433659Y9207D01*
X433263Y9291D01*
X432868Y9385D01*
X432477Y9488D01*
X432087Y9601D01*
X431701Y9723D01*
X431318Y9855D01*
X430938Y9996D01*
X430562Y10147D01*
X430189Y10306D01*
X429821Y10475D01*
X429457Y10653D01*
X429097Y10839D01*
X428742Y11035D01*
X428392Y11239D01*
X428047Y11451D01*
X427708Y11672D01*
X427373Y11902D01*
X427045Y12139D01*
X426723Y12384D01*
X426406Y12638D01*
X426096Y12898D01*
X425793Y13167D01*
X425496Y13443D01*
X425206Y13726D01*
X424923Y14016D01*
X424647Y14313D01*
X424378Y14616D01*
X424118Y14926D01*
X423864Y15243D01*
X423619Y15565D01*
X423382Y15893D01*
X423152Y16228D01*
X422931Y16567D01*
X422719Y16912D01*
X422515Y17262D01*
X422319Y17617D01*
X422133Y17977D01*
X421955Y18341D01*
X421786Y18709D01*
X421627Y19082D01*
X421476Y19458D01*
X421335Y19838D01*
X421203Y20221D01*
X421081Y20607D01*
X420968Y20997D01*
X420865Y21388D01*
X420771Y21783D01*
X420687Y22179D01*
X420613Y22577D01*
X420549Y22977D01*
X420494Y23379D01*
X420450Y23782D01*
X420415Y24185D01*
X420390Y24590D01*
X420375Y24995D01*
X420370Y25400D01*
X315830Y49050D02*
X315832Y49163D01*
X315838Y49277D01*
X315848Y49390D01*
X315862Y49502D01*
X315879Y49614D01*
X315901Y49726D01*
X315927Y49836D01*
X315956Y49946D01*
X315989Y50054D01*
X316026Y50162D01*
X316067Y50267D01*
X316111Y50372D01*
X316159Y50475D01*
X316210Y50576D01*
X316265Y50675D01*
X316324Y50772D01*
X316386Y50867D01*
X316451Y50960D01*
X316519Y51051D01*
X316590Y51139D01*
X316665Y51225D01*
X316742Y51308D01*
X316822Y51388D01*
X316905Y51465D01*
X316991Y51540D01*
X317079Y51611D01*
X317170Y51679D01*
X317263Y51744D01*
X317358Y51806D01*
X317455Y51865D01*
X317554Y51920D01*
X317655Y51971D01*
X317758Y52019D01*
X317863Y52063D01*
X317968Y52104D01*
X318076Y52141D01*
X318184Y52174D01*
X318294Y52203D01*
X318404Y52229D01*
X318516Y52251D01*
X318628Y52268D01*
X318740Y52282D01*
X318853Y52292D01*
X318967Y52298D01*
X319080Y52300D01*
X319193Y52298D01*
X319307Y52292D01*
X319420Y52282D01*
X319532Y52268D01*
X319644Y52251D01*
X319756Y52229D01*
X319866Y52203D01*
X319976Y52174D01*
X320084Y52141D01*
X320192Y52104D01*
X320297Y52063D01*
X320402Y52019D01*
X320505Y51971D01*
X320606Y51920D01*
X320705Y51865D01*
X320802Y51806D01*
X320897Y51744D01*
X320990Y51679D01*
X321081Y51611D01*
X321169Y51540D01*
X321255Y51465D01*
X321338Y51388D01*
X321418Y51308D01*
X321495Y51225D01*
X321570Y51139D01*
X321641Y51051D01*
X321709Y50960D01*
X321774Y50867D01*
X321836Y50772D01*
X321895Y50675D01*
X321950Y50576D01*
X322001Y50475D01*
X322049Y50372D01*
X322093Y50267D01*
X322134Y50162D01*
X322171Y50054D01*
X322204Y49946D01*
X322233Y49836D01*
X322259Y49726D01*
X322281Y49614D01*
X322298Y49502D01*
X322312Y49390D01*
X322322Y49277D01*
X322328Y49163D01*
X322330Y49050D01*
X322328Y48937D01*
X322322Y48823D01*
X322312Y48710D01*
X322298Y48598D01*
X322281Y48486D01*
X322259Y48374D01*
X322233Y48264D01*
X322204Y48154D01*
X322171Y48046D01*
X322134Y47938D01*
X322093Y47833D01*
X322049Y47728D01*
X322001Y47625D01*
X321950Y47524D01*
X321895Y47425D01*
X321836Y47328D01*
X321774Y47233D01*
X321709Y47140D01*
X321641Y47049D01*
X321570Y46961D01*
X321495Y46875D01*
X321418Y46792D01*
X321338Y46712D01*
X321255Y46635D01*
X321169Y46560D01*
X321081Y46489D01*
X320990Y46421D01*
X320897Y46356D01*
X320802Y46294D01*
X320705Y46235D01*
X320606Y46180D01*
X320505Y46129D01*
X320402Y46081D01*
X320297Y46037D01*
X320192Y45996D01*
X320084Y45959D01*
X319976Y45926D01*
X319866Y45897D01*
X319756Y45871D01*
X319644Y45849D01*
X319532Y45832D01*
X319420Y45818D01*
X319307Y45808D01*
X319193Y45802D01*
X319080Y45800D01*
X318967Y45802D01*
X318853Y45808D01*
X318740Y45818D01*
X318628Y45832D01*
X318516Y45849D01*
X318404Y45871D01*
X318294Y45897D01*
X318184Y45926D01*
X318076Y45959D01*
X317968Y45996D01*
X317863Y46037D01*
X317758Y46081D01*
X317655Y46129D01*
X317554Y46180D01*
X317455Y46235D01*
X317358Y46294D01*
X317263Y46356D01*
X317170Y46421D01*
X317079Y46489D01*
X316991Y46560D01*
X316905Y46635D01*
X316822Y46712D01*
X316742Y46792D01*
X316665Y46875D01*
X316590Y46961D01*
X316519Y47049D01*
X316451Y47140D01*
X316386Y47233D01*
X316324Y47328D01*
X316265Y47425D01*
X316210Y47524D01*
X316159Y47625D01*
X316111Y47728D01*
X316067Y47833D01*
X316026Y47938D01*
X315989Y48046D01*
X315956Y48154D01*
X315927Y48264D01*
X315901Y48374D01*
X315879Y48486D01*
X315862Y48598D01*
X315848Y48710D01*
X315838Y48823D01*
X315832Y48937D01*
X315830Y49050D01*
X373630Y49050D02*
X373632Y49163D01*
X373638Y49277D01*
X373648Y49390D01*
X373662Y49502D01*
X373679Y49614D01*
X373701Y49726D01*
X373727Y49836D01*
X373756Y49946D01*
X373789Y50054D01*
X373826Y50162D01*
X373867Y50267D01*
X373911Y50372D01*
X373959Y50475D01*
X374010Y50576D01*
X374065Y50675D01*
X374124Y50772D01*
X374186Y50867D01*
X374251Y50960D01*
X374319Y51051D01*
X374390Y51139D01*
X374465Y51225D01*
X374542Y51308D01*
X374622Y51388D01*
X374705Y51465D01*
X374791Y51540D01*
X374879Y51611D01*
X374970Y51679D01*
X375063Y51744D01*
X375158Y51806D01*
X375255Y51865D01*
X375354Y51920D01*
X375455Y51971D01*
X375558Y52019D01*
X375663Y52063D01*
X375768Y52104D01*
X375876Y52141D01*
X375984Y52174D01*
X376094Y52203D01*
X376204Y52229D01*
X376316Y52251D01*
X376428Y52268D01*
X376540Y52282D01*
X376653Y52292D01*
X376767Y52298D01*
X376880Y52300D01*
X376993Y52298D01*
X377107Y52292D01*
X377220Y52282D01*
X377332Y52268D01*
X377444Y52251D01*
X377556Y52229D01*
X377666Y52203D01*
X377776Y52174D01*
X377884Y52141D01*
X377992Y52104D01*
X378097Y52063D01*
X378202Y52019D01*
X378305Y51971D01*
X378406Y51920D01*
X378505Y51865D01*
X378602Y51806D01*
X378697Y51744D01*
X378790Y51679D01*
X378881Y51611D01*
X378969Y51540D01*
X379055Y51465D01*
X379138Y51388D01*
X379218Y51308D01*
X379295Y51225D01*
X379370Y51139D01*
X379441Y51051D01*
X379509Y50960D01*
X379574Y50867D01*
X379636Y50772D01*
X379695Y50675D01*
X379750Y50576D01*
X379801Y50475D01*
X379849Y50372D01*
X379893Y50267D01*
X379934Y50162D01*
X379971Y50054D01*
X380004Y49946D01*
X380033Y49836D01*
X380059Y49726D01*
X380081Y49614D01*
X380098Y49502D01*
X380112Y49390D01*
X380122Y49277D01*
X380128Y49163D01*
X380130Y49050D01*
X380128Y48937D01*
X380122Y48823D01*
X380112Y48710D01*
X380098Y48598D01*
X380081Y48486D01*
X380059Y48374D01*
X380033Y48264D01*
X380004Y48154D01*
X379971Y48046D01*
X379934Y47938D01*
X379893Y47833D01*
X379849Y47728D01*
X379801Y47625D01*
X379750Y47524D01*
X379695Y47425D01*
X379636Y47328D01*
X379574Y47233D01*
X379509Y47140D01*
X379441Y47049D01*
X379370Y46961D01*
X379295Y46875D01*
X379218Y46792D01*
X379138Y46712D01*
X379055Y46635D01*
X378969Y46560D01*
X378881Y46489D01*
X378790Y46421D01*
X378697Y46356D01*
X378602Y46294D01*
X378505Y46235D01*
X378406Y46180D01*
X378305Y46129D01*
X378202Y46081D01*
X378097Y46037D01*
X377992Y45996D01*
X377884Y45959D01*
X377776Y45926D01*
X377666Y45897D01*
X377556Y45871D01*
X377444Y45849D01*
X377332Y45832D01*
X377220Y45818D01*
X377107Y45808D01*
X376993Y45802D01*
X376880Y45800D01*
X376767Y45802D01*
X376653Y45808D01*
X376540Y45818D01*
X376428Y45832D01*
X376316Y45849D01*
X376204Y45871D01*
X376094Y45897D01*
X375984Y45926D01*
X375876Y45959D01*
X375768Y45996D01*
X375663Y46037D01*
X375558Y46081D01*
X375455Y46129D01*
X375354Y46180D01*
X375255Y46235D01*
X375158Y46294D01*
X375063Y46356D01*
X374970Y46421D01*
X374879Y46489D01*
X374791Y46560D01*
X374705Y46635D01*
X374622Y46712D01*
X374542Y46792D01*
X374465Y46875D01*
X374390Y46961D01*
X374319Y47049D01*
X374251Y47140D01*
X374186Y47233D01*
X374124Y47328D01*
X374065Y47425D01*
X374010Y47524D01*
X373959Y47625D01*
X373911Y47728D01*
X373867Y47833D01*
X373826Y47938D01*
X373789Y48046D01*
X373756Y48154D01*
X373727Y48264D01*
X373701Y48374D01*
X373679Y48486D01*
X373662Y48598D01*
X373648Y48710D01*
X373638Y48823D01*
X373632Y48937D01*
X373630Y49050D01*
D15*
X301780Y15700D02*
X301780Y9500D01*
X307780Y9500D02*
X307780Y15700D01*
X307778Y15808D01*
X307772Y15916D01*
X307762Y16024D01*
X307749Y16132D01*
X307731Y16239D01*
X307710Y16345D01*
X307685Y16450D01*
X307656Y16555D01*
X307623Y16658D01*
X307587Y16760D01*
X307546Y16861D01*
X307503Y16960D01*
X307455Y17057D01*
X307405Y17153D01*
X307351Y17247D01*
X307293Y17338D01*
X307232Y17428D01*
X307168Y17516D01*
X307101Y17601D01*
X307031Y17683D01*
X306958Y17763D01*
X306882Y17840D01*
X306803Y17915D01*
X306722Y17986D01*
X306638Y18055D01*
X306552Y18121D01*
X306464Y18183D01*
X306373Y18242D01*
X306280Y18298D01*
X306185Y18351D01*
X306089Y18400D01*
X305990Y18445D01*
X305890Y18487D01*
X305789Y18525D01*
X305686Y18560D01*
X305583Y18591D01*
X305478Y18618D01*
X305372Y18641D01*
X305265Y18660D01*
X305158Y18676D01*
X305050Y18688D01*
X304942Y18696D01*
X304834Y18700D01*
X304726Y18700D01*
X304618Y18696D01*
X304510Y18688D01*
X304402Y18676D01*
X304295Y18660D01*
X304188Y18641D01*
X304082Y18618D01*
X303977Y18591D01*
X303874Y18560D01*
X303771Y18525D01*
X303670Y18487D01*
X303570Y18445D01*
X303471Y18400D01*
X303375Y18351D01*
X303280Y18298D01*
X303187Y18242D01*
X303096Y18183D01*
X303008Y18121D01*
X302922Y18055D01*
X302838Y17986D01*
X302757Y17915D01*
X302678Y17840D01*
X302602Y17763D01*
X302529Y17683D01*
X302459Y17601D01*
X302392Y17516D01*
X302328Y17428D01*
X302267Y17338D01*
X302209Y17247D01*
X302155Y17153D01*
X302105Y17057D01*
X302057Y16960D01*
X302014Y16861D01*
X301973Y16760D01*
X301937Y16658D01*
X301904Y16555D01*
X301875Y16450D01*
X301850Y16345D01*
X301829Y16239D01*
X301811Y16132D01*
X301798Y16024D01*
X301788Y15916D01*
X301782Y15808D01*
X301780Y15700D01*
X301780Y9500D02*
X301782Y9392D01*
X301788Y9284D01*
X301798Y9176D01*
X301811Y9068D01*
X301829Y8961D01*
X301850Y8855D01*
X301875Y8750D01*
X301904Y8645D01*
X301937Y8542D01*
X301973Y8440D01*
X302014Y8339D01*
X302057Y8240D01*
X302105Y8143D01*
X302155Y8047D01*
X302209Y7953D01*
X302267Y7862D01*
X302328Y7772D01*
X302392Y7684D01*
X302459Y7599D01*
X302529Y7517D01*
X302602Y7437D01*
X302678Y7360D01*
X302757Y7285D01*
X302838Y7214D01*
X302922Y7145D01*
X303008Y7079D01*
X303096Y7017D01*
X303187Y6958D01*
X303280Y6902D01*
X303375Y6849D01*
X303471Y6800D01*
X303570Y6755D01*
X303670Y6713D01*
X303771Y6675D01*
X303874Y6640D01*
X303977Y6609D01*
X304082Y6582D01*
X304188Y6559D01*
X304295Y6540D01*
X304402Y6524D01*
X304510Y6512D01*
X304618Y6504D01*
X304726Y6500D01*
X304834Y6500D01*
X304942Y6504D01*
X305050Y6512D01*
X305158Y6524D01*
X305265Y6540D01*
X305372Y6559D01*
X305478Y6582D01*
X305583Y6609D01*
X305686Y6640D01*
X305789Y6675D01*
X305890Y6713D01*
X305990Y6755D01*
X306089Y6800D01*
X306185Y6849D01*
X306280Y6902D01*
X306373Y6958D01*
X306464Y7017D01*
X306552Y7079D01*
X306638Y7145D01*
X306722Y7214D01*
X306803Y7285D01*
X306882Y7360D01*
X306958Y7437D01*
X307031Y7517D01*
X307101Y7599D01*
X307168Y7684D01*
X307232Y7772D01*
X307293Y7862D01*
X307351Y7953D01*
X307405Y8047D01*
X307455Y8143D01*
X307503Y8240D01*
X307546Y8339D01*
X307587Y8440D01*
X307623Y8542D01*
X307656Y8645D01*
X307685Y8750D01*
X307710Y8855D01*
X307731Y8961D01*
X307749Y9068D01*
X307762Y9176D01*
X307772Y9284D01*
X307778Y9392D01*
X307780Y9500D01*
X301780Y48850D02*
X301780Y59850D01*
X307780Y59850D02*
X307780Y48850D01*
X307778Y48742D01*
X307772Y48634D01*
X307762Y48526D01*
X307749Y48418D01*
X307731Y48311D01*
X307710Y48205D01*
X307685Y48100D01*
X307656Y47995D01*
X307623Y47892D01*
X307587Y47790D01*
X307546Y47689D01*
X307503Y47590D01*
X307455Y47493D01*
X307405Y47397D01*
X307351Y47303D01*
X307293Y47212D01*
X307232Y47122D01*
X307168Y47034D01*
X307101Y46949D01*
X307031Y46867D01*
X306958Y46787D01*
X306882Y46710D01*
X306803Y46635D01*
X306722Y46564D01*
X306638Y46495D01*
X306552Y46429D01*
X306464Y46367D01*
X306373Y46308D01*
X306280Y46252D01*
X306185Y46199D01*
X306089Y46150D01*
X305990Y46105D01*
X305890Y46063D01*
X305789Y46025D01*
X305686Y45990D01*
X305583Y45959D01*
X305478Y45932D01*
X305372Y45909D01*
X305265Y45890D01*
X305158Y45874D01*
X305050Y45862D01*
X304942Y45854D01*
X304834Y45850D01*
X304726Y45850D01*
X304618Y45854D01*
X304510Y45862D01*
X304402Y45874D01*
X304295Y45890D01*
X304188Y45909D01*
X304082Y45932D01*
X303977Y45959D01*
X303874Y45990D01*
X303771Y46025D01*
X303670Y46063D01*
X303570Y46105D01*
X303471Y46150D01*
X303375Y46199D01*
X303280Y46252D01*
X303187Y46308D01*
X303096Y46367D01*
X303008Y46429D01*
X302922Y46495D01*
X302838Y46564D01*
X302757Y46635D01*
X302678Y46710D01*
X302602Y46787D01*
X302529Y46867D01*
X302459Y46949D01*
X302392Y47034D01*
X302328Y47122D01*
X302267Y47212D01*
X302209Y47303D01*
X302155Y47397D01*
X302105Y47493D01*
X302057Y47590D01*
X302014Y47689D01*
X301973Y47790D01*
X301937Y47892D01*
X301904Y47995D01*
X301875Y48100D01*
X301850Y48205D01*
X301829Y48311D01*
X301811Y48418D01*
X301798Y48526D01*
X301788Y48634D01*
X301782Y48742D01*
X301780Y48850D01*
X301780Y59850D02*
X301782Y59958D01*
X301788Y60066D01*
X301798Y60174D01*
X301811Y60282D01*
X301829Y60389D01*
X301850Y60495D01*
X301875Y60600D01*
X301904Y60705D01*
X301937Y60808D01*
X301973Y60910D01*
X302014Y61011D01*
X302057Y61110D01*
X302105Y61207D01*
X302155Y61303D01*
X302209Y61397D01*
X302267Y61488D01*
X302328Y61578D01*
X302392Y61666D01*
X302459Y61751D01*
X302529Y61833D01*
X302602Y61913D01*
X302678Y61990D01*
X302757Y62065D01*
X302838Y62136D01*
X302922Y62205D01*
X303008Y62271D01*
X303096Y62333D01*
X303187Y62392D01*
X303280Y62448D01*
X303375Y62501D01*
X303471Y62550D01*
X303570Y62595D01*
X303670Y62637D01*
X303771Y62675D01*
X303874Y62710D01*
X303977Y62741D01*
X304082Y62768D01*
X304188Y62791D01*
X304295Y62810D01*
X304402Y62826D01*
X304510Y62838D01*
X304618Y62846D01*
X304726Y62850D01*
X304834Y62850D01*
X304942Y62846D01*
X305050Y62838D01*
X305158Y62826D01*
X305265Y62810D01*
X305372Y62791D01*
X305478Y62768D01*
X305583Y62741D01*
X305686Y62710D01*
X305789Y62675D01*
X305890Y62637D01*
X305990Y62595D01*
X306089Y62550D01*
X306185Y62501D01*
X306280Y62448D01*
X306373Y62392D01*
X306464Y62333D01*
X306552Y62271D01*
X306638Y62205D01*
X306722Y62136D01*
X306803Y62065D01*
X306882Y61990D01*
X306958Y61913D01*
X307031Y61833D01*
X307101Y61751D01*
X307168Y61666D01*
X307232Y61578D01*
X307293Y61488D01*
X307351Y61397D01*
X307405Y61303D01*
X307455Y61207D01*
X307503Y61110D01*
X307546Y61011D01*
X307587Y60910D01*
X307623Y60808D01*
X307656Y60705D01*
X307685Y60600D01*
X307710Y60495D01*
X307731Y60389D01*
X307749Y60282D01*
X307762Y60174D01*
X307772Y60066D01*
X307778Y59958D01*
X307780Y59850D01*
X388180Y15700D02*
X388180Y9500D01*
X394180Y9500D02*
X394180Y15700D01*
X394178Y15808D01*
X394172Y15916D01*
X394162Y16024D01*
X394149Y16132D01*
X394131Y16239D01*
X394110Y16345D01*
X394085Y16450D01*
X394056Y16555D01*
X394023Y16658D01*
X393987Y16760D01*
X393946Y16861D01*
X393903Y16960D01*
X393855Y17057D01*
X393805Y17153D01*
X393751Y17247D01*
X393693Y17338D01*
X393632Y17428D01*
X393568Y17516D01*
X393501Y17601D01*
X393431Y17683D01*
X393358Y17763D01*
X393282Y17840D01*
X393203Y17915D01*
X393122Y17986D01*
X393038Y18055D01*
X392952Y18121D01*
X392864Y18183D01*
X392773Y18242D01*
X392680Y18298D01*
X392585Y18351D01*
X392489Y18400D01*
X392390Y18445D01*
X392290Y18487D01*
X392189Y18525D01*
X392086Y18560D01*
X391983Y18591D01*
X391878Y18618D01*
X391772Y18641D01*
X391665Y18660D01*
X391558Y18676D01*
X391450Y18688D01*
X391342Y18696D01*
X391234Y18700D01*
X391126Y18700D01*
X391018Y18696D01*
X390910Y18688D01*
X390802Y18676D01*
X390695Y18660D01*
X390588Y18641D01*
X390482Y18618D01*
X390377Y18591D01*
X390274Y18560D01*
X390171Y18525D01*
X390070Y18487D01*
X389970Y18445D01*
X389871Y18400D01*
X389775Y18351D01*
X389680Y18298D01*
X389587Y18242D01*
X389496Y18183D01*
X389408Y18121D01*
X389322Y18055D01*
X389238Y17986D01*
X389157Y17915D01*
X389078Y17840D01*
X389002Y17763D01*
X388929Y17683D01*
X388859Y17601D01*
X388792Y17516D01*
X388728Y17428D01*
X388667Y17338D01*
X388609Y17247D01*
X388555Y17153D01*
X388505Y17057D01*
X388457Y16960D01*
X388414Y16861D01*
X388373Y16760D01*
X388337Y16658D01*
X388304Y16555D01*
X388275Y16450D01*
X388250Y16345D01*
X388229Y16239D01*
X388211Y16132D01*
X388198Y16024D01*
X388188Y15916D01*
X388182Y15808D01*
X388180Y15700D01*
X388180Y9500D02*
X388182Y9392D01*
X388188Y9284D01*
X388198Y9176D01*
X388211Y9068D01*
X388229Y8961D01*
X388250Y8855D01*
X388275Y8750D01*
X388304Y8645D01*
X388337Y8542D01*
X388373Y8440D01*
X388414Y8339D01*
X388457Y8240D01*
X388505Y8143D01*
X388555Y8047D01*
X388609Y7953D01*
X388667Y7862D01*
X388728Y7772D01*
X388792Y7684D01*
X388859Y7599D01*
X388929Y7517D01*
X389002Y7437D01*
X389078Y7360D01*
X389157Y7285D01*
X389238Y7214D01*
X389322Y7145D01*
X389408Y7079D01*
X389496Y7017D01*
X389587Y6958D01*
X389680Y6902D01*
X389775Y6849D01*
X389871Y6800D01*
X389970Y6755D01*
X390070Y6713D01*
X390171Y6675D01*
X390274Y6640D01*
X390377Y6609D01*
X390482Y6582D01*
X390588Y6559D01*
X390695Y6540D01*
X390802Y6524D01*
X390910Y6512D01*
X391018Y6504D01*
X391126Y6500D01*
X391234Y6500D01*
X391342Y6504D01*
X391450Y6512D01*
X391558Y6524D01*
X391665Y6540D01*
X391772Y6559D01*
X391878Y6582D01*
X391983Y6609D01*
X392086Y6640D01*
X392189Y6675D01*
X392290Y6713D01*
X392390Y6755D01*
X392489Y6800D01*
X392585Y6849D01*
X392680Y6902D01*
X392773Y6958D01*
X392864Y7017D01*
X392952Y7079D01*
X393038Y7145D01*
X393122Y7214D01*
X393203Y7285D01*
X393282Y7360D01*
X393358Y7437D01*
X393431Y7517D01*
X393501Y7599D01*
X393568Y7684D01*
X393632Y7772D01*
X393693Y7862D01*
X393751Y7953D01*
X393805Y8047D01*
X393855Y8143D01*
X393903Y8240D01*
X393946Y8339D01*
X393987Y8440D01*
X394023Y8542D01*
X394056Y8645D01*
X394085Y8750D01*
X394110Y8855D01*
X394131Y8961D01*
X394149Y9068D01*
X394162Y9176D01*
X394172Y9284D01*
X394178Y9392D01*
X394180Y9500D01*
X388180Y48850D02*
X388180Y59850D01*
X394180Y59850D02*
X394180Y48850D01*
X394178Y48742D01*
X394172Y48634D01*
X394162Y48526D01*
X394149Y48418D01*
X394131Y48311D01*
X394110Y48205D01*
X394085Y48100D01*
X394056Y47995D01*
X394023Y47892D01*
X393987Y47790D01*
X393946Y47689D01*
X393903Y47590D01*
X393855Y47493D01*
X393805Y47397D01*
X393751Y47303D01*
X393693Y47212D01*
X393632Y47122D01*
X393568Y47034D01*
X393501Y46949D01*
X393431Y46867D01*
X393358Y46787D01*
X393282Y46710D01*
X393203Y46635D01*
X393122Y46564D01*
X393038Y46495D01*
X392952Y46429D01*
X392864Y46367D01*
X392773Y46308D01*
X392680Y46252D01*
X392585Y46199D01*
X392489Y46150D01*
X392390Y46105D01*
X392290Y46063D01*
X392189Y46025D01*
X392086Y45990D01*
X391983Y45959D01*
X391878Y45932D01*
X391772Y45909D01*
X391665Y45890D01*
X391558Y45874D01*
X391450Y45862D01*
X391342Y45854D01*
X391234Y45850D01*
X391126Y45850D01*
X391018Y45854D01*
X390910Y45862D01*
X390802Y45874D01*
X390695Y45890D01*
X390588Y45909D01*
X390482Y45932D01*
X390377Y45959D01*
X390274Y45990D01*
X390171Y46025D01*
X390070Y46063D01*
X389970Y46105D01*
X389871Y46150D01*
X389775Y46199D01*
X389680Y46252D01*
X389587Y46308D01*
X389496Y46367D01*
X389408Y46429D01*
X389322Y46495D01*
X389238Y46564D01*
X389157Y46635D01*
X389078Y46710D01*
X389002Y46787D01*
X388929Y46867D01*
X388859Y46949D01*
X388792Y47034D01*
X388728Y47122D01*
X388667Y47212D01*
X388609Y47303D01*
X388555Y47397D01*
X388505Y47493D01*
X388457Y47590D01*
X388414Y47689D01*
X388373Y47790D01*
X388337Y47892D01*
X388304Y47995D01*
X388275Y48100D01*
X388250Y48205D01*
X388229Y48311D01*
X388211Y48418D01*
X388198Y48526D01*
X388188Y48634D01*
X388182Y48742D01*
X388180Y48850D01*
X388180Y59850D02*
X388182Y59958D01*
X388188Y60066D01*
X388198Y60174D01*
X388211Y60282D01*
X388229Y60389D01*
X388250Y60495D01*
X388275Y60600D01*
X388304Y60705D01*
X388337Y60808D01*
X388373Y60910D01*
X388414Y61011D01*
X388457Y61110D01*
X388505Y61207D01*
X388555Y61303D01*
X388609Y61397D01*
X388667Y61488D01*
X388728Y61578D01*
X388792Y61666D01*
X388859Y61751D01*
X388929Y61833D01*
X389002Y61913D01*
X389078Y61990D01*
X389157Y62065D01*
X389238Y62136D01*
X389322Y62205D01*
X389408Y62271D01*
X389496Y62333D01*
X389587Y62392D01*
X389680Y62448D01*
X389775Y62501D01*
X389871Y62550D01*
X389970Y62595D01*
X390070Y62637D01*
X390171Y62675D01*
X390274Y62710D01*
X390377Y62741D01*
X390482Y62768D01*
X390588Y62791D01*
X390695Y62810D01*
X390802Y62826D01*
X390910Y62838D01*
X391018Y62846D01*
X391126Y62850D01*
X391234Y62850D01*
X391342Y62846D01*
X391450Y62838D01*
X391558Y62826D01*
X391665Y62810D01*
X391772Y62791D01*
X391878Y62768D01*
X391983Y62741D01*
X392086Y62710D01*
X392189Y62675D01*
X392290Y62637D01*
X392390Y62595D01*
X392489Y62550D01*
X392585Y62501D01*
X392680Y62448D01*
X392773Y62392D01*
X392864Y62333D01*
X392952Y62271D01*
X393038Y62205D01*
X393122Y62136D01*
X393203Y62065D01*
X393282Y61990D01*
X393358Y61913D01*
X393431Y61833D01*
X393501Y61751D01*
X393568Y61666D01*
X393632Y61578D01*
X393693Y61488D01*
X393751Y61397D01*
X393805Y61303D01*
X393855Y61207D01*
X393903Y61110D01*
X393946Y61011D01*
X393987Y60910D01*
X394023Y60808D01*
X394056Y60705D01*
X394085Y60600D01*
X394110Y60495D01*
X394131Y60389D01*
X394149Y60282D01*
X394162Y60174D01*
X394172Y60066D01*
X394178Y59958D01*
X394180Y59850D01*
D14*
X476250Y25400D02*
X476255Y25805D01*
X476270Y26210D01*
X476295Y26615D01*
X476330Y27018D01*
X476374Y27421D01*
X476429Y27823D01*
X476493Y28223D01*
X476567Y28621D01*
X476651Y29017D01*
X476745Y29412D01*
X476848Y29803D01*
X476961Y30193D01*
X477083Y30579D01*
X477215Y30962D01*
X477356Y31342D01*
X477507Y31718D01*
X477666Y32091D01*
X477835Y32459D01*
X478013Y32823D01*
X478199Y33183D01*
X478395Y33538D01*
X478599Y33888D01*
X478811Y34233D01*
X479032Y34572D01*
X479262Y34907D01*
X479499Y35235D01*
X479744Y35557D01*
X479998Y35874D01*
X480258Y36184D01*
X480527Y36487D01*
X480803Y36784D01*
X481086Y37074D01*
X481376Y37357D01*
X481673Y37633D01*
X481976Y37902D01*
X482286Y38162D01*
X482603Y38416D01*
X482925Y38661D01*
X483253Y38898D01*
X483588Y39128D01*
X483927Y39349D01*
X484272Y39561D01*
X484622Y39765D01*
X484977Y39961D01*
X485337Y40147D01*
X485701Y40325D01*
X486069Y40494D01*
X486442Y40653D01*
X486818Y40804D01*
X487198Y40945D01*
X487581Y41077D01*
X487967Y41199D01*
X488357Y41312D01*
X488748Y41415D01*
X489143Y41509D01*
X489539Y41593D01*
X489937Y41667D01*
X490337Y41731D01*
X490739Y41786D01*
X491142Y41830D01*
X491545Y41865D01*
X491950Y41890D01*
X492355Y41905D01*
X492760Y41910D01*
X493165Y41905D01*
X493570Y41890D01*
X493975Y41865D01*
X494378Y41830D01*
X494781Y41786D01*
X495183Y41731D01*
X495583Y41667D01*
X495981Y41593D01*
X496377Y41509D01*
X496772Y41415D01*
X497163Y41312D01*
X497553Y41199D01*
X497939Y41077D01*
X498322Y40945D01*
X498702Y40804D01*
X499078Y40653D01*
X499451Y40494D01*
X499819Y40325D01*
X500183Y40147D01*
X500543Y39961D01*
X500898Y39765D01*
X501248Y39561D01*
X501593Y39349D01*
X501932Y39128D01*
X502267Y38898D01*
X502595Y38661D01*
X502917Y38416D01*
X503234Y38162D01*
X503544Y37902D01*
X503847Y37633D01*
X504144Y37357D01*
X504434Y37074D01*
X504717Y36784D01*
X504993Y36487D01*
X505262Y36184D01*
X505522Y35874D01*
X505776Y35557D01*
X506021Y35235D01*
X506258Y34907D01*
X506488Y34572D01*
X506709Y34233D01*
X506921Y33888D01*
X507125Y33538D01*
X507321Y33183D01*
X507507Y32823D01*
X507685Y32459D01*
X507854Y32091D01*
X508013Y31718D01*
X508164Y31342D01*
X508305Y30962D01*
X508437Y30579D01*
X508559Y30193D01*
X508672Y29803D01*
X508775Y29412D01*
X508869Y29017D01*
X508953Y28621D01*
X509027Y28223D01*
X509091Y27823D01*
X509146Y27421D01*
X509190Y27018D01*
X509225Y26615D01*
X509250Y26210D01*
X509265Y25805D01*
X509270Y25400D01*
X509265Y24995D01*
X509250Y24590D01*
X509225Y24185D01*
X509190Y23782D01*
X509146Y23379D01*
X509091Y22977D01*
X509027Y22577D01*
X508953Y22179D01*
X508869Y21783D01*
X508775Y21388D01*
X508672Y20997D01*
X508559Y20607D01*
X508437Y20221D01*
X508305Y19838D01*
X508164Y19458D01*
X508013Y19082D01*
X507854Y18709D01*
X507685Y18341D01*
X507507Y17977D01*
X507321Y17617D01*
X507125Y17262D01*
X506921Y16912D01*
X506709Y16567D01*
X506488Y16228D01*
X506258Y15893D01*
X506021Y15565D01*
X505776Y15243D01*
X505522Y14926D01*
X505262Y14616D01*
X504993Y14313D01*
X504717Y14016D01*
X504434Y13726D01*
X504144Y13443D01*
X503847Y13167D01*
X503544Y12898D01*
X503234Y12638D01*
X502917Y12384D01*
X502595Y12139D01*
X502267Y11902D01*
X501932Y11672D01*
X501593Y11451D01*
X501248Y11239D01*
X500898Y11035D01*
X500543Y10839D01*
X500183Y10653D01*
X499819Y10475D01*
X499451Y10306D01*
X499078Y10147D01*
X498702Y9996D01*
X498322Y9855D01*
X497939Y9723D01*
X497553Y9601D01*
X497163Y9488D01*
X496772Y9385D01*
X496377Y9291D01*
X495981Y9207D01*
X495583Y9133D01*
X495183Y9069D01*
X494781Y9014D01*
X494378Y8970D01*
X493975Y8935D01*
X493570Y8910D01*
X493165Y8895D01*
X492760Y8890D01*
X492355Y8895D01*
X491950Y8910D01*
X491545Y8935D01*
X491142Y8970D01*
X490739Y9014D01*
X490337Y9069D01*
X489937Y9133D01*
X489539Y9207D01*
X489143Y9291D01*
X488748Y9385D01*
X488357Y9488D01*
X487967Y9601D01*
X487581Y9723D01*
X487198Y9855D01*
X486818Y9996D01*
X486442Y10147D01*
X486069Y10306D01*
X485701Y10475D01*
X485337Y10653D01*
X484977Y10839D01*
X484622Y11035D01*
X484272Y11239D01*
X483927Y11451D01*
X483588Y11672D01*
X483253Y11902D01*
X482925Y12139D01*
X482603Y12384D01*
X482286Y12638D01*
X481976Y12898D01*
X481673Y13167D01*
X481376Y13443D01*
X481086Y13726D01*
X480803Y14016D01*
X480527Y14313D01*
X480258Y14616D01*
X479998Y14926D01*
X479744Y15243D01*
X479499Y15565D01*
X479262Y15893D01*
X479032Y16228D01*
X478811Y16567D01*
X478599Y16912D01*
X478395Y17262D01*
X478199Y17617D01*
X478013Y17977D01*
X477835Y18341D01*
X477666Y18709D01*
X477507Y19082D01*
X477356Y19458D01*
X477215Y19838D01*
X477083Y20221D01*
X476961Y20607D01*
X476848Y20997D01*
X476745Y21388D01*
X476651Y21783D01*
X476567Y22179D01*
X476493Y22577D01*
X476429Y22977D01*
X476374Y23379D01*
X476330Y23782D01*
X476295Y24185D01*
X476270Y24590D01*
X476255Y24995D01*
X476250Y25400D01*
X654050Y25400D02*
X654055Y25805D01*
X654070Y26210D01*
X654095Y26615D01*
X654130Y27018D01*
X654174Y27421D01*
X654229Y27823D01*
X654293Y28223D01*
X654367Y28621D01*
X654451Y29017D01*
X654545Y29412D01*
X654648Y29803D01*
X654761Y30193D01*
X654883Y30579D01*
X655015Y30962D01*
X655156Y31342D01*
X655307Y31718D01*
X655466Y32091D01*
X655635Y32459D01*
X655813Y32823D01*
X655999Y33183D01*
X656195Y33538D01*
X656399Y33888D01*
X656611Y34233D01*
X656832Y34572D01*
X657062Y34907D01*
X657299Y35235D01*
X657544Y35557D01*
X657798Y35874D01*
X658058Y36184D01*
X658327Y36487D01*
X658603Y36784D01*
X658886Y37074D01*
X659176Y37357D01*
X659473Y37633D01*
X659776Y37902D01*
X660086Y38162D01*
X660403Y38416D01*
X660725Y38661D01*
X661053Y38898D01*
X661388Y39128D01*
X661727Y39349D01*
X662072Y39561D01*
X662422Y39765D01*
X662777Y39961D01*
X663137Y40147D01*
X663501Y40325D01*
X663869Y40494D01*
X664242Y40653D01*
X664618Y40804D01*
X664998Y40945D01*
X665381Y41077D01*
X665767Y41199D01*
X666157Y41312D01*
X666548Y41415D01*
X666943Y41509D01*
X667339Y41593D01*
X667737Y41667D01*
X668137Y41731D01*
X668539Y41786D01*
X668942Y41830D01*
X669345Y41865D01*
X669750Y41890D01*
X670155Y41905D01*
X670560Y41910D01*
X670965Y41905D01*
X671370Y41890D01*
X671775Y41865D01*
X672178Y41830D01*
X672581Y41786D01*
X672983Y41731D01*
X673383Y41667D01*
X673781Y41593D01*
X674177Y41509D01*
X674572Y41415D01*
X674963Y41312D01*
X675353Y41199D01*
X675739Y41077D01*
X676122Y40945D01*
X676502Y40804D01*
X676878Y40653D01*
X677251Y40494D01*
X677619Y40325D01*
X677983Y40147D01*
X678343Y39961D01*
X678698Y39765D01*
X679048Y39561D01*
X679393Y39349D01*
X679732Y39128D01*
X680067Y38898D01*
X680395Y38661D01*
X680717Y38416D01*
X681034Y38162D01*
X681344Y37902D01*
X681647Y37633D01*
X681944Y37357D01*
X682234Y37074D01*
X682517Y36784D01*
X682793Y36487D01*
X683062Y36184D01*
X683322Y35874D01*
X683576Y35557D01*
X683821Y35235D01*
X684058Y34907D01*
X684288Y34572D01*
X684509Y34233D01*
X684721Y33888D01*
X684925Y33538D01*
X685121Y33183D01*
X685307Y32823D01*
X685485Y32459D01*
X685654Y32091D01*
X685813Y31718D01*
X685964Y31342D01*
X686105Y30962D01*
X686237Y30579D01*
X686359Y30193D01*
X686472Y29803D01*
X686575Y29412D01*
X686669Y29017D01*
X686753Y28621D01*
X686827Y28223D01*
X686891Y27823D01*
X686946Y27421D01*
X686990Y27018D01*
X687025Y26615D01*
X687050Y26210D01*
X687065Y25805D01*
X687070Y25400D01*
X687065Y24995D01*
X687050Y24590D01*
X687025Y24185D01*
X686990Y23782D01*
X686946Y23379D01*
X686891Y22977D01*
X686827Y22577D01*
X686753Y22179D01*
X686669Y21783D01*
X686575Y21388D01*
X686472Y20997D01*
X686359Y20607D01*
X686237Y20221D01*
X686105Y19838D01*
X685964Y19458D01*
X685813Y19082D01*
X685654Y18709D01*
X685485Y18341D01*
X685307Y17977D01*
X685121Y17617D01*
X684925Y17262D01*
X684721Y16912D01*
X684509Y16567D01*
X684288Y16228D01*
X684058Y15893D01*
X683821Y15565D01*
X683576Y15243D01*
X683322Y14926D01*
X683062Y14616D01*
X682793Y14313D01*
X682517Y14016D01*
X682234Y13726D01*
X681944Y13443D01*
X681647Y13167D01*
X681344Y12898D01*
X681034Y12638D01*
X680717Y12384D01*
X680395Y12139D01*
X680067Y11902D01*
X679732Y11672D01*
X679393Y11451D01*
X679048Y11239D01*
X678698Y11035D01*
X678343Y10839D01*
X677983Y10653D01*
X677619Y10475D01*
X677251Y10306D01*
X676878Y10147D01*
X676502Y9996D01*
X676122Y9855D01*
X675739Y9723D01*
X675353Y9601D01*
X674963Y9488D01*
X674572Y9385D01*
X674177Y9291D01*
X673781Y9207D01*
X673383Y9133D01*
X672983Y9069D01*
X672581Y9014D01*
X672178Y8970D01*
X671775Y8935D01*
X671370Y8910D01*
X670965Y8895D01*
X670560Y8890D01*
X670155Y8895D01*
X669750Y8910D01*
X669345Y8935D01*
X668942Y8970D01*
X668539Y9014D01*
X668137Y9069D01*
X667737Y9133D01*
X667339Y9207D01*
X666943Y9291D01*
X666548Y9385D01*
X666157Y9488D01*
X665767Y9601D01*
X665381Y9723D01*
X664998Y9855D01*
X664618Y9996D01*
X664242Y10147D01*
X663869Y10306D01*
X663501Y10475D01*
X663137Y10653D01*
X662777Y10839D01*
X662422Y11035D01*
X662072Y11239D01*
X661727Y11451D01*
X661388Y11672D01*
X661053Y11902D01*
X660725Y12139D01*
X660403Y12384D01*
X660086Y12638D01*
X659776Y12898D01*
X659473Y13167D01*
X659176Y13443D01*
X658886Y13726D01*
X658603Y14016D01*
X658327Y14313D01*
X658058Y14616D01*
X657798Y14926D01*
X657544Y15243D01*
X657299Y15565D01*
X657062Y15893D01*
X656832Y16228D01*
X656611Y16567D01*
X656399Y16912D01*
X656195Y17262D01*
X655999Y17617D01*
X655813Y17977D01*
X655635Y18341D01*
X655466Y18709D01*
X655307Y19082D01*
X655156Y19458D01*
X655015Y19838D01*
X654883Y20221D01*
X654761Y20607D01*
X654648Y20997D01*
X654545Y21388D01*
X654451Y21783D01*
X654367Y22179D01*
X654293Y22577D01*
X654229Y22977D01*
X654174Y23379D01*
X654130Y23782D01*
X654095Y24185D01*
X654070Y24590D01*
X654055Y24995D01*
X654050Y25400D01*
X549510Y49050D02*
X549512Y49163D01*
X549518Y49277D01*
X549528Y49390D01*
X549542Y49502D01*
X549559Y49614D01*
X549581Y49726D01*
X549607Y49836D01*
X549636Y49946D01*
X549669Y50054D01*
X549706Y50162D01*
X549747Y50267D01*
X549791Y50372D01*
X549839Y50475D01*
X549890Y50576D01*
X549945Y50675D01*
X550004Y50772D01*
X550066Y50867D01*
X550131Y50960D01*
X550199Y51051D01*
X550270Y51139D01*
X550345Y51225D01*
X550422Y51308D01*
X550502Y51388D01*
X550585Y51465D01*
X550671Y51540D01*
X550759Y51611D01*
X550850Y51679D01*
X550943Y51744D01*
X551038Y51806D01*
X551135Y51865D01*
X551234Y51920D01*
X551335Y51971D01*
X551438Y52019D01*
X551543Y52063D01*
X551648Y52104D01*
X551756Y52141D01*
X551864Y52174D01*
X551974Y52203D01*
X552084Y52229D01*
X552196Y52251D01*
X552308Y52268D01*
X552420Y52282D01*
X552533Y52292D01*
X552647Y52298D01*
X552760Y52300D01*
X552873Y52298D01*
X552987Y52292D01*
X553100Y52282D01*
X553212Y52268D01*
X553324Y52251D01*
X553436Y52229D01*
X553546Y52203D01*
X553656Y52174D01*
X553764Y52141D01*
X553872Y52104D01*
X553977Y52063D01*
X554082Y52019D01*
X554185Y51971D01*
X554286Y51920D01*
X554385Y51865D01*
X554482Y51806D01*
X554577Y51744D01*
X554670Y51679D01*
X554761Y51611D01*
X554849Y51540D01*
X554935Y51465D01*
X555018Y51388D01*
X555098Y51308D01*
X555175Y51225D01*
X555250Y51139D01*
X555321Y51051D01*
X555389Y50960D01*
X555454Y50867D01*
X555516Y50772D01*
X555575Y50675D01*
X555630Y50576D01*
X555681Y50475D01*
X555729Y50372D01*
X555773Y50267D01*
X555814Y50162D01*
X555851Y50054D01*
X555884Y49946D01*
X555913Y49836D01*
X555939Y49726D01*
X555961Y49614D01*
X555978Y49502D01*
X555992Y49390D01*
X556002Y49277D01*
X556008Y49163D01*
X556010Y49050D01*
X556008Y48937D01*
X556002Y48823D01*
X555992Y48710D01*
X555978Y48598D01*
X555961Y48486D01*
X555939Y48374D01*
X555913Y48264D01*
X555884Y48154D01*
X555851Y48046D01*
X555814Y47938D01*
X555773Y47833D01*
X555729Y47728D01*
X555681Y47625D01*
X555630Y47524D01*
X555575Y47425D01*
X555516Y47328D01*
X555454Y47233D01*
X555389Y47140D01*
X555321Y47049D01*
X555250Y46961D01*
X555175Y46875D01*
X555098Y46792D01*
X555018Y46712D01*
X554935Y46635D01*
X554849Y46560D01*
X554761Y46489D01*
X554670Y46421D01*
X554577Y46356D01*
X554482Y46294D01*
X554385Y46235D01*
X554286Y46180D01*
X554185Y46129D01*
X554082Y46081D01*
X553977Y46037D01*
X553872Y45996D01*
X553764Y45959D01*
X553656Y45926D01*
X553546Y45897D01*
X553436Y45871D01*
X553324Y45849D01*
X553212Y45832D01*
X553100Y45818D01*
X552987Y45808D01*
X552873Y45802D01*
X552760Y45800D01*
X552647Y45802D01*
X552533Y45808D01*
X552420Y45818D01*
X552308Y45832D01*
X552196Y45849D01*
X552084Y45871D01*
X551974Y45897D01*
X551864Y45926D01*
X551756Y45959D01*
X551648Y45996D01*
X551543Y46037D01*
X551438Y46081D01*
X551335Y46129D01*
X551234Y46180D01*
X551135Y46235D01*
X551038Y46294D01*
X550943Y46356D01*
X550850Y46421D01*
X550759Y46489D01*
X550671Y46560D01*
X550585Y46635D01*
X550502Y46712D01*
X550422Y46792D01*
X550345Y46875D01*
X550270Y46961D01*
X550199Y47049D01*
X550131Y47140D01*
X550066Y47233D01*
X550004Y47328D01*
X549945Y47425D01*
X549890Y47524D01*
X549839Y47625D01*
X549791Y47728D01*
X549747Y47833D01*
X549706Y47938D01*
X549669Y48046D01*
X549636Y48154D01*
X549607Y48264D01*
X549581Y48374D01*
X549559Y48486D01*
X549542Y48598D01*
X549528Y48710D01*
X549518Y48823D01*
X549512Y48937D01*
X549510Y49050D01*
X607310Y49050D02*
X607312Y49163D01*
X607318Y49277D01*
X607328Y49390D01*
X607342Y49502D01*
X607359Y49614D01*
X607381Y49726D01*
X607407Y49836D01*
X607436Y49946D01*
X607469Y50054D01*
X607506Y50162D01*
X607547Y50267D01*
X607591Y50372D01*
X607639Y50475D01*
X607690Y50576D01*
X607745Y50675D01*
X607804Y50772D01*
X607866Y50867D01*
X607931Y50960D01*
X607999Y51051D01*
X608070Y51139D01*
X608145Y51225D01*
X608222Y51308D01*
X608302Y51388D01*
X608385Y51465D01*
X608471Y51540D01*
X608559Y51611D01*
X608650Y51679D01*
X608743Y51744D01*
X608838Y51806D01*
X608935Y51865D01*
X609034Y51920D01*
X609135Y51971D01*
X609238Y52019D01*
X609343Y52063D01*
X609448Y52104D01*
X609556Y52141D01*
X609664Y52174D01*
X609774Y52203D01*
X609884Y52229D01*
X609996Y52251D01*
X610108Y52268D01*
X610220Y52282D01*
X610333Y52292D01*
X610447Y52298D01*
X610560Y52300D01*
X610673Y52298D01*
X610787Y52292D01*
X610900Y52282D01*
X611012Y52268D01*
X611124Y52251D01*
X611236Y52229D01*
X611346Y52203D01*
X611456Y52174D01*
X611564Y52141D01*
X611672Y52104D01*
X611777Y52063D01*
X611882Y52019D01*
X611985Y51971D01*
X612086Y51920D01*
X612185Y51865D01*
X612282Y51806D01*
X612377Y51744D01*
X612470Y51679D01*
X612561Y51611D01*
X612649Y51540D01*
X612735Y51465D01*
X612818Y51388D01*
X612898Y51308D01*
X612975Y51225D01*
X613050Y51139D01*
X613121Y51051D01*
X613189Y50960D01*
X613254Y50867D01*
X613316Y50772D01*
X613375Y50675D01*
X613430Y50576D01*
X613481Y50475D01*
X613529Y50372D01*
X613573Y50267D01*
X613614Y50162D01*
X613651Y50054D01*
X613684Y49946D01*
X613713Y49836D01*
X613739Y49726D01*
X613761Y49614D01*
X613778Y49502D01*
X613792Y49390D01*
X613802Y49277D01*
X613808Y49163D01*
X613810Y49050D01*
X613808Y48937D01*
X613802Y48823D01*
X613792Y48710D01*
X613778Y48598D01*
X613761Y48486D01*
X613739Y48374D01*
X613713Y48264D01*
X613684Y48154D01*
X613651Y48046D01*
X613614Y47938D01*
X613573Y47833D01*
X613529Y47728D01*
X613481Y47625D01*
X613430Y47524D01*
X613375Y47425D01*
X613316Y47328D01*
X613254Y47233D01*
X613189Y47140D01*
X613121Y47049D01*
X613050Y46961D01*
X612975Y46875D01*
X612898Y46792D01*
X612818Y46712D01*
X612735Y46635D01*
X612649Y46560D01*
X612561Y46489D01*
X612470Y46421D01*
X612377Y46356D01*
X612282Y46294D01*
X612185Y46235D01*
X612086Y46180D01*
X611985Y46129D01*
X611882Y46081D01*
X611777Y46037D01*
X611672Y45996D01*
X611564Y45959D01*
X611456Y45926D01*
X611346Y45897D01*
X611236Y45871D01*
X611124Y45849D01*
X611012Y45832D01*
X610900Y45818D01*
X610787Y45808D01*
X610673Y45802D01*
X610560Y45800D01*
X610447Y45802D01*
X610333Y45808D01*
X610220Y45818D01*
X610108Y45832D01*
X609996Y45849D01*
X609884Y45871D01*
X609774Y45897D01*
X609664Y45926D01*
X609556Y45959D01*
X609448Y45996D01*
X609343Y46037D01*
X609238Y46081D01*
X609135Y46129D01*
X609034Y46180D01*
X608935Y46235D01*
X608838Y46294D01*
X608743Y46356D01*
X608650Y46421D01*
X608559Y46489D01*
X608471Y46560D01*
X608385Y46635D01*
X608302Y46712D01*
X608222Y46792D01*
X608145Y46875D01*
X608070Y46961D01*
X607999Y47049D01*
X607931Y47140D01*
X607866Y47233D01*
X607804Y47328D01*
X607745Y47425D01*
X607690Y47524D01*
X607639Y47625D01*
X607591Y47728D01*
X607547Y47833D01*
X607506Y47938D01*
X607469Y48046D01*
X607436Y48154D01*
X607407Y48264D01*
X607381Y48374D01*
X607359Y48486D01*
X607342Y48598D01*
X607328Y48710D01*
X607318Y48823D01*
X607312Y48937D01*
X607310Y49050D01*
D15*
X535460Y15700D02*
X535460Y9500D01*
X541460Y9500D02*
X541460Y15700D01*
X541458Y15808D01*
X541452Y15916D01*
X541442Y16024D01*
X541429Y16132D01*
X541411Y16239D01*
X541390Y16345D01*
X541365Y16450D01*
X541336Y16555D01*
X541303Y16658D01*
X541267Y16760D01*
X541226Y16861D01*
X541183Y16960D01*
X541135Y17057D01*
X541085Y17153D01*
X541031Y17247D01*
X540973Y17338D01*
X540912Y17428D01*
X540848Y17516D01*
X540781Y17601D01*
X540711Y17683D01*
X540638Y17763D01*
X540562Y17840D01*
X540483Y17915D01*
X540402Y17986D01*
X540318Y18055D01*
X540232Y18121D01*
X540144Y18183D01*
X540053Y18242D01*
X539960Y18298D01*
X539865Y18351D01*
X539769Y18400D01*
X539670Y18445D01*
X539570Y18487D01*
X539469Y18525D01*
X539366Y18560D01*
X539263Y18591D01*
X539158Y18618D01*
X539052Y18641D01*
X538945Y18660D01*
X538838Y18676D01*
X538730Y18688D01*
X538622Y18696D01*
X538514Y18700D01*
X538406Y18700D01*
X538298Y18696D01*
X538190Y18688D01*
X538082Y18676D01*
X537975Y18660D01*
X537868Y18641D01*
X537762Y18618D01*
X537657Y18591D01*
X537554Y18560D01*
X537451Y18525D01*
X537350Y18487D01*
X537250Y18445D01*
X537151Y18400D01*
X537055Y18351D01*
X536960Y18298D01*
X536867Y18242D01*
X536776Y18183D01*
X536688Y18121D01*
X536602Y18055D01*
X536518Y17986D01*
X536437Y17915D01*
X536358Y17840D01*
X536282Y17763D01*
X536209Y17683D01*
X536139Y17601D01*
X536072Y17516D01*
X536008Y17428D01*
X535947Y17338D01*
X535889Y17247D01*
X535835Y17153D01*
X535785Y17057D01*
X535737Y16960D01*
X535694Y16861D01*
X535653Y16760D01*
X535617Y16658D01*
X535584Y16555D01*
X535555Y16450D01*
X535530Y16345D01*
X535509Y16239D01*
X535491Y16132D01*
X535478Y16024D01*
X535468Y15916D01*
X535462Y15808D01*
X535460Y15700D01*
X535460Y9500D02*
X535462Y9392D01*
X535468Y9284D01*
X535478Y9176D01*
X535491Y9068D01*
X535509Y8961D01*
X535530Y8855D01*
X535555Y8750D01*
X535584Y8645D01*
X535617Y8542D01*
X535653Y8440D01*
X535694Y8339D01*
X535737Y8240D01*
X535785Y8143D01*
X535835Y8047D01*
X535889Y7953D01*
X535947Y7862D01*
X536008Y7772D01*
X536072Y7684D01*
X536139Y7599D01*
X536209Y7517D01*
X536282Y7437D01*
X536358Y7360D01*
X536437Y7285D01*
X536518Y7214D01*
X536602Y7145D01*
X536688Y7079D01*
X536776Y7017D01*
X536867Y6958D01*
X536960Y6902D01*
X537055Y6849D01*
X537151Y6800D01*
X537250Y6755D01*
X537350Y6713D01*
X537451Y6675D01*
X537554Y6640D01*
X537657Y6609D01*
X537762Y6582D01*
X537868Y6559D01*
X537975Y6540D01*
X538082Y6524D01*
X538190Y6512D01*
X538298Y6504D01*
X538406Y6500D01*
X538514Y6500D01*
X538622Y6504D01*
X538730Y6512D01*
X538838Y6524D01*
X538945Y6540D01*
X539052Y6559D01*
X539158Y6582D01*
X539263Y6609D01*
X539366Y6640D01*
X539469Y6675D01*
X539570Y6713D01*
X539670Y6755D01*
X539769Y6800D01*
X539865Y6849D01*
X539960Y6902D01*
X540053Y6958D01*
X540144Y7017D01*
X540232Y7079D01*
X540318Y7145D01*
X540402Y7214D01*
X540483Y7285D01*
X540562Y7360D01*
X540638Y7437D01*
X540711Y7517D01*
X540781Y7599D01*
X540848Y7684D01*
X540912Y7772D01*
X540973Y7862D01*
X541031Y7953D01*
X541085Y8047D01*
X541135Y8143D01*
X541183Y8240D01*
X541226Y8339D01*
X541267Y8440D01*
X541303Y8542D01*
X541336Y8645D01*
X541365Y8750D01*
X541390Y8855D01*
X541411Y8961D01*
X541429Y9068D01*
X541442Y9176D01*
X541452Y9284D01*
X541458Y9392D01*
X541460Y9500D01*
X535460Y48850D02*
X535460Y59850D01*
X541460Y59850D02*
X541460Y48850D01*
X541458Y48742D01*
X541452Y48634D01*
X541442Y48526D01*
X541429Y48418D01*
X541411Y48311D01*
X541390Y48205D01*
X541365Y48100D01*
X541336Y47995D01*
X541303Y47892D01*
X541267Y47790D01*
X541226Y47689D01*
X541183Y47590D01*
X541135Y47493D01*
X541085Y47397D01*
X541031Y47303D01*
X540973Y47212D01*
X540912Y47122D01*
X540848Y47034D01*
X540781Y46949D01*
X540711Y46867D01*
X540638Y46787D01*
X540562Y46710D01*
X540483Y46635D01*
X540402Y46564D01*
X540318Y46495D01*
X540232Y46429D01*
X540144Y46367D01*
X540053Y46308D01*
X539960Y46252D01*
X539865Y46199D01*
X539769Y46150D01*
X539670Y46105D01*
X539570Y46063D01*
X539469Y46025D01*
X539366Y45990D01*
X539263Y45959D01*
X539158Y45932D01*
X539052Y45909D01*
X538945Y45890D01*
X538838Y45874D01*
X538730Y45862D01*
X538622Y45854D01*
X538514Y45850D01*
X538406Y45850D01*
X538298Y45854D01*
X538190Y45862D01*
X538082Y45874D01*
X537975Y45890D01*
X537868Y45909D01*
X537762Y45932D01*
X537657Y45959D01*
X537554Y45990D01*
X537451Y46025D01*
X537350Y46063D01*
X537250Y46105D01*
X537151Y46150D01*
X537055Y46199D01*
X536960Y46252D01*
X536867Y46308D01*
X536776Y46367D01*
X536688Y46429D01*
X536602Y46495D01*
X536518Y46564D01*
X536437Y46635D01*
X536358Y46710D01*
X536282Y46787D01*
X536209Y46867D01*
X536139Y46949D01*
X536072Y47034D01*
X536008Y47122D01*
X535947Y47212D01*
X535889Y47303D01*
X535835Y47397D01*
X535785Y47493D01*
X535737Y47590D01*
X535694Y47689D01*
X535653Y47790D01*
X535617Y47892D01*
X535584Y47995D01*
X535555Y48100D01*
X535530Y48205D01*
X535509Y48311D01*
X535491Y48418D01*
X535478Y48526D01*
X535468Y48634D01*
X535462Y48742D01*
X535460Y48850D01*
X535460Y59850D02*
X535462Y59958D01*
X535468Y60066D01*
X535478Y60174D01*
X535491Y60282D01*
X535509Y60389D01*
X535530Y60495D01*
X535555Y60600D01*
X535584Y60705D01*
X535617Y60808D01*
X535653Y60910D01*
X535694Y61011D01*
X535737Y61110D01*
X535785Y61207D01*
X535835Y61303D01*
X535889Y61397D01*
X535947Y61488D01*
X536008Y61578D01*
X536072Y61666D01*
X536139Y61751D01*
X536209Y61833D01*
X536282Y61913D01*
X536358Y61990D01*
X536437Y62065D01*
X536518Y62136D01*
X536602Y62205D01*
X536688Y62271D01*
X536776Y62333D01*
X536867Y62392D01*
X536960Y62448D01*
X537055Y62501D01*
X537151Y62550D01*
X537250Y62595D01*
X537350Y62637D01*
X537451Y62675D01*
X537554Y62710D01*
X537657Y62741D01*
X537762Y62768D01*
X537868Y62791D01*
X537975Y62810D01*
X538082Y62826D01*
X538190Y62838D01*
X538298Y62846D01*
X538406Y62850D01*
X538514Y62850D01*
X538622Y62846D01*
X538730Y62838D01*
X538838Y62826D01*
X538945Y62810D01*
X539052Y62791D01*
X539158Y62768D01*
X539263Y62741D01*
X539366Y62710D01*
X539469Y62675D01*
X539570Y62637D01*
X539670Y62595D01*
X539769Y62550D01*
X539865Y62501D01*
X539960Y62448D01*
X540053Y62392D01*
X540144Y62333D01*
X540232Y62271D01*
X540318Y62205D01*
X540402Y62136D01*
X540483Y62065D01*
X540562Y61990D01*
X540638Y61913D01*
X540711Y61833D01*
X540781Y61751D01*
X540848Y61666D01*
X540912Y61578D01*
X540973Y61488D01*
X541031Y61397D01*
X541085Y61303D01*
X541135Y61207D01*
X541183Y61110D01*
X541226Y61011D01*
X541267Y60910D01*
X541303Y60808D01*
X541336Y60705D01*
X541365Y60600D01*
X541390Y60495D01*
X541411Y60389D01*
X541429Y60282D01*
X541442Y60174D01*
X541452Y60066D01*
X541458Y59958D01*
X541460Y59850D01*
X621860Y15700D02*
X621860Y9500D01*
X627860Y9500D02*
X627860Y15700D01*
X627858Y15808D01*
X627852Y15916D01*
X627842Y16024D01*
X627829Y16132D01*
X627811Y16239D01*
X627790Y16345D01*
X627765Y16450D01*
X627736Y16555D01*
X627703Y16658D01*
X627667Y16760D01*
X627626Y16861D01*
X627583Y16960D01*
X627535Y17057D01*
X627485Y17153D01*
X627431Y17247D01*
X627373Y17338D01*
X627312Y17428D01*
X627248Y17516D01*
X627181Y17601D01*
X627111Y17683D01*
X627038Y17763D01*
X626962Y17840D01*
X626883Y17915D01*
X626802Y17986D01*
X626718Y18055D01*
X626632Y18121D01*
X626544Y18183D01*
X626453Y18242D01*
X626360Y18298D01*
X626265Y18351D01*
X626169Y18400D01*
X626070Y18445D01*
X625970Y18487D01*
X625869Y18525D01*
X625766Y18560D01*
X625663Y18591D01*
X625558Y18618D01*
X625452Y18641D01*
X625345Y18660D01*
X625238Y18676D01*
X625130Y18688D01*
X625022Y18696D01*
X624914Y18700D01*
X624806Y18700D01*
X624698Y18696D01*
X624590Y18688D01*
X624482Y18676D01*
X624375Y18660D01*
X624268Y18641D01*
X624162Y18618D01*
X624057Y18591D01*
X623954Y18560D01*
X623851Y18525D01*
X623750Y18487D01*
X623650Y18445D01*
X623551Y18400D01*
X623455Y18351D01*
X623360Y18298D01*
X623267Y18242D01*
X623176Y18183D01*
X623088Y18121D01*
X623002Y18055D01*
X622918Y17986D01*
X622837Y17915D01*
X622758Y17840D01*
X622682Y17763D01*
X622609Y17683D01*
X622539Y17601D01*
X622472Y17516D01*
X622408Y17428D01*
X622347Y17338D01*
X622289Y17247D01*
X622235Y17153D01*
X622185Y17057D01*
X622137Y16960D01*
X622094Y16861D01*
X622053Y16760D01*
X622017Y16658D01*
X621984Y16555D01*
X621955Y16450D01*
X621930Y16345D01*
X621909Y16239D01*
X621891Y16132D01*
X621878Y16024D01*
X621868Y15916D01*
X621862Y15808D01*
X621860Y15700D01*
X621860Y9500D02*
X621862Y9392D01*
X621868Y9284D01*
X621878Y9176D01*
X621891Y9068D01*
X621909Y8961D01*
X621930Y8855D01*
X621955Y8750D01*
X621984Y8645D01*
X622017Y8542D01*
X622053Y8440D01*
X622094Y8339D01*
X622137Y8240D01*
X622185Y8143D01*
X622235Y8047D01*
X622289Y7953D01*
X622347Y7862D01*
X622408Y7772D01*
X622472Y7684D01*
X622539Y7599D01*
X622609Y7517D01*
X622682Y7437D01*
X622758Y7360D01*
X622837Y7285D01*
X622918Y7214D01*
X623002Y7145D01*
X623088Y7079D01*
X623176Y7017D01*
X623267Y6958D01*
X623360Y6902D01*
X623455Y6849D01*
X623551Y6800D01*
X623650Y6755D01*
X623750Y6713D01*
X623851Y6675D01*
X623954Y6640D01*
X624057Y6609D01*
X624162Y6582D01*
X624268Y6559D01*
X624375Y6540D01*
X624482Y6524D01*
X624590Y6512D01*
X624698Y6504D01*
X624806Y6500D01*
X624914Y6500D01*
X625022Y6504D01*
X625130Y6512D01*
X625238Y6524D01*
X625345Y6540D01*
X625452Y6559D01*
X625558Y6582D01*
X625663Y6609D01*
X625766Y6640D01*
X625869Y6675D01*
X625970Y6713D01*
X626070Y6755D01*
X626169Y6800D01*
X626265Y6849D01*
X626360Y6902D01*
X626453Y6958D01*
X626544Y7017D01*
X626632Y7079D01*
X626718Y7145D01*
X626802Y7214D01*
X626883Y7285D01*
X626962Y7360D01*
X627038Y7437D01*
X627111Y7517D01*
X627181Y7599D01*
X627248Y7684D01*
X627312Y7772D01*
X627373Y7862D01*
X627431Y7953D01*
X627485Y8047D01*
X627535Y8143D01*
X627583Y8240D01*
X627626Y8339D01*
X627667Y8440D01*
X627703Y8542D01*
X627736Y8645D01*
X627765Y8750D01*
X627790Y8855D01*
X627811Y8961D01*
X627829Y9068D01*
X627842Y9176D01*
X627852Y9284D01*
X627858Y9392D01*
X627860Y9500D01*
X621860Y48850D02*
X621860Y59850D01*
X627860Y59850D02*
X627860Y48850D01*
X627858Y48742D01*
X627852Y48634D01*
X627842Y48526D01*
X627829Y48418D01*
X627811Y48311D01*
X627790Y48205D01*
X627765Y48100D01*
X627736Y47995D01*
X627703Y47892D01*
X627667Y47790D01*
X627626Y47689D01*
X627583Y47590D01*
X627535Y47493D01*
X627485Y47397D01*
X627431Y47303D01*
X627373Y47212D01*
X627312Y47122D01*
X627248Y47034D01*
X627181Y46949D01*
X627111Y46867D01*
X627038Y46787D01*
X626962Y46710D01*
X626883Y46635D01*
X626802Y46564D01*
X626718Y46495D01*
X626632Y46429D01*
X626544Y46367D01*
X626453Y46308D01*
X626360Y46252D01*
X626265Y46199D01*
X626169Y46150D01*
X626070Y46105D01*
X625970Y46063D01*
X625869Y46025D01*
X625766Y45990D01*
X625663Y45959D01*
X625558Y45932D01*
X625452Y45909D01*
X625345Y45890D01*
X625238Y45874D01*
X625130Y45862D01*
X625022Y45854D01*
X624914Y45850D01*
X624806Y45850D01*
X624698Y45854D01*
X624590Y45862D01*
X624482Y45874D01*
X624375Y45890D01*
X624268Y45909D01*
X624162Y45932D01*
X624057Y45959D01*
X623954Y45990D01*
X623851Y46025D01*
X623750Y46063D01*
X623650Y46105D01*
X623551Y46150D01*
X623455Y46199D01*
X623360Y46252D01*
X623267Y46308D01*
X623176Y46367D01*
X623088Y46429D01*
X623002Y46495D01*
X622918Y46564D01*
X622837Y46635D01*
X622758Y46710D01*
X622682Y46787D01*
X622609Y46867D01*
X622539Y46949D01*
X622472Y47034D01*
X622408Y47122D01*
X622347Y47212D01*
X622289Y47303D01*
X622235Y47397D01*
X622185Y47493D01*
X622137Y47590D01*
X622094Y47689D01*
X622053Y47790D01*
X622017Y47892D01*
X621984Y47995D01*
X621955Y48100D01*
X621930Y48205D01*
X621909Y48311D01*
X621891Y48418D01*
X621878Y48526D01*
X621868Y48634D01*
X621862Y48742D01*
X621860Y48850D01*
X621860Y59850D02*
X621862Y59958D01*
X621868Y60066D01*
X621878Y60174D01*
X621891Y60282D01*
X621909Y60389D01*
X621930Y60495D01*
X621955Y60600D01*
X621984Y60705D01*
X622017Y60808D01*
X622053Y60910D01*
X622094Y61011D01*
X622137Y61110D01*
X622185Y61207D01*
X622235Y61303D01*
X622289Y61397D01*
X622347Y61488D01*
X622408Y61578D01*
X622472Y61666D01*
X622539Y61751D01*
X622609Y61833D01*
X622682Y61913D01*
X622758Y61990D01*
X622837Y62065D01*
X622918Y62136D01*
X623002Y62205D01*
X623088Y62271D01*
X623176Y62333D01*
X623267Y62392D01*
X623360Y62448D01*
X623455Y62501D01*
X623551Y62550D01*
X623650Y62595D01*
X623750Y62637D01*
X623851Y62675D01*
X623954Y62710D01*
X624057Y62741D01*
X624162Y62768D01*
X624268Y62791D01*
X624375Y62810D01*
X624482Y62826D01*
X624590Y62838D01*
X624698Y62846D01*
X624806Y62850D01*
X624914Y62850D01*
X625022Y62846D01*
X625130Y62838D01*
X625238Y62826D01*
X625345Y62810D01*
X625452Y62791D01*
X625558Y62768D01*
X625663Y62741D01*
X625766Y62710D01*
X625869Y62675D01*
X625970Y62637D01*
X626070Y62595D01*
X626169Y62550D01*
X626265Y62501D01*
X626360Y62448D01*
X626453Y62392D01*
X626544Y62333D01*
X626632Y62271D01*
X626718Y62205D01*
X626802Y62136D01*
X626883Y62065D01*
X626962Y61990D01*
X627038Y61913D01*
X627111Y61833D01*
X627181Y61751D01*
X627248Y61666D01*
X627312Y61578D01*
X627373Y61488D01*
X627431Y61397D01*
X627485Y61303D01*
X627535Y61207D01*
X627583Y61110D01*
X627626Y61011D01*
X627667Y60910D01*
X627703Y60808D01*
X627736Y60705D01*
X627765Y60600D01*
X627790Y60495D01*
X627811Y60389D01*
X627829Y60282D01*
X627842Y60174D01*
X627852Y60066D01*
X627858Y59958D01*
X627860Y59850D01*
M02*
