G04 EAGLE Gerber RS-274X export*
G75*
%MOMM*%
%FSLAX34Y34*%
%LPD*%
%INSoldermask Top*%
%IPPOS*%
%AMOC8*
5,1,8,0,0,1.08239X$1,22.5*%
G01*
%ADD10C,2.006600*%
%ADD11C,0.727000*%
%ADD12C,1.127000*%
%ADD13C,3.429000*%
%ADD14C,0.230578*%
%ADD15C,0.225369*%
%ADD16C,0.777000*%
%ADD17C,0.225400*%
%ADD18C,0.224509*%
%ADD19C,0.223409*%
%ADD20C,0.231750*%
%ADD21C,0.227100*%
%ADD22C,0.428259*%
%ADD23R,0.840000X0.440000*%
%ADD24R,0.940000X1.520000*%
%ADD25C,0.229969*%
%ADD26C,0.225588*%
%ADD27C,0.812800*%
%ADD28C,0.225938*%
%ADD29C,0.327000*%
%ADD30C,0.228900*%
%ADD31C,0.228019*%
%ADD32C,1.270000*%
%ADD33C,1.627000*%

G36*
X539744Y42883D02*
X539744Y42883D01*
X539750Y42889D01*
X539755Y42885D01*
X540985Y43250D01*
X540990Y43257D01*
X540995Y43255D01*
X542114Y43885D01*
X542117Y43892D01*
X542123Y43891D01*
X543073Y44754D01*
X543074Y44762D01*
X543080Y44762D01*
X543814Y45815D01*
X543814Y45823D01*
X543819Y45825D01*
X544301Y47015D01*
X544299Y47020D01*
X544303Y47023D01*
X544302Y47024D01*
X544304Y47025D01*
X544509Y48292D01*
X544506Y48297D01*
X544509Y48300D01*
X544509Y60300D01*
X544506Y60304D01*
X544509Y60307D01*
X544354Y61429D01*
X544349Y61434D01*
X544352Y61438D01*
X543981Y62509D01*
X543975Y62513D01*
X543977Y62518D01*
X543404Y63495D01*
X543398Y63498D01*
X543399Y63503D01*
X542646Y64350D01*
X542639Y64352D01*
X542639Y64357D01*
X541736Y65041D01*
X541729Y65041D01*
X541728Y65046D01*
X540709Y65541D01*
X540702Y65539D01*
X540700Y65544D01*
X539603Y65831D01*
X539597Y65828D01*
X539594Y65832D01*
X538463Y65899D01*
X538457Y65899D01*
X537326Y65832D01*
X537321Y65827D01*
X537317Y65831D01*
X536220Y65544D01*
X536216Y65538D01*
X536211Y65541D01*
X535192Y65046D01*
X535189Y65040D01*
X535184Y65041D01*
X534281Y64357D01*
X534279Y64350D01*
X534274Y64350D01*
X533521Y63503D01*
X533521Y63496D01*
X533516Y63495D01*
X532943Y62518D01*
X532944Y62515D01*
X532943Y62514D01*
X532944Y62513D01*
X532944Y62511D01*
X532939Y62509D01*
X532568Y61438D01*
X532570Y61433D01*
X532567Y61431D01*
X532567Y61430D01*
X532566Y61429D01*
X532411Y60307D01*
X532414Y60302D01*
X532411Y60300D01*
X532411Y48300D01*
X532414Y48295D01*
X532411Y48292D01*
X532616Y47025D01*
X532622Y47019D01*
X532619Y47015D01*
X533101Y45825D01*
X533108Y45821D01*
X533106Y45815D01*
X533840Y44762D01*
X533848Y44760D01*
X533847Y44754D01*
X534797Y43891D01*
X534806Y43890D01*
X534806Y43885D01*
X535925Y43255D01*
X535933Y43256D01*
X535935Y43250D01*
X537165Y42885D01*
X537173Y42888D01*
X537176Y42883D01*
X538457Y42801D01*
X538461Y42804D01*
X538463Y42801D01*
X539744Y42883D01*
G37*
G36*
X72384Y42883D02*
X72384Y42883D01*
X72390Y42889D01*
X72395Y42885D01*
X73625Y43250D01*
X73630Y43257D01*
X73635Y43255D01*
X74754Y43885D01*
X74757Y43892D01*
X74763Y43891D01*
X75713Y44754D01*
X75714Y44762D01*
X75720Y44762D01*
X76454Y45815D01*
X76454Y45823D01*
X76459Y45825D01*
X76941Y47015D01*
X76939Y47020D01*
X76943Y47023D01*
X76942Y47024D01*
X76944Y47025D01*
X77149Y48292D01*
X77146Y48297D01*
X77149Y48300D01*
X77149Y60300D01*
X77146Y60304D01*
X77149Y60307D01*
X76994Y61429D01*
X76989Y61434D01*
X76992Y61438D01*
X76621Y62509D01*
X76615Y62513D01*
X76617Y62518D01*
X76044Y63495D01*
X76038Y63498D01*
X76039Y63503D01*
X75286Y64350D01*
X75279Y64352D01*
X75279Y64357D01*
X74376Y65041D01*
X74369Y65041D01*
X74368Y65046D01*
X73349Y65541D01*
X73342Y65539D01*
X73340Y65544D01*
X72243Y65831D01*
X72237Y65828D01*
X72234Y65832D01*
X71103Y65899D01*
X71097Y65899D01*
X69966Y65832D01*
X69961Y65827D01*
X69957Y65831D01*
X68860Y65544D01*
X68856Y65538D01*
X68851Y65541D01*
X67832Y65046D01*
X67829Y65040D01*
X67824Y65041D01*
X66921Y64357D01*
X66919Y64350D01*
X66914Y64350D01*
X66161Y63503D01*
X66161Y63496D01*
X66156Y63495D01*
X65583Y62518D01*
X65584Y62515D01*
X65583Y62514D01*
X65584Y62513D01*
X65584Y62511D01*
X65579Y62509D01*
X65208Y61438D01*
X65210Y61433D01*
X65207Y61431D01*
X65207Y61430D01*
X65206Y61429D01*
X65051Y60307D01*
X65054Y60302D01*
X65051Y60300D01*
X65051Y48300D01*
X65054Y48295D01*
X65051Y48292D01*
X65256Y47025D01*
X65262Y47019D01*
X65259Y47015D01*
X65741Y45825D01*
X65748Y45821D01*
X65746Y45815D01*
X66480Y44762D01*
X66488Y44760D01*
X66487Y44754D01*
X67437Y43891D01*
X67446Y43890D01*
X67446Y43885D01*
X68565Y43255D01*
X68573Y43256D01*
X68575Y43250D01*
X69805Y42885D01*
X69813Y42888D01*
X69816Y42883D01*
X71097Y42801D01*
X71101Y42804D01*
X71103Y42801D01*
X72384Y42883D01*
G37*
G36*
X626144Y42883D02*
X626144Y42883D01*
X626150Y42889D01*
X626155Y42885D01*
X627385Y43250D01*
X627390Y43257D01*
X627395Y43255D01*
X628514Y43885D01*
X628517Y43892D01*
X628523Y43891D01*
X629473Y44754D01*
X629474Y44762D01*
X629480Y44762D01*
X630214Y45815D01*
X630214Y45823D01*
X630219Y45825D01*
X630701Y47015D01*
X630699Y47020D01*
X630703Y47023D01*
X630702Y47024D01*
X630704Y47025D01*
X630909Y48292D01*
X630906Y48297D01*
X630909Y48300D01*
X630909Y60300D01*
X630906Y60304D01*
X630909Y60307D01*
X630754Y61429D01*
X630749Y61434D01*
X630752Y61438D01*
X630381Y62509D01*
X630375Y62513D01*
X630377Y62518D01*
X629804Y63495D01*
X629798Y63498D01*
X629799Y63503D01*
X629046Y64350D01*
X629039Y64352D01*
X629039Y64357D01*
X628136Y65041D01*
X628129Y65041D01*
X628128Y65046D01*
X627109Y65541D01*
X627102Y65539D01*
X627100Y65544D01*
X626003Y65831D01*
X625997Y65828D01*
X625994Y65832D01*
X624863Y65899D01*
X624857Y65899D01*
X623726Y65832D01*
X623721Y65827D01*
X623717Y65831D01*
X622620Y65544D01*
X622616Y65538D01*
X622611Y65541D01*
X621592Y65046D01*
X621589Y65040D01*
X621584Y65041D01*
X620681Y64357D01*
X620679Y64350D01*
X620674Y64350D01*
X619921Y63503D01*
X619921Y63496D01*
X619916Y63495D01*
X619343Y62518D01*
X619344Y62515D01*
X619343Y62514D01*
X619344Y62513D01*
X619344Y62511D01*
X619339Y62509D01*
X618968Y61438D01*
X618970Y61433D01*
X618967Y61431D01*
X618967Y61430D01*
X618966Y61429D01*
X618811Y60307D01*
X618814Y60302D01*
X618811Y60300D01*
X618811Y48300D01*
X618814Y48295D01*
X618811Y48292D01*
X619016Y47025D01*
X619022Y47019D01*
X619019Y47015D01*
X619501Y45825D01*
X619508Y45821D01*
X619506Y45815D01*
X620240Y44762D01*
X620248Y44760D01*
X620247Y44754D01*
X621197Y43891D01*
X621206Y43890D01*
X621206Y43885D01*
X622325Y43255D01*
X622333Y43256D01*
X622335Y43250D01*
X623565Y42885D01*
X623573Y42888D01*
X623576Y42883D01*
X624857Y42801D01*
X624861Y42804D01*
X624863Y42801D01*
X626144Y42883D01*
G37*
G36*
X306064Y42883D02*
X306064Y42883D01*
X306070Y42889D01*
X306075Y42885D01*
X307305Y43250D01*
X307310Y43257D01*
X307315Y43255D01*
X308434Y43885D01*
X308437Y43892D01*
X308443Y43891D01*
X309393Y44754D01*
X309394Y44762D01*
X309400Y44762D01*
X310134Y45815D01*
X310134Y45823D01*
X310139Y45825D01*
X310621Y47015D01*
X310619Y47020D01*
X310623Y47023D01*
X310622Y47024D01*
X310624Y47025D01*
X310829Y48292D01*
X310826Y48297D01*
X310829Y48300D01*
X310829Y60300D01*
X310826Y60304D01*
X310829Y60307D01*
X310674Y61429D01*
X310669Y61434D01*
X310672Y61438D01*
X310301Y62509D01*
X310295Y62513D01*
X310297Y62518D01*
X309724Y63495D01*
X309718Y63498D01*
X309719Y63503D01*
X308966Y64350D01*
X308959Y64352D01*
X308959Y64357D01*
X308056Y65041D01*
X308049Y65041D01*
X308048Y65046D01*
X307029Y65541D01*
X307022Y65539D01*
X307020Y65544D01*
X305923Y65831D01*
X305917Y65828D01*
X305914Y65832D01*
X304783Y65899D01*
X304777Y65899D01*
X303646Y65832D01*
X303641Y65827D01*
X303637Y65831D01*
X302540Y65544D01*
X302536Y65538D01*
X302531Y65541D01*
X301512Y65046D01*
X301509Y65040D01*
X301504Y65041D01*
X300601Y64357D01*
X300599Y64350D01*
X300594Y64350D01*
X299841Y63503D01*
X299841Y63496D01*
X299836Y63495D01*
X299263Y62518D01*
X299264Y62515D01*
X299263Y62514D01*
X299264Y62513D01*
X299264Y62511D01*
X299259Y62509D01*
X298888Y61438D01*
X298890Y61433D01*
X298887Y61431D01*
X298887Y61430D01*
X298886Y61429D01*
X298731Y60307D01*
X298734Y60302D01*
X298731Y60300D01*
X298731Y48300D01*
X298734Y48295D01*
X298731Y48292D01*
X298936Y47025D01*
X298942Y47019D01*
X298939Y47015D01*
X299421Y45825D01*
X299428Y45821D01*
X299426Y45815D01*
X300160Y44762D01*
X300168Y44760D01*
X300167Y44754D01*
X301117Y43891D01*
X301126Y43890D01*
X301126Y43885D01*
X302245Y43255D01*
X302253Y43256D01*
X302255Y43250D01*
X303485Y42885D01*
X303493Y42888D01*
X303496Y42883D01*
X304777Y42801D01*
X304781Y42804D01*
X304783Y42801D01*
X306064Y42883D01*
G37*
G36*
X392464Y42883D02*
X392464Y42883D01*
X392470Y42889D01*
X392475Y42885D01*
X393705Y43250D01*
X393710Y43257D01*
X393715Y43255D01*
X394834Y43885D01*
X394837Y43892D01*
X394843Y43891D01*
X395793Y44754D01*
X395794Y44762D01*
X395800Y44762D01*
X396534Y45815D01*
X396534Y45823D01*
X396539Y45825D01*
X397021Y47015D01*
X397019Y47020D01*
X397023Y47023D01*
X397022Y47024D01*
X397024Y47025D01*
X397229Y48292D01*
X397226Y48297D01*
X397229Y48300D01*
X397229Y60300D01*
X397226Y60304D01*
X397229Y60307D01*
X397074Y61429D01*
X397069Y61434D01*
X397072Y61438D01*
X396701Y62509D01*
X396695Y62513D01*
X396697Y62518D01*
X396124Y63495D01*
X396118Y63498D01*
X396119Y63503D01*
X395366Y64350D01*
X395359Y64352D01*
X395359Y64357D01*
X394456Y65041D01*
X394449Y65041D01*
X394448Y65046D01*
X393429Y65541D01*
X393422Y65539D01*
X393420Y65544D01*
X392323Y65831D01*
X392317Y65828D01*
X392314Y65832D01*
X391183Y65899D01*
X391177Y65899D01*
X390046Y65832D01*
X390041Y65827D01*
X390037Y65831D01*
X388940Y65544D01*
X388936Y65538D01*
X388931Y65541D01*
X387912Y65046D01*
X387909Y65040D01*
X387904Y65041D01*
X387001Y64357D01*
X386999Y64350D01*
X386994Y64350D01*
X386241Y63503D01*
X386241Y63496D01*
X386236Y63495D01*
X385663Y62518D01*
X385664Y62515D01*
X385663Y62514D01*
X385664Y62513D01*
X385664Y62511D01*
X385659Y62509D01*
X385288Y61438D01*
X385290Y61433D01*
X385287Y61431D01*
X385287Y61430D01*
X385286Y61429D01*
X385131Y60307D01*
X385134Y60302D01*
X385131Y60300D01*
X385131Y48300D01*
X385134Y48295D01*
X385131Y48292D01*
X385336Y47025D01*
X385342Y47019D01*
X385339Y47015D01*
X385821Y45825D01*
X385828Y45821D01*
X385826Y45815D01*
X386560Y44762D01*
X386568Y44760D01*
X386567Y44754D01*
X387517Y43891D01*
X387526Y43890D01*
X387526Y43885D01*
X388645Y43255D01*
X388653Y43256D01*
X388655Y43250D01*
X389885Y42885D01*
X389893Y42888D01*
X389896Y42883D01*
X391177Y42801D01*
X391181Y42804D01*
X391183Y42801D01*
X392464Y42883D01*
G37*
G36*
X158784Y42883D02*
X158784Y42883D01*
X158790Y42889D01*
X158795Y42885D01*
X160025Y43250D01*
X160030Y43257D01*
X160035Y43255D01*
X161154Y43885D01*
X161157Y43892D01*
X161163Y43891D01*
X162113Y44754D01*
X162114Y44762D01*
X162120Y44762D01*
X162854Y45815D01*
X162854Y45823D01*
X162859Y45825D01*
X163341Y47015D01*
X163339Y47020D01*
X163343Y47023D01*
X163342Y47024D01*
X163344Y47025D01*
X163549Y48292D01*
X163546Y48297D01*
X163549Y48300D01*
X163549Y60300D01*
X163546Y60304D01*
X163549Y60307D01*
X163394Y61429D01*
X163389Y61434D01*
X163392Y61438D01*
X163021Y62509D01*
X163015Y62513D01*
X163017Y62518D01*
X162444Y63495D01*
X162438Y63498D01*
X162439Y63503D01*
X161686Y64350D01*
X161679Y64352D01*
X161679Y64357D01*
X160776Y65041D01*
X160769Y65041D01*
X160768Y65046D01*
X159749Y65541D01*
X159742Y65539D01*
X159740Y65544D01*
X158643Y65831D01*
X158637Y65828D01*
X158634Y65832D01*
X157503Y65899D01*
X157497Y65899D01*
X156366Y65832D01*
X156361Y65827D01*
X156357Y65831D01*
X155260Y65544D01*
X155256Y65538D01*
X155251Y65541D01*
X154232Y65046D01*
X154229Y65040D01*
X154224Y65041D01*
X153321Y64357D01*
X153319Y64350D01*
X153314Y64350D01*
X152561Y63503D01*
X152561Y63496D01*
X152556Y63495D01*
X151983Y62518D01*
X151984Y62515D01*
X151983Y62514D01*
X151984Y62513D01*
X151984Y62511D01*
X151979Y62509D01*
X151608Y61438D01*
X151610Y61433D01*
X151607Y61431D01*
X151607Y61430D01*
X151606Y61429D01*
X151451Y60307D01*
X151454Y60302D01*
X151451Y60300D01*
X151451Y48300D01*
X151454Y48295D01*
X151451Y48292D01*
X151656Y47025D01*
X151662Y47019D01*
X151659Y47015D01*
X152141Y45825D01*
X152148Y45821D01*
X152146Y45815D01*
X152880Y44762D01*
X152888Y44760D01*
X152887Y44754D01*
X153837Y43891D01*
X153846Y43890D01*
X153846Y43885D01*
X154965Y43255D01*
X154973Y43256D01*
X154975Y43250D01*
X156205Y42885D01*
X156213Y42888D01*
X156216Y42883D01*
X157497Y42801D01*
X157501Y42804D01*
X157503Y42801D01*
X158784Y42883D01*
G37*
G36*
X305951Y3611D02*
X305951Y3611D01*
X305956Y3616D01*
X305960Y3613D01*
X307083Y3948D01*
X307087Y3954D01*
X307091Y3952D01*
X308127Y4500D01*
X308130Y4506D01*
X308135Y4505D01*
X309043Y5244D01*
X309045Y5251D01*
X309050Y5251D01*
X309797Y6153D01*
X309797Y6161D01*
X309803Y6161D01*
X310359Y7192D01*
X310358Y7199D01*
X310363Y7201D01*
X310707Y8320D01*
X310705Y8327D01*
X310709Y8330D01*
X310829Y9495D01*
X310827Y9498D01*
X310829Y9500D01*
X310829Y15500D01*
X310827Y15503D01*
X310829Y15505D01*
X310718Y16681D01*
X310713Y16686D01*
X310716Y16690D01*
X310378Y17822D01*
X310372Y17826D01*
X310374Y17831D01*
X309822Y18875D01*
X309815Y18878D01*
X309817Y18883D01*
X309071Y19799D01*
X309064Y19800D01*
X309064Y19806D01*
X308155Y20559D01*
X308147Y20559D01*
X308147Y20564D01*
X307107Y21125D01*
X307100Y21124D01*
X307098Y21129D01*
X305969Y21476D01*
X305963Y21474D01*
X305960Y21478D01*
X304785Y21599D01*
X304778Y21595D01*
X304774Y21599D01*
X303434Y21442D01*
X303428Y21437D01*
X303423Y21440D01*
X302152Y20989D01*
X302147Y20982D01*
X302142Y20984D01*
X301003Y20262D01*
X301000Y20254D01*
X300994Y20255D01*
X300044Y19297D01*
X300043Y19289D01*
X300037Y19288D01*
X299324Y18143D01*
X299325Y18135D01*
X299319Y18133D01*
X298879Y16857D01*
X298881Y16850D01*
X298877Y16847D01*
X298731Y15505D01*
X298733Y15502D01*
X298731Y15500D01*
X298731Y9500D01*
X298733Y9497D01*
X298731Y9494D01*
X298886Y8165D01*
X298892Y8159D01*
X298889Y8155D01*
X299336Y6894D01*
X299343Y6889D01*
X299341Y6884D01*
X300058Y5754D01*
X300065Y5751D01*
X300064Y5745D01*
X301015Y4803D01*
X301023Y4802D01*
X301023Y4796D01*
X302159Y4089D01*
X302167Y4090D01*
X302169Y4084D01*
X303434Y3648D01*
X303439Y3649D01*
X303440Y3649D01*
X303443Y3649D01*
X303445Y3645D01*
X304775Y3501D01*
X304781Y3505D01*
X304785Y3501D01*
X305951Y3611D01*
G37*
G36*
X539631Y3611D02*
X539631Y3611D01*
X539636Y3616D01*
X539640Y3613D01*
X540763Y3948D01*
X540767Y3954D01*
X540771Y3952D01*
X541807Y4500D01*
X541810Y4506D01*
X541815Y4505D01*
X542723Y5244D01*
X542725Y5251D01*
X542730Y5251D01*
X543477Y6153D01*
X543477Y6161D01*
X543483Y6161D01*
X544039Y7192D01*
X544038Y7199D01*
X544043Y7201D01*
X544387Y8320D01*
X544385Y8327D01*
X544389Y8330D01*
X544509Y9495D01*
X544507Y9498D01*
X544509Y9500D01*
X544509Y15500D01*
X544507Y15503D01*
X544509Y15505D01*
X544398Y16681D01*
X544393Y16686D01*
X544396Y16690D01*
X544058Y17822D01*
X544052Y17826D01*
X544054Y17831D01*
X543502Y18875D01*
X543495Y18878D01*
X543497Y18883D01*
X542751Y19799D01*
X542744Y19800D01*
X542744Y19806D01*
X541835Y20559D01*
X541827Y20559D01*
X541827Y20564D01*
X540787Y21125D01*
X540780Y21124D01*
X540778Y21129D01*
X539649Y21476D01*
X539643Y21474D01*
X539640Y21478D01*
X538465Y21599D01*
X538458Y21595D01*
X538454Y21599D01*
X537114Y21442D01*
X537108Y21437D01*
X537103Y21440D01*
X535832Y20989D01*
X535827Y20982D01*
X535822Y20984D01*
X534683Y20262D01*
X534680Y20254D01*
X534674Y20255D01*
X533724Y19297D01*
X533723Y19289D01*
X533717Y19288D01*
X533004Y18143D01*
X533005Y18135D01*
X532999Y18133D01*
X532559Y16857D01*
X532561Y16850D01*
X532557Y16847D01*
X532411Y15505D01*
X532413Y15502D01*
X532411Y15500D01*
X532411Y9500D01*
X532413Y9497D01*
X532411Y9494D01*
X532566Y8165D01*
X532572Y8159D01*
X532569Y8155D01*
X533016Y6894D01*
X533023Y6889D01*
X533021Y6884D01*
X533738Y5754D01*
X533745Y5751D01*
X533744Y5745D01*
X534695Y4803D01*
X534703Y4802D01*
X534703Y4796D01*
X535839Y4089D01*
X535847Y4090D01*
X535849Y4084D01*
X537114Y3648D01*
X537119Y3649D01*
X537120Y3649D01*
X537123Y3649D01*
X537125Y3645D01*
X538455Y3501D01*
X538461Y3505D01*
X538465Y3501D01*
X539631Y3611D01*
G37*
G36*
X392351Y3611D02*
X392351Y3611D01*
X392356Y3616D01*
X392360Y3613D01*
X393483Y3948D01*
X393487Y3954D01*
X393491Y3952D01*
X394527Y4500D01*
X394530Y4506D01*
X394535Y4505D01*
X395443Y5244D01*
X395445Y5251D01*
X395450Y5251D01*
X396197Y6153D01*
X396197Y6161D01*
X396203Y6161D01*
X396759Y7192D01*
X396758Y7199D01*
X396763Y7201D01*
X397107Y8320D01*
X397105Y8327D01*
X397109Y8330D01*
X397229Y9495D01*
X397227Y9498D01*
X397229Y9500D01*
X397229Y15500D01*
X397227Y15503D01*
X397229Y15505D01*
X397118Y16681D01*
X397113Y16686D01*
X397116Y16690D01*
X396778Y17822D01*
X396772Y17826D01*
X396774Y17831D01*
X396222Y18875D01*
X396215Y18878D01*
X396217Y18883D01*
X395471Y19799D01*
X395464Y19800D01*
X395464Y19806D01*
X394555Y20559D01*
X394547Y20559D01*
X394547Y20564D01*
X393507Y21125D01*
X393500Y21124D01*
X393498Y21129D01*
X392369Y21476D01*
X392363Y21474D01*
X392360Y21478D01*
X391185Y21599D01*
X391178Y21595D01*
X391174Y21599D01*
X389834Y21442D01*
X389828Y21437D01*
X389823Y21440D01*
X388552Y20989D01*
X388547Y20982D01*
X388542Y20984D01*
X387403Y20262D01*
X387400Y20254D01*
X387394Y20255D01*
X386444Y19297D01*
X386443Y19289D01*
X386437Y19288D01*
X385724Y18143D01*
X385725Y18135D01*
X385719Y18133D01*
X385279Y16857D01*
X385281Y16850D01*
X385277Y16847D01*
X385131Y15505D01*
X385133Y15502D01*
X385131Y15500D01*
X385131Y9500D01*
X385133Y9497D01*
X385131Y9494D01*
X385286Y8165D01*
X385292Y8159D01*
X385289Y8155D01*
X385736Y6894D01*
X385743Y6889D01*
X385741Y6884D01*
X386458Y5754D01*
X386465Y5751D01*
X386464Y5745D01*
X387415Y4803D01*
X387423Y4802D01*
X387423Y4796D01*
X388559Y4089D01*
X388567Y4090D01*
X388569Y4084D01*
X389834Y3648D01*
X389839Y3649D01*
X389840Y3649D01*
X389843Y3649D01*
X389845Y3645D01*
X391175Y3501D01*
X391181Y3505D01*
X391185Y3501D01*
X392351Y3611D01*
G37*
G36*
X72271Y3611D02*
X72271Y3611D01*
X72276Y3616D01*
X72280Y3613D01*
X73403Y3948D01*
X73407Y3954D01*
X73411Y3952D01*
X74447Y4500D01*
X74450Y4506D01*
X74455Y4505D01*
X75363Y5244D01*
X75365Y5251D01*
X75370Y5251D01*
X76117Y6153D01*
X76117Y6161D01*
X76123Y6161D01*
X76679Y7192D01*
X76678Y7199D01*
X76683Y7201D01*
X77027Y8320D01*
X77025Y8327D01*
X77029Y8330D01*
X77149Y9495D01*
X77147Y9498D01*
X77149Y9500D01*
X77149Y15500D01*
X77147Y15503D01*
X77149Y15505D01*
X77038Y16681D01*
X77033Y16686D01*
X77036Y16690D01*
X76698Y17822D01*
X76692Y17826D01*
X76694Y17831D01*
X76142Y18875D01*
X76135Y18878D01*
X76137Y18883D01*
X75391Y19799D01*
X75384Y19800D01*
X75384Y19806D01*
X74475Y20559D01*
X74467Y20559D01*
X74467Y20564D01*
X73427Y21125D01*
X73420Y21124D01*
X73418Y21129D01*
X72289Y21476D01*
X72283Y21474D01*
X72280Y21478D01*
X71105Y21599D01*
X71098Y21595D01*
X71094Y21599D01*
X69754Y21442D01*
X69748Y21437D01*
X69743Y21440D01*
X68472Y20989D01*
X68467Y20982D01*
X68462Y20984D01*
X67323Y20262D01*
X67320Y20254D01*
X67314Y20255D01*
X66364Y19297D01*
X66363Y19289D01*
X66357Y19288D01*
X65644Y18143D01*
X65645Y18135D01*
X65639Y18133D01*
X65199Y16857D01*
X65201Y16850D01*
X65197Y16847D01*
X65051Y15505D01*
X65053Y15502D01*
X65051Y15500D01*
X65051Y9500D01*
X65053Y9497D01*
X65051Y9494D01*
X65206Y8165D01*
X65212Y8159D01*
X65209Y8155D01*
X65656Y6894D01*
X65663Y6889D01*
X65661Y6884D01*
X66378Y5754D01*
X66385Y5751D01*
X66384Y5745D01*
X67335Y4803D01*
X67343Y4802D01*
X67343Y4796D01*
X68479Y4089D01*
X68487Y4090D01*
X68489Y4084D01*
X69754Y3648D01*
X69759Y3649D01*
X69760Y3649D01*
X69763Y3649D01*
X69765Y3645D01*
X71095Y3501D01*
X71101Y3505D01*
X71105Y3501D01*
X72271Y3611D01*
G37*
G36*
X158671Y3611D02*
X158671Y3611D01*
X158676Y3616D01*
X158680Y3613D01*
X159803Y3948D01*
X159807Y3954D01*
X159811Y3952D01*
X160847Y4500D01*
X160850Y4506D01*
X160855Y4505D01*
X161763Y5244D01*
X161765Y5251D01*
X161770Y5251D01*
X162517Y6153D01*
X162517Y6161D01*
X162523Y6161D01*
X163079Y7192D01*
X163078Y7199D01*
X163083Y7201D01*
X163427Y8320D01*
X163425Y8327D01*
X163429Y8330D01*
X163549Y9495D01*
X163547Y9498D01*
X163549Y9500D01*
X163549Y15500D01*
X163547Y15503D01*
X163549Y15505D01*
X163438Y16681D01*
X163433Y16686D01*
X163436Y16690D01*
X163098Y17822D01*
X163092Y17826D01*
X163094Y17831D01*
X162542Y18875D01*
X162535Y18878D01*
X162537Y18883D01*
X161791Y19799D01*
X161784Y19800D01*
X161784Y19806D01*
X160875Y20559D01*
X160867Y20559D01*
X160867Y20564D01*
X159827Y21125D01*
X159820Y21124D01*
X159818Y21129D01*
X158689Y21476D01*
X158683Y21474D01*
X158680Y21478D01*
X157505Y21599D01*
X157498Y21595D01*
X157494Y21599D01*
X156154Y21442D01*
X156148Y21437D01*
X156143Y21440D01*
X154872Y20989D01*
X154867Y20982D01*
X154862Y20984D01*
X153723Y20262D01*
X153720Y20254D01*
X153714Y20255D01*
X152764Y19297D01*
X152763Y19289D01*
X152757Y19288D01*
X152044Y18143D01*
X152045Y18135D01*
X152039Y18133D01*
X151599Y16857D01*
X151601Y16850D01*
X151597Y16847D01*
X151451Y15505D01*
X151453Y15502D01*
X151451Y15500D01*
X151451Y9500D01*
X151453Y9497D01*
X151451Y9494D01*
X151606Y8165D01*
X151612Y8159D01*
X151609Y8155D01*
X152056Y6894D01*
X152063Y6889D01*
X152061Y6884D01*
X152778Y5754D01*
X152785Y5751D01*
X152784Y5745D01*
X153735Y4803D01*
X153743Y4802D01*
X153743Y4796D01*
X154879Y4089D01*
X154887Y4090D01*
X154889Y4084D01*
X156154Y3648D01*
X156159Y3649D01*
X156160Y3649D01*
X156163Y3649D01*
X156165Y3645D01*
X157495Y3501D01*
X157501Y3505D01*
X157505Y3501D01*
X158671Y3611D01*
G37*
G36*
X626031Y3611D02*
X626031Y3611D01*
X626036Y3616D01*
X626040Y3613D01*
X627163Y3948D01*
X627167Y3954D01*
X627171Y3952D01*
X628207Y4500D01*
X628210Y4506D01*
X628215Y4505D01*
X629123Y5244D01*
X629125Y5251D01*
X629130Y5251D01*
X629877Y6153D01*
X629877Y6161D01*
X629883Y6161D01*
X630439Y7192D01*
X630438Y7199D01*
X630443Y7201D01*
X630787Y8320D01*
X630785Y8327D01*
X630789Y8330D01*
X630909Y9495D01*
X630907Y9498D01*
X630909Y9500D01*
X630909Y15500D01*
X630907Y15503D01*
X630909Y15505D01*
X630798Y16681D01*
X630793Y16686D01*
X630796Y16690D01*
X630458Y17822D01*
X630452Y17826D01*
X630454Y17831D01*
X629902Y18875D01*
X629895Y18878D01*
X629897Y18883D01*
X629151Y19799D01*
X629144Y19800D01*
X629144Y19806D01*
X628235Y20559D01*
X628227Y20559D01*
X628227Y20564D01*
X627187Y21125D01*
X627180Y21124D01*
X627178Y21129D01*
X626049Y21476D01*
X626043Y21474D01*
X626040Y21478D01*
X624865Y21599D01*
X624858Y21595D01*
X624854Y21599D01*
X623514Y21442D01*
X623508Y21437D01*
X623503Y21440D01*
X622232Y20989D01*
X622227Y20982D01*
X622222Y20984D01*
X621083Y20262D01*
X621080Y20254D01*
X621074Y20255D01*
X620124Y19297D01*
X620123Y19289D01*
X620117Y19288D01*
X619404Y18143D01*
X619405Y18135D01*
X619399Y18133D01*
X618959Y16857D01*
X618961Y16850D01*
X618957Y16847D01*
X618811Y15505D01*
X618813Y15502D01*
X618811Y15500D01*
X618811Y9500D01*
X618813Y9497D01*
X618811Y9494D01*
X618966Y8165D01*
X618972Y8159D01*
X618969Y8155D01*
X619416Y6894D01*
X619423Y6889D01*
X619421Y6884D01*
X620138Y5754D01*
X620145Y5751D01*
X620144Y5745D01*
X621095Y4803D01*
X621103Y4802D01*
X621103Y4796D01*
X622239Y4089D01*
X622247Y4090D01*
X622249Y4084D01*
X623514Y3648D01*
X623519Y3649D01*
X623520Y3649D01*
X623523Y3649D01*
X623525Y3645D01*
X624855Y3501D01*
X624861Y3505D01*
X624865Y3501D01*
X626031Y3611D01*
G37*
D10*
X215900Y520700D03*
X215900Y495300D03*
X215900Y469900D03*
X215900Y444500D03*
X215900Y419100D03*
X215900Y393700D03*
X215900Y368300D03*
X215900Y342900D03*
X215900Y317500D03*
X215900Y292100D03*
X215900Y266700D03*
X215900Y241300D03*
X215900Y215900D03*
X215900Y190500D03*
X215900Y165100D03*
X215900Y139700D03*
X12700Y241300D03*
X12700Y266700D03*
X12700Y292100D03*
X12700Y317500D03*
X12700Y342900D03*
X12700Y368300D03*
X12700Y393700D03*
X12700Y419100D03*
X12700Y444500D03*
X12700Y469900D03*
X12700Y495300D03*
X12700Y520700D03*
D11*
X48800Y576000D02*
X66800Y576000D01*
X66800Y566000D02*
X48800Y566000D01*
X48800Y556000D02*
X66800Y556000D01*
X66800Y546000D02*
X48800Y546000D01*
X48800Y536000D02*
X66800Y536000D01*
X66800Y526000D02*
X48800Y526000D01*
X48800Y516000D02*
X66800Y516000D01*
X66800Y506000D02*
X48800Y506000D01*
X48800Y496000D02*
X66800Y496000D01*
X66800Y486000D02*
X48800Y486000D01*
X48800Y476000D02*
X66800Y476000D01*
X66800Y466000D02*
X48800Y466000D01*
X48800Y456000D02*
X66800Y456000D01*
X66800Y446000D02*
X48800Y446000D01*
X79300Y450000D02*
X79300Y432000D01*
X89300Y432000D02*
X89300Y450000D01*
X99300Y450000D02*
X99300Y432000D01*
X109300Y432000D02*
X109300Y450000D01*
X119300Y450000D02*
X119300Y432000D01*
X129300Y432000D02*
X129300Y450000D01*
X139300Y450000D02*
X139300Y432000D01*
X149300Y432000D02*
X149300Y450000D01*
X161800Y446000D02*
X179800Y446000D01*
X179800Y456000D02*
X161800Y456000D01*
X161800Y466000D02*
X179800Y466000D01*
X179800Y476000D02*
X161800Y476000D01*
X161800Y486000D02*
X179800Y486000D01*
X179800Y496000D02*
X161800Y496000D01*
X161800Y506000D02*
X179800Y506000D01*
X179800Y516000D02*
X161800Y516000D01*
X161800Y526000D02*
X179800Y526000D01*
X179800Y536000D02*
X161800Y536000D01*
X161800Y546000D02*
X179800Y546000D01*
X179800Y556000D02*
X161800Y556000D01*
X161800Y566000D02*
X179800Y566000D01*
X179800Y576000D02*
X161800Y576000D01*
D12*
X8890Y544830D03*
X177800Y12700D03*
D13*
X25400Y25400D03*
X203200Y25400D03*
D14*
X122782Y55618D02*
X120818Y55618D01*
X120818Y64582D01*
X122782Y64582D01*
X122782Y55618D01*
X122782Y57809D02*
X120818Y57809D01*
X120818Y60000D02*
X122782Y60000D01*
X122782Y62191D02*
X120818Y62191D01*
X120818Y64382D02*
X122782Y64382D01*
X117782Y55618D02*
X115818Y55618D01*
X115818Y64582D01*
X117782Y64582D01*
X117782Y55618D01*
X117782Y57809D02*
X115818Y57809D01*
X115818Y60000D02*
X117782Y60000D01*
X117782Y62191D02*
X115818Y62191D01*
X115818Y64382D02*
X117782Y64382D01*
D15*
X144042Y55592D02*
X149058Y55592D01*
X144042Y55592D02*
X144042Y64608D01*
X149058Y64608D01*
X149058Y55592D01*
X149058Y57733D02*
X144042Y57733D01*
X144042Y59874D02*
X149058Y59874D01*
X149058Y62015D02*
X144042Y62015D01*
X144042Y64156D02*
X149058Y64156D01*
X141308Y55592D02*
X136292Y55592D01*
X136292Y64608D01*
X141308Y64608D01*
X141308Y55592D01*
X141308Y57733D02*
X136292Y57733D01*
X136292Y59874D02*
X141308Y59874D01*
X141308Y62015D02*
X136292Y62015D01*
X136292Y64156D02*
X141308Y64156D01*
D14*
X132782Y55618D02*
X130818Y55618D01*
X130818Y64582D01*
X132782Y64582D01*
X132782Y55618D01*
X132782Y57809D02*
X130818Y57809D01*
X130818Y60000D02*
X132782Y60000D01*
X132782Y62191D02*
X130818Y62191D01*
X130818Y64382D02*
X132782Y64382D01*
X127782Y55618D02*
X125818Y55618D01*
X125818Y64582D01*
X127782Y64582D01*
X127782Y55618D01*
X127782Y57809D02*
X125818Y57809D01*
X125818Y60000D02*
X127782Y60000D01*
X127782Y62191D02*
X125818Y62191D01*
X125818Y64382D02*
X127782Y64382D01*
X107782Y64582D02*
X105818Y64582D01*
X107782Y64582D02*
X107782Y55618D01*
X105818Y55618D01*
X105818Y64582D01*
X105818Y57809D02*
X107782Y57809D01*
X107782Y60000D02*
X105818Y60000D01*
X105818Y62191D02*
X107782Y62191D01*
X107782Y64382D02*
X105818Y64382D01*
X110818Y64582D02*
X112782Y64582D01*
X112782Y55618D01*
X110818Y55618D01*
X110818Y64582D01*
X110818Y57809D02*
X112782Y57809D01*
X112782Y60000D02*
X110818Y60000D01*
X110818Y62191D02*
X112782Y62191D01*
X112782Y64382D02*
X110818Y64382D01*
D15*
X84558Y64608D02*
X79542Y64608D01*
X84558Y64608D02*
X84558Y55592D01*
X79542Y55592D01*
X79542Y64608D01*
X79542Y57733D02*
X84558Y57733D01*
X84558Y59874D02*
X79542Y59874D01*
X79542Y62015D02*
X84558Y62015D01*
X84558Y64156D02*
X79542Y64156D01*
X87292Y64608D02*
X92308Y64608D01*
X92308Y55592D01*
X87292Y55592D01*
X87292Y64608D01*
X87292Y57733D02*
X92308Y57733D01*
X92308Y59874D02*
X87292Y59874D01*
X87292Y62015D02*
X92308Y62015D01*
X92308Y64156D02*
X87292Y64156D01*
D14*
X95818Y64582D02*
X97782Y64582D01*
X97782Y55618D01*
X95818Y55618D01*
X95818Y64582D01*
X95818Y57809D02*
X97782Y57809D01*
X97782Y60000D02*
X95818Y60000D01*
X95818Y62191D02*
X97782Y62191D01*
X97782Y64382D02*
X95818Y64382D01*
X100818Y64582D02*
X102782Y64582D01*
X102782Y55618D01*
X100818Y55618D01*
X100818Y64582D01*
X100818Y57809D02*
X102782Y57809D01*
X102782Y60000D02*
X100818Y60000D01*
X100818Y62191D02*
X102782Y62191D01*
X102782Y64382D02*
X100818Y64382D01*
D16*
X85400Y49050D03*
X143200Y49050D03*
D17*
X97608Y163292D02*
X97608Y172308D01*
X97608Y163292D02*
X52592Y163292D01*
X52592Y172308D01*
X97608Y172308D01*
X97608Y165433D02*
X52592Y165433D01*
X52592Y167574D02*
X97608Y167574D01*
X97608Y169715D02*
X52592Y169715D01*
X52592Y171856D02*
X97608Y171856D01*
X97608Y183292D02*
X97608Y192308D01*
X97608Y183292D02*
X52592Y183292D01*
X52592Y192308D01*
X97608Y192308D01*
X97608Y185433D02*
X52592Y185433D01*
X52592Y187574D02*
X97608Y187574D01*
X97608Y189715D02*
X52592Y189715D01*
X52592Y191856D02*
X97608Y191856D01*
D18*
X39613Y151313D02*
X6587Y151313D01*
X39613Y151313D02*
X39613Y136287D01*
X6587Y136287D01*
X6587Y151313D01*
X6587Y138420D02*
X39613Y138420D01*
X39613Y140553D02*
X6587Y140553D01*
X6587Y142686D02*
X39613Y142686D01*
X39613Y144819D02*
X6587Y144819D01*
X6587Y146952D02*
X39613Y146952D01*
X39613Y149085D02*
X6587Y149085D01*
X6587Y151218D02*
X39613Y151218D01*
X39613Y219313D02*
X6587Y219313D01*
X39613Y219313D02*
X39613Y204287D01*
X6587Y204287D01*
X6587Y219313D01*
X6587Y206420D02*
X39613Y206420D01*
X39613Y208553D02*
X6587Y208553D01*
X6587Y210686D02*
X39613Y210686D01*
X39613Y212819D02*
X6587Y212819D01*
X6587Y214952D02*
X39613Y214952D01*
X39613Y217085D02*
X6587Y217085D01*
X6587Y219218D02*
X39613Y219218D01*
D19*
X191239Y183268D02*
X191239Y178732D01*
X180203Y178732D01*
X180203Y183268D01*
X191239Y183268D01*
X191239Y180854D02*
X180203Y180854D01*
X180203Y182976D02*
X191239Y182976D01*
X191239Y188232D02*
X191239Y192768D01*
X191239Y188232D02*
X180203Y188232D01*
X180203Y192768D01*
X191239Y192768D01*
X191239Y190354D02*
X180203Y190354D01*
X180203Y192476D02*
X191239Y192476D01*
X191239Y197732D02*
X191239Y202268D01*
X191239Y197732D02*
X180203Y197732D01*
X180203Y202268D01*
X191239Y202268D01*
X191239Y199854D02*
X180203Y199854D01*
X180203Y201976D02*
X191239Y201976D01*
X165237Y202268D02*
X165237Y197732D01*
X154201Y197732D01*
X154201Y202268D01*
X165237Y202268D01*
X165237Y199854D02*
X154201Y199854D01*
X154201Y201976D02*
X165237Y201976D01*
X165237Y183268D02*
X165237Y178732D01*
X154201Y178732D01*
X154201Y183268D01*
X165237Y183268D01*
X165237Y180854D02*
X154201Y180854D01*
X154201Y182976D02*
X165237Y182976D01*
D20*
X191776Y70176D02*
X191776Y63224D01*
X183824Y63224D01*
X183824Y70176D01*
X191776Y70176D01*
X191776Y65426D02*
X183824Y65426D01*
X183824Y67628D02*
X191776Y67628D01*
X191776Y69830D02*
X183824Y69830D01*
X191776Y82224D02*
X191776Y89176D01*
X191776Y82224D02*
X183824Y82224D01*
X183824Y89176D01*
X191776Y89176D01*
X191776Y84426D02*
X183824Y84426D01*
X183824Y86628D02*
X191776Y86628D01*
X191776Y88830D02*
X183824Y88830D01*
X170776Y79676D02*
X170776Y72724D01*
X162824Y72724D01*
X162824Y79676D01*
X170776Y79676D01*
X170776Y74926D02*
X162824Y74926D01*
X162824Y77128D02*
X170776Y77128D01*
X170776Y79330D02*
X162824Y79330D01*
D15*
X201898Y182992D02*
X201898Y188008D01*
X201898Y182992D02*
X196882Y182992D01*
X196882Y188008D01*
X201898Y188008D01*
X201898Y185133D02*
X196882Y185133D01*
X196882Y187274D02*
X201898Y187274D01*
X201898Y192992D02*
X201898Y198008D01*
X201898Y192992D02*
X196882Y192992D01*
X196882Y198008D01*
X201898Y198008D01*
X201898Y195133D02*
X196882Y195133D01*
X196882Y197274D02*
X201898Y197274D01*
X198008Y154908D02*
X192992Y154908D01*
X198008Y154908D02*
X198008Y149892D01*
X192992Y149892D01*
X192992Y154908D01*
X192992Y152033D02*
X198008Y152033D01*
X198008Y154174D02*
X192992Y154174D01*
X188008Y154908D02*
X182992Y154908D01*
X188008Y154908D02*
X188008Y149892D01*
X182992Y149892D01*
X182992Y154908D01*
X182992Y152033D02*
X188008Y152033D01*
X188008Y154174D02*
X182992Y154174D01*
D21*
X199550Y90350D02*
X199550Y85050D01*
X199550Y90350D02*
X206850Y90350D01*
X206850Y85050D01*
X199550Y85050D01*
X199550Y87207D02*
X206850Y87207D01*
X206850Y89364D02*
X199550Y89364D01*
X199550Y67350D02*
X199550Y62050D01*
X199550Y67350D02*
X206850Y67350D01*
X206850Y62050D01*
X199550Y62050D01*
X199550Y64207D02*
X206850Y64207D01*
X206850Y66364D02*
X199550Y66364D01*
D15*
X214662Y78692D02*
X214662Y83708D01*
X219678Y83708D01*
X219678Y78692D01*
X214662Y78692D01*
X214662Y80833D02*
X219678Y80833D01*
X219678Y82974D02*
X214662Y82974D01*
X214662Y73708D02*
X214662Y68692D01*
X214662Y73708D02*
X219678Y73708D01*
X219678Y68692D01*
X214662Y68692D01*
X214662Y70833D02*
X219678Y70833D01*
X219678Y72974D02*
X214662Y72974D01*
X166258Y167608D02*
X161242Y167608D01*
X166258Y167608D02*
X166258Y162592D01*
X161242Y162592D01*
X161242Y167608D01*
X161242Y164733D02*
X166258Y164733D01*
X166258Y166874D02*
X161242Y166874D01*
X156258Y167608D02*
X151242Y167608D01*
X156258Y167608D02*
X156258Y162592D01*
X151242Y162592D01*
X151242Y167608D01*
X151242Y164733D02*
X156258Y164733D01*
X156258Y166874D02*
X151242Y166874D01*
D19*
X127531Y119718D02*
X127531Y115182D01*
X127531Y119718D02*
X138567Y119718D01*
X138567Y115182D01*
X127531Y115182D01*
X127531Y117304D02*
X138567Y117304D01*
X138567Y119426D02*
X127531Y119426D01*
X127531Y110218D02*
X127531Y105682D01*
X127531Y110218D02*
X138567Y110218D01*
X138567Y105682D01*
X127531Y105682D01*
X127531Y107804D02*
X138567Y107804D01*
X138567Y109926D02*
X127531Y109926D01*
X127531Y100718D02*
X127531Y96182D01*
X127531Y100718D02*
X138567Y100718D01*
X138567Y96182D01*
X127531Y96182D01*
X127531Y98304D02*
X138567Y98304D01*
X138567Y100426D02*
X127531Y100426D01*
X153533Y100718D02*
X153533Y96182D01*
X153533Y100718D02*
X164569Y100718D01*
X164569Y96182D01*
X153533Y96182D01*
X153533Y98304D02*
X164569Y98304D01*
X164569Y100426D02*
X153533Y100426D01*
X153533Y115182D02*
X153533Y119718D01*
X164569Y119718D01*
X164569Y115182D01*
X153533Y115182D01*
X153533Y117304D02*
X164569Y117304D01*
X164569Y119426D02*
X153533Y119426D01*
D22*
X130494Y140774D02*
X123506Y140774D01*
X130494Y140774D02*
X130494Y133786D01*
X123506Y133786D01*
X123506Y140774D01*
X123506Y137855D02*
X130494Y137855D01*
X130494Y158314D02*
X123506Y158314D01*
X130494Y158314D02*
X130494Y151326D01*
X123506Y151326D01*
X123506Y158314D01*
X123506Y155395D02*
X130494Y155395D01*
D15*
X168942Y115458D02*
X168942Y110442D01*
X168942Y115458D02*
X173958Y115458D01*
X173958Y110442D01*
X168942Y110442D01*
X168942Y112583D02*
X173958Y112583D01*
X173958Y114724D02*
X168942Y114724D01*
X168942Y105458D02*
X168942Y100442D01*
X168942Y105458D02*
X173958Y105458D01*
X173958Y100442D01*
X168942Y100442D01*
X168942Y102583D02*
X173958Y102583D01*
X173958Y104724D02*
X168942Y104724D01*
X180292Y57118D02*
X185308Y57118D01*
X185308Y52102D01*
X180292Y52102D01*
X180292Y57118D01*
X180292Y54243D02*
X185308Y54243D01*
X185308Y56384D02*
X180292Y56384D01*
X175308Y57118D02*
X170292Y57118D01*
X175308Y57118D02*
X175308Y52102D01*
X170292Y52102D01*
X170292Y57118D01*
X170292Y54243D02*
X175308Y54243D01*
X175308Y56384D02*
X170292Y56384D01*
X143542Y148542D02*
X143542Y153558D01*
X148558Y153558D01*
X148558Y148542D01*
X143542Y148542D01*
X143542Y150683D02*
X148558Y150683D01*
X148558Y152824D02*
X143542Y152824D01*
X143542Y143558D02*
X143542Y138542D01*
X143542Y143558D02*
X148558Y143558D01*
X148558Y138542D01*
X143542Y138542D01*
X143542Y140683D02*
X148558Y140683D01*
X148558Y142824D02*
X143542Y142824D01*
X156242Y148542D02*
X156242Y153558D01*
X161258Y153558D01*
X161258Y148542D01*
X156242Y148542D01*
X156242Y150683D02*
X161258Y150683D01*
X161258Y152824D02*
X156242Y152824D01*
X156242Y143558D02*
X156242Y138542D01*
X156242Y143558D02*
X161258Y143558D01*
X161258Y138542D01*
X156242Y138542D01*
X156242Y140683D02*
X161258Y140683D01*
X161258Y142824D02*
X156242Y142824D01*
X154892Y87598D02*
X159908Y87598D01*
X159908Y82582D01*
X154892Y82582D01*
X154892Y87598D01*
X154892Y84723D02*
X159908Y84723D01*
X159908Y86864D02*
X154892Y86864D01*
X149908Y87598D02*
X144892Y87598D01*
X149908Y87598D02*
X149908Y82582D01*
X144892Y82582D01*
X144892Y87598D01*
X144892Y84723D02*
X149908Y84723D01*
X149908Y86864D02*
X144892Y86864D01*
D23*
X72650Y108070D03*
X72650Y113070D03*
X72650Y118070D03*
X72650Y123070D03*
X92650Y123070D03*
X92650Y118070D03*
X92650Y113070D03*
X92650Y108070D03*
D24*
X82550Y115570D03*
D15*
X100362Y117998D02*
X100362Y112982D01*
X100362Y117998D02*
X105378Y117998D01*
X105378Y112982D01*
X100362Y112982D01*
X100362Y115123D02*
X105378Y115123D01*
X105378Y117264D02*
X100362Y117264D01*
X100362Y107998D02*
X100362Y102982D01*
X100362Y107998D02*
X105378Y107998D01*
X105378Y102982D01*
X100362Y102982D01*
X100362Y105123D02*
X105378Y105123D01*
X105378Y107264D02*
X100362Y107264D01*
X130842Y86756D02*
X130842Y81740D01*
X130842Y86756D02*
X135858Y86756D01*
X135858Y81740D01*
X130842Y81740D01*
X130842Y83881D02*
X135858Y83881D01*
X135858Y86022D02*
X130842Y86022D01*
X130842Y76756D02*
X130842Y71740D01*
X130842Y76756D02*
X135858Y76756D01*
X135858Y71740D01*
X130842Y71740D01*
X130842Y73881D02*
X135858Y73881D01*
X135858Y76022D02*
X130842Y76022D01*
X92742Y81740D02*
X92742Y86756D01*
X97758Y86756D01*
X97758Y81740D01*
X92742Y81740D01*
X92742Y83881D02*
X97758Y83881D01*
X97758Y86022D02*
X92742Y86022D01*
X92742Y76756D02*
X92742Y71740D01*
X92742Y76756D02*
X97758Y76756D01*
X97758Y71740D01*
X92742Y71740D01*
X92742Y73881D02*
X97758Y73881D01*
X97758Y76022D02*
X92742Y76022D01*
D25*
X110035Y77733D02*
X110035Y72663D01*
X108565Y72663D01*
X108565Y77733D01*
X110035Y77733D01*
X110035Y74848D02*
X108565Y74848D01*
X108565Y77033D02*
X110035Y77033D01*
X115035Y77233D02*
X115035Y72663D01*
X113565Y72663D01*
X113565Y77233D01*
X115035Y77233D01*
X115035Y74848D02*
X113565Y74848D01*
X113565Y77033D02*
X115035Y77033D01*
X120035Y77233D02*
X120035Y72663D01*
X118565Y72663D01*
X118565Y77233D01*
X120035Y77233D01*
X120035Y74848D02*
X118565Y74848D01*
X118565Y77033D02*
X120035Y77033D01*
X118565Y81263D02*
X118565Y85833D01*
X120035Y85833D01*
X120035Y81263D01*
X118565Y81263D01*
X118565Y83448D02*
X120035Y83448D01*
X120035Y85633D02*
X118565Y85633D01*
X113565Y85833D02*
X113565Y81263D01*
X113565Y85833D02*
X115035Y85833D01*
X115035Y81263D01*
X113565Y81263D01*
X113565Y83448D02*
X115035Y83448D01*
X115035Y85633D02*
X113565Y85633D01*
X108565Y85833D02*
X108565Y81263D01*
X108565Y85833D02*
X110035Y85833D01*
X110035Y81263D01*
X108565Y81263D01*
X108565Y83448D02*
X110035Y83448D01*
X110035Y85633D02*
X108565Y85633D01*
D10*
X215900Y107950D03*
X190500Y107950D03*
D26*
X4543Y111393D02*
X4543Y122407D01*
X23557Y122407D01*
X23557Y111393D01*
X4543Y111393D01*
X4543Y113536D02*
X23557Y113536D01*
X23557Y115679D02*
X4543Y115679D01*
X4543Y117822D02*
X23557Y117822D01*
X23557Y119965D02*
X4543Y119965D01*
X4543Y122108D02*
X23557Y122108D01*
X4543Y66407D02*
X4543Y55393D01*
X4543Y66407D02*
X23557Y66407D01*
X23557Y55393D01*
X4543Y55393D01*
X4543Y57536D02*
X23557Y57536D01*
X23557Y59679D02*
X4543Y59679D01*
X4543Y61822D02*
X23557Y61822D01*
X23557Y63965D02*
X4543Y63965D01*
X4543Y66108D02*
X23557Y66108D01*
D15*
X44542Y101392D02*
X44542Y106408D01*
X57058Y106408D01*
X57058Y101392D01*
X44542Y101392D01*
X44542Y103533D02*
X57058Y103533D01*
X57058Y105674D02*
X44542Y105674D01*
X44542Y96408D02*
X44542Y91392D01*
X44542Y96408D02*
X57058Y96408D01*
X57058Y91392D01*
X44542Y91392D01*
X44542Y93533D02*
X57058Y93533D01*
X57058Y95674D02*
X44542Y95674D01*
X44542Y86408D02*
X44542Y81392D01*
X44542Y86408D02*
X57058Y86408D01*
X57058Y81392D01*
X44542Y81392D01*
X44542Y83533D02*
X57058Y83533D01*
X57058Y85674D02*
X44542Y85674D01*
X44542Y76408D02*
X44542Y71392D01*
X44542Y76408D02*
X57058Y76408D01*
X57058Y71392D01*
X44542Y71392D01*
X44542Y73533D02*
X57058Y73533D01*
X57058Y75674D02*
X44542Y75674D01*
X62342Y73692D02*
X67358Y73692D01*
X62342Y73692D02*
X62342Y78708D01*
X67358Y78708D01*
X67358Y73692D01*
X67358Y75833D02*
X62342Y75833D01*
X62342Y77974D02*
X67358Y77974D01*
X72342Y73692D02*
X77358Y73692D01*
X72342Y73692D02*
X72342Y78708D01*
X77358Y78708D01*
X77358Y73692D01*
X77358Y75833D02*
X72342Y75833D01*
X72342Y77974D02*
X77358Y77974D01*
X67358Y86392D02*
X62342Y86392D01*
X62342Y91408D01*
X67358Y91408D01*
X67358Y86392D01*
X67358Y88533D02*
X62342Y88533D01*
X62342Y90674D02*
X67358Y90674D01*
X72342Y86392D02*
X77358Y86392D01*
X72342Y86392D02*
X72342Y91408D01*
X77358Y91408D01*
X77358Y86392D01*
X77358Y88533D02*
X72342Y88533D01*
X72342Y90674D02*
X77358Y90674D01*
D27*
X88900Y393700D03*
X88900Y406400D03*
X101600Y393700D03*
X101600Y406400D03*
X114300Y393700D03*
X114300Y406400D03*
X127000Y393700D03*
X127000Y406400D03*
X139700Y393700D03*
X139700Y406400D03*
D15*
X71008Y421608D02*
X65992Y421608D01*
X71008Y421608D02*
X71008Y416592D01*
X65992Y416592D01*
X65992Y421608D01*
X65992Y418733D02*
X71008Y418733D01*
X71008Y420874D02*
X65992Y420874D01*
X61008Y421608D02*
X55992Y421608D01*
X61008Y421608D02*
X61008Y416592D01*
X55992Y416592D01*
X55992Y421608D01*
X55992Y418733D02*
X61008Y418733D01*
X61008Y420874D02*
X55992Y420874D01*
D22*
X62546Y385884D02*
X69534Y385884D01*
X69534Y378896D01*
X62546Y378896D01*
X62546Y385884D01*
X62546Y382965D02*
X69534Y382965D01*
X69534Y403424D02*
X62546Y403424D01*
X69534Y403424D02*
X69534Y396436D01*
X62546Y396436D01*
X62546Y403424D01*
X62546Y400505D02*
X69534Y400505D01*
D15*
X35608Y378492D02*
X30592Y378492D01*
X30592Y383508D01*
X35608Y383508D01*
X35608Y378492D01*
X35608Y380633D02*
X30592Y380633D01*
X30592Y382774D02*
X35608Y382774D01*
X40592Y378492D02*
X45608Y378492D01*
X40592Y378492D02*
X40592Y383508D01*
X45608Y383508D01*
X45608Y378492D01*
X45608Y380633D02*
X40592Y380633D01*
X40592Y382774D02*
X45608Y382774D01*
D28*
X130494Y174006D02*
X130494Y165994D01*
X130494Y174006D02*
X139506Y174006D01*
X139506Y165994D01*
X130494Y165994D01*
X130494Y168140D02*
X139506Y168140D01*
X139506Y170286D02*
X130494Y170286D01*
X130494Y172432D02*
X139506Y172432D01*
X114494Y174006D02*
X114494Y165994D01*
X114494Y174006D02*
X123506Y174006D01*
X123506Y165994D01*
X114494Y165994D01*
X114494Y168140D02*
X123506Y168140D01*
X123506Y170286D02*
X114494Y170286D01*
X114494Y172432D02*
X123506Y172432D01*
X114494Y206994D02*
X114494Y215006D01*
X123506Y215006D01*
X123506Y206994D01*
X114494Y206994D01*
X114494Y209140D02*
X123506Y209140D01*
X123506Y211286D02*
X114494Y211286D01*
X114494Y213432D02*
X123506Y213432D01*
X130494Y215006D02*
X130494Y206994D01*
X130494Y215006D02*
X139506Y215006D01*
X139506Y206994D01*
X130494Y206994D01*
X130494Y209140D02*
X139506Y209140D01*
X139506Y211286D02*
X130494Y211286D01*
X130494Y213432D02*
X139506Y213432D01*
D22*
X63184Y26474D02*
X56196Y26474D01*
X63184Y26474D02*
X63184Y19486D01*
X56196Y19486D01*
X56196Y26474D01*
X56196Y23555D02*
X63184Y23555D01*
X63184Y44014D02*
X56196Y44014D01*
X63184Y44014D02*
X63184Y37026D01*
X56196Y37026D01*
X56196Y44014D01*
X56196Y41095D02*
X63184Y41095D01*
D15*
X62198Y49642D02*
X62198Y54658D01*
X62198Y49642D02*
X57182Y49642D01*
X57182Y54658D01*
X62198Y54658D01*
X62198Y51783D02*
X57182Y51783D01*
X57182Y53924D02*
X62198Y53924D01*
X62198Y59642D02*
X62198Y64658D01*
X62198Y59642D02*
X57182Y59642D01*
X57182Y64658D01*
X62198Y64658D01*
X62198Y61783D02*
X57182Y61783D01*
X57182Y63924D02*
X62198Y63924D01*
X48308Y124492D02*
X43292Y124492D01*
X43292Y129508D01*
X48308Y129508D01*
X48308Y124492D01*
X48308Y126633D02*
X43292Y126633D01*
X43292Y128774D02*
X48308Y128774D01*
X53292Y124492D02*
X58308Y124492D01*
X53292Y124492D02*
X53292Y129508D01*
X58308Y129508D01*
X58308Y124492D01*
X58308Y126633D02*
X53292Y126633D01*
X53292Y128774D02*
X58308Y128774D01*
D29*
X144300Y360200D03*
X144300Y355200D03*
X144300Y350200D03*
X144300Y345200D03*
X144300Y340200D03*
X144300Y335200D03*
X144300Y330200D03*
X144300Y325200D03*
X144300Y320200D03*
X144300Y315200D03*
X144300Y310200D03*
X144300Y305200D03*
X144300Y300200D03*
X139300Y360200D03*
X139300Y355200D03*
X139300Y350200D03*
X139300Y345200D03*
X139300Y340200D03*
X139300Y335200D03*
X139300Y330200D03*
X139300Y325200D03*
X139300Y320200D03*
X139300Y315200D03*
X139300Y310200D03*
X139300Y305200D03*
X139300Y300200D03*
X134300Y360200D03*
X129300Y360200D03*
X124300Y360200D03*
X119300Y360200D03*
X114300Y360200D03*
X109300Y360200D03*
X104300Y360200D03*
X99300Y360200D03*
X94300Y360200D03*
X89300Y360200D03*
X84300Y360200D03*
X134300Y355200D03*
X129300Y355200D03*
X124300Y355200D03*
X119300Y355200D03*
X114300Y355200D03*
X109300Y355200D03*
X104300Y355200D03*
X99300Y355200D03*
X94300Y355200D03*
X89300Y355200D03*
X84300Y355200D03*
X134300Y350200D03*
X129300Y350200D03*
X124300Y350200D03*
X119300Y350200D03*
X114300Y350200D03*
X109300Y350200D03*
X104300Y350200D03*
X99300Y350200D03*
X94300Y350200D03*
X89300Y350200D03*
X84300Y350200D03*
X134300Y345200D03*
X94300Y345200D03*
X89300Y345200D03*
X84300Y345200D03*
X134300Y340200D03*
X94300Y340200D03*
X89300Y340200D03*
X84300Y340200D03*
X134300Y335200D03*
X94300Y335200D03*
X89300Y335200D03*
X84300Y335200D03*
X134300Y330200D03*
X94300Y330200D03*
X89300Y330200D03*
X84300Y330200D03*
X134300Y325200D03*
X94300Y325200D03*
X89300Y325200D03*
X84300Y325200D03*
X134300Y320200D03*
X94300Y320200D03*
X89300Y320200D03*
X84300Y320200D03*
X134300Y315200D03*
X94300Y315200D03*
X89300Y315200D03*
X84300Y315200D03*
X134300Y310200D03*
X129300Y310200D03*
X124300Y310200D03*
X119300Y310200D03*
X114300Y310200D03*
X109300Y310200D03*
X104300Y310200D03*
X99300Y310200D03*
X94300Y310200D03*
X89300Y310200D03*
X84300Y310200D03*
X134300Y305200D03*
X129300Y305200D03*
X124300Y305200D03*
X119300Y305200D03*
X114300Y305200D03*
X109300Y305200D03*
X104300Y305200D03*
X99300Y305200D03*
X94300Y305200D03*
X89300Y305200D03*
X84300Y305200D03*
X134300Y300200D03*
X129300Y300200D03*
X124300Y300200D03*
X119300Y300200D03*
X114300Y300200D03*
X109300Y300200D03*
X104300Y300200D03*
X99300Y300200D03*
X94300Y300200D03*
X89300Y300200D03*
X84300Y300200D03*
D14*
X105818Y250218D02*
X107782Y250218D01*
X105818Y250218D02*
X105818Y255182D01*
X107782Y255182D01*
X107782Y250218D01*
X107782Y252409D02*
X105818Y252409D01*
X105818Y254600D02*
X107782Y254600D01*
X110818Y250218D02*
X112782Y250218D01*
X110818Y250218D02*
X110818Y255182D01*
X112782Y255182D01*
X112782Y250218D01*
X112782Y252409D02*
X110818Y252409D01*
X110818Y254600D02*
X112782Y254600D01*
X115818Y250218D02*
X117782Y250218D01*
X115818Y250218D02*
X115818Y255182D01*
X117782Y255182D01*
X117782Y250218D01*
X117782Y252409D02*
X115818Y252409D01*
X115818Y254600D02*
X117782Y254600D01*
X120818Y250218D02*
X122782Y250218D01*
X120818Y250218D02*
X120818Y255182D01*
X122782Y255182D01*
X122782Y250218D01*
X122782Y252409D02*
X120818Y252409D01*
X120818Y254600D02*
X122782Y254600D01*
X122782Y278218D02*
X120818Y278218D01*
X120818Y283182D01*
X122782Y283182D01*
X122782Y278218D01*
X122782Y280409D02*
X120818Y280409D01*
X120818Y282600D02*
X122782Y282600D01*
X117782Y278218D02*
X115818Y278218D01*
X115818Y283182D01*
X117782Y283182D01*
X117782Y278218D01*
X117782Y280409D02*
X115818Y280409D01*
X115818Y282600D02*
X117782Y282600D01*
X112782Y278218D02*
X110818Y278218D01*
X110818Y283182D01*
X112782Y283182D01*
X112782Y278218D01*
X112782Y280409D02*
X110818Y280409D01*
X110818Y282600D02*
X112782Y282600D01*
X107782Y278218D02*
X105818Y278218D01*
X105818Y283182D01*
X107782Y283182D01*
X107782Y278218D01*
X107782Y280409D02*
X105818Y280409D01*
X105818Y282600D02*
X107782Y282600D01*
D18*
X106787Y259187D02*
X121813Y259187D01*
X106787Y259187D02*
X106787Y274213D01*
X121813Y274213D01*
X121813Y259187D01*
X121813Y261320D02*
X106787Y261320D01*
X106787Y263453D02*
X121813Y263453D01*
X121813Y265586D02*
X106787Y265586D01*
X106787Y267719D02*
X121813Y267719D01*
X121813Y269852D02*
X106787Y269852D01*
X106787Y271985D02*
X121813Y271985D01*
X121813Y274118D02*
X106787Y274118D01*
D15*
X130842Y275542D02*
X130842Y280558D01*
X135858Y280558D01*
X135858Y275542D01*
X130842Y275542D01*
X130842Y277683D02*
X135858Y277683D01*
X135858Y279824D02*
X130842Y279824D01*
X130842Y270558D02*
X130842Y265542D01*
X130842Y270558D02*
X135858Y270558D01*
X135858Y265542D01*
X130842Y265542D01*
X130842Y267683D02*
X135858Y267683D01*
X135858Y269824D02*
X130842Y269824D01*
X92742Y275542D02*
X92742Y280558D01*
X97758Y280558D01*
X97758Y275542D01*
X92742Y275542D01*
X92742Y277683D02*
X97758Y277683D01*
X97758Y279824D02*
X92742Y279824D01*
X92742Y270558D02*
X92742Y265542D01*
X92742Y270558D02*
X97758Y270558D01*
X97758Y265542D01*
X92742Y265542D01*
X92742Y267683D02*
X97758Y267683D01*
X97758Y269824D02*
X92742Y269824D01*
X163942Y314992D02*
X168958Y314992D01*
X163942Y314992D02*
X163942Y320008D01*
X168958Y320008D01*
X168958Y314992D01*
X168958Y317133D02*
X163942Y317133D01*
X163942Y319274D02*
X168958Y319274D01*
X173942Y314992D02*
X178958Y314992D01*
X173942Y314992D02*
X173942Y320008D01*
X178958Y320008D01*
X178958Y314992D01*
X178958Y317133D02*
X173942Y317133D01*
X173942Y319274D02*
X178958Y319274D01*
D17*
X78042Y286558D02*
X78042Y276542D01*
X78042Y286558D02*
X87058Y286558D01*
X87058Y276542D01*
X78042Y276542D01*
X78042Y278683D02*
X87058Y278683D01*
X87058Y280824D02*
X78042Y280824D01*
X78042Y282965D02*
X87058Y282965D01*
X87058Y285106D02*
X78042Y285106D01*
X78042Y269558D02*
X78042Y259542D01*
X78042Y269558D02*
X87058Y269558D01*
X87058Y259542D01*
X78042Y259542D01*
X78042Y261683D02*
X87058Y261683D01*
X87058Y263824D02*
X78042Y263824D01*
X78042Y265965D02*
X87058Y265965D01*
X87058Y268106D02*
X78042Y268106D01*
D15*
X54658Y264192D02*
X49642Y264192D01*
X49642Y269208D01*
X54658Y269208D01*
X54658Y264192D01*
X54658Y266333D02*
X49642Y266333D01*
X49642Y268474D02*
X54658Y268474D01*
X59642Y264192D02*
X64658Y264192D01*
X59642Y264192D02*
X59642Y269208D01*
X64658Y269208D01*
X64658Y264192D01*
X64658Y266333D02*
X59642Y266333D01*
X59642Y268474D02*
X64658Y268474D01*
X64658Y294608D02*
X59642Y294608D01*
X64658Y294608D02*
X64658Y289592D01*
X59642Y289592D01*
X59642Y294608D01*
X59642Y291733D02*
X64658Y291733D01*
X64658Y293874D02*
X59642Y293874D01*
X54658Y294608D02*
X49642Y294608D01*
X54658Y294608D02*
X54658Y289592D01*
X49642Y289592D01*
X49642Y294608D01*
X49642Y291733D02*
X54658Y291733D01*
X54658Y293874D02*
X49642Y293874D01*
X59642Y307308D02*
X64658Y307308D01*
X64658Y302292D01*
X59642Y302292D01*
X59642Y307308D01*
X59642Y304433D02*
X64658Y304433D01*
X64658Y306574D02*
X59642Y306574D01*
X54658Y307308D02*
X49642Y307308D01*
X54658Y307308D02*
X54658Y302292D01*
X49642Y302292D01*
X49642Y307308D01*
X49642Y304433D02*
X54658Y304433D01*
X54658Y306574D02*
X49642Y306574D01*
X59642Y281908D02*
X64658Y281908D01*
X64658Y276892D01*
X59642Y276892D01*
X59642Y281908D01*
X59642Y279033D02*
X64658Y279033D01*
X64658Y281174D02*
X59642Y281174D01*
X54658Y281908D02*
X49642Y281908D01*
X54658Y281908D02*
X54658Y276892D01*
X49642Y276892D01*
X49642Y281908D01*
X49642Y279033D02*
X54658Y279033D01*
X54658Y281174D02*
X49642Y281174D01*
D22*
X167956Y248724D02*
X174944Y248724D01*
X174944Y241736D01*
X167956Y241736D01*
X167956Y248724D01*
X167956Y245805D02*
X174944Y245805D01*
X174944Y266264D02*
X167956Y266264D01*
X174944Y266264D02*
X174944Y259276D01*
X167956Y259276D01*
X167956Y266264D01*
X167956Y263345D02*
X174944Y263345D01*
D15*
X168958Y276892D02*
X163942Y276892D01*
X163942Y281908D01*
X168958Y281908D01*
X168958Y276892D01*
X168958Y279033D02*
X163942Y279033D01*
X163942Y281174D02*
X168958Y281174D01*
X173942Y276892D02*
X178958Y276892D01*
X173942Y276892D02*
X173942Y281908D01*
X178958Y281908D01*
X178958Y276892D01*
X178958Y279033D02*
X173942Y279033D01*
X173942Y281174D02*
X178958Y281174D01*
X168958Y302292D02*
X163942Y302292D01*
X163942Y307308D01*
X168958Y307308D01*
X168958Y302292D01*
X168958Y304433D02*
X163942Y304433D01*
X163942Y306574D02*
X168958Y306574D01*
X173942Y302292D02*
X178958Y302292D01*
X173942Y302292D02*
X173942Y307308D01*
X178958Y307308D01*
X178958Y302292D01*
X178958Y304433D02*
X173942Y304433D01*
X173942Y306574D02*
X178958Y306574D01*
X168958Y289592D02*
X163942Y289592D01*
X163942Y294608D01*
X168958Y294608D01*
X168958Y289592D01*
X168958Y291733D02*
X163942Y291733D01*
X163942Y293874D02*
X168958Y293874D01*
X173942Y289592D02*
X178958Y289592D01*
X173942Y289592D02*
X173942Y294608D01*
X178958Y294608D01*
X178958Y289592D01*
X178958Y291733D02*
X173942Y291733D01*
X173942Y293874D02*
X178958Y293874D01*
D25*
X164685Y353915D02*
X163215Y353915D01*
X163215Y356885D01*
X164685Y356885D01*
X164685Y353915D01*
X164685Y356100D02*
X163215Y356100D01*
X168215Y353915D02*
X169685Y353915D01*
X168215Y353915D02*
X168215Y356885D01*
X169685Y356885D01*
X169685Y353915D01*
X169685Y356100D02*
X168215Y356100D01*
X173215Y353915D02*
X174685Y353915D01*
X173215Y353915D02*
X173215Y356885D01*
X174685Y356885D01*
X174685Y353915D01*
X174685Y356100D02*
X173215Y356100D01*
X178215Y353915D02*
X179685Y353915D01*
X178215Y353915D02*
X178215Y356885D01*
X179685Y356885D01*
X179685Y353915D01*
X179685Y356100D02*
X178215Y356100D01*
X178215Y328915D02*
X179685Y328915D01*
X178215Y328915D02*
X178215Y331885D01*
X179685Y331885D01*
X179685Y328915D01*
X179685Y331100D02*
X178215Y331100D01*
X174685Y328915D02*
X173215Y328915D01*
X173215Y331885D01*
X174685Y331885D01*
X174685Y328915D01*
X174685Y331100D02*
X173215Y331100D01*
X169685Y328915D02*
X168215Y328915D01*
X168215Y331885D01*
X169685Y331885D01*
X169685Y328915D01*
X169685Y331100D02*
X168215Y331100D01*
X164685Y328915D02*
X163215Y328915D01*
X163215Y331885D01*
X164685Y331885D01*
X164685Y328915D01*
X164685Y331100D02*
X163215Y331100D01*
D30*
X163959Y342409D02*
X178941Y342409D01*
X163959Y342409D02*
X163959Y343391D01*
X178941Y343391D01*
X178941Y342409D01*
D15*
X168958Y365792D02*
X163942Y365792D01*
X163942Y370808D01*
X168958Y370808D01*
X168958Y365792D01*
X168958Y367933D02*
X163942Y367933D01*
X163942Y370074D02*
X168958Y370074D01*
X173942Y365792D02*
X178958Y365792D01*
X173942Y365792D02*
X173942Y370808D01*
X178958Y370808D01*
X178958Y365792D01*
X178958Y367933D02*
X173942Y367933D01*
X173942Y370074D02*
X178958Y370074D01*
D31*
X55145Y327195D02*
X55145Y319705D01*
X48655Y319705D01*
X48655Y327195D01*
X55145Y327195D01*
X55145Y321871D02*
X48655Y321871D01*
X48655Y324037D02*
X55145Y324037D01*
X55145Y326203D02*
X48655Y326203D01*
X48655Y333205D02*
X48655Y340695D01*
X55145Y340695D01*
X55145Y333205D01*
X48655Y333205D01*
X48655Y335371D02*
X55145Y335371D01*
X55145Y337537D02*
X48655Y337537D01*
X48655Y339703D02*
X55145Y339703D01*
X59155Y340695D02*
X59155Y333205D01*
X59155Y340695D02*
X65645Y340695D01*
X65645Y333205D01*
X59155Y333205D01*
X59155Y335371D02*
X65645Y335371D01*
X65645Y337537D02*
X59155Y337537D01*
X59155Y339703D02*
X65645Y339703D01*
X65645Y327195D02*
X65645Y319705D01*
X59155Y319705D01*
X59155Y327195D01*
X65645Y327195D01*
X65645Y321871D02*
X59155Y321871D01*
X59155Y324037D02*
X65645Y324037D01*
X65645Y326203D02*
X59155Y326203D01*
D15*
X151242Y378492D02*
X156258Y378492D01*
X151242Y378492D02*
X151242Y383508D01*
X156258Y383508D01*
X156258Y378492D01*
X156258Y380633D02*
X151242Y380633D01*
X151242Y382774D02*
X156258Y382774D01*
X161242Y378492D02*
X166258Y378492D01*
X161242Y378492D02*
X161242Y383508D01*
X166258Y383508D01*
X166258Y378492D01*
X166258Y380633D02*
X161242Y380633D01*
X161242Y382774D02*
X166258Y382774D01*
D10*
X449580Y520700D03*
X449580Y495300D03*
X449580Y469900D03*
X449580Y444500D03*
X449580Y419100D03*
X449580Y393700D03*
X449580Y368300D03*
X449580Y342900D03*
X449580Y317500D03*
X449580Y292100D03*
X449580Y266700D03*
X449580Y241300D03*
X449580Y215900D03*
X449580Y190500D03*
X449580Y165100D03*
X449580Y139700D03*
X246380Y241300D03*
X246380Y266700D03*
X246380Y292100D03*
X246380Y317500D03*
X246380Y342900D03*
X246380Y368300D03*
X246380Y393700D03*
X246380Y419100D03*
X246380Y444500D03*
X246380Y469900D03*
X246380Y495300D03*
X246380Y520700D03*
D11*
X282480Y576000D02*
X300480Y576000D01*
X300480Y566000D02*
X282480Y566000D01*
X282480Y556000D02*
X300480Y556000D01*
X300480Y546000D02*
X282480Y546000D01*
X282480Y536000D02*
X300480Y536000D01*
X300480Y526000D02*
X282480Y526000D01*
X282480Y516000D02*
X300480Y516000D01*
X300480Y506000D02*
X282480Y506000D01*
X282480Y496000D02*
X300480Y496000D01*
X300480Y486000D02*
X282480Y486000D01*
X282480Y476000D02*
X300480Y476000D01*
X300480Y466000D02*
X282480Y466000D01*
X282480Y456000D02*
X300480Y456000D01*
X300480Y446000D02*
X282480Y446000D01*
X312980Y450000D02*
X312980Y432000D01*
X322980Y432000D02*
X322980Y450000D01*
X332980Y450000D02*
X332980Y432000D01*
X342980Y432000D02*
X342980Y450000D01*
X352980Y450000D02*
X352980Y432000D01*
X362980Y432000D02*
X362980Y450000D01*
X372980Y450000D02*
X372980Y432000D01*
X382980Y432000D02*
X382980Y450000D01*
X395480Y446000D02*
X413480Y446000D01*
X413480Y456000D02*
X395480Y456000D01*
X395480Y466000D02*
X413480Y466000D01*
X413480Y476000D02*
X395480Y476000D01*
X395480Y486000D02*
X413480Y486000D01*
X413480Y496000D02*
X395480Y496000D01*
X395480Y506000D02*
X413480Y506000D01*
X413480Y516000D02*
X395480Y516000D01*
X395480Y526000D02*
X413480Y526000D01*
X413480Y536000D02*
X395480Y536000D01*
X395480Y546000D02*
X413480Y546000D01*
X413480Y556000D02*
X395480Y556000D01*
X395480Y566000D02*
X413480Y566000D01*
X413480Y576000D02*
X395480Y576000D01*
D12*
X242570Y544830D03*
X411480Y12700D03*
D13*
X259080Y25400D03*
X436880Y25400D03*
D14*
X356462Y55618D02*
X354498Y55618D01*
X354498Y64582D01*
X356462Y64582D01*
X356462Y55618D01*
X356462Y57809D02*
X354498Y57809D01*
X354498Y60000D02*
X356462Y60000D01*
X356462Y62191D02*
X354498Y62191D01*
X354498Y64382D02*
X356462Y64382D01*
X351462Y55618D02*
X349498Y55618D01*
X349498Y64582D01*
X351462Y64582D01*
X351462Y55618D01*
X351462Y57809D02*
X349498Y57809D01*
X349498Y60000D02*
X351462Y60000D01*
X351462Y62191D02*
X349498Y62191D01*
X349498Y64382D02*
X351462Y64382D01*
D15*
X377722Y55592D02*
X382738Y55592D01*
X377722Y55592D02*
X377722Y64608D01*
X382738Y64608D01*
X382738Y55592D01*
X382738Y57733D02*
X377722Y57733D01*
X377722Y59874D02*
X382738Y59874D01*
X382738Y62015D02*
X377722Y62015D01*
X377722Y64156D02*
X382738Y64156D01*
X374988Y55592D02*
X369972Y55592D01*
X369972Y64608D01*
X374988Y64608D01*
X374988Y55592D01*
X374988Y57733D02*
X369972Y57733D01*
X369972Y59874D02*
X374988Y59874D01*
X374988Y62015D02*
X369972Y62015D01*
X369972Y64156D02*
X374988Y64156D01*
D14*
X366462Y55618D02*
X364498Y55618D01*
X364498Y64582D01*
X366462Y64582D01*
X366462Y55618D01*
X366462Y57809D02*
X364498Y57809D01*
X364498Y60000D02*
X366462Y60000D01*
X366462Y62191D02*
X364498Y62191D01*
X364498Y64382D02*
X366462Y64382D01*
X361462Y55618D02*
X359498Y55618D01*
X359498Y64582D01*
X361462Y64582D01*
X361462Y55618D01*
X361462Y57809D02*
X359498Y57809D01*
X359498Y60000D02*
X361462Y60000D01*
X361462Y62191D02*
X359498Y62191D01*
X359498Y64382D02*
X361462Y64382D01*
X341462Y64582D02*
X339498Y64582D01*
X341462Y64582D02*
X341462Y55618D01*
X339498Y55618D01*
X339498Y64582D01*
X339498Y57809D02*
X341462Y57809D01*
X341462Y60000D02*
X339498Y60000D01*
X339498Y62191D02*
X341462Y62191D01*
X341462Y64382D02*
X339498Y64382D01*
X344498Y64582D02*
X346462Y64582D01*
X346462Y55618D01*
X344498Y55618D01*
X344498Y64582D01*
X344498Y57809D02*
X346462Y57809D01*
X346462Y60000D02*
X344498Y60000D01*
X344498Y62191D02*
X346462Y62191D01*
X346462Y64382D02*
X344498Y64382D01*
D15*
X318238Y64608D02*
X313222Y64608D01*
X318238Y64608D02*
X318238Y55592D01*
X313222Y55592D01*
X313222Y64608D01*
X313222Y57733D02*
X318238Y57733D01*
X318238Y59874D02*
X313222Y59874D01*
X313222Y62015D02*
X318238Y62015D01*
X318238Y64156D02*
X313222Y64156D01*
X320972Y64608D02*
X325988Y64608D01*
X325988Y55592D01*
X320972Y55592D01*
X320972Y64608D01*
X320972Y57733D02*
X325988Y57733D01*
X325988Y59874D02*
X320972Y59874D01*
X320972Y62015D02*
X325988Y62015D01*
X325988Y64156D02*
X320972Y64156D01*
D14*
X329498Y64582D02*
X331462Y64582D01*
X331462Y55618D01*
X329498Y55618D01*
X329498Y64582D01*
X329498Y57809D02*
X331462Y57809D01*
X331462Y60000D02*
X329498Y60000D01*
X329498Y62191D02*
X331462Y62191D01*
X331462Y64382D02*
X329498Y64382D01*
X334498Y64582D02*
X336462Y64582D01*
X336462Y55618D01*
X334498Y55618D01*
X334498Y64582D01*
X334498Y57809D02*
X336462Y57809D01*
X336462Y60000D02*
X334498Y60000D01*
X334498Y62191D02*
X336462Y62191D01*
X336462Y64382D02*
X334498Y64382D01*
D16*
X319080Y49050D03*
X376880Y49050D03*
D17*
X331288Y163292D02*
X331288Y172308D01*
X331288Y163292D02*
X286272Y163292D01*
X286272Y172308D01*
X331288Y172308D01*
X331288Y165433D02*
X286272Y165433D01*
X286272Y167574D02*
X331288Y167574D01*
X331288Y169715D02*
X286272Y169715D01*
X286272Y171856D02*
X331288Y171856D01*
X331288Y183292D02*
X331288Y192308D01*
X331288Y183292D02*
X286272Y183292D01*
X286272Y192308D01*
X331288Y192308D01*
X331288Y185433D02*
X286272Y185433D01*
X286272Y187574D02*
X331288Y187574D01*
X331288Y189715D02*
X286272Y189715D01*
X286272Y191856D02*
X331288Y191856D01*
D18*
X273293Y151313D02*
X240267Y151313D01*
X273293Y151313D02*
X273293Y136287D01*
X240267Y136287D01*
X240267Y151313D01*
X240267Y138420D02*
X273293Y138420D01*
X273293Y140553D02*
X240267Y140553D01*
X240267Y142686D02*
X273293Y142686D01*
X273293Y144819D02*
X240267Y144819D01*
X240267Y146952D02*
X273293Y146952D01*
X273293Y149085D02*
X240267Y149085D01*
X240267Y151218D02*
X273293Y151218D01*
X273293Y219313D02*
X240267Y219313D01*
X273293Y219313D02*
X273293Y204287D01*
X240267Y204287D01*
X240267Y219313D01*
X240267Y206420D02*
X273293Y206420D01*
X273293Y208553D02*
X240267Y208553D01*
X240267Y210686D02*
X273293Y210686D01*
X273293Y212819D02*
X240267Y212819D01*
X240267Y214952D02*
X273293Y214952D01*
X273293Y217085D02*
X240267Y217085D01*
X240267Y219218D02*
X273293Y219218D01*
D19*
X424919Y183268D02*
X424919Y178732D01*
X413883Y178732D01*
X413883Y183268D01*
X424919Y183268D01*
X424919Y180854D02*
X413883Y180854D01*
X413883Y182976D02*
X424919Y182976D01*
X424919Y188232D02*
X424919Y192768D01*
X424919Y188232D02*
X413883Y188232D01*
X413883Y192768D01*
X424919Y192768D01*
X424919Y190354D02*
X413883Y190354D01*
X413883Y192476D02*
X424919Y192476D01*
X424919Y197732D02*
X424919Y202268D01*
X424919Y197732D02*
X413883Y197732D01*
X413883Y202268D01*
X424919Y202268D01*
X424919Y199854D02*
X413883Y199854D01*
X413883Y201976D02*
X424919Y201976D01*
X398917Y202268D02*
X398917Y197732D01*
X387881Y197732D01*
X387881Y202268D01*
X398917Y202268D01*
X398917Y199854D02*
X387881Y199854D01*
X387881Y201976D02*
X398917Y201976D01*
X398917Y183268D02*
X398917Y178732D01*
X387881Y178732D01*
X387881Y183268D01*
X398917Y183268D01*
X398917Y180854D02*
X387881Y180854D01*
X387881Y182976D02*
X398917Y182976D01*
D20*
X425456Y70176D02*
X425456Y63224D01*
X417504Y63224D01*
X417504Y70176D01*
X425456Y70176D01*
X425456Y65426D02*
X417504Y65426D01*
X417504Y67628D02*
X425456Y67628D01*
X425456Y69830D02*
X417504Y69830D01*
X425456Y82224D02*
X425456Y89176D01*
X425456Y82224D02*
X417504Y82224D01*
X417504Y89176D01*
X425456Y89176D01*
X425456Y84426D02*
X417504Y84426D01*
X417504Y86628D02*
X425456Y86628D01*
X425456Y88830D02*
X417504Y88830D01*
X404456Y79676D02*
X404456Y72724D01*
X396504Y72724D01*
X396504Y79676D01*
X404456Y79676D01*
X404456Y74926D02*
X396504Y74926D01*
X396504Y77128D02*
X404456Y77128D01*
X404456Y79330D02*
X396504Y79330D01*
D15*
X435578Y182992D02*
X435578Y188008D01*
X435578Y182992D02*
X430562Y182992D01*
X430562Y188008D01*
X435578Y188008D01*
X435578Y185133D02*
X430562Y185133D01*
X430562Y187274D02*
X435578Y187274D01*
X435578Y192992D02*
X435578Y198008D01*
X435578Y192992D02*
X430562Y192992D01*
X430562Y198008D01*
X435578Y198008D01*
X435578Y195133D02*
X430562Y195133D01*
X430562Y197274D02*
X435578Y197274D01*
X431688Y154908D02*
X426672Y154908D01*
X431688Y154908D02*
X431688Y149892D01*
X426672Y149892D01*
X426672Y154908D01*
X426672Y152033D02*
X431688Y152033D01*
X431688Y154174D02*
X426672Y154174D01*
X421688Y154908D02*
X416672Y154908D01*
X421688Y154908D02*
X421688Y149892D01*
X416672Y149892D01*
X416672Y154908D01*
X416672Y152033D02*
X421688Y152033D01*
X421688Y154174D02*
X416672Y154174D01*
D21*
X433230Y90350D02*
X433230Y85050D01*
X433230Y90350D02*
X440530Y90350D01*
X440530Y85050D01*
X433230Y85050D01*
X433230Y87207D02*
X440530Y87207D01*
X440530Y89364D02*
X433230Y89364D01*
X433230Y67350D02*
X433230Y62050D01*
X433230Y67350D02*
X440530Y67350D01*
X440530Y62050D01*
X433230Y62050D01*
X433230Y64207D02*
X440530Y64207D01*
X440530Y66364D02*
X433230Y66364D01*
D15*
X448342Y78692D02*
X448342Y83708D01*
X453358Y83708D01*
X453358Y78692D01*
X448342Y78692D01*
X448342Y80833D02*
X453358Y80833D01*
X453358Y82974D02*
X448342Y82974D01*
X448342Y73708D02*
X448342Y68692D01*
X448342Y73708D02*
X453358Y73708D01*
X453358Y68692D01*
X448342Y68692D01*
X448342Y70833D02*
X453358Y70833D01*
X453358Y72974D02*
X448342Y72974D01*
X399938Y167608D02*
X394922Y167608D01*
X399938Y167608D02*
X399938Y162592D01*
X394922Y162592D01*
X394922Y167608D01*
X394922Y164733D02*
X399938Y164733D01*
X399938Y166874D02*
X394922Y166874D01*
X389938Y167608D02*
X384922Y167608D01*
X389938Y167608D02*
X389938Y162592D01*
X384922Y162592D01*
X384922Y167608D01*
X384922Y164733D02*
X389938Y164733D01*
X389938Y166874D02*
X384922Y166874D01*
D19*
X361211Y119718D02*
X361211Y115182D01*
X361211Y119718D02*
X372247Y119718D01*
X372247Y115182D01*
X361211Y115182D01*
X361211Y117304D02*
X372247Y117304D01*
X372247Y119426D02*
X361211Y119426D01*
X361211Y110218D02*
X361211Y105682D01*
X361211Y110218D02*
X372247Y110218D01*
X372247Y105682D01*
X361211Y105682D01*
X361211Y107804D02*
X372247Y107804D01*
X372247Y109926D02*
X361211Y109926D01*
X361211Y100718D02*
X361211Y96182D01*
X361211Y100718D02*
X372247Y100718D01*
X372247Y96182D01*
X361211Y96182D01*
X361211Y98304D02*
X372247Y98304D01*
X372247Y100426D02*
X361211Y100426D01*
X387213Y100718D02*
X387213Y96182D01*
X387213Y100718D02*
X398249Y100718D01*
X398249Y96182D01*
X387213Y96182D01*
X387213Y98304D02*
X398249Y98304D01*
X398249Y100426D02*
X387213Y100426D01*
X387213Y115182D02*
X387213Y119718D01*
X398249Y119718D01*
X398249Y115182D01*
X387213Y115182D01*
X387213Y117304D02*
X398249Y117304D01*
X398249Y119426D02*
X387213Y119426D01*
D22*
X364174Y140774D02*
X357186Y140774D01*
X364174Y140774D02*
X364174Y133786D01*
X357186Y133786D01*
X357186Y140774D01*
X357186Y137855D02*
X364174Y137855D01*
X364174Y158314D02*
X357186Y158314D01*
X364174Y158314D02*
X364174Y151326D01*
X357186Y151326D01*
X357186Y158314D01*
X357186Y155395D02*
X364174Y155395D01*
D15*
X402622Y115458D02*
X402622Y110442D01*
X402622Y115458D02*
X407638Y115458D01*
X407638Y110442D01*
X402622Y110442D01*
X402622Y112583D02*
X407638Y112583D01*
X407638Y114724D02*
X402622Y114724D01*
X402622Y105458D02*
X402622Y100442D01*
X402622Y105458D02*
X407638Y105458D01*
X407638Y100442D01*
X402622Y100442D01*
X402622Y102583D02*
X407638Y102583D01*
X407638Y104724D02*
X402622Y104724D01*
X413972Y57118D02*
X418988Y57118D01*
X418988Y52102D01*
X413972Y52102D01*
X413972Y57118D01*
X413972Y54243D02*
X418988Y54243D01*
X418988Y56384D02*
X413972Y56384D01*
X408988Y57118D02*
X403972Y57118D01*
X408988Y57118D02*
X408988Y52102D01*
X403972Y52102D01*
X403972Y57118D01*
X403972Y54243D02*
X408988Y54243D01*
X408988Y56384D02*
X403972Y56384D01*
X377222Y148542D02*
X377222Y153558D01*
X382238Y153558D01*
X382238Y148542D01*
X377222Y148542D01*
X377222Y150683D02*
X382238Y150683D01*
X382238Y152824D02*
X377222Y152824D01*
X377222Y143558D02*
X377222Y138542D01*
X377222Y143558D02*
X382238Y143558D01*
X382238Y138542D01*
X377222Y138542D01*
X377222Y140683D02*
X382238Y140683D01*
X382238Y142824D02*
X377222Y142824D01*
X389922Y148542D02*
X389922Y153558D01*
X394938Y153558D01*
X394938Y148542D01*
X389922Y148542D01*
X389922Y150683D02*
X394938Y150683D01*
X394938Y152824D02*
X389922Y152824D01*
X389922Y143558D02*
X389922Y138542D01*
X389922Y143558D02*
X394938Y143558D01*
X394938Y138542D01*
X389922Y138542D01*
X389922Y140683D02*
X394938Y140683D01*
X394938Y142824D02*
X389922Y142824D01*
X388572Y87598D02*
X393588Y87598D01*
X393588Y82582D01*
X388572Y82582D01*
X388572Y87598D01*
X388572Y84723D02*
X393588Y84723D01*
X393588Y86864D02*
X388572Y86864D01*
X383588Y87598D02*
X378572Y87598D01*
X383588Y87598D02*
X383588Y82582D01*
X378572Y82582D01*
X378572Y87598D01*
X378572Y84723D02*
X383588Y84723D01*
X383588Y86864D02*
X378572Y86864D01*
D23*
X306330Y108070D03*
X306330Y113070D03*
X306330Y118070D03*
X306330Y123070D03*
X326330Y123070D03*
X326330Y118070D03*
X326330Y113070D03*
X326330Y108070D03*
D24*
X316230Y115570D03*
D15*
X334042Y117998D02*
X334042Y112982D01*
X334042Y117998D02*
X339058Y117998D01*
X339058Y112982D01*
X334042Y112982D01*
X334042Y115123D02*
X339058Y115123D01*
X339058Y117264D02*
X334042Y117264D01*
X334042Y107998D02*
X334042Y102982D01*
X334042Y107998D02*
X339058Y107998D01*
X339058Y102982D01*
X334042Y102982D01*
X334042Y105123D02*
X339058Y105123D01*
X339058Y107264D02*
X334042Y107264D01*
X364522Y86756D02*
X364522Y81740D01*
X364522Y86756D02*
X369538Y86756D01*
X369538Y81740D01*
X364522Y81740D01*
X364522Y83881D02*
X369538Y83881D01*
X369538Y86022D02*
X364522Y86022D01*
X364522Y76756D02*
X364522Y71740D01*
X364522Y76756D02*
X369538Y76756D01*
X369538Y71740D01*
X364522Y71740D01*
X364522Y73881D02*
X369538Y73881D01*
X369538Y76022D02*
X364522Y76022D01*
X326422Y81740D02*
X326422Y86756D01*
X331438Y86756D01*
X331438Y81740D01*
X326422Y81740D01*
X326422Y83881D02*
X331438Y83881D01*
X331438Y86022D02*
X326422Y86022D01*
X326422Y76756D02*
X326422Y71740D01*
X326422Y76756D02*
X331438Y76756D01*
X331438Y71740D01*
X326422Y71740D01*
X326422Y73881D02*
X331438Y73881D01*
X331438Y76022D02*
X326422Y76022D01*
D25*
X343715Y77733D02*
X343715Y72663D01*
X342245Y72663D01*
X342245Y77733D01*
X343715Y77733D01*
X343715Y74848D02*
X342245Y74848D01*
X342245Y77033D02*
X343715Y77033D01*
X348715Y77233D02*
X348715Y72663D01*
X347245Y72663D01*
X347245Y77233D01*
X348715Y77233D01*
X348715Y74848D02*
X347245Y74848D01*
X347245Y77033D02*
X348715Y77033D01*
X353715Y77233D02*
X353715Y72663D01*
X352245Y72663D01*
X352245Y77233D01*
X353715Y77233D01*
X353715Y74848D02*
X352245Y74848D01*
X352245Y77033D02*
X353715Y77033D01*
X352245Y81263D02*
X352245Y85833D01*
X353715Y85833D01*
X353715Y81263D01*
X352245Y81263D01*
X352245Y83448D02*
X353715Y83448D01*
X353715Y85633D02*
X352245Y85633D01*
X347245Y85833D02*
X347245Y81263D01*
X347245Y85833D02*
X348715Y85833D01*
X348715Y81263D01*
X347245Y81263D01*
X347245Y83448D02*
X348715Y83448D01*
X348715Y85633D02*
X347245Y85633D01*
X342245Y85833D02*
X342245Y81263D01*
X342245Y85833D02*
X343715Y85833D01*
X343715Y81263D01*
X342245Y81263D01*
X342245Y83448D02*
X343715Y83448D01*
X343715Y85633D02*
X342245Y85633D01*
D10*
X449580Y107950D03*
X424180Y107950D03*
D26*
X238223Y111393D02*
X238223Y122407D01*
X257237Y122407D01*
X257237Y111393D01*
X238223Y111393D01*
X238223Y113536D02*
X257237Y113536D01*
X257237Y115679D02*
X238223Y115679D01*
X238223Y117822D02*
X257237Y117822D01*
X257237Y119965D02*
X238223Y119965D01*
X238223Y122108D02*
X257237Y122108D01*
X238223Y66407D02*
X238223Y55393D01*
X238223Y66407D02*
X257237Y66407D01*
X257237Y55393D01*
X238223Y55393D01*
X238223Y57536D02*
X257237Y57536D01*
X257237Y59679D02*
X238223Y59679D01*
X238223Y61822D02*
X257237Y61822D01*
X257237Y63965D02*
X238223Y63965D01*
X238223Y66108D02*
X257237Y66108D01*
D15*
X278222Y101392D02*
X278222Y106408D01*
X290738Y106408D01*
X290738Y101392D01*
X278222Y101392D01*
X278222Y103533D02*
X290738Y103533D01*
X290738Y105674D02*
X278222Y105674D01*
X278222Y96408D02*
X278222Y91392D01*
X278222Y96408D02*
X290738Y96408D01*
X290738Y91392D01*
X278222Y91392D01*
X278222Y93533D02*
X290738Y93533D01*
X290738Y95674D02*
X278222Y95674D01*
X278222Y86408D02*
X278222Y81392D01*
X278222Y86408D02*
X290738Y86408D01*
X290738Y81392D01*
X278222Y81392D01*
X278222Y83533D02*
X290738Y83533D01*
X290738Y85674D02*
X278222Y85674D01*
X278222Y76408D02*
X278222Y71392D01*
X278222Y76408D02*
X290738Y76408D01*
X290738Y71392D01*
X278222Y71392D01*
X278222Y73533D02*
X290738Y73533D01*
X290738Y75674D02*
X278222Y75674D01*
X296022Y73692D02*
X301038Y73692D01*
X296022Y73692D02*
X296022Y78708D01*
X301038Y78708D01*
X301038Y73692D01*
X301038Y75833D02*
X296022Y75833D01*
X296022Y77974D02*
X301038Y77974D01*
X306022Y73692D02*
X311038Y73692D01*
X306022Y73692D02*
X306022Y78708D01*
X311038Y78708D01*
X311038Y73692D01*
X311038Y75833D02*
X306022Y75833D01*
X306022Y77974D02*
X311038Y77974D01*
X301038Y86392D02*
X296022Y86392D01*
X296022Y91408D01*
X301038Y91408D01*
X301038Y86392D01*
X301038Y88533D02*
X296022Y88533D01*
X296022Y90674D02*
X301038Y90674D01*
X306022Y86392D02*
X311038Y86392D01*
X306022Y86392D02*
X306022Y91408D01*
X311038Y91408D01*
X311038Y86392D01*
X311038Y88533D02*
X306022Y88533D01*
X306022Y90674D02*
X311038Y90674D01*
D27*
X322580Y393700D03*
X322580Y406400D03*
X335280Y393700D03*
X335280Y406400D03*
X347980Y393700D03*
X347980Y406400D03*
X360680Y393700D03*
X360680Y406400D03*
X373380Y393700D03*
X373380Y406400D03*
D15*
X304688Y421608D02*
X299672Y421608D01*
X304688Y421608D02*
X304688Y416592D01*
X299672Y416592D01*
X299672Y421608D01*
X299672Y418733D02*
X304688Y418733D01*
X304688Y420874D02*
X299672Y420874D01*
X294688Y421608D02*
X289672Y421608D01*
X294688Y421608D02*
X294688Y416592D01*
X289672Y416592D01*
X289672Y421608D01*
X289672Y418733D02*
X294688Y418733D01*
X294688Y420874D02*
X289672Y420874D01*
D22*
X296226Y385884D02*
X303214Y385884D01*
X303214Y378896D01*
X296226Y378896D01*
X296226Y385884D01*
X296226Y382965D02*
X303214Y382965D01*
X303214Y403424D02*
X296226Y403424D01*
X303214Y403424D02*
X303214Y396436D01*
X296226Y396436D01*
X296226Y403424D01*
X296226Y400505D02*
X303214Y400505D01*
D15*
X269288Y378492D02*
X264272Y378492D01*
X264272Y383508D01*
X269288Y383508D01*
X269288Y378492D01*
X269288Y380633D02*
X264272Y380633D01*
X264272Y382774D02*
X269288Y382774D01*
X274272Y378492D02*
X279288Y378492D01*
X274272Y378492D02*
X274272Y383508D01*
X279288Y383508D01*
X279288Y378492D01*
X279288Y380633D02*
X274272Y380633D01*
X274272Y382774D02*
X279288Y382774D01*
D28*
X364174Y174006D02*
X364174Y165994D01*
X364174Y174006D02*
X373186Y174006D01*
X373186Y165994D01*
X364174Y165994D01*
X364174Y168140D02*
X373186Y168140D01*
X373186Y170286D02*
X364174Y170286D01*
X364174Y172432D02*
X373186Y172432D01*
X348174Y174006D02*
X348174Y165994D01*
X348174Y174006D02*
X357186Y174006D01*
X357186Y165994D01*
X348174Y165994D01*
X348174Y168140D02*
X357186Y168140D01*
X357186Y170286D02*
X348174Y170286D01*
X348174Y172432D02*
X357186Y172432D01*
X348174Y206994D02*
X348174Y215006D01*
X357186Y215006D01*
X357186Y206994D01*
X348174Y206994D01*
X348174Y209140D02*
X357186Y209140D01*
X357186Y211286D02*
X348174Y211286D01*
X348174Y213432D02*
X357186Y213432D01*
X364174Y215006D02*
X364174Y206994D01*
X364174Y215006D02*
X373186Y215006D01*
X373186Y206994D01*
X364174Y206994D01*
X364174Y209140D02*
X373186Y209140D01*
X373186Y211286D02*
X364174Y211286D01*
X364174Y213432D02*
X373186Y213432D01*
D22*
X296864Y26474D02*
X289876Y26474D01*
X296864Y26474D02*
X296864Y19486D01*
X289876Y19486D01*
X289876Y26474D01*
X289876Y23555D02*
X296864Y23555D01*
X296864Y44014D02*
X289876Y44014D01*
X296864Y44014D02*
X296864Y37026D01*
X289876Y37026D01*
X289876Y44014D01*
X289876Y41095D02*
X296864Y41095D01*
D15*
X295878Y49642D02*
X295878Y54658D01*
X295878Y49642D02*
X290862Y49642D01*
X290862Y54658D01*
X295878Y54658D01*
X295878Y51783D02*
X290862Y51783D01*
X290862Y53924D02*
X295878Y53924D01*
X295878Y59642D02*
X295878Y64658D01*
X295878Y59642D02*
X290862Y59642D01*
X290862Y64658D01*
X295878Y64658D01*
X295878Y61783D02*
X290862Y61783D01*
X290862Y63924D02*
X295878Y63924D01*
X281988Y124492D02*
X276972Y124492D01*
X276972Y129508D01*
X281988Y129508D01*
X281988Y124492D01*
X281988Y126633D02*
X276972Y126633D01*
X276972Y128774D02*
X281988Y128774D01*
X286972Y124492D02*
X291988Y124492D01*
X286972Y124492D02*
X286972Y129508D01*
X291988Y129508D01*
X291988Y124492D01*
X291988Y126633D02*
X286972Y126633D01*
X286972Y128774D02*
X291988Y128774D01*
D29*
X377980Y360200D03*
X377980Y355200D03*
X377980Y350200D03*
X377980Y345200D03*
X377980Y340200D03*
X377980Y335200D03*
X377980Y330200D03*
X377980Y325200D03*
X377980Y320200D03*
X377980Y315200D03*
X377980Y310200D03*
X377980Y305200D03*
X377980Y300200D03*
X372980Y360200D03*
X372980Y355200D03*
X372980Y350200D03*
X372980Y345200D03*
X372980Y340200D03*
X372980Y335200D03*
X372980Y330200D03*
X372980Y325200D03*
X372980Y320200D03*
X372980Y315200D03*
X372980Y310200D03*
X372980Y305200D03*
X372980Y300200D03*
X367980Y360200D03*
X362980Y360200D03*
X357980Y360200D03*
X352980Y360200D03*
X347980Y360200D03*
X342980Y360200D03*
X337980Y360200D03*
X332980Y360200D03*
X327980Y360200D03*
X322980Y360200D03*
X317980Y360200D03*
X367980Y355200D03*
X362980Y355200D03*
X357980Y355200D03*
X352980Y355200D03*
X347980Y355200D03*
X342980Y355200D03*
X337980Y355200D03*
X332980Y355200D03*
X327980Y355200D03*
X322980Y355200D03*
X317980Y355200D03*
X367980Y350200D03*
X362980Y350200D03*
X357980Y350200D03*
X352980Y350200D03*
X347980Y350200D03*
X342980Y350200D03*
X337980Y350200D03*
X332980Y350200D03*
X327980Y350200D03*
X322980Y350200D03*
X317980Y350200D03*
X367980Y345200D03*
X327980Y345200D03*
X322980Y345200D03*
X317980Y345200D03*
X367980Y340200D03*
X327980Y340200D03*
X322980Y340200D03*
X317980Y340200D03*
X367980Y335200D03*
X327980Y335200D03*
X322980Y335200D03*
X317980Y335200D03*
X367980Y330200D03*
X327980Y330200D03*
X322980Y330200D03*
X317980Y330200D03*
X367980Y325200D03*
X327980Y325200D03*
X322980Y325200D03*
X317980Y325200D03*
X367980Y320200D03*
X327980Y320200D03*
X322980Y320200D03*
X317980Y320200D03*
X367980Y315200D03*
X327980Y315200D03*
X322980Y315200D03*
X317980Y315200D03*
X367980Y310200D03*
X362980Y310200D03*
X357980Y310200D03*
X352980Y310200D03*
X347980Y310200D03*
X342980Y310200D03*
X337980Y310200D03*
X332980Y310200D03*
X327980Y310200D03*
X322980Y310200D03*
X317980Y310200D03*
X367980Y305200D03*
X362980Y305200D03*
X357980Y305200D03*
X352980Y305200D03*
X347980Y305200D03*
X342980Y305200D03*
X337980Y305200D03*
X332980Y305200D03*
X327980Y305200D03*
X322980Y305200D03*
X317980Y305200D03*
X367980Y300200D03*
X362980Y300200D03*
X357980Y300200D03*
X352980Y300200D03*
X347980Y300200D03*
X342980Y300200D03*
X337980Y300200D03*
X332980Y300200D03*
X327980Y300200D03*
X322980Y300200D03*
X317980Y300200D03*
D14*
X339498Y250218D02*
X341462Y250218D01*
X339498Y250218D02*
X339498Y255182D01*
X341462Y255182D01*
X341462Y250218D01*
X341462Y252409D02*
X339498Y252409D01*
X339498Y254600D02*
X341462Y254600D01*
X344498Y250218D02*
X346462Y250218D01*
X344498Y250218D02*
X344498Y255182D01*
X346462Y255182D01*
X346462Y250218D01*
X346462Y252409D02*
X344498Y252409D01*
X344498Y254600D02*
X346462Y254600D01*
X349498Y250218D02*
X351462Y250218D01*
X349498Y250218D02*
X349498Y255182D01*
X351462Y255182D01*
X351462Y250218D01*
X351462Y252409D02*
X349498Y252409D01*
X349498Y254600D02*
X351462Y254600D01*
X354498Y250218D02*
X356462Y250218D01*
X354498Y250218D02*
X354498Y255182D01*
X356462Y255182D01*
X356462Y250218D01*
X356462Y252409D02*
X354498Y252409D01*
X354498Y254600D02*
X356462Y254600D01*
X356462Y278218D02*
X354498Y278218D01*
X354498Y283182D01*
X356462Y283182D01*
X356462Y278218D01*
X356462Y280409D02*
X354498Y280409D01*
X354498Y282600D02*
X356462Y282600D01*
X351462Y278218D02*
X349498Y278218D01*
X349498Y283182D01*
X351462Y283182D01*
X351462Y278218D01*
X351462Y280409D02*
X349498Y280409D01*
X349498Y282600D02*
X351462Y282600D01*
X346462Y278218D02*
X344498Y278218D01*
X344498Y283182D01*
X346462Y283182D01*
X346462Y278218D01*
X346462Y280409D02*
X344498Y280409D01*
X344498Y282600D02*
X346462Y282600D01*
X341462Y278218D02*
X339498Y278218D01*
X339498Y283182D01*
X341462Y283182D01*
X341462Y278218D01*
X341462Y280409D02*
X339498Y280409D01*
X339498Y282600D02*
X341462Y282600D01*
D18*
X340467Y259187D02*
X355493Y259187D01*
X340467Y259187D02*
X340467Y274213D01*
X355493Y274213D01*
X355493Y259187D01*
X355493Y261320D02*
X340467Y261320D01*
X340467Y263453D02*
X355493Y263453D01*
X355493Y265586D02*
X340467Y265586D01*
X340467Y267719D02*
X355493Y267719D01*
X355493Y269852D02*
X340467Y269852D01*
X340467Y271985D02*
X355493Y271985D01*
X355493Y274118D02*
X340467Y274118D01*
D15*
X364522Y275542D02*
X364522Y280558D01*
X369538Y280558D01*
X369538Y275542D01*
X364522Y275542D01*
X364522Y277683D02*
X369538Y277683D01*
X369538Y279824D02*
X364522Y279824D01*
X364522Y270558D02*
X364522Y265542D01*
X364522Y270558D02*
X369538Y270558D01*
X369538Y265542D01*
X364522Y265542D01*
X364522Y267683D02*
X369538Y267683D01*
X369538Y269824D02*
X364522Y269824D01*
X326422Y275542D02*
X326422Y280558D01*
X331438Y280558D01*
X331438Y275542D01*
X326422Y275542D01*
X326422Y277683D02*
X331438Y277683D01*
X331438Y279824D02*
X326422Y279824D01*
X326422Y270558D02*
X326422Y265542D01*
X326422Y270558D02*
X331438Y270558D01*
X331438Y265542D01*
X326422Y265542D01*
X326422Y267683D02*
X331438Y267683D01*
X331438Y269824D02*
X326422Y269824D01*
X397622Y314992D02*
X402638Y314992D01*
X397622Y314992D02*
X397622Y320008D01*
X402638Y320008D01*
X402638Y314992D01*
X402638Y317133D02*
X397622Y317133D01*
X397622Y319274D02*
X402638Y319274D01*
X407622Y314992D02*
X412638Y314992D01*
X407622Y314992D02*
X407622Y320008D01*
X412638Y320008D01*
X412638Y314992D01*
X412638Y317133D02*
X407622Y317133D01*
X407622Y319274D02*
X412638Y319274D01*
D17*
X311722Y286558D02*
X311722Y276542D01*
X311722Y286558D02*
X320738Y286558D01*
X320738Y276542D01*
X311722Y276542D01*
X311722Y278683D02*
X320738Y278683D01*
X320738Y280824D02*
X311722Y280824D01*
X311722Y282965D02*
X320738Y282965D01*
X320738Y285106D02*
X311722Y285106D01*
X311722Y269558D02*
X311722Y259542D01*
X311722Y269558D02*
X320738Y269558D01*
X320738Y259542D01*
X311722Y259542D01*
X311722Y261683D02*
X320738Y261683D01*
X320738Y263824D02*
X311722Y263824D01*
X311722Y265965D02*
X320738Y265965D01*
X320738Y268106D02*
X311722Y268106D01*
D15*
X288338Y264192D02*
X283322Y264192D01*
X283322Y269208D01*
X288338Y269208D01*
X288338Y264192D01*
X288338Y266333D02*
X283322Y266333D01*
X283322Y268474D02*
X288338Y268474D01*
X293322Y264192D02*
X298338Y264192D01*
X293322Y264192D02*
X293322Y269208D01*
X298338Y269208D01*
X298338Y264192D01*
X298338Y266333D02*
X293322Y266333D01*
X293322Y268474D02*
X298338Y268474D01*
X298338Y294608D02*
X293322Y294608D01*
X298338Y294608D02*
X298338Y289592D01*
X293322Y289592D01*
X293322Y294608D01*
X293322Y291733D02*
X298338Y291733D01*
X298338Y293874D02*
X293322Y293874D01*
X288338Y294608D02*
X283322Y294608D01*
X288338Y294608D02*
X288338Y289592D01*
X283322Y289592D01*
X283322Y294608D01*
X283322Y291733D02*
X288338Y291733D01*
X288338Y293874D02*
X283322Y293874D01*
X293322Y307308D02*
X298338Y307308D01*
X298338Y302292D01*
X293322Y302292D01*
X293322Y307308D01*
X293322Y304433D02*
X298338Y304433D01*
X298338Y306574D02*
X293322Y306574D01*
X288338Y307308D02*
X283322Y307308D01*
X288338Y307308D02*
X288338Y302292D01*
X283322Y302292D01*
X283322Y307308D01*
X283322Y304433D02*
X288338Y304433D01*
X288338Y306574D02*
X283322Y306574D01*
X293322Y281908D02*
X298338Y281908D01*
X298338Y276892D01*
X293322Y276892D01*
X293322Y281908D01*
X293322Y279033D02*
X298338Y279033D01*
X298338Y281174D02*
X293322Y281174D01*
X288338Y281908D02*
X283322Y281908D01*
X288338Y281908D02*
X288338Y276892D01*
X283322Y276892D01*
X283322Y281908D01*
X283322Y279033D02*
X288338Y279033D01*
X288338Y281174D02*
X283322Y281174D01*
D22*
X401636Y248724D02*
X408624Y248724D01*
X408624Y241736D01*
X401636Y241736D01*
X401636Y248724D01*
X401636Y245805D02*
X408624Y245805D01*
X408624Y266264D02*
X401636Y266264D01*
X408624Y266264D02*
X408624Y259276D01*
X401636Y259276D01*
X401636Y266264D01*
X401636Y263345D02*
X408624Y263345D01*
D15*
X402638Y276892D02*
X397622Y276892D01*
X397622Y281908D01*
X402638Y281908D01*
X402638Y276892D01*
X402638Y279033D02*
X397622Y279033D01*
X397622Y281174D02*
X402638Y281174D01*
X407622Y276892D02*
X412638Y276892D01*
X407622Y276892D02*
X407622Y281908D01*
X412638Y281908D01*
X412638Y276892D01*
X412638Y279033D02*
X407622Y279033D01*
X407622Y281174D02*
X412638Y281174D01*
X402638Y302292D02*
X397622Y302292D01*
X397622Y307308D01*
X402638Y307308D01*
X402638Y302292D01*
X402638Y304433D02*
X397622Y304433D01*
X397622Y306574D02*
X402638Y306574D01*
X407622Y302292D02*
X412638Y302292D01*
X407622Y302292D02*
X407622Y307308D01*
X412638Y307308D01*
X412638Y302292D01*
X412638Y304433D02*
X407622Y304433D01*
X407622Y306574D02*
X412638Y306574D01*
X402638Y289592D02*
X397622Y289592D01*
X397622Y294608D01*
X402638Y294608D01*
X402638Y289592D01*
X402638Y291733D02*
X397622Y291733D01*
X397622Y293874D02*
X402638Y293874D01*
X407622Y289592D02*
X412638Y289592D01*
X407622Y289592D02*
X407622Y294608D01*
X412638Y294608D01*
X412638Y289592D01*
X412638Y291733D02*
X407622Y291733D01*
X407622Y293874D02*
X412638Y293874D01*
D25*
X398365Y353915D02*
X396895Y353915D01*
X396895Y356885D01*
X398365Y356885D01*
X398365Y353915D01*
X398365Y356100D02*
X396895Y356100D01*
X401895Y353915D02*
X403365Y353915D01*
X401895Y353915D02*
X401895Y356885D01*
X403365Y356885D01*
X403365Y353915D01*
X403365Y356100D02*
X401895Y356100D01*
X406895Y353915D02*
X408365Y353915D01*
X406895Y353915D02*
X406895Y356885D01*
X408365Y356885D01*
X408365Y353915D01*
X408365Y356100D02*
X406895Y356100D01*
X411895Y353915D02*
X413365Y353915D01*
X411895Y353915D02*
X411895Y356885D01*
X413365Y356885D01*
X413365Y353915D01*
X413365Y356100D02*
X411895Y356100D01*
X411895Y328915D02*
X413365Y328915D01*
X411895Y328915D02*
X411895Y331885D01*
X413365Y331885D01*
X413365Y328915D01*
X413365Y331100D02*
X411895Y331100D01*
X408365Y328915D02*
X406895Y328915D01*
X406895Y331885D01*
X408365Y331885D01*
X408365Y328915D01*
X408365Y331100D02*
X406895Y331100D01*
X403365Y328915D02*
X401895Y328915D01*
X401895Y331885D01*
X403365Y331885D01*
X403365Y328915D01*
X403365Y331100D02*
X401895Y331100D01*
X398365Y328915D02*
X396895Y328915D01*
X396895Y331885D01*
X398365Y331885D01*
X398365Y328915D01*
X398365Y331100D02*
X396895Y331100D01*
D30*
X397639Y342409D02*
X412621Y342409D01*
X397639Y342409D02*
X397639Y343391D01*
X412621Y343391D01*
X412621Y342409D01*
D15*
X402638Y365792D02*
X397622Y365792D01*
X397622Y370808D01*
X402638Y370808D01*
X402638Y365792D01*
X402638Y367933D02*
X397622Y367933D01*
X397622Y370074D02*
X402638Y370074D01*
X407622Y365792D02*
X412638Y365792D01*
X407622Y365792D02*
X407622Y370808D01*
X412638Y370808D01*
X412638Y365792D01*
X412638Y367933D02*
X407622Y367933D01*
X407622Y370074D02*
X412638Y370074D01*
D31*
X288825Y327195D02*
X288825Y319705D01*
X282335Y319705D01*
X282335Y327195D01*
X288825Y327195D01*
X288825Y321871D02*
X282335Y321871D01*
X282335Y324037D02*
X288825Y324037D01*
X288825Y326203D02*
X282335Y326203D01*
X282335Y333205D02*
X282335Y340695D01*
X288825Y340695D01*
X288825Y333205D01*
X282335Y333205D01*
X282335Y335371D02*
X288825Y335371D01*
X288825Y337537D02*
X282335Y337537D01*
X282335Y339703D02*
X288825Y339703D01*
X292835Y340695D02*
X292835Y333205D01*
X292835Y340695D02*
X299325Y340695D01*
X299325Y333205D01*
X292835Y333205D01*
X292835Y335371D02*
X299325Y335371D01*
X299325Y337537D02*
X292835Y337537D01*
X292835Y339703D02*
X299325Y339703D01*
X299325Y327195D02*
X299325Y319705D01*
X292835Y319705D01*
X292835Y327195D01*
X299325Y327195D01*
X299325Y321871D02*
X292835Y321871D01*
X292835Y324037D02*
X299325Y324037D01*
X299325Y326203D02*
X292835Y326203D01*
D15*
X384922Y378492D02*
X389938Y378492D01*
X384922Y378492D02*
X384922Y383508D01*
X389938Y383508D01*
X389938Y378492D01*
X389938Y380633D02*
X384922Y380633D01*
X384922Y382774D02*
X389938Y382774D01*
X394922Y378492D02*
X399938Y378492D01*
X394922Y378492D02*
X394922Y383508D01*
X399938Y383508D01*
X399938Y378492D01*
X399938Y380633D02*
X394922Y380633D01*
X394922Y382774D02*
X399938Y382774D01*
D10*
X683260Y520700D03*
X683260Y495300D03*
X683260Y469900D03*
X683260Y444500D03*
X683260Y419100D03*
X683260Y393700D03*
X683260Y368300D03*
X683260Y342900D03*
X683260Y317500D03*
X683260Y292100D03*
X683260Y266700D03*
X683260Y241300D03*
X683260Y215900D03*
X683260Y190500D03*
X683260Y165100D03*
X683260Y139700D03*
X480060Y241300D03*
X480060Y266700D03*
X480060Y292100D03*
X480060Y317500D03*
X480060Y342900D03*
X480060Y368300D03*
X480060Y393700D03*
X480060Y419100D03*
X480060Y444500D03*
X480060Y469900D03*
X480060Y495300D03*
X480060Y520700D03*
D11*
X516160Y576000D02*
X534160Y576000D01*
X534160Y566000D02*
X516160Y566000D01*
X516160Y556000D02*
X534160Y556000D01*
X534160Y546000D02*
X516160Y546000D01*
X516160Y536000D02*
X534160Y536000D01*
X534160Y526000D02*
X516160Y526000D01*
X516160Y516000D02*
X534160Y516000D01*
X534160Y506000D02*
X516160Y506000D01*
X516160Y496000D02*
X534160Y496000D01*
X534160Y486000D02*
X516160Y486000D01*
X516160Y476000D02*
X534160Y476000D01*
X534160Y466000D02*
X516160Y466000D01*
X516160Y456000D02*
X534160Y456000D01*
X534160Y446000D02*
X516160Y446000D01*
X546660Y450000D02*
X546660Y432000D01*
X556660Y432000D02*
X556660Y450000D01*
X566660Y450000D02*
X566660Y432000D01*
X576660Y432000D02*
X576660Y450000D01*
X586660Y450000D02*
X586660Y432000D01*
X596660Y432000D02*
X596660Y450000D01*
X606660Y450000D02*
X606660Y432000D01*
X616660Y432000D02*
X616660Y450000D01*
X629160Y446000D02*
X647160Y446000D01*
X647160Y456000D02*
X629160Y456000D01*
X629160Y466000D02*
X647160Y466000D01*
X647160Y476000D02*
X629160Y476000D01*
X629160Y486000D02*
X647160Y486000D01*
X647160Y496000D02*
X629160Y496000D01*
X629160Y506000D02*
X647160Y506000D01*
X647160Y516000D02*
X629160Y516000D01*
X629160Y526000D02*
X647160Y526000D01*
X647160Y536000D02*
X629160Y536000D01*
X629160Y546000D02*
X647160Y546000D01*
X647160Y556000D02*
X629160Y556000D01*
X629160Y566000D02*
X647160Y566000D01*
X647160Y576000D02*
X629160Y576000D01*
D12*
X476250Y544830D03*
X645160Y12700D03*
D13*
X492760Y25400D03*
X670560Y25400D03*
D14*
X590142Y55618D02*
X588178Y55618D01*
X588178Y64582D01*
X590142Y64582D01*
X590142Y55618D01*
X590142Y57809D02*
X588178Y57809D01*
X588178Y60000D02*
X590142Y60000D01*
X590142Y62191D02*
X588178Y62191D01*
X588178Y64382D02*
X590142Y64382D01*
X585142Y55618D02*
X583178Y55618D01*
X583178Y64582D01*
X585142Y64582D01*
X585142Y55618D01*
X585142Y57809D02*
X583178Y57809D01*
X583178Y60000D02*
X585142Y60000D01*
X585142Y62191D02*
X583178Y62191D01*
X583178Y64382D02*
X585142Y64382D01*
D15*
X611402Y55592D02*
X616418Y55592D01*
X611402Y55592D02*
X611402Y64608D01*
X616418Y64608D01*
X616418Y55592D01*
X616418Y57733D02*
X611402Y57733D01*
X611402Y59874D02*
X616418Y59874D01*
X616418Y62015D02*
X611402Y62015D01*
X611402Y64156D02*
X616418Y64156D01*
X608668Y55592D02*
X603652Y55592D01*
X603652Y64608D01*
X608668Y64608D01*
X608668Y55592D01*
X608668Y57733D02*
X603652Y57733D01*
X603652Y59874D02*
X608668Y59874D01*
X608668Y62015D02*
X603652Y62015D01*
X603652Y64156D02*
X608668Y64156D01*
D14*
X600142Y55618D02*
X598178Y55618D01*
X598178Y64582D01*
X600142Y64582D01*
X600142Y55618D01*
X600142Y57809D02*
X598178Y57809D01*
X598178Y60000D02*
X600142Y60000D01*
X600142Y62191D02*
X598178Y62191D01*
X598178Y64382D02*
X600142Y64382D01*
X595142Y55618D02*
X593178Y55618D01*
X593178Y64582D01*
X595142Y64582D01*
X595142Y55618D01*
X595142Y57809D02*
X593178Y57809D01*
X593178Y60000D02*
X595142Y60000D01*
X595142Y62191D02*
X593178Y62191D01*
X593178Y64382D02*
X595142Y64382D01*
X575142Y64582D02*
X573178Y64582D01*
X575142Y64582D02*
X575142Y55618D01*
X573178Y55618D01*
X573178Y64582D01*
X573178Y57809D02*
X575142Y57809D01*
X575142Y60000D02*
X573178Y60000D01*
X573178Y62191D02*
X575142Y62191D01*
X575142Y64382D02*
X573178Y64382D01*
X578178Y64582D02*
X580142Y64582D01*
X580142Y55618D01*
X578178Y55618D01*
X578178Y64582D01*
X578178Y57809D02*
X580142Y57809D01*
X580142Y60000D02*
X578178Y60000D01*
X578178Y62191D02*
X580142Y62191D01*
X580142Y64382D02*
X578178Y64382D01*
D15*
X551918Y64608D02*
X546902Y64608D01*
X551918Y64608D02*
X551918Y55592D01*
X546902Y55592D01*
X546902Y64608D01*
X546902Y57733D02*
X551918Y57733D01*
X551918Y59874D02*
X546902Y59874D01*
X546902Y62015D02*
X551918Y62015D01*
X551918Y64156D02*
X546902Y64156D01*
X554652Y64608D02*
X559668Y64608D01*
X559668Y55592D01*
X554652Y55592D01*
X554652Y64608D01*
X554652Y57733D02*
X559668Y57733D01*
X559668Y59874D02*
X554652Y59874D01*
X554652Y62015D02*
X559668Y62015D01*
X559668Y64156D02*
X554652Y64156D01*
D14*
X563178Y64582D02*
X565142Y64582D01*
X565142Y55618D01*
X563178Y55618D01*
X563178Y64582D01*
X563178Y57809D02*
X565142Y57809D01*
X565142Y60000D02*
X563178Y60000D01*
X563178Y62191D02*
X565142Y62191D01*
X565142Y64382D02*
X563178Y64382D01*
X568178Y64582D02*
X570142Y64582D01*
X570142Y55618D01*
X568178Y55618D01*
X568178Y64582D01*
X568178Y57809D02*
X570142Y57809D01*
X570142Y60000D02*
X568178Y60000D01*
X568178Y62191D02*
X570142Y62191D01*
X570142Y64382D02*
X568178Y64382D01*
D16*
X552760Y49050D03*
X610560Y49050D03*
D17*
X564968Y163292D02*
X564968Y172308D01*
X564968Y163292D02*
X519952Y163292D01*
X519952Y172308D01*
X564968Y172308D01*
X564968Y165433D02*
X519952Y165433D01*
X519952Y167574D02*
X564968Y167574D01*
X564968Y169715D02*
X519952Y169715D01*
X519952Y171856D02*
X564968Y171856D01*
X564968Y183292D02*
X564968Y192308D01*
X564968Y183292D02*
X519952Y183292D01*
X519952Y192308D01*
X564968Y192308D01*
X564968Y185433D02*
X519952Y185433D01*
X519952Y187574D02*
X564968Y187574D01*
X564968Y189715D02*
X519952Y189715D01*
X519952Y191856D02*
X564968Y191856D01*
D18*
X506973Y151313D02*
X473947Y151313D01*
X506973Y151313D02*
X506973Y136287D01*
X473947Y136287D01*
X473947Y151313D01*
X473947Y138420D02*
X506973Y138420D01*
X506973Y140553D02*
X473947Y140553D01*
X473947Y142686D02*
X506973Y142686D01*
X506973Y144819D02*
X473947Y144819D01*
X473947Y146952D02*
X506973Y146952D01*
X506973Y149085D02*
X473947Y149085D01*
X473947Y151218D02*
X506973Y151218D01*
X506973Y219313D02*
X473947Y219313D01*
X506973Y219313D02*
X506973Y204287D01*
X473947Y204287D01*
X473947Y219313D01*
X473947Y206420D02*
X506973Y206420D01*
X506973Y208553D02*
X473947Y208553D01*
X473947Y210686D02*
X506973Y210686D01*
X506973Y212819D02*
X473947Y212819D01*
X473947Y214952D02*
X506973Y214952D01*
X506973Y217085D02*
X473947Y217085D01*
X473947Y219218D02*
X506973Y219218D01*
D19*
X658599Y183268D02*
X658599Y178732D01*
X647563Y178732D01*
X647563Y183268D01*
X658599Y183268D01*
X658599Y180854D02*
X647563Y180854D01*
X647563Y182976D02*
X658599Y182976D01*
X658599Y188232D02*
X658599Y192768D01*
X658599Y188232D02*
X647563Y188232D01*
X647563Y192768D01*
X658599Y192768D01*
X658599Y190354D02*
X647563Y190354D01*
X647563Y192476D02*
X658599Y192476D01*
X658599Y197732D02*
X658599Y202268D01*
X658599Y197732D02*
X647563Y197732D01*
X647563Y202268D01*
X658599Y202268D01*
X658599Y199854D02*
X647563Y199854D01*
X647563Y201976D02*
X658599Y201976D01*
X632597Y202268D02*
X632597Y197732D01*
X621561Y197732D01*
X621561Y202268D01*
X632597Y202268D01*
X632597Y199854D02*
X621561Y199854D01*
X621561Y201976D02*
X632597Y201976D01*
X632597Y183268D02*
X632597Y178732D01*
X621561Y178732D01*
X621561Y183268D01*
X632597Y183268D01*
X632597Y180854D02*
X621561Y180854D01*
X621561Y182976D02*
X632597Y182976D01*
D20*
X659136Y70176D02*
X659136Y63224D01*
X651184Y63224D01*
X651184Y70176D01*
X659136Y70176D01*
X659136Y65426D02*
X651184Y65426D01*
X651184Y67628D02*
X659136Y67628D01*
X659136Y69830D02*
X651184Y69830D01*
X659136Y82224D02*
X659136Y89176D01*
X659136Y82224D02*
X651184Y82224D01*
X651184Y89176D01*
X659136Y89176D01*
X659136Y84426D02*
X651184Y84426D01*
X651184Y86628D02*
X659136Y86628D01*
X659136Y88830D02*
X651184Y88830D01*
X638136Y79676D02*
X638136Y72724D01*
X630184Y72724D01*
X630184Y79676D01*
X638136Y79676D01*
X638136Y74926D02*
X630184Y74926D01*
X630184Y77128D02*
X638136Y77128D01*
X638136Y79330D02*
X630184Y79330D01*
D15*
X669258Y182992D02*
X669258Y188008D01*
X669258Y182992D02*
X664242Y182992D01*
X664242Y188008D01*
X669258Y188008D01*
X669258Y185133D02*
X664242Y185133D01*
X664242Y187274D02*
X669258Y187274D01*
X669258Y192992D02*
X669258Y198008D01*
X669258Y192992D02*
X664242Y192992D01*
X664242Y198008D01*
X669258Y198008D01*
X669258Y195133D02*
X664242Y195133D01*
X664242Y197274D02*
X669258Y197274D01*
X665368Y154908D02*
X660352Y154908D01*
X665368Y154908D02*
X665368Y149892D01*
X660352Y149892D01*
X660352Y154908D01*
X660352Y152033D02*
X665368Y152033D01*
X665368Y154174D02*
X660352Y154174D01*
X655368Y154908D02*
X650352Y154908D01*
X655368Y154908D02*
X655368Y149892D01*
X650352Y149892D01*
X650352Y154908D01*
X650352Y152033D02*
X655368Y152033D01*
X655368Y154174D02*
X650352Y154174D01*
D21*
X666910Y90350D02*
X666910Y85050D01*
X666910Y90350D02*
X674210Y90350D01*
X674210Y85050D01*
X666910Y85050D01*
X666910Y87207D02*
X674210Y87207D01*
X674210Y89364D02*
X666910Y89364D01*
X666910Y67350D02*
X666910Y62050D01*
X666910Y67350D02*
X674210Y67350D01*
X674210Y62050D01*
X666910Y62050D01*
X666910Y64207D02*
X674210Y64207D01*
X674210Y66364D02*
X666910Y66364D01*
D15*
X682022Y78692D02*
X682022Y83708D01*
X687038Y83708D01*
X687038Y78692D01*
X682022Y78692D01*
X682022Y80833D02*
X687038Y80833D01*
X687038Y82974D02*
X682022Y82974D01*
X682022Y73708D02*
X682022Y68692D01*
X682022Y73708D02*
X687038Y73708D01*
X687038Y68692D01*
X682022Y68692D01*
X682022Y70833D02*
X687038Y70833D01*
X687038Y72974D02*
X682022Y72974D01*
X633618Y167608D02*
X628602Y167608D01*
X633618Y167608D02*
X633618Y162592D01*
X628602Y162592D01*
X628602Y167608D01*
X628602Y164733D02*
X633618Y164733D01*
X633618Y166874D02*
X628602Y166874D01*
X623618Y167608D02*
X618602Y167608D01*
X623618Y167608D02*
X623618Y162592D01*
X618602Y162592D01*
X618602Y167608D01*
X618602Y164733D02*
X623618Y164733D01*
X623618Y166874D02*
X618602Y166874D01*
D19*
X594891Y119718D02*
X594891Y115182D01*
X594891Y119718D02*
X605927Y119718D01*
X605927Y115182D01*
X594891Y115182D01*
X594891Y117304D02*
X605927Y117304D01*
X605927Y119426D02*
X594891Y119426D01*
X594891Y110218D02*
X594891Y105682D01*
X594891Y110218D02*
X605927Y110218D01*
X605927Y105682D01*
X594891Y105682D01*
X594891Y107804D02*
X605927Y107804D01*
X605927Y109926D02*
X594891Y109926D01*
X594891Y100718D02*
X594891Y96182D01*
X594891Y100718D02*
X605927Y100718D01*
X605927Y96182D01*
X594891Y96182D01*
X594891Y98304D02*
X605927Y98304D01*
X605927Y100426D02*
X594891Y100426D01*
X620893Y100718D02*
X620893Y96182D01*
X620893Y100718D02*
X631929Y100718D01*
X631929Y96182D01*
X620893Y96182D01*
X620893Y98304D02*
X631929Y98304D01*
X631929Y100426D02*
X620893Y100426D01*
X620893Y115182D02*
X620893Y119718D01*
X631929Y119718D01*
X631929Y115182D01*
X620893Y115182D01*
X620893Y117304D02*
X631929Y117304D01*
X631929Y119426D02*
X620893Y119426D01*
D22*
X597854Y140774D02*
X590866Y140774D01*
X597854Y140774D02*
X597854Y133786D01*
X590866Y133786D01*
X590866Y140774D01*
X590866Y137855D02*
X597854Y137855D01*
X597854Y158314D02*
X590866Y158314D01*
X597854Y158314D02*
X597854Y151326D01*
X590866Y151326D01*
X590866Y158314D01*
X590866Y155395D02*
X597854Y155395D01*
D15*
X636302Y115458D02*
X636302Y110442D01*
X636302Y115458D02*
X641318Y115458D01*
X641318Y110442D01*
X636302Y110442D01*
X636302Y112583D02*
X641318Y112583D01*
X641318Y114724D02*
X636302Y114724D01*
X636302Y105458D02*
X636302Y100442D01*
X636302Y105458D02*
X641318Y105458D01*
X641318Y100442D01*
X636302Y100442D01*
X636302Y102583D02*
X641318Y102583D01*
X641318Y104724D02*
X636302Y104724D01*
X647652Y57118D02*
X652668Y57118D01*
X652668Y52102D01*
X647652Y52102D01*
X647652Y57118D01*
X647652Y54243D02*
X652668Y54243D01*
X652668Y56384D02*
X647652Y56384D01*
X642668Y57118D02*
X637652Y57118D01*
X642668Y57118D02*
X642668Y52102D01*
X637652Y52102D01*
X637652Y57118D01*
X637652Y54243D02*
X642668Y54243D01*
X642668Y56384D02*
X637652Y56384D01*
X610902Y148542D02*
X610902Y153558D01*
X615918Y153558D01*
X615918Y148542D01*
X610902Y148542D01*
X610902Y150683D02*
X615918Y150683D01*
X615918Y152824D02*
X610902Y152824D01*
X610902Y143558D02*
X610902Y138542D01*
X610902Y143558D02*
X615918Y143558D01*
X615918Y138542D01*
X610902Y138542D01*
X610902Y140683D02*
X615918Y140683D01*
X615918Y142824D02*
X610902Y142824D01*
X623602Y148542D02*
X623602Y153558D01*
X628618Y153558D01*
X628618Y148542D01*
X623602Y148542D01*
X623602Y150683D02*
X628618Y150683D01*
X628618Y152824D02*
X623602Y152824D01*
X623602Y143558D02*
X623602Y138542D01*
X623602Y143558D02*
X628618Y143558D01*
X628618Y138542D01*
X623602Y138542D01*
X623602Y140683D02*
X628618Y140683D01*
X628618Y142824D02*
X623602Y142824D01*
X622252Y87598D02*
X627268Y87598D01*
X627268Y82582D01*
X622252Y82582D01*
X622252Y87598D01*
X622252Y84723D02*
X627268Y84723D01*
X627268Y86864D02*
X622252Y86864D01*
X617268Y87598D02*
X612252Y87598D01*
X617268Y87598D02*
X617268Y82582D01*
X612252Y82582D01*
X612252Y87598D01*
X612252Y84723D02*
X617268Y84723D01*
X617268Y86864D02*
X612252Y86864D01*
D23*
X540010Y108070D03*
X540010Y113070D03*
X540010Y118070D03*
X540010Y123070D03*
X560010Y123070D03*
X560010Y118070D03*
X560010Y113070D03*
X560010Y108070D03*
D24*
X549910Y115570D03*
D15*
X567722Y117998D02*
X567722Y112982D01*
X567722Y117998D02*
X572738Y117998D01*
X572738Y112982D01*
X567722Y112982D01*
X567722Y115123D02*
X572738Y115123D01*
X572738Y117264D02*
X567722Y117264D01*
X567722Y107998D02*
X567722Y102982D01*
X567722Y107998D02*
X572738Y107998D01*
X572738Y102982D01*
X567722Y102982D01*
X567722Y105123D02*
X572738Y105123D01*
X572738Y107264D02*
X567722Y107264D01*
X598202Y86756D02*
X598202Y81740D01*
X598202Y86756D02*
X603218Y86756D01*
X603218Y81740D01*
X598202Y81740D01*
X598202Y83881D02*
X603218Y83881D01*
X603218Y86022D02*
X598202Y86022D01*
X598202Y76756D02*
X598202Y71740D01*
X598202Y76756D02*
X603218Y76756D01*
X603218Y71740D01*
X598202Y71740D01*
X598202Y73881D02*
X603218Y73881D01*
X603218Y76022D02*
X598202Y76022D01*
X560102Y81740D02*
X560102Y86756D01*
X565118Y86756D01*
X565118Y81740D01*
X560102Y81740D01*
X560102Y83881D02*
X565118Y83881D01*
X565118Y86022D02*
X560102Y86022D01*
X560102Y76756D02*
X560102Y71740D01*
X560102Y76756D02*
X565118Y76756D01*
X565118Y71740D01*
X560102Y71740D01*
X560102Y73881D02*
X565118Y73881D01*
X565118Y76022D02*
X560102Y76022D01*
D25*
X577395Y77733D02*
X577395Y72663D01*
X575925Y72663D01*
X575925Y77733D01*
X577395Y77733D01*
X577395Y74848D02*
X575925Y74848D01*
X575925Y77033D02*
X577395Y77033D01*
X582395Y77233D02*
X582395Y72663D01*
X580925Y72663D01*
X580925Y77233D01*
X582395Y77233D01*
X582395Y74848D02*
X580925Y74848D01*
X580925Y77033D02*
X582395Y77033D01*
X587395Y77233D02*
X587395Y72663D01*
X585925Y72663D01*
X585925Y77233D01*
X587395Y77233D01*
X587395Y74848D02*
X585925Y74848D01*
X585925Y77033D02*
X587395Y77033D01*
X585925Y81263D02*
X585925Y85833D01*
X587395Y85833D01*
X587395Y81263D01*
X585925Y81263D01*
X585925Y83448D02*
X587395Y83448D01*
X587395Y85633D02*
X585925Y85633D01*
X580925Y85833D02*
X580925Y81263D01*
X580925Y85833D02*
X582395Y85833D01*
X582395Y81263D01*
X580925Y81263D01*
X580925Y83448D02*
X582395Y83448D01*
X582395Y85633D02*
X580925Y85633D01*
X575925Y85833D02*
X575925Y81263D01*
X575925Y85833D02*
X577395Y85833D01*
X577395Y81263D01*
X575925Y81263D01*
X575925Y83448D02*
X577395Y83448D01*
X577395Y85633D02*
X575925Y85633D01*
D10*
X683260Y107950D03*
X657860Y107950D03*
D26*
X471903Y111393D02*
X471903Y122407D01*
X490917Y122407D01*
X490917Y111393D01*
X471903Y111393D01*
X471903Y113536D02*
X490917Y113536D01*
X490917Y115679D02*
X471903Y115679D01*
X471903Y117822D02*
X490917Y117822D01*
X490917Y119965D02*
X471903Y119965D01*
X471903Y122108D02*
X490917Y122108D01*
X471903Y66407D02*
X471903Y55393D01*
X471903Y66407D02*
X490917Y66407D01*
X490917Y55393D01*
X471903Y55393D01*
X471903Y57536D02*
X490917Y57536D01*
X490917Y59679D02*
X471903Y59679D01*
X471903Y61822D02*
X490917Y61822D01*
X490917Y63965D02*
X471903Y63965D01*
X471903Y66108D02*
X490917Y66108D01*
D15*
X511902Y101392D02*
X511902Y106408D01*
X524418Y106408D01*
X524418Y101392D01*
X511902Y101392D01*
X511902Y103533D02*
X524418Y103533D01*
X524418Y105674D02*
X511902Y105674D01*
X511902Y96408D02*
X511902Y91392D01*
X511902Y96408D02*
X524418Y96408D01*
X524418Y91392D01*
X511902Y91392D01*
X511902Y93533D02*
X524418Y93533D01*
X524418Y95674D02*
X511902Y95674D01*
X511902Y86408D02*
X511902Y81392D01*
X511902Y86408D02*
X524418Y86408D01*
X524418Y81392D01*
X511902Y81392D01*
X511902Y83533D02*
X524418Y83533D01*
X524418Y85674D02*
X511902Y85674D01*
X511902Y76408D02*
X511902Y71392D01*
X511902Y76408D02*
X524418Y76408D01*
X524418Y71392D01*
X511902Y71392D01*
X511902Y73533D02*
X524418Y73533D01*
X524418Y75674D02*
X511902Y75674D01*
X529702Y73692D02*
X534718Y73692D01*
X529702Y73692D02*
X529702Y78708D01*
X534718Y78708D01*
X534718Y73692D01*
X534718Y75833D02*
X529702Y75833D01*
X529702Y77974D02*
X534718Y77974D01*
X539702Y73692D02*
X544718Y73692D01*
X539702Y73692D02*
X539702Y78708D01*
X544718Y78708D01*
X544718Y73692D01*
X544718Y75833D02*
X539702Y75833D01*
X539702Y77974D02*
X544718Y77974D01*
X534718Y86392D02*
X529702Y86392D01*
X529702Y91408D01*
X534718Y91408D01*
X534718Y86392D01*
X534718Y88533D02*
X529702Y88533D01*
X529702Y90674D02*
X534718Y90674D01*
X539702Y86392D02*
X544718Y86392D01*
X539702Y86392D02*
X539702Y91408D01*
X544718Y91408D01*
X544718Y86392D01*
X544718Y88533D02*
X539702Y88533D01*
X539702Y90674D02*
X544718Y90674D01*
D27*
X556260Y393700D03*
X556260Y406400D03*
X568960Y393700D03*
X568960Y406400D03*
X581660Y393700D03*
X581660Y406400D03*
X594360Y393700D03*
X594360Y406400D03*
X607060Y393700D03*
X607060Y406400D03*
D15*
X538368Y421608D02*
X533352Y421608D01*
X538368Y421608D02*
X538368Y416592D01*
X533352Y416592D01*
X533352Y421608D01*
X533352Y418733D02*
X538368Y418733D01*
X538368Y420874D02*
X533352Y420874D01*
X528368Y421608D02*
X523352Y421608D01*
X528368Y421608D02*
X528368Y416592D01*
X523352Y416592D01*
X523352Y421608D01*
X523352Y418733D02*
X528368Y418733D01*
X528368Y420874D02*
X523352Y420874D01*
D22*
X529906Y385884D02*
X536894Y385884D01*
X536894Y378896D01*
X529906Y378896D01*
X529906Y385884D01*
X529906Y382965D02*
X536894Y382965D01*
X536894Y403424D02*
X529906Y403424D01*
X536894Y403424D02*
X536894Y396436D01*
X529906Y396436D01*
X529906Y403424D01*
X529906Y400505D02*
X536894Y400505D01*
D15*
X502968Y378492D02*
X497952Y378492D01*
X497952Y383508D01*
X502968Y383508D01*
X502968Y378492D01*
X502968Y380633D02*
X497952Y380633D01*
X497952Y382774D02*
X502968Y382774D01*
X507952Y378492D02*
X512968Y378492D01*
X507952Y378492D02*
X507952Y383508D01*
X512968Y383508D01*
X512968Y378492D01*
X512968Y380633D02*
X507952Y380633D01*
X507952Y382774D02*
X512968Y382774D01*
D28*
X597854Y174006D02*
X597854Y165994D01*
X597854Y174006D02*
X606866Y174006D01*
X606866Y165994D01*
X597854Y165994D01*
X597854Y168140D02*
X606866Y168140D01*
X606866Y170286D02*
X597854Y170286D01*
X597854Y172432D02*
X606866Y172432D01*
X581854Y174006D02*
X581854Y165994D01*
X581854Y174006D02*
X590866Y174006D01*
X590866Y165994D01*
X581854Y165994D01*
X581854Y168140D02*
X590866Y168140D01*
X590866Y170286D02*
X581854Y170286D01*
X581854Y172432D02*
X590866Y172432D01*
X581854Y206994D02*
X581854Y215006D01*
X590866Y215006D01*
X590866Y206994D01*
X581854Y206994D01*
X581854Y209140D02*
X590866Y209140D01*
X590866Y211286D02*
X581854Y211286D01*
X581854Y213432D02*
X590866Y213432D01*
X597854Y215006D02*
X597854Y206994D01*
X597854Y215006D02*
X606866Y215006D01*
X606866Y206994D01*
X597854Y206994D01*
X597854Y209140D02*
X606866Y209140D01*
X606866Y211286D02*
X597854Y211286D01*
X597854Y213432D02*
X606866Y213432D01*
D22*
X530544Y26474D02*
X523556Y26474D01*
X530544Y26474D02*
X530544Y19486D01*
X523556Y19486D01*
X523556Y26474D01*
X523556Y23555D02*
X530544Y23555D01*
X530544Y44014D02*
X523556Y44014D01*
X530544Y44014D02*
X530544Y37026D01*
X523556Y37026D01*
X523556Y44014D01*
X523556Y41095D02*
X530544Y41095D01*
D15*
X529558Y49642D02*
X529558Y54658D01*
X529558Y49642D02*
X524542Y49642D01*
X524542Y54658D01*
X529558Y54658D01*
X529558Y51783D02*
X524542Y51783D01*
X524542Y53924D02*
X529558Y53924D01*
X529558Y59642D02*
X529558Y64658D01*
X529558Y59642D02*
X524542Y59642D01*
X524542Y64658D01*
X529558Y64658D01*
X529558Y61783D02*
X524542Y61783D01*
X524542Y63924D02*
X529558Y63924D01*
X515668Y124492D02*
X510652Y124492D01*
X510652Y129508D01*
X515668Y129508D01*
X515668Y124492D01*
X515668Y126633D02*
X510652Y126633D01*
X510652Y128774D02*
X515668Y128774D01*
X520652Y124492D02*
X525668Y124492D01*
X520652Y124492D02*
X520652Y129508D01*
X525668Y129508D01*
X525668Y124492D01*
X525668Y126633D02*
X520652Y126633D01*
X520652Y128774D02*
X525668Y128774D01*
D29*
X611660Y360200D03*
X611660Y355200D03*
X611660Y350200D03*
X611660Y345200D03*
X611660Y340200D03*
X611660Y335200D03*
X611660Y330200D03*
X611660Y325200D03*
X611660Y320200D03*
X611660Y315200D03*
X611660Y310200D03*
X611660Y305200D03*
X611660Y300200D03*
X606660Y360200D03*
X606660Y355200D03*
X606660Y350200D03*
X606660Y345200D03*
X606660Y340200D03*
X606660Y335200D03*
X606660Y330200D03*
X606660Y325200D03*
X606660Y320200D03*
X606660Y315200D03*
X606660Y310200D03*
X606660Y305200D03*
X606660Y300200D03*
X601660Y360200D03*
X596660Y360200D03*
X591660Y360200D03*
X586660Y360200D03*
X581660Y360200D03*
X576660Y360200D03*
X571660Y360200D03*
X566660Y360200D03*
X561660Y360200D03*
X556660Y360200D03*
X551660Y360200D03*
X601660Y355200D03*
X596660Y355200D03*
X591660Y355200D03*
X586660Y355200D03*
X581660Y355200D03*
X576660Y355200D03*
X571660Y355200D03*
X566660Y355200D03*
X561660Y355200D03*
X556660Y355200D03*
X551660Y355200D03*
X601660Y350200D03*
X596660Y350200D03*
X591660Y350200D03*
X586660Y350200D03*
X581660Y350200D03*
X576660Y350200D03*
X571660Y350200D03*
X566660Y350200D03*
X561660Y350200D03*
X556660Y350200D03*
X551660Y350200D03*
X601660Y345200D03*
X561660Y345200D03*
X556660Y345200D03*
X551660Y345200D03*
X601660Y340200D03*
X561660Y340200D03*
X556660Y340200D03*
X551660Y340200D03*
X601660Y335200D03*
X561660Y335200D03*
X556660Y335200D03*
X551660Y335200D03*
X601660Y330200D03*
X561660Y330200D03*
X556660Y330200D03*
X551660Y330200D03*
X601660Y325200D03*
X561660Y325200D03*
X556660Y325200D03*
X551660Y325200D03*
X601660Y320200D03*
X561660Y320200D03*
X556660Y320200D03*
X551660Y320200D03*
X601660Y315200D03*
X561660Y315200D03*
X556660Y315200D03*
X551660Y315200D03*
X601660Y310200D03*
X596660Y310200D03*
X591660Y310200D03*
X586660Y310200D03*
X581660Y310200D03*
X576660Y310200D03*
X571660Y310200D03*
X566660Y310200D03*
X561660Y310200D03*
X556660Y310200D03*
X551660Y310200D03*
X601660Y305200D03*
X596660Y305200D03*
X591660Y305200D03*
X586660Y305200D03*
X581660Y305200D03*
X576660Y305200D03*
X571660Y305200D03*
X566660Y305200D03*
X561660Y305200D03*
X556660Y305200D03*
X551660Y305200D03*
X601660Y300200D03*
X596660Y300200D03*
X591660Y300200D03*
X586660Y300200D03*
X581660Y300200D03*
X576660Y300200D03*
X571660Y300200D03*
X566660Y300200D03*
X561660Y300200D03*
X556660Y300200D03*
X551660Y300200D03*
D14*
X573178Y250218D02*
X575142Y250218D01*
X573178Y250218D02*
X573178Y255182D01*
X575142Y255182D01*
X575142Y250218D01*
X575142Y252409D02*
X573178Y252409D01*
X573178Y254600D02*
X575142Y254600D01*
X578178Y250218D02*
X580142Y250218D01*
X578178Y250218D02*
X578178Y255182D01*
X580142Y255182D01*
X580142Y250218D01*
X580142Y252409D02*
X578178Y252409D01*
X578178Y254600D02*
X580142Y254600D01*
X583178Y250218D02*
X585142Y250218D01*
X583178Y250218D02*
X583178Y255182D01*
X585142Y255182D01*
X585142Y250218D01*
X585142Y252409D02*
X583178Y252409D01*
X583178Y254600D02*
X585142Y254600D01*
X588178Y250218D02*
X590142Y250218D01*
X588178Y250218D02*
X588178Y255182D01*
X590142Y255182D01*
X590142Y250218D01*
X590142Y252409D02*
X588178Y252409D01*
X588178Y254600D02*
X590142Y254600D01*
X590142Y278218D02*
X588178Y278218D01*
X588178Y283182D01*
X590142Y283182D01*
X590142Y278218D01*
X590142Y280409D02*
X588178Y280409D01*
X588178Y282600D02*
X590142Y282600D01*
X585142Y278218D02*
X583178Y278218D01*
X583178Y283182D01*
X585142Y283182D01*
X585142Y278218D01*
X585142Y280409D02*
X583178Y280409D01*
X583178Y282600D02*
X585142Y282600D01*
X580142Y278218D02*
X578178Y278218D01*
X578178Y283182D01*
X580142Y283182D01*
X580142Y278218D01*
X580142Y280409D02*
X578178Y280409D01*
X578178Y282600D02*
X580142Y282600D01*
X575142Y278218D02*
X573178Y278218D01*
X573178Y283182D01*
X575142Y283182D01*
X575142Y278218D01*
X575142Y280409D02*
X573178Y280409D01*
X573178Y282600D02*
X575142Y282600D01*
D18*
X574147Y259187D02*
X589173Y259187D01*
X574147Y259187D02*
X574147Y274213D01*
X589173Y274213D01*
X589173Y259187D01*
X589173Y261320D02*
X574147Y261320D01*
X574147Y263453D02*
X589173Y263453D01*
X589173Y265586D02*
X574147Y265586D01*
X574147Y267719D02*
X589173Y267719D01*
X589173Y269852D02*
X574147Y269852D01*
X574147Y271985D02*
X589173Y271985D01*
X589173Y274118D02*
X574147Y274118D01*
D15*
X598202Y275542D02*
X598202Y280558D01*
X603218Y280558D01*
X603218Y275542D01*
X598202Y275542D01*
X598202Y277683D02*
X603218Y277683D01*
X603218Y279824D02*
X598202Y279824D01*
X598202Y270558D02*
X598202Y265542D01*
X598202Y270558D02*
X603218Y270558D01*
X603218Y265542D01*
X598202Y265542D01*
X598202Y267683D02*
X603218Y267683D01*
X603218Y269824D02*
X598202Y269824D01*
X560102Y275542D02*
X560102Y280558D01*
X565118Y280558D01*
X565118Y275542D01*
X560102Y275542D01*
X560102Y277683D02*
X565118Y277683D01*
X565118Y279824D02*
X560102Y279824D01*
X560102Y270558D02*
X560102Y265542D01*
X560102Y270558D02*
X565118Y270558D01*
X565118Y265542D01*
X560102Y265542D01*
X560102Y267683D02*
X565118Y267683D01*
X565118Y269824D02*
X560102Y269824D01*
X631302Y314992D02*
X636318Y314992D01*
X631302Y314992D02*
X631302Y320008D01*
X636318Y320008D01*
X636318Y314992D01*
X636318Y317133D02*
X631302Y317133D01*
X631302Y319274D02*
X636318Y319274D01*
X641302Y314992D02*
X646318Y314992D01*
X641302Y314992D02*
X641302Y320008D01*
X646318Y320008D01*
X646318Y314992D01*
X646318Y317133D02*
X641302Y317133D01*
X641302Y319274D02*
X646318Y319274D01*
D17*
X545402Y286558D02*
X545402Y276542D01*
X545402Y286558D02*
X554418Y286558D01*
X554418Y276542D01*
X545402Y276542D01*
X545402Y278683D02*
X554418Y278683D01*
X554418Y280824D02*
X545402Y280824D01*
X545402Y282965D02*
X554418Y282965D01*
X554418Y285106D02*
X545402Y285106D01*
X545402Y269558D02*
X545402Y259542D01*
X545402Y269558D02*
X554418Y269558D01*
X554418Y259542D01*
X545402Y259542D01*
X545402Y261683D02*
X554418Y261683D01*
X554418Y263824D02*
X545402Y263824D01*
X545402Y265965D02*
X554418Y265965D01*
X554418Y268106D02*
X545402Y268106D01*
D15*
X522018Y264192D02*
X517002Y264192D01*
X517002Y269208D01*
X522018Y269208D01*
X522018Y264192D01*
X522018Y266333D02*
X517002Y266333D01*
X517002Y268474D02*
X522018Y268474D01*
X527002Y264192D02*
X532018Y264192D01*
X527002Y264192D02*
X527002Y269208D01*
X532018Y269208D01*
X532018Y264192D01*
X532018Y266333D02*
X527002Y266333D01*
X527002Y268474D02*
X532018Y268474D01*
X532018Y294608D02*
X527002Y294608D01*
X532018Y294608D02*
X532018Y289592D01*
X527002Y289592D01*
X527002Y294608D01*
X527002Y291733D02*
X532018Y291733D01*
X532018Y293874D02*
X527002Y293874D01*
X522018Y294608D02*
X517002Y294608D01*
X522018Y294608D02*
X522018Y289592D01*
X517002Y289592D01*
X517002Y294608D01*
X517002Y291733D02*
X522018Y291733D01*
X522018Y293874D02*
X517002Y293874D01*
X527002Y307308D02*
X532018Y307308D01*
X532018Y302292D01*
X527002Y302292D01*
X527002Y307308D01*
X527002Y304433D02*
X532018Y304433D01*
X532018Y306574D02*
X527002Y306574D01*
X522018Y307308D02*
X517002Y307308D01*
X522018Y307308D02*
X522018Y302292D01*
X517002Y302292D01*
X517002Y307308D01*
X517002Y304433D02*
X522018Y304433D01*
X522018Y306574D02*
X517002Y306574D01*
X527002Y281908D02*
X532018Y281908D01*
X532018Y276892D01*
X527002Y276892D01*
X527002Y281908D01*
X527002Y279033D02*
X532018Y279033D01*
X532018Y281174D02*
X527002Y281174D01*
X522018Y281908D02*
X517002Y281908D01*
X522018Y281908D02*
X522018Y276892D01*
X517002Y276892D01*
X517002Y281908D01*
X517002Y279033D02*
X522018Y279033D01*
X522018Y281174D02*
X517002Y281174D01*
D22*
X635316Y248724D02*
X642304Y248724D01*
X642304Y241736D01*
X635316Y241736D01*
X635316Y248724D01*
X635316Y245805D02*
X642304Y245805D01*
X642304Y266264D02*
X635316Y266264D01*
X642304Y266264D02*
X642304Y259276D01*
X635316Y259276D01*
X635316Y266264D01*
X635316Y263345D02*
X642304Y263345D01*
D15*
X636318Y276892D02*
X631302Y276892D01*
X631302Y281908D01*
X636318Y281908D01*
X636318Y276892D01*
X636318Y279033D02*
X631302Y279033D01*
X631302Y281174D02*
X636318Y281174D01*
X641302Y276892D02*
X646318Y276892D01*
X641302Y276892D02*
X641302Y281908D01*
X646318Y281908D01*
X646318Y276892D01*
X646318Y279033D02*
X641302Y279033D01*
X641302Y281174D02*
X646318Y281174D01*
X636318Y302292D02*
X631302Y302292D01*
X631302Y307308D01*
X636318Y307308D01*
X636318Y302292D01*
X636318Y304433D02*
X631302Y304433D01*
X631302Y306574D02*
X636318Y306574D01*
X641302Y302292D02*
X646318Y302292D01*
X641302Y302292D02*
X641302Y307308D01*
X646318Y307308D01*
X646318Y302292D01*
X646318Y304433D02*
X641302Y304433D01*
X641302Y306574D02*
X646318Y306574D01*
X636318Y289592D02*
X631302Y289592D01*
X631302Y294608D01*
X636318Y294608D01*
X636318Y289592D01*
X636318Y291733D02*
X631302Y291733D01*
X631302Y293874D02*
X636318Y293874D01*
X641302Y289592D02*
X646318Y289592D01*
X641302Y289592D02*
X641302Y294608D01*
X646318Y294608D01*
X646318Y289592D01*
X646318Y291733D02*
X641302Y291733D01*
X641302Y293874D02*
X646318Y293874D01*
D25*
X632045Y353915D02*
X630575Y353915D01*
X630575Y356885D01*
X632045Y356885D01*
X632045Y353915D01*
X632045Y356100D02*
X630575Y356100D01*
X635575Y353915D02*
X637045Y353915D01*
X635575Y353915D02*
X635575Y356885D01*
X637045Y356885D01*
X637045Y353915D01*
X637045Y356100D02*
X635575Y356100D01*
X640575Y353915D02*
X642045Y353915D01*
X640575Y353915D02*
X640575Y356885D01*
X642045Y356885D01*
X642045Y353915D01*
X642045Y356100D02*
X640575Y356100D01*
X645575Y353915D02*
X647045Y353915D01*
X645575Y353915D02*
X645575Y356885D01*
X647045Y356885D01*
X647045Y353915D01*
X647045Y356100D02*
X645575Y356100D01*
X645575Y328915D02*
X647045Y328915D01*
X645575Y328915D02*
X645575Y331885D01*
X647045Y331885D01*
X647045Y328915D01*
X647045Y331100D02*
X645575Y331100D01*
X642045Y328915D02*
X640575Y328915D01*
X640575Y331885D01*
X642045Y331885D01*
X642045Y328915D01*
X642045Y331100D02*
X640575Y331100D01*
X637045Y328915D02*
X635575Y328915D01*
X635575Y331885D01*
X637045Y331885D01*
X637045Y328915D01*
X637045Y331100D02*
X635575Y331100D01*
X632045Y328915D02*
X630575Y328915D01*
X630575Y331885D01*
X632045Y331885D01*
X632045Y328915D01*
X632045Y331100D02*
X630575Y331100D01*
D30*
X631319Y342409D02*
X646301Y342409D01*
X631319Y342409D02*
X631319Y343391D01*
X646301Y343391D01*
X646301Y342409D01*
D15*
X636318Y365792D02*
X631302Y365792D01*
X631302Y370808D01*
X636318Y370808D01*
X636318Y365792D01*
X636318Y367933D02*
X631302Y367933D01*
X631302Y370074D02*
X636318Y370074D01*
X641302Y365792D02*
X646318Y365792D01*
X641302Y365792D02*
X641302Y370808D01*
X646318Y370808D01*
X646318Y365792D01*
X646318Y367933D02*
X641302Y367933D01*
X641302Y370074D02*
X646318Y370074D01*
D31*
X522505Y327195D02*
X522505Y319705D01*
X516015Y319705D01*
X516015Y327195D01*
X522505Y327195D01*
X522505Y321871D02*
X516015Y321871D01*
X516015Y324037D02*
X522505Y324037D01*
X522505Y326203D02*
X516015Y326203D01*
X516015Y333205D02*
X516015Y340695D01*
X522505Y340695D01*
X522505Y333205D01*
X516015Y333205D01*
X516015Y335371D02*
X522505Y335371D01*
X522505Y337537D02*
X516015Y337537D01*
X516015Y339703D02*
X522505Y339703D01*
X526515Y340695D02*
X526515Y333205D01*
X526515Y340695D02*
X533005Y340695D01*
X533005Y333205D01*
X526515Y333205D01*
X526515Y335371D02*
X533005Y335371D01*
X533005Y337537D02*
X526515Y337537D01*
X526515Y339703D02*
X533005Y339703D01*
X533005Y327195D02*
X533005Y319705D01*
X526515Y319705D01*
X526515Y327195D01*
X533005Y327195D01*
X533005Y321871D02*
X526515Y321871D01*
X526515Y324037D02*
X533005Y324037D01*
X533005Y326203D02*
X526515Y326203D01*
D15*
X618602Y378492D02*
X623618Y378492D01*
X618602Y378492D02*
X618602Y383508D01*
X623618Y383508D01*
X623618Y378492D01*
X623618Y380633D02*
X618602Y380633D01*
X618602Y382774D02*
X623618Y382774D01*
X628602Y378492D02*
X633618Y378492D01*
X628602Y378492D02*
X628602Y383508D01*
X633618Y383508D01*
X633618Y378492D01*
X633618Y380633D02*
X628602Y380633D01*
X628602Y382774D02*
X633618Y382774D01*
D12*
X68580Y605155D03*
X626745Y605155D03*
D32*
X59525Y-20955D02*
X59528Y-20733D01*
X59536Y-20511D01*
X59550Y-20289D01*
X59569Y-20067D01*
X59593Y-19847D01*
X59623Y-19626D01*
X59658Y-19407D01*
X59699Y-19188D01*
X59745Y-18971D01*
X59796Y-18755D01*
X59853Y-18540D01*
X59915Y-18326D01*
X59982Y-18115D01*
X60054Y-17904D01*
X60132Y-17696D01*
X60214Y-17490D01*
X60302Y-17286D01*
X60394Y-17083D01*
X60492Y-16884D01*
X60594Y-16687D01*
X60701Y-16492D01*
X60813Y-16300D01*
X60930Y-16111D01*
X61051Y-15924D01*
X61177Y-15741D01*
X61307Y-15561D01*
X61442Y-15384D01*
X61580Y-15211D01*
X61723Y-15041D01*
X61871Y-14874D01*
X62022Y-14711D01*
X62177Y-14552D01*
X62336Y-14397D01*
X62499Y-14246D01*
X62666Y-14098D01*
X62836Y-13955D01*
X63009Y-13817D01*
X63186Y-13682D01*
X63366Y-13552D01*
X63549Y-13426D01*
X63736Y-13305D01*
X63925Y-13188D01*
X64117Y-13076D01*
X64312Y-12969D01*
X64509Y-12867D01*
X64708Y-12769D01*
X64911Y-12677D01*
X65115Y-12589D01*
X65321Y-12507D01*
X65529Y-12429D01*
X65740Y-12357D01*
X65951Y-12290D01*
X66165Y-12228D01*
X66380Y-12171D01*
X66596Y-12120D01*
X66813Y-12074D01*
X67032Y-12033D01*
X67251Y-11998D01*
X67472Y-11968D01*
X67692Y-11944D01*
X67914Y-11925D01*
X68136Y-11911D01*
X68358Y-11903D01*
X68580Y-11900D01*
X68802Y-11903D01*
X69024Y-11911D01*
X69246Y-11925D01*
X69468Y-11944D01*
X69688Y-11968D01*
X69909Y-11998D01*
X70128Y-12033D01*
X70347Y-12074D01*
X70564Y-12120D01*
X70780Y-12171D01*
X70995Y-12228D01*
X71209Y-12290D01*
X71420Y-12357D01*
X71631Y-12429D01*
X71839Y-12507D01*
X72045Y-12589D01*
X72249Y-12677D01*
X72452Y-12769D01*
X72651Y-12867D01*
X72848Y-12969D01*
X73043Y-13076D01*
X73235Y-13188D01*
X73424Y-13305D01*
X73611Y-13426D01*
X73794Y-13552D01*
X73974Y-13682D01*
X74151Y-13817D01*
X74324Y-13955D01*
X74494Y-14098D01*
X74661Y-14246D01*
X74824Y-14397D01*
X74983Y-14552D01*
X75138Y-14711D01*
X75289Y-14874D01*
X75437Y-15041D01*
X75580Y-15211D01*
X75718Y-15384D01*
X75853Y-15561D01*
X75983Y-15741D01*
X76109Y-15924D01*
X76230Y-16111D01*
X76347Y-16300D01*
X76459Y-16492D01*
X76566Y-16687D01*
X76668Y-16884D01*
X76766Y-17083D01*
X76858Y-17286D01*
X76946Y-17490D01*
X77028Y-17696D01*
X77106Y-17904D01*
X77178Y-18115D01*
X77245Y-18326D01*
X77307Y-18540D01*
X77364Y-18755D01*
X77415Y-18971D01*
X77461Y-19188D01*
X77502Y-19407D01*
X77537Y-19626D01*
X77567Y-19847D01*
X77591Y-20067D01*
X77610Y-20289D01*
X77624Y-20511D01*
X77632Y-20733D01*
X77635Y-20955D01*
X77632Y-21177D01*
X77624Y-21399D01*
X77610Y-21621D01*
X77591Y-21843D01*
X77567Y-22063D01*
X77537Y-22284D01*
X77502Y-22503D01*
X77461Y-22722D01*
X77415Y-22939D01*
X77364Y-23155D01*
X77307Y-23370D01*
X77245Y-23584D01*
X77178Y-23795D01*
X77106Y-24006D01*
X77028Y-24214D01*
X76946Y-24420D01*
X76858Y-24624D01*
X76766Y-24827D01*
X76668Y-25026D01*
X76566Y-25223D01*
X76459Y-25418D01*
X76347Y-25610D01*
X76230Y-25799D01*
X76109Y-25986D01*
X75983Y-26169D01*
X75853Y-26349D01*
X75718Y-26526D01*
X75580Y-26699D01*
X75437Y-26869D01*
X75289Y-27036D01*
X75138Y-27199D01*
X74983Y-27358D01*
X74824Y-27513D01*
X74661Y-27664D01*
X74494Y-27812D01*
X74324Y-27955D01*
X74151Y-28093D01*
X73974Y-28228D01*
X73794Y-28358D01*
X73611Y-28484D01*
X73424Y-28605D01*
X73235Y-28722D01*
X73043Y-28834D01*
X72848Y-28941D01*
X72651Y-29043D01*
X72452Y-29141D01*
X72249Y-29233D01*
X72045Y-29321D01*
X71839Y-29403D01*
X71631Y-29481D01*
X71420Y-29553D01*
X71209Y-29620D01*
X70995Y-29682D01*
X70780Y-29739D01*
X70564Y-29790D01*
X70347Y-29836D01*
X70128Y-29877D01*
X69909Y-29912D01*
X69688Y-29942D01*
X69468Y-29966D01*
X69246Y-29985D01*
X69024Y-29999D01*
X68802Y-30007D01*
X68580Y-30010D01*
X68358Y-30007D01*
X68136Y-29999D01*
X67914Y-29985D01*
X67692Y-29966D01*
X67472Y-29942D01*
X67251Y-29912D01*
X67032Y-29877D01*
X66813Y-29836D01*
X66596Y-29790D01*
X66380Y-29739D01*
X66165Y-29682D01*
X65951Y-29620D01*
X65740Y-29553D01*
X65529Y-29481D01*
X65321Y-29403D01*
X65115Y-29321D01*
X64911Y-29233D01*
X64708Y-29141D01*
X64509Y-29043D01*
X64312Y-28941D01*
X64117Y-28834D01*
X63925Y-28722D01*
X63736Y-28605D01*
X63549Y-28484D01*
X63366Y-28358D01*
X63186Y-28228D01*
X63009Y-28093D01*
X62836Y-27955D01*
X62666Y-27812D01*
X62499Y-27664D01*
X62336Y-27513D01*
X62177Y-27358D01*
X62022Y-27199D01*
X61871Y-27036D01*
X61723Y-26869D01*
X61580Y-26699D01*
X61442Y-26526D01*
X61307Y-26349D01*
X61177Y-26169D01*
X61051Y-25986D01*
X60930Y-25799D01*
X60813Y-25610D01*
X60701Y-25418D01*
X60594Y-25223D01*
X60492Y-25026D01*
X60394Y-24827D01*
X60302Y-24624D01*
X60214Y-24420D01*
X60132Y-24214D01*
X60054Y-24006D01*
X59982Y-23795D01*
X59915Y-23584D01*
X59853Y-23370D01*
X59796Y-23155D01*
X59745Y-22939D01*
X59699Y-22722D01*
X59658Y-22503D01*
X59623Y-22284D01*
X59593Y-22063D01*
X59569Y-21843D01*
X59550Y-21621D01*
X59536Y-21399D01*
X59528Y-21177D01*
X59525Y-20955D01*
D33*
X68580Y-20955D03*
M02*
